<?xml version="1.0" encoding="UTF-8" standalone="no"?>
<!-- Created with Inkscape (http://www.inkscape.org/) -->

<svg
   xmlns:dc="http://purl.org/dc/elements/1.1/"
   xmlns:cc="http://creativecommons.org/ns#"
   xmlns:rdf="http://www.w3.org/1999/02/22-rdf-syntax-ns#"
   xmlns:svg="http://www.w3.org/2000/svg"
   xmlns="http://www.w3.org/2000/svg"
   xmlns:sodipodi="http://sodipodi.sourceforge.net/DTD/sodipodi-0.dtd"
   xmlns:inkscape="http://www.inkscape.org/namespaces/inkscape"
   version="1.1"
   width="1500"
   height="1500"
   id="svg2"
   sodipodi:docname="A.svg"
   inkscape:version="0.92.4 (unknown)">
  <sodipodi:namedview
     pagecolor="#ffffff"
     bordercolor="#666666"
     borderopacity="1"
     objecttolerance="10"
     gridtolerance="10"
     guidetolerance="10"
     inkscape:pageopacity="0"
     inkscape:pageshadow="2"
     inkscape:window-width="1366"
     inkscape:window-height="716"
     id="namedview56"
     showgrid="false"
     inkscape:zoom="0.15733333"
     inkscape:cx="-291.00958"
     inkscape:cy="444.21435"
     inkscape:window-x="0"
     inkscape:window-y="24"
     inkscape:window-maximized="1"
     inkscape:current-layer="svg2" />
  <defs
     id="defs4">
    <clipPath
       id="clipPath3862">
      <rect
         width="744"
         height="1052"
         x="0"
         y="0.36218262"
         id="rect3864"
         style="fill:#2ad4ff;fill-opacity:1;stroke:none" />
    </clipPath>
    <clipPath
       id="clipPath3075">
      <rect
         width="880.29663"
         height="769.06781"
         x="320.97458"
         y="572.48926"
         id="rect3077"
         style="opacity:0.71836733;fill:#c8ab37;fill-opacity:1;stroke:none" />
    </clipPath>
    <clipPath
       id="clipPath3949">
      <rect
         width="750"
         height="750"
         x="0"
         y="2.6171874e-06"
         id="rect3951"
         style="fill:#2ad4ff;fill-opacity:1;stroke:none" />
    </clipPath>
    <clipPath
       id="clipPath3964">
      <path
         d="m 542.68968,295.5 -47.75218,173.03125 122.46875,0 0,-173.03125 z m -316.28343,5.625 0,156.75 84.8125,0 -35.39279,-161.80611 z"
         id="path3966"
         style="fill:#ff5f00;fill-opacity:1;stroke:#aa4400;stroke-width:3;stroke-linecap:square;stroke-miterlimit:4;stroke-opacity:1;stroke-dasharray:none" />
    </clipPath>
    <clipPath
       id="clipPath3036">
      <rect
         width="629.2052"
         height="620.21655"
         x="791.00079"
         y="-176.83527"
         id="rect3038"
         style="opacity:0.55510206;fill:#ffe680;fill-opacity:1;stroke:none" />
    </clipPath>
    <clipPath
       id="clipPath3042">
      <rect
         width="1276.3877"
         height="606.73358"
         x="480.89255"
         y="304.05728"
         id="rect3044"
         style="opacity:0.55510206;fill:#ffe680;fill-opacity:1;stroke:none" />
    </clipPath>
    <clipPath
       id="clipPath3986">
      <rect
         width="391.00607"
         height="175.27859"
         x="-1478.6322"
         y="283.83286"
         id="rect3988"
         style="opacity:0.53061224;fill:#9955ff;fill-opacity:1;stroke:none" />
    </clipPath>
    <clipPath
       id="clipPath4018">
      <rect
         width="1500"
         height="1500"
         x="0"
         y="2.9296871e-08"
         id="rect4020"
         style="fill:#2ad4ff;fill-opacity:1;stroke:none" />
    </clipPath>
    <clipPath
       id="clipPath4024">
      <rect
         width="1500"
         height="1500"
         x="0"
         y="2.9296871e-08"
         id="rect4026"
         style="fill:#2ad4ff;fill-opacity:1;stroke:none" />
    </clipPath>
    <clipPath
       clipPathUnits="userSpaceOnUse"
       id="clipPath911">
      <rect
         style="opacity:1;fill:#aa0000;fill-opacity:1;stroke:#000000;stroke-width:3.02362204;stroke-linejoin:miter;stroke-miterlimit:4;stroke-dasharray:none;stroke-opacity:1;paint-order:stroke markers fill"
         id="rect913"
         width="692.79663"
         height="641.94916"
         x="966.10168"
         y="699.15253"
         ry="1.67204" />
    </clipPath>
    <clipPath
       clipPathUnits="userSpaceOnUse"
       id="clipPath982">
      <rect
         width="1105.9957"
         height="1105.9957"
         x="193.8522"
         y="193.01425"
         id="rect984"
         style="fill:#aa0000;fill-opacity:1;stroke:none;stroke-width:0.7373305" />
    </clipPath>
  </defs>
  <metadata
     id="metadata7">
    <rdf:RDF>
      <cc:Work
         rdf:about="">
        <dc:format>image/svg+xml</dc:format>
        <dc:type
           rdf:resource="http://purl.org/dc/dcmitype/StillImage" />
        <dc:title />
      </cc:Work>
    </rdf:RDF>
  </metadata>
  <rect
     style="fill:#aa0000;fill-opacity:1;stroke:none"
     id="rect3082"
     y="2.9296871e-08"
     x="0"
     height="1500"
     width="1500"
     clip-path="none" />
  <path
     style="fill:#2b0000;fill-rule:evenodd;stroke:none;stroke-width:1.35624385px;stroke-linecap:butt;stroke-linejoin:miter;stroke-opacity:1"
     d="m 509.68081,786.66084 c 0,0 -88.38326,-89.90712 -88.38326,-96.00251 0,-6.0954 12.1908,-60.95399 12.1908,-77.71633 0,-16.76234 -13.71465,-41.14394 -13.71465,-65.52553 0,-24.38159 -4.57155,-111.24101 9.14309,-134.09875 13.71465,-22.85774 50.28704,-57.90627 50.28704,-83.81172 0,-25.90544 39.62008,-56.38243 42.66779,-67.04938 3.04769,-10.66694 7.61924,-38.09623 19.81004,-42.66779 12.19079,-4.57154 22.85774,-3.04769 22.85774,-3.04769 0,0 0,-28.95314 38.09623,-45.71549 38.09624,-16.76233 79.24018,-18.28619 79.24018,-18.28619 0,0 18.28619,-22.85774 38.09624,-22.85774 19.81004,0 53.33472,16.76234 53.33472,16.76234 0,0 13.71465,-12.19078 45.71548,-12.19078 32.00085,0 62.47783,39.62007 62.47783,39.62007 0,0 59.43014,4.57156 67.04938,19.81005 7.61924,15.23849 16.76235,42.66778 16.76235,42.66778 0,0 22.85774,-10.66694 41.14389,9.14311 18.2862,19.81004 85.3356,103.62175 92.9548,137.14644 7.6192,33.52469 13.7147,92.95482 13.7147,135.6226 0,42.66779 -15.2384,207.24352 -15.2384,207.24352 l -163.05199,97.52638 -425.154,-36.57239"
     id="path947"
     inkscape:connector-curvature="0"
     sodipodi:nodetypes="cssssssscscscscscscsccc"
     clip-path="none" />
  <path
     style="fill:#ff0000;fill-rule:evenodd;stroke:none;stroke-width:1.35624385px;stroke-linecap:butt;stroke-linejoin:miter;stroke-opacity:1"
     clip-path="none"
     d="M 685.31055 975.22266 C 685.31055 975.22266 465.49626 1052.8053 392.22461 1095.9062 C 318.95295 1139.0072 189.6486 1272.6205 116.37695 1397.6133 C 100.82864 1424.1369 88.396908 1459.9927 78.441406 1500 L 1500 1500 L 1500 1271.9863 C 1454.6928 1167.7858 1399.6471 1076.0626 1340.4453 1052.8047 C 1219.7625 1005.3936 1150.8001 992.46349 844.7832 979.5332 L 685.31055 975.22266 z "
     id="path919" />
  <path
     style="fill:#d45500;fill-rule:evenodd;stroke:none;stroke-width:1.35624385px;stroke-linecap:butt;stroke-linejoin:miter;stroke-opacity:1"
     d="m 633.58935,983.84366 c 0,0 -124.99282,38.79084 -155.1635,159.47354 -30.17068,120.6828 47.41107,297.3967 172.40388,327.5675 124.99282,30.1706 284.46642,-99.1322 323.25729,-198.2646 38.79088,-99.1322 56.03128,-443.93994 56.03128,-443.93994 L 685.31051,975.22347 Z"
     id="path929"
     inkscape:connector-curvature="0"
     clip-path="none" />
  <path
     style="fill:#ff9955;fill-rule:evenodd;stroke:none;stroke-width:1.35624385px;stroke-linecap:butt;stroke-linejoin:miter;stroke-opacity:1"
     d="m 726.25643,438.61637 c 0,0 36.63583,-71.1166 90.51205,-68.96155 53.87621,2.15505 122.83776,34.48077 155.16349,75.4267 32.32573,40.94593 68.96153,120.68272 81.89183,172.40388 12.9303,51.72117 12.9303,103.44234 12.9303,103.44234 0,0 19.3954,-81.89185 56.0313,-86.20194 36.6358,-4.31011 64.6514,88.35698 32.3256,153.00844 -32.3256,64.65146 -47.411,109.90748 -73.2716,109.90748 -25.8605,0 -45.256,-25.86059 -45.256,-25.86059 0,0 -25.8606,161.62867 -107.7524,234.90027 -81.89185,73.2717 -90.51204,90.512 -165.93874,90.512 -75.42669,0 -181.02408,-86.2019 -219.81496,-161.6286 -38.79086,-75.42667 -51.72116,-140.07813 -51.72116,-140.07813 0,0 -49.56611,10.77524 -66.80651,-49.56611 -17.24038,-60.34137 -51.72116,-191.79932 -30.17068,-202.57457 21.55049,-10.77524 60.34137,79.73679 60.34137,79.73679 0,0 32.32572,-129.30291 36.63582,-187.48922 4.31009,-58.18631 28.01563,-127.14786 71.1166,-142.2332 43.10097,-15.08534 62.49641,-19.39544 92.66709,-12.9303 30.17068,6.46515 71.1166,58.18631 71.1166,58.18631 z"
     id="path917"
     inkscape:connector-curvature="0"
     clip-path="none" />
  <path
     style="fill:#2b0000;fill-rule:evenodd;stroke:none;stroke-width:1.35624385px;stroke-linecap:butt;stroke-linejoin:miter;stroke-opacity:1"
     d="m 761.81473,604.55512 c 0,0 67.88404,-43.10098 129.30293,-38.79088 61.41887,4.3101 93.74461,52.79868 93.74461,52.79868 0,0 -59.26385,-23.70553 -109.90749,-22.628 -50.64364,1.07752 -113.14005,8.6202 -113.14005,8.6202 z"
     id="path955"
     inkscape:connector-curvature="0"
     clip-path="none" />
  <path
     style="fill:#2b0000;fill-rule:evenodd;stroke:none;stroke-width:1.35624385px;stroke-linecap:butt;stroke-linejoin:miter;stroke-opacity:1"
     d="m 548.46493,600.24502 c 46.33355,0 98.05471,21.55048 98.05471,21.55048 0,0 -45.25603,-51.72116 -92.66709,-46.33355 -47.41107,5.38763 -85.12441,57.10879 -85.12441,57.10879 0,0 50.64363,-32.32572 79.73679,-32.32572 z"
     id="path953"
     inkscape:connector-curvature="0"
     sodipodi:nodetypes="scscs"
     clip-path="none" />
  <path
     style="fill:#483737;fill-rule:evenodd;stroke:none;stroke-width:1.35624385px;stroke-linecap:butt;stroke-linejoin:miter;stroke-opacity:1"
     d="m 1110.9326,629.33817 -104.5198,33.40326 c 0,0 5.3876,22.62801 -10.7753,39.86839 -16.16286,17.24039 -54.95373,34.48078 -96.97717,38.79088 -42.02345,4.3101 -93.74463,14.00781 -115.29511,-5.38763 -21.55049,-19.39544 -34.48078,-74.34916 -54.95374,-75.4267 -20.47295,-1.07752 -35.5583,47.41107 -50.64364,70.03908 -15.08534,22.62802 -72.19413,36.63584 -132.53548,24.78306 -60.34136,-11.85277 -93.74462,-25.86058 -93.74462,-60.34136 0,-34.48078 12.93029,-79.73679 53.87622,-85.12442 40.94592,-5.38761 162.70616,9.69773 183.17913,17.2404 20.47296,7.54267 38.79087,14.00781 65.72897,1.07752 26.93811,-12.93029 86.20195,-24.78307 136.8456,-28.01563 50.64364,-3.23258 150.85344,7.54267 150.85344,7.54267 l 71.1166,5.38762 z"
     id="path941"
     inkscape:connector-curvature="0"
     clip-path="none" />
  <path
     style="fill:#ff9955;fill-rule:evenodd;stroke:none;stroke-width:1.35624385px;stroke-linecap:butt;stroke-linejoin:miter;stroke-opacity:1"
     d="m 681.00042,685.36944 c -11.85277,36.63582 -38.79088,67.88403 -120.68272,57.10878 -81.89185,-10.77523 -109.90748,-38.79087 -96.97719,-74.34917 12.93029,-35.55831 53.87622,-49.56613 119.6052,-40.94592 65.72897,8.62019 105.59738,10.77523 104.51986,29.09315 -1.07753,18.31791 -6.46515,29.09316 -6.46515,29.09316 z"
     id="path943"
     inkscape:connector-curvature="0"
     clip-path="none" />
  <path
     style="fill:#ff9955;fill-rule:evenodd;stroke:none;stroke-width:1.35624385px;stroke-linecap:butt;stroke-linejoin:miter;stroke-opacity:1"
     d="m 758.58217,653.0437 c 5.38761,30.17069 30.17067,95.89967 118.52767,81.89185 88.35699,-14.00781 112.06252,-36.63582 115.2951,-67.88403 3.23256,-31.2482 2.15504,-58.18631 -59.26385,-58.18631 -61.41887,0 -131.45795,6.46515 -148.69835,20.47296 -17.24038,14.00782 -22.62801,12.9303 -25.86057,23.70553 z"
     id="path945"
     inkscape:connector-curvature="0"
     clip-path="none" />
  <path
     style="fill:#ffccaa;fill-rule:evenodd;stroke:none;stroke-width:1.35624385px;stroke-linecap:butt;stroke-linejoin:miter;stroke-opacity:1"
     d="m 748.88444,977.37851 c 50.64364,-3.23256 96.97719,-15.08534 96.97719,-15.08534 0,0 -68.96156,-24.78305 -105.59738,-22.628 -36.63582,2.15504 -134.58092,23.00028 -134.58092,23.00028 0,0 73.16203,14.71306 143.20111,14.71306 z"
     id="path949"
     inkscape:connector-curvature="0"
     sodipodi:nodetypes="ccscc"
     clip-path="none" />
  <path
     style="fill:#d40000;fill-rule:evenodd;stroke:none;stroke-width:1.35624385px;stroke-linecap:butt;stroke-linejoin:miter;stroke-opacity:1"
     d="m 774.83062,921.52151 c 14.47657,0 96.00252,37.33432 96.00252,37.33432 0,0 -83.72759,-12.47136 -139.43223,-12.1908 -35.85522,0.18058 -125.71758,15.24217 -125.71758,16.00042 0,0 44.19163,-29.71506 64.7636,-35.04853 20.57197,-5.33348 60.95398,2.28577 60.95398,2.28577 13.28964,-7.52916 28.70568,-8.17708 43.42971,-8.38118 z"
     id="path931"
     inkscape:connector-curvature="0"
     sodipodi:nodetypes="ccscscc"
     clip-path="none" />
  <path
     style="fill:#800000;fill-rule:evenodd;stroke:none;stroke-width:1.35624385px;stroke-linecap:butt;stroke-linejoin:miter;stroke-opacity:1"
     d="m 605.68333,962.66545 c 0,0 74.66863,28.19121 120.38411,28.19121 45.71548,0 144.7657,-32.00083 144.7657,-32.00083 0,0 -67.04938,76.19247 -126.4795,76.19247 -59.43014,0 -109.71718,-18.2862 -138.67031,-72.38285 z"
     id="path933"
     inkscape:connector-curvature="0"
     sodipodi:nodetypes="cscsc"
     clip-path="none" />
  <path
     style="fill:#aa4400;fill-rule:evenodd;stroke:none;stroke-width:1.35624385px;stroke-linecap:butt;stroke-linejoin:miter;stroke-opacity:1"
     d="m 675.61279,733.85803 c -3.23256,37.71335 -38.79088,81.89184 -38.79088,81.89184 0,0 1.07754,31.24821 31.24821,29.09317 30.17068,-2.15506 64.65146,16.16286 34.48078,16.16286 -30.17067,0 -64.65145,-15.08534 -71.1166,-24.78307 -6.46515,-9.69771 6.46515,-36.09705 14.00782,-63.03516 7.54267,-26.93811 30.17067,-39.32964 30.17067,-39.32964 z"
     id="path957"
     inkscape:connector-curvature="0"
     sodipodi:nodetypes="ccssssc"
     clip-path="none" />
</svg>
