<?xml version="1.0" encoding="UTF-8" standalone="no"?>
<!-- Created with Inkscape (http://www.inkscape.org/) -->

<svg
   xmlns:dc="http://purl.org/dc/elements/1.1/"
   xmlns:cc="http://creativecommons.org/ns#"
   xmlns:rdf="http://www.w3.org/1999/02/22-rdf-syntax-ns#"
   xmlns:svg="http://www.w3.org/2000/svg"
   xmlns="http://www.w3.org/2000/svg"
   xmlns:sodipodi="http://sodipodi.sourceforge.net/DTD/sodipodi-0.dtd"
   xmlns:inkscape="http://www.inkscape.org/namespaces/inkscape"
   version="1.1"
   width="1500"
   height="1500"
   id="svg2"
   sodipodi:docname="Ah.svg"
   inkscape:version="0.92.4 (unknown)">
  <sodipodi:namedview
     pagecolor="#ffffff"
     bordercolor="#666666"
     borderopacity="1"
     objecttolerance="10"
     gridtolerance="10"
     guidetolerance="10"
     inkscape:pageopacity="0"
     inkscape:pageshadow="2"
     inkscape:window-width="1366"
     inkscape:window-height="716"
     id="namedview56"
     showgrid="false"
     inkscape:zoom="0.22250293"
     inkscape:cx="498.78328"
     inkscape:cy="886.07188"
     inkscape:window-x="0"
     inkscape:window-y="24"
     inkscape:window-maximized="1"
     inkscape:current-layer="svg2" />
  <defs
     id="defs4">
    <clipPath
       id="clipPath3862">
      <rect
         width="744"
         height="1052"
         x="0"
         y="0.36218262"
         id="rect3864"
         style="fill:#2ad4ff;fill-opacity:1;stroke:none" />
    </clipPath>
    <clipPath
       id="clipPath3075">
      <rect
         width="880.29663"
         height="769.06781"
         x="320.97458"
         y="572.48926"
         id="rect3077"
         style="opacity:0.71836733;fill:#c8ab37;fill-opacity:1;stroke:none" />
    </clipPath>
    <clipPath
       id="clipPath3949">
      <rect
         width="750"
         height="750"
         x="0"
         y="2.6171874e-06"
         id="rect3951"
         style="fill:#2ad4ff;fill-opacity:1;stroke:none" />
    </clipPath>
    <clipPath
       id="clipPath3964">
      <path
         d="m 542.68968,295.5 -47.75218,173.03125 122.46875,0 0,-173.03125 z m -316.28343,5.625 0,156.75 84.8125,0 -35.39279,-161.80611 z"
         id="path3966"
         style="fill:#ff5f00;fill-opacity:1;stroke:#aa4400;stroke-width:3;stroke-linecap:square;stroke-miterlimit:4;stroke-opacity:1;stroke-dasharray:none" />
    </clipPath>
    <clipPath
       id="clipPath3036">
      <rect
         width="629.2052"
         height="620.21655"
         x="791.00079"
         y="-176.83527"
         id="rect3038"
         style="opacity:0.55510206;fill:#ffe680;fill-opacity:1;stroke:none" />
    </clipPath>
    <clipPath
       id="clipPath3042">
      <rect
         width="1276.3877"
         height="606.73358"
         x="480.89255"
         y="304.05728"
         id="rect3044"
         style="opacity:0.55510206;fill:#ffe680;fill-opacity:1;stroke:none" />
    </clipPath>
    <clipPath
       id="clipPath3986">
      <rect
         width="391.00607"
         height="175.27859"
         x="-1478.6322"
         y="283.83286"
         id="rect3988"
         style="opacity:0.53061224;fill:#9955ff;fill-opacity:1;stroke:none" />
    </clipPath>
    <clipPath
       id="clipPath4018">
      <rect
         width="1500"
         height="1500"
         x="0"
         y="2.9296871e-08"
         id="rect4020"
         style="fill:#2ad4ff;fill-opacity:1;stroke:none" />
    </clipPath>
    <clipPath
       id="clipPath4024">
      <rect
         width="1500"
         height="1500"
         x="0"
         y="2.9296871e-08"
         id="rect4026"
         style="fill:#2ad4ff;fill-opacity:1;stroke:none" />
    </clipPath>
    <clipPath
       clipPathUnits="userSpaceOnUse"
       id="clipPath911">
      <rect
         style="opacity:1;fill:#aa0000;fill-opacity:1;stroke:#000000;stroke-width:3.02362204;stroke-linejoin:miter;stroke-miterlimit:4;stroke-dasharray:none;stroke-opacity:1;paint-order:stroke markers fill"
         id="rect913"
         width="692.79663"
         height="641.94916"
         x="966.10168"
         y="699.15253"
         ry="1.67204" />
    </clipPath>
    <clipPath
       clipPathUnits="userSpaceOnUse"
       id="clipPath982">
      <rect
         width="1105.9957"
         height="1105.9957"
         x="193.8522"
         y="193.01425"
         id="rect984"
         style="fill:#aa0000;fill-opacity:1;stroke:none;stroke-width:0.7373305" />
    </clipPath>
  </defs>
  <metadata
     id="metadata7">
    <rdf:RDF>
      <cc:Work
         rdf:about="">
        <dc:format>image/svg+xml</dc:format>
        <dc:type
           rdf:resource="http://purl.org/dc/dcmitype/StillImage" />
        <dc:title />
      </cc:Work>
    </rdf:RDF>
  </metadata>
  <rect
     style="fill:#aa0000;fill-opacity:1;stroke:none"
     id="rect3082"
     y="2.9296871e-08"
     x="0"
     height="1500"
     width="1500" />
  <g
     id="g978"
     transform="matrix(1.3562439,0,0,1.3562439,-262.91086,-261.77441)"
     clip-path="url(#clipPath982)">
    <path
       sodipodi:nodetypes="cssssssscscscscscscsccc"
       inkscape:connector-curvature="0"
       id="path947"
       d="m 569.65541,773.04329 c 0,0 -65.16768,-66.29126 -65.16768,-70.78558 0,-4.49432 8.98865,-44.94323 8.98865,-57.30262 0,-12.35938 -10.11223,-30.33668 -10.11223,-48.31397 0,-17.97729 -3.37074,-82.02139 6.74148,-98.8751 10.11223,-16.85371 37.07817,-42.69606 37.07817,-61.79694 0,-19.10087 29.21309,-41.57248 31.46026,-49.43755 2.24716,-7.86506 5.6179,-28.08951 14.60655,-31.46026 8.98864,-3.37074 16.85371,-2.24716 16.85371,-2.24716 0,0 0,-21.34803 28.08951,-33.70742 28.08952,-12.35938 58.4262,-13.48297 58.4262,-13.48297 0,0 13.48297,-16.85371 28.08952,-16.85371 14.60655,0 39.32532,12.35939 39.32532,12.35939 0,0 10.11223,-8.98864 33.70742,-8.98864 23.5952,0 46.06681,29.21309 46.06681,29.21309 0,0 43.81965,3.37075 49.43755,14.60655 5.6179,11.23581 12.35939,31.46026 12.35939,31.46026 0,0 16.85371,-7.86506 30.33668,6.74149 13.48296,14.60655 62.92052,76.40348 68.53838,101.12226 5.6179,24.71877 10.1123,68.53842 10.1123,99.99868 0,31.46026 -11.2358,152.80697 -11.2358,152.80697 L 883.13442,800.00923 569.65541,773.04329"
       style="fill:#2b0000;fill-rule:evenodd;stroke:none;stroke-width:1px;stroke-linecap:butt;stroke-linejoin:miter;stroke-opacity:1" />
    <path
       inkscape:connector-curvature="0"
       id="path919"
       d="m 816.73729,915.25424 c 225.63561,9.5339 276.48301,19.06779 365.46611,54.02542 88.983,34.95764 165.2542,279.66104 193.8559,384.53394 28.6017,104.8728 -6.3559,340.0423 -6.3559,340.0423 L -54.025424,1716.1017 222.45763,1560.3814 c 0,0 3.17796,-244.7034 57.20339,-336.8645 54.02542,-92.161 149.3644,-190.6779 203.38983,-222.4576 54.02542,-31.77964 216.10169,-88.98303 216.10169,-88.98303 z"
       style="fill:#ff0000;fill-rule:evenodd;stroke:none;stroke-width:1px;stroke-linecap:butt;stroke-linejoin:miter;stroke-opacity:1" />
    <path
       inkscape:connector-curvature="0"
       id="path929"
       d="m 661.01695,918.4322 c 0,0 -92.16102,28.6017 -114.40678,117.5847 -22.24576,88.9831 34.95763,219.2797 127.11864,241.5255 92.16102,22.2457 209.74577,-73.0932 238.34746,-146.1865 28.6017,-73.0932 41.31356,-327.33048 41.31356,-327.33048 L 699.15254,912.07627 Z"
       style="fill:#d45500;fill-rule:evenodd;stroke:none;stroke-width:1px;stroke-linecap:butt;stroke-linejoin:miter;stroke-opacity:1" />
    <path
       inkscape:connector-curvature="0"
       id="path917"
       d="m 729.34322,516.41949 c 0,0 27.01271,-52.43644 66.73729,-50.84746 39.72458,1.58899 90.57203,25.42373 114.40678,55.61441 23.83474,30.19068 50.84746,88.98305 60.38136,127.11864 9.53389,38.1356 9.53389,76.27119 9.53389,76.27119 0,0 14.30085,-60.38136 41.31356,-63.55932 27.0127,-3.17797 47.6695,65.1483 23.8347,112.81779 -23.8347,47.6695 -34.9576,81.03814 -54.02538,81.03814 -19.06779,0 -33.36864,-19.0678 -33.36864,-19.0678 0,0 -19.0678,119.17373 -79.44915,173.19912 -60.38136,54.0255 -66.73729,66.7373 -122.3517,66.7373 -55.6144,0 -133.47457,-63.5593 -162.07627,-119.1737 -28.60169,-55.61441 -38.13559,-103.2839 -38.13559,-103.2839 0,0 -36.54661,7.94491 -49.25848,-36.54661 C 494.17373,772.24576 468.75,675.3178 484.63983,667.37288 c 15.88983,-7.94491 44.49153,58.79237 44.49153,58.79237 0,0 23.83474,-95.33898 27.01271,-138.24152 3.17796,-42.90254 20.65678,-93.75 52.43644,-104.87288 31.77966,-11.12288 46.08051,-14.30085 68.32627,-9.5339 22.24576,4.76695 52.43644,42.90254 52.43644,42.90254 z"
       style="fill:#ff9955;fill-rule:evenodd;stroke:none;stroke-width:1px;stroke-linecap:butt;stroke-linejoin:miter;stroke-opacity:1" />
    <path
       inkscape:connector-curvature="0"
       id="path955"
       d="m 755.56144,638.77119 c 0,0 50.05297,-31.77967 95.33899,-28.6017 45.28601,3.17797 69.12076,38.93008 69.12076,38.93008 0,0 -43.69704,-17.47881 -81.03814,-16.68432 -37.3411,0.79449 -83.42161,6.35594 -83.42161,6.35594 z"
       style="fill:#2b0000;fill-rule:evenodd;stroke:none;stroke-width:1px;stroke-linecap:butt;stroke-linejoin:miter;stroke-opacity:1" />
    <path
       sodipodi:nodetypes="scscs"
       inkscape:connector-curvature="0"
       id="path953"
       d="m 598.25212,635.59322 c 34.16314,0 72.29873,15.88983 72.29873,15.88983 0,0 -33.36865,-38.13559 -68.32627,-34.16314 -34.95763,3.97246 -62.76483,42.10805 -62.76483,42.10805 0,0 37.3411,-23.83474 58.79237,-23.83474 z"
       style="fill:#2b0000;fill-rule:evenodd;stroke:none;stroke-width:1px;stroke-linecap:butt;stroke-linejoin:miter;stroke-opacity:1" />
    <path
       inkscape:connector-curvature="0"
       id="path941"
       d="m 1012.9767,657.04449 -77.06568,24.62924 c 0,0 3.97246,16.68432 -7.94492,29.39618 -11.91737,12.71187 -40.51906,25.42373 -71.50423,28.6017 C 825.4767,742.84958 787.3411,750 771.45127,735.69915 755.56144,721.3983 746.02754,680.87924 730.9322,680.08474 c -15.09533,-0.79449 -26.21822,34.95763 -37.3411,51.64195 -11.12288,16.68433 -53.23093,27.01272 -97.72245,18.27331 -44.49153,-8.73941 -69.12077,-19.0678 -69.12077,-44.49153 0,-25.42373 9.5339,-58.79237 39.72458,-62.76483 30.19068,-3.97245 119.96822,7.15043 135.06356,12.71187 15.09534,5.56144 28.60169,10.32839 48.46398,0.79449 19.86229,-9.5339 63.55932,-18.27331 100.90043,-20.65678 37.3411,-2.38348 111.22881,5.56144 111.22881,5.56144 l 52.43646,3.97246 z"
       style="fill:#483737;fill-rule:evenodd;stroke:none;stroke-width:1px;stroke-linecap:butt;stroke-linejoin:miter;stroke-opacity:1" />
    <path
       inkscape:connector-curvature="0"
       id="path943"
       d="m 695.97458,698.35805 c -8.73941,27.01271 -28.6017,50.05297 -88.98305,42.10805 -60.38136,-7.94491 -81.03814,-28.60169 -71.50424,-54.81991 9.5339,-26.21823 39.72458,-36.54662 88.18856,-30.19068 48.46398,6.35593 77.86017,7.94491 77.06568,21.45127 -0.79449,13.50635 -4.76695,21.45127 -4.76695,21.45127 z"
       style="fill:#ff9955;fill-rule:evenodd;stroke:none;stroke-width:1px;stroke-linecap:butt;stroke-linejoin:miter;stroke-opacity:1" />
    <path
       inkscape:connector-curvature="0"
       id="path945"
       d="m 753.17797,674.5233 c 3.97245,22.24577 22.24576,70.70975 87.39407,60.38136 65.1483,-10.32839 82.62711,-27.01271 85.01059,-50.05297 2.38347,-23.04025 1.58898,-42.90254 -43.69704,-42.90254 -45.28601,0 -96.92796,4.76695 -109.63983,15.09534 -12.71186,10.32839 -16.68432,9.5339 -19.06779,17.47881 z"
       style="fill:#ff9955;fill-rule:evenodd;stroke:none;stroke-width:1px;stroke-linecap:butt;stroke-linejoin:miter;stroke-opacity:1" />
    <path
       sodipodi:nodetypes="ccscc"
       inkscape:connector-curvature="0"
       id="path949"
       d="m 746.02754,913.66525 c 37.3411,-2.38347 71.50424,-11.12288 71.50424,-11.12288 0,0 -50.84746,-18.2733 -77.86017,-16.68432 -27.01271,1.58898 -99.23062,16.95881 -99.23062,16.95881 0,0 53.9446,10.84839 105.58655,10.84839 z"
       style="fill:#ffccaa;fill-rule:evenodd;stroke:none;stroke-width:1px;stroke-linecap:butt;stroke-linejoin:miter;stroke-opacity:1" />
    <path
       sodipodi:nodetypes="ccscscc"
       inkscape:connector-curvature="0"
       id="path931"
       d="m 765.15845,872.48018 c 10.67402,0 70.78559,27.52773 70.78559,27.52773 0,0 -61.73491,-9.19551 -102.80764,-8.98865 -26.43715,0.13315 -92.69541,11.23852 -92.69541,11.7976 0,0 32.58384,-21.90982 47.75218,-25.84235 15.16834,-3.93254 44.94323,1.68537 44.94323,1.68537 9.79886,-5.55148 21.16557,-6.02921 32.02205,-6.1797 z"
       style="fill:#d40000;fill-rule:evenodd;stroke:none;stroke-width:1px;stroke-linecap:butt;stroke-linejoin:miter;stroke-opacity:1" />
    <path
       sodipodi:nodetypes="cscsc"
       inkscape:connector-curvature="0"
       id="path933"
       d="m 640.44099,902.81686 c 0,0 55.05546,20.78624 88.76288,20.78624 33.70742,0 106.74017,-23.59519 106.74017,-23.59519 0,0 -49.43756,56.17903 -93.2572,56.17903 -43.81965,0 -80.89782,-13.48296 -102.24585,-53.37008 z"
       style="fill:#800000;fill-rule:evenodd;stroke:none;stroke-width:1px;stroke-linecap:butt;stroke-linejoin:miter;stroke-opacity:1" />
    <path
       sodipodi:nodetypes="ccssssc"
       inkscape:connector-curvature="0"
       id="path957"
       d="m 692.00212,734.11017 c -2.38347,27.8072 -28.6017,60.38135 -28.6017,60.38135 0,0 0.7945,23.04026 23.04026,21.45128 22.24576,-1.58899 47.66949,11.91737 25.42373,11.91737 -22.24576,0 -47.66949,-11.12288 -52.43644,-18.27331 -4.76695,-7.15042 4.76695,-26.61546 10.32839,-46.47775 5.56144,-19.86229 22.24576,-28.99894 22.24576,-28.99894 z"
       style="fill:#aa4400;fill-rule:evenodd;stroke:none;stroke-width:1px;stroke-linecap:butt;stroke-linejoin:miter;stroke-opacity:1" />
  </g>
  <rect
     width="1500"
     height="1500"
     x="0"
     y="2.9296871e-08"
     id="rect848"
     style="fill:#000000;fill-opacity:0.50196081;stroke:none" />
  <g
     aria-label="A"
     transform="translate(1084.339,-56.77966)"
     style="font-style:normal;font-variant:normal;font-weight:900;font-stretch:normal;font-size:1333.33337402px;line-height:125%;font-family:'Jones*';-inkscape-font-specification:'Jones* Heavy';text-align:center;letter-spacing:0px;word-spacing:0px;text-anchor:middle;fill:#ffffff;fill-opacity:1;stroke:none;stroke-width:1px;stroke-linecap:butt;stroke-linejoin:miter;stroke-opacity:1"
     id="flowRoot850">
    <path
       d="m -116.87402,1115.2494 62.666672,166.6667 H 185.79266 L -200.87402,348.58269 h -266.66667 l -386.66668,933.33341 h 240 l 62.66667,-166.6667 z m -217.33334,-584.00004 145.33334,390.66668 h -290.66667 z"
       style=""
       id="path861" />
  </g>
</svg>
