<?xml version="1.0" encoding="UTF-8" standalone="no"?>
<!-- Created with Inkscape (http://www.inkscape.org/) -->

<svg
   xmlns:dc="http://purl.org/dc/elements/1.1/"
   xmlns:cc="http://creativecommons.org/ns#"
   xmlns:rdf="http://www.w3.org/1999/02/22-rdf-syntax-ns#"
   xmlns:svg="http://www.w3.org/2000/svg"
   xmlns="http://www.w3.org/2000/svg"
   xmlns:sodipodi="http://sodipodi.sourceforge.net/DTD/sodipodi-0.dtd"
   xmlns:inkscape="http://www.inkscape.org/namespaces/inkscape"
   version="1.1"
   width="1500"
   height="1500"
   id="svg2"
   sodipodi:docname="B.svg"
   inkscape:version="0.92.4 (unknown)">
  <sodipodi:namedview
     pagecolor="#ffffff"
     bordercolor="#666666"
     borderopacity="1"
     objecttolerance="10"
     gridtolerance="10"
     guidetolerance="10"
     inkscape:pageopacity="0"
     inkscape:pageshadow="2"
     inkscape:window-width="1366"
     inkscape:window-height="716"
     id="namedview56"
     showgrid="false"
     inkscape:zoom="0.15733333"
     inkscape:cx="-111.89207"
     inkscape:cy="406.46413"
     inkscape:window-x="0"
     inkscape:window-y="24"
     inkscape:window-maximized="1"
     inkscape:current-layer="svg2" />
  <defs
     id="defs4">
    <clipPath
       id="clipPath3862">
      <rect
         width="744"
         height="1052"
         x="0"
         y="0.36218262"
         id="rect3864"
         style="fill:#2ad4ff;fill-opacity:1;stroke:none" />
    </clipPath>
    <clipPath
       id="clipPath3075">
      <rect
         width="880.29663"
         height="769.06781"
         x="320.97458"
         y="572.48926"
         id="rect3077"
         style="opacity:0.71836733;fill:#c8ab37;fill-opacity:1;stroke:none" />
    </clipPath>
    <clipPath
       id="clipPath3949">
      <rect
         width="750"
         height="750"
         x="0"
         y="2.6171874e-06"
         id="rect3951"
         style="fill:#2ad4ff;fill-opacity:1;stroke:none" />
    </clipPath>
    <clipPath
       id="clipPath3964">
      <path
         d="m 542.68968,295.5 -47.75218,173.03125 122.46875,0 0,-173.03125 z m -316.28343,5.625 0,156.75 84.8125,0 -35.39279,-161.80611 z"
         id="path3966"
         style="fill:#ff5f00;fill-opacity:1;stroke:#aa4400;stroke-width:3;stroke-linecap:square;stroke-miterlimit:4;stroke-opacity:1;stroke-dasharray:none" />
    </clipPath>
    <clipPath
       id="clipPath3036">
      <rect
         width="629.2052"
         height="620.21655"
         x="791.00079"
         y="-176.83527"
         id="rect3038"
         style="opacity:0.55510206;fill:#ffe680;fill-opacity:1;stroke:none" />
    </clipPath>
    <clipPath
       id="clipPath3042">
      <rect
         width="1276.3877"
         height="606.73358"
         x="480.89255"
         y="304.05728"
         id="rect3044"
         style="opacity:0.55510206;fill:#ffe680;fill-opacity:1;stroke:none" />
    </clipPath>
    <clipPath
       id="clipPath3986">
      <rect
         width="391.00607"
         height="175.27859"
         x="-1478.6322"
         y="283.83286"
         id="rect3988"
         style="opacity:0.53061224;fill:#9955ff;fill-opacity:1;stroke:none" />
    </clipPath>
    <clipPath
       id="clipPath4018">
      <rect
         width="1500"
         height="1500"
         x="0"
         y="2.9296871e-08"
         id="rect4020"
         style="fill:#2ad4ff;fill-opacity:1;stroke:none" />
    </clipPath>
    <clipPath
       id="clipPath4024">
      <rect
         width="1500"
         height="1500"
         x="0"
         y="2.9296871e-08"
         id="rect4026"
         style="fill:#2ad4ff;fill-opacity:1;stroke:none" />
    </clipPath>
    <clipPath
       clipPathUnits="userSpaceOnUse"
       id="clipPath911">
      <rect
         style="opacity:1;fill:#aa0000;fill-opacity:1;stroke:#000000;stroke-width:3.02362204;stroke-linejoin:miter;stroke-miterlimit:4;stroke-dasharray:none;stroke-opacity:1;paint-order:stroke markers fill"
         id="rect913"
         width="692.79663"
         height="641.94916"
         x="966.10168"
         y="699.15253"
         ry="1.67204" />
    </clipPath>
    <clipPath
       clipPathUnits="userSpaceOnUse"
       id="clipPath982">
      <rect
         width="1105.9957"
         height="1105.9957"
         x="193.8522"
         y="193.01425"
         id="rect984"
         style="fill:#aa0000;fill-opacity:1;stroke:none;stroke-width:0.7373305" />
    </clipPath>
    <clipPath
       clipPathUnits="userSpaceOnUse"
       id="clipPath892">
      <rect
         width="1500"
         height="1500"
         x="0"
         y="2.9296871e-08"
         id="rect894"
         style="fill:#71c837;fill-opacity:1;stroke:none" />
    </clipPath>
  </defs>
  <metadata
     id="metadata7">
    <rdf:RDF>
      <cc:Work
         rdf:about="">
        <dc:format>image/svg+xml</dc:format>
        <dc:type
           rdf:resource="http://purl.org/dc/dcmitype/StillImage" />
        <dc:title />
      </cc:Work>
    </rdf:RDF>
  </metadata>
  <rect
     style="fill:#71c837;fill-opacity:1;stroke:none"
     id="rect3082"
     y="2.9296871e-08"
     x="0"
     height="1500"
     width="1500" />
  <path
     style="fill:#447821;fill-opacity:1;fill-rule:evenodd;stroke:none;stroke-width:1.12957454px;stroke-linecap:butt;stroke-linejoin:miter;stroke-opacity:1"
     d="m 840.0277,275.27606 c 0,0 -15.23001,-35.53671 -63.45841,-38.07505 -48.22839,-2.53833 -175.1452,101.53345 -208.14357,190.37522 -32.99837,88.84177 -12.69168,205.60525 -35.53671,279.217 -22.84503,73.61175 2.53834,197.99022 -30.46004,256.37197 -32.99837,58.3817 -129.45515,182.7602 -129.45515,182.7602 l 1045.79448,76.1501 c 0,0 60.9201,-104.0718 2.5384,-131.9935 -58.3817,-27.9217 -63.4585,25.3834 -134.5319,-88.8418 -71.0734,-114.2251 -68.535,-121.8401 -76.15,-223.37356 C 1203.0097,676.33319 1197.9331,612.87478 1152.2431,508.803 1106.553,404.73121 1121.7829,359.04116 1050.7096,305.7361 979.63624,252.43103 923.7928,234.66268 888.25609,234.66268 c -35.53671,0 -48.22839,40.61338 -48.22839,40.61338 z"
     id="path861"
     inkscape:connector-curvature="0" />
  <path
     style="fill:#2d5016;fill-rule:evenodd;stroke:none;stroke-width:1.12957454px;stroke-linecap:butt;stroke-linejoin:miter;stroke-opacity:1"
     d="M 626.80664 965.70312 C 626.80664 965.70312 504.96762 978.39548 466.89258 988.54883 C 428.81753 998.70213 403.43359 1041.8535 403.43359 1041.8535 C 403.43359 1041.8535 342.51355 1039.3145 294.28516 1039.3145 C 246.05677 1039.3145 200.36634 1074.8514 149.59961 1115.4648 C 98.832888 1156.0781 111.52449 1151.0029 81.064453 1161.1562 C 50.60442 1171.3095 55.682416 1214.461 37.914062 1234.7676 C 33.636513 1239.6562 19.220222 1260.0507 0 1287.8887 L 0 1500 L 1500 1500 L 1500 1215.1211 C 1488.57 1206.2145 1475.8389 1196.3761 1461.9199 1181.4629 C 1426.3831 1143.3877 1441.6132 1107.8507 1393.3848 1097.6973 C 1345.1563 1087.544 1220.7774 1057.083 1111.6289 1026.623 C 1002.4805 996.16304 626.80664 965.70312 626.80664 965.70312 z "
     id="path863" />
  <path
     style="fill:#aade87;fill-rule:evenodd;stroke:none;stroke-width:1.12957454px;stroke-linecap:butt;stroke-linejoin:miter;stroke-opacity:1"
     d="m 814.64434,922.55181 c 0,0 159.9152,27.9217 203.06686,63.45841 43.1517,35.53668 100.2748,49.48718 22.845,126.91678 -50.76666,50.7667 -129.45509,116.7635 -286.83193,109.1485 -157.37685,-7.615 -205.60524,-73.6117 -225.91194,-144.6852 -20.30669,-71.0734 167.53021,-162.4535 167.53021,-162.4535 z"
     id="path865"
     inkscape:connector-curvature="0"
     sodipodi:nodetypes="csssscc" />
  <path
     style="fill:#c6e9af;fill-rule:evenodd;stroke:none;stroke-width:1.12957454px;stroke-linecap:butt;stroke-linejoin:miter;stroke-opacity:1"
     d="m 850.18105,392.03952 c 0,0 27.9217,-35.53671 63.4584,-32.99836 35.53671,2.53834 98.99505,45.69005 124.37845,101.53345 25.3834,55.84339 65.9967,147.2235 65.9967,213.22025 0,65.99674 10.1534,195.45189 -45.69,269.06364 -55.8434,73.6118 -147.22349,131.9935 -241.14193,116.7635 -93.91844,-15.2301 -164.99186,-63.45841 -185.29855,-192.91359 -20.30668,-129.45515 5.07667,-253.83363 20.30669,-327.44538 15.23002,-73.61175 38.07505,-142.14683 98.99513,-167.5302 60.92006,-25.38335 98.99511,20.30669 98.99511,20.30669 z"
     id="path867"
     inkscape:connector-curvature="0" />
  <path
     style="fill:#447821;fill-rule:evenodd;stroke:none;stroke-width:1.12957454px;stroke-linecap:butt;stroke-linejoin:miter;stroke-opacity:1"
     d="m 600.1549,732.17703 c 0,0 -22.8444,25.38348 -29.19023,78.68855 -6.34585,53.30506 5.07559,145.95293 67.26483,239.87142 62.18924,93.9184 93.91825,116.7644 195.45169,123.1103 101.53346,6.3458 137.37485,-45.2255 177.68511,-92.6493 43.1517,-50.7667 92.6473,-123.11042 115.4924,-178.95381 22.845,-55.84341 -2.5371,-145.95339 -2.5371,-145.95339 0,0 -49.4985,145.95417 -86.3044,153.56919 -12.261,2.53676 -27.3354,10.15183 -41.99276,19.16968 0.065,-0.66044 0.1103,-1.33491 0.1103,-2.03633 0,-17.76835 -17.7675,-66.63062 -34.26668,-92.01399 -16.49919,-25.38336 -65.99787,-36.80604 -81.22789,-36.80604 -15.23002,0 -35.53525,19.0373 -49.4961,19.0373 -13.96086,0 -35.53746,-13.96001 -49.49831,-20.30586 -13.96084,-6.34584 -32.99912,1.26773 -63.45915,21.57442 -21.29849,14.199 -36.6723,74.52968 -44.01149,109.59521 C 660.61415,916.78104 644.68689,900.73892 628.07657,878.13042 582.38651,815.94119 600.1549,732.17703 600.1549,732.17703 Z M 811.68097,852.148 c 22.25603,0.0221 46.51237,3.93084 84.19081,6.94511 54.1798,4.33438 73.14976,66.79677 77.55456,85.01594 -19.49946,13.91597 -34.40349,26.67075 -34.40349,26.67075 0,0 -34.26743,-27.92086 -111.68668,-34.2667 -77.41925,-6.34584 -112.95525,16.49796 -112.95525,16.49796 0,0 -7.87769,-2.46576 -20.58826,-10.52577 0.0928,-0.0911 0.18763,-0.16779 0.28018,-0.26034 11.42252,-11.4225 29.19241,-70.44016 71.07495,-83.13184 17.0148,-5.15599 31.30537,-6.96022 46.53318,-6.94511 z"
     id="path869"
     inkscape:connector-curvature="0" />
  <path
     style="fill:#2d5016;fill-rule:evenodd;stroke:none;stroke-width:1.12957454px;stroke-linecap:butt;stroke-linejoin:miter;stroke-opacity:1"
     d="m 701.18564,619.37622 c -28.69533,0.12818 -57.22478,4.66271 -65.61019,8.30855 -10.32054,4.48719 -10.76847,18.84757 -10.76847,18.84757 l -12.56432,-1.34579 -2.24369,19.74329 17.94964,2.69157 c 0,0 0.44868,29.16604 8.0769,39.48657 7.62821,10.32052 39.03917,18.39847 74.48794,20.19336 35.44878,1.79486 55.19044,2.69121 75.83151,-4.03957 20.64105,-6.73078 19.74486,-17.94836 24.68076,-27.82017 4.93592,-9.87182 3.5895,-38.1408 3.5895,-38.1408 0,0 17.63222,-1.28786 27.62383,-1.76054 9.99197,0.47275 27.62163,1.76054 27.62163,1.76054 0,0 -1.34642,28.26898 3.58949,38.1408 4.9359,9.87181 4.03971,21.08939 24.68076,27.82017 20.64106,6.73078 40.38273,5.83443 75.83151,4.03957 35.44876,-1.79489 66.85966,-9.87284 74.48786,-20.19336 7.6283,-10.32053 8.0769,-39.48657 8.0769,-39.48657 l 17.9497,-2.69157 -2.2437,-19.74329 -12.5643,1.34579 c 0,0 -0.448,-14.36038 -10.7685,-18.84757 -8.3854,-3.64584 -36.9149,-8.18037 -65.61016,-8.30855 -6.622,-0.0296 -13.252,0.17691 -19.6462,0.68172 -34.10261,2.69231 -64.61747,5.38335 -74.93801,9.87054 -10.32052,4.48718 -15.7047,9.87332 -17.49957,13.01437 -1.79488,3.14103 -2.24371,8.52476 -2.24371,8.52476 0,0 -2.54608,-0.24288 -5.82216,-0.52949 -5.51599,-0.60811 -12.77462,-1.26635 -18.90934,-1.26635 -0.62716,0 -1.32993,0.0247 -1.9922,0.0352 -0.66305,-0.0102 -1.36656,-0.0352 -1.99441,-0.0352 -6.13472,0 -13.39335,0.65824 -18.90933,1.26635 -3.27609,0.28661 -5.82217,0.52949 -5.82217,0.52949 0,0 -0.44883,-5.38373 -2.24371,-8.52476 -1.79487,-3.14105 -7.17905,-8.52719 -17.49958,-13.01437 -10.32053,-4.48719 -40.83539,-7.17823 -74.938,-9.87054 -6.39424,-0.50481 -13.02422,-0.7113 -19.64621,-0.68172 z m 10.25662,3.52771 c 5.56177,0.0213 10.87716,0.12516 15.67285,0.29343 25.57696,0.89744 56.98633,5.38518 69.55046,11.21853 12.56412,5.83334 13.9101,13.91009 13.9101,13.91009 0,13.46157 -1.79461,28.26898 -3.5895,38.14078 -1.79487,9.87182 -5.38347,21.98896 -12.11424,25.5787 -6.73079,3.58975 -15.25716,8.077 -31.85974,10.3206 -16.6026,2.24358 -27.37194,0.89743 -55.19251,0 -27.82056,-0.89745 -33.20508,-5.83428 -50.70511,-9.87275 -17.50003,-4.03846 -18.39637,-8.97415 -22.43484,-21.98698 -4.03846,-13.01285 -6.73101,-29.61622 -4.48741,-42.18035 2.24359,-12.56412 4.03801,-13.46209 17.49958,-19.29543 10.93751,-4.73959 39.64936,-6.21919 63.75036,-6.12662 z m 261.59138,0 c 24.101,-0.0926 52.81276,1.38703 63.75036,6.12662 13.4615,5.83334 15.2559,6.73131 17.4995,19.29543 2.2436,12.56413 -0.4489,29.1675 -4.4874,42.18035 -4.0384,13.01283 -4.9348,17.94852 -22.4348,21.98698 -17.5,4.03847 -22.8846,8.9753 -50.70506,9.87275 -27.82059,0.89743 -38.58995,2.24358 -55.19254,0 -16.60259,-2.2436 -25.12895,-6.73085 -31.85973,-10.3206 -6.73078,-3.58974 -10.31938,-15.70688 -12.11425,-25.5787 -1.79488,-9.8718 -3.58949,-24.67921 -3.58949,-38.14078 0,0 1.34597,-8.07675 13.9101,-13.91009 12.56412,-5.83335 43.9735,-10.32109 69.55045,-11.21853 4.79569,-0.16827 10.11109,-0.27208 15.67286,-0.29343 z"
     id="path874"
     inkscape:connector-curvature="0" />
</svg>
