<?xml version="1.0" encoding="UTF-8" standalone="no"?>
<!-- Created with Inkscape (http://www.inkscape.org/) -->

<svg
   xmlns:dc="http://purl.org/dc/elements/1.1/"
   xmlns:cc="http://creativecommons.org/ns#"
   xmlns:rdf="http://www.w3.org/1999/02/22-rdf-syntax-ns#"
   xmlns:svg="http://www.w3.org/2000/svg"
   xmlns="http://www.w3.org/2000/svg"
   xmlns:sodipodi="http://sodipodi.sourceforge.net/DTD/sodipodi-0.dtd"
   xmlns:inkscape="http://www.inkscape.org/namespaces/inkscape"
   version="1.1"
   width="1500"
   height="1500"
   id="svg2"
   sodipodi:docname="Chris.svg"
   inkscape:version="0.92.4 (unknown)">
  <sodipodi:namedview
     pagecolor="#ffffff"
     bordercolor="#666666"
     borderopacity="1"
     objecttolerance="10"
     gridtolerance="10"
     guidetolerance="10"
     inkscape:pageopacity="0"
     inkscape:pageshadow="2"
     inkscape:window-width="1366"
     inkscape:window-height="716"
     id="namedview25"
     showgrid="false"
     inkscape:zoom="0.22250293"
     inkscape:cx="-95.07191"
     inkscape:cy="669.57553"
     inkscape:window-x="0"
     inkscape:window-y="24"
     inkscape:window-maximized="1"
     inkscape:current-layer="svg2" />
  <defs
     id="defs4">
    <clipPath
       id="clipPath3862">
      <rect
         width="744"
         height="1052"
         x="0"
         y="0.36218262"
         id="rect3864"
         style="fill:#2ad4ff;fill-opacity:1;stroke:none" />
    </clipPath>
    <clipPath
       id="clipPath3075">
      <rect
         width="880.29663"
         height="769.06781"
         x="320.97458"
         y="572.48926"
         id="rect3077"
         style="opacity:0.71836733;fill:#c8ab37;fill-opacity:1;stroke:none" />
    </clipPath>
    <clipPath
       id="clipPath3949">
      <rect
         width="750"
         height="750"
         x="0"
         y="2.6171874e-06"
         id="rect3951"
         style="fill:#2ad4ff;fill-opacity:1;stroke:none" />
    </clipPath>
    <clipPath
       id="clipPath3964">
      <path
         d="m 542.68968,295.5 -47.75218,173.03125 122.46875,0 0,-173.03125 z m -316.28343,5.625 0,156.75 84.8125,0 -35.39279,-161.80611 z"
         id="path3966"
         style="fill:#ff5f00;fill-opacity:1;stroke:#aa4400;stroke-width:3;stroke-linecap:square;stroke-miterlimit:4;stroke-opacity:1;stroke-dasharray:none" />
    </clipPath>
    <clipPath
       id="clipPath3029">
      <rect
         width="431.45499"
         height="311.23184"
         x="578.64404"
         y="247.8784"
         id="rect3031"
         style="fill:#000000;fill-opacity:1;stroke:#000000;stroke-width:3;stroke-linecap:square;stroke-miterlimit:4;stroke-opacity:1;stroke-dasharray:none" />
    </clipPath>
    <clipPath
       id="clipPath3829">
      <rect
         width="1500"
         height="1500"
         x="0"
         y="2.6171874e-06"
         id="rect3831"
         style="fill:#2ad4ff;fill-opacity:1;stroke:none" />
    </clipPath>
    <clipPath
       clipPathUnits="userSpaceOnUse"
       id="clipPath906">
      <rect
         width="1500"
         height="1500"
         x="0"
         y="2.6171874e-06"
         id="rect908"
         style="fill:#2ad4ff;fill-opacity:1;stroke:none" />
    </clipPath>
    <clipPath
       clipPathUnits="userSpaceOnUse"
       id="clipPath858">
      <rect
         style="opacity:1;fill:#b3ff80;fill-opacity:1;stroke:none;stroke-width:2;stroke-linejoin:miter;stroke-miterlimit:4;stroke-dasharray:none;stroke-opacity:1;paint-order:stroke markers fill"
         id="rect860"
         width="795.49512"
         height="921.33618"
         x="799.98944"
         y="309.00446"
         ry="1.67204" />
    </clipPath>
    <clipPath
       clipPathUnits="userSpaceOnUse"
       id="clipPath887">
      <rect
         style="opacity:1;fill:#ff2a2a;fill-opacity:1;stroke:none;stroke-width:2;stroke-linejoin:miter;stroke-miterlimit:4;stroke-dasharray:none;stroke-opacity:1;paint-order:stroke markers fill"
         id="rect889"
         width="638.19385"
         height="629.2052"
         x="-1015.717"
         y="583.15814"
         ry="1.67204" />
    </clipPath>
  </defs>
  <metadata
     id="metadata7">
    <rdf:RDF>
      <cc:Work
         rdf:about="">
        <dc:format>image/svg+xml</dc:format>
        <dc:type
           rdf:resource="http://purl.org/dc/dcmitype/StillImage" />
        <dc:title />
      </cc:Work>
    </rdf:RDF>
  </metadata>
  <rect
     style="fill:#ff2a2a;fill-opacity:1;stroke:none"
     id="rect3082"
     y="2.6171874e-06"
     x="0"
     height="1500"
     width="1500" />
  <path
     style="fill:#008033;fill-rule:evenodd;stroke:none;stroke-width:1.23917782px;stroke-linecap:butt;stroke-linejoin:miter;stroke-opacity:1"
     d="M 599.67773 1086.5449 C 599.67773 1086.5449 401.96884 1181.2213 101.22852 1309.3145 C 63.038749 1325.5805 29.494413 1341.9789 0 1358.2168 L 0 1500 L 1500 1500 L 1500 1480.7148 C 1491.1942 1467.9346 1483.3426 1457.8348 1476.8379 1451.3301 C 1418.3607 1392.8528 1164.9592 1197.9287 1073.0664 1161.7285 C 981.17348 1125.5282 599.67773 1086.5449 599.67773 1086.5449 z "
     id="path862" />
  <path
     style="fill:#93ac93;fill-rule:evenodd;stroke:none;stroke-width:1.23917782px;stroke-linecap:butt;stroke-linejoin:miter;stroke-opacity:1"
     d="m 580.18616,913.89676 c 0,0 -50.12339,186.57034 -50.12339,228.33984 0,41.7695 19.49243,114.17 105.81604,150.3702 86.32361,36.2002 225.55526,13.9232 289.60176,-44.5541 64.0466,-58.4773 64.0466,-89.1083 64.0466,-142.0163 0,-52.908 -30.631,-342.50981 -30.631,-342.50981 z"
     id="path864"
     inkscape:connector-curvature="0" />
  <path
     style="fill:#b7c8b7;fill-rule:evenodd;stroke:none;stroke-width:1.23917782px;stroke-linecap:butt;stroke-linejoin:miter;stroke-opacity:1"
     d="m 662.22329,232.63765 c -0.50607,0.14958 -1.01335,0.29566 -1.51508,0.45259 -0.69125,0.21623 -1.3745,0.4473 -2.05723,0.67767 -0.49128,0.16575 -0.9848,0.3278 -1.47153,0.501 -0.65485,0.23304 -1.29952,0.48181 -1.94589,0.7285 -0.47837,0.18256 -0.96164,0.35684 -1.43522,0.54699 -0.67804,0.27225 -1.34332,0.5639 -2.01125,0.85193 -0.44186,0.19053 -0.88898,0.37365 -1.3263,0.57118 -0.70258,0.31736 -1.39094,0.65664 -2.08143,0.99231 -0.37953,0.1845 -0.7666,0.35688 -1.14238,0.54698 -1.06026,0.5364 -2.10726,1.09299 -3.13667,1.67482 -64.04654,36.20023 -136.1661,16.31837 -172.36631,83.14954 -13.57509,25.06171 -36.03388,178.07653 -23.11488,224.67773 1.32074,4.76418 -2.1759,9.57122 -3.14878,14.23361 -8.75586,41.96158 9.27537,86.16836 9.27537,86.16836 0,0 -8.35409,-19.49417 -25.06189,-16.70953 -16.70783,2.78462 -25.06259,58.47673 -8.35476,103.03086 16.70771,44.55412 30.63178,130.87911 38.98569,144.80228 8.35389,13.92317 25.06189,5.56904 25.06189,5.56904 0,0 38.90292,86.32809 72.39993,137.39379 19.53799,42.9002 58.40565,93.688 108.07954,126.401 29.0598,20.5727 62.91343,33.8112 103.61899,33.8112 40.70557,0 74.5592,-13.2385 103.61897,-33.8112 49.6739,-32.713 88.5416,-83.5008 108.0796,-126.401 33.49703,-51.0657 72.39993,-137.39379 72.39993,-137.39379 0,0 11.8953,5.9481 20.6304,-0.55666 1.6176,-1.20458 3.1262,-2.83688 4.4315,-5.01238 8.0928,-13.48807 21.4126,-94.92343 37.427,-140.50631 0.5166,-1.47041 1.0366,-2.90366 1.5586,-4.29597 6.7876,-18.10013 9.4384,-38.03852 9.0737,-55.52098 -0.056,-2.68961 -0.1828,-5.32026 -0.3776,-7.87797 -1.6558,-21.74061 -8.1747,-38.15258 -17.0507,-39.63191 -16.7078,-2.78466 -25.062,16.70953 -25.062,16.70953 0,0 -8.3545,-108.60203 -44.5547,-175.43322 -18.1001,-33.41558 48.3501,-164.10873 24.681,-184.64526 -23.6692,-20.53652 -137.45763,-30.05064 -169.48093,-48.15076 -1.0294,-0.58183 -2.0764,-1.13842 -3.1366,-1.67482 -0.3758,-0.1901 -0.7629,-0.36248 -1.1424,-0.54698 -0.6905,-0.33567 -1.3789,-0.67495 -2.0815,-0.99231 -0.4373,-0.19753 -0.8844,-0.38065 -1.3263,-0.57118 -0.6679,-0.28803 -1.3332,-0.57968 -2.0112,-0.85193 -0.4736,-0.19015 -0.9568,-0.36443 -1.4352,-0.54699 -0.6464,-0.24669 -1.2911,-0.49546 -1.9459,-0.7285 -0.4867,-0.1732 -0.9803,-0.33525 -1.4715,-0.501 -0.6828,-0.23037 -1.366,-0.46144 -2.0573,-0.67767 -0.5017,-0.15693 -1.009,-0.30301 -1.515,-0.45259 -0.6465,-0.19109 -1.2927,-0.37981 -1.946,-0.55908 -0.5824,-0.15982 -1.1693,-0.31171 -1.7571,-0.46228 -0.6183,-0.15844 -1.2372,-0.31632 -1.8612,-0.46469 -0.5723,-0.13607 -1.1487,-0.26435 -1.7256,-0.39208 -0.6574,-0.14559 -1.3167,-0.28864 -1.9798,-0.42355 -0.5811,-0.11822 -1.1646,-0.23113 -1.7498,-0.34125 -66.26562,8.27121 -138.89461,-16.16646 -203.48418,2.64293 z"
     id="path866"
     inkscape:connector-curvature="0"
     sodipodi:nodetypes="cccccccccccssccccscccsccccscccsccsscccccccccccccccccc" />
  <path
     style="fill:#005522;fill-rule:evenodd;stroke:none;stroke-width:1.23917782px;stroke-linecap:butt;stroke-linejoin:miter;stroke-opacity:1"
     d="m 720.31218,825.89163 c -44.30324,0 -101.40678,23.62818 -119.12808,44.30302 -17.72129,20.67484 -21.96031,35.17259 -9.33739,38.55489 15.38242,4.12171 20.06987,-11.28837 54.62548,-14.9258 14.46916,-1.52306 32.54296,-1.54077 51.38472,-1.14236 16.43733,0.88093 36.48793,1.40881 60.78749,1.49088 0.60479,0 1.23597,-0.007 1.84666,-0.01 0.6113,0.002 1.24371,0.01 1.84909,0.01 24.29956,-0.082 44.35016,-0.60995 60.78748,-1.49088 18.84176,-0.39841 36.91554,-0.3807 51.38474,1.14236 34.5556,3.63743 39.243,19.04751 54.6255,14.9258 12.6229,-3.3823 8.3839,-17.88005 -9.3374,-38.55489 -17.7213,-20.67484 -74.82485,-44.30302 -119.12809,-44.30302 -13.44788,0 -27.34123,5.45598 -40.18132,13.03798 -12.83958,-7.58145 -26.73163,-13.03798 -40.17888,-13.03798 z"
     id="path874"
     inkscape:connector-curvature="0" />
  <path
     style="fill:#005522;fill-rule:evenodd;stroke:none;stroke-width:1.23917782px;stroke-linecap:butt;stroke-linejoin:miter;stroke-opacity:1"
     d="m 725.11157,1006.8261 c -26.41483,0 -20.10518,18.9241 -20.10518,18.9241 0,0 20.50264,10.8274 21.48716,22.6416 0.98451,11.8142 -19.68959,22.6462 -43.31798,26.5842 -23.62838,3.9381 -43.31963,7.8743 -37.41253,50.2085 5.90709,42.3342 62.02427,58.0864 111.25009,58.0864 h 16.05608 c 49.22582,0 105.34296,-15.7522 111.25006,-58.0864 5.9071,-42.3342 -13.7817,-46.2704 -37.41007,-50.2085 -23.62839,-3.938 -44.30249,-14.77 -43.31797,-26.5842 0.9845,-11.8142 21.48714,-22.6416 21.48714,-22.6416 0,0 8.86162,-26.58375 -38.39516,-16.7386 -20.14384,4.1966 -10.14037,4.3855 -21.64204,4.3855 -11.50164,0 -11.5903,0.1592 -21.63962,-4.3855 -6.87234,-3.1079 -13.39834,-2.1855 -18.28998,-2.1855 z"
     id="path879"
     inkscape:connector-curvature="0"
     sodipodi:nodetypes="scsssccssccssss" />
  <path
     style="fill:#005522;fill-rule:evenodd;stroke:none;stroke-width:1.23917782px;stroke-linecap:butt;stroke-linejoin:miter;stroke-opacity:1"
     d="m 898.99747,200.09987 c 0,0 -24.5992,-94.77825 -125.07662,-89.93056 -100.47736,4.84765 -185.45257,33.48855 -239.09111,78.21308 -53.63856,44.72455 -89.28685,64.03997 -107.79627,138.67216 -18.50944,74.63217 -37.3719,182.73605 -28.04645,232.06297 9.32546,49.32691 58.23705,79.37992 58.23705,79.37992 0,0 0.0176,-307.5258 108.37063,-312.29042 108.35308,-4.76462 164.99499,39.15392 164.99499,39.15392 0,0 81.57727,-79.87443 179.96108,-72.92933 98.38393,6.94508 132.90823,16.89354 128.11903,97.57784 -4.7893,80.68434 -24.9027,115.92447 8.8365,152.87551 33.7393,36.951 36.6427,216.18555 36.6427,216.18555 0,0 60.6446,-152.70405 61.6205,-245.24343 0.976,-92.53939 -21.8913,-196.46085 -60.2229,-264.50022 -35.1801,-62.44589 -73.7598,-101.20423 -186.54913,-49.22699 z"
     id="path891"
     inkscape:connector-curvature="0"
     sodipodi:nodetypes="csssscscssscssc" />
  <path
     style="fill:#008033;fill-rule:evenodd;stroke:none;stroke-width:1.23917782px;stroke-linecap:butt;stroke-linejoin:miter;stroke-opacity:1"
     d="m 596.63884,582.70782 c -73.76936,-0.10372 -111.59348,2.6338 -125.0069,2.83171 -15.32962,0.22617 -30.65756,0.45259 -30.65756,0.45259 l -3.02291,30.86811 30.00649,0.28318 2.34524,38.9155 8.95016,-1.93379 c 0,0 -4.95683,-35.96789 0.0581,-45.33649 5.01492,-9.36861 24.47055,-10.54078 55.61537,-14.5095 31.14483,-3.96872 97.3695,-4.47196 139.64953,2.74458 42.28002,7.21653 61.33574,10.94942 63.20292,30.3647 1.86718,19.41528 -27.63705,85.35563 -27.63705,85.35563 0,0 13.45509,3.37557 21.10716,-20.10034 7.15956,-21.96499 6.9718,-56.097 35.0697,-56.097 28.0979,0 27.90772,34.13201 35.06728,56.097 7.65208,23.47591 21.10717,20.10034 21.10717,20.10034 0,0 -29.50423,-65.94035 -27.63705,-85.35563 1.86718,-19.41528 20.92289,-23.14817 63.20288,-30.3647 42.2801,-7.21654 108.5048,-6.7133 139.6496,-2.74458 31.14483,3.96872 50.60293,5.14089 55.61783,14.5095 5.0149,9.3686 0.058,45.33649 0.058,45.33649 l 8.9501,1.93379 2.3453,-38.9155 30.0041,-0.28318 -3.0205,-30.86811 c 0,0 -15.3304,-0.22642 -30.66,-0.45259 -15.3296,-0.22619 -62.53983,-3.76827 -158.85443,-2.59695 -96.31461,1.1713 -115.93089,25.79281 -115.93089,25.79281 l -19.89945,0.50341 -19.89945,-0.50341 c 0,0 -19.61629,-24.62151 -115.9309,-25.79281 -12.03933,-0.14642 -23.3114,-0.21995 -33.84989,-0.23476 z"
     id="path893"
     inkscape:connector-curvature="0"
     sodipodi:nodetypes="ssccccccssscssscsssccccccsscccss" />
</svg>
