<?xml version="1.0" encoding="UTF-8" standalone="no"?>
<!-- Created with Inkscape (http://www.inkscape.org/) -->

<svg
   xmlns:dc="http://purl.org/dc/elements/1.1/"
   xmlns:cc="http://creativecommons.org/ns#"
   xmlns:rdf="http://www.w3.org/1999/02/22-rdf-syntax-ns#"
   xmlns:svg="http://www.w3.org/2000/svg"
   xmlns="http://www.w3.org/2000/svg"
   xmlns:sodipodi="http://sodipodi.sourceforge.net/DTD/sodipodi-0.dtd"
   xmlns:inkscape="http://www.inkscape.org/namespaces/inkscape"
   version="1.1"
   width="1500"
   height="1500"
   id="svg2"
   sodipodi:docname="ch.svg"
   inkscape:version="0.92.4 (unknown)">
  <sodipodi:namedview
     pagecolor="#ffffff"
     bordercolor="#666666"
     borderopacity="1"
     objecttolerance="10"
     gridtolerance="10"
     guidetolerance="10"
     inkscape:pageopacity="0"
     inkscape:pageshadow="2"
     inkscape:window-width="1366"
     inkscape:window-height="716"
     id="namedview25"
     showgrid="false"
     inkscape:zoom="0.078666665"
     inkscape:cx="54.080749"
     inkscape:cy="-120.39915"
     inkscape:window-x="0"
     inkscape:window-y="24"
     inkscape:window-maximized="1"
     inkscape:current-layer="svg2" />
  <defs
     id="defs4">
    <clipPath
       id="clipPath3862">
      <rect
         width="744"
         height="1052"
         x="0"
         y="0.36218262"
         id="rect3864"
         style="fill:#2ad4ff;fill-opacity:1;stroke:none" />
    </clipPath>
    <clipPath
       id="clipPath3075">
      <rect
         width="880.29663"
         height="769.06781"
         x="320.97458"
         y="572.48926"
         id="rect3077"
         style="opacity:0.71836733;fill:#c8ab37;fill-opacity:1;stroke:none" />
    </clipPath>
    <clipPath
       id="clipPath3949">
      <rect
         width="750"
         height="750"
         x="0"
         y="2.6171874e-06"
         id="rect3951"
         style="fill:#2ad4ff;fill-opacity:1;stroke:none" />
    </clipPath>
    <clipPath
       id="clipPath3964">
      <path
         d="m 542.68968,295.5 -47.75218,173.03125 122.46875,0 0,-173.03125 z m -316.28343,5.625 0,156.75 84.8125,0 -35.39279,-161.80611 z"
         id="path3966"
         style="fill:#ff5f00;fill-opacity:1;stroke:#aa4400;stroke-width:3;stroke-linecap:square;stroke-miterlimit:4;stroke-opacity:1;stroke-dasharray:none" />
    </clipPath>
    <clipPath
       id="clipPath3029">
      <rect
         width="431.45499"
         height="311.23184"
         x="578.64404"
         y="247.8784"
         id="rect3031"
         style="fill:#000000;fill-opacity:1;stroke:#000000;stroke-width:3;stroke-linecap:square;stroke-miterlimit:4;stroke-opacity:1;stroke-dasharray:none" />
    </clipPath>
    <clipPath
       id="clipPath3829">
      <rect
         width="1500"
         height="1500"
         x="0"
         y="2.6171874e-06"
         id="rect3831"
         style="fill:#2ad4ff;fill-opacity:1;stroke:none" />
    </clipPath>
    <clipPath
       clipPathUnits="userSpaceOnUse"
       id="clipPath906">
      <rect
         width="1500"
         height="1500"
         x="0"
         y="2.6171874e-06"
         id="rect908"
         style="fill:#2ad4ff;fill-opacity:1;stroke:none" />
    </clipPath>
  </defs>
  <metadata
     id="metadata7">
    <rdf:RDF>
      <cc:Work
         rdf:about="">
        <dc:format>image/svg+xml</dc:format>
        <dc:type
           rdf:resource="http://purl.org/dc/dcmitype/StillImage" />
        <dc:title />
      </cc:Work>
    </rdf:RDF>
  </metadata>
  <rect
     style="fill:#2ad4ff;fill-opacity:1;stroke:none"
     id="rect3082"
     y="2.6171874e-06"
     x="0"
     height="1500"
     width="1500" />
  <path
     style="fill:#000080;fill-rule:evenodd;stroke:none;stroke-width:1px;stroke-linecap:butt;stroke-linejoin:miter;stroke-opacity:1"
     d="m -53.47458,1461.8644 c 0,0 76.27119,-143.0085 193.85594,-168.4322 117.58474,-25.4237 181.14406,-47.6695 181.14406,-47.6695 0,0 25.42373,-66.7373 73.09322,-92.161 47.6695,-25.4237 257.41526,-155.72034 257.41526,-155.72034 0,0 158.8983,-50.84746 247.88135,-19.0678 88.98305,31.77964 222.45765,88.98304 314.61865,133.47454 92.161,44.4916 203.3898,60.3814 282.839,108.0509 79.4491,47.6695 184.322,365.4661 184.322,365.4661 L -15.338983,1550.8475 Z"
     id="path882"
     inkscape:connector-curvature="0"
     clip-path="url(#clipPath906)" />
  <path
     style="fill:#aa87de;fill-rule:evenodd;stroke:none;stroke-width:1px;stroke-linecap:butt;stroke-linejoin:miter;stroke-opacity:1"
     d="m 582.11864,953.38983 c 0,0 -22.24576,104.87287 -9.53389,177.96607 12.71186,73.0933 44.49152,155.7204 82.62711,222.4577 38.1356,66.7372 143.00848,101.6949 143.00848,101.6949 0,0 57.20339,-25.4238 98.51695,-60.3814 41.31356,-34.9576 66.73729,-66.7373 88.98301,-187.5 22.2458,-120.7627 12.7119,-298.7288 12.7119,-298.7288 z"
     id="path884"
     inkscape:connector-curvature="0" />
  <path
     style="fill:#ded0f2;fill-opacity:1;fill-rule:evenodd;stroke:none;stroke-width:1px;stroke-linecap:butt;stroke-linejoin:miter;stroke-opacity:1"
     d="M 395.41314,873.14619 C 319.74245,813.06112 311.75427,729.59821 298.48517,644.33263 285.38857,560.1755 295.85097,479.64409 304.04661,443.32627 333.85713,311.22521 400.89279,247.7012 439.11017,185.91102 466.12288,144.59746 529.6822,69.915253 648.85593,54.025422 768.02966,38.135592 801.39831,47.66949 828.41102,52.436439 c 27.01271,4.766949 87.39407,34.957627 87.39407,34.957627 0,0 19.06779,-20.656779 66.73731,-39.724576 47.6695,-19.067797 117.5847,0 117.5847,0 0,0 -55.6144,0 -73.0932,7.944915 -17.4788,7.944916 -39.7246,36.54661 -39.7246,36.54661 0,0 68.3263,-20.656779 115.9958,-12.711864 47.6695,7.944915 81.0381,28.601699 100.1059,50.847459 19.0678,22.24576 42.9026,85.80508 42.9026,85.80508 0,0 -4.767,-27.01271 -42.9026,-54.02542 -38.1356,-27.01271 -115.9957,-31.77966 -115.9957,-31.77966 0,0 65.1483,19.0678 88.983,52.43644 23.8348,33.36864 27.0127,106.46186 27.0127,106.46186 0,0 -30.1907,-77.86017 -60.3813,-100.10593 -30.1907,-22.24576 -57.2034,-27.01271 -57.2034,-27.01271 0,0 77.8601,77.86017 96.9279,128.70763 19.0678,50.84745 -17.4788,111.22881 -23.8347,138.24152 -6.3559,27.01271 -1.589,55.61441 11.1229,61.97034 12.7118,6.35593 31.7796,-3.17796 31.7796,-3.17796 0,0 -9.5339,31.77966 -22.2457,30.19067 -12.7119,-1.58898 -25.4238,-20.65678 -25.4238,-20.65678 0,0 12.7119,38.1356 12.7119,73.09322 0,34.95763 -102.5128,214.16024 -102.5128,214.16024 L 497.90254,661.01695 c 0,0 -31.77966,89.77754 -66.73729,100.90042 -34.95762,11.12288 -54.43627,-9.50658 -73.88771,7.15043 -16.07223,13.76326 0.0766,51.02692 38.1356,104.07839 z"
     id="path886"
     inkscape:connector-curvature="0"
     sodipodi:nodetypes="csscsscscscsscscccccssccccsccssc" />
  <path
     style="fill:#c6afe9;fill-rule:evenodd;stroke:none;stroke-width:1px;stroke-linecap:butt;stroke-linejoin:miter;stroke-opacity:1"
     d="m 806.16526,239.93644 c 0,0 -193.85594,71.50424 -211.33475,131.88559 -17.47881,60.38136 -20.65678,104.87288 -20.65678,104.87288 0,0 -17.47881,-69.91525 4.76695,-112.81779 22.24576,-42.90254 65.1483,-82.62712 65.1483,-82.62712 0,0 -31.77966,-17.47881 -52.43644,0 -20.65678,17.47881 -54.02542,49.25847 -54.02542,49.25847 0,0 19.0678,61.97034 0,104.87288 -19.0678,42.90255 -47.66949,68.32628 -68.32627,81.03814 -20.65678,12.71187 -44.49152,19.0678 -44.49152,19.0678 0,0 22.24576,44.49152 9.53389,61.97034 -12.71186,17.47881 -47.66949,63.55932 -47.66949,63.55932 0,0 7.94491,39.72457 19.0678,68.32627 11.12288,28.60169 25.42372,65.1483 25.42372,65.1483 0,0 -4.76694,27.01272 3.17797,39.72458 7.94492,12.71187 30.19068,20.65678 30.19068,20.65678 0,0 22.24576,114.40678 93.75,176.37712 71.50424,61.9703 111.22881,136.6525 206.5678,130.2966 95.33898,-6.3559 181.14406,-74.6822 231.9915,-146.1864 50.8475,-71.50427 73.0932,-155.72037 73.0932,-155.72037 0,0 31.7797,-11.12288 33.3687,-34.95763 1.589,-23.83474 1.589,-42.90254 1.589,-42.90254 0,0 25.4237,-76.27119 31.7796,-95.33898 6.356,-19.0678 1.589,-42.90255 1.589,-42.90255 0,0 -17.4788,-1.58898 -19.0678,22.24577 -1.589,23.83474 -31.7796,71.50423 -31.7796,71.50423 0,0 1.5889,-90.57203 1.5889,-131.88559 0,-41.31356 -33.3686,-181.14407 -33.3686,-181.14407 0,0 -9.5339,58.79238 -36.5466,74.68221 -27.0127,15.88983 -55.61442,12.71186 -55.61442,12.71186 0,0 30.19072,-33.36864 31.77962,-66.73729 1.589,-33.36864 -33.36861,-103.2839 -33.36861,-103.2839 0,0 1.58899,63.55933 -34.95762,98.51695 -36.54661,34.95763 -103.2839,31.77967 -103.2839,31.77967 0,0 57.20339,-36.54662 73.09322,-68.32628 15.88983,-31.77966 9.5339,-77.86017 9.5339,-77.86017 0,0 -41.31356,22.24577 -58.79238,58.79238 C 830,421.08051 823.64407,490.99576 823.64407,490.99576 c 0,0 -31.77966,-47.66949 -14.30085,-96.92796 17.47881,-49.25848 38.13559,-73.09322 38.13559,-73.09322 0,0 -50.84745,76.27118 -79.44915,93.75 -28.60169,17.47881 -90.57203,17.47881 -90.57203,17.47881 0,0 39.72457,-30.19068 79.44915,-92.16102 39.72458,-61.97034 49.25848,-100.10593 49.25848,-100.10593 z"
     id="path888"
     inkscape:connector-curvature="0"
     sodipodi:nodetypes="cscscscsscscscscssscscccscscscscscscscscscsc" />
  <path
     style="fill:#008a4f;fill-rule:evenodd;stroke:none;stroke-width:1px;stroke-linecap:butt;stroke-linejoin:miter;stroke-opacity:1;fill-opacity:1"
     d="m 567.02734,587.76953 c -20.00745,0.104 -39.89014,1.38609 -58.81445,3.81641 -34.99376,4.49399 -53.93164,8.98828 -53.93164,8.98828 l -2.80859,32.02148 c 0,0 9.55042,5.0552 12.35937,28.65039 2.80895,23.5952 12.92078,71.34853 39.88672,98.31446 26.96593,26.96594 47.75137,35.39275 98.3125,37.07812 50.56113,1.68537 92.69653,-22.47226 116.85352,-62.35937 24.15698,-39.88712 21.3473,-57.30204 17.97656,-62.91992 -3.37074,-5.6179 -8.98935,-15.73118 -0.5625,-22.47266 7.63639,-6.10911 17.5921,-5.76769 28.58789,-6.06641 10.99579,0.29872 20.9515,-0.0427 28.58789,6.06641 8.42685,6.74148 2.80824,16.85476 -0.5625,22.47266 -3.37074,5.61788 -6.18042,23.0328 17.97656,62.91992 24.15699,39.88711 66.29239,64.04474 116.85352,62.35937 50.56113,-1.68537 71.34661,-10.11218 98.31251,-37.07812 26.9659,-26.96593 37.0778,-74.71926 39.8867,-98.31446 2.809,-23.59519 12.3594,-28.65039 12.3594,-28.65039 l -2.8086,-32.02148 c 0,0 -18.9379,-4.49429 -53.9317,-8.98828 -43.25552,-5.555 -91.52025,-5.10902 -134.83003,1.68359 -43.90866,7.28723 -79.21289,32.02344 -79.21289,32.02344 -16.63049,-1.05586 -27.39234,-3.76886 -42.63086,-3.67774 -13.96734,0.0835 -27.77378,1.92848 -42.63086,3.67774 0,0 -35.30423,-24.73621 -79.21289,-32.02344 -24.36175,-3.82084 -50.29176,-5.63372 -76.01563,-5.5 z m 18.11328,11.65235 c 26.16933,-0.0768 55.79472,3.95986 80.37305,12.38671 39.32532,13.48297 48.8766,42.69742 51.68555,69.10157 2.80895,26.40414 -14.93516,59.2766 -48.64258,83.43359 -33.70742,24.15698 -96.86218,20.497 -130.00781,4.20508 -33.14563,-16.29192 -55.05469,-57.30164 -55.05469,-90.44727 0,-52.80829 29.77465,-66.29119 60.11133,-74.15625 11.37626,-2.9494 25.83356,-4.47733 41.53515,-4.52343 z m 359.49219,0 c 15.7016,0.0461 30.1589,1.57403 41.53519,4.52343 30.3367,7.86506 60.1113,21.34796 60.1113,74.15625 0,33.14563 -21.9091,74.15535 -55.0547,90.44727 -33.14562,16.29192 -96.30038,19.9519 -130.0078,-4.20508 -33.70742,-24.15699 -51.45153,-57.02945 -48.64258,-83.43359 2.80895,-26.40415 12.36023,-55.6186 51.68555,-69.10157 24.57833,-8.42685 54.20371,-12.46353 80.37304,-12.38671 z"
     id="path890"
     inkscape:connector-curvature="0"
     sodipodi:nodetypes="ssccsssscscscssssccsccsccsssssssssssssssss" />
  <rect
     width="1500"
     height="1500"
     x="0"
     y="0"
     id="rect848"
     style="fill:#000000;fill-opacity:0.50196078;stroke:none" />
  <g
     aria-label="C"
     transform="translate(-6.2304687e-6,12.000017)"
     style="font-style:normal;font-variant:normal;font-weight:900;font-stretch:normal;font-size:1333.33337402px;line-height:125%;font-family:'Jones*';-inkscape-font-specification:'Jones* Heavy';text-align:center;letter-spacing:0px;word-spacing:0px;text-anchor:middle;fill:#ffffff;fill-opacity:1;stroke:none;stroke-width:1px;stroke-linecap:butt;stroke-linejoin:miter;stroke-opacity:1"
     id="flowRoot16476">
    <path
       d="m 541.71874,745.33336 c 0,-154.66668 105.33334,-293.33335 286.66668,-293.33335 110.66667,0 198.66668,56.00001 255.99998,130.66667 L 1211.0521,429.33335 C 1124.3854,329.33334 996.38542,252.00001 828.38542,252.00001 c -300.00001,0 -513.33335,228 -513.33335,493.33335 0,265.33334 213.33334,493.33334 513.33335,493.33334 168,0 295.99998,-77.3333 382.66668,-177.3333 L 1084.3854,908.00003 c -57.3333,74.66667 -143.99998,130.66667 -255.99998,130.66667 -181.33334,0 -286.66668,-138.66667 -286.66668,-293.33334 z"
       style=""
       id="path16511" />
  </g>
</svg>
