<?xml version="1.0" encoding="UTF-8" standalone="no"?>
<!-- Created with Inkscape (http://www.inkscape.org/) -->

<svg
   xmlns:dc="http://purl.org/dc/elements/1.1/"
   xmlns:cc="http://creativecommons.org/ns#"
   xmlns:rdf="http://www.w3.org/1999/02/22-rdf-syntax-ns#"
   xmlns:svg="http://www.w3.org/2000/svg"
   xmlns="http://www.w3.org/2000/svg"
   xmlns:sodipodi="http://sodipodi.sourceforge.net/DTD/sodipodi-0.dtd"
   xmlns:inkscape="http://www.inkscape.org/namespaces/inkscape"
   version="1.1"
   width="1500"
   height="1500"
   id="svg2"
   sodipodi:docname="D.svg"
   inkscape:version="0.92.4 (unknown)">
  <sodipodi:namedview
     pagecolor="#ffffff"
     bordercolor="#666666"
     borderopacity="1"
     objecttolerance="10"
     gridtolerance="10"
     guidetolerance="10"
     inkscape:pageopacity="0"
     inkscape:pageshadow="2"
     inkscape:window-width="1366"
     inkscape:window-height="716"
     id="namedview56"
     showgrid="false"
     inkscape:zoom="0.31466667"
     inkscape:cx="856.23756"
     inkscape:cy="623.09654"
     inkscape:window-x="0"
     inkscape:window-y="24"
     inkscape:window-maximized="1"
     inkscape:current-layer="svg2" />
  <defs
     id="defs4">
    <clipPath
       id="clipPath3862">
      <rect
         width="744"
         height="1052"
         x="0"
         y="0.36218262"
         id="rect3864"
         style="fill:#2ad4ff;fill-opacity:1;stroke:none" />
    </clipPath>
    <clipPath
       id="clipPath3075">
      <rect
         width="880.29663"
         height="769.06781"
         x="320.97458"
         y="572.48926"
         id="rect3077"
         style="opacity:0.71836733;fill:#c8ab37;fill-opacity:1;stroke:none" />
    </clipPath>
    <clipPath
       id="clipPath3949">
      <rect
         width="750"
         height="750"
         x="0"
         y="2.6171874e-06"
         id="rect3951"
         style="fill:#2ad4ff;fill-opacity:1;stroke:none" />
    </clipPath>
    <clipPath
       id="clipPath3964">
      <path
         d="m 542.68968,295.5 -47.75218,173.03125 122.46875,0 0,-173.03125 z m -316.28343,5.625 0,156.75 84.8125,0 -35.39279,-161.80611 z"
         id="path3966"
         style="fill:#ff5f00;fill-opacity:1;stroke:#aa4400;stroke-width:3;stroke-linecap:square;stroke-miterlimit:4;stroke-opacity:1;stroke-dasharray:none" />
    </clipPath>
    <clipPath
       id="clipPath3036">
      <rect
         width="629.2052"
         height="620.21655"
         x="791.00079"
         y="-176.83527"
         id="rect3038"
         style="opacity:0.55510206;fill:#ffe680;fill-opacity:1;stroke:none" />
    </clipPath>
    <clipPath
       id="clipPath3042">
      <rect
         width="1276.3877"
         height="606.73358"
         x="480.89255"
         y="304.05728"
         id="rect3044"
         style="opacity:0.55510206;fill:#ffe680;fill-opacity:1;stroke:none" />
    </clipPath>
    <clipPath
       id="clipPath3986">
      <rect
         width="391.00607"
         height="175.27859"
         x="-1478.6322"
         y="283.83286"
         id="rect3988"
         style="opacity:0.53061224;fill:#9955ff;fill-opacity:1;stroke:none" />
    </clipPath>
    <clipPath
       id="clipPath4018">
      <rect
         width="1500"
         height="1500"
         x="0"
         y="2.9296871e-08"
         id="rect4020"
         style="fill:#2ad4ff;fill-opacity:1;stroke:none" />
    </clipPath>
    <clipPath
       id="clipPath4024">
      <rect
         width="1500"
         height="1500"
         x="0"
         y="2.9296871e-08"
         id="rect4026"
         style="fill:#2ad4ff;fill-opacity:1;stroke:none" />
    </clipPath>
    <clipPath
       clipPathUnits="userSpaceOnUse"
       id="clipPath911">
      <rect
         style="opacity:1;fill:#aa0000;fill-opacity:1;stroke:#000000;stroke-width:3.02362204;stroke-linejoin:miter;stroke-miterlimit:4;stroke-dasharray:none;stroke-opacity:1;paint-order:stroke markers fill"
         id="rect913"
         width="692.79663"
         height="641.94916"
         x="966.10168"
         y="699.15253"
         ry="1.67204" />
    </clipPath>
    <clipPath
       clipPathUnits="userSpaceOnUse"
       id="clipPath982">
      <rect
         width="1105.9957"
         height="1105.9957"
         x="193.8522"
         y="193.01425"
         id="rect984"
         style="fill:#aa0000;fill-opacity:1;stroke:none;stroke-width:0.7373305" />
    </clipPath>
    <clipPath
       clipPathUnits="userSpaceOnUse"
       id="clipPath861">
      <rect
         style="opacity:1;fill:#aa4400;fill-opacity:1;stroke:none;stroke-width:3.02362204;stroke-linejoin:miter;stroke-miterlimit:4;stroke-dasharray:none;stroke-opacity:1;paint-order:stroke markers fill"
         id="rect863"
         width="1290.2543"
         height="1455.5084"
         x="95.338982"
         y="165.25424"
         ry="1.67204" />
    </clipPath>
  </defs>
  <metadata
     id="metadata7">
    <rdf:RDF>
      <cc:Work
         rdf:about="">
        <dc:format>image/svg+xml</dc:format>
        <dc:type
           rdf:resource="http://purl.org/dc/dcmitype/StillImage" />
        <dc:title />
      </cc:Work>
    </rdf:RDF>
  </metadata>
  <rect
     style="fill:#7137c8;fill-opacity:1;stroke:none"
     id="rect3082"
     y="0"
     x="0"
     height="1500"
     width="1500"
     clip-path="none" />
  <path
     style="fill:#241c1c;fill-rule:evenodd;stroke:none;stroke-width:1.08001101px;stroke-linecap:butt;stroke-linejoin:miter;stroke-opacity:1"
     clip-path="none"
     d="M 738.05859 871.33203 C 738.05859 871.33203 593.90426 898.79 549.28516 960.57031 C 504.66605 1022.3507 243.81561 1145.9122 192.33203 1235.1504 C 163.38992 1285.3167 170.24437 1404.8987 181.79297 1500 L 1384.5781 1500 C 1319.6018 1374.95 1210.6187 1186.9903 1119.0371 1135.6152 C 978.31539 1056.6737 875.34766 984.5957 875.34766 984.5957 L 738.05859 871.33203 z "
     id="path865" />
  <path
     style="fill:#53536c;fill-rule:evenodd;stroke:none;stroke-width:1.08001101px;stroke-linecap:butt;stroke-linejoin:miter;stroke-opacity:1"
     clip-path="none"
     d="M 726.5957 134.39648 C 716.48061 134.46027 706.52426 135.22512 696.87109 136.83398 C 593.90394 153.99517 532.12448 270.69136 456.61523 394.25195 C 381.10599 517.81253 405.1322 792.39028 408.56445 939.97656 C 411.99668 1087.5627 291.86853 1255.7438 295.30078 1314.0918 C 298.2893 1364.8967 296.0811 1426.1118 336.24219 1500 L 454.96484 1500 C 451.73819 1487.1964 449.75 1475.2187 449.75 1465.1094 C 449.75 1410.1935 456.61602 1338.1178 508.09961 1245.4473 C 559.58318 1152.7769 532.12457 984.59698 545.85352 898.79102 C 559.58248 812.98506 926.83203 977.73242 926.83203 977.73242 C 926.83203 977.73242 1012.6387 1245.4461 1012.6387 1341.5488 C 1012.6387 1401.2105 970.31236 1452.9272 931.64062 1500 L 1138.582 1500 C 1149.9493 1448.0574 1161.6289 1384.0945 1180.8184 1290.0664 C 1215.1409 1121.8867 1136.1993 988.02781 1101.877 895.35742 C 1067.5546 802.68697 1119.0366 672.26196 1132.7656 603.61719 C 1146.4945 534.97242 1077.8503 253.52943 1040.0957 219.20703 C 1002.3411 184.88465 937.12891 198.61328 937.12891 198.61328 C 937.12891 198.61328 824.3749 133.77985 726.5957 134.39648 z "
     id="path869" />
  <path
     style="fill:#afafe9;fill-opacity:1;stroke:none"
     d="M 947.42578 933.11328 L 590.47266 950.27344 C 590.47266 950.27344 600.76865 1118.4535 628.22656 1183.666 C 655.68447 1248.8785 686.57602 1293.4973 676.2793 1320.9551 C 665.9826 1348.4131 631.66016 1386.168 631.66016 1386.168 L 651.39062 1500 L 865.32812 1500 L 868.48438 1485.7031 C 868.48438 1485.7031 830.72927 1441.0837 837.59375 1420.4902 C 844.45822 1399.8968 947.42512 1238.5818 950.85742 1183.666 C 954.28962 1128.7502 947.42578 933.11328 947.42578 933.11328 z "
     id="rect926" />
  <path
     style="fill:#d5d5ff;fill-rule:evenodd;stroke:none;stroke-width:1.08001101px;stroke-linecap:butt;stroke-linejoin:miter;stroke-opacity:1"
     d="m 467.6683,647.22447 c 0,0 58.24701,-29.12351 143.19058,-152.89842 84.94357,-123.77492 97.07836,-223.28024 186.87585,-230.56112 89.79748,-7.28088 116.49404,48.53918 116.49404,48.53918 0,0 53.39311,-4.85392 77.66271,94.65141 24.26962,99.50532 82.51652,172.3141 70.38182,325.21252 -12.1348,152.89842 -41.2583,223.28023 -97.07842,286.38116 -55.82003,63.1009 -89.79745,135.9097 -194.1567,133.4828 -104.35924,-2.427 -134.74484,-18.4903 -180.40252,-87.7365 -30.83964,-46.7725 -96.79688,-100.18608 -101.12473,-198.64471 -2.42696,-55.21333 -6.95532,-89.14398 -7.88763,-128.0221 -0.78289,-32.64764 -13.955,-90.40422 -13.955,-90.40422 z"
     id="path881"
     inkscape:connector-curvature="0"
     sodipodi:nodetypes="csscssscsssc"
     clip-path="none" />
  <path
     style="fill:#53536c;fill-rule:evenodd;stroke:none;stroke-width:1.08001101px;stroke-linecap:butt;stroke-linejoin:miter;stroke-opacity:1"
     d="m 803.44672,596.76096 c 15.7247,-41.76094 35.39962,-49.18583 61.71497,-44.69053 47.71901,8.15155 109.82729,50.84417 109.82729,50.84417 0,0 -77.30865,-20.7097 -114.8894,-22.7743 -25.65368,-1.40935 -34.61944,5.61879 -56.65286,16.62066 z"
     id="path873"
     inkscape:connector-curvature="0"
     sodipodi:nodetypes="cscsc"
     clip-path="none" />
  <path
     style="fill:#3737c8;fill-rule:evenodd;stroke:none;stroke-width:1.08001101px;stroke-linecap:butt;stroke-linejoin:miter;stroke-opacity:1"
     d="m 719.74999,679.50061 c 0,0 18.55468,-3.25636 30.74901,-3.41243 12.19431,-0.15607 34.63707,7.88882 34.63707,7.88882 0,0 42.26454,-37.73366 111.59319,-36.56812 69.32865,1.16551 131.98104,9.05806 131.98104,9.05806 l 0.9947,30.53843 c 0,0 -9.3046,8.93425 -10.2522,19.81438 -0.9475,10.88013 -7.5729,31.01036 -7.5729,31.01036 0,0 10.2558,-47.82972 0.4285,-60.8663 -9.8274,-13.0366 -32.48059,-18.66369 -78.41898,-22.66445 -45.93834,-4.00076 -76.8979,1.82949 -102.33938,14.23066 -25.44147,12.40119 -47.57208,28.74493 -47.57208,28.74493 l 12.34669,40.0536 c 0,0 -19.28427,-44.312 -42.35872,-45.10349 -23.07445,-0.79148 -44.52627,49.71742 -44.52627,49.71742 l 9.36278,-51.56173 c 0,0 -33.68953,-18.76896 -78.31368,-23.87334 -44.62415,-5.10438 -86.72521,-11.2071 -110.11552,-8.37186 -23.3903,2.83522 -33.16681,3.20186 -34.53549,18.91762 -1.36868,15.71574 -5.6308,50.66867 -5.6308,50.66867 l -11.55521,-63.12805 c 0,0 11.03992,-14.87349 31.80184,-15.50148 20.76193,-0.62799 52.71984,-3.93515 102.07433,2.79927 49.35448,6.73441 107.22208,27.60903 107.22208,27.60903 z"
     id="path871"
     inkscape:connector-curvature="0"
     clip-path="none" />
  <path
     style="fill:#53536c;fill-rule:evenodd;stroke:none;stroke-width:1.08001101px;stroke-linecap:butt;stroke-linejoin:miter;stroke-opacity:1"
     d="m 681.24069,592.93316 c 0,0 -6.06739,-20.62915 -52.17961,-18.20219 -46.11222,2.42697 -99.50533,49.14592 -99.50533,49.14592 0,0 68.56159,-28.51677 101.32554,-27.30329 32.76395,1.21348 56.4268,22.44938 56.4268,22.44938 z"
     id="path875"
     inkscape:connector-curvature="0"
     sodipodi:nodetypes="cscscc"
     clip-path="none" />
  <path
     style="fill:#53536c;fill-rule:evenodd;stroke:none;stroke-width:1.08001101px;stroke-linecap:butt;stroke-linejoin:miter;stroke-opacity:1"
     d="m 623.93692,903.08064 c 0,0 72.93507,-7.72253 94.38656,-3.43224 21.45149,4.2903 41.18686,12.01284 41.18686,12.01284 0,0 20.59343,-16.30313 49.76746,-15.44508 29.17402,0.85806 96.96073,5.14836 96.96073,5.14836 0,0 -88.38013,26.59984 -145.87012,26.59984 -57.49001,0 -136.43149,-24.88372 -136.43149,-24.88372 z"
     id="path877"
     inkscape:connector-curvature="0"
     clip-path="none" />
  <path
     style="fill:#373748;fill-rule:evenodd;stroke:none;stroke-width:1.08001101px;stroke-linecap:butt;stroke-linejoin:miter;stroke-opacity:1"
     d="m 870.20003,925.39016 c 0,0 -45.47715,59.20624 -118.41222,60.06424 -65.30956,0.7684 -107.25746,-66.07063 -107.25746,-66.07063 0,0 21.4515,102.10913 106.3994,105.54133 84.9479,3.4322 119.27028,-99.53494 119.27028,-99.53494 z"
     id="path879"
     inkscape:connector-curvature="0"
     sodipodi:nodetypes="csccc"
     clip-path="none" />
  <path
     style="fill:#afafe9;fill-rule:evenodd;stroke:none;stroke-width:1.08001101px;stroke-linecap:butt;stroke-linejoin:miter;stroke-opacity:1"
     d="m 578.45976,900.50646 c 0,0 36.03851,25.74177 44.6191,54.91578 8.5806,29.17406 34.32239,78.94156 34.32239,78.94156 0,0 -46.33522,-58.34813 -51.48358,-78.94156 -5.14836,-20.59344 -27.45791,-54.91578 -27.45791,-54.91578 z"
     id="path887"
     inkscape:connector-curvature="0"
     sodipodi:nodetypes="cscsc"
     clip-path="none" />
  <path
     style="fill:#afafe9;fill-rule:evenodd;stroke:none;stroke-width:1.08001101px;stroke-linecap:butt;stroke-linejoin:miter;stroke-opacity:1"
     d="m 892.50958,1024.0671 c 0,0 34.32239,-39.4707 46.3352,-84.08988 12.0129,-44.61913 -1.7161,-66.92867 -1.7161,-66.92867 0,0 0,54.91581 -17.16119,85.80596 -17.16119,30.89019 -27.45791,65.21259 -27.45791,65.21259 z"
     id="path889"
     inkscape:connector-curvature="0"
     sodipodi:nodetypes="cscsc"
     clip-path="none" />
</svg>
