<?xml version="1.0" encoding="UTF-8" standalone="no"?>
<!-- Created with Inkscape (http://www.inkscape.org/) -->

<svg
   xmlns:dc="http://purl.org/dc/elements/1.1/"
   xmlns:cc="http://creativecommons.org/ns#"
   xmlns:rdf="http://www.w3.org/1999/02/22-rdf-syntax-ns#"
   xmlns:svg="http://www.w3.org/2000/svg"
   xmlns="http://www.w3.org/2000/svg"
   xmlns:sodipodi="http://sodipodi.sourceforge.net/DTD/sodipodi-0.dtd"
   xmlns:inkscape="http://www.inkscape.org/namespaces/inkscape"
   version="1.1"
   width="1500"
   height="1500"
   id="svg2"
   sodipodi:docname="E.svg"
   inkscape:version="0.92.4 (unknown)">
  <sodipodi:namedview
     pagecolor="#ffffff"
     bordercolor="#666666"
     borderopacity="1"
     objecttolerance="10"
     gridtolerance="10"
     guidetolerance="10"
     inkscape:pageopacity="0"
     inkscape:pageshadow="2"
     inkscape:window-width="1366"
     inkscape:window-height="716"
     id="namedview56"
     showgrid="false"
     inkscape:zoom="0.44500587"
     inkscape:cx="646.01891"
     inkscape:cy="-211.45048"
     inkscape:window-x="0"
     inkscape:window-y="24"
     inkscape:window-maximized="1"
     inkscape:current-layer="svg2" />
  <defs
     id="defs4">
    <clipPath
       id="clipPath3862">
      <rect
         width="744"
         height="1052"
         x="0"
         y="0.36218262"
         id="rect3864"
         style="fill:#2ad4ff;fill-opacity:1;stroke:none" />
    </clipPath>
    <clipPath
       id="clipPath3075">
      <rect
         width="880.29663"
         height="769.06781"
         x="320.97458"
         y="572.48926"
         id="rect3077"
         style="opacity:0.71836733;fill:#c8ab37;fill-opacity:1;stroke:none" />
    </clipPath>
    <clipPath
       id="clipPath3949">
      <rect
         width="750"
         height="750"
         x="0"
         y="2.6171874e-06"
         id="rect3951"
         style="fill:#2ad4ff;fill-opacity:1;stroke:none" />
    </clipPath>
    <clipPath
       id="clipPath3964">
      <path
         d="m 542.68968,295.5 -47.75218,173.03125 122.46875,0 0,-173.03125 z m -316.28343,5.625 0,156.75 84.8125,0 -35.39279,-161.80611 z"
         id="path3966"
         style="fill:#ff5f00;fill-opacity:1;stroke:#aa4400;stroke-width:3;stroke-linecap:square;stroke-miterlimit:4;stroke-opacity:1;stroke-dasharray:none" />
    </clipPath>
    <clipPath
       id="clipPath3036">
      <rect
         width="629.2052"
         height="620.21655"
         x="791.00079"
         y="-176.83527"
         id="rect3038"
         style="opacity:0.55510206;fill:#ffe680;fill-opacity:1;stroke:none" />
    </clipPath>
    <clipPath
       id="clipPath3042">
      <rect
         width="1276.3877"
         height="606.73358"
         x="480.89255"
         y="304.05728"
         id="rect3044"
         style="opacity:0.55510206;fill:#ffe680;fill-opacity:1;stroke:none" />
    </clipPath>
    <clipPath
       id="clipPath3986">
      <rect
         width="391.00607"
         height="175.27859"
         x="-1478.6322"
         y="283.83286"
         id="rect3988"
         style="opacity:0.53061224;fill:#9955ff;fill-opacity:1;stroke:none" />
    </clipPath>
    <clipPath
       id="clipPath4018">
      <rect
         width="1500"
         height="1500"
         x="0"
         y="2.9296871e-08"
         id="rect4020"
         style="fill:#2ad4ff;fill-opacity:1;stroke:none" />
    </clipPath>
    <clipPath
       id="clipPath4024">
      <rect
         width="1500"
         height="1500"
         x="0"
         y="2.9296871e-08"
         id="rect4026"
         style="fill:#2ad4ff;fill-opacity:1;stroke:none" />
    </clipPath>
    <clipPath
       clipPathUnits="userSpaceOnUse"
       id="clipPath911">
      <rect
         style="opacity:1;fill:#aa0000;fill-opacity:1;stroke:#000000;stroke-width:3.02362204;stroke-linejoin:miter;stroke-miterlimit:4;stroke-dasharray:none;stroke-opacity:1;paint-order:stroke markers fill"
         id="rect913"
         width="692.79663"
         height="641.94916"
         x="966.10168"
         y="699.15253"
         ry="1.67204" />
    </clipPath>
    <clipPath
       clipPathUnits="userSpaceOnUse"
       id="clipPath982">
      <rect
         width="1105.9957"
         height="1105.9957"
         x="193.8522"
         y="193.01425"
         id="rect984"
         style="fill:#aa0000;fill-opacity:1;stroke:none;stroke-width:0.7373305" />
    </clipPath>
  </defs>
  <metadata
     id="metadata7">
    <rdf:RDF>
      <cc:Work
         rdf:about="">
        <dc:format>image/svg+xml</dc:format>
        <dc:type
           rdf:resource="http://purl.org/dc/dcmitype/StillImage" />
        <dc:title />
      </cc:Work>
    </rdf:RDF>
  </metadata>
  <rect
     width="1500"
     height="1500"
     x="2.1484375e-05"
     y="2.1484375e-05"
     id="rect3935"
     style="fill:#2affd5;fill-opacity:1;stroke:none;stroke-width:2"
     clip-path="none" />
  <path
     style="fill:#aa0000;stroke:none;stroke-width:1.99999988px;stroke-linecap:butt;stroke-linejoin:miter;stroke-opacity:1"
     clip-path="none"
     d="M 1005.4766 932.7832 C 971.32451 931.99096 698.62109 1036.1387 698.62109 1036.1387 C 698.62109 1036.1387 509.11706 1051.6935 473.76172 1068.6641 C 438.40638 1085.6346 442.64844 1092.707 442.64844 1092.707 C 442.64844 1092.707 377.59572 1142.2033 322.44141 1177.5586 C 267.28707 1212.9139 162.63522 1297.767 158.39258 1303.4238 C 154.14994 1309.0807 148.49219 1333.123 148.49219 1333.123 C 148.49219 1333.123 127.27961 1344.4357 106.06641 1361.4062 C 92.612097 1372.1697 41.626659 1436.4077 0.34570312 1500 L 1500 1500 L 1500 1183.5664 C 1464.3571 1167.1261 1389.85 1134.5535 1294.0059 1102.6055 C 1158.2414 1057.3506 1145.5137 1055.9375 1145.5137 1055.9375 C 1145.5137 1055.9375 1121.4722 995.1259 1107.3301 986.64062 C 1093.1879 978.15535 1045.1035 964.01367 1045.1035 964.01367 C 1045.1035 964.01367 1033.79 937.14303 1006.9199 932.90039 C 1006.5001 932.8341 1006.0187 932.79578 1005.4766 932.7832 z "
     id="path3942" />
  <path
     style="fill:#d45500;fill-opacity:1;stroke:none;stroke-width:1.99999988"
     clip-path="none"
     d="M 975 1090 L 576 1134.5293 C 576 1134.5293 552 1133.7043 536 1195.5508 C 520 1257.3972 512 1353.8786 540 1378.6172 C 568 1403.3559 621 1440.4627 644 1461.0781 C 665.24066 1480.1168 685.62236 1493.513 703.58203 1500 L 743.16797 1500 C 749.72221 1497.7365 756.54304 1494.5722 764 1490.7656 C 785 1480.0456 796 1466.0255 815 1461.9023 C 834 1457.7793 860 1444.5858 880 1416.5488 C 900 1388.5118 919 1319.2444 928 1294.5059 C 937 1269.7673 960 1188.1289 960 1188.1289 L 975 1090 z "
     id="path3944" />
  <path
     style="fill:#ff6600;fill-opacity:1;stroke:none;stroke-width:1.96890461px;stroke-linecap:butt;stroke-linejoin:miter;stroke-opacity:1"
     d="m 727.69197,370.23443 -0.06,7.5628 -266.50618,87.753 c 0,0 -35.3818,163.6962 -38.4616,227.25759 -3.08,63.56164 21.5298,195.42079 30.7692,260.57134 9.23959,65.15044 46.19419,143.04824 120.10959,230.44534 63.43821,75.0087 107.6178,101.976 153.9074,108.1285 l 0.24219,1.5 c 3.8562,0 7.71521,-0.082 11.50821,-0.3124 3.7886,0.2292 7.5962,0.3124 11.44779,0.3124 l 0.24221,-1.5 c 46.2996,-6.1453 90.4564,-33.1048 153.90739,-108.1285 73.9154,-87.3971 110.87003,-165.2949 120.10943,-230.44534 9.2396,-65.15055 33.9098,-197.0097 30.83,-260.57134 -3.0798,-63.56139 -38.5222,-227.25759 -38.5222,-227.25759 l -266.50642,-87.753 -0.06,-7.5628 -11.5082,3.75021 -11.44761,-3.75021 z"
     id="path3930"
     inkscape:connector-curvature="0"
     clip-path="none" />
  <path
     style="fill:#ffe6d5;stroke:none;stroke-width:2"
     d="m 626.95798,494.97663 c 0,0 4.4944,42.696 -22.47159,84.26859 -26.9658,41.57241 -103.3694,59.54961 -103.3694,59.54961 0,0 -0.84261,6.17979 0,10.67419 0.84279,4.4942 5.0562,10.11221 5.0562,10.11221 0,0 -4.4944,0.56179 -8.7078,-2.24721 -4.21341,-2.80899 -5.337,-8.14599 -5.337,-8.14599 0,0 -1.9662,14.60659 2.2472,29.21319 4.21339,14.6064 19.9434,31.4602 19.9434,31.4602 0,0 -8.9886,-2.52799 -14.04461,-5.61799 -5.0562,-3.08981 -11.79759,-12.92121 -11.79759,-12.92121 0,0 -1.96641,16.573 3.6516,26.1234 5.6178,9.55041 24.7188,15.4492 24.7188,15.4492 0,0 -10.674,2.528 -21.62901,-0.8428 -10.9548,-3.37059 -15.44919,-11.79759 -18.25819,-23.5952 -2.80901,-11.7976 -5.337,-35.1118 -4.77521,-44.94319 0.56181,-9.83121 1.40441,-19.38161 3.93261,-21.06701 2.528,-1.6854 0.5618,-7.8652 0.5618,-7.8652 0,0 -5.337,20.2246 -10.3932,32.02221 -5.05601,11.79759 -11.5166,27.80859 -11.5166,27.80859 0,0 6.1796,-30.89859 3.08979,-47.7522 -3.08979,-16.85379 -8.9886,-23.5952 -8.9886,-23.5952 0,0 -19.101,96.62801 -21.90999,124.1556 -2.80881,27.52779 8.98419,83.08959 8.98419,83.08959 0,0 12.5394,82.32255 10.85421,82.88445 -2.1976,0.7323 -25.4562,-12.60525 -29.9506,-23.27925 -4.4942,-10.674 -12.3594,-47.19045 -10.11221,-65.1678 2.24721,-17.9772 -3.9324,-169.09879 -3.9324,-169.09879 l 54.49361,-129.7736 143.2566,-94.94258 165.72799,-3.9324 208.42419,73.03259 96.62803,143.25659 -14.6066,192.69424 -26.404,-55.61745 -11.2358,-48.31399 -4.4944,42.69619 c 0,0 -7.865,-69.10018 -9.5504,-55.05538 -1.6854,14.04459 -14.60663,50.56093 -14.60663,50.56093 0,0 7.3032,-43.25773 7.3032,-62.92033 0,-19.66281 -6.1796,-42.1344 -6.1796,-42.1344 0,0 -1.1236,9.55039 -1.6854,16.29199 -0.56179,6.74141 -10.674,32.5838 -10.1122,19.6626 0.56181,-12.92119 -14.0448,-46.0668 -14.0448,-46.0668 0,0 -96.8048,-54.87859 -139.841,-72.9598 -60.8718,-25.5744 -59.59459,41.4996 -59.59459,41.4996 z"
     id="path3938"
     inkscape:connector-curvature="0"
     sodipodi:nodetypes="cscscscscscscsssscscscscsssccccccccccscscsscscc"
     clip-path="none" />
  <path
     style="fill:#71c837;stroke:none;stroke-width:2"
     d="m 413.93018,877.91326 c 0,0 -22.24579,-19.06785 -38.13559,-47.6697 -15.89,-28.60155 -3.9726,-142.21393 1.58899,-182.73294 5.5614,-40.519 2.38341,-173.99359 54.81981,-256.62079 52.4364,-82.627 128.70759,-176.377 237.55299,-194.65039 108.8454,-18.2732 207.36219,3.17799 269.33259,59.58679 61.97043,56.409 139.03603,141.4196 154.13143,309.85179 15.0954,168.43221 -7.945,282.04444 -24.6292,307.46824 -16.6844,25.4238 -37.0038,36.5772 -37.0038,36.5772 0,0 6.52,-43.23285 11.3078,-73.1907 3.6322,-22.7259 5.8336,-53.9586 4.2446,-86.53275 -1.589,-32.57419 -20.6568,-150.15879 -89.77743,-224.04658 -69.12079,-73.8876 -159.69279,-96.13339 -260.59319,-88.1886 -100.90059,7.94501 -201.00639,45.286 -249.47039,156.5148 -48.46401,111.22879 -33.36861,278.07223 -33.36861,278.07223 z"
     id="path3940"
     inkscape:connector-curvature="0"
     sodipodi:nodetypes="cssssssscssssscc"
     clip-path="none" />
</svg>
