<?xml version="1.0" encoding="UTF-8" standalone="no"?>
<!-- Created with Inkscape (http://www.inkscape.org/) -->

<svg
   xmlns:dc="http://purl.org/dc/elements/1.1/"
   xmlns:cc="http://creativecommons.org/ns#"
   xmlns:rdf="http://www.w3.org/1999/02/22-rdf-syntax-ns#"
   xmlns:svg="http://www.w3.org/2000/svg"
   xmlns="http://www.w3.org/2000/svg"
   xmlns:sodipodi="http://sodipodi.sourceforge.net/DTD/sodipodi-0.dtd"
   xmlns:inkscape="http://www.inkscape.org/namespaces/inkscape"
   version="1.1"
   width="750"
   height="750"
   id="svg2"
   inkscape:version="0.92.4 (unknown)"
   sodipodi:docname="Eh.svg">
  <sodipodi:namedview
     pagecolor="#ffffff"
     bordercolor="#666666"
     borderopacity="1"
     objecttolerance="10"
     gridtolerance="10"
     guidetolerance="10"
     inkscape:pageopacity="0"
     inkscape:pageshadow="2"
     inkscape:window-width="1366"
     inkscape:window-height="716"
     id="namedview30"
     showgrid="false"
     inkscape:zoom="0.70710678"
     inkscape:cx="474.07566"
     inkscape:cy="393.96487"
     inkscape:window-x="0"
     inkscape:window-y="24"
     inkscape:window-maximized="1"
     inkscape:current-layer="layer1" />
  <defs
     id="defs4">
    <clipPath
       id="clipPath3862">
      <rect
         width="744"
         height="1052"
         x="0"
         y="0.36218262"
         id="rect3864"
         style="fill:#2ad4ff;fill-opacity:1;stroke:none" />
    </clipPath>
    <clipPath
       id="clipPath3978">
      <rect
         width="750"
         height="750"
         x="0"
         y="2.6171874e-06"
         id="rect3980"
         style="fill:#6d8700;fill-opacity:1;stroke:none" />
    </clipPath>
    <clipPath
       id="clipPath4057">
      <path
         d="m 732.14286,1083.4336 c 0,0 -11.78572,-39.2857 -16.07143,-52.5 -4.28571,-13.2143 -2.5,-22.8571 -17.5,-34.99999 -15,-12.14286 -51.42857,-42.14286 -67.5,-46.07143 C 615,945.93361 252.85714,946.29075 252.85714,946.29075 c 0,0 -43.92857,-22.5 -83.57143,-15 -39.64285,7.5 -66.07142,21.07143 -74.999996,35.71429 -8.928571,14.64285 -41.071428,116.78576 -41.071428,116.78576 z"
         id="path4059"
         style="fill:#162d50;fill-opacity:1;stroke:none" />
    </clipPath>
    <clipPath
       id="clipPath4078">
      <path
         d="m 383.5625,483.79968 c -38.57143,10.71429 -51.43303,22.84375 -75.71875,37.84375 -24.28571,15 -21.40179,20.71429 -35.6875,35 -14.28572,14.28572 -22.16964,12.875 -34.3125,27.875 -12.14285,15 -5,38.56697 0,59.28125 1.36534,5.6564 1.38028,13.92742 0.5625,23.40625 -14.08356,11.49654 -32.14897,27.83411 -39.40625,41.1875 -12.62691,23.23351 -20.19052,45.46843 8.09375,64.15625 5.91748,3.90976 10.52573,6.16125 14.15625,7.3125 -15.75586,20.64772 -48.7767,66.28501 -42.96875,79.0625 4.93881,10.86536 23.92228,29.72969 36.625,41.65625 -4.85184,9.21449 -8.84287,18.42169 -9.1875,24.625 -0.71429,12.85715 -6.43304,19.29018 -25.71875,60.71875 -19.28571,41.42862 -27.84375,57.87502 -27.84375,57.87502 l -57.875,17.8437 73.5625,34.2813 156.71875,-10.7813 c 2.75049,-6.5158 5.96859,-14.4357 9.71875,-24.2187 16.42858,-42.8572 29.29464,-59.9822 21.4375,-82.12502 C 347.8616,956.65682 305,950.21932 310,932.36218 c 5,-17.85714 28.55804,-19.98661 17.84375,-57.84375 -10.71428,-37.85715 -10.6875,-95 -10.6875,-95 l 165,-2.875 9.28125,79.28125 c 0,0 -16.44643,9.29464 -27.875,36.4375 -11.42857,27.14286 -4.28125,51.41964 0.71875,68.5625 5,17.14286 -11.43304,59.99552 4.28125,94.28122 3.41104,7.4423 9.14462,13.7217 16.03125,18.9688 l 213.25,-14.6563 c 0,0 -16.40179,-6.4553 -45.6875,-39.3125 -5.07694,-5.696 -10.34197,-12.661 -15.53125,-20.34372 3.58164,-25.86136 7.8875,-63.26247 6.34375,-84.875 -1.04729,-14.662 -7.58161,-33.24713 -16.1875,-51.65625 10.2088,-11.53221 18.75566,-31.60925 20.71875,-42.40625 1.01494,-5.58219 -2.41838,-15.56684 -8.28125,-26.8125 4.53452,-6.17484 7.80655,-12.00298 8.625,-16.75 3.57143,-20.71429 -8.55804,-36.42411 -27.84375,-64.28125 -1.72645,-2.49377 -3.402,-4.73485 -5.0625,-6.75 -1.67,-12.29336 -4.40754,-22.17332 -8.5,-28.25 -23.57143,-35 -20,-42.15178 -25,-76.4375 -5,-34.28571 -32.16072,-66.42857 -77.875,-100 -55.20378,-24.33252 -76.39432,-28.28748 -120,-17.84375 z M 238,671.76843 c -2.68852,24.61411 -10.26988,55.446 -15.15625,70.59375 -2.93114,9.08653 -3.57941,18.64369 -2.53125,28.9375 -3.25618,-0.93673 -6.75615,-2.42547 -10.1875,-4.8125 -11.61675,-8.08122 -27.80696,-24.23175 -6.59375,-54.03125 10.51426,-14.77004 23.78396,-29.54596 34.46875,-40.6875 z m 378.96875,63.84375 c 9.95936,13.28659 14.82671,29.28359 13.78125,43.96875 -4.25389,-6.58305 -9.01115,-13.1336 -13.96875,-19.125 0.27689,-8.54241 0.35067,-16.88554 0.1875,-24.84375 z m -1.84375,54.6875 c 3.53634,1.91893 7.47905,4.28493 11.03125,6.9375 -0.36765,0.76361 -0.74444,1.54 -1.15625,2.28125 -3.53009,6.35416 -8.06383,12.84639 -12.5625,18.71875 1.02967,-9.06731 1.95271,-18.47006 2.6875,-27.9375 z m -388.53125,9.96875 c 1.99388,6.58274 4.34387,13.43782 6.96875,20.65625 0.34209,0.94074 0.66067,1.84699 0.96875,2.75 -7.30498,12.04931 -16.21196,28.59666 -17.09375,39.03125 -0.77483,9.16885 1.8726,18.32249 4.65625,25.09375 -0.0234,0.0398 -0.0391,0.0851 -0.0625,0.125 -24.28499,-25.21869 -32.26019,-44.52139 -24.53125,-63.84375 4.29828,-10.74568 16.94709,-18.56387 29.09375,-23.8125 z m 405.75,2.46875 c 2.49845,2.74484 4.20127,5.64895 4.4375,8.5625 0.86521,10.67105 -2.05784,13.43729 -20.96875,30.5625 -1.70544,-3.09433 -3.42303,-6.09894 -5.15625,-9.0625 0.38731,-2.91819 0.76014,-5.88744 1.125,-8.90625 6.62832,-6.24346 14.10647,-13.67162 20.5625,-21.15625 z m -395.1875,29.71875 c 5.02277,19.80683 0.5132,29.11755 -4.84375,38.1875 -1.12355,-4.7089 -1.80245,-10.18501 -1.75,-16.53125 0.0786,-9.5149 2.84698,-16.50359 6.59375,-21.65625 z"
         id="path4080"
         style="fill:#1a1a1a;fill-opacity:1;stroke:none" />
    </clipPath>
    <clipPath
       id="clipPath4114">
      <rect
         width="500"
         height="414.28571"
         x="191.42857"
         y="485.21933"
         id="rect4116"
         style="opacity:0.58367345;fill:#905027;fill-opacity:1;stroke:none" />
    </clipPath>
    <clipPath
       id="clipPath4175">
      <rect
         width="750"
         height="750"
         x="0"
         y="2.6171874e-06"
         id="rect4177"
         style="fill:#ffff00;fill-opacity:1;stroke:none" />
    </clipPath>
    <clipPath
       id="clipPath4260">
      <rect
         width="750"
         height="750"
         x="0"
         y="2.6171874e-06"
         id="rect4262"
         style="fill:#ff9600;fill-opacity:1;stroke:none" />
    </clipPath>
    <clipPath
       clipPathUnits="userSpaceOnUse"
       id="clipPath3844">
      <rect
         style="fill:#ffa509;fill-opacity:1;stroke:none"
         id="rect3846"
         y="2.6171874e-06"
         x="0"
         height="750"
         width="750" />
    </clipPath>
    <clipPath
       clipPathUnits="userSpaceOnUse"
       id="clipPath3948">
      <rect
         style="fill:#8800aa;fill-opacity:1;stroke:none"
         id="rect3950"
         y="2.6171874e-06"
         x="0"
         height="750"
         width="750" />
    </clipPath>
    <clipPath
       clipPathUnits="userSpaceOnUse"
       id="clipPath3954">
      <rect
         style="fill:#8800aa;fill-opacity:1;stroke:none"
         id="rect3956"
         y="302.36218"
         x="0"
         height="750"
         width="750" />
    </clipPath>
  </defs>
  <metadata
     id="metadata7">
    <rdf:RDF>
      <cc:Work
         rdf:about="">
        <dc:format>image/svg+xml</dc:format>
        <dc:type
           rdf:resource="http://purl.org/dc/dcmitype/StillImage" />
        <dc:title />
      </cc:Work>
    </rdf:RDF>
  </metadata>
  <g
     transform="translate(0,-302.36218)"
     id="layer1">
    <rect
       width="750"
       height="750"
       x="0"
       y="302.36218"
       id="rect3935"
       style="fill:#2affd5;fill-opacity:1;stroke:none" />
    <path
       style="fill:#aa0000;stroke:none;stroke-width:1px;stroke-linecap:butt;stroke-linejoin:miter;stroke-opacity:1"
       d="M -26.162951,799.49747 C -14.849242,764.14214 42.426407,689.18882 53.033008,680.70354 63.63961,672.21825 74.246212,666.5614 74.246212,666.5614 c 0,0 2.828427,-12.02082 4.949747,-14.84924 2.121321,-2.82843 54.447221,-45.25484 82.024391,-62.93251 27.57716,-17.67766 60.10407,-42.4264 60.10407,-42.4264 0,0 -2.12132,-3.53554 15.55635,-12.02082 17.67767,-8.48528 112.42998,-16.26345 112.42998,-16.26345 0,0 140.71425,-53.74012 154.14928,-51.6188 13.43503,2.12132 19.09188,15.55635 19.09188,15.55635 0,0 24.04163,7.07107 31.1127,11.31371 7.07107,4.24264 19.09188,34.64823 19.09188,34.64823 0,0 6.36396,0.70711 74.24621,23.33453 67.88225,22.62741 114.5513,45.96194 114.5513,45.96194 0,0 416.4859,233.34523 23.33452,205.76807 C 391.73716,775.45584 724.07734,817.88225 425.67828,831.31728 259.8207,838.78481 313.2483,809.39697 313.2483,809.39697 z"
       id="path3942"
       inkscape:connector-curvature="0"
       transform="translate(0,302.36218)"
       sodipodi:nodetypes="cscsscscscscscsscc"
       clip-path="url(#clipPath3948)" />
    <path
       style="fill:#d45500;fill-opacity:1;stroke:none"
       d="m 288,869.6269 c 0,0 -12,-0.41231 -20,30.51092 -8,30.92322 -12,79.16345 2,91.53274 14,12.36934 40.5,30.92324 52,41.23094 11.5,10.3078 22.5,17.317 32,20.2032 9.5,2.8862 17.5,0 28,-5.36 10.5,-5.36 16,-12.3693 25.5,-14.4309 9.5,-2.0615 22.5,-8.6585 32.5,-22.677 10,-14.01852 19.5,-48.65253 24,-61.02182 4.5,-12.36929 16,-53.18795 16,-53.18795 l 7.5,-49.06485 z"
       id="path3944"
       inkscape:connector-curvature="0"
       clip-path="url(#clipPath3954)" />
    <path
       style="fill:#ff6600;stroke:none;stroke-width:0.98445231000000000px;stroke-linecap:butt;stroke-linejoin:miter;stroke-opacity:1;fill-opacity:1"
       d="m 363.84602,487.47941 -0.0303,3.78137 -133.25312,43.87648 c 0,0 -17.69095,81.8481 -19.23085,113.62883 -1.53992,31.78073 10.76496,97.71039 15.38468,130.28564 4.61971,32.57525 23.09703,71.52412 60.05476,115.22263 31.7191,37.5044 53.80894,50.98801 76.95368,54.06432 l 0.12114,0.75002 c 1.92806,0 3.85761,-0.0414 5.75411,-0.15625 1.89429,0.11457 3.79807,0.15625 5.72383,0.15625 l 0.12114,-0.75002 c 23.1498,-3.07274 45.22823,-16.55242 76.95368,-54.06432 36.95773,-43.69851 55.43505,-82.64738 60.05476,-115.22263 4.61972,-32.57525 16.95488,-98.50491 15.41497,-130.28564 -1.5399,-31.78073 -19.26114,-113.62883 -19.26114,-113.62883 l -133.25313,-43.87648 -0.0303,-3.78137 -5.75411,1.87506 -5.72383,-1.87506 z"
       id="path3930"
       inkscape:connector-curvature="0" />
    <path
       style="fill:#ffe6d5;stroke:none"
       d="m 313.47901,549.85045 c 0,0 2.24717,21.34803 -11.2358,42.13427 -13.48297,20.78625 -51.68471,29.77489 -51.68471,29.77489 0,0 -0.42135,3.08985 0,5.33701 0.42134,2.24716 2.52805,5.05611 2.52805,5.05611 0,0 -2.24716,0.2809 -4.35387,-1.12358 -2.10672,-1.40447 -2.66851,-4.07298 -2.66851,-4.07298 0,0 -0.98313,7.30328 1.12358,14.60655 2.10672,7.30328 9.97178,15.73013 9.97178,15.73013 0,0 -4.49432,-1.26403 -7.02238,-2.80895 -2.52805,-1.54492 -5.8988,-6.46059 -5.8988,-6.46059 0,0 -0.98313,8.28641 1.82582,13.06163 2.80895,4.77521 12.35939,7.72461 12.35939,7.72461 0,0 -5.33701,1.26403 -10.81446,-0.42134 -5.47746,-1.68537 -7.72462,-5.8988 -9.1291,-11.7976 -1.40447,-5.8988 -2.6685,-17.55595 -2.38761,-22.47161 0.2809,-4.91567 0.70224,-9.69088 1.96627,-10.53357 1.26403,-0.84269 0.2809,-3.93253 0.2809,-3.93253 0,0 -2.66851,10.11222 -5.19657,16.01102 -2.52805,5.8988 -5.75835,13.90431 -5.75835,13.90431 0,0 3.08985,-15.44923 1.54493,-23.87609 -1.54493,-8.42685 -4.49433,-11.79759 -4.49433,-11.79759 0,0 -9.55043,48.31397 -10.95491,62.07783 -1.40447,13.76386 4.49204,41.54478 4.49204,41.54478 0,0 6.26976,41.16129 5.42707,41.44219 -1.09872,0.36625 -12.72806,-6.30259 -14.97522,-11.6396 -2.24716,-5.337 -6.17969,-23.59519 -5.05611,-32.58384 1.12358,-8.98864 -1.96627,-84.54944 -1.96627,-84.54944 l 27.24683,-64.88679 71.62827,-47.47128 82.86408,-1.96627 104.21211,36.51637 48.31397,71.62827 -7.30328,96.34705 -13.20207,-27.80862 -5.6179,-24.15699 -2.24716,21.34803 c 0,0 -3.93254,-34.5501 -4.77522,-27.52772 -0.84269,7.02238 -7.30328,25.28056 -7.30328,25.28056 0,0 3.65164,-21.62893 3.65164,-31.46026 0,-9.83133 -3.08985,-21.06714 -3.08985,-21.06714 0,0 -0.56179,4.77522 -0.84268,8.14596 -0.2809,3.37075 -5.33701,16.29193 -5.05612,9.83134 0.2809,-6.46059 -7.02238,-23.03341 -7.02238,-23.03341 0,0 -48.40246,-27.43933 -69.92051,-36.47987 -30.43594,-12.78728 -29.79727,20.74974 -29.79727,20.74974 z"
       id="path3938"
       inkscape:connector-curvature="0"
       sodipodi:nodetypes="cscscscscscscsssscscscscsssccccccccccscscsscscc" />
    <path
       style="fill:#71c837;stroke:none"
       d="m 206.96504,438.95657 c 0,0 -11.12288,-9.5339 -19.06779,-23.83475 -7.94492,-14.30085 -1.98623,-71.10699 0.79449,-91.36653 2.78072,-20.25953 1.19174,-86.99682 27.40996,-128.31038 26.21822,-41.31356 64.35381,-88.18856 118.77648,-97.325211 54.42267,-9.136652 103.68114,1.588983 134.66631,29.793431 30.98517,28.20445 69.51801,70.70975 77.06568,154.92585 7.54767,84.2161 -3.97245,141.02225 -12.31462,153.73411 -8.34216,12.71187 -18.50187,18.28862 -18.50187,18.28862 0,0 3.25998,-21.61638 5.65394,-36.59537 1.81604,-11.36295 2.91679,-26.97927 2.1223,-43.26634 -0.79449,-16.28708 -10.32839,-75.07945 -44.88877,-112.02331 -34.56038,-36.94385 -79.8464,-48.06674 -130.29661,-44.09428 -50.45022,3.97246 -100.50318,22.64301 -124.73517,78.25742 -24.232,55.6144 -16.68433,139.03602 -16.68433,139.03602 z"
       id="path3940"
       inkscape:connector-curvature="0"
       transform="translate(0,302.36218)"
       sodipodi:nodetypes="cssssssscssssscc" />
    <rect
       width="750"
       height="750"
       x="0"
       y="302.36218"
       id="rect848"
       style="fill:#000000;fill-opacity:0.50196078;stroke:none;stroke-width:0.5" />
    <g
       aria-label="E"
       transform="matrix(0.5,0,0,0.5,2.9882813e-6,308.36221)"
       style="font-style:normal;font-variant:normal;font-weight:900;font-stretch:normal;font-size:1333.33337402px;line-height:125%;font-family:'Jones*';-inkscape-font-specification:'Jones* Heavy';text-align:center;letter-spacing:0px;word-spacing:0px;text-anchor:middle;fill:#ffffff;fill-opacity:1;stroke:none;stroke-width:1px;stroke-linecap:butt;stroke-linejoin:miter;stroke-opacity:1"
       id="flowRoot851">
      <path
         d="M 1170.0521,1212 V 998.6667 H 610.05208 V 834.66669 h 493.33332 v -200 H 610.05208 V 478.66668 h 560.00002 v -200 H 383.38541 V 1212 Z"
         style=""
         id="path15886" />
    </g>
  </g>
</svg>
