<?xml version="1.0" encoding="UTF-8" standalone="no"?>
<!-- Created with Inkscape (http://www.inkscape.org/) -->

<svg
   xmlns:dc="http://purl.org/dc/elements/1.1/"
   xmlns:cc="http://creativecommons.org/ns#"
   xmlns:rdf="http://www.w3.org/1999/02/22-rdf-syntax-ns#"
   xmlns:svg="http://www.w3.org/2000/svg"
   xmlns="http://www.w3.org/2000/svg"
   xmlns:sodipodi="http://sodipodi.sourceforge.net/DTD/sodipodi-0.dtd"
   xmlns:inkscape="http://www.inkscape.org/namespaces/inkscape"
   version="1.1"
   width="1500"
   height="1500"
   id="svg2"
   sodipodi:docname="F.svg"
   inkscape:version="0.92.4 (unknown)">
  <sodipodi:namedview
     pagecolor="#ffffff"
     bordercolor="#666666"
     borderopacity="1"
     objecttolerance="10"
     gridtolerance="10"
     guidetolerance="10"
     inkscape:pageopacity="0"
     inkscape:pageshadow="2"
     inkscape:window-width="1366"
     inkscape:window-height="716"
     id="namedview56"
     showgrid="false"
     inkscape:zoom="0.22250294"
     inkscape:cx="1686.1416"
     inkscape:cy="277.55423"
     inkscape:window-x="0"
     inkscape:window-y="24"
     inkscape:window-maximized="1"
     inkscape:current-layer="svg2" />
  <defs
     id="defs4">
    <clipPath
       id="clipPath3862">
      <rect
         width="744"
         height="1052"
         x="0"
         y="0.36218262"
         id="rect3864"
         style="fill:#2ad4ff;fill-opacity:1;stroke:none" />
    </clipPath>
    <clipPath
       id="clipPath3075">
      <rect
         width="880.29663"
         height="769.06781"
         x="320.97458"
         y="572.48926"
         id="rect3077"
         style="opacity:0.71836733;fill:#c8ab37;fill-opacity:1;stroke:none" />
    </clipPath>
    <clipPath
       id="clipPath3949">
      <rect
         width="750"
         height="750"
         x="0"
         y="2.6171874e-06"
         id="rect3951"
         style="fill:#2ad4ff;fill-opacity:1;stroke:none" />
    </clipPath>
    <clipPath
       id="clipPath3964">
      <path
         d="m 542.68968,295.5 -47.75218,173.03125 122.46875,0 0,-173.03125 z m -316.28343,5.625 0,156.75 84.8125,0 -35.39279,-161.80611 z"
         id="path3966"
         style="fill:#ff5f00;fill-opacity:1;stroke:#aa4400;stroke-width:3;stroke-linecap:square;stroke-miterlimit:4;stroke-opacity:1;stroke-dasharray:none" />
    </clipPath>
    <clipPath
       id="clipPath3036">
      <rect
         width="629.2052"
         height="620.21655"
         x="791.00079"
         y="-176.83527"
         id="rect3038"
         style="opacity:0.55510206;fill:#ffe680;fill-opacity:1;stroke:none" />
    </clipPath>
    <clipPath
       id="clipPath3042">
      <rect
         width="1276.3877"
         height="606.73358"
         x="480.89255"
         y="304.05728"
         id="rect3044"
         style="opacity:0.55510206;fill:#ffe680;fill-opacity:1;stroke:none" />
    </clipPath>
    <clipPath
       id="clipPath3986">
      <rect
         width="391.00607"
         height="175.27859"
         x="-1478.6322"
         y="283.83286"
         id="rect3988"
         style="opacity:0.53061224;fill:#9955ff;fill-opacity:1;stroke:none" />
    </clipPath>
    <clipPath
       id="clipPath4018">
      <rect
         width="1500"
         height="1500"
         x="0"
         y="2.9296871e-08"
         id="rect4020"
         style="fill:#2ad4ff;fill-opacity:1;stroke:none" />
    </clipPath>
    <clipPath
       id="clipPath4024">
      <rect
         width="1500"
         height="1500"
         x="0"
         y="2.9296871e-08"
         id="rect4026"
         style="fill:#2ad4ff;fill-opacity:1;stroke:none" />
    </clipPath>
    <clipPath
       clipPathUnits="userSpaceOnUse"
       id="clipPath911">
      <rect
         style="opacity:1;fill:#aa0000;fill-opacity:1;stroke:#000000;stroke-width:3.02362204;stroke-linejoin:miter;stroke-miterlimit:4;stroke-dasharray:none;stroke-opacity:1;paint-order:stroke markers fill"
         id="rect913"
         width="692.79663"
         height="641.94916"
         x="966.10168"
         y="699.15253"
         ry="1.67204" />
    </clipPath>
    <clipPath
       clipPathUnits="userSpaceOnUse"
       id="clipPath982">
      <rect
         width="1105.9957"
         height="1105.9957"
         x="193.8522"
         y="193.01425"
         id="rect984"
         style="fill:#aa0000;fill-opacity:1;stroke:none;stroke-width:0.7373305" />
    </clipPath>
  </defs>
  <metadata
     id="metadata7">
    <rdf:RDF>
      <cc:Work
         rdf:about="">
        <dc:format>image/svg+xml</dc:format>
        <dc:type
           rdf:resource="http://purl.org/dc/dcmitype/StillImage" />
        <dc:title />
      </cc:Work>
    </rdf:RDF>
  </metadata>
  <rect
     width="1500"
     height="1500"
     x="3.4863281e-06"
     y="0"
     id="rect3082-3"
     style="fill:#2ad4ff;fill-opacity:1;stroke:none;stroke-width:2"
     clip-path="none" />
  <path
     style="fill:#2d5016;fill-opacity:1;stroke:none;stroke-width:2px;stroke-linecap:butt;stroke-linejoin:miter;stroke-opacity:1"
     clip-path="none"
     d="M 641.18359 973.66211 C 636.61798 973.62525 632.61292 973.74894 629.23633 974.04688 C 575.21091 978.81383 549.78828 993.1139 533.89844 997.88086 C 518.00862 1002.6478 510.06429 1012.182 498.94141 1020.127 C 487.81853 1028.0719 444.91537 1043.9611 400.42383 1055.084 C 355.93231 1066.2069 208.15767 1104.3432 135.06445 1139.3008 C 61.971233 1174.2584 33.369505 1212.3944 1.5898438 1295.0215 L 0 1299.1543 L 0 1500 L 1500 1500 L 1500 1263.9453 C 1481.6233 1228.2512 1461.9959 1218.0481 1423.7285 1185.3809 C 1358.5802 1129.7664 1117.0558 1072.5629 1007.416 1040.7832 C 904.62867 1010.9898 709.66777 974.21493 641.18359 973.66211 z "
     id="path3849" />
  <path
     style="fill:#ae5e9e;fill-opacity:1;stroke:none;stroke-width:2"
     d="m 522.77542,702.33048 c 0,0 -7.94492,-49.25846 -4.76694,-63.55932 3.17796,-14.30084 -11.12288,-46.0805 -9.5339,-66.73728 1.58898,-20.65678 11.12288,-79.44916 22.24576,-117.58474 11.12288,-38.1356 14.30084,-84.21612 38.1356,-114.40678 23.83474,-30.19068 42.90254,-84.21612 95.33899,-117.58475 52.4364,-33.36865 92.161,-34.95763 165.2542,-4.76694 73.0932,30.19068 90.572,30.19068 131.8856,60.38135 41.31357,30.19068 50.84747,60.38134 50.84747,60.38134 0,0 11.5176,-23.00622 28.6017,-22.24576 16.0671,0.71518 55.6144,9.5339 63.5593,104.87288 7.9449,95.339 -4.767,228.81356 -12.7119,257.41526 -7.9449,28.60168 -20.6568,135.06356 -20.6568,135.06356 L 564.08898,796.08048 Z"
     id="path3851"
     inkscape:connector-curvature="0"
     sodipodi:nodetypes="cssssssscsssccc"
     clip-path="none" />
  <path
     style="fill:#d35400;fill-opacity:1;stroke:none;stroke-width:2px;stroke-linecap:butt;stroke-linejoin:miter;stroke-opacity:1"
     d="m 525.83576,1034.8376 67.41484,-13.483 -1.12358,-134.82968 426.96058,57.30262 -15.7301,167.41356 c 0,0 -4.49427,14.6065 -20.22437,40.4489 -15.7302,25.8423 -22.4716,59.5497 -52.8083,105.6166 -30.3367,46.0668 -50.5612,79.7742 -74.1564,106.7401 -23.5951,26.966 -56.179,35.9546 -65.1676,66.2913 -8.9887,30.3367 -19.1009,47.1904 -19.1009,47.1904 0,0 -16.8537,-41.5725 -49.4376,-97.7516 -32.5838,-56.179 -37.0781,-79.7742 -51.6847,-93.2572 -14.6065,-13.4829 -38.2017,-35.9545 -44.94319,-47.1903 -6.74148,-11.2358 -19.10086,-43.8197 -48.31396,-78.6507 -29.2131,-34.831 -56.17904,-51.6847 -56.17904,-74.1563 0,-22.4716 4.49432,-51.6847 4.49432,-51.6847 z"
     id="path3853"
     inkscape:connector-curvature="0"
     clip-path="none" />
  <path
     style="fill:#ff8500;fill-opacity:1;stroke:none;stroke-width:2px;stroke-linecap:butt;stroke-linejoin:miter;stroke-opacity:1"
     clip-path="none"
     d="M 918.33398 309.74609 C 917.58211 309.75726 916.84501 309.80052 916.125 309.875 C 893.0847 312.25846 883.5975 342.54654 817.625 340.0625 C 814.963 339.9623 812.8297 339.9589 810.4375 340.0625 C 744.4799 342.91834 734.9777 312.25846 711.9375 309.875 C 711.2175 309.8006 710.4393 309.761 709.6875 309.75 C 686.3803 309.4065 648.16153 339.37356 617.375 393.25 C 585.59534 448.86442 589.53814 495.78178 602.25 522 C 611.58622 543.16426 598.67638 586.67424 580.8125 603.8125 C 574.45656 609.37394 581.61546 683.2712 578.4375 700.75 C 578.01283 703.08568 577.45724 705.22514 576.82031 707.19727 C 576.81643 707.20929 576.81053 707.22041 576.80664 707.23242 C 576.21565 709.0572 575.55356 710.73239 574.84961 712.25977 C 574.84726 712.26487 574.84415 712.27029 574.8418 712.27539 C 574.83936 712.28067 574.83642 712.28574 574.83398 712.29102 C 574.12489 713.82631 573.37564 715.21428 572.61914 716.46094 C 572.40439 716.81483 572.18972 717.1316 571.97461 717.46289 C 571.70891 717.87124 571.44332 718.27596 571.17969 718.65039 C 571.01218 718.88869 570.84542 719.11899 570.67969 719.34375 C 570.39211 719.73306 570.10921 720.10193 569.83008 720.45117 C 569.68874 720.62823 569.54468 720.81358 569.40625 720.98047 C 569.00746 721.46059 568.61649 721.91484 568.25 722.3125 L 559.3125 684.0625 C 559.3125 684.0625 558.78852 683.42513 557.89062 682.36133 C 557.0055 681.31265 555.74471 679.83918 554.18555 678.06055 C 553.78897 677.60804 553.35815 677.12442 552.92578 676.63672 C 552.51474 676.1731 552.12605 675.73321 551.68555 675.24219 C 551.24131 674.74694 550.7624 674.22386 550.29102 673.70508 C 549.77468 673.13685 549.27185 672.58117 548.72656 671.99023 C 548.25194 671.47584 547.75366 670.94743 547.25977 670.41992 C 546.69827 669.82021 546.14742 669.23054 545.56445 668.61914 C 545.01429 668.04209 544.44894 667.46544 543.88281 666.88281 C 543.29675 666.27968 542.71895 665.6821 542.11914 665.07812 C 541.53001 664.48486 540.93313 663.90353 540.33398 663.31445 C 539.76346 662.75351 539.19783 662.1973 538.62109 661.64453 C 538.00137 661.05052 537.38332 660.47789 536.75977 659.89844 C 536.1588 659.33997 535.5623 658.7862 534.96094 658.24609 C 534.00104 657.3839 533.04438 656.53994 532.09375 655.74023 C 531.84 655.52677 531.58846 655.31947 531.33594 655.11133 C 531.03651 654.86452 530.73678 654.61767 530.43945 654.37891 C 530.13498 654.13442 529.83505 653.89945 529.5332 653.66406 C 529.25012 653.44329 528.96595 653.22198 528.68555 653.00977 C 528.38577 652.7829 528.09122 652.568 527.79492 652.35156 C 527.51056 652.14384 527.22608 651.93385 526.94531 651.73633 C 526.67807 651.54831 526.41599 651.37552 526.15234 651.19727 C 525.8549 650.99617 525.55609 650.79151 525.26367 650.60352 C 525.02133 650.44771 524.78547 650.30846 524.54688 650.16211 C 524.24166 649.9749 523.9353 649.78229 523.63672 649.61133 C 523.40636 649.47942 523.18314 649.36787 522.95703 649.24609 C 522.66762 649.09023 522.37572 648.92759 522.09375 648.78906 C 521.85453 648.67152 521.62608 648.57717 521.39258 648.47266 C 521.13358 648.35674 520.87067 648.23009 520.61914 648.13086 C 520.36956 648.0324 520.1324 647.96221 519.89062 647.88086 C 519.66984 647.80658 519.44244 647.71963 519.22852 647.66016 C 518.98934 647.59366 518.76532 647.55902 518.53516 647.51172 C 518.32603 647.46877 518.10952 647.40934 517.9082 647.38281 C 517.90158 647.38194 517.89529 647.38171 517.88867 647.38086 C 517.69071 647.35528 517.49472 647.33725 517.30469 647.32812 C 517.10797 647.31865 516.91637 647.31745 516.72852 647.32617 C 516.3407 647.34418 515.97259 647.40069 515.625 647.5 C 504.50212 650.67796 511.66948 692.77118 510.875 710.25 C 510.0805 727.72882 503.70656 759.54662 510.0625 816.75 C 516.41844 873.9534 546.63772 877.91844 566.5 871.5625 C 572.28818 869.71028 576.86198 864.90208 580.4375 859 C 580.8253 861.60778 581.21958 864.15198 581.625 866.8125 C 581.99913 869.26771 582.38927 871.67784 582.79102 874.05859 C 582.9272 874.86571 583.07157 875.65239 583.21094 876.45117 C 583.47999 877.99304 583.75027 879.53162 584.03125 881.04297 C 584.20708 881.98889 584.38979 882.9193 584.57031 883.85352 C 584.83041 885.19934 585.09342 886.53933 585.36328 887.86133 C 585.56751 888.86197 585.77649 889.85257 585.98633 890.83984 C 586.24347 892.04948 586.50393 893.24948 586.76953 894.43945 C 586.98635 895.41104 587.20526 896.38109 587.42773 897.33984 C 587.72464 898.6191 588.02892 899.88176 588.33594 901.13867 C 588.5445 901.99267 588.7516 902.85141 588.96484 903.69531 C 589.28619 904.96682 589.61721 906.21768 589.94922 907.4668 C 590.16505 908.2789 590.37534 909.10144 590.5957 909.9043 C 591.13776 911.87906 591.69216 913.82939 592.26172 915.75 C 607.76237 968.02025 633.49155 1000.683 671.375 1039.1875 C 719.8389 1088.4459 789.7905 1091.7337 813.625 1091.625 C 813.9247 1091.624 814.1817 1091.625 814.4375 1091.625 C 838.2722 1091.625 908.161 1088.4459 956.625 1039.1875 C 989.08184 1006.1985 1012.635 977.47979 1028.4785 937.0625 C 1028.4925 937.02686 1028.5056 936.99074 1028.5195 936.95508 C 1029.4817 934.49718 1030.4169 931.99935 1031.3223 929.45117 C 1031.741 928.27275 1032.1519 927.07971 1032.5586 925.88086 C 1032.6632 925.57282 1032.7673 925.26254 1032.8711 924.95312 C 1033.6096 922.74935 1034.3289 920.51056 1035.0273 918.23438 C 1035.1214 917.92824 1035.2172 917.62585 1035.3105 917.31836 C 1035.635 916.24803 1035.9538 915.1671 1036.2695 914.08008 C 1036.4887 913.32634 1036.703 912.56468 1036.918 911.80273 C 1037.3304 910.33938 1037.7358 908.86163 1038.1328 907.36719 C 1038.4217 906.28108 1038.7094 905.19091 1038.9902 904.08789 C 1039.2004 903.26125 1039.4076 902.42813 1039.6133 901.5918 C 1039.9455 900.24265 1040.2713 898.8789 1040.5918 897.50391 C 1040.7557 896.79957 1040.9212 896.09797 1041.082 895.38672 C 1041.473 893.66022 1041.8536 891.90893 1042.2266 890.14062 C 1042.3734 889.4434 1042.518 888.74097 1042.6621 888.03711 C 1043.0129 886.32539 1043.3571 884.59567 1043.6914 882.84375 C 1043.7571 882.49933 1043.8256 882.16435 1043.8906 881.81836 C 1043.9105 881.71271 1043.9294 881.60385 1043.9492 881.49805 C 1044.326 879.48608 1044.6895 877.43956 1045.0449 875.37305 C 1045.1479 874.7742 1045.2484 874.17187 1045.3496 873.56836 C 1045.7225 871.34482 1046.0888 869.101 1046.4375 866.8125 C 1046.7844 864.53594 1047.1035 862.36306 1047.4375 860.125 C 1050.9045 865.51212 1055.2701 869.82894 1060.6875 871.5625 C 1063.1703 872.35699 1065.8151 872.99077 1068.5547 873.37891 C 1069.2396 873.47594 1069.9293 873.55796 1070.625 873.62305 C 1089.4101 875.38134 1111.762 865.01703 1117.125 816.75 C 1123.4809 759.54662 1117.107 727.72882 1116.3125 710.25 C 1115.5552 693.58966 1122.032 654.56754 1113.0078 648.19727 C 1112.8599 648.09279 1112.7091 647.99685 1112.5527 647.91016 C 1112.2401 647.73678 1111.9101 647.59931 1111.5625 647.5 C 1111.2149 647.40069 1110.8469 647.34418 1110.459 647.32617 C 1110.272 647.31749 1110.0786 647.31878 1109.8828 647.32812 C 1109.6903 647.33731 1109.4937 647.35479 1109.293 647.38086 C 1109.2883 647.38147 1109.284 647.3822 1109.2793 647.38281 C 1109.0787 647.40923 1108.8627 647.46901 1108.6543 647.51172 C 1108.4231 647.55914 1108.1973 647.59339 1107.957 647.66016 C 1107.732 647.72268 1107.4924 647.81369 1107.2598 647.89258 C 1107.0315 647.97 1106.8095 648.03631 1106.5742 648.12891 C 1106.3093 648.23312 1106.0329 648.36363 1105.7598 648.48633 C 1105.5365 648.58664 1105.3184 648.67689 1105.0898 648.78906 C 1104.7924 648.93506 1104.4835 649.10431 1104.1777 649.26953 C 1103.9711 649.38123 1103.7688 649.48341 1103.5586 649.60352 C 1103.2502 649.77967 1102.9346 649.97842 1102.6191 650.17188 C 1102.3835 650.31641 1102.1495 650.45369 1101.9102 650.60742 C 1101.6261 650.78992 1101.3357 650.98875 1101.0469 651.18359 C 1100.7751 651.36695 1100.5061 651.54652 1100.2305 651.74023 C 1099.9366 651.94678 1099.6377 652.16514 1099.3398 652.38281 C 1099.0654 652.5834 1098.7931 652.78075 1098.5156 652.99023 C 1098.2079 653.2226 1097.8969 653.46634 1097.5859 653.70898 C 1097.3097 653.92452 1097.0343 654.13822 1096.7559 654.36133 C 1096.4489 654.60729 1096.1393 654.86071 1095.8301 655.11523 C 1095.5748 655.32538 1095.321 655.53639 1095.0645 655.75195 C 1094.1192 656.54623 1093.1673 657.38243 1092.2129 658.23828 C 1091.6046 658.78369 1091.0024 659.34407 1090.3945 659.9082 C 1089.7759 660.48227 1089.1617 661.04837 1088.5469 661.63672 C 1087.9567 662.2014 1087.3786 662.77057 1086.7949 663.34375 C 1086.2096 663.91852 1085.6265 664.48573 1085.0508 665.06445 C 1084.4261 665.69234 1083.8227 666.31254 1083.2129 666.93945 C 1082.6727 667.49485 1082.1331 668.04542 1081.6074 668.5957 C 1080.9744 669.25827 1080.3752 669.89823 1079.7676 670.54688 C 1079.3258 671.01849 1078.8774 671.49212 1078.4512 671.95312 C 1077.8895 672.56054 1077.3709 673.1333 1076.8398 673.7168 C 1076.3606 674.24332 1075.875 674.77124 1075.4238 675.27344 C 1075.0529 675.68627 1074.729 676.05366 1074.3789 676.44727 C 1073.8766 677.01192 1073.3849 677.56341 1072.9297 678.08203 C 1071.8585 679.30193 1071.14 680.14753 1070.373 681.04492 C 1069.9854 681.49849 1069.4716 682.08295 1069.1738 682.43555 C 1068.3033 683.46555 1067.8125 684.0625 1067.8125 684.0625 L 1059.125 721.5 C 1058.7604 721.08149 1058.3794 720.61362 1057.9922 720.12305 C 1057.9094 720.01801 1057.8258 719.9131 1057.7422 719.80469 C 1057.364 719.31462 1056.978 718.79253 1056.5898 718.23242 C 1056.4937 718.09343 1056.3972 717.94025 1056.3008 717.79688 C 1056.0047 717.35732 1055.7081 716.89354 1055.4121 716.41211 C 1055.2776 716.19298 1055.1436 715.97596 1055.0098 715.74805 C 1054.6491 715.13481 1054.2925 714.49063 1053.9414 713.8125 C 1053.4086 712.78221 1052.8902 711.68216 1052.4004 710.49805 C 1051.2425 707.69879 1050.2383 704.46684 1049.5625 700.75 C 1046.3845 683.2712 1053.5434 609.37394 1047.1875 603.8125 C 1029.3236 586.67424 1016.4137 543.16426 1025.75 522 C 1038.4618 495.78178 1042.4671 448.86442 1010.6875 393.25 C 979.90094 339.37355 941.64212 309.39986 918.33398 309.74609 z "
     id="path3855" />
  <path
     style="color:#000000;font-style:normal;font-variant:normal;font-weight:normal;font-stretch:normal;font-size:medium;line-height:normal;font-family:sans-serif;font-variant-ligatures:normal;font-variant-position:normal;font-variant-caps:normal;font-variant-numeric:normal;font-variant-alternates:normal;font-feature-settings:normal;text-indent:0;text-align:start;text-decoration:none;text-decoration-line:none;text-decoration-style:solid;text-decoration-color:#000000;letter-spacing:normal;word-spacing:normal;text-transform:none;writing-mode:lr-tb;direction:ltr;text-orientation:mixed;dominant-baseline:auto;baseline-shift:baseline;text-anchor:start;white-space:normal;shape-padding:0;clip-rule:nonzero;display:inline;overflow:visible;visibility:visible;opacity:1;isolation:auto;mix-blend-mode:normal;color-interpolation:sRGB;color-interpolation-filters:linearRGB;solid-color:#000000;solid-opacity:1;vector-effect:none;fill:#e2e2e2;fill-opacity:1;fill-rule:nonzero;stroke:none;stroke-width:6;stroke-linecap:butt;stroke-linejoin:miter;stroke-miterlimit:4;stroke-dasharray:none;stroke-dashoffset:0;stroke-opacity:1;color-rendering:auto;image-rendering:auto;shape-rendering:auto;text-rendering:auto;enable-background:accumulate"
     d="M 672.28516 605.7793 C 663.20234 605.78808 654.23646 606.0371 645.73633 606.56836 C 623.19171 607.9774 609.32554 609.6409 600.1875 612.14648 C 591.04946 614.65207 586.32219 618.45156 583.72656 623.31836 C 582.14542 626.283 581.63891 630.10026 581.31055 634.56055 C 581.20926 635.93638 581.1472 637.37344 581.10352 638.83008 C 574.36658 638.01976 568.15391 637.53466 562.54883 637.51562 C 556.15231 637.49392 550.50253 638.04952 545.62305 639.32812 C 535.86408 641.88536 529.03119 648.01107 527.36523 657.47656 L 533.27344 658.51562 C 534.56706 651.16562 538.79981 647.31945 547.14453 645.13281 C 555.09527 643.04942 566.67437 643.10956 581.05078 644.86719 C 581.06519 646.17678 581.09026 647.4826 581.12891 648.76758 C 581.41362 658.23425 582.26563 666.60742 582.26562 666.60742 L 588.23438 666 C 588.23438 666 587.40208 657.79879 587.125 648.58594 C 586.98646 643.97951 586.99127 639.12653 587.29492 635.00195 C 587.59857 630.87738 588.35546 627.39137 589.02148 626.14258 C 590.92018 622.58252 593.49597 620.20322 601.77344 617.93359 C 610.05091 615.66397 623.71273 613.95656 646.11133 612.55664 C 668.38753 611.16437 694.17273 611.74976 716.57422 613.50977 C 738.97571 615.26977 758.22342 618.32739 766.51953 621.36719 C 771.72603 623.27492 775.59841 627.93118 778.17773 632.90625 C 780.75706 637.88132 781.96138 643.25411 782.08398 645 C 783.15111 660.19597 779.27763 674.53508 770.11914 684.49609 L 774.53516 688.55859 C 783.12587 679.21511 787.47761 666.79475 788.1582 653.58594 C 790.30643 651.60941 799.37403 644.0278 813.27148 642.88867 C 827.03847 641.76023 837.65354 647.56418 840.37109 649.21875 C 840.24051 664.03524 844.54272 678.19189 854.07422 688.55859 L 858.49219 684.49609 C 849.3337 674.53508 845.45826 660.19597 846.52539 645 C 846.648 643.25411 847.85427 637.88132 850.43359 632.90625 C 853.01292 627.93118 856.88335 623.27492 862.08984 621.36719 C 870.38595 618.32739 889.63367 615.26977 912.03516 613.50977 C 934.43664 611.74976 960.2238 611.16437 982.5 612.55664 C 1004.8986 613.95656 1018.5585 615.66397 1026.8359 617.93359 C 1035.1134 620.20322 1037.6911 622.5825 1039.5898 626.14258 C 1040.2559 627.39136 1041.0128 630.87738 1041.3164 635.00195 C 1041.62 639.12653 1041.6229 643.97951 1041.4844 648.58594 C 1041.2073 657.79879 1040.375 666 1040.375 666 L 1046.3438 666.60742 C 1046.3438 666.60742 1047.1977 658.23425 1047.4824 648.76758 C 1047.5211 647.48068 1047.5464 646.17289 1047.5605 644.86133 C 1062.004 643.06263 1073.8311 642.6277 1081.998 644.37109 C 1086.2831 645.28581 1089.5166 646.7604 1091.7852 648.75977 C 1094.0537 650.75913 1095.4894 653.28324 1096.1309 656.92773 L 1102.0391 655.88672 C 1101.2007 651.12346 1099.0314 647.14805 1095.752 644.25781 C 1092.4725 641.36757 1088.2154 639.56192 1083.25 638.50195 C 1078.2846 637.44199 1072.5579 637.09512 1066.1113 637.26953 C 1060.4626 637.42235 1054.2297 637.99369 1047.5039 638.82227 C 1047.4599 637.36833 1047.3999 635.93392 1047.2988 634.56055 C 1046.9705 630.10026 1046.4639 626.283 1044.8828 623.31836 C 1042.2871 618.45157 1037.5599 614.65207 1028.4219 612.14648 C 1019.2838 609.6409 1005.4177 607.9774 982.87305 606.56836 C 971.53954 605.86001 959.37653 605.65516 947.21484 605.84961 C 935.05316 606.04406 922.89214 606.63737 911.56445 607.52734 C 888.90908 609.3073 869.81576 612.14777 860.02734 615.73438 C 852.81916 618.37555 848.10079 624.37083 845.10742 630.14453 C 842.6569 634.87117 841.32094 639.37387 840.78906 642.60938 C 836.53588 640.43828 828.91934 637.31722 819.38672 636.81445 C 817.27104 636.70287 815.06382 636.7212 812.78125 636.9082 C 801.57764 637.82653 793.06403 642.49417 788.14062 645.9707 C 788.1165 645.50692 788.10293 645.04461 788.07031 644.58008 C 787.84634 641.39079 786.49728 635.91823 783.50391 630.14453 C 780.51054 624.37083 775.79217 618.37555 768.58398 615.73438 C 758.79557 612.14778 739.7003 609.3073 717.04492 607.52734 C 705.71723 606.63737 693.55621 606.04406 681.39453 605.84961 C 678.35411 605.801 675.31276 605.77637 672.28516 605.7793 z "
     id="path3864" />
  <path
     style="fill:none;stroke:#e2e2e2;stroke-width:6;stroke-linecap:butt;stroke-linejoin:miter;stroke-miterlimit:4;stroke-dasharray:none;stroke-opacity:1"
     d="m 785.80976,647.20223 c 0,0 12.64028,-8.70776 29.7749,-7.30328 17.1346,1.40446 27.52772,12.0785 27.52772,12.0785"
     id="path3868"
     inkscape:connector-curvature="0"
     sodipodi:nodetypes="csc" />
  <path
     style="fill:#d35400;fill-opacity:1;stroke:none;stroke-width:2"
     d="m 802.43643,819.91524 c 0,0 -10.3284,-19.46504 -30.1907,-20.65678 -19.8623,-1.19174 -20.2595,6.75318 -7.9449,10.72562 12.3146,3.97246 23.8348,0.39726 29.3962,4.76696 5.5614,4.3697 8.7394,5.1642 8.7394,5.1642 z"
     id="path3889"
     inkscape:connector-curvature="0"
     clip-path="none" />
  <path
     inkscape:connector-curvature="0"
     id="path3891"
     d="m 836.00233,819.91524 c 0,0 10.3284,-19.46504 30.1907,-20.65678 19.8623,-1.19174 20.2595,6.75318 7.9449,10.72562 -12.3146,3.97246 -23.8348,0.39726 -29.3962,4.76696 -5.5614,4.3697 -8.7394,5.1642 -8.7394,5.1642 z"
     style="fill:#d35400;fill-opacity:1;stroke:none;stroke-width:2"
     clip-path="none" />
  <path
     style="fill:#ff5f00;fill-opacity:1;stroke:none;stroke-width:2px;stroke-linecap:butt;stroke-linejoin:miter;stroke-opacity:1"
     d="m 793.25003,890.99998 c 0,0 -10.7053,6.7578 -24.75,12.9375 -14.0448,6.1797 -68.5,27.5 -68.5,27.5 0,0 10.6505,12.94742 30.875,20.8125 20.2244,7.86506 48.3416,13.50212 71.375,15.1875 12.9644,0.45942 28.0657,0.68816 37.75,0 23.0334,-1.68538 51.1505,-7.32244 71.375,-15.1875 20.2244,-7.86508 30.875,-20.8125 30.875,-20.8125 0,0 -54.4553,-21.3203 -68.5,-27.5 -14.0448,-6.1797 -24.75,-12.9375 -24.75,-12.9375 0,0 -3.9517,10.69104 -15.1875,13.5 -3.9697,0.9924 -8.2942,1.38526 -12.3125,1.4375 -0.2438,-9.6e-4 -0.5033,0.004 -0.75,0 -4.0184,-0.0522 -8.3429,-0.4451 -12.3125,-1.4375 -11.2358,-2.80896 -15.1875,-13.5 -15.1875,-13.5 z"
     id="path3901"
     inkscape:connector-curvature="0"
     sodipodi:nodetypes="cscsccscscsccsc"
     clip-path="none" />
  <path
     sodipodi:nodetypes="csccscscsccsc"
     inkscape:connector-curvature="0"
     id="path3906"
     d="m 793.25003,890.99998 c 0,0 -10.7053,6.7578 -24.75,12.9375 -14.0448,6.1797 -68.5,27.5 -68.5,27.5 37.6071,-2.14412 79.2886,-0.1868 105.8252,1.04238 12.9496,0.77156 27.2543,-0.7798 36.9555,-0.39724 39.8647,1.57202 57.262,-2.50758 99.4693,-0.64514 0,0 -54.4553,-21.3203 -68.5,-27.5 -14.0448,-6.1797 -24.75,-12.9375 -24.75,-12.9375 0,0 -3.9517,10.69104 -15.1875,13.5 -3.9697,0.9924 -8.2942,1.38526 -12.3125,1.4375 -0.2438,-9.6e-4 -0.5033,0.004 -0.75,0 -4.0184,-0.0522 -8.3429,-0.4451 -12.3125,-1.4375 -11.2358,-2.80896 -15.1875,-13.5 -15.1875,-13.5 z"
     style="fill:#d35400;fill-opacity:1;stroke:none;stroke-width:2px;stroke-linecap:butt;stroke-linejoin:miter;stroke-opacity:1"
     clip-path="none" />
</svg>
