<?xml version="1.0" encoding="UTF-8" standalone="no"?>
<!-- Created with Inkscape (http://www.inkscape.org/) -->

<svg
   xmlns:dc="http://purl.org/dc/elements/1.1/"
   xmlns:cc="http://creativecommons.org/ns#"
   xmlns:rdf="http://www.w3.org/1999/02/22-rdf-syntax-ns#"
   xmlns:svg="http://www.w3.org/2000/svg"
   xmlns="http://www.w3.org/2000/svg"
   xmlns:sodipodi="http://sodipodi.sourceforge.net/DTD/sodipodi-0.dtd"
   xmlns:inkscape="http://www.inkscape.org/namespaces/inkscape"
   version="1.1"
   width="1500"
   height="1500"
   id="svg2"
   sodipodi:docname="Gh.svg"
   inkscape:version="0.92.4 (unknown)">
  <sodipodi:namedview
     pagecolor="#ffffff"
     bordercolor="#666666"
     borderopacity="1"
     objecttolerance="10"
     gridtolerance="10"
     guidetolerance="10"
     inkscape:pageopacity="0"
     inkscape:pageshadow="2"
     inkscape:window-width="1366"
     inkscape:window-height="716"
     id="namedview56"
     showgrid="false"
     inkscape:zoom="0.22250293"
     inkscape:cx="338.49521"
     inkscape:cy="561.3829"
     inkscape:window-x="0"
     inkscape:window-y="24"
     inkscape:window-maximized="1"
     inkscape:current-layer="g900" />
  <defs
     id="defs4">
    <clipPath
       id="clipPath3862">
      <rect
         width="744"
         height="1052"
         x="0"
         y="0.36218262"
         id="rect3864"
         style="fill:#2ad4ff;fill-opacity:1;stroke:none" />
    </clipPath>
    <clipPath
       id="clipPath3075">
      <rect
         width="880.29663"
         height="769.06781"
         x="320.97458"
         y="572.48926"
         id="rect3077"
         style="opacity:0.71836733;fill:#c8ab37;fill-opacity:1;stroke:none" />
    </clipPath>
    <clipPath
       id="clipPath3949">
      <rect
         width="750"
         height="750"
         x="0"
         y="2.6171874e-06"
         id="rect3951"
         style="fill:#2ad4ff;fill-opacity:1;stroke:none" />
    </clipPath>
    <clipPath
       id="clipPath3964">
      <path
         d="m 542.68968,295.5 -47.75218,173.03125 122.46875,0 0,-173.03125 z m -316.28343,5.625 0,156.75 84.8125,0 -35.39279,-161.80611 z"
         id="path3966"
         style="fill:#ff5f00;fill-opacity:1;stroke:#aa4400;stroke-width:3;stroke-linecap:square;stroke-miterlimit:4;stroke-opacity:1;stroke-dasharray:none" />
    </clipPath>
    <clipPath
       id="clipPath3036">
      <rect
         width="629.2052"
         height="620.21655"
         x="791.00079"
         y="-176.83527"
         id="rect3038"
         style="opacity:0.55510206;fill:#ffe680;fill-opacity:1;stroke:none" />
    </clipPath>
    <clipPath
       id="clipPath3042">
      <rect
         width="1276.3877"
         height="606.73358"
         x="480.89255"
         y="304.05728"
         id="rect3044"
         style="opacity:0.55510206;fill:#ffe680;fill-opacity:1;stroke:none" />
    </clipPath>
    <clipPath
       id="clipPath3986">
      <rect
         width="391.00607"
         height="175.27859"
         x="-1478.6322"
         y="283.83286"
         id="rect3988"
         style="opacity:0.53061224;fill:#9955ff;fill-opacity:1;stroke:none" />
    </clipPath>
    <clipPath
       id="clipPath4018">
      <rect
         width="1500"
         height="1500"
         x="0"
         y="2.9296871e-08"
         id="rect4020"
         style="fill:#2ad4ff;fill-opacity:1;stroke:none" />
    </clipPath>
    <clipPath
       id="clipPath4024">
      <rect
         width="1500"
         height="1500"
         x="0"
         y="2.9296871e-08"
         id="rect4026"
         style="fill:#2ad4ff;fill-opacity:1;stroke:none" />
    </clipPath>
    <clipPath
       clipPathUnits="userSpaceOnUse"
       id="clipPath911">
      <rect
         style="opacity:1;fill:#aa0000;fill-opacity:1;stroke:#000000;stroke-width:3.02362204;stroke-linejoin:miter;stroke-miterlimit:4;stroke-dasharray:none;stroke-opacity:1;paint-order:stroke markers fill"
         id="rect913"
         width="692.79663"
         height="641.94916"
         x="966.10168"
         y="699.15253"
         ry="1.67204" />
    </clipPath>
    <clipPath
       clipPathUnits="userSpaceOnUse"
       id="clipPath982">
      <rect
         width="1105.9957"
         height="1105.9957"
         x="193.8522"
         y="193.01425"
         id="rect984"
         style="fill:#aa0000;fill-opacity:1;stroke:none;stroke-width:0.7373305" />
    </clipPath>
    <clipPath
       clipPathUnits="userSpaceOnUse"
       id="clipPath861">
      <rect
         style="opacity:1;fill:#53536c;fill-opacity:1;stroke:none;stroke-width:3.02362204;stroke-linejoin:miter;stroke-miterlimit:4;stroke-dasharray:none;stroke-opacity:1;paint-order:stroke markers fill"
         id="rect863"
         width="1599.9789"
         height="1959.5248"
         x="-2804.4575"
         y="-171.88806"
         ry="1.67204" />
    </clipPath>
    <clipPath
       clipPathUnits="userSpaceOnUse"
       id="clipPath904">
      <rect
         width="1500"
         height="1500"
         x="0"
         y="2.9296871e-08"
         id="rect906"
         style="fill:#28170b;fill-opacity:1;stroke:none" />
    </clipPath>
  </defs>
  <metadata
     id="metadata7">
    <rdf:RDF>
      <cc:Work
         rdf:about="">
        <dc:format>image/svg+xml</dc:format>
        <dc:type
           rdf:resource="http://purl.org/dc/dcmitype/StillImage" />
        <dc:title />
      </cc:Work>
    </rdf:RDF>
  </metadata>
  <rect
     style="fill:#28170b;fill-opacity:1;stroke:none"
     id="rect3082"
     y="2.9296871e-08"
     x="0"
     height="1500"
     width="1500" />
  <g
     id="g900"
     clip-path="url(#clipPath904)">
    <path
       inkscape:connector-curvature="0"
       id="path869"
       d="m 594.27966,368.64407 c 0,0 38.13559,-168.43221 174.78814,-177.9661 C 905.72034,181.14407 1058.2627,375 1058.2627,375 Z"
       style="fill:#502d16;fill-rule:evenodd;stroke:none;stroke-width:1px;stroke-linecap:butt;stroke-linejoin:miter;stroke-opacity:1" />
    <path
       inkscape:connector-curvature="0"
       id="path867"
       d="m 381.35593,279.66102 c 0,0 22.24577,31.77966 85.80509,31.77966 63.55932,0 247.88135,-22.24577 336.8644,-12.71187 88.98306,9.5339 212.92378,44.49153 279.66098,47.66949 66.7373,3.17797 88.9831,-22.24576 114.4068,-9.53389 25.4237,12.71186 82.6271,127.11864 73.0932,193.85593 -9.5339,66.73729 -54.0254,244.70339 -139.8305,254.23729 -85.8051,9.5339 -489.40675,34.95762 -587.9237,-6.35594 -98.51695,-41.31355 -190.67796,-155.72033 -200.21186,-254.23728 -9.5339,-98.51695 38.13559,-244.70339 38.13559,-244.70339 z"
       style="fill:#784421;fill-rule:evenodd;stroke:none;stroke-width:1px;stroke-linecap:butt;stroke-linejoin:miter;stroke-opacity:1;fill-opacity:1" />
    <path
       inkscape:connector-curvature="0"
       id="path871"
       d="m -38.135593,1611.2288 c 0,0 69.915254,-286.0169 108.050847,-378.178 38.135596,-92.161 60.381356,-123.9406 60.381356,-123.9406 0,0 139.83051,-47.6695 251.05932,-47.6695 111.22882,0 143.00848,3.1779 212.92373,-60.3814 69.91526,-63.5593 200.21187,-98.51693 200.21187,-98.51693 0,0 136.65254,92.16102 212.92377,158.89833 76.2711,66.7373 187.5,79.4491 308.2627,127.1186 120.7627,47.6695 146.1864,50.8475 155.7203,228.8136 9.5339,177.9661 -66.7373,473.5169 -66.7373,473.5169 L -54.025424,1827.3305 Z"
       style="fill:#502d16;fill-rule:evenodd;stroke:none;stroke-width:1px;stroke-linecap:butt;stroke-linejoin:miter;stroke-opacity:1" />
    <path
       inkscape:connector-curvature="0"
       id="path873"
       d="m 632.41525,972.45763 c 0,0 -34.95762,139.83047 -57.20339,409.95767 -22.24576,270.1271 19.0678,543.4322 19.0678,543.4322 l 432.20344,22.2457 c 0,0 12.7118,-270.1271 -3.178,-492.5847 -15.8898,-222.4577 -73.09324,-495.76274 -73.09324,-495.76274 z"
       style="fill:#deaa87;fill-rule:evenodd;stroke:none;stroke-width:1px;stroke-linecap:butt;stroke-linejoin:miter;stroke-opacity:1" />
    <path
       sodipodi:nodetypes="cccccsccssc"
       inkscape:connector-curvature="0"
       id="path875"
       d="m 765.88983,1315.678 -25.42373,-73.0933 44.49153,-54.0254 57.20339,47.6695 -38.1356,82.6271 c 0,0 -12.71186,54.0255 47.6695,158.8983 60.38135,104.8729 44.49152,476.695 44.49152,476.695 l -305.08474,22.2457 c 0,0 50.67927,-332.3454 92.16101,-467.161 19.0678,-61.9703 41.77329,-92.1301 54.02543,-114.4068 17.47881,-31.7797 28.60169,-79.4491 28.60169,-79.4491 z"
       style="fill:#ff4100;fill-rule:evenodd;stroke:none;stroke-width:1px;stroke-linecap:butt;stroke-linejoin:miter;stroke-opacity:1;fill-opacity:1" />
    <path
       inkscape:connector-curvature="0"
       id="path877"
       d="m 784.95763,1188.5593 c 0,0 130.29661,-28.6017 152.54237,-82.6271 22.24576,-54.0254 15.88983,-301.90678 15.88983,-301.90678 l -292.37288,-3.17796 c 0,0 -50.84746,174.78813 -22.24576,238.34744 28.60169,63.5593 146.18644,149.3644 146.18644,149.3644 z"
       style="fill:#d38d5f;fill-rule:evenodd;stroke:none;stroke-width:1px;stroke-linecap:butt;stroke-linejoin:miter;stroke-opacity:1" />
    <path
       sodipodi:nodetypes="zcsscscsccscssz"
       inkscape:connector-curvature="0"
       id="path879"
       d="m 575.21187,560.91101 c -0.53555,22.12527 9.53389,122.3517 9.53389,122.3517 0,0 -38.13559,-30.19068 -44.49152,-20.65678 -6.35593,9.5339 3.17796,68.32627 12.71186,104.87288 9.5339,36.54661 46.08051,76.27119 46.08051,76.27119 0,0 14.30084,93.75001 33.36864,128.70763 19.0678,34.95767 81.03814,82.62707 152.54238,79.44917 71.50424,-3.178 143.00847,-30.1907 181.14407,-84.21612 38.1356,-54.02543 55.6144,-138.24153 55.6144,-138.24153 0,0 25.4237,-31.77966 30.1907,-79.44915 4.7669,-47.66949 1.589,-108.05085 -7.9449,-103.2839 -9.5339,4.76695 3.1779,-79.44915 -20.6568,-100.10593 C 999.47034,525.95339 942.26695,468.75 799.25848,465.57203 656.25,462.39407 626.05932,454.44915 599.04661,486.22881 c -27.01271,31.77966 -23.2992,52.55693 -23.83474,74.6822 z"
       style="fill:#deaa87;fill-rule:evenodd;stroke:none;stroke-width:1px;stroke-linecap:butt;stroke-linejoin:miter;stroke-opacity:1" />
    <path
       inkscape:connector-curvature="0"
       id="path881"
       d="m 753.92264,613.49483 c 0,0 -28.08951,-4.49432 -59.54977,-3.37074 -31.46026,1.12358 -68.53842,40.44891 -68.53842,40.44891 0,0 26.96593,-51.68471 66.29126,-55.05546 39.32532,-3.37074 61.79693,17.97729 61.79693,17.97729 z"
       style="fill:#ff4100;fill-rule:evenodd;stroke:none;stroke-width:1px;stroke-linecap:butt;stroke-linejoin:miter;stroke-opacity:1;fill-opacity:1" />
    <path
       inkscape:connector-curvature="0"
       id="path883"
       d="m 852.79775,621.3599 c 0,0 26.96593,-23.5952 55.05545,-23.5952 28.08952,0 75.27991,29.2131 75.27991,29.2131 0,0 -34.83101,-46.06681 -68.53843,-44.94323 -33.70742,1.12359 -61.79693,39.32533 -61.79693,39.32533 z"
       style="fill:#ff4100;fill-rule:evenodd;stroke:none;stroke-width:1px;stroke-linecap:butt;stroke-linejoin:miter;stroke-opacity:1;fill-opacity:1" />
    <path
       inkscape:connector-curvature="0"
       id="path885"
       d="m 897.74097,842.1435 c 0,0 -65.72947,5.05612 -71.90916,0.56179 -6.17969,-4.49432 -1.68537,-19.10087 12.92118,-18.53908 14.60655,0.56179 58.98798,17.97729 58.98798,17.97729 z"
       style="fill:#ff4100;fill-rule:evenodd;stroke:none;stroke-width:1px;stroke-linecap:butt;stroke-linejoin:miter;stroke-opacity:1;fill-opacity:1" />
    <path
       inkscape:connector-curvature="0"
       id="path887"
       d="m 708.41763,857.87363 c 0,0 90.44824,-1.68537 91.01003,-19.66266 0.56179,-17.97729 -38.20174,-4.49432 -60.11156,2.80895 -21.90983,7.30328 -30.89847,16.85371 -30.89847,16.85371 z"
       style="fill:#ff4100;fill-rule:evenodd;stroke:none;stroke-width:1px;stroke-linecap:butt;stroke-linejoin:miter;stroke-opacity:1;fill-opacity:1" />
    <rect
       width="1500"
       height="1500"
       x="0"
       y="0"
       id="rect848"
       style="fill:#000000;fill-opacity:0.50196078;stroke:none" />
    <g
       aria-label="G"
       transform="translate(1.7651367e-6,12.000002)"
       style="font-style:normal;font-variant:normal;font-weight:900;font-stretch:normal;font-size:1333.33337402px;line-height:125%;font-family:'Jones*';-inkscape-font-specification:'Jones* Heavy';text-align:center;letter-spacing:0px;word-spacing:0px;text-anchor:middle;fill:#ffffff;fill-opacity:1;stroke:none;stroke-width:1px;stroke-linecap:butt;stroke-linejoin:miter;stroke-opacity:1"
       id="flowRoot851">
      <path
         d="m 509.16666,745.33336 c 0,-161.33334 112,-293.33335 286.66667,-293.33335 104.00001,0 172.00001,42.66667 235.99997,117.33334 l 153.3334,-140 C 1098.5,329.33334 963.83334,252.00001 795.83333,252.00001 c -300,0 -513.33334,228 -513.33334,493.33335 0,265.33334 213.33334,493.33334 513.33334,493.33334 168.00001,0 329.33337,-77.3333 415.99997,-177.3333 V 665.33335 H 809.16667 v 186.66668 h 190.66667 v 109.33333 c -60,42.66664 -129.33334,64.00004 -204.00001,64.00004 -174.66667,0 -286.66667,-118.66671 -286.66667,-280.00004 z"
         style=""
         id="path15472" />
    </g>
  </g>
</svg>
