<?xml version="1.0" encoding="UTF-8" standalone="no"?>
<!-- Created with Inkscape (http://www.inkscape.org/) -->

<svg
   xmlns:dc="http://purl.org/dc/elements/1.1/"
   xmlns:cc="http://creativecommons.org/ns#"
   xmlns:rdf="http://www.w3.org/1999/02/22-rdf-syntax-ns#"
   xmlns:svg="http://www.w3.org/2000/svg"
   xmlns="http://www.w3.org/2000/svg"
   xmlns:sodipodi="http://sodipodi.sourceforge.net/DTD/sodipodi-0.dtd"
   xmlns:inkscape="http://www.inkscape.org/namespaces/inkscape"
   version="1.1"
   width="1500"
   height="1500"
   id="svg2"
   sodipodi:docname="H.svg"
   inkscape:version="0.92.4 (unknown)">
  <sodipodi:namedview
     pagecolor="#ffffff"
     bordercolor="#666666"
     borderopacity="1"
     objecttolerance="10"
     gridtolerance="10"
     guidetolerance="10"
     inkscape:pageopacity="0"
     inkscape:pageshadow="2"
     inkscape:window-width="1366"
     inkscape:window-height="716"
     id="namedview56"
     showgrid="false"
     inkscape:zoom="0.31466667"
     inkscape:cx="467.26543"
     inkscape:cy="415.39168"
     inkscape:window-x="0"
     inkscape:window-y="24"
     inkscape:window-maximized="1"
     inkscape:current-layer="svg2" />
  <defs
     id="defs4">
    <clipPath
       id="clipPath3862">
      <rect
         width="744"
         height="1052"
         x="0"
         y="0.36218262"
         id="rect3864"
         style="fill:#2ad4ff;fill-opacity:1;stroke:none" />
    </clipPath>
    <clipPath
       id="clipPath3075">
      <rect
         width="880.29663"
         height="769.06781"
         x="320.97458"
         y="572.48926"
         id="rect3077"
         style="opacity:0.71836733;fill:#c8ab37;fill-opacity:1;stroke:none" />
    </clipPath>
    <clipPath
       id="clipPath3949">
      <rect
         width="750"
         height="750"
         x="0"
         y="2.6171874e-06"
         id="rect3951"
         style="fill:#2ad4ff;fill-opacity:1;stroke:none" />
    </clipPath>
    <clipPath
       id="clipPath3964">
      <path
         d="m 542.68968,295.5 -47.75218,173.03125 122.46875,0 0,-173.03125 z m -316.28343,5.625 0,156.75 84.8125,0 -35.39279,-161.80611 z"
         id="path3966"
         style="fill:#ff5f00;fill-opacity:1;stroke:#aa4400;stroke-width:3;stroke-linecap:square;stroke-miterlimit:4;stroke-opacity:1;stroke-dasharray:none" />
    </clipPath>
    <clipPath
       id="clipPath3036">
      <rect
         width="629.2052"
         height="620.21655"
         x="791.00079"
         y="-176.83527"
         id="rect3038"
         style="opacity:0.55510206;fill:#ffe680;fill-opacity:1;stroke:none" />
    </clipPath>
    <clipPath
       id="clipPath3042">
      <rect
         width="1276.3877"
         height="606.73358"
         x="480.89255"
         y="304.05728"
         id="rect3044"
         style="opacity:0.55510206;fill:#ffe680;fill-opacity:1;stroke:none" />
    </clipPath>
    <clipPath
       id="clipPath3986">
      <rect
         width="391.00607"
         height="175.27859"
         x="-1478.6322"
         y="283.83286"
         id="rect3988"
         style="opacity:0.53061224;fill:#9955ff;fill-opacity:1;stroke:none" />
    </clipPath>
  </defs>
  <metadata
     id="metadata7">
    <rdf:RDF>
      <cc:Work
         rdf:about="">
        <dc:format>image/svg+xml</dc:format>
        <dc:type
           rdf:resource="http://purl.org/dc/dcmitype/StillImage" />
        <dc:title />
      </cc:Work>
    </rdf:RDF>
  </metadata>
  <rect
     style="fill:#2ad4ff;fill-opacity:1;stroke:none"
     id="rect3082"
     y="2.9296871e-08"
     x="0"
     height="1500"
     width="1500"
     clip-path="none" />
  <path
     style="fill:#000080;stroke:none"
     clip-path="none"
     d="M 794.49219 1209.2168 C 794.49219 1209.2168 614.93683 1209.2158 570.44531 1221.9277 C 525.95378 1234.6395 433.79155 1287.0763 413.13477 1312.5 C 392.47799 1337.9237 336.8653 1352.2253 228.81445 1411.0176 C 190.07231 1432.0979 141.74087 1465.6435 95.662109 1500 L 1500 1500 L 1500 1334.3867 C 1498.3977 1332.8504 1496.8063 1331.3725 1495.2324 1329.9785 C 1439.618 1280.72 1358.5811 1288.6662 1331.5684 1260.0645 C 1304.5557 1231.4628 1210.8044 1210.8048 1120.2324 1221.9277 C 1029.6603 1233.0505 920.02148 1220.3398 920.02148 1220.3398 L 794.49219 1209.2168 z "
     id="path3936" />
  <path
     style="fill:#9955ff;stroke:none"
     clip-path="none"
     d="M 576.80078 1040.7832 L 616.52539 1210.8047 L 602.22461 1256.8848 C 602.22461 1256.8848 560.91134 1298.1987 490.99609 1333.1562 C 421.08083 1368.1138 421.08008 1379.2363 421.08008 1379.2363 C 421.08008 1379.2363 417.90171 1390.3606 413.13477 1414.1953 C 410.14041 1429.1671 412.79161 1464.1999 415.96289 1500 L 1257.8691 1500 C 1273.9524 1421.8946 1293.4316 1298.1992 1293.4316 1298.1992 C 1293.4316 1298.1992 1291.844 1304.5541 1274.3652 1285.4863 C 1256.8864 1266.4185 1174.2584 1252.1196 1113.877 1245.7637 C 1053.4957 1239.4078 1045.5515 1194.9154 1036.0176 1150.4238 C 1026.4837 1105.9323 1009.0039 1072.5645 1009.0039 1072.5645 L 576.80078 1040.7832 z "
     id="path3938" />
  <path
     inkscape:connector-curvature="0"
     style="fill:#ccaaff;stroke:none"
     id="path3940"
     d="m 773.5,231.1875 v 2.71875 L 712.65625,236.75 c 0,0 -193.04714,124.75212 -229.59375,182.75 -36.54661,57.99788 -26.22087,150.16579 -37.34375,200.21875 -11.12288,50.05297 1.57892,207.36175 17.46875,255.03125 15.88983,47.66949 38.12342,74.66527 100.09375,192.25 61.97034,117.5848 100.10699,107.2538 146.1875,150.1562 22.45236,20.904 44.52438,31.418 64.84375,36.8126 19.84025,3.8481 38.32458,4.7768 56.71875,0 20.31465,-5.396 42.36645,-15.9145 64.8125,-36.8126 46.08051,-42.9025 84.21719,-32.5714 146.18745,-150.1562 61.9704,-117.58473 84.2351,-144.58051 100.125,-192.25 15.8898,-47.6695 28.5916,-204.97828 17.4688,-255.03125 C 1148.5021,569.66579 1158.8279,477.49788 1122.2812,419.5 1085.7347,361.50212 892.6875,236.75 892.6875,236.75 l -60.84375,-2.84375 v -2.71875 l -29.15625,1.375 z"
     clip-path="none" />
  <path
     inkscape:connector-curvature="0"
     style="fill:#6c5353;fill-opacity:1;stroke:none"
     id="path3949"
     d="m 1091.6314,898.56991 c 0,0 31.7796,-60.38135 54.0254,-67.53178 22.2457,-7.15042 43.697,-50.05296 41.3135,-88.18856 -2.3834,-38.13559 -7.9449,-174.78814 -17.4788,-210.54025 -9.5339,-35.75212 -81.0381,-170.02119 -81.0381,-170.02119 l -115.20128,1.58898 c 0,0 56.40888,69.12076 89.77758,112.02331 33.3686,42.90254 61.9703,91.36652 61.9703,154.92585 0,63.55932 -33.3686,267.74364 -33.3686,267.74364 z"
     clip-path="none" />
  <path
     inkscape:connector-curvature="0"
     style="fill:#6c5353;fill-opacity:1;stroke:none"
     id="path3951"
     d="m 508.7728,898.56991 c 0,0 -31.7796,-60.38135 -54.0254,-67.53178 -22.24573,-7.15042 -43.69703,-50.05296 -41.31353,-88.18856 2.3834,-38.13559 7.9449,-174.78814 17.4788,-210.54025 9.53393,-35.75212 81.03813,-170.02119 81.03813,-170.02119 l 115.2013,1.58898 c 0,0 -56.4089,69.12076 -89.7776,112.02331 -33.3686,42.90254 -61.9703,91.36652 -61.9703,154.92585 0,63.55932 33.3686,267.74364 33.3686,267.74364 z"
     clip-path="none" />
  <path
     inkscape:connector-curvature="0"
     style="fill:#916f6f;stroke:none"
     id="path3945"
     d="m 437.76483,491.79025 c 0,0 -39.72457,-65.14831 -14.30084,-104.87288 25.42372,-39.72458 118.37923,-97.72246 118.37923,-97.72246 0,0 0,-45.28602 34.16314,-62.76483 34.16314,-17.47882 162.07627,4.76695 177.17161,-7.94492 15.09534,-12.71186 61.17585,-50.84746 90.57204,-40.51907 29.39618,10.32839 177.17159,73.88772 201.00639,100.10594 23.8347,26.21822 137.447,177.17161 137.447,177.17161 0,0 -26.2182,6.35593 -28.6017,56.4089 -2.3835,50.05296 58.7924,139.03601 58.7924,139.03601 0,0 -48.464,-27.01271 -70.7098,-68.32627 -22.2457,-41.31356 -29.3962,-83.42161 -101.6949,-118.37924 -72.29872,-34.95762 -168.43219,-48.46398 -185.911,-105.66737 -17.47882,-57.20339 -37.34111,-95.33898 -37.34111,-95.33898 0,0 -70.70974,-14.30085 -129.50212,52.43644 -58.79237,66.73729 -57.99788,89.77754 -121.5572,102.48941 -63.55932,12.71186 -119.96822,41.31356 -127.91314,73.88771 z"
     clip-path="none" />
  <path
     inkscape:connector-curvature="0"
     style="fill:#d4d4d4;fill-opacity:1;stroke:none"
     id="path3947"
     d="m 730.13772,228.81355 c 0,0 -31.77966,3.97246 -65.14831,49.25848 -33.36864,45.28601 -34.16313,125.52966 -22.24576,170.02118 11.91737,44.49153 46.875,110.43433 46.875,110.43433 0,0 -73.88771,-140.625 -30.98517,-220.07416 42.90254,-79.44915 102.48941,-96.13347 102.48941,-96.13347 0,0 62.76483,53.23093 92.16101,42.10805 29.39619,-11.12288 105.66738,-80.24365 105.66738,-80.24365 0,0 -73.09322,61.17585 -103.2839,67.53178 -30.19068,6.35594 -98.51695,-64.35381 -98.51695,-64.35381 0,0 -80.24365,-33.36864 -160.48729,13.50636 -80.24365,46.875 -53.23093,70.70974 -53.23093,70.70974 0,0 19.06779,-24.62924 92.95551,-46.08051 73.88771,-21.45127 93.75,-16.68432 93.75,-16.68432 z"
     clip-path="none" />
  <path
     inkscape:connector-curvature="0"
     style="fill:#6c5353;fill-opacity:1;stroke:none"
     id="path3990"
     d="m 636.81319,563.25456 c -22.32262,-1.03064 -29.58482,-0.44059 -51.87465,5.61791 -27.64288,7.5135 -49.45125,36.53007 -49.45125,36.53007 0,0 2.25543,-37.82989 30.85713,-56.89769 28.60169,-19.0678 86.69662,-13.76182 113.73206,-2.80895 11.37897,4.60996 35.96498,15.65101 40.59791,24.07157 4.01408,7.2958 -9.12006,27.81039 -12.13798,30.30362 -5.33493,-5.83919 -11.28657,-19.02594 -24.99279,-25.84236 -20.62147,-10.25553 -29.49614,-10.17846 -46.73043,-10.97417 z"
     clip-path="none" />
  <path
     inkscape:connector-curvature="0"
     style="fill:#6c5353;fill-opacity:1;stroke:none"
     id="path3992"
     d="m 923.19916,581.56779 c 0,0 27.95978,-29.93371 49.4571,-39.72457 20.06091,-9.13666 55.41574,-16.68432 76.07254,0.79449 20.6568,17.47881 33.3686,28.6017 33.3686,28.6017 0,0 -8.6887,-47.98239 -45.6833,-62.16897 -36.71239,-14.07839 -75.47659,-8.34216 -105.27003,12.116 -34.87872,23.95005 -42.90254,36.54661 -33.36864,47.66949 9.5339,11.12288 25.42373,12.71186 25.42373,12.71186 z"
     clip-path="none" />
  <path
     style="color:#000000;font-style:normal;font-variant:normal;font-weight:normal;font-stretch:normal;font-size:medium;line-height:normal;font-family:sans-serif;font-variant-ligatures:normal;font-variant-position:normal;font-variant-caps:normal;font-variant-numeric:normal;font-variant-alternates:normal;font-feature-settings:normal;text-indent:0;text-align:start;text-decoration:none;text-decoration-line:none;text-decoration-style:solid;text-decoration-color:#000000;letter-spacing:normal;word-spacing:normal;text-transform:none;writing-mode:lr-tb;direction:ltr;text-orientation:mixed;dominant-baseline:auto;baseline-shift:baseline;text-anchor:start;white-space:normal;shape-padding:0;clip-rule:nonzero;display:inline;overflow:visible;visibility:visible;opacity:1;isolation:auto;mix-blend-mode:normal;color-interpolation:sRGB;color-interpolation-filters:linearRGB;solid-color:#000000;solid-opacity:1;vector-effect:none;fill:#940057;fill-opacity:1;fill-rule:nonzero;stroke:none;stroke-width:4;stroke-linecap:butt;stroke-linejoin:miter;stroke-miterlimit:4;stroke-dasharray:none;stroke-dashoffset:0;stroke-opacity:1;color-rendering:auto;image-rendering:auto;shape-rendering:auto;text-rendering:auto;enable-background:accumulate"
     clip-path="none"
     d="M 633.87305 602.56836 C 600.56811 602.55836 565.63327 607.00426 543.51953 612.10742 C 528.7223 615.52217 518.80403 620.09366 512.36719 624.48242 C 505.93034 628.87118 502.93264 632.88273 502.14258 636.04297 C 501.97843 636.69956 501.96488 637.22938 501.92578 638.07227 C 501.88668 638.91515 501.86522 639.97404 501.85742 641.23438 C 501.84214 643.7044 501.88096 646.9588 501.95703 650.71484 C 494.733 651.94709 485.52367 654.42584 477.7207 659.42773 C 462.22812 669.35887 464.21484 689.61914 464.21484 689.61914 C 464.21484 689.61914 474.14698 677.30416 484.07812 674.52344 C 488.82165 673.19525 496.1691 672.41998 502.57617 671.96289 C 502.64761 674.04912 502.71117 676.07794 502.78711 678.17383 C 503.48975 697.56663 504.33203 716.39258 504.33203 716.39258 L 504.38672 717.62695 L 505.51758 718.13086 C 505.51758 718.13086 515.7549 722.67546 539.4043 730.55859 C 563.1678 738.47977 606.01835 749.22057 670.31836 741.88477 C 696.51666 738.89588 710.85645 734.57174 720.9082 727.58203 C 730.95995 720.59233 736.38491 711.19951 745.05273 698.61719 C 751.16201 689.74889 755.03054 679.89232 757.15039 670.47266 C 765.65468 656.7036 780.02604 653.43071 794.72266 653.07227 C 796.64886 653.02528 798.53954 652.81741 800.33008 652.49805 C 802.1205 652.81736 804.00948 653.02529 805.93555 653.07227 C 820.63395 653.43076 835.00588 656.70523 843.50977 670.47852 C 845.62931 679.89651 849.49739 689.75062 855.60547 698.61719 C 864.27329 711.19951 869.7002 720.59233 879.75195 727.58203 C 889.8037 734.57174 904.14154 738.89588 930.33984 741.88477 C 994.63986 749.22057 1037.4904 738.47977 1061.2539 730.55859 C 1084.9033 722.67546 1095.1406 718.13086 1095.1406 718.13086 L 1096.2715 717.62695 L 1096.3262 716.39258 C 1096.3262 716.39258 1097.1704 697.56663 1097.873 678.17383 C 1097.949 676.07794 1098.0125 674.04912 1098.084 671.96289 C 1104.4906 672.42 1111.839 673.19538 1116.582 674.52344 C 1126.5131 677.30416 1136.4434 689.61914 1136.4434 689.61914 C 1136.4434 689.61914 1138.4301 669.35887 1122.9375 659.42773 C 1115.1346 654.42587 1105.9271 651.9471 1098.7031 650.71484 C 1098.779 646.9588 1098.818 643.7044 1098.8027 641.23438 C 1098.7927 639.97403 1098.7734 638.91515 1098.7344 638.07227 C 1098.6954 637.22938 1098.6794 636.69956 1098.5156 636.04297 C 1097.7256 632.88275 1094.7298 628.87118 1088.293 624.48242 C 1081.8561 620.09366 1071.9359 615.52217 1057.1387 612.10742 C 1035.0249 607.00426 1000.0921 602.55885 966.78711 602.56836 C 955.68546 602.57136 944.76519 603.06929 934.56055 604.20312 C 917.26533 606.12482 897.93476 611.07148 881.81445 616.31641 C 873.7543 618.93887 866.50143 621.63688 860.70508 624.08008 C 854.90872 626.52328 850.63373 628.64085 848.20508 630.42188 C 847.27927 631.1008 846.48744 631.97551 845.78906 632.99219 C 845.04416 633.69768 834.95829 642.71297 805.93555 641.94922 C 803.85509 641.89447 802.00345 641.90445 800.32812 641.95898 C 798.65331 641.90451 796.80228 641.89449 794.72266 641.94922 C 765.69231 642.71317 755.61124 633.69151 754.87109 632.99023 C 754.17259 631.97399 753.37863 631.10057 752.45312 630.42188 C 750.02448 628.64085 745.75143 626.52328 739.95508 624.08008 C 734.15872 621.63688 726.90585 618.93887 718.8457 616.31641 C 702.7254 611.07148 683.39482 606.12482 666.09961 604.20312 C 655.89496 603.06929 644.97469 602.57153 633.87305 602.56836 z M 633.875 606.58398 C 644.85874 606.58098 655.63839 607.06638 665.6582 608.17969 C 682.5277 610.05408 701.67955 614.93878 717.60742 620.12109 C 725.57136 622.71225 732.73394 625.37718 738.40039 627.76562 C 744.06684 630.15408 748.30312 632.33765 750.08789 633.64648 C 751.50667 634.68692 753.13455 637.55691 754.0957 641.75781 C 755.05686 645.95872 755.44346 651.40958 755.0332 657.46094 C 754.21268 669.56365 750.21661 684.06875 741.75781 696.34766 C 733.01013 709.0459 727.84256 717.88784 718.62305 724.29883 C 709.40353 730.70982 695.79366 734.95206 669.86523 737.91016 C 606.19949 745.1736 564.0968 734.57264 540.66992 726.76367 C 518.80909 719.47673 509.61604 715.51562 508.27539 714.93164 C 508.22179 713.7313 507.46149 696.7481 506.7832 678.02734 C 506.70592 675.89446 506.64286 673.83087 506.57031 671.70898 C 511.64655 671.42619 515.45898 671.3457 515.45898 671.3457 L 514.26758 649.49609 C 514.26758 649.49609 510.92013 649.50715 505.94727 650.12891 C 505.879 646.62241 505.84329 643.54809 505.85742 641.25781 C 505.86542 640.02959 505.88492 639.01142 505.91992 638.25781 C 505.95492 637.5042 506.04714 636.91888 506.02344 637.01367 C 506.35696 635.67959 508.6966 631.82521 514.61914 627.78711 C 520.54168 623.74901 530.00405 619.3326 544.41992 616.00586 C 566.12584 610.99681 600.92379 606.5935 633.875 606.58398 z M 966.7832 606.58398 C 999.73443 606.59398 1034.5343 610.99681 1056.2402 616.00586 C 1070.6561 619.3326 1080.1165 623.74901 1086.0391 627.78711 C 1091.9616 631.82521 1094.3032 635.67957 1094.6367 637.01367 C 1094.6127 636.91887 1094.7037 637.5042 1094.7383 638.25781 C 1094.7733 639.01142 1094.7957 640.02959 1094.8027 641.25781 C 1094.8167 643.54809 1094.7792 646.62241 1094.7109 650.12891 C 1089.7381 649.50715 1086.3906 649.49609 1086.3906 649.49609 L 1085.1992 671.3457 C 1085.1992 671.3457 1089.0117 671.42619 1094.0879 671.70898 C 1094.0153 673.83087 1093.9523 675.89446 1093.875 678.02734 C 1093.1967 696.74909 1092.4363 713.73498 1092.3828 714.93359 C 1091.0398 715.51857 1081.846 719.47778 1059.9883 726.76367 C 1036.5614 734.57264 994.45872 745.1736 930.79297 737.91016 C 904.86454 734.95206 891.25467 730.70982 882.03516 724.29883 C 872.81564 717.88784 867.64807 709.0459 858.90039 696.34766 C 850.44159 684.06875 846.44552 669.56365 845.625 657.46094 C 845.21474 651.40958 845.6014 645.95872 846.5625 641.75781 C 847.52365 637.55691 849.15153 634.68692 850.57031 633.64648 C 852.35508 632.33765 856.59136 630.15408 862.25781 627.76562 C 867.92426 625.37719 875.08685 622.71225 883.05078 620.12109 C 898.97865 614.93878 918.13246 610.05408 935.00195 608.17969 C 945.02176 607.06638 955.79946 606.58081 966.7832 606.58398 z "
     id="path3844" />
  <path
     inkscape:connector-curvature="0"
     style="fill:#800033;fill-opacity:1;stroke:none"
     id="path3953"
     d="m 781.21822,996.00477 c 0,0 -4.4305,4.02243 -4.4947,4.70023 l -14.55138,-5.6282 -84.89089,10.5482 c 0,0 58.97154,33.7102 110.65625,33.7101 5.84011,0 10.5158,0.7246 15.48543,0.7246 4.96964,0 9.04946,-0.7246 14.88957,-0.7246 C 869.99721,1039.3352 929,1005.625 929,1005.625 l -63.83686,-12.13718 -16.56886,1.25847 c 18.20921,2.10347 -14.39455,0.46399 -14.39455,0.46399 l -29.08845,4.13771 z"
     clip-path="none" />
  <path
     inkscape:connector-curvature="0"
     style="fill:#d35fbc;stroke:none"
     id="path3958"
     d="m 765.5,978.20368 c 0,0 -14.29502,2.36811 -39.71875,13.09375 -25.42372,10.72567 -47.65625,13.74997 -47.65625,13.74997 0,0 0.0619,-0.3881 14.28125,1.1875 14.1604,1.569 32.08829,4.9375 58,4.9375 10.07036,0 20.21279,0.34 27.78125,-0.4375 10.9462,-1.1244 41.12306,-0.9925 51.96875,0 8.42814,0.7713 17.71089,0.4375 27.78125,0.4375 25.66995,0 42.06455,-3.6372 58,-4.9375 14.25897,-1.1636 14.28125,-1.1875 14.28125,-1.1875 0,0 -22.23253,-3.0243 -47.65625,-13.74997 -25.42373,-10.72564 -39.71875,-13.09375 -39.71875,-13.09375 0,0 -13.28408,10.91811 -38.65625,11.5 -25.39246,-0.57365 -38.6875,-11.5 -38.6875,-11.5 z"
     clip-path="none" />
  <path
     inkscape:connector-curvature="0"
     style="fill:#9955ff;fill-opacity:1;stroke:none"
     id="path3963"
     d="m 778.75713,840.63503 c 0,0 -10.72174,-16.25011 -28.13921,-21.67292 -17.41748,-5.42282 -42.49835,13.22591 -24.77243,17.77378 17.72592,4.54786 30.12961,-7.30506 38.72176,-3.67963 8.59214,3.62543 14.18988,7.57877 14.18988,7.57877 z"
     clip-path="none" />
  <path
     inkscape:connector-curvature="0"
     style="fill:#9955ff;fill-opacity:1;stroke:none"
     id="path3965"
     d="m 823.47721,840.63503 c 0,0 10.72174,-16.25011 28.13921,-21.67292 17.41748,-5.42282 42.49835,13.22591 24.77243,17.77378 -17.72592,4.54786 -30.12961,-7.30506 -38.72176,-3.67963 -8.59214,3.62543 -14.18988,7.57877 -14.18988,7.57877 z"
     clip-path="none" />
</svg>
