<?xml version="1.0" encoding="UTF-8" standalone="no"?>
<!-- Created with Inkscape (http://www.inkscape.org/) -->

<svg
   xmlns:dc="http://purl.org/dc/elements/1.1/"
   xmlns:cc="http://creativecommons.org/ns#"
   xmlns:rdf="http://www.w3.org/1999/02/22-rdf-syntax-ns#"
   xmlns:svg="http://www.w3.org/2000/svg"
   xmlns="http://www.w3.org/2000/svg"
   xmlns:sodipodi="http://sodipodi.sourceforge.net/DTD/sodipodi-0.dtd"
   xmlns:inkscape="http://www.inkscape.org/namespaces/inkscape"
   version="1.1"
   width="1500"
   height="1500"
   id="svg2"
   sodipodi:docname="Hh.svg"
   inkscape:version="0.92.4 (unknown)">
  <sodipodi:namedview
     pagecolor="#ffffff"
     bordercolor="#666666"
     borderopacity="1"
     objecttolerance="10"
     gridtolerance="10"
     guidetolerance="10"
     inkscape:pageopacity="0"
     inkscape:pageshadow="2"
     inkscape:window-width="1366"
     inkscape:window-height="716"
     id="namedview4360"
     showgrid="false"
     inkscape:zoom="0.31466667"
     inkscape:cx="1121.0991"
     inkscape:cy="893.72037"
     inkscape:window-x="0"
     inkscape:window-y="24"
     inkscape:window-maximized="1"
     inkscape:current-layer="svg2" />
  <defs
     id="defs4">
    <clipPath
       id="clipPath3862">
      <rect
         width="744"
         height="1052"
         x="0"
         y="0.36218262"
         id="rect3864"
         style="fill:#2ad4ff;fill-opacity:1;stroke:none" />
    </clipPath>
    <clipPath
       id="clipPath3075">
      <rect
         width="880.29663"
         height="769.06781"
         x="320.97458"
         y="572.48926"
         id="rect3077"
         style="opacity:0.71836733;fill:#c8ab37;fill-opacity:1;stroke:none" />
    </clipPath>
    <clipPath
       id="clipPath3949">
      <rect
         width="750"
         height="750"
         x="0"
         y="2.6171874e-06"
         id="rect3951"
         style="fill:#2ad4ff;fill-opacity:1;stroke:none" />
    </clipPath>
    <clipPath
       id="clipPath3964">
      <path
         d="m 542.68968,295.5 -47.75218,173.03125 122.46875,0 0,-173.03125 z m -316.28343,5.625 0,156.75 84.8125,0 -35.39279,-161.80611 z"
         id="path3966"
         style="fill:#ff5f00;fill-opacity:1;stroke:#aa4400;stroke-width:3;stroke-linecap:square;stroke-miterlimit:4;stroke-opacity:1;stroke-dasharray:none" />
    </clipPath>
    <clipPath
       id="clipPath3036">
      <rect
         width="629.2052"
         height="620.21655"
         x="791.00079"
         y="-176.83527"
         id="rect3038"
         style="opacity:0.55510206;fill:#ffe680;fill-opacity:1;stroke:none" />
    </clipPath>
    <clipPath
       id="clipPath3042">
      <rect
         width="1276.3877"
         height="606.73358"
         x="480.89255"
         y="304.05728"
         id="rect3044"
         style="opacity:0.55510206;fill:#ffe680;fill-opacity:1;stroke:none" />
    </clipPath>
    <clipPath
       id="clipPath3986">
      <rect
         width="391.00607"
         height="175.27859"
         x="-1478.6322"
         y="283.83286"
         id="rect3988"
         style="opacity:0.53061224;fill:#9955ff;fill-opacity:1;stroke:none" />
    </clipPath>
    <clipPath
       id="clipPath4018">
      <rect
         width="1500"
         height="1500"
         x="0"
         y="2.9296871e-08"
         id="rect4020"
         style="fill:#2ad4ff;fill-opacity:1;stroke:none" />
    </clipPath>
    <clipPath
       id="clipPath4024">
      <rect
         width="1500"
         height="1500"
         x="0"
         y="2.9296871e-08"
         id="rect4026"
         style="fill:#2ad4ff;fill-opacity:1;stroke:none" />
    </clipPath>
  </defs>
  <metadata
     id="metadata7">
    <rdf:RDF>
      <cc:Work
         rdf:about="">
        <dc:format>image/svg+xml</dc:format>
        <dc:type
           rdf:resource="http://purl.org/dc/dcmitype/StillImage" />
        <dc:title />
      </cc:Work>
    </rdf:RDF>
  </metadata>
  <g
     transform="translate(0,447.63797)"
     id="layer1">
    <rect
       width="1500"
       height="1500"
       x="0"
       y="-447.63797"
       id="rect3082"
       style="fill:#2ad4ff;fill-opacity:1;stroke:none" />
    <path
       d="m 920.02119,1220.339 c 0,0 109.63981,12.7118 200.21191,1.589 90.572,-11.1229 184.322,9.5339 211.3347,38.1356 27.0127,28.6017 108.0509,20.6567 163.6653,69.9152 55.6144,49.2585 130.2966,190.678 130.2966,190.678 l -3.178,195.4449 -1684.322039,-90.572 c 0,0 182.733049,-155.7204 290.783899,-214.5128 108.05085,-58.7923 163.66526,-73.0932 184.32204,-98.5169 20.65678,-25.4237 112.81779,-77.8602 157.30932,-90.572 44.49152,-12.7119 224.04661,-12.7119 224.04661,-12.7119 z"
       transform="translate(0,-447.63797)"
       clip-path="url(#clipPath4024)"
       id="path3936"
       style="fill:#000080;stroke:none" />
    <path
       d="m 421.08051,1379.2373 c 0,0 0,-11.1229 69.91526,-46.0805 69.91525,-34.9576 111.22881,-76.2712 111.22881,-76.2712 l 14.30085,-46.0805 -39.72458,-170.0212 432.20335,31.7797 c 0,0 17.4789,33.3686 27.0128,77.8601 9.5339,44.4916 17.4788,88.9831 77.8601,95.339 60.3814,6.3559 143.0085,20.6568 160.4873,39.7246 17.4788,19.0678 19.0678,12.7119 19.0678,12.7119 0,0 -31.7797,201.8008 -47.6695,252.6483 -15.8898,50.8474 -759.53388,115.9957 -759.53388,115.9957 l -69.91526,-17.4788 c 0,0 7.94492,-41.3136 4.76695,-88.983 -3.17797,-47.6695 -12.71186,-122.3517 -7.94491,-146.1865 4.76694,-23.8347 7.94491,-34.9576 7.94491,-34.9576 z"
       transform="translate(0,-447.63797)"
       clip-path="url(#clipPath4018)"
       id="path3938"
       style="fill:#9955ff;stroke:none" />
    <path
       d="m 773.5,231.1875 0,2.71875 -60.84375,2.84375 c 0,0 -193.04714,124.75212 -229.59375,182.75 -36.54661,57.99788 -26.22087,150.16579 -37.34375,200.21875 -11.12288,50.05297 1.57892,207.36175 17.46875,255.03125 15.88983,47.66949 38.12342,74.66527 100.09375,192.25 61.97034,117.5848 100.10699,107.2538 146.1875,150.1562 22.45236,20.904 44.52438,31.418 64.84375,36.8126 19.84025,3.8481 38.32458,4.7768 56.71875,0 20.31465,-5.396 42.36645,-15.9145 64.8125,-36.8126 46.08051,-42.9025 84.21719,-32.5714 146.18745,-150.1562 61.9704,-117.58473 84.2351,-144.58051 100.125,-192.25 15.8898,-47.6695 28.5916,-204.97828 17.4688,-255.03125 C 1148.5021,569.66579 1158.8279,477.49788 1122.2812,419.5 1085.7347,361.50212 892.6875,236.75 892.6875,236.75 l -60.84375,-2.84375 0,-2.71875 -29.15625,1.375 z"
       transform="translate(0,-447.63797)"
       id="path3940"
       style="fill:#ccaaff;stroke:none" />
    <path
       d="m 1091.6314,898.56991 c 0,0 31.7796,-60.38135 54.0254,-67.53178 22.2457,-7.15042 43.697,-50.05296 41.3135,-88.18856 -2.3834,-38.13559 -7.9449,-174.78814 -17.4788,-210.54025 -9.5339,-35.75212 -81.0381,-170.02119 -81.0381,-170.02119 l -115.20128,1.58898 c 0,0 56.40888,69.12076 89.77758,112.02331 33.3686,42.90254 61.9703,91.36652 61.9703,154.92585 0,63.55932 -33.3686,267.74364 -33.3686,267.74364 z"
       transform="translate(0,-447.63797)"
       id="path3949"
       style="fill:#6c5353;fill-opacity:1;stroke:none" />
    <path
       d="m 508.7728,450.93194 c 0,0 -31.7796,-60.38135 -54.0254,-67.53178 -22.24573,-7.15042 -43.69703,-50.05296 -41.31353,-88.18856 2.3834,-38.13559 7.9449,-174.78814 17.4788,-210.54025 9.53393,-35.75212 81.03813,-170.02119 81.03813,-170.02119 l 115.2013,1.58898 c 0,0 -56.4089,69.12076 -89.7776,112.02331 -33.3686,42.90254 -61.9703,91.36652 -61.9703,154.92585 0,63.55932 33.3686,267.74364 33.3686,267.74364 z"
       id="path3951"
       style="fill:#6c5353;fill-opacity:1;stroke:none" />
    <path
       d="m 437.76483,491.79025 c 0,0 -39.72457,-65.14831 -14.30084,-104.87288 25.42372,-39.72458 118.37923,-97.72246 118.37923,-97.72246 0,0 0,-45.28602 34.16314,-62.76483 34.16314,-17.47882 162.07627,4.76695 177.17161,-7.94492 15.09534,-12.71186 61.17585,-50.84746 90.57204,-40.51907 29.39618,10.32839 177.17159,73.88772 201.00639,100.10594 23.8347,26.21822 137.447,177.17161 137.447,177.17161 0,0 -26.2182,6.35593 -28.6017,56.4089 -2.3835,50.05296 58.7924,139.03601 58.7924,139.03601 0,0 -48.464,-27.01271 -70.7098,-68.32627 -22.2457,-41.31356 -29.3962,-83.42161 -101.6949,-118.37924 -72.29872,-34.95762 -168.43219,-48.46398 -185.911,-105.66737 -17.47882,-57.20339 -37.34111,-95.33898 -37.34111,-95.33898 0,0 -70.70974,-14.30085 -129.50212,52.43644 -58.79237,66.73729 -57.99788,89.77754 -121.5572,102.48941 -63.55932,12.71186 -119.96822,41.31356 -127.91314,73.88771 z"
       transform="translate(0,-447.63797)"
       id="path3945"
       style="fill:#916f6f;stroke:none" />
    <path
       d="m 730.13772,228.81355 c 0,0 -31.77966,3.97246 -65.14831,49.25848 -33.36864,45.28601 -34.16313,125.52966 -22.24576,170.02118 11.91737,44.49153 46.875,110.43433 46.875,110.43433 0,0 -73.88771,-140.625 -30.98517,-220.07416 42.90254,-79.44915 102.48941,-96.13347 102.48941,-96.13347 0,0 62.76483,53.23093 92.16101,42.10805 29.39619,-11.12288 105.66738,-80.24365 105.66738,-80.24365 0,0 -73.09322,61.17585 -103.2839,67.53178 -30.19068,6.35594 -98.51695,-64.35381 -98.51695,-64.35381 0,0 -80.24365,-33.36864 -160.48729,13.50636 -80.24365,46.875 -53.23093,70.70974 -53.23093,70.70974 0,0 19.06779,-24.62924 92.95551,-46.08051 73.88771,-21.45127 93.75,-16.68432 93.75,-16.68432 z"
       transform="translate(0,-447.63797)"
       id="path3947"
       style="fill:#d4d4d4;fill-opacity:1;stroke:none" />
    <path
       d="m 636.81319,563.25456 c -22.32262,-1.03064 -29.58482,-0.44059 -51.87465,5.61791 -27.64288,7.5135 -49.45125,36.53007 -49.45125,36.53007 0,0 2.25543,-37.82989 30.85713,-56.89769 28.60169,-19.0678 86.69662,-13.76182 113.73206,-2.80895 11.37897,4.60996 35.96498,15.65101 40.59791,24.07157 4.01408,7.2958 -9.12006,27.81039 -12.13798,30.30362 -5.33493,-5.83919 -11.28657,-19.02594 -24.99279,-25.84236 -20.62147,-10.25553 -29.49614,-10.17846 -46.73043,-10.97417 z"
       transform="translate(0,-447.63797)"
       id="path3990"
       style="fill:#6c5353;fill-opacity:1;stroke:none" />
    <path
       d="m 923.19916,581.56779 c 0,0 27.95978,-29.93371 49.4571,-39.72457 20.06091,-9.13666 55.41574,-16.68432 76.07254,0.79449 20.6568,17.47881 33.3686,28.6017 33.3686,28.6017 0,0 -8.6887,-47.98239 -45.6833,-62.16897 -36.71239,-14.07839 -75.47659,-8.34216 -105.27003,12.116 -34.87872,23.95005 -42.90254,36.54661 -33.36864,47.66949 9.5339,11.12288 25.42373,12.71186 25.42373,12.71186 z"
       transform="translate(0,-447.63797)"
       id="path3992"
       style="fill:#6c5353;fill-opacity:1;stroke:none" />
    <g
       transform="translate(-24,0)"
       id="g3869">
      <g
         id="g3856">
        <path
           d="m 530.33009,716.30246 c 0,0 -3.37074,-75.2799 -2.24716,-79.77423 1.12358,-4.49432 10.67401,-15.73013 39.88711,-22.47161 29.2131,-6.74148 81.4596,-12.35939 121.90851,-7.86507 34.16471,3.79608 76.96528,19.66267 85.39213,25.84236 8.42686,6.17969 9.55044,40.16801 -7.86506,65.44858 -17.4155,25.28057 -21.18692,36.46818 -73.31365,42.41517 -63.98288,7.29962 -106.45927,-3.37074 -130.05446,-11.23581 -23.59519,-7.86506 -33.70742,-12.35939 -33.70742,-12.35939 z"
           transform="translate(0,-447.63797)"
           id="path3844"
           style="fill:none;stroke:#940057;stroke-width:4;stroke-linecap:butt;stroke-linejoin:miter;stroke-miterlimit:4;stroke-opacity:1;stroke-dasharray:none" />
        <path
           d="m 538.26801,649.49682 1.19174,21.84851 c 0,0 -21.45127,0.39725 -31.38242,3.17797 -9.93114,2.78072 -19.86228,15.09534 -19.86228,15.09534 0,0 -1.98623,-20.25954 13.50635,-30.19068 15.49259,-9.93114 36.54661,-9.93114 36.54661,-9.93114 z"
           transform="translate(0,-447.63797)"
           id="path3846"
           style="fill:#940057;fill-opacity:1;stroke:none" />
        <path
           d="m 778.72218,632.86069 c 0,0 9.81066,9.88295 40.00134,9.08846 30.19068,-0.79449 16.28708,10.72563 0,11.12288 -16.28707,0.39724 -32.1769,4.3697 -40.12182,22.24576 -7.94492,17.87606 -11.12288,22.24576 -11.12288,22.24576 l 12.31462,-25.02648 2.78072,-26.61547 z"
           transform="translate(0,-447.63797)"
           id="path3848"
           style="fill:#940057;fill-opacity:1;stroke:none" />
      </g>
      <g
         transform="matrix(-1,0,0,1,1648.659,0)"
         id="g3861">
        <path
           d="m 530.33009,716.30246 c 0,0 -3.37074,-75.2799 -2.24716,-79.77423 1.12358,-4.49432 10.67401,-15.73013 39.88711,-22.47161 29.2131,-6.74148 81.4596,-12.35939 121.90851,-7.86507 34.16471,3.79608 76.96528,19.66267 85.39213,25.84236 8.42686,6.17969 9.55044,40.16801 -7.86506,65.44858 -17.4155,25.28057 -21.18692,36.46818 -73.31365,42.41517 -63.98288,7.29962 -106.45927,-3.37074 -130.05446,-11.23581 -23.59519,-7.86506 -33.70742,-12.35939 -33.70742,-12.35939 z"
           transform="translate(0,-447.63797)"
           id="path3863"
           style="fill:none;stroke:#940057;stroke-width:4;stroke-linecap:butt;stroke-linejoin:miter;stroke-miterlimit:4;stroke-opacity:1;stroke-dasharray:none" />
        <path
           d="m 538.26801,649.49682 1.19174,21.84851 c 0,0 -21.45127,0.39725 -31.38242,3.17797 -9.93114,2.78072 -19.86228,15.09534 -19.86228,15.09534 0,0 -1.98623,-20.25954 13.50635,-30.19068 15.49259,-9.93114 36.54661,-9.93114 36.54661,-9.93114 z"
           transform="translate(0,-447.63797)"
           id="path3865"
           style="fill:#940057;fill-opacity:1;stroke:none" />
        <path
           d="m 778.72218,632.86069 c 0,0 9.81066,9.88295 40.00134,9.08846 30.19068,-0.79449 16.28708,10.72563 0,11.12288 -16.28707,0.39724 -32.1769,4.3697 -40.12182,22.24576 -7.94492,17.87606 -11.12288,22.24576 -11.12288,22.24576 l 12.31462,-25.02648 2.78072,-26.61547 z"
           transform="translate(0,-447.63797)"
           id="path3867"
           style="fill:#940057;fill-opacity:1;stroke:none" />
      </g>
    </g>
    <path
       d="m 781.21822,548.3668 c 0,0 -4.4305,4.02243 -4.4947,4.70023 l -14.55138,-5.6282 -84.89089,10.5482 c 0,0 58.97154,33.7102 110.65625,33.7101 5.84011,0 10.5158,0.7246 15.48543,0.7246 4.96964,0 9.04946,-0.7246 14.88957,-0.7246 C 869.99721,591.69723 929,557.98703 929,557.98703 l -63.83686,-12.13718 -16.56886,1.25847 c 18.20921,2.10347 -14.39455,0.46399 -14.39455,0.46399 l -29.08845,4.13771 z"
       id="path3953"
       style="fill:#800033;fill-opacity:1;stroke:none" />
    <path
       d="m 765.5,530.56571 c 0,0 -14.29502,2.36811 -39.71875,13.09375 -25.42372,10.72563 -47.65625,13.75 -47.65625,13.75 0,0 0.0619,-0.38815 14.28125,1.18745 14.1604,1.56907 32.08829,4.93755 58,4.93755 10.07036,0 20.21279,0.33995 27.78125,-0.4375 10.9462,-1.12442 41.12306,-0.99251 51.96875,0 8.42814,0.77127 17.71089,0.4375 27.78125,0.4375 25.66995,0 42.06455,-3.63722 58,-4.93755 14.25897,-1.16353 14.28125,-1.18745 14.28125,-1.18745 0,0 -22.23253,-3.02437 -47.65625,-13.75 -25.42373,-10.72564 -39.71875,-13.09375 -39.71875,-13.09375 0,0 -13.28408,10.91811 -38.65625,11.5 -25.39246,-0.57365 -38.6875,-11.5 -38.6875,-11.5 z"
       id="path3958"
       style="fill:#d35fbc;stroke:none" />
    <path
       d="m 778.75713,392.99706 c 0,0 -10.72174,-16.25011 -28.13921,-21.67292 -17.41748,-5.42282 -42.49835,13.22591 -24.77243,17.77378 17.72592,4.54786 30.12961,-7.30506 38.72176,-3.67963 8.59214,3.62543 14.18988,7.57877 14.18988,7.57877 z"
       id="path3963"
       style="fill:#9955ff;fill-opacity:1;stroke:none" />
    <path
       d="m 823.47721,392.99706 c 0,0 10.72174,-16.25011 28.13921,-21.67292 17.41748,-5.42282 42.49835,13.22591 24.77243,17.77378 -17.72592,4.54786 -30.12961,-7.30506 -38.72176,-3.67963 -8.59214,3.62543 -14.18988,7.57877 -14.18988,7.57877 z"
       id="path3965"
       style="fill:#9955ff;fill-opacity:1;stroke:none" />
    <path
       d="m 670.94812,664.59216 a 32.574154,32.574154 0 1 1 -65.14831,0 32.574154,32.574154 0 1 1 65.14831,0 z"
       transform="translate(9.9311441,-444.85725)"
       id="path3994"
       style="fill:#6c5353;fill-opacity:1;stroke:none" />
    <path
       d="m 611.75848,673.92743 c 0,0 11.79785,-7.67831 18.2733,-10.32839 4.25099,-1.73972 8.74664,-3.03309 13.30774,-3.57521 7.62895,-0.90675 15.43175,-0.46896 23.04025,0.59587 6.568,0.91921 19.26642,4.96557 19.26642,4.96557 l -2.97934,-33.36864 -73.49047,-12.116 -5.76006,43.29979 z"
       transform="translate(0,-447.63797)"
       id="path4000"
       style="fill:#ccaaff;stroke:none" />
    <path
       d="m 670.94812,664.59216 a 32.574154,32.574154 0 1 1 -65.14831,0 32.574154,32.574154 0 1 1 65.14831,0 z"
       transform="matrix(-1,0,0,1,1605.1785,-444.85725)"
       id="path4002"
       style="fill:#6c5353;fill-opacity:1;stroke:none" />
    <path
       d="m 1003.3512,226.28946 c 0,0 -11.79785,-7.67831 -18.2733,-10.32839 -4.251,-1.73972 -8.74666,-3.03309 -13.30777,-3.57521 -7.62895,-0.90675 -15.43175,-0.46896 -23.04025,0.59587 -6.568,0.91921 -19.26642,4.96557 -19.26642,4.96557 l 2.97934,-33.36864 73.4905,-12.116 5.76,43.29979 z"
       id="path4004"
       style="fill:#ccaaff;stroke:none" />
    <path
       d="m 599.04661,660.6197 c 0,0 17.08157,-29.39619 48.06674,-28.6017 30.98517,0.79449 52.83369,31.38242 52.83369,31.38242"
       transform="translate(0,-447.63797)"
       id="path4008"
       style="fill:none;stroke:#6c5353;stroke-width:3;stroke-linecap:round;stroke-linejoin:miter;stroke-miterlimit:4;stroke-opacity:1;stroke-dasharray:none" />
    <path
       d="m 1013.947,212.98173 c 0,0 -17.0815,-29.39619 -48.0667,-28.6017 -30.98517,0.79449 -52.83369,31.38242 -52.83369,31.38242"
       id="path4010"
       style="fill:none;stroke:#6c5353;stroke-width:3;stroke-linecap:round;stroke-linejoin:miter;stroke-miterlimit:4;stroke-opacity:1;stroke-dasharray:none" />
    <path
       d="m 611.5088,692.14548 c 0,0 46.3477,3.93253 63.7632,0 17.4155,-3.93253 -35.95458,21.34803 -35.95458,21.34803 z"
       transform="translate(0,-447.63797)"
       id="path4012"
       style="fill:#ccaaff;stroke:none" />
    <path
       d="m 1002.765,244.50751 c 0,0 -46.34769,3.93253 -63.76319,0 -17.4155,-3.93253 35.95458,21.34803 35.95458,21.34803 z"
       id="path4014"
       style="fill:#ccaaff;stroke:none" />
    <path
       d="m 570.4375,624.46875 0,92.96875 136.65625,0 0,-92.96875 -136.65625,0 z m 335.28125,0.78125 0,75.5 139.84375,0 0,-75.5 -139.84375,0 z"
       transform="translate(0,-447.63797)"
       id="rect4032"
       style="fill:#ccaaff;fill-opacity:1;stroke:none" />
  </g>
  <rect
     width="1500"
     height="1500"
     x="0"
     y="2.9296871e-08"
     id="rect848"
     style="fill:#000000;fill-opacity:0.50196078;stroke:none;stroke-width:1" />
  <g
     aria-label="H"
     transform="translate(1.046875e-4,11.99992)"
     style="font-style:normal;font-variant:normal;font-weight:900;font-stretch:normal;font-size:1333.33337402px;line-height:125%;font-family:'Jones*';-inkscape-font-specification:'Jones* Heavy';text-align:center;letter-spacing:0px;word-spacing:0px;text-anchor:middle;fill:#ffffff;fill-opacity:1;stroke:none;stroke-width:1px;stroke-linecap:butt;stroke-linejoin:miter;stroke-opacity:1"
     id="flowRoot851">
    <path
       d="M 319.58332,278.66668 V 1212 H 546.24999 V 834.66669 H 952.91667 V 1212 H 1179.5833 V 278.66668 H 952.91667 V 634.66669 H 546.24999 V 278.66668 Z"
       style=""
       id="path15852" />
  </g>
</svg>
