<?xml version="1.0" encoding="UTF-8" standalone="no"?>
<!-- Created with Inkscape (http://www.inkscape.org/) -->

<svg
   xmlns:dc="http://purl.org/dc/elements/1.1/"
   xmlns:cc="http://creativecommons.org/ns#"
   xmlns:rdf="http://www.w3.org/1999/02/22-rdf-syntax-ns#"
   xmlns:svg="http://www.w3.org/2000/svg"
   xmlns="http://www.w3.org/2000/svg"
   xmlns:sodipodi="http://sodipodi.sourceforge.net/DTD/sodipodi-0.dtd"
   xmlns:inkscape="http://www.inkscape.org/namespaces/inkscape"
   version="1.1"
   width="1500"
   height="1500"
   id="svg2"
   sodipodi:docname="I.svg"
   inkscape:version="0.92.4 (unknown)">
  <sodipodi:namedview
     pagecolor="#ffffff"
     bordercolor="#666666"
     borderopacity="1"
     objecttolerance="10"
     gridtolerance="10"
     guidetolerance="10"
     inkscape:pageopacity="0"
     inkscape:pageshadow="2"
     inkscape:window-width="1366"
     inkscape:window-height="716"
     id="namedview21"
     showgrid="false"
     inkscape:zoom="0.22250293"
     inkscape:cx="535.63408"
     inkscape:cy="266.34797"
     inkscape:window-x="0"
     inkscape:window-y="24"
     inkscape:window-maximized="1"
     inkscape:current-layer="layer1" />
  <defs
     id="defs4">
    <clipPath
       id="clipPath3862">
      <rect
         width="744"
         height="1052"
         x="0"
         y="0.36218262"
         id="rect3864"
         style="fill:#2ad4ff;fill-opacity:1;stroke:none" />
    </clipPath>
  </defs>
  <metadata
     id="metadata7">
    <rdf:RDF>
      <cc:Work
         rdf:about="">
        <dc:format>image/svg+xml</dc:format>
        <dc:type
           rdf:resource="http://purl.org/dc/dcmitype/StillImage" />
        <dc:title></dc:title>
      </cc:Work>
    </rdf:RDF>
  </metadata>
  <g
     transform="translate(0,447.63782)"
     id="layer1">
    <rect
       width="1500"
       height="1500"
       x="0"
       y="-447.63782"
       id="rect3935"
       style="fill:#00aa00;fill-opacity:1;stroke:none;stroke-width:2"
       clip-path="none" />
    <path
       d="m 319.6268,912.11162 c 0,0 -8.57308,-126.14652 36.7417,-355.16982 C 401.68326,327.91854 404.1327,41.333237 473.94194,-94.611043 543.75118,-230.55536 628.2571,-273.42068 695.61686,-296.69042 c 67.35982,-23.26974 122.47236,2.44944 122.47236,2.44944 0,0 6.12362,-9.79778 45.31476,-7.34832 39.19114,2.44944 110.22512,28.16862 165.33772,82.05646 55.1125,53.88782 134.7195,151.865717 142.0679,331.90006 7.3483,180.03434 -9.7978,177.5849 22.045,306.18086 31.8428,128.59594 17.1461,206.97826 53.8878,280.46164 36.7417,73.48342 86.9554,90.62956 91.8543,131.0455 4.8989,40.4158 -1.2247,56.3372 -24.4945,73.4834 -23.2697,17.146 -701.7665,148.19138 -701.7665,148.19138 z"
       id="path3943"
       style="fill:#502d16;fill-opacity:1;stroke:none;stroke-width:2.42482877"
       inkscape:connector-curvature="0"
       clip-path="none" />
    <rect
       style="opacity:1;fill:#d45500;fill-opacity:1;stroke:none;stroke-width:4.70315886;stroke-linejoin:miter;stroke-miterlimit:4;stroke-dasharray:none;stroke-opacity:1;paint-order:stroke markers fill"
       id="rect831"
       width="426.29721"
       height="749.62726"
       x="552.14703"
       y="267.03784"
       ry="4.0544105"
       clip-path="none" />
    <path
       style="fill:#cccccc;fill-opacity:1;stroke:none;stroke-width:2.42482853"
       clip-path="none"
       d="M 1008.5156 1176.9746 C 980.94016 1177.2027 879.32617 1352.4004 879.32617 1352.4004 C 879.32617 1352.4004 781.34706 1360.9735 745.83008 1371.9961 C 710.3131 1383.0185 644.17773 1338.9297 644.17773 1338.9297 C 644.17773 1338.9297 504.55939 1177.2652 495.98633 1182.1641 C 487.41329 1187.063 391.88633 1238.5014 333.09961 1265.4453 C 274.31289 1292.3892 182.45803 1359.75 129.79492 1401.3906 C 96.328443 1427.8525 41.159822 1463.6812 0 1492.5938 L 0 1500 L 1500 1500 L 1500 1446.0859 C 1460.1109 1413.3251 1413.5207 1381.7126 1365.541 1348.7266 C 1287.1587 1294.8388 1078.9551 1206.6591 1058.1348 1196.8613 C 1037.3145 1187.0635 1034.8656 1185.8387 1010.3711 1177.2656 C 1009.797 1177.0647 1009.1774 1176.9691 1008.5156 1176.9746 z "
       transform="translate(0,-447.63782)"
       id="path3937" />
    <path
       d="m 558.38524,621.76436 c 0,0 -5.19606,30.31036 -6.06206,51.0946 -0.86602,20.78426 -6.06208,42.43452 10.39212,71.87886 16.4542,29.44436 64.08476,86.601 87.46702,107.3852 23.38228,20.7844 84.003,58.0228 99.59118,66.6828 15.58818,8.6602 77.07492,43.3006 77.07492,43.3006 0,0 -54.55864,-23.3822 -66.68278,-22.5162 -12.12414,0.866 -26.84632,18.1862 -67.54882,34.6404 -40.70246,16.4542 -55.42464,22.5162 -92.66308,32.90838 -37.23844,10.392 -63.21874,9.526 -63.21874,9.526 0,0 -22.51626,-50.22858 -47.63058,-119.50938 -25.11428,-69.2808 -28.57832,-102.18922 -23.38226,-122.10744 5.19604,-19.91824 58.88868,-111.71532 72.74486,-132.49956 13.85616,-20.78426 19.91822,-20.78426 19.91822,-20.78426 z"
       id="path3939"
       style="fill:#e6e6e6;fill-opacity:1;stroke:none;stroke-width:2.42482877"
       inkscape:connector-curvature="0"
       clip-path="none" />
    <path
       d="m 791.342,915.14242 c 0,0 8.6601,-2.5982 35.50642,11.258 26.84632,13.8562 71.01284,39.8366 109.9833,48.4966 38.97046,8.6602 70.14678,12.9902 70.14678,12.9902 0,0 18.1863,-47.6306 25.1144,-99.5912 6.928,-51.9606 19.0522,-93.52912 4.33,-134.2316 -14.7222,-40.7025 -60.62072,-164.54196 -60.62072,-164.54196 0,0 1.73204,27.71234 0,64.95078 -1.73202,37.23844 22.51626,57.15668 -28.57832,119.5094 -51.0946,62.35278 -48.4966,62.35278 -84.86902,94.39518 -36.37244,32.0424 -71.01284,46.7646 -71.01284,46.7646 z"
       id="path3941"
       style="fill:#e6e6e6;fill-opacity:1;stroke:none;stroke-width:2.42482877"
       inkscape:connector-curvature="0"
       clip-path="none" />
    <path
       d="m 783.38554,-202.70986 -0.1516,0.3031 c -0.7631,0.83538 -16.21604,17.55838 -51.67916,36.97864 -36.37244,19.91826 -107.34198,48.5182 -162.76662,100.478837 -55.42468,51.96062 -88.33308,126.43748 -96.99316,181.862163 -8.6601,55.42464 -13.03344,139.42764 -13.03344,139.42764 0,0 -21.65026,-38.11528 -24.2483,-56.30148 -2.59802,-18.18622 -12.93602,-17.36352 -21.59612,-13.03346 -8.6601,4.33004 -4.36252,20.77344 -5.22854,34.62958 -0.866,13.85618 13.03346,98.7793 25.1576,123.8936 12.12414,25.11428 47.57642,58.86704 57.96856,63.19708 10.3921,4.33006 13.03346,-2.57638 13.03346,-2.57638 0,0 -0.86602,58.01186 42.4345,125.56066 43.3005,67.5488 57.1242,64.08476 97.82668,103.05522 40.7025,38.97044 89.83774,63.1971 139.20032,63.1971 49.36258,0 98.80092,-24.22666 139.50342,-63.1971 40.70248,-38.97046 54.52618,-35.50642 97.82666,-103.05522 43.3005,-67.5488 42.4345,-125.56066 42.4345,-125.56066 0,0 2.6414,6.90644 13.0335,2.57638 10.3921,-4.33004 37.9595,-37.47044 50.0836,-62.58472 12.1241,-25.1143 21.6613,-106.36324 20.7953,-120.21942 -0.866,-13.85614 3.4316,-30.29954 -5.2285,-34.62958 -8.6601,-4.33006 -17.1611,-2.09096 -21.5962,13.03346 -5.1694,17.62852 -12.001,31.19464 -12.001,31.19464 0,0 -4.3734,-63.1827 -13.0335,-118.60734 -8.6601,-55.424683 -41.5684,-129.901543 -96.99312,-181.862163 -55.42464,-51.960637 -126.3942,-80.560577 -162.76662,-100.478837 -35.46312,-19.42026 -50.91608,-36.14326 -51.67916,-36.97864 l -0.1516,-0.3031 c 0,0 -0.0746,0.0744 -0.0756,0.0756 -10e-4,-10e-4 -0.0756,-0.0756 -0.0756,-0.0756 z"
       id="path3945"
       style="fill:#ff7325;fill-opacity:1;stroke:none;stroke-width:2.42482877"
       inkscape:connector-curvature="0"
       clip-path="none" />
    <path
       d="m 496.46878,11.327517 c 0,0 38.57878,-3.0618196 75.32048,-35.51698 36.7417,-32.45516 31.8428,-47.7642 72.87104,-71.64632 41.02822,-23.882097 61.23618,-22.044997 102.87678,-58.174337 41.6406,-36.12936 37.35406,-64.91034 37.35406,-64.91034"
       id="path3952"
       style="fill:none;stroke:#502d16;stroke-width:7.27448606;stroke-linecap:butt;stroke-linejoin:miter;stroke-miterlimit:4;stroke-dasharray:none;stroke-opacity:1"
       inkscape:connector-curvature="0"
       clip-path="none" />
    <path
       d="m 551.0995,160.13142 c 1.5492,-1.50434 14.6967,-28.16862 39.80352,-22.65738 25.10684,5.51124 49.6013,15.30904 71.03398,15.30904 21.43264,0 28.10162,-4.1333 41.64058,-3.67416 22.08974,0.74914 40.41586,11.0225 40.41586,11.0225 0,0 5.51128,-18.9832 -2.44944,-26.33156 -17.12526,-16.5222 -58.3689,-21.06638 -69.70418,-22.1936 -22.71586,-2.259 -68.53022,-3.88506 -88.28514,1.98566 -14.45004,4.29424 -30.61808,17.802 -34.90462,31.23046 -5.55538,17.40334 0.2323,17.46202 2.44944,15.30904 z"
       id="path3954"
       style="fill:#502d16;fill-opacity:1;stroke:none;stroke-width:2.42482877"
       inkscape:connector-curvature="0"
       clip-path="none" />
    <path
       d="m 1022.3414,160.13142 c -1.5492,-1.50434 -14.6967,-28.16862 -39.80348,-22.65738 -25.10684,5.51124 -49.6013,15.30904 -71.03398,15.30904 -21.43264,0 -28.10162,-4.1333 -41.64058,-3.67416 -22.08972,0.74914 -40.41586,11.0225 -40.41586,11.0225 0,0 -5.51126,-18.9832 2.44944,-26.33156 17.12526,-16.5222 58.3689,-21.06638 69.70418,-22.1936 22.71586,-2.259 68.53022,-3.88506 88.28514,1.98566 14.45004,4.29424 30.61804,17.802 34.90464,31.23046 5.5554,17.40334 -0.2323,17.46202 -2.4495,15.30904 z"
       id="path3956"
       style="fill:#502d16;fill-opacity:1;stroke:none;stroke-width:2.42482877"
       inkscape:connector-curvature="0"
       clip-path="none" />
    <path
       d="m 766.34466,675.5869 c 0,0 -1.684,-1.07162 -2.60254,0.153 -0.91856,1.22474 -1.684,1.99018 0.45928,3.98036 2.14326,1.99018 2.14326,1.99018 2.14326,1.99018 l 0.76544,1.99018 c 0,0 1.684,-3.21492 2.90874,-2.75562 1.2247,0.45926 4.2865,-0.153 4.2865,-0.153 0,0 -0.153,-1.99016 -2.60252,-2.29636 -2.44946,-0.30618 -5.35816,-2.9087 -5.35816,-2.9087 z"
       id="path3958"
       style="fill:#502d16;fill-opacity:1;stroke:none;stroke-width:2.42482877"
       inkscape:connector-curvature="0"
       clip-path="none" />
    <path
       d="m 778.745,676.35234 c 4.43962,-0.61236 7.50142,-3.82724 7.50142,-3.82724 0,0 -2.14328,-1.07164 -2.29636,-3.21492 -0.153,-2.14326 -1.49028,-4.58026 -1.684,-3.52106 -0.46826,2.56028 -1.84028,2.24674 -2.60244,1.91362 -2.66368,-1.1642 -4.39222,-2.52912 -6.73602,-2.2198 -1.93638,0.25554 -4.59268,1.53088 -4.89888,3.21488 -0.30618,1.684 -2.44944,5.35816 1.22472,6.4298 3.67416,1.07164 2.41372,0.87464 3.67416,1.07164 1.91654,0.29958 3.0366,0.53664 5.8174,0.153 z"
       id="path3960"
       style="fill:#502d16;fill-opacity:1;stroke:none;stroke-width:2.42482877"
       inkscape:connector-curvature="0"
       clip-path="none" />
  </g>
</svg>
