<?xml version="1.0" encoding="UTF-8" standalone="no"?>
<!-- Created with Inkscape (http://www.inkscape.org/) -->

<svg
   xmlns:dc="http://purl.org/dc/elements/1.1/"
   xmlns:cc="http://creativecommons.org/ns#"
   xmlns:rdf="http://www.w3.org/1999/02/22-rdf-syntax-ns#"
   xmlns:svg="http://www.w3.org/2000/svg"
   xmlns="http://www.w3.org/2000/svg"
   xmlns:sodipodi="http://sodipodi.sourceforge.net/DTD/sodipodi-0.dtd"
   xmlns:inkscape="http://www.inkscape.org/namespaces/inkscape"
   version="1.1"
   width="750"
   height="750"
   id="svg2"
   sodipodi:docname="Ih.svg"
   inkscape:version="0.92.4 (unknown)">
  <sodipodi:namedview
     pagecolor="#ffffff"
     bordercolor="#666666"
     borderopacity="1"
     objecttolerance="10"
     gridtolerance="10"
     guidetolerance="10"
     inkscape:pageopacity="0"
     inkscape:pageshadow="2"
     inkscape:window-width="1366"
     inkscape:window-height="716"
     id="namedview21"
     showgrid="false"
     inkscape:zoom="0.22250293"
     inkscape:cx="216.53716"
     inkscape:cy="86.575054"
     inkscape:window-x="0"
     inkscape:window-y="24"
     inkscape:window-maximized="1"
     inkscape:current-layer="layer1" />
  <defs
     id="defs4">
    <clipPath
       id="clipPath3862">
      <rect
         width="744"
         height="1052"
         x="0"
         y="0.36218262"
         id="rect3864"
         style="fill:#2ad4ff;fill-opacity:1;stroke:none" />
    </clipPath>
    <clipPath
       clipPathUnits="userSpaceOnUse"
       id="clipPath838">
      <rect
         style="fill:#00aa00;fill-opacity:1;stroke:none"
         id="rect840"
         y="302.36218"
         x="0"
         height="750"
         width="750" />
    </clipPath>
  </defs>
  <metadata
     id="metadata7">
    <rdf:RDF>
      <cc:Work
         rdf:about="">
        <dc:format>image/svg+xml</dc:format>
        <dc:type
           rdf:resource="http://purl.org/dc/dcmitype/StillImage" />
        <dc:title />
      </cc:Work>
    </rdf:RDF>
  </metadata>
  <g
     transform="translate(0,-302.36218)"
     id="layer1">
    <rect
       width="750"
       height="750"
       x="0"
       y="302.36218"
       id="rect3935"
       style="fill:#00aa00;fill-opacity:1;stroke:none" />
    <path
       d="m 159.8134,982.2369 c 0,0 -4.28654,-63.07326 18.37085,-177.58491 22.65738,-114.51163 23.8821,-257.80428 58.78672,-325.77642 34.90462,-67.97216 77.15758,-89.40482 110.83746,-101.03969 33.67991,-11.63487 61.23618,1.22472 61.23618,1.22472 0,0 3.06181,-4.89889 22.65738,-3.67416 19.59557,1.22472 55.11256,14.08431 82.66884,41.02823 27.55627,26.94391 67.35978,75.93286 71.03396,165.95003 3.67416,90.01717 -4.8989,88.79245 11.0225,153.09043 15.92141,64.29797 8.57307,103.48913 26.94392,140.23082 18.37085,36.74171 43.47768,45.31478 45.92713,65.52275 2.44944,20.2079 -0.61236,28.1686 -12.24724,36.7417 -11.63487,8.573 -350.88325,74.0957 -350.88325,74.0957 z"
       id="path3943"
       style="fill:#502d16;fill-opacity:1;stroke:none;stroke-width:1.21241438"
       inkscape:connector-curvature="0" />
    <rect
       style="opacity:1;fill:#d45500;fill-opacity:1;stroke:none;stroke-width:2.35157943;stroke-linejoin:miter;stroke-miterlimit:4;stroke-dasharray:none;stroke-opacity:1;paint-order:stroke markers fill"
       id="rect831"
       width="213.14861"
       height="374.81363"
       x="276.07352"
       y="659.70001"
       ry="2.0272052" />
    <path
       d="m -45.327787,1119.4059 c 0,0 -3.061808,-17.1461 -1.224723,-22.6574 1.837084,-5.5112 11.022511,-15.9214 21.432659,-28.1686 10.410149,-12.2473 63.685617,-44.7024 90.017175,-65.5227 26.331553,-20.8203 72.258676,-54.50022 101.652036,-67.97218 29.39336,-13.47196 77.15758,-39.19114 81.4441,-41.6406 4.28653,-2.44944 74.09577,78.38228 74.09577,78.38228 0,0 33.06753,22.045 50.82602,16.5338 17.75849,-5.5113 66.74742,-9.7978 66.74742,-9.7978 0,0 53.27547,-91.85426 65.52271,-87.56772 12.24723,4.28653 13.47195,4.8989 23.8821,9.79779 10.41016,4.89889 114.51164,48.98893 153.70278,75.93283 39.19116,26.9439 76.54522,52.0508 100.42732,80.8318 23.88212,28.781 72.25868,94.3037 72.25868,94.3037 L -19.608595,1136.552 Z"
       clip-path="url(#clipPath838)"
       id="path3937"
       style="fill:#cccccc;fill-opacity:1;stroke:none;stroke-width:1.21241426"
       inkscape:connector-curvature="0" />
    <path
       d="m 279.19262,837.06327 c 0,0 -2.59803,15.15518 -3.03103,25.5473 -0.43301,10.39213 -3.03104,21.21726 5.19606,35.93943 8.2271,14.72218 32.04238,43.3005 43.73351,53.6926 11.69114,10.3922 42.0015,29.0114 49.79559,33.3414 7.79409,4.3301 38.53746,21.6503 38.53746,21.6503 0,0 -27.27932,-11.6911 -33.34139,-11.2581 -6.06207,0.433 -13.42316,9.0931 -33.77441,17.3202 -20.35123,8.2271 -27.71232,11.2581 -46.33154,16.4542 -18.61922,5.196 -31.60937,4.763 -31.60937,4.763 0,0 -11.25813,-25.1143 -23.81529,-59.7547 -12.55714,-34.6404 -14.28916,-51.09461 -11.69113,-61.05372 2.59802,-9.95912 29.44434,-55.85766 36.37243,-66.24978 6.92808,-10.39213 9.95911,-10.39213 9.95911,-10.39213 z"
       id="path3939"
       style="fill:#e6e6e6;fill-opacity:1;stroke:none;stroke-width:1.21241438"
       inkscape:connector-curvature="0" />
    <path
       d="m 395.671,983.7523 c 0,0 4.33005,-1.2991 17.75321,5.629 13.42316,6.9281 35.50642,19.9183 54.99165,24.2483 19.48523,4.3301 35.07341,6.4951 35.07341,6.4951 0,0 9.09311,-23.8153 12.55716,-49.7956 3.46404,-25.9803 9.52611,-46.76456 2.16502,-67.1158 -7.36109,-20.35125 -30.31036,-82.27098 -30.31036,-82.27098 0,0 0.86602,13.85617 0,32.47539 -0.86601,18.61922 11.25813,28.57834 -14.28916,59.7547 -25.5473,31.17639 -24.2483,31.17639 -42.43451,47.19759 -18.18622,16.0212 -35.50642,23.3823 -35.50642,23.3823 z"
       id="path3941"
       style="fill:#e6e6e6;fill-opacity:1;stroke:none;stroke-width:1.21241438"
       inkscape:connector-curvature="0" />
    <path
       d="m 391.69277,424.82616 -0.0758,0.15155 c -0.38155,0.41769 -8.10802,8.77919 -25.83958,18.48932 -18.18622,9.95913 -53.67099,24.2591 -81.38331,50.23942 -27.71234,25.98031 -44.16654,63.21874 -48.49658,90.93108 -4.33005,27.71232 -6.51672,69.71382 -6.51672,69.71382 0,0 -10.82513,-19.05764 -12.12415,-28.15074 -1.29901,-9.09311 -6.46801,-8.68176 -10.79806,-6.51673 -4.33005,2.16502 -2.18126,10.38672 -2.61427,17.31479 -0.433,6.92809 6.51673,49.38965 12.5788,61.9468 6.06207,12.55714 23.78821,29.43352 28.98428,31.59854 5.19605,2.16503 6.51673,-1.28819 6.51673,-1.28819 0,0 -0.43301,29.00593 21.21725,62.78033 21.65025,33.7744 28.5621,32.04238 48.91334,51.52761 20.35125,19.48522 44.91887,31.59855 69.60016,31.59855 24.68129,0 49.40046,-12.11333 69.75171,-31.59855 20.35124,-19.48523 27.26309,-17.75321 48.91334,-51.52761 21.65025,-33.7744 21.21725,-62.78033 21.21725,-62.78033 0,0 1.32067,3.45322 6.51673,1.28819 5.19607,-2.16502 18.97974,-18.73522 25.04181,-31.29236 6.06207,-12.55715 10.83066,-53.18162 10.39765,-60.10971 -0.43301,-6.92807 1.71579,-15.14977 -2.61426,-17.31479 -4.33006,-2.16503 -8.58052,-1.04548 -10.79807,6.51673 -2.58472,8.81426 -6.00053,15.59732 -6.00053,15.59732 0,0 -2.18667,-31.59135 -6.51673,-59.30367 -4.33004,-27.71234 -20.78423,-64.95077 -48.49657,-90.93108 -27.71232,-25.98032 -63.1971,-40.28029 -81.38331,-50.23942 -17.73156,-9.71013 -25.45804,-18.07163 -25.83958,-18.48932 l -0.0758,-0.15155 c 0,0 -0.0373,0.0372 -0.0378,0.0378 -6e-4,-6.8e-4 -0.0378,-0.0378 -0.0378,-0.0378 z"
       id="path3945"
       style="fill:#ff7325;fill-opacity:1;stroke:none;stroke-width:1.21241438"
       inkscape:connector-curvature="0" />
    <path
       d="m 248.23439,531.84485 c 0,0 19.28939,-1.53091 37.66024,-17.75849 18.37085,-16.22758 15.9214,-23.8821 36.43552,-35.82316 20.51411,-11.94105 30.61809,-11.0225 51.43839,-29.08717 20.8203,-18.06468 18.67703,-32.45517 18.67703,-32.45517"
       id="path3952"
       style="fill:none;stroke:#502d16;stroke-width:3.63724303;stroke-linecap:butt;stroke-linejoin:miter;stroke-miterlimit:4;stroke-dasharray:none;stroke-opacity:1"
       inkscape:connector-curvature="0" />
    <path
       d="m 275.54975,606.2468 c 0.7746,-0.75217 7.34835,-14.08431 19.90176,-11.32869 12.55342,2.75562 24.80065,7.65452 35.51699,7.65452 10.71632,0 14.05081,-2.06665 20.82029,-1.83708 11.04487,0.37457 20.20793,5.51125 20.20793,5.51125 0,0 2.75564,-9.4916 -1.22472,-13.16578 -8.56263,-8.2611 -29.18445,-10.53319 -34.85209,-11.0968 -11.35793,-1.1295 -34.26511,-1.94253 -44.14257,0.99283 -7.22502,2.14712 -15.30904,8.901 -17.45231,15.61523 -2.77769,8.70167 0.11615,8.73101 1.22472,7.65452 z"
       id="path3954"
       style="fill:#502d16;fill-opacity:1;stroke:none;stroke-width:1.21241438"
       inkscape:connector-curvature="0" />
    <path
       d="m 511.17072,606.2468 c -0.7746,-0.75217 -7.34835,-14.08431 -19.90176,-11.32869 -12.55342,2.75562 -24.80065,7.65452 -35.51699,7.65452 -10.71632,0 -14.05081,-2.06665 -20.82029,-1.83708 -11.04486,0.37457 -20.20793,5.51125 -20.20793,5.51125 0,0 -2.75563,-9.4916 1.22472,-13.16578 8.56263,-8.2611 29.18445,-10.53319 34.85209,-11.0968 11.35793,-1.1295 34.26511,-1.94253 44.14257,0.99283 7.22502,2.14712 15.30904,8.901 17.45231,15.61523 2.77769,8.70167 -0.11615,8.73101 -1.22472,7.65452 z"
       id="path3956"
       style="fill:#502d16;fill-opacity:1;stroke:none;stroke-width:1.21241438"
       inkscape:connector-curvature="0" />
    <path
       d="m 383.17233,863.97454 c 0,0 -0.842,-0.53581 -1.30127,0.0765 -0.45928,0.61237 -0.842,0.99509 0.22964,1.99018 1.07163,0.99509 1.07163,0.99509 1.07163,0.99509 l 0.38272,0.99509 c 0,0 0.842,-1.60746 1.45437,-1.37781 0.61235,0.22963 2.14325,-0.0765 2.14325,-0.0765 0,0 -0.0765,-0.99508 -1.30126,-1.14818 -1.22473,-0.15309 -2.67908,-1.45435 -2.67908,-1.45435 z"
       id="path3958"
       style="fill:#502d16;fill-opacity:1;stroke:none;stroke-width:1.21241438"
       inkscape:connector-curvature="0" />
    <path
       d="m 389.3725,864.35726 c 2.21981,-0.30618 3.75071,-1.91362 3.75071,-1.91362 0,0 -1.07164,-0.53582 -1.14818,-1.60746 -0.0765,-1.07163 -0.74514,-2.29013 -0.842,-1.76053 -0.23413,1.28014 -0.92014,1.12337 -1.30122,0.95681 -1.33184,-0.5821 -2.19611,-1.26456 -3.36801,-1.1099 -0.96819,0.12777 -2.29634,0.76544 -2.44944,1.60744 -0.15309,0.842 -1.22472,2.67908 0.61236,3.2149 1.83708,0.53582 1.20686,0.43732 1.83708,0.53582 0.95827,0.14979 1.5183,0.26832 2.9087,0.0765 z"
       id="path3960"
       style="fill:#502d16;fill-opacity:1;stroke:none;stroke-width:1.21241438"
       inkscape:connector-curvature="0" />
    <rect
       width="750"
       height="750"
       x="0"
       y="302.36218"
       id="rect848"
       style="fill:#000000;fill-opacity:0.50196078;stroke:none;stroke-width:0.5" />
    <g
       aria-label="I"
       transform="matrix(0.5,0,0,0.5,-4.765625e-6,308.36217)"
       style="font-style:normal;font-variant:normal;font-weight:900;font-stretch:normal;font-size:1333.33337402px;line-height:125%;font-family:'Jones*';-inkscape-font-specification:'Jones* Heavy';text-align:center;letter-spacing:0px;word-spacing:0px;text-anchor:middle;fill:#ffffff;fill-opacity:1;stroke:none;stroke-width:1px;stroke-linecap:butt;stroke-linejoin:miter;stroke-opacity:1"
       id="flowRoot851">
      <path
         d="M 636.14583,278.66668 V 1212 H 862.8125 V 278.66668 Z"
         style=""
         id="path15835" />
    </g>
  </g>
</svg>
