<?xml version="1.0" encoding="UTF-8" standalone="no"?>
<!-- Created with Inkscape (http://www.inkscape.org/) -->

<svg
   xmlns:dc="http://purl.org/dc/elements/1.1/"
   xmlns:cc="http://creativecommons.org/ns#"
   xmlns:rdf="http://www.w3.org/1999/02/22-rdf-syntax-ns#"
   xmlns:svg="http://www.w3.org/2000/svg"
   xmlns="http://www.w3.org/2000/svg"
   xmlns:sodipodi="http://sodipodi.sourceforge.net/DTD/sodipodi-0.dtd"
   xmlns:inkscape="http://www.inkscape.org/namespaces/inkscape"
   version="1.1"
   width="1500"
   height="1500"
   id="svg2"
   sodipodi:docname="J.svg"
   inkscape:version="0.92.4 (unknown)">
  <sodipodi:namedview
     pagecolor="#ffffff"
     bordercolor="#666666"
     borderopacity="1"
     objecttolerance="10"
     gridtolerance="10"
     guidetolerance="10"
     inkscape:pageopacity="0"
     inkscape:pageshadow="2"
     inkscape:window-width="1366"
     inkscape:window-height="716"
     id="namedview56"
     showgrid="false"
     inkscape:zoom="0.22250293"
     inkscape:cx="525.25888"
     inkscape:cy="244.63449"
     inkscape:window-x="0"
     inkscape:window-y="24"
     inkscape:window-maximized="1"
     inkscape:current-layer="svg2" />
  <defs
     id="defs4">
    <clipPath
       id="clipPath3862">
      <rect
         width="744"
         height="1052"
         x="0"
         y="0.36218262"
         id="rect3864"
         style="fill:#2ad4ff;fill-opacity:1;stroke:none" />
    </clipPath>
    <clipPath
       id="clipPath3075">
      <rect
         width="880.29663"
         height="769.06781"
         x="320.97458"
         y="572.48926"
         id="rect3077"
         style="opacity:0.71836733;fill:#c8ab37;fill-opacity:1;stroke:none" />
    </clipPath>
    <clipPath
       id="clipPath3949">
      <rect
         width="750"
         height="750"
         x="0"
         y="2.6171874e-06"
         id="rect3951"
         style="fill:#2ad4ff;fill-opacity:1;stroke:none" />
    </clipPath>
    <clipPath
       id="clipPath3964">
      <path
         d="m 542.68968,295.5 -47.75218,173.03125 122.46875,0 0,-173.03125 z m -316.28343,5.625 0,156.75 84.8125,0 -35.39279,-161.80611 z"
         id="path3966"
         style="fill:#ff5f00;fill-opacity:1;stroke:#aa4400;stroke-width:3;stroke-linecap:square;stroke-miterlimit:4;stroke-opacity:1;stroke-dasharray:none" />
    </clipPath>
    <clipPath
       id="clipPath3036">
      <rect
         width="629.2052"
         height="620.21655"
         x="791.00079"
         y="-176.83527"
         id="rect3038"
         style="opacity:0.55510206;fill:#ffe680;fill-opacity:1;stroke:none" />
    </clipPath>
    <clipPath
       id="clipPath3042">
      <rect
         width="1276.3877"
         height="606.73358"
         x="480.89255"
         y="304.05728"
         id="rect3044"
         style="opacity:0.55510206;fill:#ffe680;fill-opacity:1;stroke:none" />
    </clipPath>
    <clipPath
       id="clipPath3986">
      <rect
         width="391.00607"
         height="175.27859"
         x="-1478.6322"
         y="283.83286"
         id="rect3988"
         style="opacity:0.53061224;fill:#9955ff;fill-opacity:1;stroke:none" />
    </clipPath>
    <clipPath
       id="clipPath4018">
      <rect
         width="1500"
         height="1500"
         x="0"
         y="2.9296871e-08"
         id="rect4020"
         style="fill:#2ad4ff;fill-opacity:1;stroke:none" />
    </clipPath>
    <clipPath
       id="clipPath4024">
      <rect
         width="1500"
         height="1500"
         x="0"
         y="2.9296871e-08"
         id="rect4026"
         style="fill:#2ad4ff;fill-opacity:1;stroke:none" />
    </clipPath>
    <clipPath
       clipPathUnits="userSpaceOnUse"
       id="clipPath911">
      <rect
         style="opacity:1;fill:#aa0000;fill-opacity:1;stroke:#000000;stroke-width:3.02362204;stroke-linejoin:miter;stroke-miterlimit:4;stroke-dasharray:none;stroke-opacity:1;paint-order:stroke markers fill"
         id="rect913"
         width="692.79663"
         height="641.94916"
         x="966.10168"
         y="699.15253"
         ry="1.67204" />
    </clipPath>
    <clipPath
       clipPathUnits="userSpaceOnUse"
       id="clipPath982">
      <rect
         width="1105.9957"
         height="1105.9957"
         x="193.8522"
         y="193.01425"
         id="rect984"
         style="fill:#aa0000;fill-opacity:1;stroke:none;stroke-width:0.7373305" />
    </clipPath>
    <clipPath
       clipPathUnits="userSpaceOnUse"
       id="clipPath850">
      <rect
         style="opacity:1;fill:#ff4100;fill-opacity:1;stroke:none;stroke-width:3.02362204;stroke-linejoin:miter;stroke-miterlimit:4;stroke-dasharray:none;stroke-opacity:1;paint-order:stroke markers fill"
         id="rect852"
         width="1156.7797"
         height="1245.7627"
         x="-775.42371"
         y="241.52542"
         ry="1.67204" />
    </clipPath>
    <clipPath
       clipPathUnits="userSpaceOnUse"
       id="clipPath901">
      <rect
         width="1408.9392"
         height="1408.9392"
         x="-2.8938811"
         y="105.14434"
         id="rect903"
         style="fill:#ff6600;fill-opacity:1;stroke:none;stroke-width:0.93929285" />
    </clipPath>
  </defs>
  <metadata
     id="metadata7">
    <rdf:RDF>
      <cc:Work
         rdf:about="">
        <dc:format>image/svg+xml</dc:format>
        <dc:type
           rdf:resource="http://purl.org/dc/dcmitype/StillImage" />
        <dc:title />
      </cc:Work>
    </rdf:RDF>
  </metadata>
  <rect
     style="fill:#ff6600;fill-opacity:1;stroke:none"
     id="rect3082"
     y="2.9296871e-08"
     x="0"
     height="1500"
     width="1500"
     clip-path="none" />
  <path
     style="fill:#214478;fill-rule:evenodd;stroke:none;stroke-width:1.06463075px;stroke-linecap:butt;stroke-linejoin:miter;stroke-opacity:1"
     clip-path="none"
     d="M 496.95898 948.68359 C 491.50067 948.63734 486.90094 949.16679 483.51758 950.43555 C 456.45069 960.58568 382.01758 1068.8535 382.01758 1068.8535 C 382.01758 1068.8535 388.7844 1048.5526 321.11719 1085.7695 C 261.39347 1118.6176 50.945605 1220.3967 0 1244.9824 L 0 1500 L 1500 1500 L 1500 1433.0566 C 1468.0741 1384.0232 1433.837 1342.6627 1400.4082 1322.6055 C 1281.9906 1251.555 1204.1747 1227.8698 1126.3574 1163.5859 C 1048.5401 1099.3021 916.58789 1126.3691 916.58789 1126.3691 L 832.00391 1021.4863 L 615.46875 977.50195 C 615.46875 977.50195 535.16716 949.00739 496.95898 948.68359 z "
     id="path856" />
  <path
     style="fill:#ff8c3f;fill-opacity:1;fill-rule:evenodd;stroke:none;stroke-width:1.06463075px;stroke-linecap:butt;stroke-linejoin:miter;stroke-opacity:1"
     clip-path="none"
     d="M 510.58398 845.55078 C 510.58398 845.55078 520.73516 919.98508 503.81836 963.96875 C 486.90156 1007.9525 453.06757 1024.8684 469.98438 1065.4688 C 486.90118 1106.0691 642.53522 1244.7875 666.21875 1278.6211 C 689.90227 1312.4547 706.82031 1380.1211 706.82031 1380.1211 C 706.82031 1380.1211 703.43672 1427.4897 720.35352 1491.7734 C 721.07061 1494.4984 721.85909 1497.245 722.67969 1500 L 815.77734 1500 C 819.62405 1490.9687 823.88239 1482.4374 828.62109 1474.8555 C 862.45469 1420.7217 875.98828 1342.9043 875.98828 1342.9043 C 875.98828 1342.9043 903.05446 1217.7198 916.58789 1126.3691 C 930.12133 1035.0183 879.37109 919.98438 879.37109 919.98438 L 510.58398 845.55078 z "
     id="path858" />
  <path
     clip-path="none"
     style="fill:#6f6f91;fill-rule:evenodd;stroke:none;stroke-width:1.06463075px;stroke-linecap:butt;stroke-linejoin:miter;stroke-opacity:1"
     d="m 497.05151,767.73379 c 0,0 -50.7504,-213.15171 -47.36703,-321.41923 3.38335,-108.26753 67.6672,-196.2349 67.6672,-196.2349 L 493.66815,229.7795 c 0,0 135.19984,-58.70958 219.91842,-67.66721 95.85348,-10.13498 295.59253,112.12523 263.90211,169.16802 0,0 13.53343,-27.06689 30.45022,3.38335 16.9168,30.45025 47.3671,71.05057 40.6003,125.18434 -6.7667,54.13376 -91.35069,186.08482 -91.35069,186.08482 z"
     id="path860"
     inkscape:connector-curvature="0"
     sodipodi:nodetypes="csccscsscc" />
  <path
     clip-path="none"
     style="fill:#ff9955;fill-rule:evenodd;stroke:none;stroke-width:1.06463075px;stroke-linecap:butt;stroke-linejoin:miter;stroke-opacity:1"
     d="m 510.58496,845.55107 c 0,0 -5.07504,65.97553 28.75856,118.41759 33.8336,52.44214 137.02608,143.79284 214.84338,148.86784 77.81729,5.0751 119.86884,-59.2088 160.46917,-103.1924 40.60032,-43.98375 71.34081,-79.50902 81.49088,-187.77656 10.15005,-108.26752 15.17535,-179.31809 13.48365,-236.83521 -1.6917,-57.51713 6.7667,-164.09298 -28.75857,-199.61826 C 945.34675,349.88878 874.29618,329.58863 830.3125,319.43855 l -65.97553,-15.22513 c 0,0 30.45025,50.75041 -10.15007,62.59217 -40.60033,11.84175 -93.04241,13.53344 -138.71777,11.84175 -45.67537,-1.69167 -57.51713,-23.68351 -77.8173,10.15009 -20.30015,33.8336 -8.45839,118.41761 -8.45839,118.41761 0,0 -28.75856,16.9168 -28.75856,52.44208 V 689.9165 c 0,0 -35.52529,-62.59217 -55.82545,-60.90049 -20.30016,1.69168 -45.67537,45.67537 -23.68353,103.19249 21.99185,57.51713 38.90865,130.25936 64.28385,121.80097 z"
     id="path862"
     inkscape:connector-curvature="0"
     sodipodi:nodetypes="csccsssscssscscsssc" />
  <path
     clip-path="none"
     style="fill:#ffccaa;fill-rule:evenodd;stroke:none;stroke-width:1.06463075px;stroke-linecap:butt;stroke-linejoin:miter;stroke-opacity:1"
     d="m 664.52785,870.92627 253.75202,5.07504 -70.20472,43.98368 -126.87602,-1.69168 z"
     id="path864"
     inkscape:connector-curvature="0"
     sodipodi:nodetypes="ccccc" />
  <path
     clip-path="none"
     style="fill:#d45500;fill-rule:evenodd;stroke:none;stroke-width:1.06463075px;stroke-linecap:butt;stroke-linejoin:miter;stroke-opacity:1"
     d="m 664.52785,870.92627 c 0,0 52.1963,39.77931 128.43695,39.17899 75.9586,-0.5981 125.31507,-34.10395 125.31507,-34.10395 0,0 -49.74934,71.94689 -125.10984,69.55456 -98.68638,-2.39244 -128.64218,-74.6296 -128.64218,-74.6296 z"
     id="path866"
     inkscape:connector-curvature="0"
     sodipodi:nodetypes="csccc" />
  <path
     clip-path="none"
     style="fill:#ff6600;fill-rule:evenodd;stroke:none;stroke-width:0.88577336px;stroke-linecap:butt;stroke-linejoin:miter;stroke-opacity:1"
     d="m 729.82419,745.38714 c 0,0 -9.95237,25.87618 6.96667,30.35475 16.91904,4.47858 28.36428,-7.46427 38.81428,-3.48333 10.44999,3.98095 16.68461,22.05392 -3.98096,15.42619 -24.86709,-7.97522 -31.12159,2.46387 -40.80475,-5.97143 -10.90708,-9.50148 -8.95713,-17.41666 -6.96667,-25.87618 1.99048,-8.45952 5.97143,-10.45 5.97143,-10.45 z"
     id="path868"
     inkscape:connector-curvature="0"
     sodipodi:nodetypes="csssssc" />
  <path
     clip-path="none"
     style="fill:#ff6600;fill-rule:evenodd;stroke:none;stroke-width:0.88577336px;stroke-linecap:butt;stroke-linejoin:miter;stroke-opacity:1"
     d="m 831.83607,775.24428 c 0,0 8.95714,-4.97619 17.91429,-4.47858 8.95713,0.49762 8.95713,12.44048 -0.99524,13.43572 -9.95238,0.99524 -20.40238,0.99524 -20.40238,-2.4881 0,-3.48333 3.48333,-6.46904 3.48333,-6.46904 z"
     id="path872"
     inkscape:connector-curvature="0" />
  <path
     clip-path="none"
     style="fill:#ff6600;fill-rule:evenodd;stroke:none;stroke-width:1.06463075px;stroke-linecap:butt;stroke-linejoin:miter;stroke-opacity:1"
     d="m 664.52785,870.92627 c 0,0 104.03834,14.37928 133.64274,14.37928 29.60439,0 92.19656,-11.84176 100.65496,-9.30424 8.4584,2.53752 19.45432,0 19.45432,0 0,0 -60.90049,-6.76672 -107.42169,-6.76672 -46.52121,0 -83.73816,-4.2292 -107.42169,-1.69168 -23.68352,2.53752 -38.90864,3.38336 -38.90864,3.38336 z"
     id="path874"
     inkscape:connector-curvature="0"
     sodipodi:nodetypes="csccssc" />
  <path
     clip-path="none"
     style="fill:#ff7f2a;fill-rule:evenodd;stroke:none;stroke-width:1.06463075px;stroke-linecap:butt;stroke-linejoin:miter;stroke-opacity:1"
     d="m 599.38587,579.4839 c 0,0 29.02929,-3.04796 55.18057,3.31595 26.06862,6.34381 98.42831,14.66436 47.23951,-1.61183 -49.70604,-15.80473 -64.14173,-26.16608 -82.08471,-18.98889 -17.94297,7.17719 -20.33537,17.28477 -20.33537,17.28477 z"
     id="path876"
     inkscape:connector-curvature="0"
     sodipodi:nodetypes="csssc" />
  <path
     clip-path="none"
     style="fill:#ff7f2a;fill-rule:evenodd;stroke:none;stroke-width:1.06463075px;stroke-linecap:butt;stroke-linejoin:miter;stroke-opacity:1"
     d="m 864.34384,597.42688 c 0,0 15.55058,-8.3734 47.84794,-3.58861 32.29735,4.78481 68.18331,10.76579 55.02513,1.19621 -13.15819,-9.56959 -37.08216,-31.10116 -63.39853,-26.31637 -26.31636,4.78479 -39.47454,28.70877 -39.47454,28.70877 z"
     id="path878"
     inkscape:connector-curvature="0" />
</svg>
