<?xml version="1.0" encoding="UTF-8" standalone="no"?>
<!-- Created with Inkscape (http://www.inkscape.org/) -->

<svg
   xmlns:dc="http://purl.org/dc/elements/1.1/"
   xmlns:cc="http://creativecommons.org/ns#"
   xmlns:rdf="http://www.w3.org/1999/02/22-rdf-syntax-ns#"
   xmlns:svg="http://www.w3.org/2000/svg"
   xmlns="http://www.w3.org/2000/svg"
   xmlns:sodipodi="http://sodipodi.sourceforge.net/DTD/sodipodi-0.dtd"
   xmlns:inkscape="http://www.inkscape.org/namespaces/inkscape"
   version="1.1"
   width="1500"
   height="1500"
   id="svg2"
   sodipodi:docname="Jh.svg"
   inkscape:version="0.92.4 (unknown)">
  <sodipodi:namedview
     pagecolor="#ffffff"
     bordercolor="#666666"
     borderopacity="1"
     objecttolerance="10"
     gridtolerance="10"
     guidetolerance="10"
     inkscape:pageopacity="0"
     inkscape:pageshadow="2"
     inkscape:window-width="1366"
     inkscape:window-height="716"
     id="namedview56"
     showgrid="false"
     inkscape:zoom="0.31466667"
     inkscape:cx="677.51852"
     inkscape:cy="743.13976"
     inkscape:window-x="0"
     inkscape:window-y="24"
     inkscape:window-maximized="1"
     inkscape:current-layer="g895" />
  <defs
     id="defs4">
    <clipPath
       id="clipPath3862">
      <rect
         width="744"
         height="1052"
         x="0"
         y="0.36218262"
         id="rect3864"
         style="fill:#2ad4ff;fill-opacity:1;stroke:none" />
    </clipPath>
    <clipPath
       id="clipPath3075">
      <rect
         width="880.29663"
         height="769.06781"
         x="320.97458"
         y="572.48926"
         id="rect3077"
         style="opacity:0.71836733;fill:#c8ab37;fill-opacity:1;stroke:none" />
    </clipPath>
    <clipPath
       id="clipPath3949">
      <rect
         width="750"
         height="750"
         x="0"
         y="2.6171874e-06"
         id="rect3951"
         style="fill:#2ad4ff;fill-opacity:1;stroke:none" />
    </clipPath>
    <clipPath
       id="clipPath3964">
      <path
         d="m 542.68968,295.5 -47.75218,173.03125 122.46875,0 0,-173.03125 z m -316.28343,5.625 0,156.75 84.8125,0 -35.39279,-161.80611 z"
         id="path3966"
         style="fill:#ff5f00;fill-opacity:1;stroke:#aa4400;stroke-width:3;stroke-linecap:square;stroke-miterlimit:4;stroke-opacity:1;stroke-dasharray:none" />
    </clipPath>
    <clipPath
       id="clipPath3036">
      <rect
         width="629.2052"
         height="620.21655"
         x="791.00079"
         y="-176.83527"
         id="rect3038"
         style="opacity:0.55510206;fill:#ffe680;fill-opacity:1;stroke:none" />
    </clipPath>
    <clipPath
       id="clipPath3042">
      <rect
         width="1276.3877"
         height="606.73358"
         x="480.89255"
         y="304.05728"
         id="rect3044"
         style="opacity:0.55510206;fill:#ffe680;fill-opacity:1;stroke:none" />
    </clipPath>
    <clipPath
       id="clipPath3986">
      <rect
         width="391.00607"
         height="175.27859"
         x="-1478.6322"
         y="283.83286"
         id="rect3988"
         style="opacity:0.53061224;fill:#9955ff;fill-opacity:1;stroke:none" />
    </clipPath>
    <clipPath
       id="clipPath4018">
      <rect
         width="1500"
         height="1500"
         x="0"
         y="2.9296871e-08"
         id="rect4020"
         style="fill:#2ad4ff;fill-opacity:1;stroke:none" />
    </clipPath>
    <clipPath
       id="clipPath4024">
      <rect
         width="1500"
         height="1500"
         x="0"
         y="2.9296871e-08"
         id="rect4026"
         style="fill:#2ad4ff;fill-opacity:1;stroke:none" />
    </clipPath>
    <clipPath
       clipPathUnits="userSpaceOnUse"
       id="clipPath911">
      <rect
         style="opacity:1;fill:#aa0000;fill-opacity:1;stroke:#000000;stroke-width:3.02362204;stroke-linejoin:miter;stroke-miterlimit:4;stroke-dasharray:none;stroke-opacity:1;paint-order:stroke markers fill"
         id="rect913"
         width="692.79663"
         height="641.94916"
         x="966.10168"
         y="699.15253"
         ry="1.67204" />
    </clipPath>
    <clipPath
       clipPathUnits="userSpaceOnUse"
       id="clipPath982">
      <rect
         width="1105.9957"
         height="1105.9957"
         x="193.8522"
         y="193.01425"
         id="rect984"
         style="fill:#aa0000;fill-opacity:1;stroke:none;stroke-width:0.7373305" />
    </clipPath>
    <clipPath
       clipPathUnits="userSpaceOnUse"
       id="clipPath850">
      <rect
         style="opacity:1;fill:#ff4100;fill-opacity:1;stroke:none;stroke-width:3.02362204;stroke-linejoin:miter;stroke-miterlimit:4;stroke-dasharray:none;stroke-opacity:1;paint-order:stroke markers fill"
         id="rect852"
         width="1156.7797"
         height="1245.7627"
         x="-775.42371"
         y="241.52542"
         ry="1.67204" />
    </clipPath>
    <clipPath
       clipPathUnits="userSpaceOnUse"
       id="clipPath901">
      <rect
         width="1408.9392"
         height="1408.9392"
         x="-2.8938811"
         y="105.14434"
         id="rect903"
         style="fill:#ff6600;fill-opacity:1;stroke:none;stroke-width:0.93929285" />
    </clipPath>
  </defs>
  <metadata
     id="metadata7">
    <rdf:RDF>
      <cc:Work
         rdf:about="">
        <dc:format>image/svg+xml</dc:format>
        <dc:type
           rdf:resource="http://purl.org/dc/dcmitype/StillImage" />
        <dc:title />
      </cc:Work>
    </rdf:RDF>
  </metadata>
  <rect
     style="fill:#ff6600;fill-opacity:1;stroke:none"
     id="rect3082"
     y="2.9296871e-08"
     x="0"
     height="1500"
     width="1500" />
  <g
     id="g895"
     transform="matrix(1.0646307,0,0,1.0646307,3.0809146,-111.93989)"
     clip-path="url(#clipPath901)">
    <path
       inkscape:connector-curvature="0"
       id="path856"
       d="m 575.21186,1023.3051 c 0,0 -98.51694,-34.95764 -123.94067,-25.42374 -25.42373,9.53394 -95.33899,111.22884 -95.33899,111.22884 0,0 6.35594,-19.0678 -57.20339,15.8898 -63.55932,34.9576 -320.974573,158.8983 -320.974573,158.8983 l -25.423729,365.4661 1592.160992,82.6271 c 0,0 -120.7627,-317.7966 -231.9915,-384.5339 -111.2288,-66.7373 -184.322,-88.983 -257.4153,-149.3644 -73.09317,-60.3813 -197.03385,-34.9576 -197.03385,-34.9576 l -79.44915,-98.517 z"
       style="fill:#214478;fill-rule:evenodd;stroke:none;stroke-width:1px;stroke-linecap:butt;stroke-linejoin:miter;stroke-opacity:1" />
    <path
       inkscape:connector-curvature="0"
       id="path858"
       d="m 476.69492,899.36441 c 0,0 9.53389,69.91525 -6.35594,111.22879 -15.88983,41.3136 -47.66949,57.2034 -31.77966,95.339 15.88983,38.1356 162.07627,168.4322 184.32204,200.2119 22.24576,31.7796 38.13559,95.339 38.13559,95.339 0,0 -3.17797,44.4915 12.71186,104.8728 15.88983,60.3814 60.38136,130.2966 60.38136,130.2966 0,0 9.5339,-95.3389 41.31356,-146.1864 31.77966,-50.8475 44.49152,-123.9407 44.49152,-123.9407 0,0 25.42374,-117.5847 38.1356,-203.3898 12.71186,-85.8051 -34.95763,-193.85594 -34.95763,-193.85594 z"
       style="fill:#ff8c3f;fill-rule:evenodd;stroke:none;stroke-width:1px;stroke-linecap:butt;stroke-linejoin:miter;stroke-opacity:1;fill-opacity:1" />
    <path
       sodipodi:nodetypes="csccscsscc"
       inkscape:connector-curvature="0"
       id="path860"
       d="m 463.98305,826.27119 c 0,0 -47.66949,-200.21187 -44.49152,-301.90678 3.17796,-101.69492 63.55932,-184.32204 63.55932,-184.32204 l -22.24577,-19.06779 c 0,0 126.99224,-55.14549 206.5678,-63.55933 90.03449,-9.51971 277.64796,105.31843 247.88136,158.89831 0,0 12.71186,-25.42373 28.60169,3.17796 15.88983,28.6017 44.49153,66.73729 38.1356,117.58475 -6.35594,50.84746 -85.80509,174.78814 -85.80509,174.78814 z"
       style="fill:#6f6f91;fill-rule:evenodd;stroke:none;stroke-width:1px;stroke-linecap:butt;stroke-linejoin:miter;stroke-opacity:1" />
    <path
       sodipodi:nodetypes="csccsssscssscscsssc"
       inkscape:connector-curvature="0"
       id="path862"
       d="m 476.69492,899.36441 c 0,0 -4.76695,61.97034 27.01271,111.22879 31.77966,49.2585 128.70762,135.0636 201.80085,139.8305 73.09322,4.767 112.59194,-55.6144 150.72754,-96.9279 38.13559,-41.3136 67.00991,-74.68224 76.5438,-176.37716 9.5339,-101.69491 14.25408,-168.4322 12.6651,-222.45762 -1.58899,-54.02543 6.35593,-154.13136 -27.01272,-187.5 -33.36864,-33.36865 -100.10593,-52.43644 -141.41949,-61.97034 l -61.97034,-14.30085 c 0,0 28.6017,47.66949 -9.53389,58.79237 -38.1356,11.12288 -87.39407,12.71187 -130.29661,11.12288 -42.90255,-1.58898 -54.02543,-22.24576 -73.09323,9.5339 -19.06779,31.77966 -7.94491,111.22882 -7.94491,111.22882 0,0 -27.01271,15.88983 -27.01271,49.25847 v 122.3517 c 0,0 -33.36865,-58.79238 -52.43644,-57.20339 -19.0678,1.58898 -42.90255,42.90254 -22.24577,96.92796 20.65678,54.02543 36.54661,122.35169 60.38136,114.40678 z"
       style="fill:#ff9955;fill-rule:evenodd;stroke:none;stroke-width:1px;stroke-linecap:butt;stroke-linejoin:miter;stroke-opacity:1" />
    <path
       sodipodi:nodetypes="ccccc"
       inkscape:connector-curvature="0"
       id="path864"
       d="m 621.29237,923.19915 238.34746,4.76695 -65.94279,41.31356 -119.17374,-1.58899 z"
       style="fill:#ffccaa;fill-rule:evenodd;stroke:none;stroke-width:1px;stroke-linecap:butt;stroke-linejoin:miter;stroke-opacity:1" />
    <path
       sodipodi:nodetypes="csccc"
       inkscape:connector-curvature="0"
       id="path866"
       d="m 621.29237,923.19915 c 0,0 49.02762,37.36442 120.63991,36.80055 71.34737,-0.56179 117.70755,-32.0336 117.70755,-32.0336 0,0 -46.7292,67.5792 -117.51478,65.3321 -92.69541,-2.2472 -120.83268,-70.09905 -120.83268,-70.09905 z"
       style="fill:#d45500;fill-rule:evenodd;stroke:none;stroke-width:1px;stroke-linecap:butt;stroke-linejoin:miter;stroke-opacity:1" />
    <path
       sodipodi:nodetypes="csssssc"
       inkscape:connector-curvature="0"
       id="path868"
       d="m 682.62476,805.28115 c 0,0 -9.34819,24.30531 6.54374,28.512 15.89194,4.20669 26.64237,-7.01114 36.45798,-3.27187 9.8156,3.73928 15.67173,20.71509 -3.73929,14.48971 -23.35748,-7.49107 -29.23229,2.31429 -38.32761,-5.60892 -10.24494,-8.92468 -8.41337,-16.35935 -6.54374,-24.30531 1.86964,-7.94597 5.60892,-9.81561 5.60892,-9.81561 z"
       style="fill:#ff6600;fill-rule:evenodd;stroke:none;stroke-width:0.83200055px;stroke-linecap:butt;stroke-linejoin:miter;stroke-opacity:1" />
    <path
       inkscape:connector-curvature="0"
       id="path872"
       d="m 778.44379,833.32574 c 0,0 8.41338,-4.6741 16.82676,-4.20669 8.41337,0.46741 8.41337,11.68525 -0.93482,12.62007 -9.3482,0.93482 -19.16381,0.93482 -19.16381,-2.33705 0,-3.27187 3.27187,-6.07633 3.27187,-6.07633 z"
       style="fill:#ff6600;fill-rule:evenodd;stroke:none;stroke-width:0.83200055px;stroke-linecap:butt;stroke-linejoin:miter;stroke-opacity:1" />
    <path
       sodipodi:nodetypes="csccssc"
       inkscape:connector-curvature="0"
       id="path874"
       d="m 621.29237,923.19915 c 0,0 97.72247,13.50636 125.52967,13.50636 27.8072,0 86.59957,-11.12288 94.54449,-8.73941 7.94491,2.38348 18.2733,0 18.2733,0 0,0 -57.20339,-6.35593 -100.90042,-6.35593 -43.69704,0 -78.65466,-3.97246 -100.90043,-1.58898 -22.24576,2.38347 -36.54661,3.17796 -36.54661,3.17796 z"
       style="fill:#ff6600;fill-rule:evenodd;stroke:none;stroke-width:1px;stroke-linecap:butt;stroke-linejoin:miter;stroke-opacity:1" />
    <path
       sodipodi:nodetypes="csssc"
       inkscape:connector-curvature="0"
       id="path876"
       d="m 560.10498,649.44942 c 0,0 27.267,-2.86293 51.83071,3.11465 24.48607,5.95869 92.45301,13.77413 44.37174,-1.51398 -46.68853,-14.84527 -60.24787,-24.57761 -77.10158,-17.83613 -16.85371,6.74148 -19.10087,16.23546 -19.10087,16.23546 z"
       style="fill:#ff7f2a;fill-rule:evenodd;stroke:none;stroke-width:1px;stroke-linecap:butt;stroke-linejoin:miter;stroke-opacity:1" />
    <path
       inkscape:connector-curvature="0"
       id="path878"
       d="m 808.9781,666.30313 c 0,0 14.60655,-7.86507 44.94323,-3.37075 30.33667,4.49433 64.0441,10.11223 51.68471,1.12359 -12.35939,-8.98865 -34.831,-29.2131 -59.54978,-24.71878 -24.71877,4.49432 -37.07816,26.96594 -37.07816,26.96594 z"
       style="fill:#ff7f2a;fill-rule:evenodd;stroke:none;stroke-width:1px;stroke-linecap:butt;stroke-linejoin:miter;stroke-opacity:1" />
    <rect
       width="1408.9392"
       height="1408.9392"
       x="-2.8938811"
       y="105.14439"
       id="rect848"
       style="fill:#000000;fill-opacity:0.50196078;stroke:none;stroke-width:0.93929285" />
    <g
       aria-label="J"
       transform="matrix(0.93929285,0,0,0.93929285,-2.893881,116.4159)"
       style="font-style:normal;font-variant:normal;font-weight:900;font-stretch:normal;font-size:1333.33337402px;line-height:125%;font-family:'Jones*';-inkscape-font-specification:'Jones* Heavy';text-align:center;letter-spacing:0px;word-spacing:0px;text-anchor:middle;fill:#ffffff;fill-opacity:1;stroke:none;stroke-width:1px;stroke-linecap:butt;stroke-linejoin:miter;stroke-opacity:1"
       id="flowRoot851">
      <path
         d="M 1082.2604,865.33336 V 278.66668 H 862.26042 v 586.66668 c 0,118.66667 -76,169.33334 -165.33334,169.33334 -65.33333,0 -136,-62.66667 -174.66667,-150.66667 L 350.2604,1002.6667 c 69.33334,154.6667 196.00001,236 340.00001,236 212.00001,0 391.99999,-121.3333 391.99999,-373.33334 z"
         style=""
         id="path15508" />
    </g>
  </g>
</svg>
