<?xml version="1.0" encoding="UTF-8" standalone="no"?>
<!-- Created with Inkscape (http://www.inkscape.org/) -->

<svg
   xmlns:dc="http://purl.org/dc/elements/1.1/"
   xmlns:cc="http://creativecommons.org/ns#"
   xmlns:rdf="http://www.w3.org/1999/02/22-rdf-syntax-ns#"
   xmlns:svg="http://www.w3.org/2000/svg"
   xmlns="http://www.w3.org/2000/svg"
   xmlns:sodipodi="http://sodipodi.sourceforge.net/DTD/sodipodi-0.dtd"
   xmlns:inkscape="http://www.inkscape.org/namespaces/inkscape"
   version="1.1"
   width="1500"
   height="1500"
   id="svg2"
   sodipodi:docname="K.svg"
   inkscape:version="0.92.4 (unknown)">
  <sodipodi:namedview
     pagecolor="#ffffff"
     bordercolor="#666666"
     borderopacity="1"
     objecttolerance="10"
     gridtolerance="10"
     guidetolerance="10"
     inkscape:pageopacity="0"
     inkscape:pageshadow="2"
     inkscape:window-width="1366"
     inkscape:window-height="716"
     id="namedview56"
     showgrid="false"
     inkscape:zoom="0.22250293"
     inkscape:cx="519.79074"
     inkscape:cy="852.08964"
     inkscape:window-x="0"
     inkscape:window-y="24"
     inkscape:window-maximized="1"
     inkscape:current-layer="svg2"
     showguides="false" />
  <defs
     id="defs4">
    <clipPath
       id="clipPath3862">
      <rect
         width="744"
         height="1052"
         x="0"
         y="0.36218262"
         id="rect3864"
         style="fill:#2ad4ff;fill-opacity:1;stroke:none" />
    </clipPath>
    <clipPath
       id="clipPath3075">
      <rect
         width="880.29663"
         height="769.06781"
         x="320.97458"
         y="572.48926"
         id="rect3077"
         style="opacity:0.71836733;fill:#c8ab37;fill-opacity:1;stroke:none" />
    </clipPath>
    <clipPath
       id="clipPath3949">
      <rect
         width="750"
         height="750"
         x="0"
         y="2.6171874e-06"
         id="rect3951"
         style="fill:#2ad4ff;fill-opacity:1;stroke:none" />
    </clipPath>
    <clipPath
       id="clipPath3964">
      <path
         d="m 542.68968,295.5 -47.75218,173.03125 122.46875,0 0,-173.03125 z m -316.28343,5.625 0,156.75 84.8125,0 -35.39279,-161.80611 z"
         id="path3966"
         style="fill:#ff5f00;fill-opacity:1;stroke:#aa4400;stroke-width:3;stroke-linecap:square;stroke-miterlimit:4;stroke-opacity:1;stroke-dasharray:none" />
    </clipPath>
    <clipPath
       id="clipPath3036">
      <rect
         width="629.2052"
         height="620.21655"
         x="791.00079"
         y="-176.83527"
         id="rect3038"
         style="opacity:0.55510206;fill:#ffe680;fill-opacity:1;stroke:none" />
    </clipPath>
    <clipPath
       id="clipPath3042">
      <rect
         width="1276.3877"
         height="606.73358"
         x="480.89255"
         y="304.05728"
         id="rect3044"
         style="opacity:0.55510206;fill:#ffe680;fill-opacity:1;stroke:none" />
    </clipPath>
    <clipPath
       id="clipPath3986">
      <rect
         width="391.00607"
         height="175.27859"
         x="-1478.6322"
         y="283.83286"
         id="rect3988"
         style="opacity:0.53061224;fill:#9955ff;fill-opacity:1;stroke:none" />
    </clipPath>
    <clipPath
       id="clipPath4018">
      <rect
         width="1500"
         height="1500"
         x="0"
         y="2.9296871e-08"
         id="rect4020"
         style="fill:#2ad4ff;fill-opacity:1;stroke:none" />
    </clipPath>
    <clipPath
       id="clipPath4024">
      <rect
         width="1500"
         height="1500"
         x="0"
         y="2.9296871e-08"
         id="rect4026"
         style="fill:#2ad4ff;fill-opacity:1;stroke:none" />
    </clipPath>
    <clipPath
       clipPathUnits="userSpaceOnUse"
       id="clipPath911">
      <rect
         style="opacity:1;fill:#aa0000;fill-opacity:1;stroke:#000000;stroke-width:3.02362204;stroke-linejoin:miter;stroke-miterlimit:4;stroke-dasharray:none;stroke-opacity:1;paint-order:stroke markers fill"
         id="rect913"
         width="692.79663"
         height="641.94916"
         x="966.10168"
         y="699.15253"
         ry="1.67204" />
    </clipPath>
    <clipPath
       clipPathUnits="userSpaceOnUse"
       id="clipPath982">
      <rect
         width="1105.9957"
         height="1105.9957"
         x="193.8522"
         y="193.01425"
         id="rect984"
         style="fill:#aa0000;fill-opacity:1;stroke:none;stroke-width:0.7373305" />
    </clipPath>
    <clipPath
       clipPathUnits="userSpaceOnUse"
       id="clipPath850">
      <rect
         style="opacity:1;fill:#ff8c3f;fill-opacity:1;stroke:none;stroke-width:3.02362204;stroke-linejoin:miter;stroke-miterlimit:4;stroke-dasharray:none;stroke-opacity:1;paint-order:stroke markers fill"
         id="rect852"
         width="902.54236"
         height="947.03387"
         x="-978.81354"
         y="311.44067"
         ry="1.67204" />
    </clipPath>
    <clipPath
       clipPathUnits="userSpaceOnUse"
       id="clipPath884">
      <rect
         width="1262.6903"
         height="1262.6903"
         x="7.8213415"
         y="151.13367"
         id="rect886"
         style="fill:#a6657e;fill-opacity:1;stroke:none;stroke-width:0.84179348" />
    </clipPath>
  </defs>
  <metadata
     id="metadata7">
    <rdf:RDF>
      <cc:Work
         rdf:about="">
        <dc:format>image/svg+xml</dc:format>
        <dc:type
           rdf:resource="http://purl.org/dc/dcmitype/StillImage" />
        <dc:title />
      </cc:Work>
    </rdf:RDF>
  </metadata>
  <rect
     style="fill:#a6657e;fill-opacity:1;stroke:none"
     id="rect3082"
     y="2.9296871e-08"
     x="0"
     height="1500"
     width="1500" />
  <path
     style="fill:#536c53;fill-rule:evenodd;stroke:none;stroke-width:1.18793976px;stroke-linecap:butt;stroke-linejoin:miter;stroke-opacity:1"
     d="M 572.09375 854.87695 C 572.09375 854.87695 485.26361 866.20218 390.88281 983.23438 C 296.50199 1100.2666 205.89648 1273.9275 205.89648 1409.8359 C 205.89648 1433.6533 206.48518 1464.8657 207.44141 1500 L 1385.2578 1500 C 1375.7329 1284.7844 1343.5007 1044.5152 1249.6582 992.04297 C 1122.8931 921.16205 572.09375 854.87695 572.09375 854.87695 z "
     id="path858" />
  <path
     style="fill:#50162d;fill-opacity:1;fill-rule:evenodd;stroke:none;stroke-width:1.18793976px;stroke-linecap:butt;stroke-linejoin:miter;stroke-opacity:1"
     d="M 890.32812 849.57422 C 890.32812 849.57422 847.6164 1012.4136 794.22656 1119.1934 C 740.83671 1225.973 698.125 1287.3711 698.125 1287.3711 L 583.33594 969.70312 L 527.27734 889.61719 C 527.27734 889.61719 452.53134 921.65074 404.48047 972.37109 C 356.42961 1023.0915 329.73438 1105.8472 329.73438 1236.6523 C 329.73438 1298.7989 326.12429 1402.5081 324.61914 1500 L 996.69336 1500 C 1045.5415 1429.6128 1086.6246 1355.1271 1103.8867 1311.3965 C 1143.9291 1209.9558 1042.4891 1108.5159 1023.8027 1025.7617 C 1005.1163 943.00749 890.32812 849.57422 890.32812 849.57422 z "
     id="path854" />
  <path
     style="fill:#3e4837;fill-rule:evenodd;stroke:none;stroke-width:1.18793976px;stroke-linecap:butt;stroke-linejoin:miter;stroke-opacity:1"
     d="m 399.14106,387.75294 c 0,0 -40.04239,-26.69492 -18.68645,-74.74579 21.35594,-48.05086 109.4492,-101.44071 192.20346,-114.78818 82.75426,-13.34745 224.23737,-8.00847 269.61874,42.71188 45.38136,50.72036 112.11868,98.77123 149.49157,168.17803 37.37292,69.4068 85.42372,205.55092 112.11872,213.55939 26.6949,8.00848 50.7203,-40.04239 50.7203,-40.04239 0,0 5.339,24.02543 -14.6822,41.37714 -20.0212,17.3517 -41.3771,20.02119 -41.3771,20.02119 0,0 18.6864,41.37713 37.3729,41.37713 18.6864,0 37.3729,-44.04662 37.3729,-44.04662 0,0 6.6737,36.03815 -16.017,48.05087 -22.6907,12.01271 -44.0466,0 -44.0466,0 0,0 -17.3517,41.37713 13.3475,50.72035 30.6991,9.34323 34.7034,9.34323 54.7246,42.71189 20.0212,33.36864 24.0253,48.05085 21.3559,88.09324 -2.6695,40.04238 -24.0254,58.72883 -24.0254,58.72883 0,0 13.3474,32.03392 32.0339,82.7542 18.6864,50.7204 -8.0085,160.1696 -53.3899,165.5086 -45.3814,5.339 -106.7797,-106.7797 -106.7797,-106.7797 0,0 -56.05932,50.7204 -98.7712,13.3475 C 909.01412,1047.1175 788.88695,937.66839 788.88695,937.66839 L 527.2767,854.91411 c 0,0 -42.71188,90.76275 -120.12716,160.16959 -77.41528,69.4068 -106.7797,117.4576 -208.22041,82.7542 C 97.488414,1063.1345 49.43755,969.70229 49.43755,969.70229 c 0,0 74.74579,66.73731 128.13564,2.66949 53.38984,-64.06782 125.46614,-154.83056 130.80512,-242.92381 5.339,-88.09325 56.05934,-226.90686 56.05934,-226.90686 0,0 -24.02542,-45.38136 -13.34745,-74.74579 10.67796,-29.36441 48.05086,-40.04238 48.05086,-40.04238 z"
     id="path860"
     inkscape:connector-curvature="0" />
  <path
     style="fill:#9dac93;fill-rule:evenodd;stroke:none;stroke-width:1.18793976px;stroke-linecap:butt;stroke-linejoin:miter;stroke-opacity:1"
     d="m 453.17469,396.18524 c 0,0 77.39226,-20.76377 107.59412,-20.76377 30.20186,0 100.04366,35.8647 132.13314,32.08947 32.08948,-3.77524 84.94272,5.66285 103.81888,32.08948 18.87617,26.42662 86.83035,79.27988 111.36936,132.13313 24.53901,52.85325 83.05512,79.27988 83.05512,79.27988 0,0 9.43809,49.07802 -1.88762,75.50464 -11.32569,26.42664 -22.65139,39.63995 -37.75233,37.75233 -15.10092,-1.88762 -30.20186,-3.77523 -30.20186,-3.77523 0,0 5.66285,109.48175 -28.31423,154.78453 -33.9771,45.30279 -143.45883,158.5597 -205.75017,147.234 -62.29133,-11.3257 -84.94273,-33.977 -135.90836,-77.3922 -50.96565,-43.41518 -88.71797,-90.60557 -109.48175,-158.55976 -20.76377,-67.95418 -26.42662,-130.24553 -20.76377,-198.19971 5.66285,-67.95417 24.53901,-130.24552 24.53901,-166.11022 0,-35.86471 7.55046,-66.06657 7.55046,-66.06657 z"
     id="path862"
     inkscape:connector-curvature="0" />
  <path
     style="fill:#536c53;fill-rule:evenodd;stroke:none;stroke-width:1.18793976px;stroke-linecap:butt;stroke-linejoin:miter;stroke-opacity:1"
     d="m 573.03832,620.81157 c 0,0 -36.80852,3.77523 -67.95419,-1.88761 -31.14567,-5.66285 -55.68468,-9.43809 -55.68468,-9.43809 0,0 37.75233,-10.38188 67.95419,-5.66285 30.20186,4.71904 55.68468,16.98855 55.68468,16.98855 z"
     id="path864"
     inkscape:connector-curvature="0" />
  <path
     style="fill:#536c53;fill-rule:evenodd;stroke:none;stroke-width:1.18793976px;stroke-linecap:butt;stroke-linejoin:miter;stroke-opacity:1"
     d="m 700.45241,615.14872 c 0,0 50.96564,-15.10093 68.89799,-14.15712 17.93236,0.94381 68.89799,9.43809 68.89799,9.43809 0,0 -42.47136,-21.7076 -78.33607,-19.81998 -35.8647,1.88762 -59.45991,24.53901 -59.45991,24.53901 z"
     id="path866"
     inkscape:connector-curvature="0" />
  <path
     style="fill:#536c53;fill-rule:evenodd;stroke:none;stroke-width:1.18793976px;stroke-linecap:butt;stroke-linejoin:miter;stroke-opacity:1"
     d="m 563.12833,875.63975 c 0,0 40.58374,42.47137 88.71796,41.52756 48.13422,-0.9438 120.80744,-54.74087 120.80744,-54.74087 0,0 -49.07802,72.67324 -115.14459,69.84181 -66.06657,-2.83142 -94.38081,-56.6285 -94.38081,-56.6285 z"
     id="path868"
     inkscape:connector-curvature="0"
     sodipodi:nodetypes="cscsc" />
  <path
     style="fill:#536c53;fill-rule:evenodd;stroke:none;stroke-width:1.18793976px;stroke-linecap:butt;stroke-linejoin:miter;stroke-opacity:1"
     d="m 563.12833,875.63975 c 0,0 69.8418,9.91 93.90891,7.07857 24.0671,-2.83142 115.61649,-20.29188 115.61649,-20.29188 0,0 -27.37043,0.94381 -60.40372,3.77524 -33.03328,2.83142 -56.62848,6.13475 -56.62848,6.13475 0,0 -20.76378,-2.35953 -39.63994,-2.83142 -18.87616,-0.47191 -52.85326,6.13474 -52.85326,6.13474 z"
     id="path870"
     inkscape:connector-curvature="0" />
</svg>
