<?xml version="1.0" encoding="UTF-8" standalone="no"?>
<!-- Created with Inkscape (http://www.inkscape.org/) -->

<svg
   xmlns:dc="http://purl.org/dc/elements/1.1/"
   xmlns:cc="http://creativecommons.org/ns#"
   xmlns:rdf="http://www.w3.org/1999/02/22-rdf-syntax-ns#"
   xmlns:svg="http://www.w3.org/2000/svg"
   xmlns="http://www.w3.org/2000/svg"
   xmlns:sodipodi="http://sodipodi.sourceforge.net/DTD/sodipodi-0.dtd"
   xmlns:inkscape="http://www.inkscape.org/namespaces/inkscape"
   version="1.1"
   width="1500"
   height="1500"
   id="svg2"
   sodipodi:docname="Kh.svg"
   inkscape:version="0.92.4 (unknown)">
  <sodipodi:namedview
     pagecolor="#ffffff"
     bordercolor="#666666"
     borderopacity="1"
     objecttolerance="10"
     gridtolerance="10"
     guidetolerance="10"
     inkscape:pageopacity="0"
     inkscape:pageshadow="2"
     inkscape:window-width="1366"
     inkscape:window-height="716"
     id="namedview56"
     showgrid="false"
     inkscape:zoom="0.22250293"
     inkscape:cx="519.79074"
     inkscape:cy="852.08964"
     inkscape:window-x="0"
     inkscape:window-y="24"
     inkscape:window-maximized="1"
     inkscape:current-layer="g880"
     showguides="false" />
  <defs
     id="defs4">
    <clipPath
       id="clipPath3862">
      <rect
         width="744"
         height="1052"
         x="0"
         y="0.36218262"
         id="rect3864"
         style="fill:#2ad4ff;fill-opacity:1;stroke:none" />
    </clipPath>
    <clipPath
       id="clipPath3075">
      <rect
         width="880.29663"
         height="769.06781"
         x="320.97458"
         y="572.48926"
         id="rect3077"
         style="opacity:0.71836733;fill:#c8ab37;fill-opacity:1;stroke:none" />
    </clipPath>
    <clipPath
       id="clipPath3949">
      <rect
         width="750"
         height="750"
         x="0"
         y="2.6171874e-06"
         id="rect3951"
         style="fill:#2ad4ff;fill-opacity:1;stroke:none" />
    </clipPath>
    <clipPath
       id="clipPath3964">
      <path
         d="m 542.68968,295.5 -47.75218,173.03125 122.46875,0 0,-173.03125 z m -316.28343,5.625 0,156.75 84.8125,0 -35.39279,-161.80611 z"
         id="path3966"
         style="fill:#ff5f00;fill-opacity:1;stroke:#aa4400;stroke-width:3;stroke-linecap:square;stroke-miterlimit:4;stroke-opacity:1;stroke-dasharray:none" />
    </clipPath>
    <clipPath
       id="clipPath3036">
      <rect
         width="629.2052"
         height="620.21655"
         x="791.00079"
         y="-176.83527"
         id="rect3038"
         style="opacity:0.55510206;fill:#ffe680;fill-opacity:1;stroke:none" />
    </clipPath>
    <clipPath
       id="clipPath3042">
      <rect
         width="1276.3877"
         height="606.73358"
         x="480.89255"
         y="304.05728"
         id="rect3044"
         style="opacity:0.55510206;fill:#ffe680;fill-opacity:1;stroke:none" />
    </clipPath>
    <clipPath
       id="clipPath3986">
      <rect
         width="391.00607"
         height="175.27859"
         x="-1478.6322"
         y="283.83286"
         id="rect3988"
         style="opacity:0.53061224;fill:#9955ff;fill-opacity:1;stroke:none" />
    </clipPath>
    <clipPath
       id="clipPath4018">
      <rect
         width="1500"
         height="1500"
         x="0"
         y="2.9296871e-08"
         id="rect4020"
         style="fill:#2ad4ff;fill-opacity:1;stroke:none" />
    </clipPath>
    <clipPath
       id="clipPath4024">
      <rect
         width="1500"
         height="1500"
         x="0"
         y="2.9296871e-08"
         id="rect4026"
         style="fill:#2ad4ff;fill-opacity:1;stroke:none" />
    </clipPath>
    <clipPath
       clipPathUnits="userSpaceOnUse"
       id="clipPath911">
      <rect
         style="opacity:1;fill:#aa0000;fill-opacity:1;stroke:#000000;stroke-width:3.02362204;stroke-linejoin:miter;stroke-miterlimit:4;stroke-dasharray:none;stroke-opacity:1;paint-order:stroke markers fill"
         id="rect913"
         width="692.79663"
         height="641.94916"
         x="966.10168"
         y="699.15253"
         ry="1.67204" />
    </clipPath>
    <clipPath
       clipPathUnits="userSpaceOnUse"
       id="clipPath982">
      <rect
         width="1105.9957"
         height="1105.9957"
         x="193.8522"
         y="193.01425"
         id="rect984"
         style="fill:#aa0000;fill-opacity:1;stroke:none;stroke-width:0.7373305" />
    </clipPath>
    <clipPath
       clipPathUnits="userSpaceOnUse"
       id="clipPath850">
      <rect
         style="opacity:1;fill:#ff8c3f;fill-opacity:1;stroke:none;stroke-width:3.02362204;stroke-linejoin:miter;stroke-miterlimit:4;stroke-dasharray:none;stroke-opacity:1;paint-order:stroke markers fill"
         id="rect852"
         width="902.54236"
         height="947.03387"
         x="-978.81354"
         y="311.44067"
         ry="1.67204" />
    </clipPath>
    <clipPath
       clipPathUnits="userSpaceOnUse"
       id="clipPath884">
      <rect
         width="1262.6903"
         height="1262.6903"
         x="7.8213415"
         y="151.13367"
         id="rect886"
         style="fill:#a6657e;fill-opacity:1;stroke:none;stroke-width:0.84179348" />
    </clipPath>
  </defs>
  <metadata
     id="metadata7">
    <rdf:RDF>
      <cc:Work
         rdf:about="">
        <dc:format>image/svg+xml</dc:format>
        <dc:type
           rdf:resource="http://purl.org/dc/dcmitype/StillImage" />
        <dc:title />
      </cc:Work>
    </rdf:RDF>
  </metadata>
  <rect
     style="fill:#a6657e;fill-opacity:1;stroke:none"
     id="rect3082"
     y="2.9296871e-08"
     x="0"
     height="1500"
     width="1500" />
  <g
     id="g880"
     transform="matrix(1.1879398,0,0,1.1879398,-9.2912831,-179.5377)"
     clip-path="url(#clipPath884)">
    <path
       inkscape:connector-curvature="0"
       id="path858"
       d="m 489.40678,870.76271 c 0,0 -73.09322,9.5339 -152.54237,108.05085 -79.44916,98.51694 -155.72034,244.70334 -155.72034,359.11014 0,114.4068 15.88983,429.0255 15.88983,429.0255 l 975.9382,-45.8535 c 0,0 36.4709,-651.1804 -113.1961,-734.86689 C 953.06594,926.56172 489.40678,870.76271 489.40678,870.76271 Z"
       style="fill:#536c53;fill-rule:evenodd;stroke:none;stroke-width:1px;stroke-linecap:butt;stroke-linejoin:miter;stroke-opacity:1"
       sodipodi:nodetypes="cssccsc" />
    <path
       inkscape:connector-curvature="0"
       id="path854"
       d="m 498.86983,967.42275 96.62794,267.41225 c 0,0 35.95458,-51.6848 80.89781,-141.5712 44.94322,-89.8865 80.89781,-226.96331 80.89781,-226.96331 0,0 96.62794,78.65065 112.35807,148.31261 15.73012,69.662 101.12226,155.0542 67.41484,240.4463 -33.70742,85.3921 -175.27859,310.1083 -256.1764,307.8611 -80.89781,-2.2471 -56.17904,103.3694 -157.3013,83.145 -101.12226,-20.2245 -215.72749,11.2358 -233.70478,-33.7074 -17.97729,-44.9433 -4.49432,-310.1083 -4.49432,-420.2192 0,-110.1109 22.47161,-179.7729 62.92051,-222.46899 40.44891,-42.69606 103.36943,-69.662 103.36943,-69.662 z"
       style="fill:#50162d;fill-opacity:1;fill-rule:evenodd;stroke:none;stroke-width:1px;stroke-linecap:butt;stroke-linejoin:miter;stroke-opacity:1" />
    <path
       inkscape:connector-curvature="0"
       id="path860"
       d="m 343.81569,477.54157 c 0,0 -33.70742,-22.47161 -15.73013,-62.92052 17.97729,-40.4489 92.13362,-85.39213 161.79562,-96.62794 69.662,-11.2358 188.76156,-6.74148 226.9633,35.95458 38.20174,42.69607 94.38078,83.14498 125.84104,141.57117 31.46026,58.4262 71.90916,173.03143 94.38078,179.77291 22.47161,6.74149 42.69606,-33.70742 42.69606,-33.70742 0,0 4.49433,20.22445 -12.35938,34.831 -16.85371,14.60655 -34.83101,16.85371 -34.83101,16.85371 0,0 15.73013,34.831 31.46026,34.831 15.73013,0 31.46026,-37.07816 31.46026,-37.07816 0,0 5.61791,30.33668 -13.48297,40.44891 -19.10087,10.11222 -37.07816,0 -37.07816,0 0,0 -14.60655,34.831 11.23581,42.69606 25.84235,7.86507 29.2131,7.86507 46.06683,35.95459 16.8537,28.08951 20.2244,40.4489 17.9773,74.15632 -2.2472,33.70742 -20.22448,49.43755 -20.22448,49.43755 0,0 11.23578,26.96594 26.96598,69.66197 15.7301,42.6961 -6.7415,134.8297 -44.94328,139.324 -38.20174,4.4944 -89.88645,-89.8864 -89.88645,-89.8864 0,0 -47.19039,42.6961 -83.14497,11.2358 C 773.02352,1032.5904 671.90125,940.45682 671.90125,940.45682 L 451.67944,870.79481 c 0,0 -35.95458,76.40349 -101.12226,134.82969 -65.16768,58.4262 -89.88646,98.8751 -175.27859,69.662 C 89.886455,1046.0734 49.43755,967.42275 49.43755,967.42275 c 0,0 62.92052,56.17905 107.86375,2.24716 44.94322,-53.93187 105.61658,-130.33536 110.1109,-204.49168 4.49433,-74.15633 47.19039,-191.00872 47.19039,-191.00872 0,0 -20.22445,-38.20174 -11.2358,-62.92052 8.98864,-24.71877 40.4489,-33.70742 40.4489,-33.70742 z"
       style="fill:#3e4837;fill-rule:evenodd;stroke:none;stroke-width:1px;stroke-linecap:butt;stroke-linejoin:miter;stroke-opacity:1" />
    <path
       inkscape:connector-curvature="0"
       id="path862"
       d="m 389.30085,484.63983 c 0,0 65.1483,-17.47881 90.57203,-17.47881 25.42373,0 84.2161,30.19067 111.22882,27.01271 27.01271,-3.17797 71.50423,4.76695 87.39406,27.01271 15.88983,22.24576 73.09322,66.73729 93.75,111.22881 20.65678,44.49153 69.91526,66.73729 69.91526,66.73729 0,0 7.94491,41.31356 -1.58899,63.55932 -9.53389,22.24577 -19.06779,33.36865 -31.77966,31.77966 -12.71186,-1.58898 -25.42373,-3.17796 -25.42373,-3.17796 0,0 4.76695,92.16102 -23.83474,130.29661 -28.6017,38.13559 -120.76271,133.47453 -173.19915,123.94063 -52.43644,-9.5339 -71.50424,-28.6016 -114.40678,-65.14826 -42.90255,-36.54661 -74.68221,-76.27118 -92.16102,-133.47457 -17.47881,-57.20339 -22.24576,-109.63984 -17.47881,-166.84323 4.76695,-57.20338 20.65678,-109.63983 20.65678,-139.8305 0,-30.19068 6.35593,-55.61441 6.35593,-55.61441 z"
       style="fill:#9dac93;fill-rule:evenodd;stroke:none;stroke-width:1px;stroke-linecap:butt;stroke-linejoin:miter;stroke-opacity:1" />
    <path
       inkscape:connector-curvature="0"
       id="path864"
       d="m 490.20127,673.72881 c 0,0 -30.98517,3.17797 -57.20339,-1.58898 -26.21822,-4.76695 -46.875,-7.94492 -46.875,-7.94492 0,0 31.77966,-8.7394 57.20339,-4.76695 25.42373,3.97246 46.875,14.30085 46.875,14.30085 z"
       style="fill:#536c53;fill-rule:evenodd;stroke:none;stroke-width:1px;stroke-linecap:butt;stroke-linejoin:miter;stroke-opacity:1" />
    <path
       inkscape:connector-curvature="0"
       id="path866"
       d="m 597.45763,668.96186 c 0,0 42.90254,-12.71186 57.99788,-11.91737 15.09534,0.79449 57.99788,7.94492 57.99788,7.94492 0,0 -35.75212,-18.27331 -65.9428,-16.68433 -30.19067,1.58899 -50.05296,20.65678 -50.05296,20.65678 z"
       style="fill:#536c53;fill-rule:evenodd;stroke:none;stroke-width:1px;stroke-linecap:butt;stroke-linejoin:miter;stroke-opacity:1" />
    <path
       sodipodi:nodetypes="cscsc"
       inkscape:connector-curvature="0"
       id="path868"
       d="m 481.85911,888.24152 c 0,0 34.16313,35.75212 74.6822,34.95763 40.51907,-0.79449 101.69492,-46.08051 101.69492,-46.08051 0,0 -41.31356,61.17586 -96.92797,58.79238 -55.61441,-2.38347 -79.44915,-47.6695 -79.44915,-47.6695 z"
       style="fill:#536c53;fill-rule:evenodd;stroke:none;stroke-width:1px;stroke-linecap:butt;stroke-linejoin:miter;stroke-opacity:1" />
    <path
       inkscape:connector-curvature="0"
       id="path870"
       d="m 481.85911,888.24152 c 0,0 58.79237,8.34217 79.05191,5.95869 20.25953,-2.38347 97.32521,-17.08157 97.32521,-17.08157 0,0 -23.04025,0.79449 -50.84746,3.17797 -27.8072,2.38347 -47.66949,5.16419 -47.66949,5.16419 0,0 -17.47881,-1.98623 -33.36864,-2.38347 -15.88983,-0.39725 -44.49153,5.16419 -44.49153,5.16419 z"
       style="fill:#536c53;fill-rule:evenodd;stroke:none;stroke-width:1px;stroke-linecap:butt;stroke-linejoin:miter;stroke-opacity:1" />
    <rect
       width="1262.6903"
       height="1262.6903"
       x="7.8213415"
       y="151.13361"
       id="rect848"
       style="fill:#000000;fill-opacity:0.50196078;stroke:none;stroke-width:0.84179348" />
    <g
       aria-label="K"
       transform="matrix(0.8417935,0,0,0.8417935,7.8213632,161.23514)"
       style="font-style:normal;font-variant:normal;font-weight:900;font-stretch:normal;font-size:1333.33337402px;line-height:125%;font-family:'Jones*';-inkscape-font-specification:'Jones* Heavy';text-align:center;letter-spacing:0px;word-spacing:0px;text-anchor:middle;fill:#ffffff;fill-opacity:1;stroke:none;stroke-width:1px;stroke-linecap:butt;stroke-linejoin:miter;stroke-opacity:1"
       id="flowRoot851">
      <path
         d="M 333.90624,278.66668 V 1212 H 560.57291 V 1002.6667 L 707.23958,842.66669 995.23959,1212 H 1253.9063 L 845.90625,693.33335 1227.2396,278.66668 H 940.57292 L 560.57291,717.33336 V 278.66668 Z"
         style=""
         id="path15525" />
    </g>
  </g>
</svg>
