<?xml version="1.0" encoding="UTF-8" standalone="no"?>
<!-- Created with Inkscape (http://www.inkscape.org/) -->

<svg
   xmlns:dc="http://purl.org/dc/elements/1.1/"
   xmlns:cc="http://creativecommons.org/ns#"
   xmlns:rdf="http://www.w3.org/1999/02/22-rdf-syntax-ns#"
   xmlns:svg="http://www.w3.org/2000/svg"
   xmlns="http://www.w3.org/2000/svg"
   xmlns:sodipodi="http://sodipodi.sourceforge.net/DTD/sodipodi-0.dtd"
   xmlns:inkscape="http://www.inkscape.org/namespaces/inkscape"
   version="1.1"
   width="1500"
   height="1500"
   id="svg2"
   sodipodi:docname="L.svg"
   inkscape:version="0.92.4 (unknown)">
  <sodipodi:namedview
     pagecolor="#ffffff"
     bordercolor="#666666"
     borderopacity="1"
     objecttolerance="10"
     gridtolerance="10"
     guidetolerance="10"
     inkscape:pageopacity="0"
     inkscape:pageshadow="2"
     inkscape:window-width="1366"
     inkscape:window-height="716"
     id="namedview56"
     showgrid="false"
     inkscape:zoom="0.22250293"
     inkscape:cx="-209.89233"
     inkscape:cy="623.31116"
     inkscape:window-x="0"
     inkscape:window-y="24"
     inkscape:window-maximized="1"
     inkscape:current-layer="svg2" />
  <defs
     id="defs4">
    <clipPath
       id="clipPath3862">
      <rect
         width="744"
         height="1052"
         x="0"
         y="0.36218262"
         id="rect3864"
         style="fill:#2ad4ff;fill-opacity:1;stroke:none" />
    </clipPath>
    <clipPath
       id="clipPath3075">
      <rect
         width="880.29663"
         height="769.06781"
         x="320.97458"
         y="572.48926"
         id="rect3077"
         style="opacity:0.71836733;fill:#c8ab37;fill-opacity:1;stroke:none" />
    </clipPath>
    <clipPath
       id="clipPath3949">
      <rect
         width="750"
         height="750"
         x="0"
         y="2.6171874e-06"
         id="rect3951"
         style="fill:#2ad4ff;fill-opacity:1;stroke:none" />
    </clipPath>
    <clipPath
       id="clipPath3964">
      <path
         d="m 542.68968,295.5 -47.75218,173.03125 122.46875,0 0,-173.03125 z m -316.28343,5.625 0,156.75 84.8125,0 -35.39279,-161.80611 z"
         id="path3966"
         style="fill:#ff5f00;fill-opacity:1;stroke:#aa4400;stroke-width:3;stroke-linecap:square;stroke-miterlimit:4;stroke-opacity:1;stroke-dasharray:none" />
    </clipPath>
    <clipPath
       id="clipPath3036">
      <rect
         width="629.2052"
         height="620.21655"
         x="791.00079"
         y="-176.83527"
         id="rect3038"
         style="opacity:0.55510206;fill:#ffe680;fill-opacity:1;stroke:none" />
    </clipPath>
    <clipPath
       id="clipPath3042">
      <rect
         width="1276.3877"
         height="606.73358"
         x="480.89255"
         y="304.05728"
         id="rect3044"
         style="opacity:0.55510206;fill:#ffe680;fill-opacity:1;stroke:none" />
    </clipPath>
    <clipPath
       id="clipPath3986">
      <rect
         width="391.00607"
         height="175.27859"
         x="-1478.6322"
         y="283.83286"
         id="rect3988"
         style="opacity:0.53061224;fill:#9955ff;fill-opacity:1;stroke:none" />
    </clipPath>
    <clipPath
       id="clipPath4018">
      <rect
         width="1500"
         height="1500"
         x="0"
         y="2.9296871e-08"
         id="rect4020"
         style="fill:#2ad4ff;fill-opacity:1;stroke:none" />
    </clipPath>
    <clipPath
       id="clipPath4024">
      <rect
         width="1500"
         height="1500"
         x="0"
         y="2.9296871e-08"
         id="rect4026"
         style="fill:#2ad4ff;fill-opacity:1;stroke:none" />
    </clipPath>
    <clipPath
       clipPathUnits="userSpaceOnUse"
       id="clipPath911">
      <rect
         style="opacity:1;fill:#aa0000;fill-opacity:1;stroke:#000000;stroke-width:3.02362204;stroke-linejoin:miter;stroke-miterlimit:4;stroke-dasharray:none;stroke-opacity:1;paint-order:stroke markers fill"
         id="rect913"
         width="692.79663"
         height="641.94916"
         x="966.10168"
         y="699.15253"
         ry="1.67204" />
    </clipPath>
    <clipPath
       clipPathUnits="userSpaceOnUse"
       id="clipPath982">
      <rect
         width="1105.9957"
         height="1105.9957"
         x="193.8522"
         y="193.01425"
         id="rect984"
         style="fill:#aa0000;fill-opacity:1;stroke:none;stroke-width:0.7373305" />
    </clipPath>
    <clipPath
       clipPathUnits="userSpaceOnUse"
       id="clipPath921">
      <rect
         width="1500"
         height="1500"
         x="0"
         y="100"
         id="rect923"
         style="fill:#37abc8;fill-opacity:1;stroke:none" />
    </clipPath>
  </defs>
  <metadata
     id="metadata7">
    <rdf:RDF>
      <cc:Work
         rdf:about="">
        <dc:format>image/svg+xml</dc:format>
        <dc:type
           rdf:resource="http://purl.org/dc/dcmitype/StillImage" />
        <dc:title />
      </cc:Work>
    </rdf:RDF>
  </metadata>
  <rect
     style="fill:#37abc8;fill-opacity:1;stroke:none"
     id="rect3082"
     y="2.9296871e-08"
     x="0"
     height="1500"
     width="1500" />
  <path
     style="fill:#003380;fill-rule:evenodd;stroke:none;stroke-width:1px;stroke-linecap:butt;stroke-linejoin:miter;stroke-opacity:1"
     d="M 749.65234 912.4375 C 724.33092 912.34289 700.09595 918.86198 678.64258 934.83789 C 573.02599 1013.4885 483.14062 1114.6113 483.14062 1114.6113 C 483.14063 1114.6113 150.55934 1200.0035 107.86328 1258.4297 C 70.96525 1308.9217 15.696668 1459.8688 1.3417969 1500 L 1500 1500 L 1500 1444.1152 C 1410.1999 1385.1276 1252.6937 1281.5829 1190.9961 1240.4512 C 1103.3568 1182.025 1033.6939 1087.6442 995.49219 1047.1953 C 965.05018 1014.9626 848.99022 912.80868 749.65234 912.4375 z "
     id="path848" />
  <path
     style="fill:#d7e3f4;fill-rule:evenodd;stroke:none;stroke-width:1px;stroke-linecap:butt;stroke-linejoin:miter;stroke-opacity:1"
     d="M 653.92383 1002.252 C 653.92383 1002.252 534.82532 1231.4628 507.85938 1305.6191 C 489.70161 1355.553 474.63106 1446.0819 466.70312 1500 L 990.22266 1500 C 1001.2848 1455.1234 1013.1998 1408.5526 1020.2109 1386.5176 C 1035.941 1337.0801 1013.4707 1276.4062 1013.4707 1276.4062 L 653.92383 1002.252 z "
     id="path852" />
  <path
     style="fill:#87cdde;fill-rule:evenodd;stroke:none;stroke-width:1px;stroke-linecap:butt;stroke-linejoin:miter;stroke-opacity:1"
     d="m 586.50912,948.3206 c 0,0 0,175.2785 0,213.4803 0,38.2017 0,125.841 89.88646,173.0314 89.88645,47.1904 249.43491,85.3922 298.87246,49.4376 49.43756,-35.9546 47.19036,-128.0882 35.95456,-204.4917 -11.23578,-76.4035 -56.17901,-330.33274 -56.17901,-330.33274 z"
     id="path850"
     inkscape:connector-curvature="0" />
  <path
     style="fill:#c5b98f;fill-opacity:1;fill-rule:evenodd;stroke:none;stroke-width:1px;stroke-linecap:butt;stroke-linejoin:miter;stroke-opacity:1"
     d="m 511.78416,829.92596 c 0,0 -71.34053,-142.27612 -75.83485,-272.61148 -4.49432,-130.33536 15.73013,-247.18775 119.09955,-298.87246 103.36943,-51.68471 161.79562,-62.92052 222.46898,-47.19039 60.67336,15.73013 83.14497,58.42619 83.14497,58.42619 0,0 29.2131,-24.71877 67.41484,-8.98864 38.20174,15.73013 125.84105,119.09955 128.08815,226.9633 2.2472,107.86375 -33.7074,285.38949 -33.7074,285.38949 L 817.96674,910.1188 Z"
     id="path854"
     inkscape:connector-curvature="0"
     sodipodi:nodetypes="cssscssccc" />
  <path
     style="fill:#afdde9;fill-rule:evenodd;stroke:none;stroke-width:1px;stroke-linecap:butt;stroke-linejoin:miter;stroke-opacity:1"
     d="m 1003.4428,847.82839 c 0,0 24.6292,0 30.9852,-11.12288 6.3559,-11.12288 14.3008,-27.01271 14.3008,-27.01271 0,0 15.8898,-19.0678 21.4513,-36.54661 5.5614,-17.47882 2.3835,-44.49153 3.9724,-57.20339 1.589,-12.71187 14.3009,-46.875 9.5339,-59.58687 -4.7669,-12.71186 -11.1228,-21.45127 -20.6567,-21.45127 -9.5339,0 -22.2458,11.12288 -22.2458,11.12288 l -21.4513,83.42161 c 0,0 -9.5339,-104.07839 -11.1229,-129.50212 -1.5889,-25.42373 -18.27326,-59.58686 -36.54656,-71.50423 -18.27331,-11.91738 -51.64195,-54.02543 -56.4089,-80.24365 -4.76695,-26.21822 -23.04026,-57.99788 -42.10805,-60.38135 -19.0678,-2.38348 -92.16102,-27.80721 -171.61017,-15.88984 -79.44915,11.91738 -133.47458,19.86229 -141.41949,52.43645 -7.94492,32.57415 -4.76695,90.57203 -4.76695,90.57203 0,0 -39.72458,-5.56144 -50.84746,-25.42373 -11.12288,-19.86229 -22.24576,35.75212 -26.21822,82.62712 -3.97246,46.875 6.35593,182.73305 6.35593,182.73305 L 455.05018,660.6839 c 0,0 -8.98865,-5.6179 -13.48297,4.49433 -4.49432,10.11222 -2.80895,21.34803 3.93253,37.63995 6.74149,16.29192 15.16834,38.20174 12.35939,52.2465 -2.80895,14.04476 1.12358,42.69607 6.1797,55.05546 5.05611,12.35938 14.04475,39.88711 23.59519,44.94322 9.55044,5.05612 24.15699,3.93254 24.15699,3.93254 0,0 16.90331,86.1467 53.98147,133.3371 37.07817,47.1904 146.57768,100.8166 206.12746,99.693 59.54978,-1.1236 136.57837,-41.2668 175.90369,-92.9515 38.34202,-50.3923 55.63917,-151.24611 55.63917,-151.24611 z"
     id="path856"
     inkscape:connector-curvature="0"
     sodipodi:nodetypes="ccccccscccssssscssccssssscsssc" />
  <path
     style="fill:#003380;fill-opacity:1;fill-rule:evenodd;stroke:none;stroke-width:1px;stroke-linecap:butt;stroke-linejoin:miter;stroke-opacity:1"
     d="m 985.65353,613.9751 55.13037,32.05244 -51.4877,-1.59699 -9.46714,-15.74308 z"
     id="path886"
     inkscape:connector-curvature="0"
     sodipodi:nodetypes="ccccc" />
  <path
     style="fill:#5fbcd3;fill-opacity:1;fill-rule:evenodd;stroke:none;stroke-width:1px;stroke-linecap:butt;stroke-linejoin:miter;stroke-opacity:1"
     d="m 729.76566,809.55835 c 0,0 -6.17969,-10.39313 -16.01102,-8.98865 -9.83134,1.40448 -16.85372,4.49432 -16.85372,7.58417 0,3.08985 7.02238,6.17969 14.04476,4.77522 7.02238,-1.40448 13.20208,-5.05612 18.81998,-3.37074 z"
     id="path888"
     inkscape:connector-curvature="0" />
  <path
     style="fill:#5fbcd3;fill-opacity:1;fill-rule:evenodd;stroke:none;stroke-width:1px;stroke-linecap:butt;stroke-linejoin:miter;stroke-opacity:1"
     d="m 763.19219,807.59208 c 0,0 8.98864,-10.95491 19.66266,-10.39312 10.67401,0.56179 20.22445,2.80895 16.85371,6.17969 -3.37074,3.37074 -12.07849,2.24716 -20.22445,3.65164 -8.14596,1.40448 -16.29192,0.56179 -16.29192,0.56179 z"
     id="path890"
     inkscape:connector-curvature="0" />
  <path
     style="fill:#5fbcd3;fill-rule:evenodd;stroke:none;stroke-width:0.95917374px;stroke-linecap:butt;stroke-linejoin:miter;stroke-opacity:1"
     d="m 652.43137,904.6138 c 0,0 49.95759,-19.21376 62.87896,-21.46092 12.92138,-2.24716 29.46075,6.74149 38.24728,5.6179 8.78654,-1.12358 16.53937,-9.55043 30.49445,-9.55043 13.95509,0 75.15807,21.13185 75.15807,21.13185 0,0 -53.45015,-0.9074 -71.02322,-0.9074 -17.57308,0 -20.67421,5.0561 -33.59558,5.6179 -12.92138,0.5618 -27.39333,-5.6179 -37.21358,-3.9325 -9.82025,1.6853 -64.94638,3.4836 -64.94638,3.4836 z"
     id="path892"
     inkscape:connector-curvature="0"
     sodipodi:nodetypes="cscscsscc" />
  <path
     style="fill:#87cdde;fill-rule:evenodd;stroke:none;stroke-width:0.95917374px;stroke-linecap:butt;stroke-linejoin:miter;stroke-opacity:1"
     d="m 652.43137,904.6138 c 0,0 55.12613,29.662 98.02511,26.2913 42.89897,-3.3708 108.75365,-30.5529 108.75365,-30.5529 0,0 -38.46136,76.6197 -91.69743,75.4961 -53.23607,-1.1236 -65.12374,-10.674 -83.73053,-26.9659 -18.60678,-16.292 -31.3508,-44.2686 -31.3508,-44.2686 z"
     id="path894"
     inkscape:connector-curvature="0"
     sodipodi:nodetypes="cccscc" />
  <path
     style="fill:#5fbcd3;fill-rule:evenodd;stroke:none;stroke-width:1px;stroke-linecap:butt;stroke-linejoin:miter;stroke-opacity:1"
     d="m 680.27277,616.05627 c 0,0 -40.50964,-24.21848 -78.48674,-20.74531 -37.9771,3.47317 -27.11752,0.0866 -45.889,4.19674 -18.77149,4.11016 -33.86696,22.24465 -33.86696,22.24465 0,0 25.84204,0.0835 69.52964,-0.34852 43.6876,-0.43199 88.71306,-5.34756 88.71306,-5.34756 z"
     id="path896"
     inkscape:connector-curvature="0" />
  <path
     style="fill:#5fbcd3;fill-rule:evenodd;stroke:none;stroke-width:1px;stroke-linecap:butt;stroke-linejoin:miter;stroke-opacity:1"
     d="m 796.36579,616.46069 c 0,0 19.98823,-27.15312 67.79061,-30.32118 47.80238,-3.16805 104.282,19.39261 104.282,19.39261 0,0 -48.65818,-3.41563 -83.65844,1.47151 -35.00027,4.88714 -88.41417,9.45706 -88.41417,9.45706 z"
     id="path898"
     inkscape:connector-curvature="0" />
  <path
     style="fill:#0044aa;fill-rule:evenodd;stroke:none;stroke-width:0.95726389px;stroke-linecap:butt;stroke-linejoin:miter;stroke-opacity:1"
     d="m 597.54643,623.55726 c -49.42237,2.05434 -63.61039,7.41067 -78.64771,9.89192 -17.18542,2.83533 -29.01273,3.4748 -29.01273,3.4748 l -0.81358,30.66175 c 0,0 5.89743,-2.20207 9.68014,-0.0831 3.78261,2.11886 3.35012,14.49254 11.07164,37.01426 7.72142,22.52182 20.85718,49.30023 37.56451,53.46004 16.70732,4.1597 41.97302,2.86855 76.38064,1.49921 34.4075,-1.36943 46.772,-2.01346 59.03955,-13.9498 12.26756,-11.93632 17.38852,-42.09594 23.17536,-57.20378 11.15471,-23.3738 11.49652,-30.61163 33.23137,-31.61774 23.33198,-1.08002 28.07165,12.19168 36.01198,28.4125 7.15778,14.50862 15.04111,44.06628 28.3589,54.81827 13.3178,10.752 25.68892,10.25102 60.07579,8.43598 34.38698,-1.81514 59.66582,-2.86368 75.91743,-8.54904 16.25158,-5.68545 26.85735,-33.56286 32.46515,-56.70169 5.60792,-23.13874 4.03238,-35.41947 7.60307,-37.87871 3.57079,-2.45933 9.64826,-0.81158 9.64826,-0.81158 l -3.64267,-30.45545 c 0,0 -11.83584,0.45588 -29.20972,-0.77972 -17.37397,-1.23596 -33.99289,-6.31374 -102.63155,-1.07568 -68.63858,5.23806 -85.50065,29.32437 -85.50065,29.32437 -10.87591,-0.86319 -19.8854,-0.6779 -29.81251,-0.21838 -9.92711,0.45953 -19.6639,0.98316 -29.66485,2.97157 0,0 -19.01509,-22.42557 -87.84405,-21.30031 -8.60361,0.14071 -16.38346,0.36685 -23.44377,0.66034 z m -7.08757,7.00429 c 11.2116,-0.48036 24.51225,-0.7645 40.04007,-0.89703 41.40778,-0.35349 70.84308,18.89985 70.84308,18.89985 0,0 0.56937,3.75859 0.65176,13.43828 0.0827,9.67964 -4.59089,29.08178 -10.85581,51.18512 -6.26493,22.10324 -10.92602,26.8775 -23.36049,33.83538 -16.19479,7.13195 -63.36981,7.77609 -96.72028,6.98519 -33.35038,-0.791 -33.47148,-10.46861 -42.18577,-23.30151 -8.71446,-12.83279 -15.90739,-36.43529 -20.34715,-52.53142 -4.43987,-16.09621 0.34867,-22.05253 4.58638,-29.61793 4.238,-7.56532 25.72572,-10.43659 38.06669,-13.76877 7.71318,-2.08257 20.59544,-3.42656 39.28133,-4.22716 z M 884.92292,616.9309 c 18.67995,-0.92908 31.62947,-0.78081 39.50195,0.58029 12.59603,2.17788 34.25711,3.05179 39.17588,10.19326 4.91849,7.14156 10.23875,12.62994 7.30493,29.06747 -2.93379,16.43744 -7.91552,40.60352 -15.40722,54.18649 -7.49149,13.58304 -6.72006,23.23056 -39.85475,27.09912 -33.13479,3.86849 -80.16757,7.58521 -96.95197,1.97986 -13.02408,-5.77941 -18.10438,-10.10273 -26.38444,-31.53269 -8.28008,-21.43007 -14.72604,-40.31749 -15.53795,-49.96337 -0.812,-9.64591 -0.59248,-13.44102 -0.59248,-13.44102 0,0 27.53078,-21.89028 68.79416,-25.36361 15.47366,-1.30252 28.74377,-2.24834 39.9517,-2.80577 z"
     id="path878"
     inkscape:connector-curvature="0"
     sodipodi:nodetypes="scccccccscscscccccccscacsssccccccccccssccccccccccs" />
</svg>
