<?xml version="1.0" encoding="UTF-8" standalone="no"?>
<!-- Created with Inkscape (http://www.inkscape.org/) -->

<svg
   xmlns:dc="http://purl.org/dc/elements/1.1/"
   xmlns:cc="http://creativecommons.org/ns#"
   xmlns:rdf="http://www.w3.org/1999/02/22-rdf-syntax-ns#"
   xmlns:svg="http://www.w3.org/2000/svg"
   xmlns="http://www.w3.org/2000/svg"
   xmlns:sodipodi="http://sodipodi.sourceforge.net/DTD/sodipodi-0.dtd"
   xmlns:inkscape="http://www.inkscape.org/namespaces/inkscape"
   version="1.1"
   width="1500"
   height="1500"
   id="svg2"
   sodipodi:docname="M.svg"
   inkscape:version="0.92.4 (unknown)">
  <sodipodi:namedview
     pagecolor="#ffffff"
     bordercolor="#666666"
     borderopacity="1"
     objecttolerance="10"
     gridtolerance="10"
     guidetolerance="10"
     inkscape:pageopacity="0"
     inkscape:pageshadow="2"
     inkscape:window-width="1366"
     inkscape:window-height="716"
     id="namedview56"
     showgrid="false"
     inkscape:zoom="0.15733333"
     inkscape:cx="-275.46814"
     inkscape:cy="767.48752"
     inkscape:window-x="0"
     inkscape:window-y="24"
     inkscape:window-maximized="1"
     inkscape:current-layer="svg2" />
  <defs
     id="defs4">
    <clipPath
       id="clipPath3862">
      <rect
         width="744"
         height="1052"
         x="0"
         y="0.36218262"
         id="rect3864"
         style="fill:#2ad4ff;fill-opacity:1;stroke:none" />
    </clipPath>
    <clipPath
       id="clipPath3075">
      <rect
         width="880.29663"
         height="769.06781"
         x="320.97458"
         y="572.48926"
         id="rect3077"
         style="opacity:0.71836733;fill:#c8ab37;fill-opacity:1;stroke:none" />
    </clipPath>
    <clipPath
       id="clipPath3949">
      <rect
         width="750"
         height="750"
         x="0"
         y="2.6171874e-06"
         id="rect3951"
         style="fill:#2ad4ff;fill-opacity:1;stroke:none" />
    </clipPath>
    <clipPath
       id="clipPath3964">
      <path
         d="m 542.68968,295.5 -47.75218,173.03125 122.46875,0 0,-173.03125 z m -316.28343,5.625 0,156.75 84.8125,0 -35.39279,-161.80611 z"
         id="path3966"
         style="fill:#ff5f00;fill-opacity:1;stroke:#aa4400;stroke-width:3;stroke-linecap:square;stroke-miterlimit:4;stroke-opacity:1;stroke-dasharray:none" />
    </clipPath>
    <clipPath
       id="clipPath3036">
      <rect
         width="629.2052"
         height="620.21655"
         x="791.00079"
         y="-176.83527"
         id="rect3038"
         style="opacity:0.55510206;fill:#ffe680;fill-opacity:1;stroke:none" />
    </clipPath>
    <clipPath
       id="clipPath3042">
      <rect
         width="1276.3877"
         height="606.73358"
         x="480.89255"
         y="304.05728"
         id="rect3044"
         style="opacity:0.55510206;fill:#ffe680;fill-opacity:1;stroke:none" />
    </clipPath>
    <clipPath
       id="clipPath3986">
      <rect
         width="391.00607"
         height="175.27859"
         x="-1478.6322"
         y="283.83286"
         id="rect3988"
         style="opacity:0.53061224;fill:#9955ff;fill-opacity:1;stroke:none" />
    </clipPath>
    <clipPath
       id="clipPath4018">
      <rect
         width="1500"
         height="1500"
         x="0"
         y="2.9296871e-08"
         id="rect4020"
         style="fill:#2ad4ff;fill-opacity:1;stroke:none" />
    </clipPath>
    <clipPath
       id="clipPath4024">
      <rect
         width="1500"
         height="1500"
         x="0"
         y="2.9296871e-08"
         id="rect4026"
         style="fill:#2ad4ff;fill-opacity:1;stroke:none" />
    </clipPath>
    <clipPath
       clipPathUnits="userSpaceOnUse"
       id="clipPath911">
      <rect
         style="opacity:1;fill:#aa0000;fill-opacity:1;stroke:#000000;stroke-width:3.02362204;stroke-linejoin:miter;stroke-miterlimit:4;stroke-dasharray:none;stroke-opacity:1;paint-order:stroke markers fill"
         id="rect913"
         width="692.79663"
         height="641.94916"
         x="966.10168"
         y="699.15253"
         ry="1.67204" />
    </clipPath>
    <clipPath
       clipPathUnits="userSpaceOnUse"
       id="clipPath982">
      <rect
         width="1105.9957"
         height="1105.9957"
         x="193.8522"
         y="193.01425"
         id="rect984"
         style="fill:#aa0000;fill-opacity:1;stroke:none;stroke-width:0.7373305" />
    </clipPath>
    <clipPath
       clipPathUnits="userSpaceOnUse"
       id="clipPath850">
      <rect
         style="opacity:1;fill:#5fbcd3;fill-opacity:1;stroke:none;stroke-width:3.02362204;stroke-linejoin:miter;stroke-miterlimit:4;stroke-dasharray:none;stroke-opacity:1;paint-order:stroke markers fill"
         id="rect852"
         width="394.06781"
         height="463.98306"
         x="-1201.2712"
         y="724.57629"
         ry="1.67204" />
    </clipPath>
    <clipPath
       clipPathUnits="userSpaceOnUse"
       id="clipPath908">
      <rect
         width="1092.137"
         height="1092.137"
         x="123.09277"
         y="254.79095"
         id="rect910"
         style="fill:#d35f8d;fill-opacity:1;stroke:none;stroke-width:0.7280913" />
    </clipPath>
  </defs>
  <metadata
     id="metadata7">
    <rdf:RDF>
      <cc:Work
         rdf:about="">
        <dc:format>image/svg+xml</dc:format>
        <dc:type
           rdf:resource="http://purl.org/dc/dcmitype/StillImage" />
        <dc:title />
      </cc:Work>
    </rdf:RDF>
  </metadata>
  <rect
     style="fill:#d35f8d;fill-opacity:1;stroke:none"
     id="rect3082"
     y="2.9296871e-08"
     x="0"
     height="1500"
     width="1500" />
  <path
     style="fill:#631d39;fill-opacity:1;fill-rule:evenodd;stroke:none;stroke-width:1.65034497px;stroke-linecap:butt;stroke-linejoin:miter;stroke-opacity:1"
     d="M 837.41211 920.98047 C 818.90706 920.97393 807.97852 921.3457 807.97852 921.3457 C 807.97852 921.3457 537.25227 932.4715 411.16016 958.43164 C 285.06804 984.39179 270.23276 988.10119 181.22656 1058.5645 C 92.220363 1129.0278 81.096063 1184.6552 10.632812 1414.5879 C 6.6932915 1427.4432 3.1611119 1441.1968 0 1455.6973 L 0 1500 L 1500 1500 L 1500 1346.7656 C 1444.0964 1218.3513 1334.5598 1086.5538 1232.2656 1003.2227 C 1140.0795 928.12569 917.60068 921.0088 837.41211 920.98047 z "
     id="path880" />
  <path
     style="fill:#de87aa;fill-opacity:1;fill-rule:evenodd;stroke:none;stroke-width:1.65034497px;stroke-linecap:butt;stroke-linejoin:miter;stroke-opacity:1"
     d="m 500.62387,785.56586 c 0,0 103.38288,224.78614 25.50246,332.33534 -77.88043,107.549 -170.59521,103.8405 -137.21789,203.9726 33.37731,100.1318 77.88043,152.0522 233.64127,129.8006 155.76085,-22.2516 307.8131,-70.4632 341.19044,-148.3436 33.37731,-77.8805 70.46325,-144.635 33.37731,-255.8929 C 960.03153,936.18015 819.10506,609.82409 819.10506,609.82409 Z"
     id="path882"
     inkscape:connector-curvature="0"
     sodipodi:nodetypes="cssssscc" />
  <path
     style="fill:#483737;fill-opacity:1;fill-rule:evenodd;stroke:none;stroke-width:1.65034497px;stroke-linecap:butt;stroke-linejoin:miter;stroke-opacity:1"
     d="m 319.68033,1160.5648 c 0,0 -30.67776,87.6246 68.97231,108.6035 99.65007,20.9789 204.09495,-23.6014 204.09495,-112.7619 0,-89.1607 -92.12372,-370.84054 -92.12372,-370.84054 L 867.75572,727.8737 c 0,0 15.73422,167.83171 36.71317,249.12518 20.97897,81.29342 49.82504,118.00672 128.49611,123.25132 78.6711,5.2449 199.3001,-97.0276 199.3001,-97.0276 0,0 -91.7829,-28.84609 -123.2513,-180.94357 C 1077.5453,670.18157 1061.8111,539.06304 998.87422,439.41298 935.93734,339.76291 886.1123,305.67209 886.1123,305.67209 c 0,0 26.2237,-62.93688 -23.60134,-131.11851 C 812.68592,106.37195 723.52535,106.37195 644.85424,124.72855 566.18313,143.08514 484.88965,237.49047 429.81988,350.25238 374.7501,463.01431 322.30269,573.15386 314.43557,654.44734 c -7.86709,81.29347 -10.48946,118.00666 2.62239,159.96458 13.11185,41.95793 57.69214,86.53821 57.69214,86.53821 0,0 -52.44741,-94.40533 -55.06977,-138.98561 -2.62237,-44.58029 20.97895,-81.29347 20.97895,-81.29347 0,0 70.80401,78.6711 62.9369,162.58695 -7.86711,83.91585 -73.42637,175.6988 -73.42637,175.6988 0,0 47.20266,-44.58029 76.04873,-18.3566 28.84606,26.2237 44.5803,97.0277 7.86712,131.1185 -36.71319,34.0909 -94.40533,28.8461 -94.40533,28.8461 z"
     id="path854"
     inkscape:connector-curvature="0"
     sodipodi:nodetypes="ccsccsscsscssssscscscssc" />
  <path
     style="fill:#e9afc6;fill-opacity:1;fill-rule:evenodd;stroke:none;stroke-width:1.65034497px;stroke-linecap:butt;stroke-linejoin:miter;stroke-opacity:1"
     d="m 696.72155,290.88521 c 0,0 -22.25156,25.96015 -89.00621,38.94023 -66.75464,12.98006 -96.42337,-1.8543 -96.42337,-1.8543 0,0 -50.06599,66.75465 -72.31754,183.5753 -22.25156,116.82062 -14.83436,153.90653 -5.56289,224.36978 9.27148,70.46323 38.9402,140.92647 89.00619,185.42957 50.066,44.5031 83.53651,61.07929 128.0396,64.78788 44.5031,3.70858 66.62591,6.14223 131.0347,-34.63062 66.66146,-42.19888 132.18212,-154.39508 141.45359,-208.16966 9.27148,-53.77457 18.54296,-114.96633 -3.70859,-194.70106 -22.25155,-79.73471 -7.41717,-118.67492 -55.62887,-166.88661 -48.21169,-48.2117 -81.58901,-55.62887 -107.54915,-72.31755 -25.96015,-16.68866 -59.33746,-18.54296 -59.33746,-18.54296 z"
     id="path856"
     inkscape:connector-curvature="0"
     sodipodi:nodetypes="cscsssssssssc" />
  <path
     style="fill:#483737;fill-rule:evenodd;stroke:none;stroke-width:1.65034497px;stroke-linecap:butt;stroke-linejoin:miter;stroke-opacity:1"
     d="m 710.4135,550.20812 c 0,0 51.13622,3.27797 64.90366,-4.58914 13.76745,-7.86712 22.94575,-13.76745 40.64673,-9.8339 17.70101,3.93356 48.51386,16.38982 48.51386,16.38982 0,0 -28.84607,-47.85826 -63.59248,-43.26911 -34.7464,4.58915 -44.5803,7.21151 -61.6257,19.01218 -17.04541,11.80067 -28.84607,22.29015 -28.84607,22.29015 z"
     id="path860"
     inkscape:connector-curvature="0" />
  <path
     style="fill:#483737;fill-rule:evenodd;stroke:none;stroke-width:1.65034497px;stroke-linecap:butt;stroke-linejoin:miter;stroke-opacity:1"
     d="m 465.22188,554.14167 c 0,0 34.09081,-22.29014 39.99114,-22.29014 5.90033,0 43.92471,22.29014 55.06978,23.60134 11.14507,1.31118 49.82503,-8.52271 49.82503,-13.76744 0,-5.24475 -34.09082,-20.97898 -56.38095,-26.87931 -22.29016,-5.90033 -38.02438,-11.80066 -52.44741,-7.21151 -14.42304,4.58915 -36.05759,46.54706 -36.05759,46.54706 z"
     id="path858"
     inkscape:connector-curvature="0" />
  <path
     style="fill:#de87aa;fill-rule:evenodd;stroke:none;stroke-width:1.65034497px;stroke-linecap:butt;stroke-linejoin:miter;stroke-opacity:1"
     d="m 518.70914,786.90936 c 0,0 -0.92714,-14.83438 14.83438,-25.96016 15.76151,-11.12577 46.35738,-32.45017 50.06597,-41.72166 3.7086,-9.27147 6.49005,-18.54295 6.49005,-18.54295 0,0 -6.49005,16.68867 -29.66874,33.37733 -23.1787,16.68865 -26.88728,11.12577 -36.15877,26.88728 -9.27148,15.76152 -5.56289,25.96016 -5.56289,25.96016 z"
     id="path862"
     inkscape:connector-curvature="0" />
  <path
     style="fill:#de87aa;fill-rule:evenodd;stroke:none;stroke-width:1.65034497px;stroke-linecap:butt;stroke-linejoin:miter;stroke-opacity:1"
     d="m 805.19785,784.1279 c 0,0 -7.41719,-3.70858 -27.81444,-30.59587 -20.39725,-26.88729 -63.04606,-63.04606 -63.04606,-63.04606 0,0 16.13024,23.54739 24.10584,31.52302 9.2715,9.27149 12.05292,14.83436 27.81443,32.45019 15.4925,17.31512 38.94023,29.66872 38.94023,29.66872 z"
     id="path864"
     inkscape:connector-curvature="0"
     sodipodi:nodetypes="cscssc" />
  <path
     style="fill:#d35f8d;fill-rule:evenodd;stroke:none;stroke-width:1.65034497px;stroke-linecap:butt;stroke-linejoin:miter;stroke-opacity:1"
     d="m 545.85976,792.12178 c 0,0 32.12403,64.24807 86.53823,64.90367 54.41417,0.65558 85.8826,-9.8339 106.86158,-26.2237 20.97896,-16.38983 49.82504,-36.05761 49.82504,-36.05761 0,0 -25.56813,15.07863 -68.18163,17.04542 -42.61353,1.96677 -134.39648,-0.65561 -134.39648,-0.65561 z"
     id="path868"
     inkscape:connector-curvature="0" />
  <path
     style="fill:#c83771;fill-rule:evenodd;stroke:none;stroke-width:1.65034497px;stroke-linecap:butt;stroke-linejoin:miter;stroke-opacity:1"
     d="m 545.85976,792.12178 c 0,0 28.84607,15.07863 49.82504,12.45627 20.97895,-2.6224 38.02437,5.24472 56.38095,1.96675 18.35659,-3.27794 34.09082,-11.14505 49.82504,-7.8671 15.73422,3.27795 51.13623,9.17831 63.59248,4.58916 12.45627,-4.58916 23.60134,-8.52272 23.60134,-8.52272 0,0 -43.92471,28.19049 -103.58363,28.84608 -59.65893,0.65559 -66.21485,3.27796 -93.74974,-5.90033 -27.53488,-9.1783 -45.89148,-25.56811 -45.89148,-25.56811 z"
     id="path866"
     inkscape:connector-curvature="0" />
  <path
     style="fill:#a02c5a;fill-rule:evenodd;stroke:none;stroke-width:1.65034497px;stroke-linecap:butt;stroke-linejoin:miter;stroke-opacity:1"
     d="m 678.17859,768.36639 c 0,0 -10.19863,-5.56288 0.92714,-11.58935 11.12578,-6.02647 37.08591,-16.22508 37.08591,-16.22508 0,0 -12.98006,19.00651 -21.78797,21.3244 -8.80791,2.31785 -16.22508,6.49003 -16.22508,6.49003 z"
     id="path870"
     inkscape:connector-curvature="0" />
  <path
     style="fill:#a02c5a;fill-rule:evenodd;stroke:none;stroke-width:1.65034497px;stroke-linecap:butt;stroke-linejoin:miter;stroke-opacity:1"
     d="m 621.15898,767.90282 c 0,0 0.92715,-12.51649 -6.95359,-19.00654 -7.88077,-6.49004 -19.47011,-19.00653 -19.47011,-19.00653 0,0 6.02647,17.61581 10.19862,23.1787 4.17217,5.56289 16.22508,14.83437 16.22508,14.83437 z"
     id="path872"
     inkscape:connector-curvature="0" />
  <path
     style="fill:#f4eed7;fill-opacity:1;fill-rule:evenodd;stroke:none;stroke-width:2.20400929px;stroke-linecap:butt;stroke-linejoin:miter;stroke-opacity:1"
     d="m 698.49491,705.51237 c 0,0 7.11959,4.02411 5.57186,17.64421 -1.54775,19.81105 -11.76282,30.33568 -11.76282,30.33568 0,0 20.7397,-3.40503 20.7397,-27.54974 0,-20.12063 -14.54874,-20.43015 -14.54874,-20.43015 z"
     id="path874"
     inkscape:connector-curvature="0"
     sodipodi:nodetypes="cccsc" />
  <path
     style="fill:#de87aa;fill-rule:evenodd;stroke:none;stroke-width:1.65034497px;stroke-linecap:butt;stroke-linejoin:miter;stroke-opacity:1"
     d="m 625.84205,585.61011 c 0,0 19.01217,21.63456 10.48948,53.10301 -4.58484,16.92865 -22.20341,38.97367 -33.65028,58.30149 -9.83159,16.60042 -9.84378,37.48891 -9.84378,37.48891 0,0 -1.83681,-21.69019 5.34441,-39.29961 7.71433,-18.91675 20.37827,-39.90082 22.41544,-55.17961 3.93356,-29.50167 5.24473,-54.41419 5.24473,-54.41419 z"
     id="path876"
     inkscape:connector-curvature="0"
     sodipodi:nodetypes="csscssc" />
</svg>
