<?xml version="1.0" encoding="UTF-8" standalone="no"?>
<!-- Created with Inkscape (http://www.inkscape.org/) -->

<svg
   xmlns:dc="http://purl.org/dc/elements/1.1/"
   xmlns:cc="http://creativecommons.org/ns#"
   xmlns:rdf="http://www.w3.org/1999/02/22-rdf-syntax-ns#"
   xmlns:svg="http://www.w3.org/2000/svg"
   xmlns="http://www.w3.org/2000/svg"
   xmlns:sodipodi="http://sodipodi.sourceforge.net/DTD/sodipodi-0.dtd"
   xmlns:inkscape="http://www.inkscape.org/namespaces/inkscape"
   version="1.1"
   width="1500"
   height="1500"
   id="svg2"
   sodipodi:docname="Mh.svg"
   inkscape:version="0.92.4 (unknown)">
  <sodipodi:namedview
     pagecolor="#ffffff"
     bordercolor="#666666"
     borderopacity="1"
     objecttolerance="10"
     gridtolerance="10"
     guidetolerance="10"
     inkscape:pageopacity="0"
     inkscape:pageshadow="2"
     inkscape:window-width="1366"
     inkscape:window-height="716"
     id="namedview56"
     showgrid="false"
     inkscape:zoom="0.15733333"
     inkscape:cx="-1038.18"
     inkscape:cy="767.48752"
     inkscape:window-x="0"
     inkscape:window-y="24"
     inkscape:window-maximized="1"
     inkscape:current-layer="g898" />
  <defs
     id="defs4">
    <clipPath
       id="clipPath3862">
      <rect
         width="744"
         height="1052"
         x="0"
         y="0.36218262"
         id="rect3864"
         style="fill:#2ad4ff;fill-opacity:1;stroke:none" />
    </clipPath>
    <clipPath
       id="clipPath3075">
      <rect
         width="880.29663"
         height="769.06781"
         x="320.97458"
         y="572.48926"
         id="rect3077"
         style="opacity:0.71836733;fill:#c8ab37;fill-opacity:1;stroke:none" />
    </clipPath>
    <clipPath
       id="clipPath3949">
      <rect
         width="750"
         height="750"
         x="0"
         y="2.6171874e-06"
         id="rect3951"
         style="fill:#2ad4ff;fill-opacity:1;stroke:none" />
    </clipPath>
    <clipPath
       id="clipPath3964">
      <path
         d="m 542.68968,295.5 -47.75218,173.03125 122.46875,0 0,-173.03125 z m -316.28343,5.625 0,156.75 84.8125,0 -35.39279,-161.80611 z"
         id="path3966"
         style="fill:#ff5f00;fill-opacity:1;stroke:#aa4400;stroke-width:3;stroke-linecap:square;stroke-miterlimit:4;stroke-opacity:1;stroke-dasharray:none" />
    </clipPath>
    <clipPath
       id="clipPath3036">
      <rect
         width="629.2052"
         height="620.21655"
         x="791.00079"
         y="-176.83527"
         id="rect3038"
         style="opacity:0.55510206;fill:#ffe680;fill-opacity:1;stroke:none" />
    </clipPath>
    <clipPath
       id="clipPath3042">
      <rect
         width="1276.3877"
         height="606.73358"
         x="480.89255"
         y="304.05728"
         id="rect3044"
         style="opacity:0.55510206;fill:#ffe680;fill-opacity:1;stroke:none" />
    </clipPath>
    <clipPath
       id="clipPath3986">
      <rect
         width="391.00607"
         height="175.27859"
         x="-1478.6322"
         y="283.83286"
         id="rect3988"
         style="opacity:0.53061224;fill:#9955ff;fill-opacity:1;stroke:none" />
    </clipPath>
    <clipPath
       id="clipPath4018">
      <rect
         width="1500"
         height="1500"
         x="0"
         y="2.9296871e-08"
         id="rect4020"
         style="fill:#2ad4ff;fill-opacity:1;stroke:none" />
    </clipPath>
    <clipPath
       id="clipPath4024">
      <rect
         width="1500"
         height="1500"
         x="0"
         y="2.9296871e-08"
         id="rect4026"
         style="fill:#2ad4ff;fill-opacity:1;stroke:none" />
    </clipPath>
    <clipPath
       clipPathUnits="userSpaceOnUse"
       id="clipPath911">
      <rect
         style="opacity:1;fill:#aa0000;fill-opacity:1;stroke:#000000;stroke-width:3.02362204;stroke-linejoin:miter;stroke-miterlimit:4;stroke-dasharray:none;stroke-opacity:1;paint-order:stroke markers fill"
         id="rect913"
         width="692.79663"
         height="641.94916"
         x="966.10168"
         y="699.15253"
         ry="1.67204" />
    </clipPath>
    <clipPath
       clipPathUnits="userSpaceOnUse"
       id="clipPath982">
      <rect
         width="1105.9957"
         height="1105.9957"
         x="193.8522"
         y="193.01425"
         id="rect984"
         style="fill:#aa0000;fill-opacity:1;stroke:none;stroke-width:0.7373305" />
    </clipPath>
    <clipPath
       clipPathUnits="userSpaceOnUse"
       id="clipPath850">
      <rect
         style="opacity:1;fill:#5fbcd3;fill-opacity:1;stroke:none;stroke-width:3.02362204;stroke-linejoin:miter;stroke-miterlimit:4;stroke-dasharray:none;stroke-opacity:1;paint-order:stroke markers fill"
         id="rect852"
         width="394.06781"
         height="463.98306"
         x="-1201.2712"
         y="724.57629"
         ry="1.67204" />
    </clipPath>
    <clipPath
       clipPathUnits="userSpaceOnUse"
       id="clipPath908">
      <rect
         width="1092.137"
         height="1092.137"
         x="123.09277"
         y="254.79095"
         id="rect910"
         style="fill:#d35f8d;fill-opacity:1;stroke:none;stroke-width:0.7280913" />
    </clipPath>
  </defs>
  <metadata
     id="metadata7">
    <rdf:RDF>
      <cc:Work
         rdf:about="">
        <dc:format>image/svg+xml</dc:format>
        <dc:type
           rdf:resource="http://purl.org/dc/dcmitype/StillImage" />
        <dc:title />
      </cc:Work>
    </rdf:RDF>
  </metadata>
  <rect
     style="fill:#d35f8d;fill-opacity:1;stroke:none"
     id="rect3082"
     y="2.9296871e-08"
     x="0"
     height="1500"
     width="1500" />
  <g
     id="g898"
     transform="matrix(1.3734541,0,0,1.3734541,-169.06227,-349.94368)"
     clip-path="url(#clipPath908)">
    <path
       inkscape:connector-curvature="0"
       id="path880"
       d="m 711.37547,925.61482 c 0,0 226.3097,-7.68152 308.91883,59.61378 82.6092,67.2953 171.7156,178.0032 206.8181,280.6106 35.1025,102.6074 -10.8007,529.2379 -10.8007,529.2379 l -1093.57837,32.4023 c 0,0 -43.203095,-375.3269 8.10058,-542.7388 51.30368,-167.412 59.40425,-207.9149 124.20889,-259.2186 64.80464,-51.3037 75.60541,-54.00389 167.41199,-72.90525 91.80657,-18.90135 288.92068,-27.00193 288.92068,-27.00193 z"
       style="fill:#631d39;fill-opacity:1;fill-rule:evenodd;stroke:none;stroke-width:1.20160186px;stroke-linecap:butt;stroke-linejoin:miter;stroke-opacity:1" />
    <path
       sodipodi:nodetypes="cssssscc"
       inkscape:connector-curvature="0"
       id="path882"
       d="m 487.59266,826.75463 c 0,0 75.27218,163.66483 18.56812,241.97047 -56.70406,78.3055 -124.20889,75.6054 -99.90715,148.5107 24.30173,72.9051 56.70406,110.7079 170.11218,94.5067 113.40812,-16.2012 224.11604,-51.3037 248.41779,-108.0077 24.30173,-56.7041 51.30366,-105.3075 24.30173,-186.3134 C 822.08339,936.41559 719.47605,698.79858 719.47605,698.79858 Z"
       style="fill:#de87aa;fill-opacity:1;fill-rule:evenodd;stroke:none;stroke-width:1.20160186px;stroke-linecap:butt;stroke-linejoin:miter;stroke-opacity:1" />
    <path
       sodipodi:nodetypes="ccsccsscsscssssscscscssc"
       inkscape:connector-curvature="0"
       id="path854"
       d="m 355.84924,1099.7881 c 0,0 -22.33621,63.7987 50.21814,79.0733 72.55435,15.2745 148.59976,-17.184 148.59976,-82.101 0,-64.9171 -67.07448,-270.00577 -67.07448,-270.00577 l 267.30551,-42.00516 c 0,0 11.45595,122.19681 26.73054,181.38588 15.27461,59.18905 36.27718,85.91965 93.55693,89.73825 57.27975,3.8187 145.10866,-70.645 145.10866,-70.645 0,0 -66.82633,-21.00257 -89.73823,-131.74343 -22.91191,-110.74084 -34.36786,-206.2071 -80.19166,-278.76144 -45.82379,-72.55435 -82.10097,-97.37558 -82.10097,-97.37558 0,0 19.09325,-45.8238 -17.18393,-95.46625 C 714.80233,332.23945 649.88529,332.23945 592.60554,345.60473 535.32579,358.97 476.13671,427.7057 436.04089,509.80667 c -40.09583,82.10098 -78.28233,162.29263 -84.01031,221.48171 -5.72796,59.18907 -7.63729,85.91962 1.90934,116.46882 9.54662,30.5492 42.00514,63.00772 42.00514,63.00772 0,0 -38.1865,-68.7357 -40.09582,-101.19422 -1.90932,-32.45852 15.27459,-59.18907 15.27459,-59.18907 0,0 51.55179,57.27975 45.82381,118.37815 -5.72797,61.0984 -53.4611,127.92477 -53.4611,127.92477 0,0 34.36785,-32.45852 55.37042,-13.36527 21.00257,19.09322 32.45853,70.64502 5.72798,95.46622 -26.73055,24.8213 -68.7357,21.0026 -68.7357,21.0026 z"
       style="fill:#483737;fill-opacity:1;fill-rule:evenodd;stroke:none;stroke-width:1.20160186px;stroke-linecap:butt;stroke-linejoin:miter;stroke-opacity:1" />
    <path
       sodipodi:nodetypes="cscsssssssssc"
       inkscape:connector-curvature="0"
       id="path856"
       d="m 630.36968,466.58195 c 0,0 -16.20117,18.90136 -64.80465,28.35204 -48.60347,9.45067 -70.20502,-1.3501 -70.20502,-1.3501 0,0 -36.45261,48.60348 -52.65377,133.65958 -16.20117,85.05608 -10.80077,112.05801 -4.05029,163.36169 6.75048,51.30367 28.35202,102.60734 64.80463,135.00966 36.45262,32.40232 60.82221,44.4713 93.22452,47.17149 32.40232,2.70019 48.50975,4.47211 95.40523,-25.21425 48.53563,-30.72464 96.24065,-112.41372 102.99113,-151.56652 6.75048,-39.1528 13.50097,-83.70599 -2.70019,-141.76015 -16.20116,-58.05415 -5.40038,-86.40618 -40.5029,-121.50869 -35.10251,-35.10252 -59.40425,-40.5029 -78.3056,-52.65378 -18.90136,-12.15087 -43.20309,-13.50097 -43.20309,-13.50097 z"
       style="fill:#e9afc6;fill-opacity:1;fill-rule:evenodd;stroke:none;stroke-width:1.20160186px;stroke-linecap:butt;stroke-linejoin:miter;stroke-opacity:1" />
    <path
       inkscape:connector-curvature="0"
       id="path860"
       d="m 640.33867,655.39271 c 0,0 37.23184,2.38666 47.25579,-3.34132 10.02396,-5.72798 16.7066,-10.02396 29.59453,-7.15997 12.88795,2.86399 35.32252,11.93328 35.32252,11.93328 0,0 -21.00257,-34.84518 -46.30113,-31.50386 -25.29855,3.34132 -32.45853,5.25064 -44.86914,13.8426 -12.41061,8.59197 -21.00257,16.22927 -21.00257,16.22927 z"
       style="fill:#483737;fill-rule:evenodd;stroke:none;stroke-width:1.20160186px;stroke-linecap:butt;stroke-linejoin:miter;stroke-opacity:1" />
    <path
       inkscape:connector-curvature="0"
       id="path858"
       d="m 461.81678,658.25669 c 0,0 24.82122,-16.22926 29.1172,-16.22926 4.29598,0 31.9812,16.22926 40.09583,17.18393 8.11463,0.95466 36.27717,-6.20531 36.27717,-10.02395 0,-3.81866 -24.82123,-15.27461 -41.05048,-19.57059 -16.22927,-4.29598 -27.68522,-8.59196 -38.1865,-5.25064 -10.50129,3.34132 -26.25322,33.89051 -26.25322,33.89051 z"
       style="fill:#483737;fill-rule:evenodd;stroke:none;stroke-width:1.20160186px;stroke-linecap:butt;stroke-linejoin:miter;stroke-opacity:1" />
    <path
       inkscape:connector-curvature="0"
       id="path862"
       d="m 500.76039,827.73282 c 0,0 -0.67504,-10.80078 10.80078,-18.90136 11.47582,-8.10058 33.75241,-23.62669 36.4526,-30.37718 2.7002,-6.75048 4.72535,-13.50096 4.72535,-13.50096 0,0 -4.72535,12.15087 -21.60155,24.30174 -16.87621,12.15086 -19.5764,8.10058 -26.32689,19.5764 -6.75048,11.47582 -4.05029,18.90136 -4.05029,18.90136 z"
       style="fill:#de87aa;fill-rule:evenodd;stroke:none;stroke-width:1.20160186px;stroke-linecap:butt;stroke-linejoin:miter;stroke-opacity:1" />
    <path
       sodipodi:nodetypes="cscssc"
       inkscape:connector-curvature="0"
       id="path864"
       d="m 709.35033,825.70767 c 0,0 -5.40039,-2.70019 -20.25145,-22.27659 -14.85106,-19.5764 -45.90329,-45.90329 -45.90329,-45.90329 0,0 11.74429,17.14465 17.55125,22.95164 6.7505,6.75049 8.77563,10.80077 20.25145,23.6267 11.27995,12.60699 28.35204,21.60154 28.35204,21.60154 z"
       style="fill:#de87aa;fill-rule:evenodd;stroke:none;stroke-width:1.20160186px;stroke-linecap:butt;stroke-linejoin:miter;stroke-opacity:1" />
    <path
       inkscape:connector-curvature="0"
       id="path868"
       d="m 520.52852,831.52794 c 0,0 23.38923,46.77846 63.00773,47.2558 39.61849,0.47732 62.53038,-7.15998 77.80499,-19.09325 15.2746,-11.93329 36.27718,-26.25323 36.27718,-26.25323 0,0 -18.61593,10.97862 -49.64245,12.41062 -31.02654,1.43199 -97.85291,-0.47734 -97.85291,-0.47734 z"
       style="fill:#d35f8d;fill-rule:evenodd;stroke:none;stroke-width:1.20160186px;stroke-linecap:butt;stroke-linejoin:miter;stroke-opacity:1" />
    <path
       inkscape:connector-curvature="0"
       id="path866"
       d="m 520.52852,831.52794 c 0,0 21.00257,10.97862 36.27718,9.0693 15.27459,-1.90934 27.68521,3.81864 41.05048,1.43198 13.36527,-2.38664 24.82123,-8.11462 36.27718,-5.72797 11.45595,2.38665 37.23184,6.68265 46.30113,3.34133 9.0693,-3.34133 17.18393,-6.20532 17.18393,-6.20532 0,0 -31.9812,20.52525 -75.41834,21.00258 -43.43715,0.47733 -48.21046,2.38665 -68.25837,-4.29598 -20.04791,-6.68264 -33.41319,-18.61592 -33.41319,-18.61592 z"
       style="fill:#c83771;fill-rule:evenodd;stroke:none;stroke-width:1.20160186px;stroke-linecap:butt;stroke-linejoin:miter;stroke-opacity:1" />
    <path
       inkscape:connector-curvature="0"
       id="path870"
       d="m 616.86871,814.23185 c 0,0 -7.42553,-4.05029 0.67504,-8.43811 8.10059,-4.38782 27.00193,-11.81334 27.00193,-11.81334 0,0 -9.45067,13.83848 -15.86363,15.52611 -6.41296,1.68761 -11.81334,4.72534 -11.81334,4.72534 z"
       style="fill:#a02c5a;fill-rule:evenodd;stroke:none;stroke-width:1.20160186px;stroke-linecap:butt;stroke-linejoin:miter;stroke-opacity:1" />
    <path
       inkscape:connector-curvature="0"
       id="path872"
       d="m 575.35323,813.89433 c 0,0 0.67505,-9.11315 -5.06285,-13.8385 -5.73792,-4.72534 -14.17602,-13.83849 -14.17602,-13.83849 0,0 4.38782,12.82592 7.42553,16.87621 3.03772,4.05029 11.81334,10.80078 11.81334,10.80078 z"
       style="fill:#a02c5a;fill-rule:evenodd;stroke:none;stroke-width:1.20160186px;stroke-linecap:butt;stroke-linejoin:miter;stroke-opacity:1" />
    <path
       sodipodi:nodetypes="cccsc"
       inkscape:connector-curvature="0"
       id="path874"
       d="m 631.66085,768.46838 c 0,0 5.18371,2.92992 4.05682,12.8466 -1.1269,14.42425 -8.56441,22.08714 -8.56441,22.08714 0,0 15.1004,-2.47917 15.1004,-20.05872 0,-14.64966 -10.59281,-14.87502 -10.59281,-14.87502 z"
       style="fill:#f4eed7;fill-opacity:1;fill-rule:evenodd;stroke:none;stroke-width:1.60472px;stroke-linecap:butt;stroke-linejoin:miter;stroke-opacity:1" />
    <path
       sodipodi:nodetypes="csscssc"
       inkscape:connector-curvature="0"
       id="path876"
       d="m 578.76293,681.16859 c 0,0 13.8426,15.75193 7.6373,38.66384 -3.33818,12.3256 -16.16611,28.37639 -24.50048,42.44881 -7.15829,12.08662 -7.16717,27.29535 -7.16717,27.29535 0,0 -1.33736,-15.79244 3.89122,-28.61371 5.61674,-13.77312 14.83724,-29.05144 16.32049,-40.17579 2.86399,-21.47991 3.81864,-39.6185 3.81864,-39.6185 z"
       style="fill:#de87aa;fill-rule:evenodd;stroke:none;stroke-width:1.20160186px;stroke-linecap:butt;stroke-linejoin:miter;stroke-opacity:1" />
    <rect
       width="1092.137"
       height="1092.137"
       x="123.09277"
       y="254.79095"
       id="rect848"
       style="fill:#000000;fill-opacity:0.50196078;stroke:none;stroke-width:0.7280913" />
    <g
       aria-label="M"
       transform="matrix(0.72809131,0,0,0.72809131,123.09275,263.52804)"
       style="font-style:normal;font-variant:normal;font-weight:900;font-stretch:normal;font-size:1333.33337402px;line-height:125%;font-family:'Jones*';-inkscape-font-specification:'Jones* Heavy';text-align:center;letter-spacing:0px;word-spacing:0px;text-anchor:middle;fill:#ffffff;fill-opacity:1;stroke:none;stroke-width:1px;stroke-linecap:butt;stroke-linejoin:miter;stroke-opacity:1"
       id="flowRoot851">
      <path
         d="M 449.89582,612.00002 657.89583,1078.6667 H 841.89584 L 1049.8958,612.00002 V 1212 h 226.6667 V 278.66668 H 956.56251 L 749.89583,768.00002 543.22916,278.66668 H 223.22915 V 1212 h 226.66667 z"
         style=""
         id="path15578" />
    </g>
  </g>
</svg>
