<?xml version="1.0" encoding="UTF-8" standalone="no"?>
<!-- Created with Inkscape (http://www.inkscape.org/) -->

<svg
   xmlns:dc="http://purl.org/dc/elements/1.1/"
   xmlns:cc="http://creativecommons.org/ns#"
   xmlns:rdf="http://www.w3.org/1999/02/22-rdf-syntax-ns#"
   xmlns:svg="http://www.w3.org/2000/svg"
   xmlns="http://www.w3.org/2000/svg"
   xmlns:sodipodi="http://sodipodi.sourceforge.net/DTD/sodipodi-0.dtd"
   xmlns:inkscape="http://www.inkscape.org/namespaces/inkscape"
   version="1.1"
   width="1500"
   height="1500"
   id="svg2"
   sodipodi:docname="N.svg"
   inkscape:version="0.92.4 (unknown)">
  <sodipodi:namedview
     pagecolor="#ffffff"
     bordercolor="#666666"
     borderopacity="1"
     objecttolerance="10"
     gridtolerance="10"
     guidetolerance="10"
     inkscape:pageopacity="0"
     inkscape:pageshadow="2"
     inkscape:window-width="1366"
     inkscape:window-height="716"
     id="namedview56"
     showgrid="false"
     inkscape:zoom="0.1767767"
     inkscape:cx="1159.37"
     inkscape:cy="264.83039"
     inkscape:window-x="0"
     inkscape:window-y="24"
     inkscape:window-maximized="1"
     inkscape:current-layer="svg2" />
  <defs
     id="defs4">
    <clipPath
       id="clipPath3862">
      <rect
         width="744"
         height="1052"
         x="0"
         y="0.36218262"
         id="rect3864"
         style="fill:#2ad4ff;fill-opacity:1;stroke:none" />
    </clipPath>
    <clipPath
       id="clipPath3075">
      <rect
         width="880.29663"
         height="769.06781"
         x="320.97458"
         y="572.48926"
         id="rect3077"
         style="opacity:0.71836733;fill:#c8ab37;fill-opacity:1;stroke:none" />
    </clipPath>
    <clipPath
       id="clipPath3949">
      <rect
         width="750"
         height="750"
         x="0"
         y="2.6171874e-06"
         id="rect3951"
         style="fill:#2ad4ff;fill-opacity:1;stroke:none" />
    </clipPath>
    <clipPath
       id="clipPath3964">
      <path
         d="m 542.68968,295.5 -47.75218,173.03125 122.46875,0 0,-173.03125 z m -316.28343,5.625 0,156.75 84.8125,0 -35.39279,-161.80611 z"
         id="path3966"
         style="fill:#ff5f00;fill-opacity:1;stroke:#aa4400;stroke-width:3;stroke-linecap:square;stroke-miterlimit:4;stroke-opacity:1;stroke-dasharray:none" />
    </clipPath>
    <clipPath
       id="clipPath3036">
      <rect
         width="629.2052"
         height="620.21655"
         x="791.00079"
         y="-176.83527"
         id="rect3038"
         style="opacity:0.55510206;fill:#ffe680;fill-opacity:1;stroke:none" />
    </clipPath>
    <clipPath
       id="clipPath3042">
      <rect
         width="1276.3877"
         height="606.73358"
         x="480.89255"
         y="304.05728"
         id="rect3044"
         style="opacity:0.55510206;fill:#ffe680;fill-opacity:1;stroke:none" />
    </clipPath>
    <clipPath
       id="clipPath3986">
      <rect
         width="391.00607"
         height="175.27859"
         x="-1478.6322"
         y="283.83286"
         id="rect3988"
         style="opacity:0.53061224;fill:#9955ff;fill-opacity:1;stroke:none" />
    </clipPath>
    <clipPath
       id="clipPath4018">
      <rect
         width="1500"
         height="1500"
         x="0"
         y="2.9296871e-08"
         id="rect4020"
         style="fill:#2ad4ff;fill-opacity:1;stroke:none" />
    </clipPath>
    <clipPath
       id="clipPath4024">
      <rect
         width="1500"
         height="1500"
         x="0"
         y="2.9296871e-08"
         id="rect4026"
         style="fill:#2ad4ff;fill-opacity:1;stroke:none" />
    </clipPath>
    <clipPath
       clipPathUnits="userSpaceOnUse"
       id="clipPath911">
      <rect
         style="opacity:1;fill:#aa0000;fill-opacity:1;stroke:#000000;stroke-width:3.02362204;stroke-linejoin:miter;stroke-miterlimit:4;stroke-dasharray:none;stroke-opacity:1;paint-order:stroke markers fill"
         id="rect913"
         width="692.79663"
         height="641.94916"
         x="966.10168"
         y="699.15253"
         ry="1.67204" />
    </clipPath>
    <clipPath
       clipPathUnits="userSpaceOnUse"
       id="clipPath982">
      <rect
         width="1105.9957"
         height="1105.9957"
         x="193.8522"
         y="193.01425"
         id="rect984"
         style="fill:#aa0000;fill-opacity:1;stroke:none;stroke-width:0.7373305" />
    </clipPath>
    <clipPath
       clipPathUnits="userSpaceOnUse"
       id="clipPath850">
      <rect
         style="opacity:1;fill:#2d5016;fill-opacity:1;stroke:none;stroke-width:3.02362204;stroke-linejoin:miter;stroke-miterlimit:4;stroke-dasharray:none;stroke-opacity:1;paint-order:stroke markers fill"
         id="rect852"
         width="1658.8983"
         height="1741.5254"
         x="0"
         y="2.9296871e-08"
         ry="1.67204" />
    </clipPath>
    <clipPath
       clipPathUnits="userSpaceOnUse"
       id="clipPath937">
      <path
         inkscape:connector-curvature="0"
         id="path939"
         d="m 692.16869,1253.4544 c 0,0 -88.81184,18.2848 -154.11469,5.2242 -65.30283,-13.0605 -130.60567,-44.4059 -154.11469,-26.1211 -23.50901,18.2848 -23.50901,33.9575 -91.42397,67.9149 -67.91494,33.9575 -138.44201,52.2423 -182.84793,104.4845 -44.405932,52.2424 -86.199748,127.9936 -117.5451086,224.6418 -31.3453614,96.6482 -167.1752514,574.6649 -167.1752514,574.6649 l 1457.55925,41.7939 c 0,0 305.6173,-373.5323 287.3325,-488.4653 -18.2847,-114.9329 2.6122,-391.817 -101.8724,-454.5077 -104.4846,-62.6906 -211.5812,-86.1997 -287.3325,-99.2603 -75.7513,-13.0605 -219.41751,-60.0786 -219.41751,-60.0786 z"
         style="fill:#f9f9f9;fill-rule:evenodd;stroke:none;stroke-width:1.16240585px;stroke-linecap:butt;stroke-linejoin:miter;stroke-opacity:1" />
    </clipPath>
    <clipPath
       clipPathUnits="userSpaceOnUse"
       id="clipPath941">
      <path
         inkscape:connector-curvature="0"
         id="path943"
         d="m 692.16869,1253.4544 c 0,0 -88.81184,18.2848 -154.11469,5.2242 -65.30283,-13.0605 -130.60567,-44.4059 -154.11469,-26.1211 -23.50901,18.2848 -23.50901,33.9575 -91.42397,67.9149 -67.91494,33.9575 -138.44201,52.2423 -182.84793,104.4845 -44.405932,52.2424 -86.199748,127.9936 -117.5451086,224.6418 -31.3453614,96.6482 -167.1752514,574.6649 -167.1752514,574.6649 l 1457.55925,41.7939 c 0,0 305.6173,-373.5323 287.3325,-488.4653 -18.2847,-114.9329 2.6122,-391.817 -101.8724,-454.5077 -104.4846,-62.6906 -211.5812,-86.1997 -287.3325,-99.2603 -75.7513,-13.0605 -219.41751,-60.0786 -219.41751,-60.0786 z"
         style="fill:#f9f9f9;fill-rule:evenodd;stroke:none;stroke-width:1.16240585px;stroke-linecap:butt;stroke-linejoin:miter;stroke-opacity:1" />
    </clipPath>
    <clipPath
       clipPathUnits="userSpaceOnUse"
       id="clipPath945">
      <path
         inkscape:connector-curvature="0"
         id="path947"
         d="m 692.16869,1253.4544 c 0,0 -88.81184,18.2848 -154.11469,5.2242 -65.30283,-13.0605 -130.60567,-44.4059 -154.11469,-26.1211 -23.50901,18.2848 -23.50901,33.9575 -91.42397,67.9149 -67.91494,33.9575 -138.44201,52.2423 -182.84793,104.4845 -44.405932,52.2424 -86.199748,127.9936 -117.5451086,224.6418 -31.3453614,96.6482 -167.1752514,574.6649 -167.1752514,574.6649 l 1457.55925,41.7939 c 0,0 305.6173,-373.5323 287.3325,-488.4653 -18.2847,-114.9329 2.6122,-391.817 -101.8724,-454.5077 -104.4846,-62.6906 -211.5812,-86.1997 -287.3325,-99.2603 -75.7513,-13.0605 -219.41751,-60.0786 -219.41751,-60.0786 z"
         style="fill:#f9f9f9;fill-rule:evenodd;stroke:none;stroke-width:1.16240585px;stroke-linecap:butt;stroke-linejoin:miter;stroke-opacity:1" />
    </clipPath>
    <clipPath
       clipPathUnits="userSpaceOnUse"
       id="clipPath949">
      <path
         inkscape:connector-curvature="0"
         id="path951"
         d="m 692.16869,1253.4544 c 0,0 -88.81184,18.2848 -154.11469,5.2242 -65.30283,-13.0605 -130.60567,-44.4059 -154.11469,-26.1211 -23.50901,18.2848 -23.50901,33.9575 -91.42397,67.9149 -67.91494,33.9575 -138.44201,52.2423 -182.84793,104.4845 -44.405932,52.2424 -86.199748,127.9936 -117.5451086,224.6418 -31.3453614,96.6482 -167.1752514,574.6649 -167.1752514,574.6649 l 1457.55925,41.7939 c 0,0 305.6173,-373.5323 287.3325,-488.4653 -18.2847,-114.9329 2.6122,-391.817 -101.8724,-454.5077 -104.4846,-62.6906 -211.5812,-86.1997 -287.3325,-99.2603 -75.7513,-13.0605 -219.41751,-60.0786 -219.41751,-60.0786 z"
         style="fill:#f9f9f9;fill-rule:evenodd;stroke:none;stroke-width:1.16240585px;stroke-linecap:butt;stroke-linejoin:miter;stroke-opacity:1" />
    </clipPath>
    <clipPath
       clipPathUnits="userSpaceOnUse"
       id="clipPath953">
      <path
         inkscape:connector-curvature="0"
         id="path955"
         d="m 692.16869,1253.4544 c 0,0 -88.81184,18.2848 -154.11469,5.2242 -65.30283,-13.0605 -130.60567,-44.4059 -154.11469,-26.1211 -23.50901,18.2848 -23.50901,33.9575 -91.42397,67.9149 -67.91494,33.9575 -138.44201,52.2423 -182.84793,104.4845 -44.405932,52.2424 -86.199748,127.9936 -117.5451086,224.6418 -31.3453614,96.6482 -167.1752514,574.6649 -167.1752514,574.6649 l 1457.55925,41.7939 c 0,0 305.6173,-373.5323 287.3325,-488.4653 -18.2847,-114.9329 2.6122,-391.817 -101.8724,-454.5077 -104.4846,-62.6906 -211.5812,-86.1997 -287.3325,-99.2603 -75.7513,-13.0605 -219.41751,-60.0786 -219.41751,-60.0786 z"
         style="fill:#f9f9f9;fill-rule:evenodd;stroke:none;stroke-width:1.16240585px;stroke-linecap:butt;stroke-linejoin:miter;stroke-opacity:1" />
    </clipPath>
    <clipPath
       clipPathUnits="userSpaceOnUse"
       id="clipPath957">
      <path
         inkscape:connector-curvature="0"
         id="path959"
         d="m 692.16869,1253.4544 c 0,0 -88.81184,18.2848 -154.11469,5.2242 -65.30283,-13.0605 -130.60567,-44.4059 -154.11469,-26.1211 -23.50901,18.2848 -23.50901,33.9575 -91.42397,67.9149 -67.91494,33.9575 -138.44201,52.2423 -182.84793,104.4845 -44.405932,52.2424 -86.199748,127.9936 -117.5451086,224.6418 -31.3453614,96.6482 -167.1752514,574.6649 -167.1752514,574.6649 l 1457.55925,41.7939 c 0,0 305.6173,-373.5323 287.3325,-488.4653 -18.2847,-114.9329 2.6122,-391.817 -101.8724,-454.5077 -104.4846,-62.6906 -211.5812,-86.1997 -287.3325,-99.2603 -75.7513,-13.0605 -219.41751,-60.0786 -219.41751,-60.0786 z"
         style="fill:#f9f9f9;fill-rule:evenodd;stroke:none;stroke-width:1.16240585px;stroke-linecap:butt;stroke-linejoin:miter;stroke-opacity:1" />
    </clipPath>
    <clipPath
       clipPathUnits="userSpaceOnUse"
       id="clipPath961">
      <path
         inkscape:connector-curvature="0"
         id="path963"
         d="m 692.16869,1253.4544 c 0,0 -88.81184,18.2848 -154.11469,5.2242 -65.30283,-13.0605 -130.60567,-44.4059 -154.11469,-26.1211 -23.50901,18.2848 -23.50901,33.9575 -91.42397,67.9149 -67.91494,33.9575 -138.44201,52.2423 -182.84793,104.4845 -44.405932,52.2424 -86.199748,127.9936 -117.5451086,224.6418 -31.3453614,96.6482 -167.1752514,574.6649 -167.1752514,574.6649 l 1457.55925,41.7939 c 0,0 305.6173,-373.5323 287.3325,-488.4653 -18.2847,-114.9329 2.6122,-391.817 -101.8724,-454.5077 -104.4846,-62.6906 -211.5812,-86.1997 -287.3325,-99.2603 -75.7513,-13.0605 -219.41751,-60.0786 -219.41751,-60.0786 z"
         style="fill:#f9f9f9;fill-rule:evenodd;stroke:none;stroke-width:1.16240585px;stroke-linecap:butt;stroke-linejoin:miter;stroke-opacity:1" />
    </clipPath>
    <clipPath
       clipPathUnits="userSpaceOnUse"
       id="clipPath965">
      <path
         inkscape:connector-curvature="0"
         id="path967"
         d="m 692.16869,1253.4544 c 0,0 -88.81184,18.2848 -154.11469,5.2242 -65.30283,-13.0605 -130.60567,-44.4059 -154.11469,-26.1211 -23.50901,18.2848 -23.50901,33.9575 -91.42397,67.9149 -67.91494,33.9575 -138.44201,52.2423 -182.84793,104.4845 -44.405932,52.2424 -86.199748,127.9936 -117.5451086,224.6418 -31.3453614,96.6482 -167.1752514,574.6649 -167.1752514,574.6649 l 1457.55925,41.7939 c 0,0 305.6173,-373.5323 287.3325,-488.4653 -18.2847,-114.9329 2.6122,-391.817 -101.8724,-454.5077 -104.4846,-62.6906 -211.5812,-86.1997 -287.3325,-99.2603 -75.7513,-13.0605 -219.41751,-60.0786 -219.41751,-60.0786 z"
         style="fill:#f9f9f9;fill-rule:evenodd;stroke:none;stroke-width:1.16240585px;stroke-linecap:butt;stroke-linejoin:miter;stroke-opacity:1" />
    </clipPath>
    <clipPath
       clipPathUnits="userSpaceOnUse"
       id="clipPath969">
      <path
         inkscape:connector-curvature="0"
         id="path971"
         d="m 692.16869,1253.4544 c 0,0 -88.81184,18.2848 -154.11469,5.2242 -65.30283,-13.0605 -130.60567,-44.4059 -154.11469,-26.1211 -23.50901,18.2848 -23.50901,33.9575 -91.42397,67.9149 -67.91494,33.9575 -138.44201,52.2423 -182.84793,104.4845 -44.405932,52.2424 -86.199748,127.9936 -117.5451086,224.6418 -31.3453614,96.6482 -167.1752514,574.6649 -167.1752514,574.6649 l 1457.55925,41.7939 c 0,0 305.6173,-373.5323 287.3325,-488.4653 -18.2847,-114.9329 2.6122,-391.817 -101.8724,-454.5077 -104.4846,-62.6906 -211.5812,-86.1997 -287.3325,-99.2603 -75.7513,-13.0605 -219.41751,-60.0786 -219.41751,-60.0786 z"
         style="fill:#f9f9f9;fill-rule:evenodd;stroke:none;stroke-width:1.16240585px;stroke-linecap:butt;stroke-linejoin:miter;stroke-opacity:1" />
    </clipPath>
    <clipPath
       clipPathUnits="userSpaceOnUse"
       id="clipPath973">
      <path
         inkscape:connector-curvature="0"
         id="path975"
         d="m 692.16869,1253.4544 c 0,0 -88.81184,18.2848 -154.11469,5.2242 -65.30283,-13.0605 -130.60567,-44.4059 -154.11469,-26.1211 -23.50901,18.2848 -23.50901,33.9575 -91.42397,67.9149 -67.91494,33.9575 -138.44201,52.2423 -182.84793,104.4845 -44.405932,52.2424 -86.199748,127.9936 -117.5451086,224.6418 -31.3453614,96.6482 -167.1752514,574.6649 -167.1752514,574.6649 l 1457.55925,41.7939 c 0,0 305.6173,-373.5323 287.3325,-488.4653 -18.2847,-114.9329 2.6122,-391.817 -101.8724,-454.5077 -104.4846,-62.6906 -211.5812,-86.1997 -287.3325,-99.2603 -75.7513,-13.0605 -219.41751,-60.0786 -219.41751,-60.0786 z"
         style="fill:#f9f9f9;fill-rule:evenodd;stroke:none;stroke-width:1.16240585px;stroke-linecap:butt;stroke-linejoin:miter;stroke-opacity:1" />
    </clipPath>
    <clipPath
       clipPathUnits="userSpaceOnUse"
       id="clipPath977">
      <path
         inkscape:connector-curvature="0"
         id="path979"
         d="m 692.16869,1253.4544 c 0,0 -88.81184,18.2848 -154.11469,5.2242 -65.30283,-13.0605 -130.60567,-44.4059 -154.11469,-26.1211 -23.50901,18.2848 -23.50901,33.9575 -91.42397,67.9149 -67.91494,33.9575 -138.44201,52.2423 -182.84793,104.4845 -44.405932,52.2424 -86.199748,127.9936 -117.5451086,224.6418 -31.3453614,96.6482 -167.1752514,574.6649 -167.1752514,574.6649 l 1457.55925,41.7939 c 0,0 305.6173,-373.5323 287.3325,-488.4653 -18.2847,-114.9329 2.6122,-391.817 -101.8724,-454.5077 -104.4846,-62.6906 -211.5812,-86.1997 -287.3325,-99.2603 -75.7513,-13.0605 -219.41751,-60.0786 -219.41751,-60.0786 z"
         style="fill:#f9f9f9;fill-rule:evenodd;stroke:none;stroke-width:1.16240585px;stroke-linecap:butt;stroke-linejoin:miter;stroke-opacity:1" />
    </clipPath>
    <clipPath
       clipPathUnits="userSpaceOnUse"
       id="clipPath981">
      <path
         inkscape:connector-curvature="0"
         id="path983"
         d="m 692.16869,1253.4544 c 0,0 -88.81184,18.2848 -154.11469,5.2242 -65.30283,-13.0605 -130.60567,-44.4059 -154.11469,-26.1211 -23.50901,18.2848 -23.50901,33.9575 -91.42397,67.9149 -67.91494,33.9575 -138.44201,52.2423 -182.84793,104.4845 -44.405932,52.2424 -86.199748,127.9936 -117.5451086,224.6418 -31.3453614,96.6482 -167.1752514,574.6649 -167.1752514,574.6649 l 1457.55925,41.7939 c 0,0 305.6173,-373.5323 287.3325,-488.4653 -18.2847,-114.9329 2.6122,-391.817 -101.8724,-454.5077 -104.4846,-62.6906 -211.5812,-86.1997 -287.3325,-99.2603 -75.7513,-13.0605 -219.41751,-60.0786 -219.41751,-60.0786 z"
         style="fill:#f9f9f9;fill-rule:evenodd;stroke:none;stroke-width:1.16240585px;stroke-linecap:butt;stroke-linejoin:miter;stroke-opacity:1" />
    </clipPath>
    <clipPath
       clipPathUnits="userSpaceOnUse"
       id="clipPath985">
      <path
         inkscape:connector-curvature="0"
         id="path987"
         d="m 692.16869,1253.4544 c 0,0 -88.81184,18.2848 -154.11469,5.2242 -65.30283,-13.0605 -130.60567,-44.4059 -154.11469,-26.1211 -23.50901,18.2848 -23.50901,33.9575 -91.42397,67.9149 -67.91494,33.9575 -138.44201,52.2423 -182.84793,104.4845 -44.405932,52.2424 -86.199748,127.9936 -117.5451086,224.6418 -31.3453614,96.6482 -167.1752514,574.6649 -167.1752514,574.6649 l 1457.55925,41.7939 c 0,0 305.6173,-373.5323 287.3325,-488.4653 -18.2847,-114.9329 2.6122,-391.817 -101.8724,-454.5077 -104.4846,-62.6906 -211.5812,-86.1997 -287.3325,-99.2603 -75.7513,-13.0605 -219.41751,-60.0786 -219.41751,-60.0786 z"
         style="fill:#f9f9f9;fill-rule:evenodd;stroke:none;stroke-width:1.16240585px;stroke-linecap:butt;stroke-linejoin:miter;stroke-opacity:1" />
    </clipPath>
    <clipPath
       clipPathUnits="userSpaceOnUse"
       id="clipPath989">
      <path
         inkscape:connector-curvature="0"
         id="path991"
         d="m 692.16869,1253.4544 c 0,0 -88.81184,18.2848 -154.11469,5.2242 -65.30283,-13.0605 -130.60567,-44.4059 -154.11469,-26.1211 -23.50901,18.2848 -23.50901,33.9575 -91.42397,67.9149 -67.91494,33.9575 -138.44201,52.2423 -182.84793,104.4845 -44.405932,52.2424 -86.199748,127.9936 -117.5451086,224.6418 -31.3453614,96.6482 -167.1752514,574.6649 -167.1752514,574.6649 l 1457.55925,41.7939 c 0,0 305.6173,-373.5323 287.3325,-488.4653 -18.2847,-114.9329 2.6122,-391.817 -101.8724,-454.5077 -104.4846,-62.6906 -211.5812,-86.1997 -287.3325,-99.2603 -75.7513,-13.0605 -219.41751,-60.0786 -219.41751,-60.0786 z"
         style="fill:#f9f9f9;fill-rule:evenodd;stroke:none;stroke-width:1.16240585px;stroke-linecap:butt;stroke-linejoin:miter;stroke-opacity:1" />
    </clipPath>
    <clipPath
       clipPathUnits="userSpaceOnUse"
       id="clipPath993">
      <path
         inkscape:connector-curvature="0"
         id="path995"
         d="m 692.16869,1253.4544 c 0,0 -88.81184,18.2848 -154.11469,5.2242 -65.30283,-13.0605 -130.60567,-44.4059 -154.11469,-26.1211 -23.50901,18.2848 -23.50901,33.9575 -91.42397,67.9149 -67.91494,33.9575 -138.44201,52.2423 -182.84793,104.4845 -44.405932,52.2424 -86.199748,127.9936 -117.5451086,224.6418 -31.3453614,96.6482 -167.1752514,574.6649 -167.1752514,574.6649 l 1457.55925,41.7939 c 0,0 305.6173,-373.5323 287.3325,-488.4653 -18.2847,-114.9329 2.6122,-391.817 -101.8724,-454.5077 -104.4846,-62.6906 -211.5812,-86.1997 -287.3325,-99.2603 -75.7513,-13.0605 -219.41751,-60.0786 -219.41751,-60.0786 z"
         style="fill:#f9f9f9;fill-rule:evenodd;stroke:none;stroke-width:1.16240585px;stroke-linecap:butt;stroke-linejoin:miter;stroke-opacity:1" />
    </clipPath>
    <clipPath
       clipPathUnits="userSpaceOnUse"
       id="clipPath997">
      <path
         inkscape:connector-curvature="0"
         id="path999"
         d="m 692.16869,1253.4544 c 0,0 -88.81184,18.2848 -154.11469,5.2242 -65.30283,-13.0605 -130.60567,-44.4059 -154.11469,-26.1211 -23.50901,18.2848 -23.50901,33.9575 -91.42397,67.9149 -67.91494,33.9575 -138.44201,52.2423 -182.84793,104.4845 -44.405932,52.2424 -86.199748,127.9936 -117.5451086,224.6418 -31.3453614,96.6482 -167.1752514,574.6649 -167.1752514,574.6649 l 1457.55925,41.7939 c 0,0 305.6173,-373.5323 287.3325,-488.4653 -18.2847,-114.9329 2.6122,-391.817 -101.8724,-454.5077 -104.4846,-62.6906 -211.5812,-86.1997 -287.3325,-99.2603 -75.7513,-13.0605 -219.41751,-60.0786 -219.41751,-60.0786 z"
         style="fill:#f9f9f9;fill-rule:evenodd;stroke:none;stroke-width:1.16240585px;stroke-linecap:butt;stroke-linejoin:miter;stroke-opacity:1" />
    </clipPath>
    <clipPath
       clipPathUnits="userSpaceOnUse"
       id="clipPath1001">
      <path
         inkscape:connector-curvature="0"
         id="path1003"
         d="m 692.16869,1253.4544 c 0,0 -88.81184,18.2848 -154.11469,5.2242 -65.30283,-13.0605 -130.60567,-44.4059 -154.11469,-26.1211 -23.50901,18.2848 -23.50901,33.9575 -91.42397,67.9149 -67.91494,33.9575 -138.44201,52.2423 -182.84793,104.4845 -44.405932,52.2424 -86.199748,127.9936 -117.5451086,224.6418 -31.3453614,96.6482 -167.1752514,574.6649 -167.1752514,574.6649 l 1457.55925,41.7939 c 0,0 305.6173,-373.5323 287.3325,-488.4653 -18.2847,-114.9329 2.6122,-391.817 -101.8724,-454.5077 -104.4846,-62.6906 -211.5812,-86.1997 -287.3325,-99.2603 -75.7513,-13.0605 -219.41751,-60.0786 -219.41751,-60.0786 z"
         style="fill:#f9f9f9;fill-rule:evenodd;stroke:none;stroke-width:1.16240585px;stroke-linecap:butt;stroke-linejoin:miter;stroke-opacity:1" />
    </clipPath>
    <clipPath
       clipPathUnits="userSpaceOnUse"
       id="clipPath1005">
      <path
         inkscape:connector-curvature="0"
         id="path1007"
         d="m 692.16869,1253.4544 c 0,0 -88.81184,18.2848 -154.11469,5.2242 -65.30283,-13.0605 -130.60567,-44.4059 -154.11469,-26.1211 -23.50901,18.2848 -23.50901,33.9575 -91.42397,67.9149 -67.91494,33.9575 -138.44201,52.2423 -182.84793,104.4845 -44.405932,52.2424 -86.199748,127.9936 -117.5451086,224.6418 -31.3453614,96.6482 -167.1752514,574.6649 -167.1752514,574.6649 l 1457.55925,41.7939 c 0,0 305.6173,-373.5323 287.3325,-488.4653 -18.2847,-114.9329 2.6122,-391.817 -101.8724,-454.5077 -104.4846,-62.6906 -211.5812,-86.1997 -287.3325,-99.2603 -75.7513,-13.0605 -219.41751,-60.0786 -219.41751,-60.0786 z"
         style="fill:#f9f9f9;fill-rule:evenodd;stroke:none;stroke-width:1.16240585px;stroke-linecap:butt;stroke-linejoin:miter;stroke-opacity:1" />
    </clipPath>
    <clipPath
       clipPathUnits="userSpaceOnUse"
       id="clipPath1009">
      <path
         inkscape:connector-curvature="0"
         id="path1011"
         d="m 692.16869,1253.4544 c 0,0 -88.81184,18.2848 -154.11469,5.2242 -65.30283,-13.0605 -130.60567,-44.4059 -154.11469,-26.1211 -23.50901,18.2848 -23.50901,33.9575 -91.42397,67.9149 -67.91494,33.9575 -138.44201,52.2423 -182.84793,104.4845 -44.405932,52.2424 -86.199748,127.9936 -117.5451086,224.6418 -31.3453614,96.6482 -167.1752514,574.6649 -167.1752514,574.6649 l 1457.55925,41.7939 c 0,0 305.6173,-373.5323 287.3325,-488.4653 -18.2847,-114.9329 2.6122,-391.817 -101.8724,-454.5077 -104.4846,-62.6906 -211.5812,-86.1997 -287.3325,-99.2603 -75.7513,-13.0605 -219.41751,-60.0786 -219.41751,-60.0786 z"
         style="fill:#f9f9f9;fill-rule:evenodd;stroke:none;stroke-width:1.16240585px;stroke-linecap:butt;stroke-linejoin:miter;stroke-opacity:1" />
    </clipPath>
    <clipPath
       clipPathUnits="userSpaceOnUse"
       id="clipPath1013">
      <path
         inkscape:connector-curvature="0"
         id="path1015"
         d="m 692.16869,1253.4544 c 0,0 -88.81184,18.2848 -154.11469,5.2242 -65.30283,-13.0605 -130.60567,-44.4059 -154.11469,-26.1211 -23.50901,18.2848 -23.50901,33.9575 -91.42397,67.9149 -67.91494,33.9575 -138.44201,52.2423 -182.84793,104.4845 -44.405932,52.2424 -86.199748,127.9936 -117.5451086,224.6418 -31.3453614,96.6482 -167.1752514,574.6649 -167.1752514,574.6649 l 1457.55925,41.7939 c 0,0 305.6173,-373.5323 287.3325,-488.4653 -18.2847,-114.9329 2.6122,-391.817 -101.8724,-454.5077 -104.4846,-62.6906 -211.5812,-86.1997 -287.3325,-99.2603 -75.7513,-13.0605 -219.41751,-60.0786 -219.41751,-60.0786 z"
         style="fill:#f9f9f9;fill-rule:evenodd;stroke:none;stroke-width:1.16240585px;stroke-linecap:butt;stroke-linejoin:miter;stroke-opacity:1" />
    </clipPath>
    <clipPath
       clipPathUnits="userSpaceOnUse"
       id="clipPath1105">
      <rect
         width="1500"
         height="1500"
         x="0"
         y="2.9296871e-08"
         id="rect1107"
         style="fill:#f9f9f9;fill-opacity:1;stroke:none;stroke-width:5;stroke-miterlimit:4;stroke-dasharray:none;stroke-opacity:1" />
    </clipPath>
    <clipPath
       clipPathUnits="userSpaceOnUse"
       id="clipPath1109">
      <rect
         width="1500"
         height="1500"
         x="0"
         y="2.9296871e-08"
         id="rect1111"
         style="fill:#f9f9f9;fill-opacity:1;stroke:none;stroke-width:5;stroke-miterlimit:4;stroke-dasharray:none;stroke-opacity:1" />
    </clipPath>
  </defs>
  <metadata
     id="metadata7">
    <rdf:RDF>
      <cc:Work
         rdf:about="">
        <dc:format>image/svg+xml</dc:format>
        <dc:type
           rdf:resource="http://purl.org/dc/dcmitype/StillImage" />
        <dc:title />
      </cc:Work>
    </rdf:RDF>
  </metadata>
  <rect
     style="fill:#aa0000;fill-opacity:1;stroke:none"
     id="rect3082"
     y="2.9296871e-08"
     x="0"
     height="1500"
     width="1500"
     clip-path="url(#clipPath1109)" />
  <path
     style="fill:#f9f9f9;fill-rule:evenodd;stroke:none;stroke-width:1.16240585px;stroke-linecap:butt;stroke-linejoin:miter;stroke-opacity:1"
     d="M 961.2168 1143.7461 L 692.16797 1253.4551 C 692.16797 1253.4551 603.35754 1271.7383 538.05469 1258.6777 C 472.75186 1245.6172 407.44847 1214.2718 383.93945 1232.5566 C 360.43044 1250.8414 360.43059 1266.5153 292.51562 1300.4727 C 224.60068 1334.4302 154.07389 1352.7148 109.66797 1404.957 C 87.589331 1430.932 66.157971 1462.723 46.333984 1500 L 1500 1500 L 1500 1333.6309 C 1490.8887 1320.8769 1480.3028 1310.4856 1467.9668 1303.084 C 1363.4822 1240.3934 1256.3861 1216.8848 1180.6348 1203.8242 C 1104.8835 1190.7637 961.2168 1143.7461 961.2168 1143.7461 z "
     id="path856" />
  <path
     style="color:#000000;font-style:normal;font-variant:normal;font-weight:normal;font-stretch:normal;font-size:medium;line-height:normal;font-family:sans-serif;font-variant-ligatures:normal;font-variant-position:normal;font-variant-caps:normal;font-variant-numeric:normal;font-variant-alternates:normal;font-feature-settings:normal;text-indent:0;text-align:start;text-decoration:none;text-decoration-line:none;text-decoration-style:solid;text-decoration-color:#000000;letter-spacing:normal;word-spacing:normal;text-transform:none;writing-mode:lr-tb;direction:ltr;text-orientation:mixed;dominant-baseline:auto;baseline-shift:baseline;text-anchor:start;white-space:normal;shape-padding:0;clip-rule:nonzero;display:inline;overflow:visible;visibility:visible;opacity:1;isolation:auto;mix-blend-mode:normal;color-interpolation:sRGB;color-interpolation-filters:linearRGB;solid-color:#000000;solid-opacity:1;vector-effect:none;fill:#cccccc;fill-opacity:1;fill-rule:evenodd;stroke:none;stroke-width:7;stroke-linecap:butt;stroke-linejoin:miter;stroke-miterlimit:4;stroke-dasharray:none;stroke-dashoffset:0;stroke-opacity:1;color-rendering:auto;image-rendering:auto;shape-rendering:auto;text-rendering:auto;enable-background:accumulate"
     clip-path="url(#clipPath937)"
     d="m 1022.8711,1163.0156 -39.7168,6.0078 1.04687,6.9219 54.39063,-8.2285 c -5.41,-1.6038 -10.6563,-3.1716 -15.7207,-4.7012 z m 52.1894,15.2481 -58.791,11.6289 1.3594,6.8672 72.4609,-14.3321 c -5.0315,-1.3776 -10.0407,-2.7604 -15.0293,-4.164 z m 24.7266,6.8047 -69.8086,27.2421 2.543,6.5215 78.7363,-30.7265 c -3.8098,-0.9945 -7.6343,-2.0078 -11.4707,-3.0371 z m 35.6094,9.1171 -78.9688,48.5957 3.67,5.9629 84.9453,-52.2753 c -3.1742,-0.7361 -6.3883,-1.4955 -9.6465,-2.2833 z m 55.9902,11.543 c -1.0929,0.4053 -2.1597,0.7911 -3.2578,1.2012 -15.7277,5.873 -31.8595,12.1957 -44.9316,17.9805 -6.5361,2.8923 -12.3039,5.6456 -16.92,8.1777 -4.616,2.5321 -8.0262,4.6701 -10.25,7.1719 -5.4739,6.1582 -16.5348,10.971 -26.1953,13.8691 -9.6605,2.8981 -17.7636,4.0586 -17.7636,4.0586 l 0.9902,6.9297 c 0,0 8.5814,-1.2227 18.7832,-4.2832 10.2018,-3.0605 22.18,-7.7811 29.418,-15.9238 0.9542,-1.0735 4.0503,-3.306 8.3847,-5.6836 4.3344,-2.3776 9.9629,-5.0732 16.3867,-7.9161 12.8482,-5.6856 28.8922,-11.9765 44.5469,-17.8222 4.8651,-1.8167 9.6364,-3.5632 14.3203,-5.2637 -4.5907,-0.8697 -9.1024,-1.7056 -13.5117,-2.4961 z m 49.5195,9.8828 c -6.2579,2.1857 -12.6416,4.4367 -19.1757,6.7989 -21.197,7.6627 -43.148,16.0735 -61.3711,24.0976 -18.2231,8.0242 -32.5302,15.3095 -39.4239,22.2031 -11.4223,11.4225 -22.633,15.8454 -30.9843,17.5157 -8.3514,1.6702 -13.5235,0.5957 -13.5235,0.5957 l -1.373,6.8632 c 0,0 6.7448,1.3093 16.2695,-0.5957 9.5247,-1.9049 22.1502,-7.0153 34.5625,-19.4277 5.0238,-5.0237 19.3171,-12.8327 37.293,-20.748 17.9759,-7.9154 39.8219,-16.2888 60.9316,-23.92 10.2338,-3.6995 20.2668,-7.2133 29.6367,-10.4316 -4.3299,-1.0245 -8.6125,-2.0085 -12.8418,-2.9512 z m 63.2989,16.3907 c -13.4557,5.5974 -26.3355,10.432 -37.1719,13.5781 -24.4948,7.1114 -51.9157,13.4675 -76.1211,20.8691 -24.2054,7.4017 -45.2275,15.6493 -57.2637,27.6856 -21.8922,21.8921 -34.5655,26.0093 -64.4472,27.582 l 0.3691,6.9902 c 30.4997,-1.6052 46.428,-7.0218 69.0274,-29.6211 10.2095,-10.2095 30.4999,-18.6469 54.3613,-25.9433 23.8614,-7.2965 51.2617,-13.6504 76.0254,-20.8399 13.3128,-3.865 29.3438,-10.0696 45.709,-17.0879 -3.5135,-1.0992 -7.0125,-2.1754 -10.4883,-3.2128 z m 64.2812,22.2089 c -55.8252,10.3704 -117.7478,21.839 -142.4062,26.2422 -44.9856,8.0331 -62.1966,21.5467 -76.7754,39.3653 -14.1691,17.3178 -28.2027,31.149 -43.084,37.1015 -6.5068,2.6027 -18.5503,1.7504 -28.6269,-0.1875 -10.077,-1.9378 -18.2247,-4.6504 -18.2247,-4.6504 l -2.2129,6.6407 c 0,0 8.5352,2.8501 19.1153,4.8847 10.5801,2.0347 23.1658,3.5657 32.5488,-0.1875 16.8983,-6.7593 31.4679,-21.5302 45.9004,-39.1699 14.023,-17.1391 28.5924,-29.0497 72.5898,-36.9062 26.8817,-4.8004 94.8553,-17.4024 153.2149,-28.25 -4.0249,-1.6772 -8.037,-3.2987 -12.0391,-4.8829 z m 43.3086,18.8243 c -6.7006,0.8361 -13.0731,1.7146 -18.8144,2.6406 -49.2467,7.943 -100.3174,15.8785 -143.7715,33.582 -21.2568,8.6602 -35.328,12.1669 -47.041,16.0039 -11.713,3.837 -21.1777,8.1625 -31.8731,18.0352 -21.2046,19.5734 -34.5823,43.8583 -69.7285,49.9707 -34.9776,6.083 -72.5176,-12.3946 -72.5176,-12.3946 l -3.1308,6.2618 c 0,0 38.7318,19.658 76.8476,13.0293 37.947,-6.5995 53.1684,-33.1625 73.2774,-51.7246 9.9614,-9.1952 17.9774,-12.8148 29.3047,-16.5254 11.3272,-3.7107 25.8561,-7.3533 47.5019,-16.1719 42.3508,-17.2541 92.976,-25.2095 142.2461,-33.1563 8.6206,-1.3904 18.6857,-2.6797 29.3535,-3.8691 -3.8886,-1.94 -7.7735,-3.8373 -11.6543,-5.6816 z m -1071.15818,6.416 c -4.79975,0.1035 -10.3121,1.0222 -15.66602,3.6992 l -0.39843,0.2012 -0.33594,0.2929 c -11.69182,10.1929 -27.09014,17.0245 -41.44727,21.5723 -10.68574,5.1117 -21.39338,9.8948 -32.02929,14.543 16.74613,-2.319 53.24814,-9.565 77.5664,-30.4356 11.09913,-5.409 24.11524,-1.3105 24.11524,-1.3105 l 2.21484,-6.6407 c 0,0 -6.01994,-2.0944 -14.01953,-1.9218 z m 2.5625,20.3379 c -4.66796,0.093 -8.98111,0.5979 -12.35742,1.8964 -5.94438,2.2864 -12.2577,6.9438 -19.12305,11.4063 -6.86535,4.4625 -14.16338,8.696 -20.94727,10.3027 -7.53648,1.785 -21.46279,5.0409 -34.7832,7.0977 -6.6602,1.0284 -13.17258,1.7527 -18.55469,1.8594 -5.3821,0.1067 -9.68697,-0.6019 -11.33789,-1.4864 -0.12007,-0.064 -0.25086,-0.1444 -0.375,-0.2148 -2.5572,1.1153 -5.11111,2.2295 -7.64648,3.3496 1.61094,1.1849 3.19372,2.2212 4.7168,3.0371 3.91052,2.0949 8.89151,2.4293 14.78125,2.3125 5.88973,-0.1167 12.63627,-0.8823 19.48242,-1.9394 13.6923,-2.1143 27.77122,-5.4129 35.33008,-7.2032 8.31145,-1.9685 16.11018,-6.6712 23.14843,-11.2461 7.03825,-4.5748 13.4363,-9.0561 17.82032,-10.7421 3.57575,-1.3753 14.5211,-1.5537 23.81054,-0.8692 9.28944,0.6845 17.33008,1.8594 17.33008,1.8594 l 1.01172,-6.9258 c 0,0 -8.24644,-1.2082 -17.82617,-1.9141 -4.78987,-0.3529 -9.81251,-0.6727 -14.48047,-0.58 z m 1121.48438,1.3457 c -6.6354,0.5593 -13.1469,1.0996 -20.207,1.7207 -42.9315,3.7764 -90.8449,8.4979 -111.9805,12.5625 -21.4658,4.128 -44.2986,16.246 -67.3906,29.1855 -23.0921,12.9395 -46.4285,26.7438 -68.1895,34.5156 -22.7578,8.1278 -33.8173,18.2385 -42.1015,27.1289 -8.2843,8.8905 -13.5529,16.0689 -26.2129,20.5372 -5.7682,2.0358 -18.8199,3.3788 -34.4141,3.8222 -15.5942,0.4435 -33.9632,0.1491 -51.498,-0.4453 -35.0698,-1.1888 -66.79302,-3.5683 -66.79302,-3.5683 l -0.52343,6.9804 c 0,0 31.83725,2.3893 67.08005,3.584 17.6214,0.5973 36.0957,0.8976 51.9336,0.4473 15.8379,-0.4504 28.8067,-1.4896 36.5449,-4.2207 14.3527,-5.0657 21.0012,-13.7769 29.0039,-22.3653 8.0028,-8.5883 17.6003,-17.5465 39.334,-25.3086 22.7305,-8.118 46.2694,-22.1204 69.2578,-35.0019 22.9885,-12.8815 45.4433,-24.5992 65.2911,-28.416 20.1778,-3.8804 68.3979,-8.6916 111.2714,-12.4629 10.2401,-0.9008 20.1024,-1.7348 29.3106,-2.4981 -2.0909,-1.5072 -4.2328,-2.9276 -6.4336,-4.248 -1.0937,-0.6562 -2.1889,-1.3016 -3.2832,-1.9492 z m -1067.75391,23.7695 c 0,0 -34.91609,3.1641 -61.6543,3.1641 -28.38526,0 -54.1436,16.2218 -77.17383,22.3632 -10.91639,2.9111 -35.33458,3.8536 -56.5,3.8536 -9.57569,-10e-5 -18.28367,-0.1665 -25.23633,-0.3438 -4.03548,2.1527 -8.01063,4.3629 -11.91406,6.6465 5.33282,0.2027 20.02514,0.6972 37.15039,0.6973 21.33988,0 45.38634,-0.645 58.30469,-4.0899 24.63926,-6.5705 49.72898,-22.1269 75.36914,-22.1269 27.28723,0 62.28711,-3.1934 62.28711,-3.1934 z M 1500,1335.9805 c -2.5562,8e-4 -4.4633,-0.012 -7.6777,0.01 -12.4704,0.074 -29.4486,0.3223 -47.4766,1.0195 -18.028,0.6972 -37.1111,1.8414 -53.8574,3.7188 -16.7463,1.8774 -31.0393,4.3798 -40.1426,8.2812 -33.8124,14.491 -103.5824,52.5816 -141.707,73.2324 -38.1797,20.6807 -50.9651,28.6664 -73.1641,41.3516 -9.8216,5.6123 -28.1699,7.086 -49.873,6.8887 -21.7032,-0.1973 -46.7859,-1.7946 -70.8575,-0.9922 -47.86869,1.5956 -116.21952,7.9609 -192.51363,15.9082 -19.29508,2.0099 -57.42601,7.5016 -103.75586,14.6035 h 47.22656 c 25.02392,-3.6549 45.10508,-6.3771 57.25391,-7.6426 76.24827,-7.9425 144.55118,-14.2887 192.02152,-15.8711 23.5979,-0.7866 48.5686,0.7942 70.5625,0.9942 21.9939,0.1999 40.986,-0.7111 53.4101,-7.8106 22.2925,-12.7386 34.9319,-20.6424 73.0235,-41.2754 38.1466,-20.6627 108.2059,-58.8425 141.1308,-72.9531 7.5811,-3.249 21.6907,-5.911 38.1641,-7.7578 16.4733,-1.8468 35.4269,-2.9865 53.3496,-3.6797 22.5581,-0.8724 42.4741,-1.0193 54.8828,-1.0234 z m -1071.73438,14.416 c 0,0 -42.79359,9.4928 -80.56835,12.6406 -19.51682,1.6264 -32.70064,6.5607 -44.97461,10.916 -12.27398,4.3553 -23.59251,8.1406 -40.54102,8.1407 -17.47881,0 -42.16598,0 -64.57226,1.3964 -11.20315,0.7002 -21.83346,1.7471 -30.78711,3.3496 -8.95366,1.6025 -16.18419,3.6005 -21.05469,7.0098 -7.27459,5.0922 -26.71345,14.6047 -43.94531,22.5274 -0.81854,0.3763 -1.53749,0.6949 -2.345708,1.0644 -2.990978,3.7999 -5.96707,7.7058 -8.925781,11.7207 4.396002,-1.9629 9.122165,-4.0913 14.195309,-6.4238 17.32852,-7.9671 36.42187,-17.1236 45.03711,-23.1543 3.07442,-2.1521 9.74828,-4.3277 18.27344,-5.8535 8.52516,-1.5258 18.94759,-2.5638 29.99024,-3.2539 22.08522,-1.3804 46.65595,-1.3829 64.13476,-1.3828 18.00912,0 30.52559,-4.1608 42.88086,-8.545 12.35527,-4.3841 24.59607,-8.9835 43.21484,-10.5351 38.49642,-3.208 81.50782,-12.7832 81.50782,-12.7832 z M 1500,1357.8633 c -19.3326,3.0473 -74.823,12.2543 -109.0801,22.7949 -42.0489,12.9382 -148.1938,60.5392 -227.7597,100.3223 -15.4938,7.7468 -34.1135,13.9919 -53.9805,19.0195 h 25.4375 c 11.343,-3.7164 22.0334,-7.9405 31.6719,-12.7598 79.3322,-39.6661 186.1112,-87.405 226.6894,-99.8906 32.7214,-10.0681 86.7847,-19.1604 107.0215,-22.3887 z m -1045.39453,21.4883 c -9.49641,-0.012 -23.05336,1.1933 -39.29688,6.0664 -32.19998,9.66 -52.27952,22.0996 -86.38867,22.0996 -34.42733,0 -71.30992,-8.276 -101.375,3.416 -28.04199,10.9052 -66.71682,17.1811 -93.19726,40.3516 -13.2985,11.6362 -25.61984,30.0699 -37.927738,48.1347 -0.132304,0.1942 -0.26418,0.386 -0.396484,0.5801 h 8.474612 c 11.55405,-16.9379 23.08662,-33.4964 34.45898,-43.4473 24.36701,-21.3211 61.9636,-27.7551 91.125,-39.0957 27.1383,-10.5538 63.34996,-2.9394 98.83789,-2.9394 35.80611,0 57.03911,-12.9868 88.39844,-22.3946 31.07228,-9.3216 50.64453,-4.7089 50.64453,-4.7089 l 1.57422,-6.8203 c 0,0 -5.43523,-1.2302 -14.93164,-1.2422 z M 1500,1396.6133 c -13.9148,2.3181 -32.0923,6.171 -54.9746,12.625 -62.393,17.598 -91.2291,38.3847 -157.7383,66.8887 -17.6794,7.5768 -38.5283,15.8289 -59.6055,23.873 h 19.4649 c 15.2037,-5.9359 29.8908,-11.8648 42.8984,-17.4395 66.9652,-28.6994 95.3311,-49.2263 156.8789,-66.5859 22.153,-6.2483 39.6535,-10.0166 53.0762,-12.3125 z m -986.21289,11.0625 c 0,0 -76.35689,23.6758 -124.48633,23.6758 -49.48428,0 -125.60473,4.5748 -166.43945,19.2754 -26.94283,9.6993 -64.01072,26.3785 -92.00195,49.373 h 11.84374 c 26.00409,-19.2641 58.40205,-34.1013 82.5293,-42.7871 38.61444,-13.9013 115.03569,-18.8613 164.06836,-18.8613 50.38751,0 126.57422,-23.9942 126.57422,-23.9942 z m 62.28516,26.9297 c 0,0 -74.60423,15.8701 -145.91993,25.3789 -71.27867,9.5038 -136.47541,10.8883 -180.51367,30.4609 -6.30553,2.8025 -13.16862,6.0691 -20.24609,9.5547 h 16.17773 c 2.35325,-1.0944 4.68508,-2.1693 6.91016,-3.1582 41.76682,-18.563 106.8659,-20.3559 178.5957,-29.9199 71.69276,-9.5591 146.45313,-25.4688 146.45313,-25.4688 z M 1500,1439.1113 c -26.3862,8.0074 -67.7516,21.362 -99.9199,35.4356 -19.5176,8.5389 -44.0683,17.5708 -66.8653,25.4531 h 21.045 c 17.0778,-6.1627 34.1647,-12.7118 48.6269,-19.0391 30.8804,-13.51 70.7758,-26.4769 97.1133,-34.5175 z m -844.11133,22.4492 c 0,0 -42.13706,4.3723 -90.24414,10.336 -48.10708,5.9637 -101.95795,13.4376 -126.39844,19.9551 -10.10285,2.694 -21.38148,5.4582 -32.85742,8.1484 h 29.3418 c 1.78202,-0.4623 3.59882,-0.9257 5.32031,-1.3848 23.22901,-6.1944 77.42869,-13.8179 125.45508,-19.7714 48.02639,-5.9539 90.10547,-10.3204 90.10547,-10.3204 z M 1500,1474.5039 1430.1426,1500 h 20.4179 L 1500,1481.957 Z"
     id="path1036"
     inkscape:connector-curvature="0" />
  <path
     style="fill:#483737;fill-rule:evenodd;stroke:none;stroke-width:1.16240585px;stroke-linecap:butt;stroke-linejoin:miter;stroke-opacity:1"
     d="m 548.74327,1183.7732 c 0,0 -24.93508,-10.1587 -22.16451,-33.2468 2.77056,-23.0881 109.89906,-35.0938 109.89906,-35.0938 0,0 293.67985,-29.5527 311.22676,-20.3175 17.54691,9.2352 29.55269,26.7821 54.48782,44.329 24.935,17.5469 59.1053,24.0116 59.1053,24.0116 0,0 -8.3117,-3.6941 -0.9235,-21.241 7.3882,-17.5469 46.1761,-35.0938 46.1761,-35.0938 0,0 -3.6941,25.8585 14.7763,36.0173 18.4704,10.1588 23.0881,9.2353 23.0881,9.2353 0,0 -23.0881,-36.0174 -4.6177,-54.4878 18.4705,-18.4705 70.1877,12.0058 70.1877,12.0058 0,0 -36.0174,-32.3233 -24.0116,-37.8645 12.0058,-5.5411 35.0939,11.0823 35.0939,11.0823 0,0 38.7878,-50.7937 40.6349,-103.43441 1.8471,-52.64073 -58.1819,-189.32193 -58.1819,-189.32193 0,0 26.7441,-108.95141 26.7441,-158.58157 0,-49.63016 -31.3454,-127.99356 -91.424,-229.86598 -60.0786,-101.87243 -60.0786,-104.48454 -88.8119,-127.99356 -28.7332,-23.50901 -49.6301,5.22423 -49.6301,5.22423 0,0 -28.73327,-75.75129 -120.15724,-83.58763 -91.42396,-7.83634 -138.44201,-23.50902 -224.64174,31.34537 -86.19975,54.85437 -135.82991,130.60566 -175.01161,185.46004 -39.1817,54.85438 -86.19974,190.68428 -88.81185,232.4781 -2.61212,41.79382 -78.36341,96.6482 -78.36341,96.6482 0,0 54.85438,-23.50902 67.91495,-13.06057 13.06057,10.44846 -22.72683,55.35375 -57.46649,67.91495 -47.65185,17.23001 -83.58763,2.61211 -83.58763,2.61211 10.01386,20.51802 32.88647,33.12754 66.47198,45.34015 33.78219,12.28413 45.84889,25.18692 45.84889,25.18692 0,0 -79.48786,7.75999 -99.26031,39.1817 -35.5148,56.43889 5.22422,114.93298 5.22422,114.93298 0,0 -5.85802,-39.1545 20.89692,-70.52706 14.38235,-16.86457 52.24226,-15.67268 52.24226,-15.67268 0,0 -26.12113,78.36344 7.83635,117.54514 33.95748,39.1816 44.40592,65.3027 94.03608,99.2602 49.63015,33.9575 115.1738,29.5792 115.1738,29.5792 z"
     id="path858"
     inkscape:connector-curvature="0"
     sodipodi:nodetypes="csccccccccscscscssscsssscsscscscscssc" />
  <path
     sodipodi:nodetypes="ccscczccccsc"
     style="fill:#d38d5f;fill-rule:evenodd;stroke:none;stroke-width:1.16240585px;stroke-linecap:butt;stroke-linejoin:miter;stroke-opacity:1"
     d="m 414.83264,1279.8194 c 0,0 155.15163,-59.1054 181.01023,-90.5051 25.8586,-31.3998 33.24678,-75.7288 33.24678,-118.2108 0,-42.482 16.62338,-107.12848 16.62338,-107.12848 l 325.07959,74.80528 c 0,0 9.56844,63.729 17.71243,81.1294 8.14399,17.4004 24.48185,26.2021 24.48185,26.2021 0,0 -11.7181,83.8375 -5.2534,101.3844 6.4646,17.5468 24.0115,49.8701 12.9293,80.3464 -11.0823,30.4762 -78.49935,111.746 -210.56292,107.1285 -132.06359,-4.6177 -253.04491,-33.2468 -322.30904,-89.5817 -69.26411,-56.3348 -72.9582,-65.57 -72.9582,-65.57 z"
     id="path854"
     inkscape:connector-curvature="0" />
  <path
     style="fill:#deaa87;fill-rule:evenodd;stroke:none;stroke-width:1.17238152px;stroke-linecap:butt;stroke-linejoin:miter;stroke-opacity:1"
     d="m 967.05528,419.35949 c 0,0 -66.41467,-34.43281 -96.97178,-20.06619 -30.55711,14.36662 -45.17137,48.32409 -73.07135,41.79381 -27.89996,-6.53029 -61.11421,-41.79381 -78.38562,-27.42719 -17.2714,14.36662 -41.18566,39.1817 -77.05705,108.40271 -35.87139,69.22101 -91.67133,124.07539 -87.68561,190.68428 3.98571,66.60889 5.31428,180.23583 22.58569,223.3357 17.27141,43.09986 85.02847,167.17529 156.77124,185.45999 71.74278,18.2849 124.88557,15.6727 170.05695,10.4485 45.17138,-5.2242 122.22845,-92.73 138.17125,-134.52383 15.9429,-41.79381 25.2429,-134.52384 25.2429,-181.54188 0,-47.01804 29.2285,-158.03287 11.9571,-220.72359 -17.2715,-62.69071 -39.1457,-199.22005 -111.61372,-175.84231 z"
     id="path860"
     inkscape:connector-curvature="0"
     sodipodi:nodetypes="csssssscssssc" />
  <path
     inkscape:connector-curvature="0"
     style="fill:#ffffff;fill-opacity:1;fill-rule:evenodd;stroke:none;stroke-width:1.16240585px;stroke-linecap:butt;stroke-linejoin:miter;stroke-opacity:1"
     d="m 667.17252,629.11184 c -2.72564,-0.009 -5.49547,0.007 -8.31166,0.0477 -45.05896,0.65303 -63.9969,7.18352 -88.15895,9.1426 -24.16204,1.95909 -48.32611,5.87787 -48.32611,5.87787 0,0 -7.18247,26.12112 -6.52944,35.91651 0.65303,9.79546 16.32486,10.44844 20.89605,21.54993 4.5712,11.10147 11.10353,65.95556 26.77621,77.05705 15.67267,11.10148 55.50687,23.50756 103.83099,22.2015 48.32409,-1.30606 82.93511,4.57125 106.44413,-50.28313 23.50901,-54.85438 22.2023,-67.91447 37.22195,-67.91447 1.41972,0 2.84502,-0.224 4.24551,-0.6266 1.40113,0.40296 2.82739,0.6266 4.24778,0.6266 15.01966,0 13.71294,13.06009 37.22196,67.91447 23.50901,54.85438 58.12004,48.97707 106.44413,50.28313 48.32413,1.30606 88.15833,-11.10002 103.83103,-22.2015 15.6726,-11.10149 22.205,-65.95558 26.7762,-77.05705 4.5712,-11.10149 20.243,-11.75447 20.896,-21.54993 0.653,-9.79539 -6.5294,-35.91651 -6.5294,-35.91651 0,0 -24.1641,-3.91878 -48.3261,-5.87787 -24.1621,-1.95908 -43.1,-8.48957 -88.15899,-9.1426 -2.81618,-0.0408 -5.58602,-0.0574 -8.31165,-0.0477 -40.88442,0.14587 -71.724,5.92429 -96.82478,15.71972 -23.88539,9.32112 -34.82091,10.32924 -51.26618,11.36525 -16.44405,-1.03596 -27.37957,-2.04454 -51.26391,-11.36525 -25.10078,-9.79543 -55.94036,-15.57385 -96.82477,-15.71972 z m 4.8199,15.44502 c 27.51903,0.15304 54.94512,4.35818 80.90298,12.6843 34.6105,11.10148 27.31364,34.01845 21.54764,54.19943 -6.53028,22.85599 -13.29179,51.38871 -35.26266,65.3036 -19.59084,12.40754 -66.65464,12.76398 -98.60471,10.44803 -31.97441,-2.31772 -55.50899,-9.79626 -65.95745,-22.20376 -9.53656,-11.32465 -9.14217,-33.30417 -12.40731,-69.87376 -1.30607,-19.59085 0.65363,-28.73342 13.06117,-37.87582 12.40754,-9.14239 32.65259,-9.14136 69.22218,-11.75347 9.14239,-0.65303 18.32516,-0.97958 27.49816,-0.92855 z m 286.53984,0 c 9.173,-0.051 18.35577,0.27552 27.49815,0.92855 36.56959,2.61211 56.81469,2.61108 69.22219,11.75347 12.4075,9.1424 14.3672,18.28497 13.0612,37.87582 -3.2652,36.56959 -2.8708,58.54911 -12.4073,69.87376 -10.4485,12.4075 -33.9831,19.88604 -65.9575,22.20376 -31.95007,2.31595 -79.01387,1.95951 -98.60471,-10.44803 -21.97087,-13.91489 -28.73466,-42.44761 -35.26494,-65.3036 -5.766,-20.18098 -13.06057,-43.09795 21.54992,-54.19943 25.95787,-8.32612 53.38395,-12.53126 80.90299,-12.6843 z"
     id="path862" />
</svg>
