<?xml version="1.0" encoding="UTF-8" standalone="no"?>
<!-- Created with Inkscape (http://www.inkscape.org/) -->

<svg
   xmlns:dc="http://purl.org/dc/elements/1.1/"
   xmlns:cc="http://creativecommons.org/ns#"
   xmlns:rdf="http://www.w3.org/1999/02/22-rdf-syntax-ns#"
   xmlns:svg="http://www.w3.org/2000/svg"
   xmlns="http://www.w3.org/2000/svg"
   xmlns:sodipodi="http://sodipodi.sourceforge.net/DTD/sodipodi-0.dtd"
   xmlns:inkscape="http://www.inkscape.org/namespaces/inkscape"
   version="1.1"
   width="1500"
   height="1500"
   id="svg2"
   sodipodi:docname="Oh.svg"
   inkscape:version="0.92.4 (unknown)">
  <sodipodi:namedview
     pagecolor="#ffffff"
     bordercolor="#666666"
     borderopacity="1"
     objecttolerance="10"
     gridtolerance="10"
     guidetolerance="10"
     inkscape:pageopacity="0"
     inkscape:pageshadow="2"
     inkscape:window-width="1366"
     inkscape:window-height="716"
     id="namedview56"
     showgrid="false"
     inkscape:zoom="0.31466667"
     inkscape:cx="671.30759"
     inkscape:cy="624.09987"
     inkscape:window-x="0"
     inkscape:window-y="24"
     inkscape:window-maximized="1"
     inkscape:current-layer="svg2"
     showguides="false" />
  <defs
     id="defs4">
    <clipPath
       id="clipPath3862">
      <rect
         width="744"
         height="1052"
         x="0"
         y="0.36218262"
         id="rect3864"
         style="fill:#2ad4ff;fill-opacity:1;stroke:none" />
    </clipPath>
    <clipPath
       id="clipPath3075">
      <rect
         width="880.29663"
         height="769.06781"
         x="320.97458"
         y="572.48926"
         id="rect3077"
         style="opacity:0.71836733;fill:#c8ab37;fill-opacity:1;stroke:none" />
    </clipPath>
    <clipPath
       id="clipPath3949">
      <rect
         width="750"
         height="750"
         x="0"
         y="2.6171874e-06"
         id="rect3951"
         style="fill:#2ad4ff;fill-opacity:1;stroke:none" />
    </clipPath>
    <clipPath
       id="clipPath3964">
      <path
         d="m 542.68968,295.5 -47.75218,173.03125 122.46875,0 0,-173.03125 z m -316.28343,5.625 0,156.75 84.8125,0 -35.39279,-161.80611 z"
         id="path3966"
         style="fill:#ff5f00;fill-opacity:1;stroke:#aa4400;stroke-width:3;stroke-linecap:square;stroke-miterlimit:4;stroke-opacity:1;stroke-dasharray:none" />
    </clipPath>
    <clipPath
       id="clipPath3036">
      <rect
         width="629.2052"
         height="620.21655"
         x="791.00079"
         y="-176.83527"
         id="rect3038"
         style="opacity:0.55510206;fill:#ffe680;fill-opacity:1;stroke:none" />
    </clipPath>
    <clipPath
       id="clipPath3042">
      <rect
         width="1276.3877"
         height="606.73358"
         x="480.89255"
         y="304.05728"
         id="rect3044"
         style="opacity:0.55510206;fill:#ffe680;fill-opacity:1;stroke:none" />
    </clipPath>
    <clipPath
       id="clipPath3986">
      <rect
         width="391.00607"
         height="175.27859"
         x="-1478.6322"
         y="283.83286"
         id="rect3988"
         style="opacity:0.53061224;fill:#9955ff;fill-opacity:1;stroke:none" />
    </clipPath>
    <clipPath
       id="clipPath4018">
      <rect
         width="1500"
         height="1500"
         x="0"
         y="2.9296871e-08"
         id="rect4020"
         style="fill:#2ad4ff;fill-opacity:1;stroke:none" />
    </clipPath>
    <clipPath
       id="clipPath4024">
      <rect
         width="1500"
         height="1500"
         x="0"
         y="2.9296871e-08"
         id="rect4026"
         style="fill:#2ad4ff;fill-opacity:1;stroke:none" />
    </clipPath>
    <clipPath
       clipPathUnits="userSpaceOnUse"
       id="clipPath911">
      <rect
         style="opacity:1;fill:#aa0000;fill-opacity:1;stroke:#000000;stroke-width:3.02362204;stroke-linejoin:miter;stroke-miterlimit:4;stroke-dasharray:none;stroke-opacity:1;paint-order:stroke markers fill"
         id="rect913"
         width="692.79663"
         height="641.94916"
         x="966.10168"
         y="699.15253"
         ry="1.67204" />
    </clipPath>
    <clipPath
       clipPathUnits="userSpaceOnUse"
       id="clipPath982">
      <rect
         width="1105.9957"
         height="1105.9957"
         x="193.8522"
         y="193.01425"
         id="rect984"
         style="fill:#aa0000;fill-opacity:1;stroke:none;stroke-width:0.7373305" />
    </clipPath>
    <clipPath
       clipPathUnits="userSpaceOnUse"
       id="clipPath887">
      <rect
         width="1500"
         height="1500"
         x="0"
         y="2.9296871e-08"
         id="rect889"
         style="fill:#008000;fill-opacity:1;stroke:none" />
    </clipPath>
  </defs>
  <metadata
     id="metadata7">
    <rdf:RDF>
      <cc:Work
         rdf:about="">
        <dc:format>image/svg+xml</dc:format>
        <dc:type
           rdf:resource="http://purl.org/dc/dcmitype/StillImage" />
        <dc:title />
      </cc:Work>
    </rdf:RDF>
  </metadata>
  <rect
     style="fill:#008000;fill-opacity:1;stroke:none"
     id="rect3082"
     y="2.9296871e-08"
     x="0"
     height="1500"
     width="1500" />
  <g
     id="g883"
     clip-path="url(#clipPath887)">
    <path
       inkscape:connector-curvature="0"
       id="path850"
       d="m -60.381356,2008.4746 c 0,0 50.8474577,-76.2712 54.0254238,-203.3899 C -3.1779661,1677.9661 -22.245763,1604.8729 31.779661,1458.6864 85.805085,1312.5 108.05085,1118.6441 206.5678,1080.5085 c 98.51695,-38.1356 425.84745,-114.40681 425.84745,-114.40681 0,0 371.82205,-41.31355 483.05085,-15.88983 111.2288,25.42373 251.0593,60.38134 324.1525,133.47454 73.0933,73.0933 200.2119,238.3475 247.8814,432.2034 47.6695,193.856 47.6695,409.9577 47.6695,409.9577 z"
       style="fill:#800000;fill-rule:evenodd;stroke:none;stroke-width:1px;stroke-linecap:butt;stroke-linejoin:miter;stroke-opacity:1" />
    <path
       inkscape:connector-curvature="0"
       id="path852"
       d="m 457.62712,1347.4576 c 0,0 -19.0678,-165.2542 9.5339,-225.6356 28.60169,-60.3813 149.3644,-231.99149 149.3644,-231.99149 l 406.77968,15.88983 c 0,0 28.6017,12.71186 54.0254,120.76276 25.4237,108.0508 34.9576,270.1271 34.9576,270.1271 0,0 -54.0254,-3.178 -85.805,3.1779 -31.77971,6.356 -9.5339,66.7373 -31.77971,152.5424 -22.24576,85.8051 -101.69491,355.9322 -101.69491,355.9322 0,0 -127.11865,-85.8051 -171.61017,-216.1017 -44.49153,-130.2966 -76.27119,-235.1695 -76.27119,-235.1695 z"
       style="fill:#e3dbdb;fill-rule:evenodd;stroke:none;stroke-width:1px;stroke-linecap:butt;stroke-linejoin:miter;stroke-opacity:1" />
    <path
       inkscape:connector-curvature="0"
       id="path854"
       d="m 626.05932,813.55932 c 0,0 9.5339,171.61017 34.95763,260.59318 25.42373,88.9831 149.36441,375 149.36441,375 0,0 117.58474,-190.6779 143.00847,-270.1271 25.42373,-79.4491 82.62707,-381.35591 82.62707,-381.35591 z"
       style="fill:#ac9393;fill-rule:evenodd;stroke:none;stroke-width:1px;stroke-linecap:butt;stroke-linejoin:miter;stroke-opacity:1" />
    <path
       inkscape:connector-curvature="0"
       id="path856"
       d="m 581.5678,819.91525 c 0,0 -31.77966,-101.69491 -101.69492,-158.8983 C 409.95763,603.81356 390.88983,524.36441 409.95763,460.80508 429.02542,397.24576 441.73729,375 473.51695,371.82203 c 31.77966,-3.17796 85.80508,28.6017 85.80508,28.6017 0,0 -66.73728,-54.02543 -34.95762,-120.76271 31.77966,-66.73729 82.62712,-114.40678 177.9661,-139.83051 95.33898,-25.42373 282.83898,-54.025426 333.68639,-12.71187 50.8475,41.31356 114.4068,117.58475 143.0085,171.61017 28.6017,54.02543 60.3814,177.9661 28.6017,251.05933 -31.7796,73.09322 -63.5593,101.69491 -136.6525,133.47457 -73.09324,31.77966 -263.77121,101.69492 -263.77121,101.69492 z"
       style="fill:#e3dbdb;fill-rule:evenodd;stroke:none;stroke-width:1px;stroke-linecap:butt;stroke-linejoin:miter;stroke-opacity:1" />
    <path
       inkscape:connector-curvature="0"
       id="path858"
       d="m 564.08898,891.41949 c 0,0 3.17797,55.61441 42.90255,92.16102 39.72457,36.54659 103.28389,104.87289 160.48728,115.99579 57.20339,11.1229 95.33899,9.5339 130.29661,-15.8899 34.95763,-25.4237 42.90255,-27.0127 65.14831,-30.1906 22.24576,-3.178 66.73727,-76.27122 85.80507,-122.35173 19.0678,-46.08051 14.3009,-125.52966 30.1907,-173.19916 15.8898,-47.66949 22.2458,-111.22881 14.3008,-192.26694 -7.9449,-81.03814 12.7119,-162.07628 -47.6695,-192.26695 -60.38131,-30.19068 -84.21605,-55.61441 -160.48724,-44.49153 -76.27119,11.12288 -131.88559,4.76695 -185.91102,-9.5339 -54.02542,-14.30085 -112.8178,3.17797 -139.83051,81.03814 -27.01271,77.86017 -9.53389,103.2839 -6.35593,160.48729 3.17797,57.20339 -3.17796,109.63983 -3.17796,109.63983 0,0 -34.95763,-30.19068 -57.20339,-30.19068 -22.24577,0 -15.88983,20.65678 -6.35594,63.55932 9.5339,42.90254 11.12289,79.44915 22.24577,112.8178 11.12288,33.36864 23.83474,63.55932 55.6144,74.6822 z"
       style="fill:#c8b7b7;fill-rule:evenodd;stroke:none;stroke-width:1px;stroke-linecap:butt;stroke-linejoin:miter;stroke-opacity:1" />
    <path
       sodipodi:nodetypes="cssssscscscsssscsc"
       inkscape:connector-curvature="0"
       id="path860"
       d="m 788.93009,671.34534 c 0,0 -2.38348,63.55932 -37.34111,83.42161 -34.95762,19.86229 -71.50423,27.01271 -112.0233,11.91737 -40.51907,-15.09534 -76.27119,-50.84746 -77.06568,-88.98305 -0.79449,-38.13559 23.04026,-69.91525 79.44915,-73.09322 56.4089,-3.17797 87.22906,5.06016 109.63983,17.47882 19.69187,10.912 31.77966,36.5466 31.77966,36.5466 0,0 15.88984,-9.5339 31.77967,-9.5339 15.88983,0 32.57415,7.15043 32.57415,7.15043 0,0 12.71186,-34.16314 60.38135,-43.69704 47.6695,-9.53389 78.65467,-10.32839 102.48939,-1.58898 23.8348,8.73941 53.231,25.42373 50.053,63.55932 -3.178,38.1356 -12.7119,59.58687 -40.5191,74.68221 -27.80718,15.09534 -77.86015,27.8072 -106.46184,15.09534 -28.6017,-12.71187 -51.64195,-36.54661 -57.99789,-58.79238 -6.35593,-22.24576 -13.50635,-37.3411 -13.50635,-37.3411 0,0 -8.73941,-6.35593 -24.62924,-5.56144 -15.88983,0.79449 -20.65678,2.38348 -28.60169,8.73941 z"
       style="fill:#e3dbdb;fill-opacity:1;fill-rule:evenodd;stroke:none;stroke-width:1px;stroke-linecap:butt;stroke-linejoin:miter;stroke-opacity:1" />
    <path
       inkscape:connector-curvature="0"
       id="path862"
       d="m 689.61865,1042.3729 c 0,0 -21.45128,-34.9576 -13.50636,-59.58688 7.94491,-24.62924 19.0678,-50.84746 11.12288,-69.91526 -7.94491,-19.06779 -17.47881,-40.51907 -0.79449,-64.35381 16.68432,-23.83475 45.28602,-67.53178 45.28602,-67.53178 0,0 -48.46399,54.02542 -60.38136,70.70974 -11.91737,16.68433 1.58898,30.98517 3.97246,51.64195 2.38347,20.65678 3.97246,38.1356 -3.17797,65.9428 -7.15042,27.8072 -3.17796,53.23094 17.47882,73.09324 z"
       style="fill:#baa5a5;fill-rule:evenodd;stroke:none;stroke-width:1px;stroke-linecap:butt;stroke-linejoin:miter;stroke-opacity:1;fill-opacity:1" />
    <path
       inkscape:connector-curvature="0"
       id="path864"
       d="m 873.94068,750.79449 c 0,0 32.57415,32.57415 42.10805,48.46398 9.5339,15.88983 24.62924,25.42373 32.57415,46.08051 7.94492,20.65678 -7.94491,69.91526 -7.94491,69.91526 0,0 4.76695,20.65678 5.56144,45.28601 0.79449,24.62924 -4.76695,62.76485 -4.76695,62.76485 0,0 12.71186,-40.51908 11.12288,-66.7373 -1.58898,-26.21822 -3.17797,-41.31356 -3.17797,-41.31356 0,0 18.27331,-34.95763 15.88983,-54.02543 -2.38347,-19.06779 -15.88983,-33.36864 -35.75211,-56.4089 -19.86229,-23.04025 -55.61441,-54.02542 -55.61441,-54.02542 z"
       style="fill:#baa5a5;fill-rule:evenodd;stroke:none;stroke-width:1px;stroke-linecap:butt;stroke-linejoin:miter;stroke-opacity:1;fill-opacity:1" />
    <path
       sodipodi:nodetypes="cscssc"
       inkscape:connector-curvature="0"
       id="path870"
       d="m 696.05824,909.55835 c 0,0 49.96931,19.99674 119.48731,20.39398 60.38037,0.34503 124.89149,-29.94442 124.89149,-29.94442 0,0 -49.81204,-14.14986 -76.82475,-8.58842 -27.01271,5.56144 -87.39407,1.58898 -106.46187,5.56144 -19.06779,3.97246 -61.09218,12.57742 -61.09218,12.57742 z"
       style="fill:#e3dbdb;fill-rule:evenodd;stroke:none;stroke-width:1px;stroke-linecap:butt;stroke-linejoin:miter;stroke-opacity:1" />
    <path
       inkscape:connector-curvature="0"
       id="path866"
       d="m 696.05824,909.55835 c 0,0 43.25786,-23.5952 74.15632,-24.15699 30.89847,-0.56179 47.75218,4.49432 47.75218,4.49432 0,0 38.20175,-10.11222 60.67336,-9.55043 22.47162,0.56179 61.79694,19.66266 61.79694,19.66266 0,0 -74.15633,0.56179 -124.15567,1.12358 -49.99934,0.56179 -120.22313,8.42686 -120.22313,8.42686 z"
       style="fill:#e9afaf;fill-rule:evenodd;stroke:none;stroke-width:1px;stroke-linecap:butt;stroke-linejoin:miter;stroke-opacity:1" />
    <path
       sodipodi:nodetypes="cscsc"
       inkscape:connector-curvature="0"
       id="path868"
       d="m 696.05824,909.55835 c 0,0 35.95458,66.85305 115.72881,66.29126 79.77423,-0.56179 128.64999,-75.8417 128.64999,-75.8417 0,0 -57.86441,48.87576 -124.71746,51.68471 -66.85305,2.80895 -97.18973,-19.10086 -119.66134,-42.13427 z"
       style="fill:#de8787;fill-rule:evenodd;stroke:none;stroke-width:1px;stroke-linecap:butt;stroke-linejoin:miter;stroke-opacity:1" />
  </g>
  <rect
     width="1500"
     height="1500"
     x="0"
     y="0"
     id="rect848"
     style="fill:#000000;fill-opacity:0.50196078;stroke:none" />
  <g
     aria-label="O"
     transform="translate(8.515625e-6,12.000003)"
     style="font-style:normal;font-variant:normal;font-weight:900;font-stretch:normal;font-size:1333.33337402px;line-height:125%;font-family:'Jones*';-inkscape-font-specification:'Jones* Heavy';text-align:center;letter-spacing:0px;word-spacing:0px;text-anchor:middle;fill:#ffffff;fill-opacity:1;stroke:none;stroke-width:1px;stroke-linecap:butt;stroke-linejoin:miter;stroke-opacity:1"
     id="flowRoot851">
    <path
       d="m 463.59374,745.33336 c 0,-154.66668 122.66667,-293.33335 286.66668,-293.33335 164,0 286.66668,138.66667 286.66668,293.33335 0,154.66667 -122.66668,293.33334 -286.66668,293.33334 -164.00001,0 -286.66668,-138.66667 -286.66668,-293.33334 z m -226.66667,0 c 0,265.33334 226.66667,493.33334 513.33335,493.33334 286.66668,0 513.33338,-228 513.33338,-493.33334 0,-265.33335 -226.6667,-493.33335 -513.33338,-493.33335 -286.66668,0 -513.33335,228 -513.33335,493.33335 z"
       style=""
       id="path15612" />
  </g>
</svg>
