<?xml version="1.0" encoding="UTF-8" standalone="no"?>
<!-- Created with Inkscape (http://www.inkscape.org/) -->

<svg
   xmlns:dc="http://purl.org/dc/elements/1.1/"
   xmlns:cc="http://creativecommons.org/ns#"
   xmlns:rdf="http://www.w3.org/1999/02/22-rdf-syntax-ns#"
   xmlns:svg="http://www.w3.org/2000/svg"
   xmlns="http://www.w3.org/2000/svg"
   xmlns:sodipodi="http://sodipodi.sourceforge.net/DTD/sodipodi-0.dtd"
   xmlns:inkscape="http://www.inkscape.org/namespaces/inkscape"
   version="1.1"
   width="1500"
   height="1500"
   id="svg2"
   sodipodi:docname="P.svg"
   inkscape:version="0.92.4 (unknown)">
  <sodipodi:namedview
     pagecolor="#ffffff"
     bordercolor="#666666"
     borderopacity="1"
     objecttolerance="10"
     gridtolerance="10"
     guidetolerance="10"
     inkscape:pageopacity="0"
     inkscape:pageshadow="2"
     inkscape:window-width="1366"
     inkscape:window-height="716"
     id="namedview56"
     showgrid="false"
     inkscape:zoom="0.22250294"
     inkscape:cx="811.06545"
     inkscape:cy="354.81946"
     inkscape:window-x="0"
     inkscape:window-y="24"
     inkscape:window-maximized="1"
     inkscape:current-layer="svg2" />
  <defs
     id="defs4">
    <clipPath
       id="clipPath3862">
      <rect
         width="744"
         height="1052"
         x="0"
         y="0.36218262"
         id="rect3864"
         style="fill:#2ad4ff;fill-opacity:1;stroke:none" />
    </clipPath>
    <clipPath
       id="clipPath3075">
      <rect
         width="880.29663"
         height="769.06781"
         x="320.97458"
         y="572.48926"
         id="rect3077"
         style="opacity:0.71836733;fill:#c8ab37;fill-opacity:1;stroke:none" />
    </clipPath>
    <clipPath
       id="clipPath3949">
      <rect
         width="750"
         height="750"
         x="0"
         y="2.6171874e-06"
         id="rect3951"
         style="fill:#2ad4ff;fill-opacity:1;stroke:none" />
    </clipPath>
    <clipPath
       id="clipPath3964">
      <path
         d="m 542.68968,295.5 -47.75218,173.03125 122.46875,0 0,-173.03125 z m -316.28343,5.625 0,156.75 84.8125,0 -35.39279,-161.80611 z"
         id="path3966"
         style="fill:#ff5f00;fill-opacity:1;stroke:#aa4400;stroke-width:3;stroke-linecap:square;stroke-miterlimit:4;stroke-opacity:1;stroke-dasharray:none" />
    </clipPath>
    <clipPath
       id="clipPath3036">
      <rect
         width="629.2052"
         height="620.21655"
         x="791.00079"
         y="-176.83527"
         id="rect3038"
         style="opacity:0.55510206;fill:#ffe680;fill-opacity:1;stroke:none" />
    </clipPath>
    <clipPath
       id="clipPath3042">
      <rect
         width="1276.3877"
         height="606.73358"
         x="480.89255"
         y="304.05728"
         id="rect3044"
         style="opacity:0.55510206;fill:#ffe680;fill-opacity:1;stroke:none" />
    </clipPath>
    <clipPath
       id="clipPath3986">
      <rect
         width="391.00607"
         height="175.27859"
         x="-1478.6322"
         y="283.83286"
         id="rect3988"
         style="opacity:0.53061224;fill:#9955ff;fill-opacity:1;stroke:none" />
    </clipPath>
    <clipPath
       id="clipPath4018">
      <rect
         width="1500"
         height="1500"
         x="0"
         y="2.9296871e-08"
         id="rect4020"
         style="fill:#2ad4ff;fill-opacity:1;stroke:none" />
    </clipPath>
    <clipPath
       id="clipPath4024">
      <rect
         width="1500"
         height="1500"
         x="0"
         y="2.9296871e-08"
         id="rect4026"
         style="fill:#2ad4ff;fill-opacity:1;stroke:none" />
    </clipPath>
    <clipPath
       clipPathUnits="userSpaceOnUse"
       id="clipPath911">
      <rect
         style="opacity:1;fill:#aa0000;fill-opacity:1;stroke:#000000;stroke-width:3.02362204;stroke-linejoin:miter;stroke-miterlimit:4;stroke-dasharray:none;stroke-opacity:1;paint-order:stroke markers fill"
         id="rect913"
         width="692.79663"
         height="641.94916"
         x="966.10168"
         y="699.15253"
         ry="1.67204" />
    </clipPath>
    <clipPath
       clipPathUnits="userSpaceOnUse"
       id="clipPath982">
      <rect
         width="1105.9957"
         height="1105.9957"
         x="193.8522"
         y="193.01425"
         id="rect984"
         style="fill:#aa0000;fill-opacity:1;stroke:none;stroke-width:0.7373305" />
    </clipPath>
    <clipPath
       clipPathUnits="userSpaceOnUse"
       id="clipPath850">
      <rect
         style="opacity:1;fill:#e3dbdb;fill-opacity:1;stroke:none;stroke-width:7;stroke-linejoin:miter;stroke-miterlimit:4;stroke-dasharray:none;stroke-opacity:1;paint-order:stroke markers fill"
         id="rect852"
         width="728.08026"
         height="656.17114"
         x="-341.56854"
         y="502.26035"
         ry="1.67204" />
    </clipPath>
    <clipPath
       clipPathUnits="userSpaceOnUse"
       id="clipPath922">
      <rect
         width="1500"
         height="1500"
         x="0"
         y="2.9296871e-08"
         id="rect924"
         style="fill:#d40055;fill-opacity:1;stroke:none" />
    </clipPath>
  </defs>
  <metadata
     id="metadata7">
    <rdf:RDF>
      <cc:Work
         rdf:about="">
        <dc:format>image/svg+xml</dc:format>
        <dc:type
           rdf:resource="http://purl.org/dc/dcmitype/StillImage" />
        <dc:title />
      </cc:Work>
    </rdf:RDF>
  </metadata>
  <rect
     style="fill:#d40055;fill-opacity:1;stroke:none"
     id="rect3082"
     y="2.9296871e-08"
     x="0"
     height="1500"
     width="1500" />
  <path
     style="fill:#217821;fill-rule:evenodd;stroke:none;stroke-width:1.11539984px;stroke-linecap:butt;stroke-linejoin:miter;stroke-opacity:1"
     d="M 459.00195 971.33984 C 424.2245 971.53567 391.01335 973.41441 360.93555 977.80078 C 240.62436 995.34608 92.741547 1010.3849 32.585938 1073.0469 C 22.666528 1083.3796 11.584796 1100.0091 0 1120.5332 L 0 1500 L 1279.7305 1500 C 1278.826 1463.4219 1274.1251 1409.731 1258.2559 1346.2539 C 1228.1781 1225.9426 1218.1517 1183.332 1095.334 1120.6699 C 972.51641 1058.0078 892.30925 1002.8658 771.99805 992.83984 C 681.76464 985.32042 563.33432 970.75235 459.00195 971.33984 z "
     id="path883" />
  <path
     style="fill:#de8787;fill-rule:evenodd;stroke:none;stroke-width:1.11539984px;stroke-linecap:butt;stroke-linejoin:miter;stroke-opacity:1"
     d="m 553.9346,714.62036 c 0,0 12.53242,203.02514 12.53242,278.21964 0,75.1946 50.12967,308.2975 45.11669,340.8818 -5.01296,32.5843 -73.83058,60.5856 -73.83058,60.5856 154.11184,3.5093 308.22366,40.637 462.33547,-53.0661 L 987.55623,792.32134 Z"
     id="path885"
     inkscape:connector-curvature="0"
     sodipodi:nodetypes="csscccc" />
  <path
     style="fill:#483e37;fill-rule:evenodd;stroke:none;stroke-width:1.11539984px;stroke-linecap:butt;stroke-linejoin:miter;stroke-opacity:1"
     d="M 740.57617 132.48242 C 721.94644 132.72475 700.56417 139.069 674.24609 153.16797 C 604.06456 190.76522 538.89496 250.9213 458.6875 378.75195 C 378.48003 506.5826 323.33825 722.1405 235.61133 895.08789 C 147.88442 1068.0353 35.091797 1105.6309 35.091797 1105.6309 C 35.091797 1105.6309 100.2612 1105.6318 172.94922 1070.541 C 245.63723 1035.4503 338.37695 865.00977 338.37695 865.00977 C 338.37695 865.00977 335.86975 947.72328 270.70117 1063.0215 C 205.53261 1178.3198 20.052734 1263.541 20.052734 1263.541 C 20.052734 1263.541 187.98785 1238.4762 268.19531 1153.2559 C 348.40279 1068.0355 413.57227 915.13867 413.57227 915.13867 C 413.57227 915.13867 408.55843 1070.5417 393.51953 1130.6973 C 378.48063 1190.8529 375.97372 1278.5796 293.25977 1413.9297 C 272.2231 1448.3533 252.98304 1476.7492 235.9668 1500 L 648.98047 1500 C 634.99075 1356.9151 611.58398 1102.3669 611.58398 1000.3594 C 611.58398 854.9833 621.60938 757.23047 621.60938 757.23047 L 982.54297 727.15234 C 982.54297 727.15234 929.90733 965.26885 909.85547 1078.0605 C 889.8036 1190.8523 917.37506 1298.6308 980.03711 1408.916 C 999.71061 1443.5414 1035.6927 1474.2117 1075.8008 1500 L 1172.0059 1500 C 1118.402 1446.0863 1059.2779 1376.0192 1040.1914 1313.6699 C 1002.5942 1190.8522 1045.2059 1108.1392 1065.2578 1035.4512 C 1085.3097 962.76307 1098.051 698.22514 1085.6445 485.54297 C 1073.2381 272.86081 937.4272 174.47254 888.55078 163.19336 C 839.67435 151.91419 820.875 174.47266 820.875 174.47266 C 795.02689 148.62454 771.62572 132.07854 740.57617 132.48242 z "
     id="path887" />
  <path
     sodipodi:nodetypes="cssccsssscsssc"
     style="fill:#e9afaf;fill-rule:evenodd;stroke:none;stroke-width:1.11539984px;stroke-linecap:butt;stroke-linejoin:miter;stroke-opacity:1"
     d="m 537.64245,655.718 c 0,0 13.78566,82.71395 32.58429,141.61631 18.79862,58.90235 63.51345,109.76809 122.81769,149.13569 59.19395,39.2944 66.4218,43.8636 100.25932,46.37 33.83753,2.5065 76.44775,-15.0388 110.28527,-38.8505 33.83753,-23.8116 72.68801,-67.675 93.99311,-132.84359 21.30507,-65.16858 33.83747,-124.07093 33.83747,-185.47978 0,-61.40884 -2.5064,-213.05108 -31.331,-276.96641 -28.82457,-63.91533 -65.16853,-112.79175 -106.52551,-134.09685 -41.35697,-21.30512 -72.68801,-26.31808 -72.68801,-26.31808 0,0 11.27916,12.53242 -21.30511,26.31808 -32.58429,13.78565 -92.73988,1.25324 -109.03203,10.02593 -16.29214,8.77269 -66.42181,131.59037 -81.46071,187.98625 -15.0389,56.39588 -71.43478,233.10295 -71.43478,233.10295 z"
     id="path889"
     inkscape:connector-curvature="0" />
  <path
     style="fill:#483737;fill-rule:evenodd;stroke:none;stroke-width:1.11539984px;stroke-linecap:butt;stroke-linejoin:miter;stroke-opacity:1"
     d="m 750.06692,483.39727 c 0,0 -22.55835,-41.35697 -73.94126,-43.86346 -51.38291,-2.50649 -116.55148,26.31808 -116.55148,26.31808 l 1.25324,28.82455 c 0,0 16.29214,-24.43821 49.50305,-31.33103 33.21091,-6.89284 69.55492,-3.13311 87.72692,4.38634 18.172,7.51944 40.10373,18.172 52.00953,15.66552 z"
     id="path891"
     inkscape:connector-curvature="0" />
  <path
     style="fill:#483737;fill-rule:evenodd;stroke:none;stroke-width:1.11539984px;stroke-linecap:butt;stroke-linejoin:miter;stroke-opacity:1"
     d="m 858.47233,478.38431 c 0,0 24.4382,-40.73037 72.68801,-52.63615 48.24979,-11.9058 69.55486,10.02592 80.83406,24.4382 11.2792,14.41229 29.4512,63.28871 29.4512,63.28871 0,0 -21.9317,-63.28871 -58.90237,-70.18153 -36.97061,-6.89284 -68.92827,11.27917 -85.84703,23.18497 -16.91877,11.9058 -38.22387,11.9058 -38.22387,11.9058 z"
     id="path893"
     inkscape:connector-curvature="0" />
  <path
     style="fill:#de8787;fill-rule:evenodd;stroke:none;stroke-width:1.11539984px;stroke-linecap:butt;stroke-linejoin:miter;stroke-opacity:1"
     d="m 787.66417,695.19512 c 0,0 -6.89283,-9.39932 -14.41228,-10.65256 -7.51945,-1.25324 -14.09897,2.19318 -15.35221,6.89282 -1.25324,4.69966 6.26621,11.27918 14.41228,9.71263 8.14607,-1.56655 15.35221,-5.95289 15.35221,-5.95289 z"
     id="path895"
     inkscape:connector-curvature="0" />
  <path
     style="fill:#de8787;fill-rule:evenodd;stroke:none;stroke-width:1.11539984px;stroke-linecap:butt;stroke-linejoin:miter;stroke-opacity:1"
     d="m 831.84094,694.25518 c 0,0 8.14607,-10.65256 16.60545,-10.65256 8.45938,0 15.0389,6.57952 12.53242,10.96587 -2.50648,4.38635 -13.47235,8.14607 -18.48531,5.32627 -5.01298,-2.81978 -10.65256,-5.63958 -10.65256,-5.63958 z"
     id="path897"
     inkscape:connector-curvature="0" />
  <path
     style="fill:#c83771;fill-rule:evenodd;stroke:none;stroke-width:1.11539984px;stroke-linecap:butt;stroke-linejoin:miter;stroke-opacity:1"
     d="m 698.05739,793.88789 c 0,0 55.76925,-19.73855 71.43478,-20.36517 15.66552,-0.62662 21.3051,6.2662 30.70442,6.57952 9.39931,0.3133 24.75152,-7.83276 33.83753,-6.26622 9.086,1.56656 77.38766,24.75153 77.38766,24.75153 l -70.80815,19.42524 -84.59381,-8.45938 z"
     id="path899"
     inkscape:connector-curvature="0" />
  <path
     style="fill:#d35f8d;fill-rule:evenodd;stroke:none;stroke-width:1.11539984px;stroke-linecap:butt;stroke-linejoin:miter;stroke-opacity:1"
     d="m 698.37071,790.12817 c 0,0 10.02592,21.93172 36.344,33.83752 26.31807,11.9058 36.97063,16.60546 61.72216,16.29215 24.75151,-0.31331 67.04842,-3.75973 82.40064,-13.78567 15.3522,-10.02592 32.58427,-27.88462 32.58427,-27.88462 0,0 -41.35697,-2.19317 -58.27573,0 -16.91877,2.19317 -30.39111,5.63959 -46.05664,4.07304 -15.66552,-1.56656 -37.59724,-8.45939 -51.38291,-8.45939 -13.78565,0 -57.33579,-4.07303 -57.33579,-4.07303 z"
     id="path901"
     inkscape:connector-curvature="0" />
  <path
     style="fill:#ac9393;fill-rule:evenodd;stroke:none;stroke-width:1.11539984px;stroke-linecap:butt;stroke-linejoin:miter;stroke-opacity:1"
     d="M 719.21046,214.69208 C 645.72844,161.16416 560.89216,405.17394 534.31277,589.17023 510.74551,752.31501 508.8179,997.853 481.24658,1088.0864 c -27.57131,90.2334 -65.42049,227.1256 -143.47772,309.0316 -39.20384,41.1368 -89.32114,104.2863 -89.32114,104.2863 0,0 128.13474,-157.3526 175.75792,-307.7416 47.62318,-150.389 62.17065,-425.70892 79.82959,-554.77124 17.97543,-131.37535 30.59437,-183.81817 61.79753,-287.10301 41.81851,-138.42254 121.8428,-180.01879 153.3777,-137.09637 z"
     id="path903"
     inkscape:connector-curvature="0"
     sodipodi:nodetypes="cssscsssc" />
</svg>
