<?xml version="1.0" encoding="UTF-8" standalone="no"?>
<!-- Created with Inkscape (http://www.inkscape.org/) -->

<svg
   xmlns:dc="http://purl.org/dc/elements/1.1/"
   xmlns:cc="http://creativecommons.org/ns#"
   xmlns:rdf="http://www.w3.org/1999/02/22-rdf-syntax-ns#"
   xmlns:svg="http://www.w3.org/2000/svg"
   xmlns="http://www.w3.org/2000/svg"
   xmlns:sodipodi="http://sodipodi.sourceforge.net/DTD/sodipodi-0.dtd"
   xmlns:inkscape="http://www.inkscape.org/namespaces/inkscape"
   version="1.1"
   width="1500"
   height="1500"
   id="svg2"
   sodipodi:docname="Ph.svg"
   inkscape:version="0.92.4 (unknown)">
  <sodipodi:namedview
     pagecolor="#ffffff"
     bordercolor="#666666"
     borderopacity="1"
     objecttolerance="10"
     gridtolerance="10"
     guidetolerance="10"
     inkscape:pageopacity="0"
     inkscape:pageshadow="2"
     inkscape:window-width="1366"
     inkscape:window-height="716"
     id="namedview56"
     showgrid="false"
     inkscape:zoom="0.22250294"
     inkscape:cx="271.74673"
     inkscape:cy="354.81946"
     inkscape:window-x="0"
     inkscape:window-y="24"
     inkscape:window-maximized="1"
     inkscape:current-layer="g918" />
  <defs
     id="defs4">
    <clipPath
       id="clipPath3862">
      <rect
         width="744"
         height="1052"
         x="0"
         y="0.36218262"
         id="rect3864"
         style="fill:#2ad4ff;fill-opacity:1;stroke:none" />
    </clipPath>
    <clipPath
       id="clipPath3075">
      <rect
         width="880.29663"
         height="769.06781"
         x="320.97458"
         y="572.48926"
         id="rect3077"
         style="opacity:0.71836733;fill:#c8ab37;fill-opacity:1;stroke:none" />
    </clipPath>
    <clipPath
       id="clipPath3949">
      <rect
         width="750"
         height="750"
         x="0"
         y="2.6171874e-06"
         id="rect3951"
         style="fill:#2ad4ff;fill-opacity:1;stroke:none" />
    </clipPath>
    <clipPath
       id="clipPath3964">
      <path
         d="m 542.68968,295.5 -47.75218,173.03125 122.46875,0 0,-173.03125 z m -316.28343,5.625 0,156.75 84.8125,0 -35.39279,-161.80611 z"
         id="path3966"
         style="fill:#ff5f00;fill-opacity:1;stroke:#aa4400;stroke-width:3;stroke-linecap:square;stroke-miterlimit:4;stroke-opacity:1;stroke-dasharray:none" />
    </clipPath>
    <clipPath
       id="clipPath3036">
      <rect
         width="629.2052"
         height="620.21655"
         x="791.00079"
         y="-176.83527"
         id="rect3038"
         style="opacity:0.55510206;fill:#ffe680;fill-opacity:1;stroke:none" />
    </clipPath>
    <clipPath
       id="clipPath3042">
      <rect
         width="1276.3877"
         height="606.73358"
         x="480.89255"
         y="304.05728"
         id="rect3044"
         style="opacity:0.55510206;fill:#ffe680;fill-opacity:1;stroke:none" />
    </clipPath>
    <clipPath
       id="clipPath3986">
      <rect
         width="391.00607"
         height="175.27859"
         x="-1478.6322"
         y="283.83286"
         id="rect3988"
         style="opacity:0.53061224;fill:#9955ff;fill-opacity:1;stroke:none" />
    </clipPath>
    <clipPath
       id="clipPath4018">
      <rect
         width="1500"
         height="1500"
         x="0"
         y="2.9296871e-08"
         id="rect4020"
         style="fill:#2ad4ff;fill-opacity:1;stroke:none" />
    </clipPath>
    <clipPath
       id="clipPath4024">
      <rect
         width="1500"
         height="1500"
         x="0"
         y="2.9296871e-08"
         id="rect4026"
         style="fill:#2ad4ff;fill-opacity:1;stroke:none" />
    </clipPath>
    <clipPath
       clipPathUnits="userSpaceOnUse"
       id="clipPath911">
      <rect
         style="opacity:1;fill:#aa0000;fill-opacity:1;stroke:#000000;stroke-width:3.02362204;stroke-linejoin:miter;stroke-miterlimit:4;stroke-dasharray:none;stroke-opacity:1;paint-order:stroke markers fill"
         id="rect913"
         width="692.79663"
         height="641.94916"
         x="966.10168"
         y="699.15253"
         ry="1.67204" />
    </clipPath>
    <clipPath
       clipPathUnits="userSpaceOnUse"
       id="clipPath982">
      <rect
         width="1105.9957"
         height="1105.9957"
         x="193.8522"
         y="193.01425"
         id="rect984"
         style="fill:#aa0000;fill-opacity:1;stroke:none;stroke-width:0.7373305" />
    </clipPath>
    <clipPath
       clipPathUnits="userSpaceOnUse"
       id="clipPath850">
      <rect
         style="opacity:1;fill:#e3dbdb;fill-opacity:1;stroke:none;stroke-width:7;stroke-linejoin:miter;stroke-miterlimit:4;stroke-dasharray:none;stroke-opacity:1;paint-order:stroke markers fill"
         id="rect852"
         width="728.08026"
         height="656.17114"
         x="-341.56854"
         y="502.26035"
         ry="1.67204" />
    </clipPath>
    <clipPath
       clipPathUnits="userSpaceOnUse"
       id="clipPath922">
      <rect
         width="1500"
         height="1500"
         x="0"
         y="2.9296871e-08"
         id="rect924"
         style="fill:#d40055;fill-opacity:1;stroke:none" />
    </clipPath>
  </defs>
  <metadata
     id="metadata7">
    <rdf:RDF>
      <cc:Work
         rdf:about="">
        <dc:format>image/svg+xml</dc:format>
        <dc:type
           rdf:resource="http://purl.org/dc/dcmitype/StillImage" />
        <dc:title />
      </cc:Work>
    </rdf:RDF>
  </metadata>
  <rect
     style="fill:#d40055;fill-opacity:1;stroke:none"
     id="rect3082"
     y="2.9296871e-08"
     x="0"
     height="1500"
     width="1500" />
  <g
     id="g918"
     clip-path="url(#clipPath922)">
    <path
       inkscape:connector-curvature="0"
       id="path883"
       d="m 1278.3082,1551.7858 c 0,0 10.026,-85.2205 -20.0518,-205.5316 -30.0778,-120.3113 -40.1038,-162.9214 -162.9215,-225.5835 C 972.51733,1058.0086 892.30985,1002.866 771.99865,992.84 651.68744,982.8141 481.24658,960.2557 360.93537,977.8012 c -120.31119,17.5453 -268.193703,32.5843 -328.349312,95.2463 -60.1556,62.662 -162.921418,355.9206 -162.921418,355.9206 v 180.4668 z"
       style="fill:#217821;fill-rule:evenodd;stroke:none;stroke-width:1.11539984px;stroke-linecap:butt;stroke-linejoin:miter;stroke-opacity:1" />
    <path
       sodipodi:nodetypes="csscccc"
       inkscape:connector-curvature="0"
       id="path885"
       d="m 553.9346,714.62036 c 0,0 12.53242,203.02514 12.53242,278.21964 0,75.1946 50.12967,308.2975 45.11669,340.8818 -5.01296,32.5843 -73.83058,60.5856 -73.83058,60.5856 154.11184,3.5093 308.22366,40.637 462.33547,-53.0661 L 987.55623,792.32134 Z"
       style="fill:#de8787;fill-rule:evenodd;stroke:none;stroke-width:1.11539984px;stroke-linecap:butt;stroke-linejoin:miter;stroke-opacity:1" />
    <path
       inkscape:connector-curvature="0"
       id="path887"
       d="m 820.87508,174.4732 c 0,0 18.79862,-22.55835 67.67505,-11.27918 48.87642,11.27918 184.68867,109.66661 197.09507,322.34877 12.4065,212.68217 -0.3361,477.21941 -20.388,549.90751 -20.0519,72.688 -62.6621,155.4019 -25.0649,278.2196 37.5973,122.8177 230.5965,275.7131 230.5965,275.7131 0,0 -228.09,-70.1815 -290.75207,-180.4668 -62.66205,-110.2852 -90.23336,-218.064 -70.18149,-330.8558 20.05186,-112.7917 72.68799,-350.90763 72.68799,-350.90763 l -360.93358,30.07781 c 0,0 -10.02594,97.75284 -10.02594,243.12892 0,145.376 47.62319,601.5559 47.62319,601.5559 l -503.80316,-10.0259 c 0,0 55.14264,-42.6101 137.85659,-177.9603 82.71395,-135.3501 85.22043,-223.077 100.25933,-283.2326 15.0389,-60.1556 20.05187,-215.5576 20.05187,-215.5576 0,0 -65.16856,152.8956 -145.37604,238.116 -80.20746,85.2203 -248.141849,110.2853 -248.141849,110.2853 0,0 185.479769,-85.2205 250.648329,-200.5188 65.16858,-115.2982 67.67506,-198.0121 67.67506,-198.0121 0,0 -92.73989,170.4409 -165.4279,205.5316 -72.68802,35.0908 -137.856589,35.0908 -137.856589,35.0908 0,0 112.791759,-37.5972 200.518669,-210.5446 C 323.33813,722.13981 378.48076,506.58224 458.68823,378.75159 538.89569,250.92094 604.06427,190.76534 674.2458,153.16809 744.42734,115.57084 779.5181,133.11622 820.87508,174.4732 Z"
       style="fill:#483e37;fill-rule:evenodd;stroke:none;stroke-width:1.11539984px;stroke-linecap:butt;stroke-linejoin:miter;stroke-opacity:1" />
    <path
       inkscape:connector-curvature="0"
       id="path889"
       d="m 537.64245,655.718 c 0,0 13.78566,82.71395 32.58429,141.61631 18.79862,58.90235 63.51345,109.76809 122.81769,149.13569 59.19395,39.2944 66.4218,43.8636 100.25932,46.37 33.83753,2.5065 76.44775,-15.0388 110.28527,-38.8505 33.83753,-23.8116 72.68801,-67.675 93.99311,-132.84359 21.30507,-65.16858 33.83747,-124.07093 33.83747,-185.47978 0,-61.40884 -2.5064,-213.05108 -31.331,-276.96641 -28.82457,-63.91533 -65.16853,-112.79175 -106.52551,-134.09685 -41.35697,-21.30512 -72.68801,-26.31808 -72.68801,-26.31808 0,0 11.27916,12.53242 -21.30511,26.31808 -32.58429,13.78565 -92.73988,1.25324 -109.03203,10.02593 -16.29214,8.77269 -66.42181,131.59037 -81.46071,187.98625 -15.0389,56.39588 -71.43478,233.10295 -71.43478,233.10295 z"
       style="fill:#e9afaf;fill-rule:evenodd;stroke:none;stroke-width:1.11539984px;stroke-linecap:butt;stroke-linejoin:miter;stroke-opacity:1"
       sodipodi:nodetypes="cssccsssscsssc" />
    <path
       inkscape:connector-curvature="0"
       id="path891"
       d="m 750.06692,483.39727 c 0,0 -22.55835,-41.35697 -73.94126,-43.86346 -51.38291,-2.50649 -116.55148,26.31808 -116.55148,26.31808 l 1.25324,28.82455 c 0,0 16.29214,-24.43821 49.50305,-31.33103 33.21091,-6.89284 69.55492,-3.13311 87.72692,4.38634 18.172,7.51944 40.10373,18.172 52.00953,15.66552 z"
       style="fill:#483737;fill-rule:evenodd;stroke:none;stroke-width:1.11539984px;stroke-linecap:butt;stroke-linejoin:miter;stroke-opacity:1" />
    <path
       inkscape:connector-curvature="0"
       id="path893"
       d="m 858.47233,478.38431 c 0,0 24.4382,-40.73037 72.68801,-52.63615 48.24979,-11.9058 69.55486,10.02592 80.83406,24.4382 11.2792,14.41229 29.4512,63.28871 29.4512,63.28871 0,0 -21.9317,-63.28871 -58.90237,-70.18153 -36.97061,-6.89284 -68.92827,11.27917 -85.84703,23.18497 -16.91877,11.9058 -38.22387,11.9058 -38.22387,11.9058 z"
       style="fill:#483737;fill-rule:evenodd;stroke:none;stroke-width:1.11539984px;stroke-linecap:butt;stroke-linejoin:miter;stroke-opacity:1" />
    <path
       inkscape:connector-curvature="0"
       id="path895"
       d="m 787.66417,695.19512 c 0,0 -6.89283,-9.39932 -14.41228,-10.65256 -7.51945,-1.25324 -14.09897,2.19318 -15.35221,6.89282 -1.25324,4.69966 6.26621,11.27918 14.41228,9.71263 8.14607,-1.56655 15.35221,-5.95289 15.35221,-5.95289 z"
       style="fill:#de8787;fill-rule:evenodd;stroke:none;stroke-width:1.11539984px;stroke-linecap:butt;stroke-linejoin:miter;stroke-opacity:1" />
    <path
       inkscape:connector-curvature="0"
       id="path897"
       d="m 831.84094,694.25518 c 0,0 8.14607,-10.65256 16.60545,-10.65256 8.45938,0 15.0389,6.57952 12.53242,10.96587 -2.50648,4.38635 -13.47235,8.14607 -18.48531,5.32627 -5.01298,-2.81978 -10.65256,-5.63958 -10.65256,-5.63958 z"
       style="fill:#de8787;fill-rule:evenodd;stroke:none;stroke-width:1.11539984px;stroke-linecap:butt;stroke-linejoin:miter;stroke-opacity:1" />
    <path
       inkscape:connector-curvature="0"
       id="path899"
       d="m 698.05739,793.88789 c 0,0 55.76925,-19.73855 71.43478,-20.36517 15.66552,-0.62662 21.3051,6.2662 30.70442,6.57952 9.39931,0.3133 24.75152,-7.83276 33.83753,-6.26622 9.086,1.56656 77.38766,24.75153 77.38766,24.75153 l -70.80815,19.42524 -84.59381,-8.45938 z"
       style="fill:#c83771;fill-rule:evenodd;stroke:none;stroke-width:1.11539984px;stroke-linecap:butt;stroke-linejoin:miter;stroke-opacity:1" />
    <path
       inkscape:connector-curvature="0"
       id="path901"
       d="m 698.37071,790.12817 c 0,0 10.02592,21.93172 36.344,33.83752 26.31807,11.9058 36.97063,16.60546 61.72216,16.29215 24.75151,-0.31331 67.04842,-3.75973 82.40064,-13.78567 15.3522,-10.02592 32.58427,-27.88462 32.58427,-27.88462 0,0 -41.35697,-2.19317 -58.27573,0 -16.91877,2.19317 -30.39111,5.63959 -46.05664,4.07304 -15.66552,-1.56656 -37.59724,-8.45939 -51.38291,-8.45939 -13.78565,0 -57.33579,-4.07303 -57.33579,-4.07303 z"
       style="fill:#d35f8d;fill-rule:evenodd;stroke:none;stroke-width:1.11539984px;stroke-linecap:butt;stroke-linejoin:miter;stroke-opacity:1" />
    <path
       sodipodi:nodetypes="cssscsssc"
       inkscape:connector-curvature="0"
       id="path903"
       d="M 719.21046,214.69208 C 645.72844,161.16416 560.89216,405.17394 534.31277,589.17023 510.74551,752.31501 508.8179,997.853 481.24658,1088.0864 c -27.57131,90.2334 -65.42049,227.1256 -143.47772,309.0316 -39.20384,41.1368 -89.32114,104.2863 -89.32114,104.2863 0,0 128.13474,-157.3526 175.75792,-307.7416 47.62318,-150.389 62.17065,-425.70892 79.82959,-554.77124 17.97543,-131.37535 30.59437,-183.81817 61.79753,-287.10301 41.81851,-138.42254 121.8428,-180.01879 153.3777,-137.09637 z"
       style="fill:#ac9393;fill-rule:evenodd;stroke:none;stroke-width:1.11539984px;stroke-linecap:butt;stroke-linejoin:miter;stroke-opacity:1" />
    <rect
       width="1500"
       height="1500"
       x="0"
       y="0"
       id="rect848"
       style="fill:#000000;fill-opacity:0.50196078;stroke:none" />
    <g
       aria-label="P"
       transform="translate(4.3066406e-6,12.00002)"
       style="font-style:normal;font-variant:normal;font-weight:900;font-stretch:normal;font-size:1333.33337402px;line-height:125%;font-family:'Jones*';-inkscape-font-specification:'Jones* Heavy';text-align:center;letter-spacing:0px;word-spacing:0px;text-anchor:middle;fill:#ffffff;fill-opacity:1;stroke:none;stroke-width:1px;stroke-linecap:butt;stroke-linejoin:miter;stroke-opacity:1"
       id="flowRoot851">
      <path
         d="m 634.94791,914.66669 h 173.33334 c 198.66665,0 344.00005,-142.66667 344.00005,-321.33334 0,-180 -145.3334,-314.66667 -344.00005,-314.66667 H 408.28124 V 1212 h 226.66667 z m 0,-436.00001 h 146.66667 c 90.66667,0 144.00001,41.33334 144.00001,114.66667 0,73.33334 -53.33334,121.33334 -144.00001,121.33334 H 634.94791 Z"
         style=""
         id="path15648" />
    </g>
  </g>
</svg>
