<?xml version="1.0" encoding="UTF-8" standalone="no"?>
<!-- Created with Inkscape (http://www.inkscape.org/) -->

<svg
   xmlns:dc="http://purl.org/dc/elements/1.1/"
   xmlns:cc="http://creativecommons.org/ns#"
   xmlns:rdf="http://www.w3.org/1999/02/22-rdf-syntax-ns#"
   xmlns:svg="http://www.w3.org/2000/svg"
   xmlns="http://www.w3.org/2000/svg"
   xmlns:sodipodi="http://sodipodi.sourceforge.net/DTD/sodipodi-0.dtd"
   xmlns:inkscape="http://www.inkscape.org/namespaces/inkscape"
   version="1.1"
   width="1500"
   height="1500"
   id="svg2"
   sodipodi:docname="R.svg"
   inkscape:version="0.92.4 (unknown)">
  <sodipodi:namedview
     pagecolor="#ffffff"
     bordercolor="#666666"
     borderopacity="1"
     objecttolerance="10"
     gridtolerance="10"
     guidetolerance="10"
     inkscape:pageopacity="0"
     inkscape:pageshadow="2"
     inkscape:window-width="1366"
     inkscape:window-height="716"
     id="namedview56"
     showgrid="false"
     inkscape:zoom="0.22250293"
     inkscape:cx="143.56327"
     inkscape:cy="863.8132"
     inkscape:window-x="0"
     inkscape:window-y="24"
     inkscape:window-maximized="1"
     inkscape:current-layer="svg2" />
  <defs
     id="defs4">
    <clipPath
       id="clipPath3862">
      <rect
         width="744"
         height="1052"
         x="0"
         y="0.36218262"
         id="rect3864"
         style="fill:#2ad4ff;fill-opacity:1;stroke:none" />
    </clipPath>
    <clipPath
       id="clipPath3075">
      <rect
         width="880.29663"
         height="769.06781"
         x="320.97458"
         y="572.48926"
         id="rect3077"
         style="opacity:0.71836733;fill:#c8ab37;fill-opacity:1;stroke:none" />
    </clipPath>
    <clipPath
       id="clipPath3949">
      <rect
         width="750"
         height="750"
         x="0"
         y="2.6171874e-06"
         id="rect3951"
         style="fill:#2ad4ff;fill-opacity:1;stroke:none" />
    </clipPath>
    <clipPath
       id="clipPath3964">
      <path
         d="m 542.68968,295.5 -47.75218,173.03125 122.46875,0 0,-173.03125 z m -316.28343,5.625 0,156.75 84.8125,0 -35.39279,-161.80611 z"
         id="path3966"
         style="fill:#ff5f00;fill-opacity:1;stroke:#aa4400;stroke-width:3;stroke-linecap:square;stroke-miterlimit:4;stroke-opacity:1;stroke-dasharray:none" />
    </clipPath>
    <clipPath
       id="clipPath3036">
      <rect
         width="629.2052"
         height="620.21655"
         x="791.00079"
         y="-176.83527"
         id="rect3038"
         style="opacity:0.55510206;fill:#ffe680;fill-opacity:1;stroke:none" />
    </clipPath>
    <clipPath
       id="clipPath3042">
      <rect
         width="1276.3877"
         height="606.73358"
         x="480.89255"
         y="304.05728"
         id="rect3044"
         style="opacity:0.55510206;fill:#ffe680;fill-opacity:1;stroke:none" />
    </clipPath>
    <clipPath
       id="clipPath3986">
      <rect
         width="391.00607"
         height="175.27859"
         x="-1478.6322"
         y="283.83286"
         id="rect3988"
         style="opacity:0.53061224;fill:#9955ff;fill-opacity:1;stroke:none" />
    </clipPath>
    <clipPath
       id="clipPath4018">
      <rect
         width="1500"
         height="1500"
         x="0"
         y="2.9296871e-08"
         id="rect4020"
         style="fill:#2ad4ff;fill-opacity:1;stroke:none" />
    </clipPath>
    <clipPath
       id="clipPath4024">
      <rect
         width="1500"
         height="1500"
         x="0"
         y="2.9296871e-08"
         id="rect4026"
         style="fill:#2ad4ff;fill-opacity:1;stroke:none" />
    </clipPath>
    <clipPath
       clipPathUnits="userSpaceOnUse"
       id="clipPath911">
      <rect
         style="opacity:1;fill:#aa0000;fill-opacity:1;stroke:#000000;stroke-width:3.02362204;stroke-linejoin:miter;stroke-miterlimit:4;stroke-dasharray:none;stroke-opacity:1;paint-order:stroke markers fill"
         id="rect913"
         width="692.79663"
         height="641.94916"
         x="966.10168"
         y="699.15253"
         ry="1.67204" />
    </clipPath>
    <clipPath
       clipPathUnits="userSpaceOnUse"
       id="clipPath982">
      <rect
         width="1105.9957"
         height="1105.9957"
         x="193.8522"
         y="193.01425"
         id="rect984"
         style="fill:#aa0000;fill-opacity:1;stroke:none;stroke-width:0.7373305" />
    </clipPath>
    <clipPath
       clipPathUnits="userSpaceOnUse"
       id="clipPath850">
      <rect
         style="opacity:1;fill:#2c5aa0;fill-opacity:1;stroke:none;stroke-width:7.93419123;stroke-linejoin:miter;stroke-miterlimit:4;stroke-dasharray:none;stroke-opacity:1;paint-order:stroke markers fill"
         id="rect852"
         width="1175.8474"
         height="1080.5084"
         x="-1544.4916"
         y="286.01694"
         ry="1.67204" />
    </clipPath>
    <clipPath
       clipPathUnits="userSpaceOnUse"
       id="clipPath882">
      <rect
         width="1404.0128"
         height="1404.0128"
         x="88.843315"
         y="66.250137"
         id="rect884"
         style="fill:#00ffff;fill-opacity:1;stroke:none;stroke-width:0.93600857" />
    </clipPath>
  </defs>
  <metadata
     id="metadata7">
    <rdf:RDF>
      <cc:Work
         rdf:about="">
        <dc:format>image/svg+xml</dc:format>
        <dc:type
           rdf:resource="http://purl.org/dc/dcmitype/StillImage" />
        <dc:title />
      </cc:Work>
    </rdf:RDF>
  </metadata>
  <rect
     style="fill:#00ffff;fill-opacity:1;stroke:none"
     id="rect3082"
     y="2.9296871e-08"
     x="0"
     height="1500"
     width="1500" />
  <path
     style="fill:#ff6600;fill-rule:evenodd;stroke:none;stroke-width:1.06836629px;stroke-linecap:butt;stroke-linejoin:miter;stroke-opacity:1"
     d="M 560.49805 631.47266 L 579.70508 907.56445 C 579.70508 907.56445 423.65335 938.77369 370.83594 972.38477 C 318.01853 1005.9958 245.9955 1154.8456 202.78125 1284.4883 C 182.70698 1344.7111 156.57017 1427.8059 134.16992 1500 L 327.20312 1500 L 363.64844 1441.8906 L 539.10938 1500 L 1335.873 1500 C 1333.399 1400.487 1325.9238 1316.8903 1283.1367 1195.6602 C 1239.9224 1073.2199 1182.3036 1061.2143 1083.8711 1005.9961 C 985.43863 950.77789 937.42383 926.77148 937.42383 926.77148 L 937.42383 645.87891 L 560.49805 631.47266 z "
     id="path854" />
  <path
     style="fill:#ff9955;fill-rule:evenodd;stroke:none;stroke-width:1.06836629px;stroke-linecap:butt;stroke-linejoin:miter;stroke-opacity:1"
     d="M 939.82422 981.98828 C 939.82422 981.98828 875.0029 1217.2658 834.18945 1298.8926 C 793.37599 1380.5195 637.32422 1397.3262 637.32422 1397.3262 C 567.70127 1363.715 534.08995 1318.0991 510.08203 1238.873 C 486.07411 1159.6469 500.47852 998.79492 500.47852 998.79492 L 435.6582 996.39258 C 435.6582 996.39258 390.04187 1298.8941 373.23633 1382.9219 C 365.38898 1422.1586 364.8739 1461.9162 368.26172 1500 L 1075.627 1500 C 1055.7745 1409.4069 1038.107 1327.3452 1033.4551 1301.2949 C 1021.4512 1234.0728 1026.252 1013.1992 1026.252 1013.1992 L 939.82422 981.98828 z "
     id="path856" />
  <path
     style="fill:#008000;fill-rule:evenodd;stroke:none;stroke-width:1.06836629px;stroke-linecap:butt;stroke-linejoin:miter;stroke-opacity:1"
     d="m 722.5523,205.33274 c 0,0 -58.81939,-38.41267 -152.45026,54.01781 -93.63087,92.43047 -118.38691,240.26899 -118.38691,311.56886 0,71.29987 20.37139,115.43789 -6.79046,200.31868 -27.16186,84.88081 -64.50941,122.22835 -64.50941,227.48052 0,105.25229 50.92848,247.85189 50.92848,247.85189 0,0 67.90464,13.581 115.43788,-81.4855 47.53325,-95.0665 54.32371,-149.3902 61.11417,-224.08531 6.79048,-74.6951 27.16186,-373.4755 27.16186,-373.4755 l 190.13298,16.97616 c 0,0 40.74279,91.67125 40.74279,203.7139 0,112.04265 -23.76663,91.67127 -27.16185,145.99498 -3.39524,54.3237 20.37139,122.22827 20.37139,122.22827 0,0 -50.92848,47.5334 -50.92848,101.857 0,54.3238 64.50941,132.4141 64.50941,132.4141 0,0 67.90463,10.1857 115.43789,-64.5094 47.53322,-74.6951 88.27602,-74.6951 71.29992,-186.7378 -16.9763,-112.04264 -37.3477,-135.80926 -37.3477,-135.80926 l -16.9761,-16.97616 c 0,0 27.1618,-179.94729 3.3953,-325.94226 C 984.76651,414.73875 950.81422,295.90563 879.51435,241.58192 808.21448,187.25821 748.93277,182.66448 722.5523,205.33274 Z"
     id="path858"
     inkscape:connector-curvature="0" />
  <path
     style="fill:#ff7f2a;fill-rule:evenodd;stroke:none;stroke-width:1.06836629px;stroke-linecap:butt;stroke-linejoin:miter;stroke-opacity:1"
     d="m 716.55032,314.56875 c 0,0 -68.42255,37.21227 -114.0376,58.81939 -45.61503,21.60712 -76.82532,61.22019 -87.62889,111.63681 -10.80355,50.41662 -13.20435,123.64076 2.40079,171.6566 15.60515,48.01582 44.41465,128.44234 68.42256,151.24985 24.00792,22.80753 63.62098,64.82137 99.63285,67.22216 36.01187,2.4008 106.83522,-20.40672 142.84709,-55.2182 36.01188,-34.81147 56.4186,-79.22612 64.82138,-99.63285 8.40276,-20.40672 12.00396,-54.0178 12.00396,-54.0178 0,0 10.80356,13.20435 21.60712,-3.60119 10.80355,-16.80554 33.61108,-43.21425 38.41266,-58.81939 4.80158,-15.60514 4.80158,-46.81543 -6.00197,-51.61701 -10.80357,-4.80159 -28.80951,-6.00199 -28.80951,-6.00199 0,0 3.60119,-48.01583 -13.20435,-68.42256 -16.80554,-20.40672 -32.41069,-61.22018 -78.02572,-98.43244 -45.61504,-37.21228 -122.44037,-64.82138 -122.44037,-64.82138 z"
     id="path860"
     inkscape:connector-curvature="0" />
  <path
     style="fill:#008000;fill-rule:evenodd;stroke:none;stroke-width:1.06836629px;stroke-linecap:butt;stroke-linejoin:miter;stroke-opacity:1"
     d="m 515.37573,524.23498 c 0,0 24.61543,-18.67378 36.92315,-20.7958 12.30772,-2.12202 19.94698,-4.66844 36.07434,-2.54642 16.12735,2.12202 49.65526,-4.24405 25.88864,-13.15653 -23.76662,-8.91248 -34.37673,-5.09285 -50.92848,0.84881 -16.55176,5.94165 -26.73745,8.48808 -34.80112,17.40056 -8.06368,8.91249 -13.15653,18.24938 -13.15653,18.24938 z"
     id="path862"
     inkscape:connector-curvature="0" />
  <path
     style="fill:#008000;fill-rule:evenodd;stroke:none;stroke-width:1.06836629px;stroke-linecap:butt;stroke-linejoin:miter;stroke-opacity:1"
     d="m 857.86975,487.31183 c 0,0 -11.88331,-30.13268 -48.80646,-33.52792 -36.92315,-3.39523 -41.59159,-5.09285 -65.35821,3.39524 -23.76662,8.48807 -28.01067,37.77195 -0.84881,25.03983 27.16186,-12.73212 28.85947,-25.46424 56.87013,-20.37139 28.01066,5.09285 58.14335,25.46424 58.14335,25.46424 z"
     id="path864"
     inkscape:connector-curvature="0" />
  <path
     style="fill:#676c53;fill-rule:evenodd;stroke:none;stroke-width:1.06836629px;stroke-linecap:butt;stroke-linejoin:miter;stroke-opacity:1"
     d="m 615.71708,728.70529 c 0,0 29.4097,43.81444 67.82236,39.01286 38.41266,-4.80158 94.23106,-51.01682 94.23106,-51.01682 z"
     id="path868"
     inkscape:connector-curvature="0" />
  <path
     style="fill:#454837;fill-rule:evenodd;stroke:none;stroke-width:1.06836629px;stroke-linecap:butt;stroke-linejoin:miter;stroke-opacity:1"
     d="m 615.71708,728.70529 c 0,0 36.01187,-15.60515 48.01583,-15.60515 12.00395,0 15.60515,4.80158 26.4087,2.40079 10.80357,-2.40079 16.80554,-9.60317 33.61108,-8.40277 16.80554,1.2004 54.01781,9.60317 54.01781,9.60317 0,0 -39.61306,16.80554 -81.6269,18.00593 -42.01386,1.2004 -80.42652,-6.00197 -80.42652,-6.00197 z"
     id="path866"
     inkscape:connector-curvature="0" />
</svg>
