<?xml version="1.0" encoding="UTF-8" standalone="no"?>
<!-- Created with Inkscape (http://www.inkscape.org/) -->

<svg
   xmlns:dc="http://purl.org/dc/elements/1.1/"
   xmlns:cc="http://creativecommons.org/ns#"
   xmlns:rdf="http://www.w3.org/1999/02/22-rdf-syntax-ns#"
   xmlns:svg="http://www.w3.org/2000/svg"
   xmlns="http://www.w3.org/2000/svg"
   xmlns:sodipodi="http://sodipodi.sourceforge.net/DTD/sodipodi-0.dtd"
   xmlns:inkscape="http://www.inkscape.org/namespaces/inkscape"
   version="1.1"
   width="1500"
   height="1500"
   id="svg2"
   sodipodi:docname="S.svg"
   inkscape:version="0.92.4 (unknown)">
  <sodipodi:namedview
     pagecolor="#ffffff"
     bordercolor="#666666"
     borderopacity="1"
     objecttolerance="10"
     gridtolerance="10"
     guidetolerance="10"
     inkscape:pageopacity="0"
     inkscape:pageshadow="2"
     inkscape:window-width="1366"
     inkscape:window-height="716"
     id="namedview56"
     showgrid="false"
     inkscape:zoom="0.31466667"
     inkscape:cx="451.56089"
     inkscape:cy="671.54164"
     inkscape:window-x="0"
     inkscape:window-y="24"
     inkscape:window-maximized="1"
     inkscape:current-layer="svg2" />
  <defs
     id="defs4">
    <clipPath
       id="clipPath3862">
      <rect
         width="744"
         height="1052"
         x="0"
         y="0.36218262"
         id="rect3864"
         style="fill:#2ad4ff;fill-opacity:1;stroke:none" />
    </clipPath>
    <clipPath
       id="clipPath3075">
      <rect
         width="880.29663"
         height="769.06781"
         x="320.97458"
         y="572.48926"
         id="rect3077"
         style="opacity:0.71836733;fill:#c8ab37;fill-opacity:1;stroke:none" />
    </clipPath>
    <clipPath
       id="clipPath3949">
      <rect
         width="750"
         height="750"
         x="0"
         y="2.6171874e-06"
         id="rect3951"
         style="fill:#2ad4ff;fill-opacity:1;stroke:none" />
    </clipPath>
    <clipPath
       id="clipPath3964">
      <path
         d="m 542.68968,295.5 -47.75218,173.03125 122.46875,0 0,-173.03125 z m -316.28343,5.625 0,156.75 84.8125,0 -35.39279,-161.80611 z"
         id="path3966"
         style="fill:#ff5f00;fill-opacity:1;stroke:#aa4400;stroke-width:3;stroke-linecap:square;stroke-miterlimit:4;stroke-opacity:1;stroke-dasharray:none" />
    </clipPath>
    <clipPath
       id="clipPath3036">
      <rect
         width="629.2052"
         height="620.21655"
         x="791.00079"
         y="-176.83527"
         id="rect3038"
         style="opacity:0.55510206;fill:#ffe680;fill-opacity:1;stroke:none" />
    </clipPath>
    <clipPath
       id="clipPath3042">
      <rect
         width="1276.3877"
         height="606.73358"
         x="480.89255"
         y="304.05728"
         id="rect3044"
         style="opacity:0.55510206;fill:#ffe680;fill-opacity:1;stroke:none" />
    </clipPath>
    <clipPath
       id="clipPath3986">
      <rect
         width="391.00607"
         height="175.27859"
         x="-1478.6322"
         y="283.83286"
         id="rect3988"
         style="opacity:0.53061224;fill:#9955ff;fill-opacity:1;stroke:none" />
    </clipPath>
    <clipPath
       id="clipPath4018">
      <rect
         width="1500"
         height="1500"
         x="0"
         y="2.9296871e-08"
         id="rect4020"
         style="fill:#2ad4ff;fill-opacity:1;stroke:none" />
    </clipPath>
    <clipPath
       id="clipPath4024">
      <rect
         width="1500"
         height="1500"
         x="0"
         y="2.9296871e-08"
         id="rect4026"
         style="fill:#2ad4ff;fill-opacity:1;stroke:none" />
    </clipPath>
    <clipPath
       clipPathUnits="userSpaceOnUse"
       id="clipPath911">
      <rect
         style="opacity:1;fill:#aa0000;fill-opacity:1;stroke:#000000;stroke-width:3.02362204;stroke-linejoin:miter;stroke-miterlimit:4;stroke-dasharray:none;stroke-opacity:1;paint-order:stroke markers fill"
         id="rect913"
         width="692.79663"
         height="641.94916"
         x="966.10168"
         y="699.15253"
         ry="1.67204" />
    </clipPath>
    <clipPath
       clipPathUnits="userSpaceOnUse"
       id="clipPath982">
      <rect
         width="1105.9957"
         height="1105.9957"
         x="193.8522"
         y="193.01425"
         id="rect984"
         style="fill:#aa0000;fill-opacity:1;stroke:none;stroke-width:0.7373305" />
    </clipPath>
    <clipPath
       clipPathUnits="userSpaceOnUse"
       id="clipPath850">
      <rect
         style="opacity:1;fill:#ff9955;fill-opacity:1;stroke:none;stroke-width:7;stroke-linejoin:miter;stroke-miterlimit:4;stroke-dasharray:none;stroke-opacity:1;paint-order:stroke markers fill"
         id="rect852"
         width="1550.8474"
         height="1455.5084"
         x="-1233.0509"
         y="235.16949"
         ry="1.67204" />
    </clipPath>
    <clipPath
       clipPathUnits="userSpaceOnUse"
       id="clipPath893">
      <rect
         width="1327.642"
         height="1327.642"
         x="105.47905"
         y="-58.081127"
         id="rect895"
         style="fill:#3333cc;fill-opacity:1;stroke:none;stroke-width:0.88509464"
         transform="rotate(3.4434783)" />
    </clipPath>
  </defs>
  <metadata
     id="metadata7">
    <rdf:RDF>
      <cc:Work
         rdf:about="">
        <dc:format>image/svg+xml</dc:format>
        <dc:type
           rdf:resource="http://purl.org/dc/dcmitype/StillImage" />
        <dc:title />
      </cc:Work>
    </rdf:RDF>
  </metadata>
  <rect
     style="fill:#3333cc;fill-opacity:1;stroke:none"
     id="rect3082"
     y="2.9296871e-08"
     x="0"
     height="1500"
     width="1500" />
  <path
     style="fill:#000080;fill-rule:evenodd;stroke:none;stroke-width:1.12982261px;stroke-linecap:butt;stroke-linejoin:miter;stroke-opacity:1"
     d="M 671.01953 890.57812 C 579.71474 890.59105 482.49765 904.10833 410.72461 920.9043 C 286.57664 949.95678 211.60842 1019.2144 120.23047 1114.6387 C 90.809205 1145.3628 46.350114 1191.8387 0 1240.3008 L 0 1500 L 1490.7812 1500 C 1446.184 1417.8553 1391.4918 1316.1788 1366.7324 1266.248 C 1321.7006 1175.4348 1246.3531 1118.8194 1175.668 1079.9082 C 1104.9831 1040.997 963.39843 959.59088 849.27344 916.09961 C 801.12696 897.75173 737.64735 890.5687 671.01953 890.57812 z "
     id="path854" />
  <path
     style="fill:#b5b5f4;fill-opacity:1;fill-rule:evenodd;stroke:none;stroke-width:1.12982261px;stroke-linecap:butt;stroke-linejoin:miter;stroke-opacity:1"
     d="M 849.40625 858.53906 L 637.94727 871.26172 C 637.94727 871.26172 559.88273 1068.4004 559.92383 1098.9727 C 559.96494 1129.5452 599.12354 1242.2949 644.91016 1345.6523 C 665.51075 1392.1555 705.73003 1450.191 743.75391 1500 L 889.83984 1500 C 949.60293 1357.7756 1005.832 1156.6719 1005.832 1156.6719 C 1005.832 1156.6719 1006.2891 1104.4879 973.62695 1039.9082 C 940.96476 975.32838 849.40625 858.53906 849.40625 858.53906 z "
     id="path856" />
  <path
     style="fill:#d5d5ff;fill-rule:evenodd;stroke:none;stroke-width:1.12982261px;stroke-linecap:butt;stroke-linejoin:miter;stroke-opacity:1"
     d="m 845.76057,1126.7368 c -50.15464,3.0179 -120.82068,-5.3196 -201.90872,-97.5603 -81.08802,-92.24063 -83.67595,-135.24929 -83.67595,-135.24929 0,0 -16.62631,22.58263 -38.60307,-13.86381 -21.97675,-36.44644 -45.32966,-155.54183 -45.32966,-155.54183 l 28.56461,-3.51731 44.323,-279.63852 280.61919,-88.82621 c 0,0 112.83101,21.98693 152.16325,107.7475 39.33218,85.76058 39.15768,112.74883 52.43108,183.89078 13.2733,71.14196 11.8459,107.19817 10.1361,168.45062 -1.7099,61.25243 -4.1745,109.96067 -35.3116,160.39421 -31.13714,50.43356 -93.49617,149.50736 -163.40823,153.71416 z"
     id="path858"
     inkscape:connector-curvature="0"
     sodipodi:nodetypes="sscsccccsssss" />
  <path
     style="fill:#cec497;fill-opacity:1;fill-rule:evenodd;stroke:none;stroke-width:1.12982261px;stroke-linecap:butt;stroke-linejoin:miter;stroke-opacity:1"
     d="m 831.67546,294.87115 c 0,0 24.29248,-44.62612 104.11218,-33.24244 79.81966,11.3837 133.12326,60.33326 149.98076,131.25955 16.8574,70.92629 8.3697,109.20587 17.3709,139.23902 9.0012,30.03315 42.485,78.3768 42.485,78.3768 l -42.6185,-20.81625 c 0,0 18.3517,6.0898 11.5892,73.04181 -6.7624,66.952 -68.3226,149.79096 -68.3226,149.79096 0,0 22.9571,-96.70275 2.4492,-138.63313 -20.5082,-41.93036 -63.98933,-77.08283 -76.46679,-105.10829 -12.47746,-28.02546 -25.42733,-93.79133 -25.42733,-93.79133 0,0 -19.69686,91.11102 -56.03547,114.8798 -36.33862,23.76878 -92.3228,19.94342 -92.3228,19.94342 0,0 10.60324,-33.01132 -2.19771,-66.41285 -12.80095,-33.40155 -61.65811,-68.23054 -61.65811,-68.23054 0,0 -12.22071,6.1309 -29.23724,52.11774 -17.01654,45.98684 -8.62119,95.84011 -8.62119,95.84011 0,0 -44.34373,-49.48869 -45.13965,-92.60519 -0.79591,-43.11649 6.11545,-77.70417 6.11545,-77.70417 0,0 -43.74803,79.96862 -27.57868,109.57044 16.16934,29.60183 -13.17572,79.92754 -13.17572,79.92754 0,0 -2.15662,-35.84056 -10.6187,-56.91357 -8.46209,-21.07301 -9.95626,43.76348 -39.94831,83.33702 -29.99206,39.57354 -36.82122,135.30582 -36.82122,135.30582 l -19.79449,-59.95846 -31.52733,73.83772 c 0,0 -39.18331,-53.39624 -40.23598,-130.6691 -1.05266,-77.27286 11.40934,-139.17227 11.40934,-139.17227 0,0 -20.01015,-63.54253 0.15911,-116.91313 20.16927,-53.37061 100.76942,-88.7953 100.76942,-88.7953 0,0 16.26172,-58.53103 68.0816,-94.02244 51.81987,-35.49143 78.26897,-44.277 119.70127,-43.17305 41.4323,1.10394 57.06249,21.74563 69.0008,40.81095 11.9383,19.06532 24.52359,48.88281 24.52359,48.88281 z"
     id="path860"
     inkscape:connector-curvature="0" />
  <path
     style="fill:#aaaaff;fill-rule:evenodd;stroke:none;stroke-width:1.12982261px;stroke-linecap:butt;stroke-linejoin:miter;stroke-opacity:1"
     d="m 718.09926,988.96202 c 0,0 -23.70564,-55.80201 -23.27721,-69.81696 0.42843,-14.01496 27.89554,-43.64606 43.45358,-59.84315 15.55805,-16.19708 42.56766,-53.43112 42.56766,-53.43112 0,0 -27.84834,23.29534 -49.28468,47.47659 -21.43632,24.18125 -47.05535,42.25547 -49.8656,58.95723 -2.81024,16.70176 15.18773,41.05363 36.40625,76.65741 z"
     id="path862"
     inkscape:connector-curvature="0" />
  <path
     style="fill:#aaaaff;fill-rule:evenodd;stroke:none;stroke-width:1.12982261px;stroke-linecap:butt;stroke-linejoin:miter;stroke-opacity:1"
     d="m 891.00953,797.97007 c 0,0 34.80504,50.04715 52.49802,69.33041 17.69298,19.28326 32.24166,28.58178 19.247,66.24424 -12.99467,37.66247 -27.68493,89.41618 -27.68493,89.41618 0,0 23.42597,-96.79036 22.206,-117.06485 -1.21996,-20.27448 -48.89623,-51.74274 -66.26609,-107.92598 z"
     id="path864"
     inkscape:connector-curvature="0" />
  <path
     style="fill:#8080ff;fill-rule:evenodd;stroke:none;stroke-width:1.12982261px;stroke-linecap:butt;stroke-linejoin:miter;stroke-opacity:1"
     d="m 657.75658,707.30465 c 0,0 23.95616,-20.32592 43.72239,-20.61604 19.76621,-0.29013 66.59515,15.77647 66.59515,15.77647 0,0 -39.73529,-32.68009 -70.19976,-30.84697 -30.46447,1.83313 -39.08058,23.03452 -40.11778,35.68654 z"
     id="path868"
     inkscape:connector-curvature="0" />
  <path
     style="fill:#8080ff;fill-rule:evenodd;stroke:none;stroke-width:1.12982261px;stroke-linecap:butt;stroke-linejoin:miter;stroke-opacity:1"
     d="m 880.18368,697.51769 c 0,0 40.33344,-32.10248 63.73763,-31.71225 23.4042,0.39022 46.74166,29.56072 46.74166,29.56072 0,0 -28.96257,-18.04092 -52.88537,-12.10513 -23.9228,5.93578 -38.1512,8.59045 -57.59392,14.25666 z"
     id="path870"
     inkscape:connector-curvature="0" />
  <path
     style="fill:#f4d7d7;fill-rule:evenodd;stroke:none;stroke-width:1.12982261px;stroke-linecap:butt;stroke-linejoin:miter;stroke-opacity:1"
     d="m 724.13364,930.73461 c 0,0 59.46738,68.91105 107.98597,61.54047 48.5186,-7.3706 113.72803,-75.51743 113.72803,-75.51743 0,0 -102.91549,22.72534 -136.95259,17.14298 -34.03709,-5.58236 -84.76141,-3.16602 -84.76141,-3.16602 z"
     id="path876"
     inkscape:connector-curvature="0" />
  <path
     style="fill:#c83737;fill-rule:evenodd;stroke:none;stroke-width:1.12982261px;stroke-linecap:butt;stroke-linejoin:miter;stroke-opacity:1"
     d="m 724.13364,930.73461 c 0,0 65.35832,-12.83498 82.06008,-10.02473 16.70176,2.81024 24.01422,8.09307 38.58651,7.21622 14.57228,-0.87685 41.43488,-8.85195 61.55686,-12.60623 20.12199,-3.75427 39.51055,1.43778 39.51055,1.43778 0,0 -43.76404,22.98128 -99.03778,23.76376 -55.27374,0.78247 -122.67622,-9.7868 -122.67622,-9.7868 z"
     id="path872"
     inkscape:connector-curvature="0" />
  <path
     style="fill:#d35f5f;fill-rule:evenodd;stroke:none;stroke-width:1.12982261px;stroke-linecap:butt;stroke-linejoin:miter;stroke-opacity:1"
     d="m 724.13364,930.73461 c 0,0 58.78114,57.50665 114.90267,49.67858 56.12153,-7.82807 106.81133,-63.65554 106.81133,-63.65554 0,0 -32.34871,85.88155 -95.30163,85.85435 -62.95291,-0.027 -99.51524,-26.44136 -126.41237,-71.87739 z"
     id="path874"
     inkscape:connector-curvature="0" />
</svg>
