<?xml version="1.0" encoding="UTF-8" standalone="no"?>
<!-- Created with Inkscape (http://www.inkscape.org/) -->

<svg
   xmlns:dc="http://purl.org/dc/elements/1.1/"
   xmlns:cc="http://creativecommons.org/ns#"
   xmlns:rdf="http://www.w3.org/1999/02/22-rdf-syntax-ns#"
   xmlns:svg="http://www.w3.org/2000/svg"
   xmlns="http://www.w3.org/2000/svg"
   xmlns:sodipodi="http://sodipodi.sourceforge.net/DTD/sodipodi-0.dtd"
   xmlns:inkscape="http://www.inkscape.org/namespaces/inkscape"
   version="1.1"
   width="1500"
   height="1500"
   id="svg2"
   sodipodi:docname="Sh.svg"
   inkscape:version="0.92.4 (unknown)">
  <sodipodi:namedview
     pagecolor="#ffffff"
     bordercolor="#666666"
     borderopacity="1"
     objecttolerance="10"
     gridtolerance="10"
     guidetolerance="10"
     inkscape:pageopacity="0"
     inkscape:pageshadow="2"
     inkscape:window-width="1366"
     inkscape:window-height="716"
     id="namedview56"
     showgrid="false"
     inkscape:zoom="0.31466667"
     inkscape:cx="451.56089"
     inkscape:cy="671.54164"
     inkscape:window-x="0"
     inkscape:window-y="24"
     inkscape:window-maximized="1"
     inkscape:current-layer="g889" />
  <defs
     id="defs4">
    <clipPath
       id="clipPath3862">
      <rect
         width="744"
         height="1052"
         x="0"
         y="0.36218262"
         id="rect3864"
         style="fill:#2ad4ff;fill-opacity:1;stroke:none" />
    </clipPath>
    <clipPath
       id="clipPath3075">
      <rect
         width="880.29663"
         height="769.06781"
         x="320.97458"
         y="572.48926"
         id="rect3077"
         style="opacity:0.71836733;fill:#c8ab37;fill-opacity:1;stroke:none" />
    </clipPath>
    <clipPath
       id="clipPath3949">
      <rect
         width="750"
         height="750"
         x="0"
         y="2.6171874e-06"
         id="rect3951"
         style="fill:#2ad4ff;fill-opacity:1;stroke:none" />
    </clipPath>
    <clipPath
       id="clipPath3964">
      <path
         d="m 542.68968,295.5 -47.75218,173.03125 122.46875,0 0,-173.03125 z m -316.28343,5.625 0,156.75 84.8125,0 -35.39279,-161.80611 z"
         id="path3966"
         style="fill:#ff5f00;fill-opacity:1;stroke:#aa4400;stroke-width:3;stroke-linecap:square;stroke-miterlimit:4;stroke-opacity:1;stroke-dasharray:none" />
    </clipPath>
    <clipPath
       id="clipPath3036">
      <rect
         width="629.2052"
         height="620.21655"
         x="791.00079"
         y="-176.83527"
         id="rect3038"
         style="opacity:0.55510206;fill:#ffe680;fill-opacity:1;stroke:none" />
    </clipPath>
    <clipPath
       id="clipPath3042">
      <rect
         width="1276.3877"
         height="606.73358"
         x="480.89255"
         y="304.05728"
         id="rect3044"
         style="opacity:0.55510206;fill:#ffe680;fill-opacity:1;stroke:none" />
    </clipPath>
    <clipPath
       id="clipPath3986">
      <rect
         width="391.00607"
         height="175.27859"
         x="-1478.6322"
         y="283.83286"
         id="rect3988"
         style="opacity:0.53061224;fill:#9955ff;fill-opacity:1;stroke:none" />
    </clipPath>
    <clipPath
       id="clipPath4018">
      <rect
         width="1500"
         height="1500"
         x="0"
         y="2.9296871e-08"
         id="rect4020"
         style="fill:#2ad4ff;fill-opacity:1;stroke:none" />
    </clipPath>
    <clipPath
       id="clipPath4024">
      <rect
         width="1500"
         height="1500"
         x="0"
         y="2.9296871e-08"
         id="rect4026"
         style="fill:#2ad4ff;fill-opacity:1;stroke:none" />
    </clipPath>
    <clipPath
       clipPathUnits="userSpaceOnUse"
       id="clipPath911">
      <rect
         style="opacity:1;fill:#aa0000;fill-opacity:1;stroke:#000000;stroke-width:3.02362204;stroke-linejoin:miter;stroke-miterlimit:4;stroke-dasharray:none;stroke-opacity:1;paint-order:stroke markers fill"
         id="rect913"
         width="692.79663"
         height="641.94916"
         x="966.10168"
         y="699.15253"
         ry="1.67204" />
    </clipPath>
    <clipPath
       clipPathUnits="userSpaceOnUse"
       id="clipPath982">
      <rect
         width="1105.9957"
         height="1105.9957"
         x="193.8522"
         y="193.01425"
         id="rect984"
         style="fill:#aa0000;fill-opacity:1;stroke:none;stroke-width:0.7373305" />
    </clipPath>
    <clipPath
       clipPathUnits="userSpaceOnUse"
       id="clipPath850">
      <rect
         style="opacity:1;fill:#ff9955;fill-opacity:1;stroke:none;stroke-width:7;stroke-linejoin:miter;stroke-miterlimit:4;stroke-dasharray:none;stroke-opacity:1;paint-order:stroke markers fill"
         id="rect852"
         width="1550.8474"
         height="1455.5084"
         x="-1233.0509"
         y="235.16949"
         ry="1.67204" />
    </clipPath>
    <clipPath
       clipPathUnits="userSpaceOnUse"
       id="clipPath893">
      <rect
         width="1327.642"
         height="1327.642"
         x="105.47905"
         y="-58.081127"
         id="rect895"
         style="fill:#3333cc;fill-opacity:1;stroke:none;stroke-width:0.88509464"
         transform="rotate(3.4434783)" />
    </clipPath>
  </defs>
  <metadata
     id="metadata7">
    <rdf:RDF>
      <cc:Work
         rdf:about="">
        <dc:format>image/svg+xml</dc:format>
        <dc:type
           rdf:resource="http://purl.org/dc/dcmitype/StillImage" />
        <dc:title />
      </cc:Work>
    </rdf:RDF>
  </metadata>
  <rect
     style="fill:#3333cc;fill-opacity:1;stroke:none"
     id="rect3082"
     y="2.9296871e-08"
     x="0"
     height="1500"
     width="1500" />
  <g
     id="g889"
     transform="matrix(1.1277828,-0.06786151,0.06786151,1.1277828,-119.17262,65.621372)"
     clip-path="url(#clipPath893)">
    <path
       inkscape:connector-curvature="0"
       id="path854"
       d="m -149.3409,1222.3704 c 0,0 219.279686,-203.3898 305.08475,-282.83912 85.80508,-79.44917 155.72034,-136.65256 266.94915,-155.72035 111.22881,-19.0678 289.19491,-25.42373 387.71186,19.06779 98.51695,44.49153 219.27944,123.94073 279.66074,162.07642 60.3814,38.13566 123.9407,92.16106 158.8983,174.78816 34.9577,82.6271 149.3645,324.1526 149.3645,324.1526 l -1757.41506,25.4237 z"
       style="fill:#000080;fill-rule:evenodd;stroke:none;stroke-width:1px;stroke-linecap:butt;stroke-linejoin:miter;stroke-opacity:1" />
    <path
       inkscape:connector-curvature="0"
       id="path856"
       d="m 759.55741,1414.6374 c 0,0 -117.58475,-149.3644 -152.54238,-243.1144 -34.95762,-93.75 -63.55932,-195.44496 -61.97034,-222.45779 1.58899,-27.01276 81.03814,-197.03394 81.03814,-197.03394 h 187.5 c 0,0 74.6822,108.05084 100.10593,166.84328 25.42373,58.79239 22.24577,104.87295 22.24577,104.87295 0,0 -104.87289,303.4958 -176.37712,390.8899 z"
       style="fill:#b5b5f4;fill-rule:evenodd;stroke:none;stroke-width:1px;stroke-linecap:butt;stroke-linejoin:miter;stroke-opacity:1;fill-opacity:1" />
    <path
       sodipodi:nodetypes="sscsccccsssss"
       inkscape:connector-curvature="0"
       id="path858"
       d="m 796.10402,988.78987 c -44.4719,0 -106.46187,-11.12293 -173.19916,-96.92809 -66.73728,-85.80509 -66.73728,-123.94068 -66.73728,-123.94068 0,0 -15.88983,19.06779 -33.36865,-14.30085 -17.47881,-33.36864 -31.77966,-139.83051 -31.77966,-139.83051 l 25.42373,-1.58898 54.02542,-244.70339 252.64831,-63.55932 c 0,0 98.51695,25.42372 128.70763,103.28389 30.19067,77.86017 28.60169,101.69492 36.54661,165.25424 7.94491,63.55932 4.76695,95.33898 0,149.36441 -4.76695,54.02542 -9.5339,96.92796 -39.72458,139.83051 -30.19068,42.90252 -90.55166,127.11877 -152.54237,127.11877 z"
       style="fill:#d5d5ff;fill-rule:evenodd;stroke:none;stroke-width:1px;stroke-linecap:butt;stroke-linejoin:miter;stroke-opacity:1" />
    <path
       inkscape:connector-curvature="0"
       id="path860"
       d="m 827.88368,253.09059 c 0,0 23.83474,-38.13559 93.75,-23.83475 69.91525,14.30085 114.40652,60.38136 125.52942,123.94068 11.1229,63.55932 1.589,96.92797 7.9449,123.94068 6.3559,27.01271 33.3687,71.50424 33.3687,71.50424 L 1051.93,527.98466 c 0,0 15.8899,6.35593 6.356,65.1483 -9.5339,58.79237 -68.32605,128.70763 -68.32605,128.70763 0,0 25.42345,-84.2161 9.5339,-122.3517 -15.88983,-38.13559 -52.43644,-71.50423 -61.97034,-96.92796 -9.5339,-25.42373 -17.47881,-84.2161 -17.47881,-84.2161 0,0 -22.24577,79.44915 -55.61441,98.51695 -33.36865,19.06779 -82.62712,12.71186 -82.62712,12.71186 0,0 11.12288,-28.6017 1.58898,-58.79237 -9.5339,-30.19068 -50.84745,-63.55933 -50.84745,-63.55933 0,0 -11.12289,4.76695 -28.6017,44.49153 -17.47881,39.72458 -12.71186,84.2161 -12.71186,84.2161 0,0 -36.54661,-46.08051 -34.95763,-84.2161 1.58898,-38.13559 9.5339,-68.32627 9.5339,-68.32627 0,0 -42.90255,68.32627 -30.19068,95.33898 12.71186,27.01271 -15.88983,69.91526 -15.88983,69.91526 0,0 0,-31.77966 -6.35593,-50.84746 -6.35594,-19.0678 -11.12289,38.13559 -39.72458,71.50424 -28.6017,33.36864 -39.72458,117.58474 -39.72458,117.58474 l -14.30084,-54.02542 -31.77967,63.55932 c 0,0 -31.77966,-49.25847 -28.60169,-117.58475 3.17797,-68.32627 17.47881,-122.35169 17.47881,-122.35169 0,0 -14.30084,-57.20339 6.35594,-103.2839 20.65678,-46.08051 93.75,-73.09322 93.75,-73.09322 0,0 17.47881,-50.84746 65.1483,-79.44915 47.66949,-28.6017 71.50424,-34.95763 108.05085,-31.77966 36.54661,3.17796 49.25847,22.24576 58.79237,39.72457 9.5339,17.47882 19.0678,44.49153 19.0678,44.49153 z"
       style="fill:#cec497;fill-opacity:1;fill-rule:evenodd;stroke:none;stroke-width:1px;stroke-linecap:butt;stroke-linejoin:miter;stroke-opacity:1" />
    <path
       inkscape:connector-curvature="0"
       id="path862"
       d="m 690.64008,860.27959 c 0,0 -17.97729,-50.56113 -16.85371,-62.92052 1.12358,-12.35939 26.96594,-37.07816 41.57249,-50.56113 14.60655,-13.48297 40.4489,-44.94323 40.4489,-44.94323 0,0 -25.84235,19.10088 -46.06681,39.32533 -20.22445,20.22445 -43.81964,34.831 -47.19039,49.43755 -3.37074,14.60655 11.23581,37.07816 28.08952,69.662 z"
       style="fill:#aaaaff;fill-rule:evenodd;stroke:none;stroke-width:1px;stroke-linecap:butt;stroke-linejoin:miter;stroke-opacity:1" />
    <path
       inkscape:connector-curvature="0"
       id="path864"
       d="m 853.55928,700.73113 c 0,0 28.08952,46.06681 42.69607,64.0441 14.60655,17.97729 26.96593,26.96594 13.48297,59.54978 -13.48297,32.58384 -29.2131,77.52711 -29.2131,77.52711 0,0 25.84235,-84.26859 25.84235,-102.24589 0,-17.97729 -40.4489,-48.31397 -52.80829,-98.8751 z"
       style="fill:#aaaaff;fill-rule:evenodd;stroke:none;stroke-width:1px;stroke-linecap:butt;stroke-linejoin:miter;stroke-opacity:1" />
    <path
       inkscape:connector-curvature="0"
       id="path868"
       d="m 652.30105,608.2283 c 0,0 22.24576,-16.68432 39.72458,-15.88983 17.47881,0.79449 57.99788,17.47881 57.99788,17.47881 0,0 -33.36865,-30.98517 -60.38136,-30.98517 -27.01271,0 -35.75212,18.27331 -37.3411,29.39619 z"
       style="fill:#8080ff;fill-rule:evenodd;stroke:none;stroke-width:1px;stroke-linecap:butt;stroke-linejoin:miter;stroke-opacity:1" />
    <path
       inkscape:connector-curvature="0"
       id="path870"
       d="m 849.33495,611.40627 c 0,0 37.3411,-26.21822 57.99788,-24.62924 20.65678,1.58898 39.72458,28.60169 39.72458,28.60169 0,0 -24.62924,-17.47881 -46.08051,-13.50635 -21.45127,3.97246 -34.16314,5.56144 -51.64195,9.5339 z"
       style="fill:#8080ff;fill-rule:evenodd;stroke:none;stroke-width:1px;stroke-linecap:butt;stroke-linejoin:miter;stroke-opacity:1" />
    <path
       inkscape:connector-curvature="0"
       id="path876"
       d="m 699.06694,809.15667 c 0,0 48.87576,64.0441 92.13361,60.11157 43.25786,-3.93254 104.49301,-60.67336 104.49301,-60.67336 0,0 -92.13362,14.60655 -121.90851,7.86506 -29.77489,-6.74148 -74.71811,-7.30327 -74.71811,-7.30327 z"
       style="fill:#f4d7d7;fill-rule:evenodd;stroke:none;stroke-width:1px;stroke-linecap:butt;stroke-linejoin:miter;stroke-opacity:1" />
    <path
       inkscape:connector-curvature="0"
       id="path872"
       d="m 699.06694,809.15667 c 0,0 58.42619,-7.86507 73.03274,-4.49432 14.60655,3.37074 20.78624,8.42685 33.70742,8.42685 12.92118,0 37.07817,-5.6179 55.05546,-7.86506 17.97729,-2.24716 34.831,3.37074 34.831,3.37074 0,0 -39.88712,17.97729 -88.76288,15.73013 -48.87576,-2.24716 -107.86374,-15.16834 -107.86374,-15.16834 z"
       style="fill:#c83737;fill-rule:evenodd;stroke:none;stroke-width:1px;stroke-linecap:butt;stroke-linejoin:miter;stroke-opacity:1" />
    <path
       inkscape:connector-curvature="0"
       id="path874"
       d="m 699.06694,809.15667 c 0,0 48.87576,53.93187 98.8751,49.99934 49.99934,-3.93253 97.75152,-50.56113 97.75152,-50.56113 0,0 -33.14563,74.15632 -88.76288,70.78558 -55.61724,-3.37074 -86.5157,-28.6513 -107.86374,-70.22379 z"
       style="fill:#d35f5f;fill-rule:evenodd;stroke:none;stroke-width:1px;stroke-linecap:butt;stroke-linejoin:miter;stroke-opacity:1" />
    <rect
       width="1327.642"
       height="1327.642"
       x="105.47905"
       y="-58.0811"
       id="rect848"
       style="fill:#000000;fill-opacity:0.50196078;stroke:none;stroke-width:0.88509464"
       transform="rotate(3.4434783)" />
    <g
       aria-label="S"
       transform="matrix(0.88349666,0.0531622,-0.0531622,0.88349666,108.13925,-41.038797)"
       style="font-style:normal;font-variant:normal;font-weight:900;font-stretch:normal;font-size:1333.33337402px;line-height:125%;font-family:'Jones*';-inkscape-font-specification:'Jones* Heavy';text-align:center;letter-spacing:0px;word-spacing:0px;text-anchor:middle;fill:#ffffff;fill-opacity:1;stroke:none;stroke-width:1px;stroke-linecap:butt;stroke-linejoin:miter;stroke-opacity:1"
       id="flowRoot851">
      <path
         d="m 407.99999,550.66668 c 0,169.33334 134.66667,244.00001 284.00001,274.66668 132,26.66667 228.00001,54.66667 228.00001,122.66667 0,63.99997 -70.66667,77.33337 -164.00001,77.33337 -89.33334,0 -214.66667,-65.33337 -278.66667,-137.33337 L 359.99999,1048 c 82.66667,76 212,190.6667 410.66668,190.6667 198.66667,0 366.66663,-114.6667 366.66663,-313.33334 0,-189.33334 -155.99996,-260.00001 -323.99996,-293.33334 C 693.33333,608.00002 636,577.33335 636,538.66668 c 0,-36 40,-73.33333 130.66667,-73.33333 109.33333,0 176,36 236.00003,94.66667 L 1117.3333,398.66668 C 1044,329.33334 945.33334,265.33334 773.33333,265.33334 c -192,0 -365.33334,90.66667 -365.33334,285.33334 z"
         style=""
         id="path15699" />
    </g>
  </g>
</svg>
