<?xml version="1.0" encoding="UTF-8" standalone="no"?>
<!-- Created with Inkscape (http://www.inkscape.org/) -->

<svg
   xmlns:dc="http://purl.org/dc/elements/1.1/"
   xmlns:cc="http://creativecommons.org/ns#"
   xmlns:rdf="http://www.w3.org/1999/02/22-rdf-syntax-ns#"
   xmlns:svg="http://www.w3.org/2000/svg"
   xmlns="http://www.w3.org/2000/svg"
   xmlns:sodipodi="http://sodipodi.sourceforge.net/DTD/sodipodi-0.dtd"
   xmlns:inkscape="http://www.inkscape.org/namespaces/inkscape"
   version="1.1"
   width="1500"
   height="1500"
   id="svg2"
   sodipodi:docname="Th.svg"
   inkscape:version="0.92.4 (unknown)">
  <sodipodi:namedview
     pagecolor="#ffffff"
     bordercolor="#666666"
     borderopacity="1"
     objecttolerance="10"
     gridtolerance="10"
     guidetolerance="10"
     inkscape:pageopacity="0"
     inkscape:pageshadow="2"
     inkscape:window-width="1366"
     inkscape:window-height="716"
     id="namedview56"
     showgrid="false"
     inkscape:zoom="0.22250293"
     inkscape:cx="192.33668"
     inkscape:cy="577.66863"
     inkscape:window-x="0"
     inkscape:window-y="24"
     inkscape:window-maximized="1"
     inkscape:current-layer="svg2" />
  <defs
     id="defs4">
    <clipPath
       id="clipPath3862">
      <rect
         width="744"
         height="1052"
         x="0"
         y="0.36218262"
         id="rect3864"
         style="fill:#2ad4ff;fill-opacity:1;stroke:none" />
    </clipPath>
    <clipPath
       id="clipPath3075">
      <rect
         width="880.29663"
         height="769.06781"
         x="320.97458"
         y="572.48926"
         id="rect3077"
         style="opacity:0.71836733;fill:#c8ab37;fill-opacity:1;stroke:none" />
    </clipPath>
    <clipPath
       id="clipPath3949">
      <rect
         width="750"
         height="750"
         x="0"
         y="2.6171874e-06"
         id="rect3951"
         style="fill:#2ad4ff;fill-opacity:1;stroke:none" />
    </clipPath>
    <clipPath
       id="clipPath3964">
      <path
         d="m 542.68968,295.5 -47.75218,173.03125 122.46875,0 0,-173.03125 z m -316.28343,5.625 0,156.75 84.8125,0 -35.39279,-161.80611 z"
         id="path3966"
         style="fill:#ff5f00;fill-opacity:1;stroke:#aa4400;stroke-width:3;stroke-linecap:square;stroke-miterlimit:4;stroke-opacity:1;stroke-dasharray:none" />
    </clipPath>
    <clipPath
       id="clipPath3036">
      <rect
         width="629.2052"
         height="620.21655"
         x="791.00079"
         y="-176.83527"
         id="rect3038"
         style="opacity:0.55510206;fill:#ffe680;fill-opacity:1;stroke:none" />
    </clipPath>
    <clipPath
       id="clipPath3042">
      <rect
         width="1276.3877"
         height="606.73358"
         x="480.89255"
         y="304.05728"
         id="rect3044"
         style="opacity:0.55510206;fill:#ffe680;fill-opacity:1;stroke:none" />
    </clipPath>
    <clipPath
       id="clipPath3986">
      <rect
         width="391.00607"
         height="175.27859"
         x="-1478.6322"
         y="283.83286"
         id="rect3988"
         style="opacity:0.53061224;fill:#9955ff;fill-opacity:1;stroke:none" />
    </clipPath>
    <clipPath
       id="clipPath4018">
      <rect
         width="1500"
         height="1500"
         x="0"
         y="2.9296871e-08"
         id="rect4020"
         style="fill:#2ad4ff;fill-opacity:1;stroke:none" />
    </clipPath>
    <clipPath
       id="clipPath4024">
      <rect
         width="1500"
         height="1500"
         x="0"
         y="2.9296871e-08"
         id="rect4026"
         style="fill:#2ad4ff;fill-opacity:1;stroke:none" />
    </clipPath>
    <clipPath
       clipPathUnits="userSpaceOnUse"
       id="clipPath911">
      <rect
         style="opacity:1;fill:#aa0000;fill-opacity:1;stroke:#000000;stroke-width:3.02362204;stroke-linejoin:miter;stroke-miterlimit:4;stroke-dasharray:none;stroke-opacity:1;paint-order:stroke markers fill"
         id="rect913"
         width="692.79663"
         height="641.94916"
         x="966.10168"
         y="699.15253"
         ry="1.67204" />
    </clipPath>
    <clipPath
       clipPathUnits="userSpaceOnUse"
       id="clipPath982">
      <rect
         width="1105.9957"
         height="1105.9957"
         x="193.8522"
         y="193.01425"
         id="rect984"
         style="fill:#aa0000;fill-opacity:1;stroke:none;stroke-width:0.7373305" />
    </clipPath>
    <clipPath
       clipPathUnits="userSpaceOnUse"
       id="clipPath858">
      <rect
         width="1500"
         height="1500"
         x="0"
         y="2.9296871e-08"
         id="rect860"
         style="fill:#245c24;fill-opacity:1;stroke:none" />
    </clipPath>
    <clipPath
       clipPathUnits="userSpaceOnUse"
       id="clipPath864">
      <rect
         width="1500"
         height="1500"
         x="0"
         y="2.9296871e-08"
         id="rect866"
         style="fill:#245c24;fill-opacity:1;stroke:none" />
    </clipPath>
  </defs>
  <metadata
     id="metadata7">
    <rdf:RDF>
      <cc:Work
         rdf:about="">
        <dc:format>image/svg+xml</dc:format>
        <dc:type
           rdf:resource="http://purl.org/dc/dcmitype/StillImage" />
        <dc:title />
      </cc:Work>
    </rdf:RDF>
  </metadata>
  <rect
     style="fill:#245c24;fill-opacity:1;stroke:none"
     id="rect3082"
     y="2.9296871e-08"
     x="0"
     height="1500"
     width="1500" />
  <path
     style="fill:#a02c2c;fill-rule:evenodd;stroke:none;stroke-width:1px;stroke-linecap:butt;stroke-linejoin:miter;stroke-opacity:1"
     d="m -143.81833,1630.3354 c 0,0 44.943229,-71.9092 67.414843,-107.8638 22.471614,-35.9546 49.43755,-107.8637 125.841037,-130.3353 76.40349,-22.4717 125.84104,0 193.25588,-26.966 67.41484,-26.9659 382.01743,-116.8524 382.01743,-116.8524 0,0 323.59124,26.966 467.40954,62.9205 143.8184,35.9546 453.9266,67.4149 453.9266,103.3695 0,35.9545 283.1424,314.6026 -26.9659,328.0855 -310.1083,13.483 -1662.89943,-112.358 -1662.89943,-112.358 z"
     id="path848"
     inkscape:connector-curvature="0"
     clip-path="url(#clipPath858)" />
  <path
     style="fill:#803300;fill-rule:evenodd;stroke:none;stroke-width:1px;stroke-linecap:butt;stroke-linejoin:miter;stroke-opacity:1"
     d="m 629.23729,1039.1949 c 0,0 -108.05085,57.2034 -177.9661,63.5593 -69.91526,6.356 -146.41229,-124.71175 -146.41229,-124.71175 30.79562,16.6567 61.59124,38.22535 92.38686,26.19485 0,0 -34.95762,-57.2034 -73.09322,-123.94069 -38.13559,-66.73729 -54.02542,-171.61017 -44.49152,-190.67797 9.5339,-19.06779 57.20339,-155.72034 57.20339,-155.72034 0,0 -22.24577,-85.80508 31.77966,-152.54237 54.02542,-66.73729 69.91525,-101.69491 171.61017,-136.65254 101.69491,-34.95763 177.9661,0 177.9661,0 0,0 94.5494,-41.31356 158.8983,-41.31356 146.73806,0 127.09386,153.41206 177.96606,241.52543 56.8936,98.5426 117.5848,136.65254 165.2543,127.11864 47.6695,-9.5339 101.6949,-41.31356 101.6949,-41.31356 4.0318,8.06363 -30.5189,94.6825 -79.4492,117.58474 -40.3986,18.9089 -120.7626,-6.35593 -120.7626,-6.35593 0,0 -6.356,114.24708 38.1355,161.91657 44.4916,47.66949 170.5197,33.96067 170.5197,33.96067 1.4893,5.40384 -53.3303,53.71004 -118.5155,51.61857 C 1146.7765,887.35348 1125,858.05085 1125,858.05085 c 0,0 -38.441,86.38603 34.9577,98.51694 73.5124,12.1497 113.8614,-17.97729 113.8614,-17.97729 0,0 -60.71,59.23523 -137.2639,64.8757 -31.2147,2.2999 -71.9366,-24.65264 -71.9366,-24.65264 0,0 -21.7258,42.51834 23.0169,61.31214 56.9578,23.9248 107.2798,-13.6427 107.2798,-13.6427 0,0 -51.6244,78.0512 -166.7965,60.9267 -80.81678,-12.0164 -138.12859,-93.0645 -138.12859,-93.0645 l -279.82072,38.4938 z"
     id="path850"
     inkscape:connector-curvature="0"
     sodipodi:nodetypes="ccccsscsscssscsccczcscscscsccc" />
  <path
     style="fill:#ff9955;fill-rule:evenodd;stroke:none;stroke-width:1px;stroke-linecap:butt;stroke-linejoin:miter;stroke-opacity:1"
     d="m 568.85593,877.11864 c 0,0 -60.38135,174.78816 -60.38135,247.88136 0,73.0932 6.35593,104.8729 0,139.8305 -6.35594,34.9576 -47.6695,19.0678 -47.6695,69.9153 0,50.8474 19.0678,79.4491 38.1356,143.0084 19.06779,63.5594 158.8983,212.9238 158.8983,212.9238 0,0 38.1356,-98.517 54.02543,-130.2966 15.88983,-31.7797 117.58474,-69.9153 171.61017,-108.0509 54.02542,-38.1356 108.05084,-54.0254 120.76272,-79.4491 12.7119,-25.4238 22.2458,-76.2712 22.2458,-76.2712 0,0 -63.55937,-19.0678 -66.73734,-69.9153 -3.17796,-50.8474 41.31354,-368.64405 41.31354,-368.64405 z"
     id="path852"
     inkscape:connector-curvature="0"
     clip-path="url(#clipPath864)" />
  <path
     style="fill:#ffb380;fill-rule:evenodd;stroke:none;stroke-width:1px;stroke-linecap:butt;stroke-linejoin:miter;stroke-opacity:1"
     d="m 641.94915,406.77966 c 0,0 -39.10894,62.15432 -99.44775,97.0409 -45.58203,26.35453 -65.69247,-19.37724 -99.83331,37.52418 -38.13559,63.55933 56.99692,139.89666 56.99692,139.89666 0,0 -56.77107,-8.33046 -83.35145,-53.59309 -16.41153,-27.9465 -19.0678,-77.86017 -19.0678,-77.86017 v 127.11864 c 0,47.66949 -19.06779,130.29661 0,181.14407 19.0678,50.84745 44.49153,197.03385 76.27119,228.81355 31.77966,31.7797 114.40678,120.7627 216.10169,120.7627 101.69492,0 206.5678,-15.8898 254.23729,-79.4491 47.66949,-63.5594 79.44917,-158.89834 95.33897,-238.34749 15.8898,-79.44915 19.0678,-171.61017 19.0678,-206.5678 0,-34.95763 -19.0678,-92.16102 -19.0678,-92.16102 0,0 -22.2457,15.88983 -50.84744,-19.06779 -28.6017,-34.95763 -120.76271,-130.29661 -120.76271,-130.29661 0,0 -3.17797,66.73729 19.06779,85.80508 22.24577,19.0678 85.80509,57.20339 85.80509,57.20339 0,0 -63.55932,15.88983 -111.22882,-15.88983 -47.66949,-31.77966 -95.33898,-120.76271 -95.33898,-120.76271 0,0 -12.71186,50.84746 -3.17797,85.80508 9.5339,34.95763 54.02543,88.98306 54.02543,88.98306 0,0 -54.02543,-9.5339 -88.98305,-54.02543 -34.95763,-44.49152 -47.66949,-111.22881 -47.66949,-111.22881 0,0 -27.3926,4.10678 -41.69911,53.63987 -15.76653,54.58807 6.74148,130.68216 6.74148,130.68216 -33.67797,-37.15914 -56.45751,-63.88518 -47.12424,-128.04945 6.54969,-45.02768 43.94627,-107.12004 43.94627,-107.12004 z"
     id="path854"
     inkscape:connector-curvature="0"
     sodipodi:nodetypes="csscscssssssscscscscscscscsc" />
  <rect
     width="1500"
     height="1500"
     x="0"
     y="0"
     id="rect848"
     style="fill:#000000;fill-opacity:0.50196078;stroke:none" />
  <g
     aria-label="T"
     transform="translate(1.1835938e-5,11.999995)"
     style="font-style:normal;font-variant:normal;font-weight:900;font-stretch:normal;font-size:1333.33337402px;line-height:125%;font-family:'Jones*';-inkscape-font-specification:'Jones* Heavy';text-align:center;letter-spacing:0px;word-spacing:0px;text-anchor:middle;fill:#ffffff;fill-opacity:1;stroke:none;stroke-width:1px;stroke-linecap:butt;stroke-linejoin:miter;stroke-opacity:1"
     id="flowRoot851">
    <path
       d="m 863.69792,478.66668 h 319.99998 v -200 H 317.03124 v 200 H 637.03125 V 1212 h 226.66667 z"
       style=""
       id="path15716" />
  </g>
</svg>
