<?xml version="1.0" encoding="UTF-8" standalone="no"?>
<!-- Created with Inkscape (http://www.inkscape.org/) -->

<svg
   xmlns:dc="http://purl.org/dc/elements/1.1/"
   xmlns:cc="http://creativecommons.org/ns#"
   xmlns:rdf="http://www.w3.org/1999/02/22-rdf-syntax-ns#"
   xmlns:svg="http://www.w3.org/2000/svg"
   xmlns="http://www.w3.org/2000/svg"
   xmlns:sodipodi="http://sodipodi.sourceforge.net/DTD/sodipodi-0.dtd"
   xmlns:inkscape="http://www.inkscape.org/namespaces/inkscape"
   version="1.1"
   width="1500"
   height="1500"
   id="svg2"
   sodipodi:docname="Uh.svg"
   inkscape:version="0.92.4 (unknown)">
  <sodipodi:namedview
     pagecolor="#ffffff"
     bordercolor="#666666"
     borderopacity="1"
     objecttolerance="10"
     gridtolerance="10"
     guidetolerance="10"
     inkscape:pageopacity="0"
     inkscape:pageshadow="2"
     inkscape:window-width="1366"
     inkscape:window-height="716"
     id="namedview56"
     showgrid="false"
     inkscape:zoom="0.15733333"
     inkscape:cx="-95.816133"
     inkscape:cy="492.88448"
     inkscape:window-x="0"
     inkscape:window-y="24"
     inkscape:window-maximized="1"
     inkscape:current-layer="svg2" />
  <defs
     id="defs4">
    <clipPath
       id="clipPath3862">
      <rect
         width="744"
         height="1052"
         x="0"
         y="0.36218262"
         id="rect3864"
         style="fill:#2ad4ff;fill-opacity:1;stroke:none" />
    </clipPath>
    <clipPath
       id="clipPath3075">
      <rect
         width="880.29663"
         height="769.06781"
         x="320.97458"
         y="572.48926"
         id="rect3077"
         style="opacity:0.71836733;fill:#c8ab37;fill-opacity:1;stroke:none" />
    </clipPath>
    <clipPath
       id="clipPath3949">
      <rect
         width="750"
         height="750"
         x="0"
         y="2.6171874e-06"
         id="rect3951"
         style="fill:#2ad4ff;fill-opacity:1;stroke:none" />
    </clipPath>
    <clipPath
       id="clipPath3964">
      <path
         d="m 542.68968,295.5 -47.75218,173.03125 122.46875,0 0,-173.03125 z m -316.28343,5.625 0,156.75 84.8125,0 -35.39279,-161.80611 z"
         id="path3966"
         style="fill:#ff5f00;fill-opacity:1;stroke:#aa4400;stroke-width:3;stroke-linecap:square;stroke-miterlimit:4;stroke-opacity:1;stroke-dasharray:none" />
    </clipPath>
    <clipPath
       id="clipPath3036">
      <rect
         width="629.2052"
         height="620.21655"
         x="791.00079"
         y="-176.83527"
         id="rect3038"
         style="opacity:0.55510206;fill:#ffe680;fill-opacity:1;stroke:none" />
    </clipPath>
    <clipPath
       id="clipPath3042">
      <rect
         width="1276.3877"
         height="606.73358"
         x="480.89255"
         y="304.05728"
         id="rect3044"
         style="opacity:0.55510206;fill:#ffe680;fill-opacity:1;stroke:none" />
    </clipPath>
    <clipPath
       id="clipPath3986">
      <rect
         width="391.00607"
         height="175.27859"
         x="-1478.6322"
         y="283.83286"
         id="rect3988"
         style="opacity:0.53061224;fill:#9955ff;fill-opacity:1;stroke:none" />
    </clipPath>
    <clipPath
       id="clipPath4018">
      <rect
         width="1500"
         height="1500"
         x="0"
         y="2.9296871e-08"
         id="rect4020"
         style="fill:#2ad4ff;fill-opacity:1;stroke:none" />
    </clipPath>
    <clipPath
       id="clipPath4024">
      <rect
         width="1500"
         height="1500"
         x="0"
         y="2.9296871e-08"
         id="rect4026"
         style="fill:#2ad4ff;fill-opacity:1;stroke:none" />
    </clipPath>
    <clipPath
       clipPathUnits="userSpaceOnUse"
       id="clipPath911">
      <rect
         style="opacity:1;fill:#aa0000;fill-opacity:1;stroke:#000000;stroke-width:3.02362204;stroke-linejoin:miter;stroke-miterlimit:4;stroke-dasharray:none;stroke-opacity:1;paint-order:stroke markers fill"
         id="rect913"
         width="692.79663"
         height="641.94916"
         x="966.10168"
         y="699.15253"
         ry="1.67204" />
    </clipPath>
    <clipPath
       clipPathUnits="userSpaceOnUse"
       id="clipPath982">
      <rect
         width="1105.9957"
         height="1105.9957"
         x="193.8522"
         y="193.01425"
         id="rect984"
         style="fill:#aa0000;fill-opacity:1;stroke:none;stroke-width:0.7373305" />
    </clipPath>
  </defs>
  <metadata
     id="metadata7">
    <rdf:RDF>
      <cc:Work
         rdf:about="">
        <dc:format>image/svg+xml</dc:format>
        <dc:type
           rdf:resource="http://purl.org/dc/dcmitype/StillImage" />
        <dc:title />
      </cc:Work>
    </rdf:RDF>
  </metadata>
  <rect
     style="fill:#d40000;fill-opacity:1;stroke:none"
     id="rect3082"
     y="2.9296871e-08"
     x="0"
     height="1500"
     width="1500" />
  <path
     style="fill:#800000;fill-rule:evenodd;stroke:none;stroke-width:1px;stroke-linecap:butt;stroke-linejoin:miter;stroke-opacity:1"
     clip-path="none"
     d="M 935.875 788.39258 L 653.91797 898.72266 C 653.91797 898.72266 508.76976 923.32035 385.32617 1000.459 C 261.8826 1077.5976 113.9932 1140.2316 68.90625 1191.1504 C 51.634171 1210.6565 25.578183 1254.788 0 1301.8047 L 0 1500 L 1478.3574 1500 C 1468.2342 1401.8625 1454.6347 1307.6757 1437.127 1260.9941 C 1391.686 1139.8328 1338.966 1075.498 1242.5293 1043.0645 C 1146.0927 1010.631 1044.4582 961.89324 1013.4453 950.10156 C 982.43241 938.30988 935.875 788.39258 935.875 788.39258 z "
     id="path848" />
  <path
     style="fill:#d38d5f;fill-rule:evenodd;stroke:none;stroke-width:1px;stroke-linecap:butt;stroke-linejoin:miter;stroke-opacity:1"
     d="m 751.92514,1351.8475 c 0,0 -15.36672,-52.0856 -75.3383,-104.1968 -59.9716,-52.1111 -80.56223,-75.8972 -96.58806,-163.0784 -16.02583,-87.18119 -31.44156,-448.33111 -31.44156,-448.33111 l 332.79913,68.5701 c 0,0 48.6364,76.78455 68.74495,151.51494 20.10855,74.73039 -5.07249,158.94447 -24.80137,211.68907 -19.72889,52.7448 -46.93848,120.8818 -87.48625,153.0103 -40.54775,32.1285 -85.88854,130.8219 -85.88854,130.8219 z"
     id="path850"
     inkscape:connector-curvature="0" />
  <path
     style="fill:#deaa87;fill-rule:evenodd;stroke:none;stroke-width:1.04131877px;stroke-linecap:butt;stroke-linejoin:miter;stroke-opacity:1"
     d="m 1010.281,726.83935 c 0,0 8.7204,46.82773 -30.21548,107.74801 -38.93593,60.92028 -114.64625,128.75118 -207.44827,122.06892 -92.80202,-6.68226 -195.24417,-71.41015 -223.33193,-137.15651 -28.08776,-65.74635 -38.06349,-95.14041 -38.06349,-95.14041 0,0 -53.95995,5.67317 -62.68712,-65.0515 -8.72716,-70.72467 -19.40787,-162.30027 -11.96305,-169.72969 7.44482,-7.42941 32.53844,3.93605 32.53844,3.93605 0,0 -6.12265,-178.86773 40.94957,-232.82976 47.07222,-53.96203 110.29618,-116.31963 225.66766,-111.19845 115.3715,5.12119 182.05957,38.59885 216.44419,88.86764 34.38463,50.26881 48.15338,122.94959 58.47818,171.48594 10.3249,48.53636 28.2153,111.95536 28.2153,111.95536 0,0 3.088,-18.89481 25.7718,-22.04075 22.6835,-3.14595 26.7047,36.97102 17.3198,71.34339 -9.3849,34.37237 -35.1497,80.31007 -31.4776,101.28475 3.6721,20.97467 6.5386,29.14655 -9.7272,39.12701 -16.2659,9.98045 -30.4708,15.33 -30.4708,15.33 z"
     id="path852"
     inkscape:connector-curvature="0"
     sodipodi:nodetypes="cssscsscsssscsccsc" />
  <path
     style="fill:#784421;fill-rule:evenodd;stroke:none;stroke-width:1px;stroke-linecap:butt;stroke-linejoin:miter;stroke-opacity:1"
     d="m 550.50952,686.56433 c 0,0 -9.82872,17.68285 9.09705,28.53423 20.6541,11.84234 44.12755,22.81921 75.73828,-0.91882 22.64517,-17.00537 43.60338,-30.31535 70.54634,-28.37531 26.94296,1.94005 55.74329,22.33445 55.74329,22.33445 0,0 37.42865,-21.99794 60.63765,-23.51296 23.20899,-1.51501 47.30535,28.8958 75.99796,39.72386 28.69262,10.82807 54.6149,15.8808 64.18763,4.62187 9.57274,-11.25894 8.90083,-24.0521 0.58341,-30.22684 -8.31743,-6.17474 -32.2618,-5.50921 -32.2618,-5.50921 0,0 33.30213,-5.76057 43.8099,2.68794 13.82726,11.11746 23.02594,47.17448 -7.72723,76.02547 -30.75319,28.851 -74.31111,42.75546 -105.14416,32.72308 -46.11055,-15.00335 -58.51548,-32.20586 -87.15743,-32.67514 -28.64196,-0.46929 -46.13091,20.3815 -81.85415,29.75745 -35.72326,9.37596 -62.71045,13.41857 -104.67325,-1.96121 -39.36699,-14.42839 -49.06188,-30.4221 -53.86077,-52.27446 -4.79891,-21.85236 -7.67696,-37.19402 16.33728,-60.9544 z"
     id="path854"
     inkscape:connector-curvature="0"
     sodipodi:nodetypes="cssscsssscsssssssc" />
  <rect
     width="1500"
     height="1500"
     x="0"
     y="0"
     id="rect848"
     style="fill:#000000;fill-opacity:0.50196078;stroke:none" />
  <g
     aria-label="U"
     transform="translate(3.6914063e-5,12.000003)"
     style="font-style:normal;font-variant:normal;font-weight:900;font-stretch:normal;font-size:1333.33337402px;line-height:125%;font-family:'Jones*';-inkscape-font-specification:'Jones* Heavy';text-align:center;letter-spacing:0px;word-spacing:0px;text-anchor:middle;fill:#ffffff;fill-opacity:1;stroke:none;stroke-width:1px;stroke-linecap:butt;stroke-linejoin:miter;stroke-opacity:1"
     id="flowRoot851">
    <path
       d="M 543.48958,812.00002 V 278.66668 H 310.15624 v 560.00001 c 0,225.33331 201.33334,400.00001 440.00001,400.00001 238.66667,0 440.00005,-174.6667 440.00005,-400.00001 V 278.66668 H 956.82292 v 533.33334 c 0,118.66668 -90.66667,206.66668 -206.66667,206.66668 -116,0 -206.66667,-88 -206.66667,-206.66668 z"
       style=""
       id="path15733" />
  </g>
</svg>
