<?xml version="1.0" encoding="UTF-8" standalone="no"?>
<!-- Created with Inkscape (http://www.inkscape.org/) -->

<svg
   xmlns:dc="http://purl.org/dc/elements/1.1/"
   xmlns:cc="http://creativecommons.org/ns#"
   xmlns:rdf="http://www.w3.org/1999/02/22-rdf-syntax-ns#"
   xmlns:svg="http://www.w3.org/2000/svg"
   xmlns="http://www.w3.org/2000/svg"
   xmlns:sodipodi="http://sodipodi.sourceforge.net/DTD/sodipodi-0.dtd"
   xmlns:inkscape="http://www.inkscape.org/namespaces/inkscape"
   version="1.1"
   width="1500"
   height="1500"
   id="svg2"
   sodipodi:docname="Vh.svg"
   inkscape:version="0.92.4 (unknown)">
  <sodipodi:namedview
     pagecolor="#ffffff"
     bordercolor="#666666"
     borderopacity="1"
     objecttolerance="10"
     gridtolerance="10"
     guidetolerance="10"
     inkscape:pageopacity="0"
     inkscape:pageshadow="2"
     inkscape:window-width="1366"
     inkscape:window-height="716"
     id="namedview56"
     showgrid="false"
     inkscape:zoom="0.22250293"
     inkscape:cx="-273.33382"
     inkscape:cy="412.01336"
     inkscape:window-x="0"
     inkscape:window-y="24"
     inkscape:window-maximized="1"
     inkscape:current-layer="svg2" />
  <defs
     id="defs4">
    <clipPath
       id="clipPath3862">
      <rect
         width="744"
         height="1052"
         x="0"
         y="0.36218262"
         id="rect3864"
         style="fill:#2ad4ff;fill-opacity:1;stroke:none" />
    </clipPath>
    <clipPath
       id="clipPath3075">
      <rect
         width="880.29663"
         height="769.06781"
         x="320.97458"
         y="572.48926"
         id="rect3077"
         style="opacity:0.71836733;fill:#c8ab37;fill-opacity:1;stroke:none" />
    </clipPath>
    <clipPath
       id="clipPath3949">
      <rect
         width="750"
         height="750"
         x="0"
         y="2.6171874e-06"
         id="rect3951"
         style="fill:#2ad4ff;fill-opacity:1;stroke:none" />
    </clipPath>
    <clipPath
       id="clipPath3964">
      <path
         d="m 542.68968,295.5 -47.75218,173.03125 122.46875,0 0,-173.03125 z m -316.28343,5.625 0,156.75 84.8125,0 -35.39279,-161.80611 z"
         id="path3966"
         style="fill:#ff5f00;fill-opacity:1;stroke:#aa4400;stroke-width:3;stroke-linecap:square;stroke-miterlimit:4;stroke-opacity:1;stroke-dasharray:none" />
    </clipPath>
    <clipPath
       id="clipPath3036">
      <rect
         width="629.2052"
         height="620.21655"
         x="791.00079"
         y="-176.83527"
         id="rect3038"
         style="opacity:0.55510206;fill:#ffe680;fill-opacity:1;stroke:none" />
    </clipPath>
    <clipPath
       id="clipPath3042">
      <rect
         width="1276.3877"
         height="606.73358"
         x="480.89255"
         y="304.05728"
         id="rect3044"
         style="opacity:0.55510206;fill:#ffe680;fill-opacity:1;stroke:none" />
    </clipPath>
    <clipPath
       id="clipPath3986">
      <rect
         width="391.00607"
         height="175.27859"
         x="-1478.6322"
         y="283.83286"
         id="rect3988"
         style="opacity:0.53061224;fill:#9955ff;fill-opacity:1;stroke:none" />
    </clipPath>
    <clipPath
       id="clipPath4018">
      <rect
         width="1500"
         height="1500"
         x="0"
         y="2.9296871e-08"
         id="rect4020"
         style="fill:#2ad4ff;fill-opacity:1;stroke:none" />
    </clipPath>
    <clipPath
       id="clipPath4024">
      <rect
         width="1500"
         height="1500"
         x="0"
         y="2.9296871e-08"
         id="rect4026"
         style="fill:#2ad4ff;fill-opacity:1;stroke:none" />
    </clipPath>
    <clipPath
       clipPathUnits="userSpaceOnUse"
       id="clipPath911">
      <rect
         style="opacity:1;fill:#aa0000;fill-opacity:1;stroke:#000000;stroke-width:3.02362204;stroke-linejoin:miter;stroke-miterlimit:4;stroke-dasharray:none;stroke-opacity:1;paint-order:stroke markers fill"
         id="rect913"
         width="692.79663"
         height="641.94916"
         x="966.10168"
         y="699.15253"
         ry="1.67204" />
    </clipPath>
    <clipPath
       clipPathUnits="userSpaceOnUse"
       id="clipPath982">
      <rect
         width="1105.9957"
         height="1105.9957"
         x="193.8522"
         y="193.01425"
         id="rect984"
         style="fill:#aa0000;fill-opacity:1;stroke:none;stroke-width:0.7373305" />
    </clipPath>
    <clipPath
       clipPathUnits="userSpaceOnUse"
       id="clipPath878">
      <rect
         width="1500"
         height="1500"
         x="0"
         y="2.9296871e-08"
         id="rect880"
         style="fill:#ff2ad4;fill-opacity:1;stroke:none" />
    </clipPath>
  </defs>
  <metadata
     id="metadata7">
    <rdf:RDF>
      <cc:Work
         rdf:about="">
        <dc:format>image/svg+xml</dc:format>
        <dc:type
           rdf:resource="http://purl.org/dc/dcmitype/StillImage" />
        <dc:title />
      </cc:Work>
    </rdf:RDF>
  </metadata>
  <rect
     style="fill:#ff2ad4;fill-opacity:1;stroke:none"
     id="rect3082"
     y="2.9296871e-08"
     x="0"
     height="1500"
     width="1500" />
  <g
     id="g874"
     clip-path="url(#clipPath878)">
    <path
       sodipodi:nodetypes="cscsccccccscssccssssssccscc"
       inkscape:connector-curvature="0"
       id="path862"
       d="m 200.054,1932.4443 c 0,0 -17.33217,-66.44 0,-127.1025 17.33216,-60.6627 150.21208,-239.7617 150.21208,-239.7617 0,0 28.88695,121.3252 11.55477,213.7635 -17.33216,92.4381 -54.88519,300.424 -54.88519,300.424 l 855.05334,-5.7774 c 0,0 11.5548,-118.4364 34.6643,-153.1007 23.1096,-34.6643 43.3304,-153.1008 43.3304,-153.1008 0,0 31.7757,158.8782 28.8869,219.5408 -2.8886,60.6625 179.099,92.4381 179.099,92.4381 0,0 17.3322,-332.1997 -2.8886,-459.3022 -20.2208,-127.1026 -40.4417,-297.5354 -57.7739,-369.7529 -17.3321,-72.2173 2.8887,-196.4312 -103.9931,-233.9842 C 1176.4324,979.17529 1052.2186,938.73357 1011.777,921.40141 971.33531,904.06925 876.00836,782.74409 876.00836,782.74409 l -190.6538,17.33217 c 0,0 -46.21909,49.1078 -95.32689,75.10605 -49.1078,25.99824 -57.77388,63.55126 -167.54424,83.77212 -109.77038,20.22086 -184.87642,54.88517 -219.54074,80.88347 -34.66433,25.9982 -86.66081,40.4416 -77.99473,89.5494 8.66608,49.1079 2.8887,83.7722 -17.33215,147.3235 -20.22087,63.5512 -60.662582,124.2137 -54.885194,158.8782 5.777377,34.6643 -75.10605,378.4188 -75.10605,378.4188 l -23.109549,98.2157 c 0,0 -28.886932,-49.108 -23.109542,-11.5549 5.77739,37.553 83.772113,57.774 83.772113,57.774 z"
       style="fill:#e3dbdb;fill-rule:evenodd;stroke:none;stroke-width:1.28548574px;stroke-linecap:butt;stroke-linejoin:miter;stroke-opacity:1" />
    <path
       inkscape:connector-curvature="0"
       id="path848"
       d="m 582.81187,603.66821 c 0,0 -53.10798,-110.30121 -46.98015,-196.09104 6.12785,-85.78984 -2.0426,-200.17629 175.66491,-259.41213 177.7075,-59.235826 265.53998,132.76999 281.88091,216.51721 16.34096,83.74722 -22.46881,290.05134 -22.46881,290.05134 z"
       style="fill:#441650;fill-rule:evenodd;stroke:none;stroke-width:1.28548574px;stroke-linecap:butt;stroke-linejoin:miter;stroke-opacity:1" />
    <path
       sodipodi:nodetypes="csssccscssc"
       inkscape:connector-curvature="0"
       id="path864"
       d="m 873.11967,1554.0255 c 0,0 5.7774,-127.1027 -14.44347,-187.7652 -20.22085,-60.6626 20.22087,-135.7686 43.33046,-155.9895 23.10955,-20.2208 37.55297,-83.7721 43.33035,-170.4329 5.77739,-86.66087 -43.33035,-343.75462 -43.33035,-343.75462 l -272.98162,47.66344 c 0,0 1.44435,96.77126 1.44435,157.43383 0,60.66257 -28.88694,147.32335 -28.88694,147.32335 0,0 51.99649,20.2208 89.54951,109.7704 37.55301,89.5495 77.99473,153.1008 115.54775,231.0956 37.55303,77.9946 66.43996,164.6556 66.43996,164.6556 z"
       style="fill:#ab37c8;fill-rule:evenodd;stroke:none;stroke-width:1.28548574px;stroke-linecap:butt;stroke-linejoin:miter;stroke-opacity:1" />
    <path
       inkscape:connector-curvature="0"
       id="path850"
       d="m 621.62156,321.78733 c 0,0 49.02277,-40.8523 93.96029,-38.80969 44.93753,2.04263 89.87507,20.42615 89.87507,20.42615 0,0 49.02275,-22.46876 85.78984,-10.21307 36.76708,12.2557 85.78985,49.02276 102.13078,165.45183 16.34096,116.42905 -10.21315,281.88087 -38.80974,318.64794 -28.59659,36.76707 -65.36367,104.17337 -118.47166,104.17337 -53.108,0 -163.4092,-40.8523 -206.30413,-96.0029 -42.89491,-55.15062 -51.06536,-120.51429 -51.06536,-120.51429 0,0 -32.68185,22.46876 -51.06538,-14.29832 -18.38354,-36.76706 -38.80969,-147.06828 -26.554,-155.23874 12.2557,-8.17045 38.80969,-14.2983 46.98015,8.17046 8.17045,22.46877 26.554,46.98015 26.554,46.98015 0,0 12.25568,-73.53415 20.42615,-96.00291 8.17046,-22.46876 36.76707,-83.74721 36.76707,-83.74721 z"
       style="fill:#bc5fd3;fill-rule:evenodd;stroke:none;stroke-width:1.28548574px;stroke-linecap:butt;stroke-linejoin:miter;stroke-opacity:1" />
    <path
       inkscape:connector-curvature="0"
       id="path854"
       d="m 653.14699,451.26647 c 0,0 6.49955,-28.16476 42.60824,-31.05346 36.10868,-2.88869 92.4382,7.94391 102.54863,13.72129 10.11042,5.7774 -20.94303,22.38738 -62.82909,15.88782 -41.88607,-6.49956 -82.32778,1.44435 -82.32778,1.44435 z"
       style="fill:#441650;fill-rule:evenodd;stroke:none;stroke-width:1.28548574px;stroke-linecap:butt;stroke-linejoin:miter;stroke-opacity:1" />
    <path
       inkscape:connector-curvature="0"
       id="path856"
       d="m 862.5773,438.26735 c 0,0 13.7213,-18.05434 46.94126,-13.72129 33.21995,4.33303 74.3839,25.99823 74.3839,25.99823 0,0 -2.16651,20.94303 -30.33131,7.94392 -28.1648,-12.99913 -51.27435,-15.88782 -67.16213,-12.99913 -15.88782,2.88869 -23.83172,-7.22173 -23.83172,-7.22173 z"
       style="fill:#441650;fill-rule:evenodd;stroke:none;stroke-width:1.28548574px;stroke-linecap:butt;stroke-linejoin:miter;stroke-opacity:1" />
    <path
       inkscape:connector-curvature="0"
       id="path858"
       d="m 814.13803,630.2222 c 0,0 2.55326,-7.14915 -10.21308,-10.21306 -12.76634,-3.06393 -26.04333,10.21306 -15.83027,14.80895 10.21309,4.59589 26.04335,-4.59589 26.04335,-4.59589 z"
       style="fill:#892ca0;fill-rule:evenodd;stroke:none;stroke-width:1.28548574px;stroke-linecap:butt;stroke-linejoin:miter;stroke-opacity:1" />
    <path
       inkscape:connector-curvature="0"
       id="path860"
       d="m 847.84119,634.30744 c 0,0 4.59587,-10.21308 9.19175,-8.17046 4.59589,2.04261 8.68113,11.23438 3.06392,10.21307 -5.61719,-1.02131 -12.25567,-2.04261 -12.25567,-2.04261 z"
       style="fill:#892ca0;fill-rule:evenodd;stroke:none;stroke-width:1.28548574px;stroke-linecap:butt;stroke-linejoin:miter;stroke-opacity:1" />
  </g>
  <rect
     width="1500"
     height="1500"
     x="0"
     y="0"
     id="rect848"
     style="fill:#000000;fill-opacity:0.50196078;stroke:none" />
  <g
     aria-label="V"
     transform="translate(-6.2109375e-6,12)"
     style="font-style:normal;font-variant:normal;font-weight:900;font-stretch:normal;font-size:1333.33337402px;line-height:125%;font-family:'Jones*';-inkscape-font-specification:'Jones* Heavy';text-align:center;letter-spacing:0px;word-spacing:0px;text-anchor:middle;fill:#ffffff;fill-opacity:1;stroke:none;stroke-width:1px;stroke-linecap:butt;stroke-linejoin:miter;stroke-opacity:1"
     id="flowRoot851">
    <path
       d="M 750.46875,965.33336 483.80208,278.66668 H 243.80207 L 630.46875,1212 h 240 L 1257.1354,278.66668 h -240 z"
       style=""
       id="path15750" />
  </g>
</svg>
