<?xml version="1.0" encoding="UTF-8" standalone="no"?>
<!-- Created with Inkscape (http://www.inkscape.org/) -->

<svg
   xmlns:dc="http://purl.org/dc/elements/1.1/"
   xmlns:cc="http://creativecommons.org/ns#"
   xmlns:rdf="http://www.w3.org/1999/02/22-rdf-syntax-ns#"
   xmlns:svg="http://www.w3.org/2000/svg"
   xmlns="http://www.w3.org/2000/svg"
   xmlns:sodipodi="http://sodipodi.sourceforge.net/DTD/sodipodi-0.dtd"
   xmlns:inkscape="http://www.inkscape.org/namespaces/inkscape"
   version="1.1"
   width="1500"
   height="1500"
   id="svg2"
   sodipodi:docname="W.svg"
   inkscape:version="0.92.4 (unknown)">
  <sodipodi:namedview
     pagecolor="#ffffff"
     bordercolor="#666666"
     borderopacity="1"
     objecttolerance="10"
     gridtolerance="10"
     guidetolerance="10"
     inkscape:pageopacity="0"
     inkscape:pageshadow="2"
     inkscape:window-width="1366"
     inkscape:window-height="716"
     id="namedview56"
     showgrid="false"
     inkscape:zoom="0.22250293"
     inkscape:cx="599.04834"
     inkscape:cy="-26.957657"
     inkscape:window-x="0"
     inkscape:window-y="24"
     inkscape:window-maximized="1"
     inkscape:current-layer="svg2" />
  <defs
     id="defs4">
    <clipPath
       id="clipPath3862">
      <rect
         width="744"
         height="1052"
         x="0"
         y="0.36218262"
         id="rect3864"
         style="fill:#2ad4ff;fill-opacity:1;stroke:none" />
    </clipPath>
    <clipPath
       id="clipPath3075">
      <rect
         width="880.29663"
         height="769.06781"
         x="320.97458"
         y="572.48926"
         id="rect3077"
         style="opacity:0.71836733;fill:#c8ab37;fill-opacity:1;stroke:none" />
    </clipPath>
    <clipPath
       id="clipPath3949">
      <rect
         width="750"
         height="750"
         x="0"
         y="2.6171874e-06"
         id="rect3951"
         style="fill:#2ad4ff;fill-opacity:1;stroke:none" />
    </clipPath>
    <clipPath
       id="clipPath3964">
      <path
         d="m 542.68968,295.5 -47.75218,173.03125 122.46875,0 0,-173.03125 z m -316.28343,5.625 0,156.75 84.8125,0 -35.39279,-161.80611 z"
         id="path3966"
         style="fill:#ff5f00;fill-opacity:1;stroke:#aa4400;stroke-width:3;stroke-linecap:square;stroke-miterlimit:4;stroke-opacity:1;stroke-dasharray:none" />
    </clipPath>
    <clipPath
       id="clipPath3036">
      <rect
         width="629.2052"
         height="620.21655"
         x="791.00079"
         y="-176.83527"
         id="rect3038"
         style="opacity:0.55510206;fill:#ffe680;fill-opacity:1;stroke:none" />
    </clipPath>
    <clipPath
       id="clipPath3042">
      <rect
         width="1276.3877"
         height="606.73358"
         x="480.89255"
         y="304.05728"
         id="rect3044"
         style="opacity:0.55510206;fill:#ffe680;fill-opacity:1;stroke:none" />
    </clipPath>
    <clipPath
       id="clipPath3986">
      <rect
         width="391.00607"
         height="175.27859"
         x="-1478.6322"
         y="283.83286"
         id="rect3988"
         style="opacity:0.53061224;fill:#9955ff;fill-opacity:1;stroke:none" />
    </clipPath>
    <clipPath
       id="clipPath4018">
      <rect
         width="1500"
         height="1500"
         x="0"
         y="2.9296871e-08"
         id="rect4020"
         style="fill:#2ad4ff;fill-opacity:1;stroke:none" />
    </clipPath>
    <clipPath
       id="clipPath4024">
      <rect
         width="1500"
         height="1500"
         x="0"
         y="2.9296871e-08"
         id="rect4026"
         style="fill:#2ad4ff;fill-opacity:1;stroke:none" />
    </clipPath>
    <clipPath
       clipPathUnits="userSpaceOnUse"
       id="clipPath911">
      <rect
         style="opacity:1;fill:#aa0000;fill-opacity:1;stroke:#000000;stroke-width:3.02362204;stroke-linejoin:miter;stroke-miterlimit:4;stroke-dasharray:none;stroke-opacity:1;paint-order:stroke markers fill"
         id="rect913"
         width="692.79663"
         height="641.94916"
         x="966.10168"
         y="699.15253"
         ry="1.67204" />
    </clipPath>
    <clipPath
       clipPathUnits="userSpaceOnUse"
       id="clipPath982">
      <rect
         width="1105.9957"
         height="1105.9957"
         x="193.8522"
         y="193.01425"
         id="rect984"
         style="fill:#aa0000;fill-opacity:1;stroke:none;stroke-width:0.7373305" />
    </clipPath>
  </defs>
  <metadata
     id="metadata7">
    <rdf:RDF>
      <cc:Work
         rdf:about="">
        <dc:format>image/svg+xml</dc:format>
        <dc:type
           rdf:resource="http://purl.org/dc/dcmitype/StillImage" />
        <dc:title />
      </cc:Work>
    </rdf:RDF>
  </metadata>
  <rect
     style="fill:#00ff66;fill-opacity:1;stroke:none"
     id="rect3082"
     y="2.9296871e-08"
     x="0"
     height="1500"
     width="1500" />
  <path
     style="fill:#0066ff;fill-rule:evenodd;stroke:none;stroke-width:1px;stroke-linecap:butt;stroke-linejoin:miter;stroke-opacity:1;fill-opacity:1"
     clip-path="none"
     d="M 746.05664 924.72656 C 746.05664 924.72656 546.05997 996.6363 415.72461 1030.3438 C 285.38925 1064.0512 202.24455 1064.0515 143.81836 1239.3301 C 112.88525 1332.1294 71.971875 1429.0632 40.224609 1500 L 1500 1500 L 1500 1307.5938 C 1436.1053 1201.2363 1365.3724 1095.9095 1316.8359 1061.8027 C 1233.6909 1003.3765 1208.9726 978.65786 1114.5918 962.92773 C 1020.2111 947.1976 757.29297 924.72656 757.29297 924.72656 L 746.05664 924.72656 z "
     id="path848" />
  <path
     style="fill:#80c9dc;fill-rule:evenodd;stroke:none;stroke-width:1px;stroke-linecap:butt;stroke-linejoin:miter;stroke-opacity:1;fill-opacity:1"
     d="m 784.25932,1450.5624 c 0,0 -56.17903,-69.662 -103.36942,-107.8637 -47.19039,-38.2017 -94.38078,-123.5939 -94.38078,-123.5939 L 483.1397,760.68391 696.62003,648.32584 923.58333,841.58171 c 0,0 4.49432,229.21049 -17.97729,278.64799 -22.47162,49.4376 -38.20175,101.1223 -51.68471,130.3354 -13.48297,29.2131 -11.23581,76.4035 -33.70743,114.6052 -22.47161,38.2018 -35.95458,85.3921 -35.95458,85.3921 z"
     id="path850"
     inkscape:connector-curvature="0" />
  <path
     style="fill:#00aa44;fill-rule:evenodd;stroke:none;stroke-width:1px;stroke-linecap:butt;stroke-linejoin:miter;stroke-opacity:1"
     d="m 705.60867,322.48744 c 0,0 42.69607,-29.2131 80.89781,-2.24717 38.20175,26.96594 107.86375,78.65065 141.57117,182.02008 33.70742,103.36942 121.34675,217.97465 114.60525,260.67072 -6.7415,42.69606 -42.69608,83.14497 -42.69608,83.14497 0,0 24.71878,29.2131 44.94318,71.90916 20.2245,42.69607 35.9546,112.3581 20.2245,141.5712 -15.7301,29.2131 -71.90917,15.7301 -71.90917,15.7301 0,0 -31.46026,35.9546 -8.98864,62.9205 22.47161,26.966 89.88641,35.9546 89.88641,35.9546 0,0 -74.15628,2.2472 -96.6279,-11.2358 -22.47161,-13.483 -51.68471,-58.4262 -51.68471,-58.4262 0,0 -13.48297,76.4035 17.97729,103.3694 31.46026,26.966 47.19039,31.4603 53.93187,58.4262 6.74145,26.966 -33.70742,60.6734 -33.70742,60.6734 0,0 17.97729,-29.2131 2.24716,-51.6847 -15.73013,-22.4717 -67.41484,-40.4489 -78.65064,-78.6507 -11.23581,-38.2017 -11.23581,-114.6052 -11.23581,-114.6052 0,0 -29.2131,17.9773 -24.71878,67.4148 4.49433,49.4376 53.93188,96.628 53.93188,96.628 0,0 -78.65065,-44.9433 -89.88646,-101.1223 -11.23581,-56.179 33.70742,-141.5712 44.94323,-204.49168 11.23581,-62.92052 -6.74148,-199.99737 -6.74148,-199.99737 L 543.81305,637.09003 c 0,0 -33.54772,-15.73013 -11.0761,51.68471 22.47161,67.41484 35.79488,103.36942 40.2892,155.05414 4.49433,51.68471 17.97729,51.68471 35.95458,128.0882 17.9773,76.40352 35.95459,206.73882 35.95459,206.73882 0,0 -13.48297,-17.9773 -31.46026,-56.179 -17.97729,-38.2018 -60.67336,-83.145 -60.67336,-83.145 0,0 24.71878,69.662 42.69607,110.1109 17.97729,40.4489 -38.20175,155.0542 -38.20175,155.0542 0,0 22.47162,-96.628 8.98865,-143.8184 -13.48297,-47.1904 -53.93187,-103.3694 -53.93187,-103.3694 0,0 -15.73013,40.4489 -8.98865,112.3581 6.74148,71.9091 -60.67336,267.4122 -60.67336,267.4122 0,0 11.23581,-47.1904 0,-80.8978 -11.2358,-33.7074 -31.46026,-69.662 -31.46026,-69.662 0,0 35.95459,44.9432 -15.73013,87.6393 -51.68471,42.696 -146.06549,20.2244 -146.06549,20.2244 0,0 56.17904,2.2472 83.14497,-29.2131 26.96594,-31.4602 0,-110.1109 0,-110.1109 0,0 -24.71877,44.9432 -20.22445,71.9092 4.49432,26.9659 42.69607,58.4262 42.69607,58.4262 0,0 -67.41484,-24.7188 -69.662,-89.8865 -2.24717,-65.1677 49.43755,-94.3808 49.43755,-94.3808 0,0 -26.96594,-65.1676 0,-107.8637 26.96593,-42.6961 65.16768,-112.35808 49.43755,-166.28995 -15.73013,-53.93188 -40.44891,-134.82969 -13.48297,-173.03143 26.96593,-38.20174 65.16768,-123.59388 85.39213,-206.73885 20.22445,-83.14497 65.16768,-150.55981 132.58252,-199.99736 67.41484,-49.43755 116.85239,-24.71877 116.85239,-24.71877 z"
     id="path852"
     inkscape:connector-curvature="0"
     sodipodi:nodetypes="csssccscccscccccscscssccssscccscscscscccccscscsssssc" />
  <path
     style="fill:#afdde9;fill-rule:evenodd;stroke:none;stroke-width:1px;stroke-linecap:butt;stroke-linejoin:miter;stroke-opacity:1"
     d="m 520.21786,542.70925 c 0,0 34.831,-10.11223 51.68471,-31.46026 16.85371,-21.34803 46.06681,-69.662 46.06681,-69.662 0,0 13.48297,47.19039 38.20174,53.93187 24.71878,6.74149 52.8083,25.84236 52.8083,25.84236 0,0 6.74148,-13.48297 43.81964,-19.10087 37.07817,-5.61791 66.29126,-10.11223 87.6393,-1.12359 21.34803,8.98865 42.69606,26.96594 42.69606,26.96594 0,0 4.49433,42.69607 16.85371,62.92052 12.35939,20.22445 24.71878,49.43755 14.60655,83.14497 -10.11222,33.70742 -23.59519,86.51571 -23.59519,115.72881 0,29.2131 -26.96594,113.48165 -103.36942,119.09956 -76.40349,5.6179 -157.3013,-6.74149 -199.99737,-60.67336 -42.69606,-53.93187 -41.57248,-69.662 -41.57248,-69.662 0,0 -14.60655,8.98864 -29.2131,-10.11223 -14.60655,-19.10087 -19.10087,-39.32532 -19.10087,-39.32532 0,0 21.34803,-21.34804 21.34803,-42.69607 0,-21.34803 -11.23581,-69.662 -7.86507,-93.2572 3.37075,-23.59519 8.98865,-50.56113 8.98865,-50.56113 z"
     id="path854"
     inkscape:connector-curvature="0" />
  <path
     style="fill:#5fbcd3;fill-rule:evenodd;stroke:none;stroke-width:1px;stroke-linecap:butt;stroke-linejoin:miter;stroke-opacity:1"
     d="m 659.54187,777.53761 c 0,0 42.13427,-1.12358 71.34737,-0.56179 29.2131,0.56179 65.72947,-6.74148 65.72947,-6.74148 l -59.54978,-21.34803 -38.20174,3.37074 z"
     id="path858"
     inkscape:connector-curvature="0" />
  <path
     style="fill:#2c89a0;fill-rule:evenodd;stroke:none;stroke-width:1px;stroke-linecap:butt;stroke-linejoin:miter;stroke-opacity:1"
     d="m 724.70955,744.39198 c 0,0 -6.1797,-8.42685 -19.10088,-5.05611 -12.92117,3.37074 -46.0668,38.20174 -46.0668,38.20174 0,0 44.94322,-24.15698 59.54977,-23.59519 14.60655,0.56179 77.52707,16.29192 77.52707,16.29192 0,0 -14.60655,-11.7976 -27.52773,-21.90982 -12.92117,-10.11223 -17.97729,-10.67402 -27.52772,-10.67402 -9.55044,0 -16.85371,6.74148 -16.85371,6.74148 z"
     id="path856"
     inkscape:connector-curvature="0" />
</svg>
