<?xml version="1.0" encoding="UTF-8" standalone="no"?>
<!-- Created with Inkscape (http://www.inkscape.org/) -->

<svg
   xmlns:dc="http://purl.org/dc/elements/1.1/"
   xmlns:cc="http://creativecommons.org/ns#"
   xmlns:rdf="http://www.w3.org/1999/02/22-rdf-syntax-ns#"
   xmlns:svg="http://www.w3.org/2000/svg"
   xmlns="http://www.w3.org/2000/svg"
   xmlns:sodipodi="http://sodipodi.sourceforge.net/DTD/sodipodi-0.dtd"
   xmlns:inkscape="http://www.inkscape.org/namespaces/inkscape"
   version="1.1"
   width="1500"
   height="1500"
   id="svg2"
   sodipodi:docname="Y.svg"
   inkscape:version="0.92.4 (unknown)">
  <sodipodi:namedview
     pagecolor="#ffffff"
     bordercolor="#666666"
     borderopacity="1"
     objecttolerance="10"
     gridtolerance="10"
     guidetolerance="10"
     inkscape:pageopacity="0"
     inkscape:pageshadow="2"
     inkscape:window-width="1366"
     inkscape:window-height="716"
     id="namedview56"
     showgrid="false"
     inkscape:zoom="0.22250293"
     inkscape:cx="1342.181"
     inkscape:cy="-10.296921"
     inkscape:window-x="0"
     inkscape:window-y="24"
     inkscape:window-maximized="1"
     inkscape:current-layer="svg2" />
  <defs
     id="defs4">
    <clipPath
       id="clipPath3862">
      <rect
         width="744"
         height="1052"
         x="0"
         y="0.36218262"
         id="rect3864"
         style="fill:#2ad4ff;fill-opacity:1;stroke:none" />
    </clipPath>
    <clipPath
       id="clipPath3075">
      <rect
         width="880.29663"
         height="769.06781"
         x="320.97458"
         y="572.48926"
         id="rect3077"
         style="opacity:0.71836733;fill:#c8ab37;fill-opacity:1;stroke:none" />
    </clipPath>
    <clipPath
       id="clipPath3949">
      <rect
         width="750"
         height="750"
         x="0"
         y="2.6171874e-06"
         id="rect3951"
         style="fill:#2ad4ff;fill-opacity:1;stroke:none" />
    </clipPath>
    <clipPath
       id="clipPath3964">
      <path
         d="m 542.68968,295.5 -47.75218,173.03125 122.46875,0 0,-173.03125 z m -316.28343,5.625 0,156.75 84.8125,0 -35.39279,-161.80611 z"
         id="path3966"
         style="fill:#ff5f00;fill-opacity:1;stroke:#aa4400;stroke-width:3;stroke-linecap:square;stroke-miterlimit:4;stroke-opacity:1;stroke-dasharray:none" />
    </clipPath>
    <clipPath
       id="clipPath3036">
      <rect
         width="629.2052"
         height="620.21655"
         x="791.00079"
         y="-176.83527"
         id="rect3038"
         style="opacity:0.55510206;fill:#ffe680;fill-opacity:1;stroke:none" />
    </clipPath>
    <clipPath
       id="clipPath3042">
      <rect
         width="1276.3877"
         height="606.73358"
         x="480.89255"
         y="304.05728"
         id="rect3044"
         style="opacity:0.55510206;fill:#ffe680;fill-opacity:1;stroke:none" />
    </clipPath>
    <clipPath
       id="clipPath3986">
      <rect
         width="391.00607"
         height="175.27859"
         x="-1478.6322"
         y="283.83286"
         id="rect3988"
         style="opacity:0.53061224;fill:#9955ff;fill-opacity:1;stroke:none" />
    </clipPath>
    <clipPath
       id="clipPath4018">
      <rect
         width="1500"
         height="1500"
         x="0"
         y="2.9296871e-08"
         id="rect4020"
         style="fill:#2ad4ff;fill-opacity:1;stroke:none" />
    </clipPath>
    <clipPath
       id="clipPath4024">
      <rect
         width="1500"
         height="1500"
         x="0"
         y="2.9296871e-08"
         id="rect4026"
         style="fill:#2ad4ff;fill-opacity:1;stroke:none" />
    </clipPath>
    <clipPath
       clipPathUnits="userSpaceOnUse"
       id="clipPath911">
      <rect
         style="opacity:1;fill:#aa0000;fill-opacity:1;stroke:#000000;stroke-width:3.02362204;stroke-linejoin:miter;stroke-miterlimit:4;stroke-dasharray:none;stroke-opacity:1;paint-order:stroke markers fill"
         id="rect913"
         width="692.79663"
         height="641.94916"
         x="966.10168"
         y="699.15253"
         ry="1.67204" />
    </clipPath>
    <clipPath
       clipPathUnits="userSpaceOnUse"
       id="clipPath982">
      <rect
         width="1105.9957"
         height="1105.9957"
         x="193.8522"
         y="193.01425"
         id="rect984"
         style="fill:#aa0000;fill-opacity:1;stroke:none;stroke-width:0.7373305" />
    </clipPath>
  </defs>
  <metadata
     id="metadata7">
    <rdf:RDF>
      <cc:Work
         rdf:about="">
        <dc:format>image/svg+xml</dc:format>
        <dc:type
           rdf:resource="http://purl.org/dc/dcmitype/StillImage" />
        <dc:title />
      </cc:Work>
    </rdf:RDF>
  </metadata>
  <rect
     style="fill:#916f6f;fill-opacity:1;stroke:none"
     id="rect3082"
     y="2.9296871e-08"
     x="0"
     height="1500"
     width="1500" />
  <path
     style="fill:#483737;fill-rule:evenodd;stroke:none;stroke-width:1.10847247px;stroke-linecap:butt;stroke-linejoin:miter;stroke-opacity:1"
     clip-path="none"
     d="M 1424.4316 97.513672 C 1424.4316 97.513672 1394.5388 127.40519 1359.666 159.78711 C 1324.7932 192.16902 1260.0301 212.09688 1242.5938 222.06055 C 1225.1573 232.02421 1200.248 222.06055 1200.248 222.06055 C 1200.248 222.06055 1095.6294 246.96884 1065.7383 239.49609 C 1035.8474 232.02334 1015.9199 227.04102 1015.9199 227.04102 L 1043.3203 249.45898 L 991.01172 244.47852 C 991.01172 244.47852 933.7203 189.67792 913.79297 174.73242 C 893.86564 159.78692 876.42969 162.27734 876.42969 162.27734 L 873.9375 209.60547 L 834.08398 189.67773 L 796.71875 246.96875 C 796.71875 246.96875 731.95546 271.87736 702.06445 291.80469 C 672.17346 311.73202 637.30116 351.5878 607.41016 359.06055 C 577.51917 366.53331 532.68164 331.66016 532.68164 331.66016 C 532.68164 331.66016 552.60909 378.98682 575.02734 391.44141 C 597.44559 403.89599 619.86523 403.89648 619.86523 403.89648 C 619.86523 403.89648 570.04539 433.7881 532.68164 458.69727 C 495.3179 483.60643 460.44531 518.47852 460.44531 518.47852 C 460.44531 518.47852 405.64608 570.78887 385.71875 585.73438 C 365.79142 600.67988 330.91797 593.20703 330.91797 593.20703 C 330.91797 593.20703 353.33566 625.58907 375.75391 635.55273 C 398.17216 645.5164 403.1543 652.98828 403.1543 652.98828 C 403.1543 652.98828 360.80888 672.91456 338.39062 685.36914 C 315.97237 697.82372 293.55469 692.84375 293.55469 692.84375 C 293.55469 692.84375 308.49973 715.26172 330.91797 715.26172 C 353.33622 715.26172 358.31836 727.71484 358.31836 727.71484 C 358.31836 727.71484 325.93701 740.1711 313.48242 750.13477 C 301.02783 760.09843 271.13672 742.66211 271.13672 742.66211 C 271.13672 742.66211 298.53692 780.02529 313.48242 787.49805 C 328.42792 794.97082 340.88281 799.95312 340.88281 799.95312 C 340.88281 799.95313 276.11852 829.84257 221.31836 869.69727 C 166.5182 909.55197 141.60924 1001.716 99.263672 1068.9707 C 56.918093 1136.2255 22.044922 1148.6797 22.044922 1148.6797 L 76.845703 1196.0078 L 29.517578 1245.8262 L 64.390625 1265.7539 L 19.554688 1340.4805 L 54.425781 1362.8984 L 36.990234 1410.2266 L 64.390625 1417.6992 L 31.064453 1500 L 1346.5352 1500 C 1303.0736 1459.033 1227.2194 1388.6011 1202.7383 1372.8633 C 1167.8654 1350.4451 1160.3926 1320.5547 1160.3926 1320.5547 C 1160.3926 1320.5547 1237.6117 1345.463 1215.1934 1330.5176 C 1192.7752 1315.5721 1167.8656 1288.172 1137.9746 1265.7539 C 1108.0837 1243.3356 1130.502 1203.4805 1130.502 1203.4805 C 1130.502 1203.4805 1200.2475 1245.826 1245.084 1253.2988 C 1289.9205 1260.7715 1302.375 1243.3359 1302.375 1243.3359 C 1302.375 1243.3359 1232.6295 1210.9525 1187.793 1198.498 C 1142.9566 1186.0434 1132.9941 1126.2617 1132.9941 1126.2617 C 1132.9941 1126.2617 1220.1759 1148.6803 1262.5215 1153.6621 C 1304.867 1158.6439 1329.7754 1133.7344 1329.7754 1133.7344 C 1329.7754 1133.7344 1279.9569 1083.9175 1245.084 1063.9902 C 1210.2112 1044.0629 1220.1752 989.26147 1215.1934 954.38867 C 1210.2115 919.51577 1240.1032 899.58866 1262.5215 897.09766 C 1284.9397 894.60666 1332.2676 842.29787 1332.2676 817.38867 C 1332.2676 792.47958 1319.8125 770.06055 1319.8125 770.06055 C 1319.8125 770.06055 1349.7028 747.64345 1364.6484 730.20703 C 1379.5939 712.77061 1384.576 620.60576 1392.0488 598.1875 C 1399.5215 575.76926 1372.1207 523.46113 1352.1934 508.51562 C 1332.266 493.57013 1337.248 468.66016 1337.248 468.66016 C 1337.248 468.66016 1377.1034 446.24129 1384.5762 413.85938 C 1392.049 381.47746 1372.1211 339.13281 1372.1211 339.13281 C 1372.1211 339.13281 1362.1577 374.00626 1349.7031 393.93359 C 1337.2485 413.86092 1292.4121 423.82422 1292.4121 423.82422 C 1292.4121 423.82422 1309.8491 344.11542 1339.7402 329.16992 C 1369.6312 314.22443 1406.9949 279.35017 1397.0312 234.51367 C 1387.0674 189.67718 1424.4316 97.513672 1424.4316 97.513672 z "
     id="path848" />
  <path
     style="color:#000000;font-style:normal;font-variant:normal;font-weight:normal;font-stretch:normal;font-size:medium;line-height:normal;font-family:sans-serif;font-variant-ligatures:normal;font-variant-position:normal;font-variant-caps:normal;font-variant-numeric:normal;font-variant-alternates:normal;font-feature-settings:normal;text-indent:0;text-align:start;text-decoration:none;text-decoration-line:none;text-decoration-style:solid;text-decoration-color:#000000;letter-spacing:normal;word-spacing:normal;text-transform:none;writing-mode:lr-tb;direction:ltr;text-orientation:mixed;dominant-baseline:auto;baseline-shift:baseline;text-anchor:start;white-space:normal;shape-padding:0;clip-rule:nonzero;display:inline;overflow:visible;visibility:visible;opacity:1;isolation:auto;mix-blend-mode:normal;color-interpolation:sRGB;color-interpolation-filters:linearRGB;solid-color:#000000;solid-opacity:1;vector-effect:none;fill:#f8f8f8;fill-opacity:1;fill-rule:evenodd;stroke:none;stroke-width:2.21694469;stroke-linecap:butt;stroke-linejoin:miter;stroke-miterlimit:4;stroke-dasharray:none;stroke-dashoffset:0;stroke-opacity:1;color-rendering:auto;image-rendering:auto;shape-rendering:auto;text-rendering:auto;enable-background:accumulate"
     d="M 1331.1465 812.55078 L 1330.8945 814.75391 C 1330.8945 814.75391 1341.7184 815.98975 1355.498 819.55078 C 1369.2777 823.11182 1385.9801 829.02004 1397.5898 838.18555 C 1406.5584 845.26596 1418.3279 859.77101 1429.3262 874.83984 C 1408.523 873.70248 1386.5463 872.14224 1370.9512 870.11133 C 1366.6984 862.25291 1363.0809 856.12875 1360.5449 852.83203 C 1353.9375 844.24224 1338.841 839.06112 1325.3691 835.77148 C 1311.8973 832.48185 1300 831.23242 1300 831.23242 L 1299.7695 833.4375 C 1299.7695 833.4375 1311.5363 834.67676 1324.8418 837.92578 C 1338.1473 841.1748 1352.942 846.58237 1358.7891 854.18359 C 1360.9963 857.05303 1364.3091 862.58459 1368.2285 869.74805 C 1365.6338 869.38246 1363.2439 869.00199 1361.1133 868.60742 C 1358.9324 868.20355 1356.7808 867.7717 1354.6582 867.32031 C 1333.2145 850.75849 1302.7461 840.00781 1302.7461 840.00781 L 1302.0059 842.09766 C 1302.0059 842.09766 1328.6541 851.61947 1349.2656 866.11328 C 1321.4344 859.58476 1300.3437 850.00781 1300.3438 850.00781 L 1299.4258 852.02539 C 1299.4258 852.02539 1323.1954 862.82174 1353.6719 869.36914 C 1356.1969 871.33156 1358.5903 873.36707 1360.7637 875.47461 C 1367.6621 882.16402 1378.9308 897.43257 1390.6777 914.48633 C 1391.0078 915.18279 1391.3386 915.86652 1391.668 916.56445 C 1404.7354 944.25491 1417.2048 972.96605 1420.8828 984.61328 C 1428.3018 1008.1067 1458.2305 1122.8066 1458.2305 1122.8066 L 1460.377 1122.2461 C 1460.377 1122.2461 1430.5227 1007.7795 1422.9961 983.94531 C 1419.6781 973.43836 1409.7493 950.26875 1398.5586 926.07422 C 1401.2774 930.12397 1403.9819 934.18099 1406.6133 938.18359 C 1423.183 963.38821 1437.1875 986.10742 1437.1875 986.10742 L 1439.0742 984.94336 C 1439.0742 984.94336 1425.0555 962.20325 1408.4648 936.9668 C 1403.2895 929.0945 1397.8866 921.03149 1392.5664 913.29297 C 1386.3776 900.23886 1380.1012 887.48957 1374.582 876.92969 C 1373.7642 875.36496 1373.0111 873.97566 1372.2305 872.51367 C 1388.3125 874.52818 1410.3344 876.04334 1430.9941 877.15039 C 1433.6009 880.76064 1436.1716 884.3782 1438.6191 887.91992 C 1451.8322 907.03997 1462.0937 923.83008 1462.0938 923.83008 L 1463.9863 922.67383 C 1463.9863 922.67383 1453.6963 905.83797 1440.4434 886.66016 C 1438.3143 883.5793 1436.0947 880.44183 1433.8457 877.30078 C 1435.0957 877.36592 1436.3721 877.43789 1437.6074 877.5 C 1465.4895 878.9019 1489.166 879.52344 1489.166 879.52344 L 1489.2227 877.30859 C 1489.2227 877.30859 1465.5709 876.68555 1437.7188 875.28516 C 1435.9011 875.19376 1434.03 875.09036 1432.1816 874.99219 C 1420.8797 859.36761 1408.6379 844.08352 1398.9629 836.44531 C 1386.9088 826.92895 1369.9845 821.00463 1356.0527 817.4043 C 1342.121 813.80396 1331.1465 812.55078 1331.1465 812.55078 z M 1037.7363 832.54883 C 1037.7363 832.54883 1017.4199 836.08145 992.03711 843.58594 C 966.65431 851.09042 936.18412 862.53848 915.70898 878.5625 C 895.30924 894.52753 850.01235 938.08577 809.71484 977.72266 C 769.41734 1017.3595 734.18555 1053.0313 734.18555 1053.0312 L 735.76367 1054.5879 C 735.76367 1054.5879 770.98555 1018.9263 811.26953 979.30273 C 851.55351 939.67915 896.96501 896.04777 917.07617 880.30859 C 937.11195 864.62842 967.40821 853.17985 992.66406 845.71289 C 1017.9199 838.24593 1038.1152 834.73438 1038.1152 834.73438 L 1037.7363 832.54883 z M 1011.3223 848.40039 C 1011.3223 848.40039 958.16564 857.26111 908.60938 901.50781 C 859.34533 945.49358 808.16003 982.48682 783.31641 1028.625 C 758.54911 1074.6214 755.00195 1115.3738 755.00195 1147.1602 C 755.00195 1151.7114 755.19629 1156.8275 755.50391 1162.1992 C 739.78193 1204.954 725.11523 1248.9687 725.11523 1248.9688 L 727.21875 1249.6699 C 727.21875 1249.6699 740.83781 1208.8621 755.84961 1167.748 C 758.05538 1199.1611 763.82031 1237.1543 763.82031 1237.1543 L 766.01367 1236.8223 C 766.01367 1236.8223 759.63197 1194.5457 757.75 1162.5547 C 766.92935 1137.6032 776.43412 1113.1598 783.53125 1098.3203 C 790.25784 1084.2556 799.78761 1068.2356 811.27734 1051.3984 C 848.05208 1019.4841 912.35753 964.04954 948.78906 934.9043 C 1001.5426 892.70147 1033.043 880.46875 1033.043 880.46875 L 1032.2402 878.40234 C 1032.2402 878.40234 1000.3314 890.83017 947.4043 933.17188 C 913.07352 960.6365 853.96109 1011.4674 816.40625 1044.0117 C 837.1277 1014.675 863.31067 983.40224 890.75586 955.95703 C 936.33977 910.37308 1013.7793 869.85156 1013.7793 869.85156 L 1012.752 867.88672 C 1012.752 867.88672 935.19542 908.38463 889.18945 954.39062 C 859.38243 984.19762 831.08869 1018.4381 809.57812 1049.9375 C 793.2052 1064.148 781.80078 1074.1113 781.80078 1074.1113 L 783.25977 1075.7793 C 783.25977 1075.7793 791.84762 1068.2729 804.86719 1056.959 C 795.36712 1071.3725 787.40479 1085.0842 781.53125 1097.3652 C 774.83481 1111.3669 766.07829 1133.6834 757.46484 1156.9121 C 757.31927 1153.4851 757.21875 1150.1734 757.21875 1147.1602 C 757.21875 1115.5381 760.71724 1075.2692 785.26758 1029.6758 C 809.74157 984.22405 860.71471 947.24163 910.08594 903.16016 C 959.16492 859.3396 1011.6875 850.58789 1011.6875 850.58789 L 1011.3223 848.40039 z M 1291.7773 858.80859 L 1290.5566 860.66016 C 1290.5566 860.66016 1319.754 879.94182 1339.5332 902.19336 C 1359.3683 924.50786 1381.0553 957.44879 1385.9727 986.95312 C 1386.5872 990.64063 1387.1269 995.78243 1387.6016 1001.9453 C 1387.4944 1001.8415 1387.3908 1001.741 1387.2832 1001.6367 C 1378.8044 984.15943 1369.7311 966.86518 1361.834 955.01953 C 1339.3387 921.27652 1296.9922 871.4707 1296.9922 871.4707 L 1295.3047 872.90625 C 1295.3047 872.90625 1337.6491 922.73823 1359.9902 956.25 C 1366.9539 966.69554 1374.9163 981.56356 1382.5703 997.0625 C 1372.3195 987.05338 1360.3484 975.13351 1348.0098 962.33789 C 1347.6525 961.96735 1347.2934 961.57899 1346.9355 961.20312 C 1343.3899 950.78311 1339.5968 941.93173 1335.666 936.31641 C 1327.6964 924.93132 1314.0341 913.23377 1301.373 903.72266 C 1287.7813 884.27641 1278.4102 869.11523 1278.4102 869.11523 L 1276.5234 870.2793 C 1276.5234 870.2793 1284.2564 882.79615 1295.8496 899.66016 C 1282.678 890.17095 1271.8066 883.69141 1271.8066 883.69141 L 1270.6719 885.5957 C 1270.6719 885.5957 1282.1522 892.42156 1295.8086 902.35352 C 1297.0969 903.29043 1298.4175 904.28014 1299.7363 905.26953 C 1312.4663 923.46948 1328.8596 945.34472 1344.8887 962.26367 C 1349.3765 975.5108 1353.5634 991.41444 1357.0312 1006.3262 C 1363.2499 1033.0664 1367.293 1056.7031 1367.293 1056.7031 L 1369.4785 1056.3301 C 1369.4785 1056.3301 1365.4254 1032.6387 1359.1895 1005.8242 C 1356.09 992.49654 1352.4833 978.42659 1348.5352 966.0625 C 1362.0001 979.96561 1374.8086 992.6282 1385.418 1002.916 C 1386.2955 1004.7274 1387.1646 1006.5263 1388.0273 1008.3359 C 1389.1829 1026.4132 1389.902 1050.6636 1390.3184 1073.3516 C 1390.9409 1107.2782 1390.9395 1137.4707 1390.9395 1137.4707 L 1393.1562 1137.4707 C 1393.1562 1137.4707 1393.1562 1107.2613 1392.5352 1073.3105 C 1392.1598 1052.8553 1391.561 1031.1582 1390.5957 1013.7578 C 1403.9454 1042.1721 1414.6875 1068.1484 1414.6875 1068.1484 L 1416.7363 1067.3027 C 1416.7363 1067.3027 1404.715 1038.1654 1390.2246 1007.7461 C 1390.2205 1007.6827 1390.217 1007.6218 1390.2129 1007.5586 C 1402.8566 1019.7312 1411.2246 1027.4414 1411.2246 1027.4414 L 1412.7266 1025.8105 C 1412.7266 1025.8105 1403.5577 1017.3535 1389.9902 1004.2578 C 1389.4699 997.02502 1388.8717 990.85726 1388.1602 986.58789 C 1383.1139 956.3103 1361.2111 923.2428 1341.1914 900.7207 C 1321.116 878.13586 1291.7773 858.80859 1291.7773 858.80859 z M 1358.375 870.32227 C 1359.1563 870.47484 1359.9225 870.6411 1360.7109 870.78711 C 1363.3069 871.26784 1366.291 871.72233 1369.5234 872.1582 C 1370.5337 874.03271 1371.5438 875.90329 1372.6172 877.95703 C 1376.3714 885.14015 1380.4921 893.39322 1384.6895 902.02344 C 1375.9253 889.72068 1367.8992 879.30785 1362.3066 873.88477 C 1361.0569 872.67285 1359.7406 871.48538 1358.375 870.32227 z M 1062.0723 871.4082 C 1062.0723 871.4082 1017.7863 894.42682 985.91406 944.00586 C 970.14816 968.53057 945.95433 994.49855 923.47656 1020.7227 C 900.99879 1046.9467 880.21493 1073.4195 871.31055 1099.2422 C 853.60776 1150.5802 820.19531 1308.9746 820.19531 1308.9746 L 822.36523 1309.4336 C 822.36523 1309.4336 855.88216 1150.7846 873.40625 1099.9648 C 882.1153 1074.7086 902.72366 1048.3419 925.16016 1022.166 C 936.24207 1009.2371 947.75861 996.35358 958.50391 983.63672 C 941.2153 1004.8223 926.85351 1024.8255 920.6582 1039.2812 C 899.55722 1088.5169 881.81836 1113.4321 881.81836 1163.0137 C 881.81836 1187.91 889.77174 1224.4642 897.70703 1254.8828 C 905.64232 1285.3014 913.57812 1309.5488 913.57812 1309.5488 L 915.68555 1308.8594 C 915.68555 1308.8594 907.76837 1284.67 899.85156 1254.3223 C 891.93476 1223.9745 884.03516 1187.4349 884.03516 1163.0137 C 884.03516 1113.96 901.52406 1089.5558 922.69531 1040.1562 C 933.09085 1015.9 968.31291 973.95087 1000.875 938.30859 C 1018.0796 919.47652 1034.4024 902.52019 1046.1094 890.56641 C 1024.8794 916.95083 987.73873 965.89359 971.73242 1004.0625 C 964.11278 1022.2324 956.1243 1039.7543 948.42969 1056.6387 C 945.05155 1060.6015 934.92383 1072.4648 934.92383 1072.4648 L 936.61133 1073.9023 C 936.61133 1073.9023 943.69546 1065.6021 945.10742 1063.9453 C 931.01334 1094.9277 918.37303 1123.434 911.79688 1148.6426 C 901.17961 1189.342 902.95508 1226.4746 902.95508 1226.4746 L 905.16992 1226.3691 C 905.16992 1226.3691 903.42448 1189.5235 913.94336 1149.2012 C 920.93533 1122.3986 934.98978 1091.5263 950.3457 1057.8105 C 968.97969 1035.9517 1021.5247 974.34102 1042.2812 950.61914 C 1067.1017 922.25311 1082.9785 885.15625 1082.9785 885.15625 L 1080.9395 884.2832 C 1080.9395 884.2832 1065.1107 921.16325 1040.6133 949.16016 C 1021.2405 971.30063 976.03555 1024.2727 953.67188 1050.498 C 960.36322 1035.7816 967.20121 1020.6015 973.77734 1004.9199 C 996.52156 950.6837 1063.4238 873.11523 1063.4238 873.11523 L 1062.582 872.38867 L 1062.0723 871.4082 z M 1055.5723 877.82227 C 1045.1836 888.24944 1022.9864 910.81794 999.23828 936.8125 C 988.42469 948.64899 977.33741 961.14233 966.93555 973.47656 C 974.69254 963.92 981.81736 954.47919 987.7793 945.20508 C 1011.3326 908.56653 1041.6995 886.60123 1055.5723 877.82227 z M 1096.8906 899.95312 L 1038.7676 986.25977 L 1040.6055 987.49805 L 1098.7305 901.19141 L 1096.8906 899.95312 z M 1305.6895 909.84766 C 1316.5111 918.40226 1327.301 928.23272 1333.8496 937.58789 C 1336.9399 942.00253 1340.0411 948.83665 1343.0391 957.02148 C 1329.9359 942.66399 1316.7256 925.32991 1305.6895 909.84766 z "
     id="path850" />
</svg>
