<?xml version="1.0" encoding="UTF-8" standalone="no"?>
<!-- Created with Inkscape (http://www.inkscape.org/) -->

<svg
   xmlns:dc="http://purl.org/dc/elements/1.1/"
   xmlns:cc="http://creativecommons.org/ns#"
   xmlns:rdf="http://www.w3.org/1999/02/22-rdf-syntax-ns#"
   xmlns:svg="http://www.w3.org/2000/svg"
   xmlns="http://www.w3.org/2000/svg"
   xmlns:sodipodi="http://sodipodi.sourceforge.net/DTD/sodipodi-0.dtd"
   xmlns:inkscape="http://www.inkscape.org/namespaces/inkscape"
   version="1.1"
   width="1500"
   height="1500"
   id="svg2"
   sodipodi:docname="Yh.svg"
   inkscape:version="0.92.4 (unknown)">
  <sodipodi:namedview
     pagecolor="#ffffff"
     bordercolor="#666666"
     borderopacity="1"
     objecttolerance="10"
     gridtolerance="10"
     guidetolerance="10"
     inkscape:pageopacity="0"
     inkscape:pageshadow="2"
     inkscape:window-width="1366"
     inkscape:window-height="716"
     id="namedview56"
     showgrid="false"
     inkscape:zoom="0.22250293"
     inkscape:cx="573.71244"
     inkscape:cy="273.30845"
     inkscape:window-x="0"
     inkscape:window-y="24"
     inkscape:window-maximized="1"
     inkscape:current-layer="svg2" />
  <defs
     id="defs4">
    <clipPath
       id="clipPath3862">
      <rect
         width="744"
         height="1052"
         x="0"
         y="0.36218262"
         id="rect3864"
         style="fill:#2ad4ff;fill-opacity:1;stroke:none" />
    </clipPath>
    <clipPath
       id="clipPath3075">
      <rect
         width="880.29663"
         height="769.06781"
         x="320.97458"
         y="572.48926"
         id="rect3077"
         style="opacity:0.71836733;fill:#c8ab37;fill-opacity:1;stroke:none" />
    </clipPath>
    <clipPath
       id="clipPath3949">
      <rect
         width="750"
         height="750"
         x="0"
         y="2.6171874e-06"
         id="rect3951"
         style="fill:#2ad4ff;fill-opacity:1;stroke:none" />
    </clipPath>
    <clipPath
       id="clipPath3964">
      <path
         d="m 542.68968,295.5 -47.75218,173.03125 122.46875,0 0,-173.03125 z m -316.28343,5.625 0,156.75 84.8125,0 -35.39279,-161.80611 z"
         id="path3966"
         style="fill:#ff5f00;fill-opacity:1;stroke:#aa4400;stroke-width:3;stroke-linecap:square;stroke-miterlimit:4;stroke-opacity:1;stroke-dasharray:none" />
    </clipPath>
    <clipPath
       id="clipPath3036">
      <rect
         width="629.2052"
         height="620.21655"
         x="791.00079"
         y="-176.83527"
         id="rect3038"
         style="opacity:0.55510206;fill:#ffe680;fill-opacity:1;stroke:none" />
    </clipPath>
    <clipPath
       id="clipPath3042">
      <rect
         width="1276.3877"
         height="606.73358"
         x="480.89255"
         y="304.05728"
         id="rect3044"
         style="opacity:0.55510206;fill:#ffe680;fill-opacity:1;stroke:none" />
    </clipPath>
    <clipPath
       id="clipPath3986">
      <rect
         width="391.00607"
         height="175.27859"
         x="-1478.6322"
         y="283.83286"
         id="rect3988"
         style="opacity:0.53061224;fill:#9955ff;fill-opacity:1;stroke:none" />
    </clipPath>
    <clipPath
       id="clipPath4018">
      <rect
         width="1500"
         height="1500"
         x="0"
         y="2.9296871e-08"
         id="rect4020"
         style="fill:#2ad4ff;fill-opacity:1;stroke:none" />
    </clipPath>
    <clipPath
       id="clipPath4024">
      <rect
         width="1500"
         height="1500"
         x="0"
         y="2.9296871e-08"
         id="rect4026"
         style="fill:#2ad4ff;fill-opacity:1;stroke:none" />
    </clipPath>
    <clipPath
       clipPathUnits="userSpaceOnUse"
       id="clipPath911">
      <rect
         style="opacity:1;fill:#aa0000;fill-opacity:1;stroke:#000000;stroke-width:3.02362204;stroke-linejoin:miter;stroke-miterlimit:4;stroke-dasharray:none;stroke-opacity:1;paint-order:stroke markers fill"
         id="rect913"
         width="692.79663"
         height="641.94916"
         x="966.10168"
         y="699.15253"
         ry="1.67204" />
    </clipPath>
    <clipPath
       clipPathUnits="userSpaceOnUse"
       id="clipPath982">
      <rect
         width="1105.9957"
         height="1105.9957"
         x="193.8522"
         y="193.01425"
         id="rect984"
         style="fill:#aa0000;fill-opacity:1;stroke:none;stroke-width:0.7373305" />
    </clipPath>
    <clipPath
       clipPathUnits="userSpaceOnUse"
       id="clipPath922">
      <rect
         width="1500"
         height="1500"
         x="0"
         y="2.9296871e-08"
         id="rect924"
         style="fill:#916f6f;fill-opacity:1;stroke:none" />
    </clipPath>
  </defs>
  <metadata
     id="metadata7">
    <rdf:RDF>
      <cc:Work
         rdf:about="">
        <dc:format>image/svg+xml</dc:format>
        <dc:type
           rdf:resource="http://purl.org/dc/dcmitype/StillImage" />
        <dc:title />
      </cc:Work>
    </rdf:RDF>
  </metadata>
  <rect
     style="fill:#916f6f;fill-opacity:1;stroke:none"
     id="rect3082"
     y="2.9296871e-08"
     x="0"
     height="1500"
     width="1500" />
  <path
     style="fill:#483737;fill-rule:evenodd;stroke:none;stroke-width:1.10847247px;stroke-linecap:butt;stroke-linejoin:miter;stroke-opacity:1"
     d="m 27.02648,1509.9702 37.36375,-92.2707 -27.400079,-7.4728 17.436415,-47.3273 -34.87283,-22.4183 44.836494,-74.7274 -34.872835,-19.9274 47.327415,-49.8183 -54.800159,-47.3274 c 0,0 34.87283,-12.4546 77.218409,-79.7094 42.34557,-67.2547 67.25474,-159.4186 122.0549,-199.2733 54.80016,-39.8547 119.56398,-69.74564 119.56398,-69.74564 0,0 -12.45457,-4.98181 -27.40007,-12.45458 -14.9455,-7.47276 -42.34558,-44.83651 -42.34558,-44.83651 0,0 29.89099,17.43642 42.34558,7.47276 12.45459,-9.96367 44.83649,-22.41824 44.83649,-22.41824 0,0 -4.98183,-12.45459 -27.40008,-12.45459 -22.41824,0 -37.36374,-22.41825 -37.36374,-22.41825 0,0 22.41824,4.98183 44.83649,-7.47275 22.41826,-12.45458 64.76383,-32.38192 64.76383,-32.38192 0,0 -4.98183,-7.47274 -27.40008,-17.43641 -22.41825,-9.96366 -44.8365,-42.34558 -44.8365,-42.34558 0,0 34.87284,7.47276 54.80017,-7.47274 19.92733,-14.9455 74.72749,-67.25475 74.72749,-67.25475 0,0 34.87283,-34.87283 72.23657,-59.78199 37.36375,-24.90917 87.18208,-54.80016 87.18208,-54.80016 0,0 -22.41825,0 -44.8365,-12.45458 -22.41825,-12.45459 -42.34558,-59.782 -42.34558,-59.782 0,0 44.8365,34.87284 74.72749,27.40008 29.891,-7.47275 64.76383,-47.32742 94.65482,-67.25475 29.89101,-19.92733 94.65484,-44.83649 94.65484,-44.83649 l 37.36374,-57.29107 39.85466,19.92733 2.49092,-47.32742 c 0,0 17.43641,-2.49091 37.36374,12.45459 19.92733,14.9455 77.21838,69.74566 77.21838,69.74566 l 52.3094,4.98183 -27.4002,-22.41825 c 0,0 19.9274,4.98183 49.8183,12.45458 29.8911,7.47275 134.5095,-17.43641 134.5095,-17.43641 0,0 24.9093,9.96366 42.3457,0 17.4363,-9.96367 82.2002,-29.891 117.073,-62.27291 34.8728,-32.38192 64.7639,-62.272912 64.7639,-62.272912 0,0 -37.3639,92.163912 -27.4001,137.000402 9.9636,44.8365 -27.4001,79.70933 -57.2911,94.65482 -29.8911,14.9455 -47.3274,94.65483 -47.3274,94.65483 0,0 44.8364,-9.96367 57.291,-29.891 12.4546,-19.92733 22.4183,-54.80016 22.4183,-54.80016 0,0 19.9274,42.34557 12.4546,74.72749 -7.4728,32.38192 -47.3275,54.80016 -47.3275,54.80016 0,0 -4.9818,24.90917 14.9456,39.85466 19.9273,14.9455 47.3274,67.25475 39.8547,89.67299 -7.4728,22.41826 -12.4546,114.58216 -27.4001,132.01858 -14.9456,17.43642 -44.8365,39.85466 -44.8365,39.85466 0,0 12.4545,22.41825 12.4545,47.32734 0,24.9092 -47.3274,77.2184 -69.7456,79.7094 -22.4183,2.491 -52.3093,22.4182 -47.3274,57.2911 4.9818,34.8728 -4.9819,89.673 29.8909,109.6003 34.8729,19.9273 84.6912,69.7456 84.6912,69.7456 0,0 -24.9092,24.9092 -67.2547,19.9274 -42.3456,-4.9818 -129.5277,-27.4001 -129.5277,-27.4001 0,0 9.9637,59.782 54.8001,72.2366 44.8365,12.4545 114.5823,44.8365 114.5823,44.8365 0,0 -12.4547,17.4364 -57.2912,9.9637 -44.8365,-7.4728 -114.5821,-49.8184 -114.5821,-49.8184 0,0 -22.4182,39.8547 7.4727,62.273 29.891,22.4181 54.8003,49.8183 77.2185,64.7638 22.4183,14.9454 -54.8002,-9.9637 -54.8002,-9.9637 0,0 7.4727,29.891 42.3456,52.3092 34.8729,22.4183 175.4459,157.1413 175.4459,157.1413 l -43.374,111.8244 z"
     id="path848"
     inkscape:connector-curvature="0"
     sodipodi:nodetypes="cccccccccsscscscscscscscscscssccccsccccccsccccscscccccsscccscccccccccccc"
     clip-path="url(#clipPath922)" />
  <g
     id="g901"
     transform="matrix(1.1084724,0,0,1.1084724,261.17262,-314.75476)">
    <path
       inkscape:connector-curvature="0"
       id="path850"
       d="m 700.74153,1036.0169 c 0,0 -73.09322,12.7119 -109.63983,41.3136 -36.54661,28.6017 -163.66526,157.3093 -163.66526,157.3093"
       style="fill:none;fill-rule:evenodd;stroke:#f8f8f8;stroke-width:2;stroke-linecap:butt;stroke-linejoin:miter;stroke-miterlimit:4;stroke-dasharray:none;stroke-opacity:1" />
    <path
       inkscape:connector-curvature="0"
       id="path852"
       d="m 676.90678,1050.3178 c 0,0 -47.66949,7.9449 -92.16102,47.6695 -44.49152,39.7246 -90.57203,73.0932 -112.81779,114.4068 -22.24577,41.3135 -25.42373,77.8601 -25.42373,106.4618 0,28.6017 7.94491,81.0382 7.94491,81.0382"
       style="fill:none;fill-rule:evenodd;stroke:#f8f8f8;stroke-width:2;stroke-linecap:butt;stroke-linejoin:miter;stroke-miterlimit:4;stroke-dasharray:none;stroke-opacity:1" />
    <path
       inkscape:connector-curvature="0"
       id="path854"
       d="m 678.49576,1067.7966 c 0,0 -69.91525,36.5466 -111.22881,77.8602 -41.31356,41.3135 -79.44915,92.161 -96.92797,128.7076 -17.47881,36.5466 -50.84745,136.6525 -50.84745,136.6525"
       style="fill:none;fill-rule:evenodd;stroke:#f8f8f8;stroke-width:2;stroke-linecap:butt;stroke-linejoin:miter;stroke-miterlimit:4;stroke-dasharray:none;stroke-opacity:1" />
    <path
       inkscape:connector-curvature="0"
       id="path856"
       d="m 695.97458,1077.3305 c 0,0 -28.6017,11.1229 -76.27119,49.2585 -47.66949,38.1356 -149.36441,127.1186 -149.36441,127.1186"
       style="fill:none;fill-rule:evenodd;stroke:#f8f8f8;stroke-width:2;stroke-linecap:butt;stroke-linejoin:miter;stroke-miterlimit:4;stroke-dasharray:none;stroke-opacity:1" />
    <path
       inkscape:connector-curvature="0"
       id="path858"
       d="m 722.98729,1070.9746 c 0,0 -39.72458,20.6568 -68.32627,65.1483 -28.6017,44.4915 -87.39407,93.75 -103.2839,139.8305 -15.88983,46.0805 -46.08051,189.089 -46.08051,189.089"
       style="fill:none;fill-rule:evenodd;stroke:#f8f8f8;stroke-width:2;stroke-linecap:butt;stroke-linejoin:miter;stroke-miterlimit:4;stroke-dasharray:none;stroke-opacity:1" />
    <path
       inkscape:connector-curvature="0"
       id="path860"
       d="m 722.98729,1070.9746 c 0,0 -60.38136,69.9152 -81.03814,119.1737 -20.65678,49.2585 -44.49152,93.75 -54.02542,130.2966 -9.5339,36.5466 -7.94492,69.9153 -7.94492,69.9153"
       style="fill:none;fill-rule:evenodd;stroke:#f8f8f8;stroke-width:2;stroke-linecap:butt;stroke-linejoin:miter;stroke-miterlimit:4;stroke-dasharray:none;stroke-opacity:1" />
    <path
       inkscape:connector-curvature="0"
       id="path862"
       d="m 722.98729,1070.9746 c 0,0 -108.05085,106.4618 -127.11865,150.9534 -19.06779,44.4915 -34.95762,66.7373 -34.95762,111.2288 0,44.4915 28.60169,131.8856 28.60169,131.8856"
       style="fill:none;fill-rule:evenodd;stroke:#f8f8f8;stroke-width:2;stroke-linecap:butt;stroke-linejoin:miter;stroke-miterlimit:4;stroke-dasharray:none;stroke-opacity:1" />
    <path
       inkscape:connector-curvature="0"
       id="path864"
       d="m 740.4661,1082.0975 c 0,0 -14.30084,33.3686 -36.54661,58.7923 -22.24576,25.4238 -95.33898,111.2288 -95.33898,111.2288"
       style="fill:none;fill-rule:evenodd;stroke:#f8f8f8;stroke-width:2;stroke-linecap:butt;stroke-linejoin:miter;stroke-miterlimit:4;stroke-dasharray:none;stroke-opacity:1" />
    <path
       inkscape:connector-curvature="0"
       id="path866"
       d="m 754.76695,1096.3983 -52.43644,77.8602"
       style="fill:none;fill-rule:evenodd;stroke:#f8f8f8;stroke-width:2;stroke-linecap:butt;stroke-linejoin:miter;stroke-miterlimit:4;stroke-dasharray:none;stroke-opacity:1" />
    <path
       inkscape:connector-curvature="0"
       id="path868"
       d="m 965.15581,1017.9839 c 0,0 39.32529,4.4943 60.67339,21.348 21.348,16.8537 58.4262,77.5271 58.4262,77.5271"
       style="fill:none;fill-rule:evenodd;stroke:#f8f8f8;stroke-width:2;stroke-linecap:butt;stroke-linejoin:miter;stroke-miterlimit:4;stroke-dasharray:none;stroke-opacity:1" />
    <path
       inkscape:connector-curvature="0"
       id="path870"
       d="m 937.0663,1034.8376 c 0,0 42.69606,4.4943 53.93187,19.1009 11.23583,14.6065 49.43753,96.6279 56.17903,117.9759 6.7415,21.3481 33.7074,124.7175 33.7074,124.7175"
       style="fill:none;fill-rule:evenodd;stroke:#f8f8f8;stroke-width:2;stroke-linecap:butt;stroke-linejoin:miter;stroke-miterlimit:4;stroke-dasharray:none;stroke-opacity:1" />
    <path
       inkscape:connector-curvature="0"
       id="path872"
       d="m 937.0663,1051.6913 c 0,0 24.71877,11.2358 55.05545,16.8537 30.33665,5.6179 115.72885,7.8651 115.72885,7.8651"
       style="fill:none;fill-rule:evenodd;stroke:#f8f8f8;stroke-width:2;stroke-linecap:butt;stroke-linejoin:miter;stroke-miterlimit:4;stroke-dasharray:none;stroke-opacity:1" />
    <path
       inkscape:connector-curvature="0"
       id="path874"
       d="m 939.31346,1042.7027 c 0,0 34.831,12.3593 53.37008,30.3366 18.53906,17.9773 69.10026,99.9987 69.10026,99.9987"
       style="fill:none;fill-rule:evenodd;stroke:#f8f8f8;stroke-width:2;stroke-linecap:butt;stroke-linejoin:miter;stroke-miterlimit:4;stroke-dasharray:none;stroke-opacity:1" />
    <path
       inkscape:connector-curvature="0"
       id="path876"
       d="m 929.20123,1059.5564 c 0,0 26.40415,17.4155 44.38144,37.6399 17.97729,20.2245 37.63993,49.9994 42.13423,76.9653 4.4944,26.9659 4.4944,135.9533 4.4944,135.9533"
       style="fill:none;fill-rule:evenodd;stroke:#f8f8f8;stroke-width:2;stroke-linecap:butt;stroke-linejoin:miter;stroke-miterlimit:4;stroke-dasharray:none;stroke-opacity:1" />
    <path
       inkscape:connector-curvature="0"
       id="path878"
       d="m 933.69555,1070.7922 c 0,0 38.20175,44.9432 58.4262,75.2799 20.22445,30.3367 49.43755,101.1222 49.43755,101.1222"
       style="fill:none;fill-rule:evenodd;stroke:#f8f8f8;stroke-width:2;stroke-linecap:butt;stroke-linejoin:miter;stroke-miterlimit:4;stroke-dasharray:none;stroke-opacity:1" />
    <path
       inkscape:connector-curvature="0"
       id="path880"
       d="m 916.84184,1068.545 c 0,0 32.58384,52.8083 62.92052,84.2686 30.33664,31.4602 58.42624,57.3026 58.42624,57.3026"
       style="fill:none;fill-rule:evenodd;stroke:#f8f8f8;stroke-width:2;stroke-linecap:butt;stroke-linejoin:miter;stroke-miterlimit:4;stroke-dasharray:none;stroke-opacity:1" />
    <path
       inkscape:connector-curvature="0"
       id="path882"
       d="m 911.22394,1082.028 c 0,0 41.57249,24.7188 57.30262,47.1904 15.73013,22.4716 30.33668,107.8637 30.33668,107.8637"
       style="fill:none;fill-rule:evenodd;stroke:#f8f8f8;stroke-width:2;stroke-linecap:butt;stroke-linejoin:miter;stroke-miterlimit:4;stroke-dasharray:none;stroke-opacity:1" />
  </g>
  <rect
     width="1500"
     height="1500"
     x="0"
     y="0"
     id="rect848"
     style="fill:#000000;fill-opacity:0.50196078;stroke:none" />
  <g
     aria-label="Y"
     transform="translate(3.1835938e-6,11.999984)"
     style="font-style:normal;font-variant:normal;font-weight:900;font-stretch:normal;font-size:1333.33337402px;line-height:125%;font-family:'Jones*';-inkscape-font-specification:'Jones* Heavy';text-align:center;letter-spacing:0px;word-spacing:0px;text-anchor:middle;fill:#ffffff;fill-opacity:1;stroke:none;stroke-width:1px;stroke-linecap:butt;stroke-linejoin:miter;stroke-opacity:1"
     id="flowRoot851">
    <path
       d="m 950.20834,278.66668 -200.00001,345.33334 -200,-345.33334 H 310.20832 L 636.875,832.00003 V 1212 H 863.54167 V 832.00003 L 1190.2083,278.66668 Z"
       style=""
       id="path15801" />
  </g>
</svg>
