<?xml version="1.0" encoding="UTF-8" standalone="no"?>
<!-- Created with Inkscape (http://www.inkscape.org/) -->

<svg
   xmlns:dc="http://purl.org/dc/elements/1.1/"
   xmlns:cc="http://creativecommons.org/ns#"
   xmlns:rdf="http://www.w3.org/1999/02/22-rdf-syntax-ns#"
   xmlns:svg="http://www.w3.org/2000/svg"
   xmlns="http://www.w3.org/2000/svg"
   xmlns:sodipodi="http://sodipodi.sourceforge.net/DTD/sodipodi-0.dtd"
   xmlns:inkscape="http://www.inkscape.org/namespaces/inkscape"
   version="1.1"
   width="1500"
   height="1500"
   id="svg2"
   sodipodi:docname="Z.svg"
   inkscape:version="0.92.4 (unknown)">
  <sodipodi:namedview
     pagecolor="#ffffff"
     bordercolor="#666666"
     borderopacity="1"
     objecttolerance="10"
     gridtolerance="10"
     guidetolerance="10"
     inkscape:pageopacity="0"
     inkscape:pageshadow="2"
     inkscape:window-width="1366"
     inkscape:window-height="716"
     id="namedview56"
     showgrid="false"
     inkscape:zoom="0.31466667"
     inkscape:cx="567.92504"
     inkscape:cy="502.9131"
     inkscape:window-x="0"
     inkscape:window-y="24"
     inkscape:window-maximized="1"
     inkscape:current-layer="svg2" />
  <defs
     id="defs4">
    <clipPath
       id="clipPath3862">
      <rect
         width="744"
         height="1052"
         x="0"
         y="0.36218262"
         id="rect3864"
         style="fill:#2ad4ff;fill-opacity:1;stroke:none" />
    </clipPath>
    <clipPath
       id="clipPath3075">
      <rect
         width="880.29663"
         height="769.06781"
         x="320.97458"
         y="572.48926"
         id="rect3077"
         style="opacity:0.71836733;fill:#c8ab37;fill-opacity:1;stroke:none" />
    </clipPath>
    <clipPath
       id="clipPath3949">
      <rect
         width="750"
         height="750"
         x="0"
         y="2.6171874e-06"
         id="rect3951"
         style="fill:#2ad4ff;fill-opacity:1;stroke:none" />
    </clipPath>
    <clipPath
       id="clipPath3964">
      <path
         d="m 542.68968,295.5 -47.75218,173.03125 122.46875,0 0,-173.03125 z m -316.28343,5.625 0,156.75 84.8125,0 -35.39279,-161.80611 z"
         id="path3966"
         style="fill:#ff5f00;fill-opacity:1;stroke:#aa4400;stroke-width:3;stroke-linecap:square;stroke-miterlimit:4;stroke-opacity:1;stroke-dasharray:none" />
    </clipPath>
    <clipPath
       id="clipPath3036">
      <rect
         width="629.2052"
         height="620.21655"
         x="791.00079"
         y="-176.83527"
         id="rect3038"
         style="opacity:0.55510206;fill:#ffe680;fill-opacity:1;stroke:none" />
    </clipPath>
    <clipPath
       id="clipPath3042">
      <rect
         width="1276.3877"
         height="606.73358"
         x="480.89255"
         y="304.05728"
         id="rect3044"
         style="opacity:0.55510206;fill:#ffe680;fill-opacity:1;stroke:none" />
    </clipPath>
    <clipPath
       id="clipPath3986">
      <rect
         width="391.00607"
         height="175.27859"
         x="-1478.6322"
         y="283.83286"
         id="rect3988"
         style="opacity:0.53061224;fill:#9955ff;fill-opacity:1;stroke:none" />
    </clipPath>
    <clipPath
       id="clipPath4018">
      <rect
         width="1500"
         height="1500"
         x="0"
         y="2.9296871e-08"
         id="rect4020"
         style="fill:#2ad4ff;fill-opacity:1;stroke:none" />
    </clipPath>
    <clipPath
       id="clipPath4024">
      <rect
         width="1500"
         height="1500"
         x="0"
         y="2.9296871e-08"
         id="rect4026"
         style="fill:#2ad4ff;fill-opacity:1;stroke:none" />
    </clipPath>
    <clipPath
       clipPathUnits="userSpaceOnUse"
       id="clipPath911">
      <rect
         style="opacity:1;fill:#aa0000;fill-opacity:1;stroke:#000000;stroke-width:3.02362204;stroke-linejoin:miter;stroke-miterlimit:4;stroke-dasharray:none;stroke-opacity:1;paint-order:stroke markers fill"
         id="rect913"
         width="692.79663"
         height="641.94916"
         x="966.10168"
         y="699.15253"
         ry="1.67204" />
    </clipPath>
    <clipPath
       clipPathUnits="userSpaceOnUse"
       id="clipPath982">
      <rect
         width="1105.9957"
         height="1105.9957"
         x="193.8522"
         y="193.01425"
         id="rect984"
         style="fill:#aa0000;fill-opacity:1;stroke:none;stroke-width:0.7373305" />
    </clipPath>
  </defs>
  <metadata
     id="metadata7">
    <rdf:RDF>
      <cc:Work
         rdf:about="">
        <dc:format>image/svg+xml</dc:format>
        <dc:type
           rdf:resource="http://purl.org/dc/dcmitype/StillImage" />
        <dc:title />
      </cc:Work>
    </rdf:RDF>
  </metadata>
  <rect
     style="fill:#7fff2a;fill-opacity:1;stroke:none"
     id="rect3082"
     y="2.9296871e-08"
     x="0"
     height="1500"
     width="1500" />
  <path
     style="fill:#b3ff80;fill-rule:evenodd;stroke:none;stroke-width:1px;stroke-linecap:butt;stroke-linejoin:miter;stroke-opacity:1"
     d="m 687.63138,1059.5564 -130.33536,247.1877 c -6.69574,88.0821 58.3128,142.5528 187.19997,167.0804 l 352.11881,-272.697 60.6733,-80.8978 c 0,0 -102.4814,-57.476 -154.1661,-93.4305 -51.68469,-35.95464 -315.49062,32.7572 -315.49062,32.7572 z"
     id="path848"
     inkscape:connector-curvature="0"
     sodipodi:nodetypes="ccccccc" />
  <path
     style="fill:#44aa00;fill-rule:evenodd;stroke:none;stroke-width:1px;stroke-linecap:butt;stroke-linejoin:miter;stroke-opacity:1"
     clip-path="none"
     d="M 1121.334 1100.0059 C 1121.334 1100.0059 1022.4587 1153.9379 957.29102 1239.3301 C 892.12334 1324.7222 804.48427 1443.8214 734.82227 1441.5742 C 665.16027 1439.327 588.75638 1392.1358 599.99219 1320.2266 C 611.228 1248.3174 671.90039 1149.4434 671.90039 1149.4434 C 671.90039 1149.4434 622.46383 1183.1507 575.27344 1198.8809 C 528.08305 1214.611 347.0332 1368.0568 347.0332 1437.7188 C 347.0332 1450.316 347.84951 1472.4045 349.17383 1500 L 1500 1500 L 1500 1329.5547 C 1492.724 1306.0266 1484.1809 1288.4345 1474.1387 1279.7773 C 1408.971 1223.5982 1310.0949 1187.645 1233.6914 1153.9375 C 1157.2879 1120.2301 1121.334 1100.0059 1121.334 1100.0059 z "
     id="path850" />
  <path
     style="fill:#e5ffd5;fill-rule:evenodd;stroke:none;stroke-width:1px;stroke-linecap:butt;stroke-linejoin:miter;stroke-opacity:1"
     d="m 844.93268,306.75731 c 0,0 175.27862,96.62794 222.46902,155.05413 47.1903,58.4262 40.4489,53.93187 44.9432,224.71614 4.4943,170.78426 -22.4716,256.1764 -38.2018,314.60262 -15.7301,58.4262 -20.2244,116.8524 -83.14493,139.324 -62.92052,22.4716 -53.93187,60.6733 -101.12226,78.6506 -47.19039,17.9773 -92.13362,56.1791 -150.55982,15.7302 -58.42619,-40.4489 -83.14497,-53.9319 -139.324,-110.111 C 543.81305,1068.545 505.61131,1021.3546 494.3755,958.43411 483.1397,895.51359 453.9266,585.40532 453.9266,585.40532 L 662.91261,322.48744 Z"
     id="path854"
     inkscape:connector-curvature="0" />
  <path
     style="fill:#ccffaa;fill-rule:evenodd;stroke:none;stroke-width:1px;stroke-linecap:butt;stroke-linejoin:miter;stroke-opacity:1"
     d="m 817.96674,248.33111 c 0,0 20.22446,-42.69607 116.8524,15.73013 96.62796,58.4262 197.75016,161.79562 226.96326,267.4122 29.2131,105.61659 44.9433,379.77028 42.6961,449.43228 -2.2472,69.66198 35.9546,204.49168 35.9546,204.49168 0,0 -58.4262,-98.8751 -67.4149,-146.0655 -8.9886,-47.19037 -15.7301,-87.63928 -15.7301,-87.63928 0,0 -31.4602,4.4943 -33.7074,76.40348 -2.2472,71.9092 35.9546,134.8297 35.9546,134.8297 0,0 -42.6961,-2.2472 -62.9205,-42.6961 -20.2245,-40.4489 -22.4717,-96.6279 -22.4717,-96.6279 0,0 -47.1903,96.6279 -85.39209,137.0768 -38.20175,40.4489 -89.88646,101.1223 -89.88646,101.1223 0,0 116.85235,-150.5598 137.07685,-220.2218 20.2244,-69.66202 24.7188,-148.31267 24.7188,-238.19913 0,-89.88645 15.7301,-168.5371 -22.4716,-240.44627 -38.20178,-71.90916 -65.16772,-110.1109 -65.16772,-110.1109 0,0 -38.20174,44.94322 -96.62794,13.48296 -58.4262,-31.46026 -101.12226,-105.61658 -101.12226,-105.61658 0,0 -60.67336,67.41484 -112.35807,80.89781 -51.68471,13.48297 -35.95458,-2.24716 -85.39213,92.13362 -49.43756,94.38077 -67.41485,121.34671 -67.41485,179.77291 0,58.42619 -4.49432,146.06549 -4.49432,215.72749 0,69.662 8.98865,134.82969 44.94323,161.79559 35.95458,26.966 94.38078,98.8751 94.38078,98.8751 0,0 -17.97729,11.2358 -71.90917,-22.4716 -53.93187,-33.7074 -69.662,-85.3921 -69.662,-85.3921 0,0 8.98865,92.1336 47.19039,134.8297 38.20174,42.696 112.35807,139.324 112.35807,139.324 0,0 -69.662,-13.483 -87.6393,-31.4603 -17.97729,-17.9773 -80.89781,-92.1336 -80.89781,-92.1336 0,0 -4.49432,85.3921 38.20175,112.3581 42.69606,26.9659 132.58252,67.4148 107.86374,69.662 -24.71877,2.2471 -89.88645,20.2244 -152.80697,-80.8978 -62.92052,-101.1223 -125.84104,-161.7957 -125.84104,-287.6367 0,-125.84104 33.70742,-384.2646 58.4262,-474.15105 24.71877,-89.88646 53.93187,-195.50304 130.33536,-258.42356 76.40349,-62.92052 159.54846,-96.62794 191.00872,-94.38078 31.46026,2.24716 76.40348,29.2131 76.40348,29.2131 z"
     id="path852"
     inkscape:connector-curvature="0" />
  <path
     style="fill:#b3ff80;fill-rule:evenodd;stroke:none;stroke-width:1px;stroke-linecap:butt;stroke-linejoin:miter;stroke-opacity:1"
     d="m 550.58263,695.97457 c 0,0 88.18856,-6.35593 120.76271,4.76695 32.57415,11.12289 77.06568,30.19068 80.24364,44.49153 3.17797,14.30085 -69.12076,-10.32839 -119.17372,-19.0678 -50.05297,-8.7394 -81.83263,-30.19068 -81.83263,-30.19068 z"
     id="path862"
     inkscape:connector-curvature="0" />
  <path
     style="fill:#b3ff80;fill-rule:evenodd;stroke:none;stroke-width:1px;stroke-linecap:butt;stroke-linejoin:miter;stroke-opacity:1"
     d="m 1058.2627,717.42585 c 0,0 -57.2034,-21.45128 -92.9555,-19.0678 -35.75211,2.38347 -110.43432,9.5339 -104.07839,26.21822 6.35594,16.68432 46.08051,5.56144 91.36653,1.58898 45.28602,-3.97245 105.66736,-8.7394 105.66736,-8.7394 z"
     id="path864"
     inkscape:connector-curvature="0" />
  <path
     style="fill:#b3ff80;fill-rule:evenodd;stroke:none;stroke-width:1px;stroke-linecap:butt;stroke-linejoin:miter;stroke-opacity:1;fill-opacity:1"
     d="m 659.42796,1016.9492 c 0,0 58.79237,-1.589 77.86017,0.7944 19.06779,2.3835 42.90254,11.9174 58.79237,11.9174 15.88983,0 32.57415,-8.7394 46.875,-8.7394 14.30085,0 80.24364,3.178 80.24364,3.178 0,0 -76.27118,18.2733 -119.96822,19.0678 -43.69703,0.7945 -143.80296,-26.2182 -143.80296,-26.2182 z"
     id="path856"
     inkscape:connector-curvature="0" />
  <path
     style="fill:#ccffaa;fill-rule:evenodd;stroke:none;stroke-width:1px;stroke-linecap:butt;stroke-linejoin:miter;stroke-opacity:1;fill-opacity:1"
     d="m 659.42796,1016.9492 c 0,0 42.10805,123.1461 138.24152,116.7902 96.13348,-6.3559 125.52966,-109.6398 125.52966,-109.6398 0,0 -37.3411,55.6144 -113.61228,58.7924 -76.27119,3.1779 -150.1589,-65.9428 -150.1589,-65.9428 z"
     id="path858"
     inkscape:connector-curvature="0" />
  <path
     style="fill:#b3ff80;fill-rule:evenodd;stroke:none;stroke-width:1px;stroke-linecap:butt;stroke-linejoin:miter;stroke-opacity:1;fill-opacity:1"
     d="m 711.78836,925.00759 c 0,0 17.13461,15.73013 34.26921,13.48296 17.13461,-2.24716 34.55011,4.77522 37.07816,11.51671 2.52806,6.74148 -8.98864,9.26954 -26.96593,3.65163 -17.97729,-5.6179 -36.23548,-14.04475 -44.38144,-28.6513 z"
     id="path860"
     inkscape:connector-curvature="0" />
  <path
     style="fill:#b3ff80;fill-rule:evenodd;stroke:none;stroke-width:1px;stroke-linecap:butt;stroke-linejoin:miter;stroke-opacity:1;fill-opacity:1"
     d="m 882.68008,938.2945 c 0,0 -16.68433,-3.57522 -28.99894,2.38347 -12.31462,5.95869 -37.3411,10.32839 -35.35488,19.86229 1.98623,9.5339 17.87606,7.15042 32.9714,-0.39725 15.09534,-7.54767 18.67055,-19.46504 31.38242,-21.84851 z"
     id="path863"
     inkscape:connector-curvature="0" />
</svg>
