<?xml version="1.0" encoding="UTF-8" standalone="no"?>
<svg
   xmlns:dc="http://purl.org/dc/elements/1.1/"
   xmlns:cc="http://creativecommons.org/ns#"
   xmlns:rdf="http://www.w3.org/1999/02/22-rdf-syntax-ns#"
   xmlns:svg="http://www.w3.org/2000/svg"
   xmlns="http://www.w3.org/2000/svg"
   xmlns:sodipodi="http://sodipodi.sourceforge.net/DTD/sodipodi-0.dtd"
   xmlns:inkscape="http://www.inkscape.org/namespaces/inkscape"
   viewBox="0 0 282.66666 797.33331"
   height="797.33331"
   width="282.66666"
   id="svg2"
   version="1.1"
   sodipodi:docname="loading.svg"
   inkscape:version="0.92.4 (unknown)">
  <sodipodi:namedview
     pagecolor="#ffffff"
     bordercolor="#666666"
     borderopacity="1"
     objecttolerance="10"
     gridtolerance="10"
     guidetolerance="10"
     inkscape:pageopacity="0"
     inkscape:pageshadow="2"
     inkscape:window-width="1366"
     inkscape:window-height="716"
     id="namedview6"
     showgrid="false"
     inkscape:zoom="0.59197326"
     inkscape:cx="232.54963"
     inkscape:cy="404.66798"
     inkscape:window-x="0"
     inkscape:window-y="24"
     inkscape:window-maximized="1"
     inkscape:current-layer="svg2" />
  <metadata
     id="metadata8">
    <rdf:RDF>
      <cc:Work
         rdf:about="">
        <dc:format>image/svg+xml</dc:format>
        <dc:type
           rdf:resource="http://purl.org/dc/dcmitype/StillImage" />
        <dc:title />
      </cc:Work>
    </rdf:RDF>
  </metadata>
  <defs
     id="defs6" />
  <path
     style="fill:#ffffff;stroke-width:1.33333325"
     d="m 118.66666,782.63564 c -5.5,-0.54524 -13.6,-1.93192 -18,-3.08149 -4.399996,-1.14959 -12.799995,-3.07469 -18.666662,-4.27803 -20.260623,-4.15573 -42.577659,-12.95825 -45.755975,-18.04754 -0.993356,-1.59062 -1.983857,-19.98349 -2.880729,-53.49303 -0.751764,-28.08789 -1.971328,-61.5689 -2.710143,-74.40224 -0.738814,-12.83333 -1.669997,-40.43333 -2.069293,-61.33333 -0.399297,-20.9 -0.953349,-39.76085 -1.231227,-41.91301 -0.565389,-4.37892 -2.638724,-90.39977 -2.653393,-110.08698 -0.0099,-13.19858 1.519456,-4.09814 8.283131,-19.28745 100.556181,33.76648 196.657161,4.56372 221.401021,-0.53741 0.0591,1.83333 3.4342,22.93038 4.14535,32.42972 0.71115,9.49935 1.06873,17.6344 0.79464,18.0779 -0.27409,0.44349 -0.82753,10.6713 -1.22987,22.72846 -0.69442,20.81088 -1.25964,32.7239 -2.7798,58.58877 -0.36634,6.23334 -1.05365,19.73334 -1.52734,30 -0.4737,10.26667 -0.9234,19.86667 -0.99935,21.33334 -0.076,1.46666 -0.57841,3.35016 -1.11657,4.18553 -0.53816,0.83537 -0.46518,4.26639 0.16218,7.62447 0.62735,3.35808 0.97107,6.27518 0.7638,6.48244 -0.20725,0.20726 -0.72886,11.77625 -1.15913,25.70886 -0.43027,13.93261 -1.07365,32.83203 -1.42975,41.99869 -0.35609,9.16667 -1.00737,29.56667 -1.44728,45.33334 -1.33468,47.83578 -1.49334,50.57779 -3.03418,52.43441 -1.58158,1.90566 -2.05535,2.07017 -28.85943,10.0204 -29.99132,8.89557 -67.50377,12.53742 -98,9.51418 z"
     id="path8"
     inkscape:connector-curvature="0"
     sodipodi:nodetypes="scccsssscccscccscsccscscss" />
  <path
     id="path12"
     d="m 118.66666,782.63564 c -5.5,-0.54524 -13.6,-1.93192 -18,-3.08149 -4.399996,-1.14959 -12.799995,-3.07469 -18.666662,-4.27803 -20.260623,-4.15573 -42.577659,-12.95825 -45.755975,-18.04754 -0.993356,-1.59062 -1.983857,-19.98349 -2.880729,-53.49303 -0.751764,-28.08789 -1.971328,-61.5689 -2.710143,-74.40224 -0.738814,-12.83333 -1.669997,-40.43333 -2.069293,-61.33333 -0.399297,-20.9 -0.953349,-39.76085 -1.231227,-41.91301 -0.565389,-4.37892 -2.638724,-90.39977 -2.653393,-110.08698 -0.0099,-13.19858 1.519456,-19.62652 8.283131,-34.81583 3.637899,-8.16969 7.522837,-12.83849 17.229706,-20.70613 13.812273,-11.19515 26.411494,-26.15296 32.282163,-38.32541 8.903815,-18.4615 11.026362,-31.5488 10.762346,-66.35899 -0.223957,-29.52858 1.471338,-113.3835 2.321223,-114.81538 0.333549,-0.56196 1.164993,-0.67656 1.847655,-0.25464 0.682661,0.42191 1.241202,-0.80372 1.241202,-2.72361 0,-1.9199 -0.532792,-3.16143 -1.183982,-2.75898 -1.91484,1.18344 -3.009831,-10.10841 -2.676472,-27.60049 0.325524,-17.080989 -0.475743,-22.307199 -3.420077,-22.307199 -2.160282,0 -3.386135,-2.935648 -3.386135,-8.109049 0,-4.159044 -1.155915,-4.868369 -3.733333,-2.290951 -1.244444,1.244444 -1.6,0.309633 -1.6,-4.20665 0,-5.575003 0.09887,-5.717179 2.478208,-3.563902 2.383618,2.157146 2.50532,1.943767 3.188494,-5.590405 0.472231,-5.207841 1.873959,-9.67653 4.182341,-13.333245 1.909631,-3.02505 4.856235,-9.566375 6.54801,-14.536278 4.801382,-14.104962 5.229922,-14.608029 13.231772,-15.533026 27.08808,-3.131325 53.98416,-1.747272 64.45597,3.316858 5.62938,2.72234 7.42527,5.885448 9.18054,16.169649 0.73717,4.319104 6.67325,17.740914 8.70256,19.677 0.38433,0.366666 0.69877,6.366666 0.69877,13.333333 0,9.680303 -0.53059,13.452551 -2.25045,15.999999 -3.0659,4.54112 -3.19903,10.979918 -1.97131,95.333326 1.60088,109.99264 1.77981,115.1958 4.19561,122 3.95966,11.15255 11.64092,24.61927 19.51964,34.22168 4.31191,5.25527 7.83984,9.8148 7.83984,10.13229 0,0.3175 5.99388,6.51775 13.31973,13.77832 7.32586,7.26058 13.69682,14.40104 14.15771,15.86771 0.46088,1.46667 1.65725,3.60313 2.6586,4.74771 1.60817,1.83821 4.02652,15.95571 4.32575,25.25229 0.0591,1.83333 0.68914,11.10552 1.40029,20.60486 0.71115,9.49935 1.06873,17.6344 0.79464,18.0779 -0.27409,0.44349 -0.82753,10.6713 -1.22987,22.72846 -0.69442,20.81088 -1.25964,32.7239 -2.7798,58.58877 -0.36634,6.23334 -1.05365,19.73334 -1.52734,30 -0.4737,10.26667 -0.9234,19.86667 -0.99935,21.33334 -0.076,1.46666 -0.57841,3.35016 -1.11657,4.18553 -0.53816,0.83537 -0.46518,4.26639 0.16218,7.62447 0.62735,3.35808 0.97107,6.27518 0.7638,6.48244 -0.20725,0.20726 -0.72886,11.77625 -1.15913,25.70886 -0.43027,13.93261 -1.07365,32.83203 -1.42975,41.99869 -0.35609,9.16667 -1.00737,29.56667 -1.44728,45.33334 -1.33468,47.83578 -1.49334,50.57779 -3.03418,52.43441 -1.58158,1.90566 -2.05535,2.07017 -28.85943,10.0204 -29.99132,8.89557 -67.50377,12.53742 -98,9.51418 z m 60.17722,-4.71844 c 8.33586,-1.16245 21.15612,-3.62014 28.48945,-5.46154 15.18806,-3.81374 36.2972,-12.24652 37.32134,-14.90934 1.42283,-3.69934 -0.99626,-4.16264 -4.84134,-0.92721 -4.27832,3.59997 -29.27201,11.86744 -49.81333,16.47739 -19.51219,4.37897 -65.50063,3.37196 -88.66667,-1.94156 -4.766666,-1.09331 -12.566665,-2.77004 -17.333332,-3.72607 -10.67233,-2.14048 -26.697182,-6.66857 -30.121337,-8.51128 -7.300678,-3.92884 -14.178821,-6.91761 -15.919721,-6.91761 -3.297381,0 -2.177666,3.81862 1.707726,5.82396 7.3941,3.81622 25.215642,10.01484 32.999999,11.47792 4.4,0.82698 9.2,2.03517 10.666666,2.68485 1.466667,0.64968 4.766667,1.49392 7.333334,1.87608 2.566666,0.38216 13.666665,2.14855 24.666665,3.92531 22.59021,3.64885 38.04525,3.68026 63.51055,0.12906 z m -1.58231,-6.55286 c 9.11148,-1.21462 17.32193,-3.10838 20.37439,-4.69942 2.81205,-1.46572 6.24528,-2.66494 7.62938,-2.66494 1.38411,0 3.61563,-0.43354 4.95894,-0.9634 2.01901,-0.79642 1.749,-1.10679 -1.55762,-1.79055 -3.51505,-0.72685 -3.6767,-0.94685 -1.33333,-1.81464 7.46652,-2.76493 7.80476,-3.44288 1.33333,-2.67241 -8.64738,1.02953 -6.52362,-1.50326 2.35058,-2.8033 5.51698,-0.80821 6.24207,-0.6476 5.52401,1.22366 -0.53834,1.40286 -0.11747,2.15397 1.20704,2.15397 3.38982,0 6.2517,-1.52004 6.2517,-3.32048 0,-0.93601 1.2,-2.01564 2.66667,-2.39919 1.97799,-0.51725 2.66667,-0.0409 2.66667,1.8445 0,2.98126 4.72486,3.42694 8.21184,0.77461 2.4619,-1.87263 3.1796,-15.15392 4.44369,-82.23277 1.67779,-89.03098 3.27692,-163.8129 3.96319,-185.33333 0.87352,-27.39245 1.09149,-85.40089 0.32378,-86.16861 -0.39276,-0.39276 -1.8155,-0.13784 -3.16164,0.56649 -5.17698,2.70871 -32.35743,8.69116 -44.44753,9.78296 -39.86009,3.59958 -79.81367,3.75388 -103.544612,0.3999 -4.808893,-0.67966 -5.661194,-0.41634 -6.423183,1.98448 -0.705111,2.22161 -1.981339,2.76812 -6.464187,2.76812 -3.072089,0 -7.681657,-0.63636 -10.243482,-1.41414 -5.421902,-1.64609 -9.390517,-2.4932 -16.324531,-3.48449 -5.255901,-0.75139 -6.964301,-3.10137 -2.254644,-3.10137 1.509946,0 2.374536,-0.6 1.921311,-1.33334 -0.453225,-0.73333 -2.007465,-1.33333 -3.453869,-1.33333 -1.446403,0 -2.970689,-0.88828 -3.387301,-1.97396 -0.605483,-1.57785 -7.940276,-4.65043 -11.184604,-4.68527 -1.095675,-0.012 -0.190248,100.66518 1.594761,177.32589 0.896455,38.5 1.43998,93.19829 1.207833,121.55177 l -0.422085,51.55177 4.089752,2.1149 c 2.249365,1.16318 5.769549,2.12217 7.822633,2.13106 2.053084,0.009 10.93288,2.75355 19.73288,6.09924 21.286907,8.09308 22.880099,8.52959 40.666668,11.14164 20.30999,2.98264 46.37436,3.29175 65.26157,0.77398 z M 66.078492,755.29091 c -3.350263,-2.53401 -0.274032,-2.53739 5.25484,-0.005 3.901837,1.78661 3.918197,1.83317 0.666666,1.89745 -1.833333,0.0363 -4.49801,-0.81504 -5.921506,-1.89171 z m 7.50484,-2.86841 c -3.1625,-1.1185 -5.429706,-2.35392 -5.038236,-2.7454 1.046958,-1.04696 12.788235,2.46902 12.788235,3.82949 0,1.48815 -0.789214,1.37775 -7.749999,-1.08409 z m 133.083328,-1.75586 c 0,-0.73333 0.97347,-1.33333 2.16326,-1.33333 1.69689,0 1.83126,-0.40004 0.62328,-1.85557 -1.27255,-1.53332 -0.0663,-2.1122 6.94595,-3.33334 10.19399,-1.7752 13.32774,-1.8599 12.38514,-0.33476 -0.38852,0.62866 -3.82799,1.51271 -7.64326,1.96456 -3.81525,0.45187 -7.58278,1.51915 -8.37226,2.37174 -1.07435,1.16021 -0.59694,1.33228 1.89789,0.68404 7.58165,-1.97 14.66667,-2.49852 14.66667,-1.0941 0,0.78743 -1.05,1.38132 -2.33334,1.31975 -1.28333,-0.0616 -5.89353,0.57572 -10.24488,1.4162 -9.63523,1.86108 -10.08845,1.86984 -10.08845,0.19481 z M 85.333331,749.33331 c 0,-0.73333 0.6,-1.33333 1.333334,-1.33333 0.733333,0 1.333333,0.6 1.333333,1.33333 0,0.73333 -0.6,1.33333 -1.333333,1.33333 -0.733334,0 -1.333334,-0.6 -1.333334,-1.33333 z m -23.333332,-1.33333 c -1.04291,-1.68747 0.72217,-1.68747 3.333333,0 1.723582,1.11386 1.688389,1.29532 -0.254644,1.31292 -1.240055,0.0112 -2.625464,-0.57959 -3.078689,-1.31292 z m 8.063127,-2.10279 c -5.098612,-1.78069 -9.898611,-3.91103 -10.666666,-4.73408 -0.999844,-1.07145 -0.828429,-1.29512 0.603539,-0.78754 1.1,0.38989 6.349999,2.10265 11.666666,3.8061 5.316667,1.70345 9.666666,3.55944 9.666666,4.12441 0,1.4243 -0.759662,1.26192 -11.270205,-2.40889 z M 54.80642,745.22015 c -1.756468,-0.7026 -2.859513,-1.61152 -2.451211,-2.01983 0.408303,-0.4083 2.445414,0.18056 4.526912,1.30859 4.188231,2.26973 2.912898,2.70673 -2.075701,0.71124 z m 21.860245,-2.07984 c -2.933333,-1.13057 -8.633333,-3.42092 -12.666667,-5.08968 -4.033333,-1.66874 -8.46921,-3.42693 -9.857503,-3.90709 -1.388295,-0.48015 -2.211511,-1.18565 -1.829371,-1.5678 0.382141,-0.38213 4.518017,0.8026 9.190837,2.63275 4.672821,1.83014 12.096037,4.32336 16.496037,5.54046 4.4,1.21711 8.57,2.74651 9.266667,3.39864 2.035146,1.90509 -4.705674,1.26453 -10.6,-1.00728 z m 44.666665,-2.46516 c -1.1,-0.25599 -7.7,-1.19881 -14.66667,-2.09517 -6.966662,-0.89637 -17.112639,-2.74357 -22.546613,-4.10488 -11.182282,-2.80137 -12.575682,-2.95771 -11.548467,-1.29564 0.400929,0.64872 3.422354,1.58339 6.714278,2.07704 5.939567,0.89069 9.752276,3.41949 5.126163,3.39996 -7.231669,-0.0305 -31.555798,-9.94228 -30.664237,-12.49524 0.287068,-0.82201 -0.934015,-3.2444 -2.713516,-5.38309 -3.172958,-3.8134 -3.225342,-4.28304 -2.711736,-24.31202 0.288047,-11.23292 0.933315,-20.83309 1.433928,-21.3337 0.500613,-0.50062 0.910205,7.60906 0.910205,18.0215 0,24.17816 0.969891,26.8541 11.108106,30.64728 42.156519,15.77279 98.632399,17.49943 155.586169,4.75676 1.84852,-0.41357 4.84852,-1.95406 6.66667,-3.4233 l 3.30572,-2.67135 -3.33334,0.66069 c -1.83333,0.36339 -4.77716,1.10366 -6.54182,1.64504 -2.12808,0.65288 -2.91519,0.50975 -2.33746,-0.42505 0.47908,-0.77516 3.84319,-2.12239 7.4758,-2.99384 3.6326,-0.87145 7.1294,-2.28173 7.77067,-3.13397 3.1726,-4.2164 4.29948,-14.06939 4.29948,-37.59311 0,-13.78713 0.42856,-24.63897 0.95235,-24.11519 0.52378,0.52379 0.78684,13.63782 0.58456,29.14228 -0.31686,24.28652 -0.71652,28.95546 -2.88635,33.71851 -1.3852,3.04072 -3.29825,6.14237 -4.25123,6.89257 -1.47254,1.15923 -10.66521,4.73556 -16.88282,6.56815 -1.45431,0.42864 -1.48824,0.93143 -0.17008,2.51971 1.37,1.65074 1.17114,1.98422 -1.18317,1.98422 -1.55646,0 -2.82992,-0.6 -2.82992,-1.33333 0,-1.70059 -6.44499,-1.72136 -11.46771,-0.0369 -7.11781,2.38698 -26.3296,4.19288 -49.86563,4.68734 -12.83333,0.26961 -24.23333,0.28077 -25.33333,0.0248 z m -51.666665,-9.55821 c -0.916667,-0.36988 -2.416667,-0.36988 -3.333333,0 -0.916667,0.36988 -0.166667,0.67252 1.666666,0.67252 1.833334,0 2.583334,-0.30264 1.666667,-0.67252 z M 210,739.99998 c 0.45322,-0.73333 3.33863,-1.32415 6.41202,-1.31292 4.09909,0.0149 5.05509,0.3648 3.58797,1.31292 -2.67282,1.7273 -11.06753,1.7273 -9.99999,0 z m 15.99999,-2.66667 c 0.45323,-0.73333 1.72404,-1.33333 2.82404,-1.33333 1.1,0 1.62919,0.6 1.17596,1.33333 -0.45322,0.73334 -1.72404,1.33334 -2.82404,1.33334 -1.1,0 -1.62918,-0.6 -1.17596,-1.33334 z m -6.30873,-2.89126 c 0.7748,-0.7748 2.19576,-1.14639 3.15768,-0.82575 0.9986,0.33287 0.3942,0.93725 -1.40873,1.40873 -2.2178,0.57996 -2.73838,0.40644 -1.74895,-0.58298 z m 6.7254,-2.01955 c 0.96249,-0.38516 2.11249,-0.3378 2.55556,0.1052 0.44305,0.44305 -0.34445,0.75819 -1.75,0.70029 -1.55327,-0.064 -1.8692,-0.37992 -0.80556,-0.80554 z M 71.999998,723.21983 c -4.36733,-1.78804 -4.410093,-1.86101 -0.666666,-1.13754 2.2,0.42518 4.57,1.3306 5.266666,2.01204 1.596819,1.56192 1.137852,1.47466 -4.6,-0.8745 z m 4.666667,-4.13134 c -6.194399,-1.39874 -21.13335,-7.59962 -19.56679,-8.1218 0.938208,-0.31274 4.824548,0.78314 8.636311,2.4353 3.811763,1.65215 9.630479,3.75892 12.930479,4.68172 5.572421,1.55826 3.98434,2.35608 -2,1.00478 z m 68.666665,-2.69382 c -5.32044,-1.866 -5.75983,-9.87296 -0.81323,-14.81956 3.43444,-3.43444 5.21695,-1.11466 2.14467,2.79111 -1.57296,1.99968 -2.65912,4.67844 -2.41369,5.9528 0.62524,3.24664 4.9283,3.7312 7.0877,0.79812 1.73955,-2.36283 1.83768,-2.36381 2.74303,-0.0275 0.51641,1.33263 0.40927,2.91519 -0.23811,3.5168 -1.76462,1.63992 -6.24753,2.5819 -8.51037,1.78827 z m 16.33333,-0.53225 c -2.3978,-0.88707 -3,-2.13789 -3,-6.23131 0,-7.02208 2.56155,-10.28125 7.17123,-9.12429 6.83457,1.71537 8.13129,12.22713 1.86075,15.08404 -1.78026,0.81111 -4.2705,0.92321 -6.03198,0.27156 z m 7.20356,-5.91211 c 1.16858,-3.04525 -3.44118,-7.68961 -5.73928,-5.78236 -1.89865,1.57575 -2.40528,5.44659 -0.90872,6.94314 1.64315,1.64316 5.85418,0.90789 6.648,-1.16078 z m 52.12977,6.49996 c 0.91667,-0.36988 2.41667,-0.36988 3.33334,0 0.91666,0.36988 0.16666,0.67252 -1.66667,0.67252 -1.83333,0 -2.58333,-0.30264 -1.66667,-0.67252 z m -87.98933,-2.08498 c -0.3108,-0.9324 -2.36342,-1.49612 -4.77778,-1.31215 -4.64517,0.35395 -5.46111,-1.53045 -2.44732,-5.65205 1.61319,-2.20616 1.86659,-2.23076 2.62482,-0.25484 0.46159,1.20289 1.75809,2.18706 2.8811,2.18706 2.63024,0 2.6634,-3.84518 0.0419,-4.85116 -2.42202,-0.92941 -2.67624,-4.48217 -0.32074,-4.48217 2.41073,0 4.80272,4.37549 5.79941,10.60844 0.69475,4.34475 0.46232,5.39156 -1.19716,5.39156 -1.13261,0 -2.3045,-0.73561 -2.60419,-1.63469 z m 48.2346,-3.2636 c -1.50661,-3.96271 -0.38666,-11.5525 1.5299,-10.36799 0.67366,0.41635 1.22484,2.52159 1.22484,4.67831 0,2.44978 0.69217,3.9213 1.84449,3.9213 1.96285,0 3.41469,-3.85924 3.51117,-9.33333 0.0529,-3.00547 0.19848,-3.09301 1.47931,-0.89008 1.55101,2.66763 0.458,11.17675 -1.78421,13.89008 -2.37575,2.87493 -6.35903,1.90619 -7.8055,-1.89829 z m -105.578595,1.31252 c -1.283333,-0.33536 -2.333333,-1.22996 -2.333333,-1.98798 0,-0.75802 -0.85609,-1.0497 -1.90242,-0.6482 -2.06249,0.79146 -15.053893,-3.53436 -17.270019,-5.75049 -2.285421,-2.28543 1.475068,-1.60081 7.172439,1.30577 2.874904,1.46667 5.856085,2.66667 6.624848,2.66667 0.885573,0 0.787512,-0.97715 -0.267612,-2.66667 -0.915948,-1.46666 -2.954563,-2.66666 -4.530253,-2.66666 -1.575691,0 -4.281363,-1.17146 -6.012604,-2.60323 l -3.147712,-2.60324 5.2073,0.81133 c 3.762245,0.58618 4.942933,0.38358 4.254644,-0.7301 -0.523962,-0.84779 -1.817246,-1.54143 -2.873967,-1.54143 -1.056721,0 -1.921311,-0.6 -1.921311,-1.33333 0,-0.73334 1.62,-1.33334 3.6,-1.33334 2.8,0 3.244444,-0.35556 2,-1.6 -2.268064,-2.26806 -1.994614,-3.31912 1.072168,-4.1211 1.892784,-0.49498 2.412176,-1.37632 1.780767,-3.02175 -0.766016,-1.9962 -0.344807,-2.18783 2.994498,-1.36236 2.137246,0.52832 4.35557,1.41779 4.929611,1.97661 1.774089,1.72703 -0.564075,5.59875 -4.225557,6.99702 -3.376274,1.28934 -3.404203,1.38998 -0.896647,3.23118 1.423495,1.04523 4.609713,1.9004 7.080487,1.9004 4.368079,0 4.480869,0.13682 4.078493,4.94735 -0.332246,3.97208 -1.070911,5.12864 -3.747153,5.86709 -1.833334,0.50586 -2.698011,0.97956 -1.921507,1.05266 0.776505,0.0731 2.576505,1.01382 4,2.0905 2.684797,2.03068 1.307634,2.44374 -3.74516,1.1233 z m 3,-10.41423 c 0,-1.1 -0.75,-2.00819 -1.666667,-2.0182 -0.916666,-0.0107 -3.016666,-0.38 -4.666666,-0.82219 -2.156294,-0.57785 -3,-0.229 -3,1.24044 0,2.29235 1.896862,3.33902 6.333333,3.49468 1.824561,0.064 3,-0.67836 3,-1.89473 z m 31.856685,8.21791 c -1.7664,-3.87682 -0.17122,-9.97502 3.15872,-12.0755 3.16186,-1.99445 4.46955,0.0768 1.86531,2.9544 -1.21773,1.34558 -2.21405,3.74926 -2.21405,5.34151 0,2.22403 0.79833,2.89501 3.44444,2.89501 4.55674,0 3.53381,3.1931 -1.20266,3.75415 -2.7064,0.32057 -3.90965,-0.36291 -5.05176,-2.86957 z m -16.437571,-4.22958 c -1.0465,-5.57833 -3.921836,-6.07773 -6.513529,-1.1313 -2.517351,4.80453 -3.718992,2.21636 -1.807056,-3.89216 1.648256,-5.26608 2.696105,-5.73735 8.148004,-3.66454 2.877746,1.09412 3.420133,2.13888 3.420133,6.58798 0,6.78948 -2.111639,8.15496 -3.247552,2.10002 z m 8.580881,0.0904 c 0,-2.52338 0.6,-4.9588 1.33334,-5.41202 0.80524,-0.49767 1.33333,1.31949 1.33333,4.58797 0,2.97661 -0.6,5.41203 -1.33333,5.41203 -0.73334,0 -1.33334,-2.06459 -1.33334,-4.58798 z m 97.6,2.98798 c -0.88,-0.88 -1.6,-2.45347 -1.6,-3.49659 0,-1.50933 0.39646,-1.56757 1.9416,-0.28521 1.06787,0.88625 2.56787,1.2243 3.33334,0.75122 2.58148,-1.59544 1.41673,-4.10869 -2.60827,-5.62796 -4.29323,-1.6205 -5.22432,-4.02201 -2.03403,-5.24624 3.1432,-1.20616 9.8754,4.96118 9.96026,9.12454 0.10426,5.11314 -5.6182,8.15493 -8.9929,4.78024 z m 11.73333,-3.73334 c 0,-0.73333 0.50418,-1.33333 1.12039,-1.33333 0.6162,0 1.91203,-3.3 2.87961,-7.33333 0.97714,-4.07314 2.50536,-7.33334 3.43755,-7.33334 2.25005,0 7.54157,8.73023 6.99616,11.54263 -0.56691,2.92323 -3.76704,3.97249 -3.76704,1.23515 0,-3.14494 -2.31488,-2.55418 -4.78928,1.22222 -2.16425,3.30307 -5.87739,4.5666 -5.87739,2 z m 8.80556,-10.30556 c -1.35536,-1.35534 -2.47366,0.68519 -1.36162,2.48451 0.84004,1.35923 1.1541,1.36028 1.60573,0.005 0.3088,-0.92638 0.19895,-2.04684 -0.24411,-2.48989 z m -1.9479,-14.88152 c -1.26108,-0.79906 -1.36204,-1.4225 -0.33334,-2.05828 0.81163,-0.50161 2.1135,-0.51782 2.89303,-0.036 1.82411,1.12736 6.52653,-3.1045 8.13999,-7.32542 1.54897,-4.05224 0.0511,-14.64014 -1.68363,-11.90115 -0.64141,1.01273 -1.23831,4.24132 -1.32643,7.17465 l -0.16022,5.33334 -1.52686,-4.81168 c -0.83977,-2.64642 -2.26049,-5.68818 -3.15716,-6.75946 -1.35797,-1.62242 -0.7483,-2.33689 3.6499,-4.27737 2.90409,-1.28129 5.88772,-1.95413 6.63028,-1.4952 2.0002,1.23619 1.63653,14.74388 -0.537,19.94588 -2.62383,6.27971 -8.16512,9.01357 -12.58856,6.21075 z m -86.2173,-4.17532 c -4.33907,-4.79462 -1.37689,-15.97093 4.23297,-15.97093 2.46037,0 2.2568,0.86988 -0.95531,4.08199 -3.42023,3.42022 -2.90068,8.15357 1.08699,9.903 1.65276,0.72508 2.80304,1.92508 2.55618,2.66666 -0.82804,2.48755 -4.36874,2.1393 -6.92083,-0.68072 z m 22.87895,1.7706 c -0.46894,-0.46896 -0.85264,-2.13264 -0.85264,-3.69709 0,-6.53888 -6.1022,-8.06161 -8.19924,-2.04603 -1.88224,5.39942 -3.80688,3.8208 -2.87265,-2.35617 0.95055,-6.28485 2.36472,-7.889 5.01539,-5.68913 1.67096,1.38677 2.44205,1.38677 4.11301,0 2.86076,-2.37423 4.2932,-0.43035 5.15039,6.98924 0.67429,5.83654 -0.35224,8.8012 -2.35426,6.79918 z m 8.1261,0.12614 c -1.87783,-1.87784 -1.04744,-13.60846 1.1165,-15.77239 3.24891,-3.24892 6.62391,-2.08216 7.43816,2.57143 0.33314,1.90389 -0.35928,2.78432 -2.42066,3.07796 -3.34312,0.47622 -4.70338,3.01498 -3.04936,5.69124 0.92521,1.49702 1.94242,1.56161 5.20421,0.33042 4.24429,-1.60205 6.55541,-0.38156 3.71773,1.96332 -2.2226,1.83662 -10.78353,3.36106 -12.00658,2.13802 z m -55.31207,-4.10023 c -5.92754,-4.13485 -2.81164,-14.44799 4.65379,-15.40335 3.78098,-0.48385 3.98411,2.11046 0.23455,2.9956 -3.96605,0.93626 -5.7462,5.92531 -3.06935,8.60215 2.93789,2.93789 4.51434,2.51308 4.51434,-1.21648 0,-3.74957 1.86972,-5.33648 4.91201,-4.16904 1.91499,0.73484 1.90355,1.04919 -0.11948,3.2846 -1.23041,1.35959 -2.14103,2.99708 -2.0236,3.63887 0.89494,4.89077 -3.7006,6.03565 -9.10226,2.26765 z m 71.40423,0.72768 c -0.76172,-1.91663 0.62885,-11.43712 1.81252,-12.40923 0.24745,-0.20324 2.41902,-0.74452 4.8257,-1.20286 3.82556,-0.72856 4.5381,-0.40642 5.66667,2.56194 0.70999,1.86742 1.25701,5.30623 1.21563,7.64183 l -0.0752,4.24653 -1.59142,-4.66666 c -1.19916,-3.51643 -2.44489,-4.7658 -5.0541,-5.06888 -3.10002,-0.3601 -3.59226,0.19852 -4.69971,5.33333 -0.83376,3.86584 -1.51835,5.02765 -2.10004,3.564 z m 19.78174,-0.75359 c -1.36864,-1.36865 -0.98096,-10.83817 0.4807,-11.74153 0.73333,-0.45323 1.37065,-0.63864 1.41625,-0.41203 1.67411,8.31862 0.67423,14.72474 -1.89695,12.15356 z m 6.47487,-0.41761 c -0.84171,-1.36192 0.60653,-2.16861 5.22867,-2.91252 4.21189,-0.67788 4.00498,-3.68783 -0.35804,-5.20879 -2.22331,-0.77505 -4.22743,-2.33533 -4.45359,-3.4673 -0.22617,-1.13196 -2.45368,-2.73548 -4.95001,-3.56338 -2.49635,-0.82789 -4.97682,-2.40526 -5.51215,-3.50526 -3.94405,-8.10416 -4.28195,-9.66812 -3.51569,-16.27278 0.6219,-5.36058 1.66982,-7.80049 4.35232,-10.13373 4.18369,-3.63901 9.61292,-3.4605 11.7465,0.38621 0.8073,1.45551 2.48832,3.41888 3.73561,4.36304 4.87924,3.69344 6.39887,5.99836 6.39887,9.70558 0,6.90318 -7.97696,8.80484 -14.25898,3.39925 -3.4606,-2.97781 -3.62202,-3.53477 -2.15348,-7.43052 3.11668,-8.26797 -2.28576,-11.45831 -5.67347,-3.35039 -1.71139,4.09594 -1.71095,5.23844 0.004,9.34182 2.16713,5.18666 6.51995,7.49822 13.1562,6.98658 4.20837,-0.32445 4.25649,-0.26034 4.00708,5.33827 -0.13884,3.11667 0.32402,5.66667 1.02858,5.66667 0.70456,0 1.96336,1.49756 2.79732,3.32792 1.25288,2.74977 1.0962,3.79212 -0.90189,6 -2.53255,2.79842 -9.25238,3.63505 -10.6774,1.32933 z m 4.67249,-33.99059 c 0,-2.07408 -0.75556,-3.33333 -2,-3.33333 -2.15194,0 -2.47098,1.22119 -1.19068,4.55761 1.2456,3.24599 3.19068,2.49966 3.19068,-1.22428 z m -122.666662,23.3333 c 0,-7.46784 0.204779,-8 3.078493,-8 1.693172,0 4.243172,0.88092 5.666667,1.9576 2.523424,1.90861 2.513121,1.95865 -0.411827,2 -3.603544,0.0509 -3.806572,1.12906 -0.666667,3.54016 2.180823,1.67464 2.140134,1.84616 -0.622508,2.62429 -1.625712,0.45789 -3.316145,1.96775 -3.756517,3.35524 -1.616257,5.09237 -3.287641,2.30781 -3.287641,-5.47729 z m -10.820205,5.38094 c -0.08445,-0.39285 -0.03572,-1.82929 0.10828,-3.19208 0.580086,-5.4897 -1.074331,-8.18528 -5.109237,-8.32457 -4.123352,-0.14235 -6.845504,3.38292 -6.845504,8.86511 0,1.43216 -0.618831,2.60393 -1.37518,2.60393 -2.901879,0 -2.865129,-4.46015 0.08872,-10.76673 2.87223,-6.13235 3.402458,-6.5666 8.017784,-6.5666 5.862109,0 7.334563,1.53925 8.290561,8.66666 0.393448,2.93334 1.089334,6.25476 1.546416,7.38095 0.584733,1.44072 0.03088,2.04763 -1.868622,2.04763 -1.484824,0 -2.768773,-0.32143 -2.853218,-0.7143 z M 47.72267,633.87731 c -0.214136,-14.59919 -0.02273,-66.09106 0.42535,-114.42638 0.77961,-84.09826 0.923139,-87.96276 3.333333,-89.7491 2.460776,-1.82383 2.457375,-1.91306 -0.148021,-3.88315 -2.501573,-1.89159 -2.319361,-1.99303 2.943203,-1.63853 6.657129,0.44842 8.987092,-1.02227 3.547462,-2.2392 -7.256704,-1.62343 -8.490665,-2.1254 -8.490665,-3.454 0,-0.73334 1.05,-1.00103 2.333333,-0.5949 4.83357,1.52971 27.595865,6.10794 30.367754,6.10794 1.589066,0 4.697376,0.90202 6.907358,2.00452 6.906794,3.44556 30.918983,5.04286 63.724883,4.23902 16.86667,-0.41329 35.16667,-1.35056 40.66667,-2.08281 5.5,-0.73225 14.5,-1.65015 20,-2.03976 5.5,-0.38961 12.30626,-1.36996 15.12502,-2.17855 2.81878,-0.80857 5.42503,-1.17014 5.7917,-0.80348 0.70094,0.70094 -8.33099,3.50751 -11.32875,3.52028 -0.95995,0.004 -1.33175,0.67666 -0.82624,1.49459 0.56657,0.91675 3.25177,1.22423 7.00068,0.80168 l 6.08157,-0.68548 -3.25532,2.5232 -3.25533,2.52321 2.98721,0.82728 c 2.25322,0.62402 2.81063,1.53084 2.26856,3.69062 -0.39525,1.57482 0.31839,5.25634 1.58588,8.18116 2.1072,4.86252 2.28114,11.93944 2.03143,82.65118 -0.27376,77.52555 -1.15404,123.39206 -2.39192,124.62994 -0.36415,0.36416 -0.47139,-44.92861 -0.23829,-100.65058 0.4408,-105.3755 0.29796,-108.45982 -4.92987,-106.45372 -1.08881,0.41782 -1.97967,0.14547 -1.97967,-0.60521 0,-0.75068 0.70795,-1.60085 1.57322,-1.88928 2.54304,-0.84768 0.10806,-5.03115 -2.92836,-5.03115 -2.57427,0 -9.31152,5.81668 -9.31152,8.03919 0,0.54072 1.28194,1.31836 2.84877,1.72811 2.52712,0.66085 2.77059,1.43856 2.15636,6.88802 -0.38083,3.3787 -0.96108,6.41174 -1.28945,6.74011 -0.95472,0.95473 -6.79498,0.91932 -9.89461,-0.06 -2.43412,-0.76904 -3.35635,0.12987 -6.37759,6.21609 -3.62315,7.29876 -10.11015,13.73442 -10.11015,10.03011 0,-1.03189 1.5,-4.08656 3.33334,-6.78812 4.1428,-6.10476 4.13233,-6.41277 -0.28771,-8.4656 -3.03099,-1.40771 -3.78016,-1.35057 -4.7382,0.36137 -1.40536,2.51123 -3.80848,1.29922 -2.77321,-1.39866 1.12154,-2.92271 -0.77774,-2.36312 -3.53906,1.0427 -2.91557,3.59611 -4.89912,2.4113 -2.47134,-1.47618 1.94974,-3.12206 0.56946,-5.48376 -1.81271,-3.10159 -0.86777,0.86779 -2.51344,1.57779 -3.65704,1.57779 -1.1436,0 -2.84243,1.22201 -3.77519,2.71557 -3.97594,6.36652 -14.08102,5.85984 -15.74996,-0.78972 -1.26566,-5.04279 3.40498,-9.64831 7.74043,-7.63251 3.24865,1.51048 2.99903,1.75494 -3.83252,3.753 -2.43839,0.71318 -0.4226,5.95366 2.29011,5.95366 3.7075,0 6.95665,-3.94059 5.93561,-7.19878 -2.04192,-6.51585 -1.95279,-8.35545 0.60407,-12.46789 1.97362,-3.17439 3.68008,-4.34116 6.38045,-4.36261 2.02745,-0.0161 6.30179,-1.21611 9.49853,-2.66667 8.45146,-3.83495 11.15438,-3.35223 5.52107,0.986 -7.45629,5.74213 -13.49848,12.54087 -13.066,14.70203 0.44415,2.21948 9.98449,3.4245 11.22473,1.41776 0.40279,-0.65174 1.92486,-0.8065 3.38236,-0.3439 1.6087,0.51058 3.60832,-0.0261 5.08876,-1.36596 2.85274,-2.58169 4.6696,-0.79418 3.36636,3.31195 -0.46341,1.46011 -0.54506,2.65473 -0.18144,2.65473 0.8237,0 12.08004,-14.73309 14.00643,-18.33258 0.77958,-1.45666 3.27849,-3.02068 5.55314,-3.47562 5.65124,-1.13025 4.13827,-2.73636 -4.5385,-4.81788 -7.67013,-1.84004 -17.84375,-1.55678 -48.83584,1.35967 -18.95207,1.78345 -53.7025,1.00121 -70.413014,-1.58501 -8.90499,-1.3782 -11.283501,-1.38498 -12.118106,-0.0345 -0.824329,1.3338 -2.800907,1.35779 -9.586985,0.1164 -13.722622,-2.51033 -20.3221,-3.02137 -19.38241,-1.50092 1.139449,1.84367 25.266694,6.08686 29.743931,5.23098 4.511306,-0.86242 7.089918,0.0905 7.089918,2.62005 0,2.58711 -9.986854,12.41945 -12.614625,12.41945 -1.128622,0 -2.052041,0.6 -2.052041,1.33334 0,1.94424 2.41058,1.63537 6.613556,-0.84739 3.518464,-2.07841 3.830096,-2.04229 6.642146,0.76976 1.622766,1.62276 2.62292,3.80408 2.22257,4.84739 -0.846427,2.20574 2.583928,2.6203 3.91124,0.47268 0.484122,-0.78334 1.86953,-1.0164 3.07869,-0.51794 1.20915,0.49846 3.69846,0.98936 5.5318,1.0909 1.9514,0.10813 3.18725,0.89924 2.98097,1.90836 -0.25627,1.25364 0.29038,1.37977 2.00436,0.46248 2.60483,-1.39406 9.67251,-1.17312 12.1871,0.38098 0.88607,0.54763 2.45848,0.29238 3.49423,-0.56722 1.03576,-0.8596 2.46451,-1.20363 3.17502,-0.76452 0.7105,0.43912 2.79254,0.11466 4.62674,-0.7211 1.83422,-0.83572 4.91327,-1.12336 6.84234,-0.63918 2.85985,0.71777 3.34844,1.42597 2.64637,3.83588 -0.64593,2.21718 -0.0819,1.87873 2.25757,-1.35471 1.71524,-2.37067 4.16863,-4.32067 5.45196,-4.33333 3.24831,-0.0321 2.91095,2.18722 -0.9139,6.01208 -2.97544,2.97544 -2.54747,5.89812 0.58057,3.96488 0.73333,-0.45323 1.33333,-0.20975 1.33333,0.54106 0,4.10228 -13.67116,5.08842 -15.01946,1.08339 -0.42498,-1.26235 -1.00335,-1.24781 -2.59471,0.0652 -1.12631,0.92932 -3.03152,1.3122 -4.23381,0.85084 -1.20229,-0.46136 -2.92834,-0.22628 -3.83566,0.5224 C 126.97161,470.72261 104,468.23123 104,466.35336 c 0,-0.67756 -1.74288,-0.84912 -3.87307,-0.38125 -2.158982,0.47418 -4.245175,0.24858 -4.713867,-0.50978 -0.557171,-0.90152 -1.986987,-0.92468 -4.238564,-0.0687 -2.57289,0.97821 -4.331776,0.74009 -7.245108,-0.98086 -3.952132,-2.33458 -7.411218,-1.35585 -3.89078,1.10088 1.392406,0.97168 -0.229737,1.14454 -5.591837,0.59586 -9.282277,-0.94983 -12.118937,-1.97012 -11.31343,-4.06924 0.340964,-0.88854 0.225447,-2.17332 -0.256705,-2.85508 -1.494598,-2.11335 -7.7079,-4.31963 -9.33424,-3.3145 -1.138356,0.70355 -1.747767,27.44712 -2.313859,101.54215 -0.422671,55.32289 -1.296803,101.13186 -1.942513,101.79773 -0.678083,0.69924 -1.338488,-10.00226 -1.563357,-25.33334 z M 92.666664,461.33332 c 0.453226,-0.73333 -0.11136,-1.33333 -1.254643,-1.33333 -1.143279,0 -2.07869,0.6 -2.07869,1.33333 0,0.73333 0.56459,1.33333 1.254644,1.33333 0.690055,0 1.625464,-0.6 2.078689,-1.33333 z m -12.666666,-4.04184 c 0,-1.59623 -3.760832,-3.30844 -4.857685,-2.21159 -1.167615,1.16762 0.812868,3.58676 2.936374,3.58676 1.056722,0 1.921311,-0.61882 1.921311,-1.37517 z m 6.666667,0.0418 c 0,-0.73333 -0.6,-1.33333 -1.333334,-1.33333 -0.733333,0 -1.333333,0.6 -1.333333,1.33333 0,0.73333 0.6,1.33333 1.333333,1.33333 0.733334,0 1.333334,-0.6 1.333334,-1.33333 z m 133.090725,-2 c 1.14066,-2.50347 1.13708,-3.33333 -0.0144,-3.33333 -1.83872,0 -6.40973,3.95076 -6.40973,5.53998 0,2.58971 5.02517,0.86358 6.42407,-2.20665 z M 66.276674,453.83849 c 0.430094,-1.29189 -8.747265,-4.50517 -12.867102,-4.50517 -3.555821,0 -0.884372,3.6782 3.590427,4.94349 5.993289,1.69467 8.607693,1.57115 9.276675,-0.43832 z m 111.435846,-4.37756 c 2.80652,-4.75106 2.90222,-6.79428 0.31821,-6.79428 -2.69507,0 -6.28264,5.79212 -5.25167,8.4788 1.19598,3.11663 2.3251,2.73108 4.93346,-1.68452 z M 73.333332,449.29148 c 0,-1.59623 -3.760832,-3.30844 -4.857686,-2.21159 -1.167614,1.16762 0.812868,3.58676 2.936375,3.58676 1.056721,0 1.921311,-0.61882 1.921311,-1.37517 z m -9.333334,-1.90464 c 0,-2.04747 -10.040505,-5.79079 -11.53193,-4.29937 -1.309191,1.3092 2.054171,4.68661 5.295425,5.31756 5.439038,1.05877 6.236505,0.92858 6.236505,-1.01819 z m 23.666667,-3.3116 c 2.783062,-2.32172 4.042002,-5.40859 2.205826,-5.40859 -1.957142,0 -8.492161,5.66403 -7.809481,6.76863 1.083661,1.7534 2.194832,1.48371 5.603655,-1.36004 z m -10.659993,-1.07525 c 0.344108,-1.04487 -0.736159,-1.66667 -2.895563,-1.66667 -2.240676,0 -3.444444,0.73137 -3.444444,2.09273 0,2.5075 5.495529,2.13818 6.340007,-0.42606 z m -11.99691,-1.97071 c -0.300186,-0.90056 -3.050186,-2.36247 -6.111111,-3.24869 -4.65927,-1.34898 -5.565319,-1.3057 -5.565319,0.26592 0,1.03248 1.95,2.44028 4.333333,3.12844 6.133115,1.77086 7.969799,1.73444 7.343097,-0.14567 z m 0.990236,-5.73329 c -7.371753,-2.42954 -12.028855,-2.36982 -6.666666,0.0855 2.2,1.00738 5.8,1.79572 8,1.75191 3.821261,-0.0761 3.761682,-0.1582 -1.333334,-1.83739 z m 16,-5.96267 c -0.453225,-0.73333 -2.738635,-1.26235 -5.078689,-1.17559 l -4.254644,0.15776 4,1.01783 c 5.798829,1.47555 6.245274,1.47555 5.333333,0 z m 34.261492,218.96119 c -1.22443,-1.67638 -1.87453,-1.84553 -2.41315,-0.62786 -1.32209,2.98885 -3.18168,1.75498 -3.18168,-2.11111 0,-4.60948 1.18662,-6.00385 3.48559,-4.09587 0.96772,0.80314 2.49156,0.95584 3.45601,0.34632 2.9704,-1.87725 9.21187,-1.62418 9.99057,0.40508 0.57754,1.50504 1.1368,1.332 2.64248,-0.81766 1.05044,-1.49972 2.77587,-2.72676 3.83429,-2.72676 2.20261,0 2.57613,2.10649 0.59106,3.33333 -0.73333,0.45323 -1.33333,1.72907 -1.33333,2.8352 0,1.4044 0.80453,1.75581 2.66667,1.1648 3.10488,-0.98545 3.53637,0.95169 0.73065,3.28023 -2.05784,1.70786 -7.39732,0.71892 -7.39732,-1.37008 0,-2.32698 -2.66645,-1.25504 -2.71102,1.08985 -0.037,1.94757 -0.48342,1.80612 -2.70001,-0.85555 -2.82321,-3.39009 -2.86309,-3.38884 -4.75695,0.15008 -1.16155,2.1705 -1.31854,2.1705 -2.90386,0 z m 24.40517,-0.29453 c -0.45322,-0.73333 -0.18864,-1.33333 0.58798,-1.33333 0.77661,0 1.41202,0.6 1.41202,1.33333 0,0.73333 -0.26458,1.33333 -0.58797,1.33333 -0.32339,0 -0.9588,-0.6 -1.41203,-1.33333 z m 35.8787,-2.25689 -3.32732,-3.59024 -0.78287,2.99369 c -0.65081,2.48873 -1.56303,2.92563 -5.40813,2.59023 -3.91255,-0.34128 -4.89538,-1.12256 -6.37811,-5.07012 -3.34641,-8.90936 -11.00743,-26.80293 -11.82592,-27.62143 -0.45265,-0.45266 -0.82301,3.79582 -0.82301,9.44106 0,8.18121 -0.43316,10.43027 -2.13456,11.08317 -3.64126,1.39728 -4.49056,-2.31864 -4.5117,-19.73955 -0.0161,-13.32112 -0.43802,-17.18332 -2.02041,-18.49658 -3.30576,-2.74355 -2.28875,-4.82472 3.15469,-6.45562 8.73895,-2.61825 11.60212,-2.00828 16.08158,3.42607 4.97798,6.03917 5.0319,7.04728 0.65518,12.24872 -4.06666,4.83296 -3.75472,7.63597 2.34762,21.09438 5.87586,12.95895 7.63386,15.33732 9.76298,13.2082 1.74423,-1.74422 12.57479,-1.89202 15.29834,-0.20878 1.85612,1.14714 1.72482,5.12848 -0.23372,7.08702 -2.59552,2.59552 -6.29764,1.84784 -9.85464,-1.99022 z M 184,643.99998 c 0,-0.73333 -0.26459,-1.33333 -0.58798,-1.33333 -0.32338,0 -0.9588,0.6 -1.41202,1.33333 -0.45323,0.73333 -0.18864,1.33333 0.58797,1.33333 0.77661,0 1.41203,-0.6 1.41203,-1.33333 z m -36,-34 c 0,-1.1 -0.6,-2 -1.33334,-2 -0.73333,0 -1.33333,0.9 -1.33333,2 0,1.1 0.6,2 1.33333,2 0.73334,0 1.33334,-0.9 1.33334,-2 z m 3.66666,-6.84038 c 2.03114,-0.54432 3,-1.81511 3,-3.93488 0,-3.25924 -4.57322,-6.86663 -5.92738,-4.67555 -0.41575,0.67268 -0.11787,1.43575 0.66205,1.69571 0.78008,0.26002 1.00632,1.54532 0.50292,2.85717 -0.50327,1.31148 -1.73761,2.06887 -2.74297,1.68308 -1.89408,-0.72683 -2.49743,0.7676 -0.93906,2.32596 1.07495,1.07496 1.59692,1.07961 5.44444,0.0485 z m 45.75148,35.50705 c 0,-1.1 0.88092,-3.16468 1.95759,-4.58818 1.47868,-1.95498 1.9576,-2.09888 1.9576,-0.58817 0,1.1 -0.88092,3.16468 -1.9576,4.58817 -1.47867,1.95499 -1.95759,2.09888 -1.95759,0.58818 z M 61.999999,637.2583 c -0.733334,-0.70127 -2.803334,-2.39396 -4.6,-3.76155 -5.798152,-4.41345 -3.593982,-17.76467 2.303365,-13.95206 1.606717,1.03873 2.183143,2.90039 1.918837,6.19719 -0.483689,6.03326 1.707396,7.35275 5.809835,3.4987 4.45986,-4.18981 4.20663,-10.58685 -0.939523,-23.73396 l -4.17415,-10.66389 2.582218,-4.42137 c 2.232412,-3.82243 3.294589,-4.42138 7.840819,-4.42138 4.437106,0 5.325114,0.46832 5.684385,2.99786 0.313261,2.2056 -0.487687,3.34514 -3.030752,4.31202 -2.934711,1.11578 -3.323404,1.87094 -2.574676,5.00215 0.485024,2.02839 1.338159,4.58797 1.895856,5.68797 0.557697,1.1 1.443832,5.45 1.969188,9.66667 0.525356,4.21667 1.456116,7.66667 2.068356,7.66667 0.612241,0 1.293106,-3.44418 1.513036,-7.65371 0.322424,-6.17132 0.872224,-7.74365 2.838665,-8.11808 6.933043,-1.32011 12.087222,3.50725 8.26002,7.73627 -1.11768,1.23502 -2.032147,3.54825 -2.032147,5.1405 0,1.59226 -0.542906,2.89502 -1.206457,2.89502 -0.663552,0 -0.884551,2.4 -0.491108,5.33333 0.677665,5.05237 0.530501,5.33333 -2.793543,5.33333 -2.091508,0 -3.508892,-0.74193 -3.508892,-1.83675 0,-1.0102 -0.9,-2.58366 -2,-3.49658 -1.674673,-1.38985 -1.999999,-1.18284 -1.999999,1.27264 0,6.44186 -11.214558,13.25764 -15.333333,9.31901 z m 6.883041,-42.92498 c -0.369884,-0.91667 -0.672515,-0.16667 -0.672515,1.66666 0,1.83334 0.302631,2.58334 0.672515,1.66667 0.369882,-0.91667 0.369882,-2.41667 0,-3.33333 z m 54.34133,39.25706 c -0.74407,-0.50805 -2.7148,-2.87373 -4.3794,-5.25707 C 115.96765,624.21365 112,622.47472 112,625.33332 c 0,0.73333 0.64173,1.33333 1.42607,1.33333 0.78433,0 1.23433,1.35 1,3 -0.65117,4.58496 -4.18679,3.63546 -5.21685,-1.401 -1.144,-5.59351 -2.44818,-6.91455 -3.36503,-3.40852 -0.87721,3.35445 -12.475179,6.65982 -14.147024,4.03185 -1.825529,-2.86956 -1.055267,-7.59544 2.325293,-14.26665 3.422337,-6.75367 6.728571,-8.47609 8.232861,-4.28901 0.85534,2.3808 5.04931,7 6.35559,7 0.39733,0 0.72242,-2.03582 0.72242,-4.52402 0,-7.27773 5.68299,-8.31772 11.95403,-2.18758 4.71098,4.60512 5.14901,8.04794 1.32757,10.43448 -3.20597,2.00216 -2.09157,4.79994 1.53422,3.85178 1.38317,-0.3617 2.85087,-0.114 3.26154,0.55051 0.41068,0.66449 1.61127,1.20816 2.668,1.20816 2.90052,0 2.35261,-6.23536 -0.82734,-9.41531 -3.10191,-3.10192 -2.98611,-6.29296 0.30355,-8.36446 3.61517,-2.27648 6.86182,1.36189 5.99296,6.71604 -0.55885,3.44381 -0.15133,4.69385 1.88562,5.784 3.23888,1.7334 2.54813,7.22403 -1.4063,11.17847 -2.34488,2.34488 -3.10746,2.48442 -5.48004,1.00271 -1.868,-1.16659 -3.2739,-1.29148 -4.36301,-0.3876 -0.8838,0.73348 -2.21569,0.91793 -2.95976,0.40988 z m -21.89104,-13.44774 c 0,-0.65488 -0.94907,-1.55488 -2.109048,-2 -2.98009,-1.14358 -3.224284,-1.05339 -3.224284,1.19068 0,1.1111 1.185185,2 2.666666,2 1.466666,0 2.666666,-0.53582 2.666666,-1.19068 z m 16.56879,-2.23526 c 2.44389,-2.44388 0.68331,-7.24073 -2.65755,-7.24073 -2.76675,0 -3.74049,3.24868 -1.967,6.56248 1.77804,3.32231 1.95461,3.3482 4.62455,0.67825 z m -15.23546,12.68057 c 0,-0.77661 0.6,-1.0412 1.33334,-0.58797 0.73333,0.45323 1.33333,1.08864 1.33333,1.41203 0,0.32338 -0.6,0.58797 -1.33333,0.58797 -0.73334,0 -1.33334,-0.63541 -1.33334,-1.41203 z m 60.53162,-6.99162 c -3.06784,-3.64593 -3.40672,-4.97263 -2.7299,-10.68735 0.93484,-7.89333 2.67412,-10.24233 7.58376,-10.24233 3.17956,0 4.01963,0.83057 5.73148,5.66667 l 2.00586,5.66666 0.1052,-5.50341 c 0.1196,-6.25231 2.6333,-9.14347 6.79997,-7.82103 2.60832,0.82786 2.6496,1.02244 0.54359,2.5624 -2.08448,1.5242 -2.09328,1.7378 -0.1032,2.5015 1.22766,0.47109 2.09452,2.16249 1.9891,3.8811 -0.1028,1.67536 0.27038,5.89611 0.82918,9.37944 l 1.01602,6.33334 h -4.1514 c -2.28316,0 -4.15128,-0.6 -4.15128,-1.33334 0,-2.05382 -2.84817,-1.58236 -5.62564,0.9312 -3.85333,3.48723 -6.03409,3.19147 -9.84274,-1.33485 z m 20.44061,-1.73524 c -0.44307,-0.44305 -1.59307,-0.49041 -2.55556,-0.1052 -1.06364,0.42563 -0.74771,0.74157 0.80556,0.80555 1.40555,0.0579 2.19305,-0.25724 1.75,-0.7003 z m -13.78155,-2.63683 c 1.26611,-3.29941 0.95339,-8.46372 -0.69953,-11.55222 -1.46115,-2.73019 -1.56651,-2.74044 -3.33333,-0.32418 -1.00347,1.37232 -1.78231,3.73046 -1.73076,5.2403 0.0927,2.71298 0.10706,2.7139 1.23961,0.0785 0.96028,-2.23469 1.16109,-1.96471 1.23961,1.66667 0.0516,2.38333 -0.54169,4.33333 -1.3183,4.33333 -0.77662,0 -1.0412,0.6 -0.58798,1.33333 1.26012,2.03892 4.28402,1.58703 5.19068,-0.77572 z m 22.42918,2.08982 c -2.53656,-2.36316 -2.95319,-4.14812 -2.95319,-12.65246 0,-8.66833 0.34584,-10.08624 2.77759,-11.38766 3.73929,-2.00122 7.41473,1.34614 9.34365,8.50962 1.50609,5.59316 0.55168,16.88307 -1.42723,16.88307 -0.62841,0 -1.96272,0.31472 -2.9651,0.69937 -1.0024,0.38466 -3.15147,-0.53872 -4.77572,-2.05194 z m 6.23592,-11.09818 c -1.57812,-3.4636 -5.18911,-4.95085 -5.18911,-2.13722 0,0.77661 0.65232,1.00885 1.44961,0.5161 0.9333,-0.5768 1.35788,0.46372 1.19206,2.92131 -0.40214,5.95984 -0.12254,6.53623 2.0948,4.31887 1.71508,-1.71508 1.79265,-2.67807 0.45264,-5.61906 z m 25.47755,12.42216 c 0,-0.74905 -1.43885,-2.0175 -3.19745,-2.81877 -1.7586,-0.80127 -3.85996,-2.73841 -4.66969,-4.30475 -1.29212,-2.49948 -1.38076,-2.33326 -0.72448,1.35851 0.84357,4.74547 -0.81696,6.50083 -4.35413,4.60277 -1.31318,-0.70465 -3.45608,-1.61324 -4.76203,-2.0191 -1.96648,-0.61115 -2.26664,-1.83055 -1.74699,-7.09734 0.3451,-3.49766 0.6636,-7.59049 0.70778,-9.09514 0.0641,-2.1853 1.00098,-2.76186 4.65597,-2.86546 2.78841,-0.0791 4.85525,0.59895 5.29149,1.73575 0.39371,1.026 1.63467,1.86545 2.75769,1.86545 1.52371,0 2.04184,1.48635 2.04184,5.85735 0,3.97655 0.6422,6.10379 2,6.62483 1.6252,0.62364 2,-0.57815 2,-6.41291 0,-4.53585 -0.61382,-7.40105 -1.66666,-7.77955 -1.35923,-0.48864 6.02612,-0.28173 8.33333,0.23348 0.36667,0.0819 0.80047,4.19766 0.96399,9.14616 0.26917,8.14542 0.11266,8.75404 -1.65282,6.42807 -1.8588,-2.44888 -1.98982,-2.3708 -2.79732,1.66667 -0.77673,3.88366 -3.18052,6.05577 -3.18052,2.87398 z M 101.66666,562.51257 c -1.59652,-1.64051 -2.32264,-5.17925 -1.06273,-5.17925 0.33216,0 2.11156,0.68692 3.95422,1.52649 2.90397,1.32313 3.99012,1.03849 8.15295,-2.13665 2.97504,-2.26918 4.51974,-4.40042 4.05921,-5.60055 -0.49543,-1.29105 0.58651,-2.401 3.24312,-3.32711 2.19261,-0.76434 3.98657,-1.93102 3.98657,-2.59262 0,-0.66159 0.9,-1.2029 2,-1.2029 1.1,0 2,-1.00458 2,-2.23241 0,-1.83564 -0.60495,-1.66411 -3.40356,0.96505 -2.58054,2.4243 -3.65895,2.78426 -4.45969,1.48863 -0.8398,-1.35883 -2.02959,-1.24465 -5.80858,0.55743 -2.61385,1.24645 -5.7279,1.89197 -6.92012,1.43448 -1.98338,-0.7611 -1.97061,-1.14559 0.15011,-4.5225 3.41907,-5.44434 15.10259,-16.35734 17.51225,-16.35734 0.65062,0 2.32595,-1.28984 3.72294,-2.86632 2.53473,-2.86039 2.53262,-2.86452 -1.02099,-2.00112 -3.165,0.76898 -3.66131,0.40838 -4.46324,-3.2428 -0.70888,-3.22751 -0.25304,-4.79907 2.12672,-7.33221 5.35386,-5.69892 8.92874,-3.19348 4.48855,3.14577 -1.79671,2.56517 -1.81104,2.96334 -0.10665,2.96334 1.08293,0 5.01695,-3.41977 8.74227,-7.59949 7.00385,-7.85813 9.42148,-7.45746 3.31443,0.5493 -2.32539,3.04873 -3.21262,5.51607 -2.70738,7.52909 0.58108,2.31522 -0.13186,3.51605 -3.14372,5.29521 -8.05389,4.75756 -11.23347,13.18096 -4.12362,10.92439 4.44997,-1.41238 4.39756,1.78494 -0.13269,8.09321 -4.29669,5.98301 -4.33546,6.15948 -1.74728,7.95141 1.4558,1.00792 3.40863,2.48767 4.33962,3.2883 1.22757,1.05569 2.92069,1.01165 6.16163,-0.1603 3.11534,-1.12652 6.0354,-1.23546 9.64064,-0.35968 2.84442,0.69098 7.87121,0.87336 11.17061,0.40532 4.64236,-0.65856 6.37627,-0.36846 7.66756,1.28279 1.49976,1.91784 1.93841,1.81523 4.33441,-1.01392 C 175.00629,550.21124 176,549.733 176,550.90264 c 0,1.02561 -1.75252,3.94208 -3.8945,6.48104 -3.30218,3.91424 -4.2744,4.38714 -6.39256,3.10952 -1.37393,-0.82874 -5.62141,-1.3566 -9.43884,-1.17306 -5.15084,0.24766 -6.94077,-0.13742 -6.94077,-1.49322 0,-2.39198 -3.24341,-2.34514 -5.25264,0.0759 -1.64339,1.98016 -10.20489,1.51832 -12.61829,-0.68068 -0.66234,-0.6035 -2.36373,-0.47674 -3.78086,0.28167 -1.41713,0.75843 -2.88529,1.07027 -3.26259,0.69297 -1.12161,-1.12164 0.92046,-3.53009 2.99307,-3.53009 1.05672,0 1.92131,-0.9 1.92131,-2 0,-2.42509 -3.38428,-2.64111 -5.22219,-0.33333 -7.62436,9.57356 -8.9894,10.60912 -14.82106,11.24366 -3.86483,0.42054 -6.54206,0.0468 -7.62342,-1.06441 z m 16.79508,-27.16433 c 0.42826,-2.16399 0.21381,-2.15244 -2.9581,0.1593 -1.88091,1.37084 -3.4387,3.31563 -3.46174,4.32174 -0.0615,2.68537 5.81307,-1.41508 6.41984,-4.48104 z m 25.13908,-1.2 c -4.89569,-1.51935 -5.44677,-3.48159 -0.97776,-3.48159 2.80328,0 9.35298,3.03016 9.36654,4.33333 0.0136,1.30127 -2.16342,1.08024 -8.38878,-0.85174 z m 26.35708,-2.75159 c -3.77234,-4.9458 -3.64476,-7.71931 0.64692,-14.06333 3.20738,-4.74118 6.72851,-12.69637 6.72851,-15.20151 0,-3.46565 -2.30228,-2.45996 -6.27649,2.74172 -8.3207,10.89064 -11.75547,13.94125 -17.03051,15.12575 C 148.20828,521.30572 144,519.06248 144,514.6547 c 0,-2.93578 6.27756,-9.71925 8.00589,-8.65107 2.4028,1.48501 1.38487,4.4694 -1.67256,4.90362 -4.66505,0.66255 -4.01896,5.64284 0.80361,6.19451 3.19844,0.36589 4.89552,-0.79746 10.66667,-7.31197 9.00273,-10.16238 26.46979,-27.92198 21.05739,-21.41007 -2.30688,2.77551 -4.19434,5.92551 -4.19434,7 0,3.41188 5.04287,2.10651 8.02135,-2.07637 5.06083,-7.10728 0.58908,-19.35786 -6.12553,-16.78122 -1.0427,0.40012 -1.89582,1.97023 -1.89582,3.48912 0,4.24211 -4.75049,12.5946 -9.37762,16.48807 -14.0048,11.78427 -18.4933,-0.41828 -5.14278,-13.98127 6.45772,-6.56048 7.76611,-10.10349 2.52158,-6.82822 -1.49806,0.93554 -2.85912,1.07936 -3.31004,0.34974 -1.72266,-2.78732 4.44356,-3.99141 14.17968,-2.76889 11.73989,1.47411 15.79585,4.90211 15.79585,13.35028 0,4.51632 -0.81332,5.84004 -6.71293,10.92565 -5.40376,4.65816 -7.354,7.55375 -10,14.84736 -3.86796,10.66185 -4.32622,18.92195 -1.11807,20.15303 1.19295,0.45778 3.00744,0.13648 4.03221,-0.71402 2.51114,-2.08405 3.94006,-0.41306 1.82554,2.13478 -2.88807,3.4799 -7.59668,2.41814 -11.40218,-2.57111 z m -8.06673,-34.87273 c 1.16011,-0.44517 4.50917,-3.82356 7.44239,-7.50751 5.16738,-6.48996 6.68164,-10.34976 4.06037,-10.34976 -2.59611,0 -14.72727,14.10692 -14.72727,17.12586 0,1.7686 0.32784,1.84296 3.22451,0.73141 z m -46.60608,22.06466 c -0.50683,-0.82005 -2.53251,-1.04674 -4.83491,-0.54105 -2.80514,0.61612 -4.69659,0.20609 -6.47539,-1.40369 -2.22711,-2.01551 -3.30532,-2.08391 -9.483978,-0.60167 -6.888245,1.65247 -7.006406,1.62821 -9.929849,-2.03813 l -2.95865,-3.71051 -4.006984,2.85323 c -10.590308,7.54096 -25.495786,-2.79031 -16.183949,-11.2174 3.258458,-2.94887 6.997793,-1.38777 7.681353,3.2068 0.344704,2.31695 -0.249403,2.86383 -3.111111,2.86383 -5.107625,0 -3.444786,3.2352 1.933619,3.76202 5.15544,0.50499 8.769051,-2.39785 15.4719,-12.42869 5.488832,-8.21405 14.817786,-18.03649 16.995689,-17.89473 1.21466,0.0791 1.20234,0.27264 -0.0495,0.77777 -2.247607,0.90693 -2.121523,3.11696 0.17782,3.11696 1.93209,0 3.43974,-3.90963 3.47064,-9 0.0186,-3.06115 -1.2923,-3.55924 -7.981798,-3.03291 -4.360989,0.34314 -5.367519,1.44042 -6.206934,6.76659 -1.350536,8.56928 -10.695111,18.57072 -17.369881,18.59087 -5.465365,0.0165 -5.017404,-8.5988 0.664973,-12.78895 2.466004,-1.81841 0.920576,-4.71108 -1.93209,-3.61641 -1.150527,0.4415 -2.622124,-0.0347 -3.270216,-1.05823 -1.910398,-3.01708 -1.42403,-3.86096 2.225265,-3.86096 4.711052,0 3.469968,-2.97128 -1.88224,-4.50627 -2.325879,-0.66705 -4.228871,-1.73746 -4.228871,-2.37868 0,-0.64122 1.65,-0.70442 3.666667,-0.14045 4.428547,1.23847 18.382134,1.08491 28.060625,-0.3088 6.30787,-0.90833 7.40954,-0.68895 10.33333,2.05783 4.13572,3.8853 4.18029,8.88398 0.1213,13.60348 -2.85818,3.32328 -3.02189,4.21225 -1.77729,9.65116 1.00534,4.39334 0.94309,6.92958 -0.23347,9.51185 -2.19484,4.81716 -1.11171,5.32821 4.40018,2.07612 5.85463,-3.45432 13.46149,-5.00383 14.70301,-2.995 0.5022,0.81256 -0.44654,3.67731 -2.1083,6.36608 -2.14838,3.47616 -2.54463,5.0476 -1.3714,5.43868 1.26257,0.42085 1.28552,0.98913 0.0977,2.42033 -1.85063,2.22987 -3.41641,2.38584 -4.6073,0.45893 z m -0.61843,-7.25526 c 2.00133,-2.13032 2.48401,-3.33333 1.33741,-3.33333 -2.04355,0 -6.67074,3.84284 -6.67074,5.53998 0,2.06129 2.16554,1.16531 5.33333,-2.20665 z m -20.978461,0.56612 c 4.506604,-2.05333 7.914941,-9.11824 7.405191,-15.34967 -0.35141,-4.2958 -0.97529,-5.29414 -3.534895,-5.65669 -1.855521,-0.26281 -3.853521,0.54321 -4.957595,2 -2.427605,3.20312 -2.41921,5.77357 0.01885,5.77357 2.830342,0 4.76198,4.245 3.200936,7.03443 -1.764267,3.15257 -3.72854,2.90119 -2.87369,-0.36776 0.454996,-1.73991 0.04091,-2.66667 -1.191493,-2.66667 -2.750976,0 -5.088842,2.77688 -5.088842,6.04444 0,4.77459 1.773074,5.57971 7.021534,3.18835 z m -14.08537,-21.56612 c 4.714497,-8.73811 5.720706,-11.66817 3.99947,-11.64641 -2.096301,0.0265 -11.793206,13.25882 -10.843006,14.79629 1.513519,2.44892 4.585719,1.03488 6.843536,-3.14988 z M 186.66666,514.741 c 0,-4.61405 5.43579,-11.65912 7.84636,-10.16931 1.26236,0.78019 1.26416,1.42354 0.008,2.93684 -1.21813,1.46778 -1.23384,2.3122 -0.0648,3.4813 1.16911,1.1691 1.5435,1.04381 1.5435,-0.51652 0,-2.87996 5.53314,-7.68255 6.3059,-5.47332 0.90923,2.59936 3.06642,1.97672 5.97872,-1.72568 2.52307,-3.20756 2.76867,-3.26203 4.50856,-1 1.74159,2.26422 1.98473,2.21384 4.54015,-0.94099 2.53836,-3.13377 2.80864,-3.19221 4.5144,-0.9762 1.69756,2.20536 1.96469,2.12773 4.14868,-1.20545 1.99745,-3.04851 2.50645,-3.25495 3.52738,-1.43066 0.81298,1.45272 0.35783,3.50542 -1.42864,6.44303 -2.31092,3.8 -2.38245,4.48604 -0.60341,5.78689 1.77119,1.29514 1.70459,1.75974 -0.54389,3.79459 -3.22582,2.91932 -7.36084,1.65617 -6.23107,-1.90343 0.98237,-3.09521 0.14903,-3.1841 -2.74255,-0.29253 -1.84713,1.84713 -2.40645,1.90846 -3.35834,0.36827 -0.91882,-1.48668 -1.83286,-1.20311 -4.67525,1.45042 -3.27459,3.05701 -3.51243,3.10325 -3.25003,0.63173 0.51913,-4.88949 0.007,-4.96957 -4.79985,-0.74961 -3.13275,2.7506 -5.61719,3.92629 -7.22112,3.41723 -1.34488,-0.42686 -2.83112,-0.15168 -3.30279,0.61148 -1.81729,2.9409 -4.69991,1.3843 -4.69991,-2.53808 z m 29,-92.95739 c 0.91667,-0.36988 2.41667,-0.36988 3.33333,0 0.91667,0.36988 0.16667,0.67252 -1.66666,0.67252 -1.83334,0 -2.58334,-0.30264 -1.66667,-0.67252 z M 76.666665,420.47927 c -18.381112,-3.75471 -26.392777,-5.86428 -25.53371,-6.72335 0.979478,-0.97948 32.849375,5.39995 32.858928,6.5774 0.0084,1.03517 -2.707132,1.08928 -7.325218,0.14595 z m 145.333325,0.15822 c 4.80634,-1.74937 15.33334,-4.37948 15.33334,-3.83093 0,1.33256 -9.35191,4.5238 -12.95718,4.42149 -2.04022,-0.0579 -3.10949,-0.32364 -2.37616,-0.59056 z m -9.33333,-3.2341 c 4.24793,-1.72484 23.64523,-5.17926 22.43209,-3.99487 -1.38533,1.35251 -18.27969,5.28859 -22.18149,5.16789 -2.80373,-0.0867 -2.81348,-0.1324 -0.2506,-1.17302 z m 7.33333,-6.16552 c 6.96667,-1.79555 13.7751,-3.90019 15.12984,-4.67698 2.91012,-1.66861 4.35207,-0.86436 1.90239,1.06107 -2.03399,1.59871 -23.34623,7.07928 -27.07541,6.96263 -1.44292,-0.0452 3.07652,-1.55116 10.04318,-3.34672 z m 3.16622,348.25679 c 2.84142,-0.98919 4.54897,-2.17999 3.79457,-2.64624 -0.75441,-0.46626 -3.97921,0.30973 -7.16623,1.7244 -6.66026,2.9564 -4.31473,3.59769 3.37166,0.92184 z M 35.920632,608.99998 c 0.07384,-35.7937 -1.967799,-85.76076 -3.799941,-93 -0.649584,-2.56666 -1.272509,-4.36666 -1.384278,-3.99999 -0.73437,2.40914 0.01889,35.72326 1.145617,50.66666 0.746455,9.9 1.384969,29.4 1.418921,43.33333 0.05452,22.37619 0.837016,35.33333 2.133807,35.33333 0.230548,0 0.449192,-14.55 0.485874,-32.33333 z M 251.57747,549.08332 c -0.42562,-1.06364 -0.74157,-0.74771 -0.80554,0.80556 -0.0579,1.40554 0.25722,2.19305 0.70029,1.75 0.44305,-0.44306 0.49041,-1.59307 0.1052,-2.55556 z m 0.0321,-14.73446 c -0.31892,-1.65854 -0.59198,-0.61554 -0.60678,2.31779 -0.0148,2.93333 0.24615,4.29033 0.57987,3.01555 0.33372,-1.27479 0.34583,-3.67479 0.0269,-5.33334 z m 0.65308,-26.23467 c -0.65203,-0.42948 -1.60708,-2.50167 -2.12236,-4.60487 -0.51527,-2.1032 -1.12628,-3.6032 -1.35782,-3.33333 -0.23153,0.26986 -0.75577,6.36632 -1.16498,13.54767 -0.70902,12.44276 -0.62343,13.01875 1.8192,12.24348 1.98717,-0.6307 2.62418,-0.1192 2.8346,2.27632 0.14926,1.69943 0.47512,-1.95876 0.72412,-8.12928 0.24901,-6.17052 -0.0808,-11.57051 -0.73276,-11.99999 z m 3.0912,-40.44754 c 0.60724,-19.77341 0.4972,-31.66666 -0.293,-31.66666 -0.73447,0 -1.38866,9.09174 -1.559,21.66666 -0.16144,11.91667 -0.56928,27.06667 -0.90631,33.66667 -0.37905,7.42312 -0.15535,11.23719 0.58652,10 0.65961,-1.1 1.63691,-16.25 2.17179,-33.66667 z M 82.666665,409.47088 c -1.1,-0.61307 -5.6,-1.43465 -10,-1.82575 l -8,-0.71106 6.666667,1.73829 c 7.882059,2.05521 14.413869,2.51543 11.333333,0.79852 z M 157.8139,409.81876 164,408.97085 v -5.74008 c 0,-6.21798 2.11337,-9.15705 3.05642,-4.25056 0.42114,2.19107 0.67716,1.73911 0.93295,-1.64689 0.30803,-4.0775 0.54399,-3.66984 1.86905,3.22916 1.53722,8.00367 4.80824,11.89717 4.80824,5.72327 0,-10.61765 -8.15301,-42.10388 -12.21068,-47.15653 -0.67906,-0.8456 -1.74698,-3.2456 -2.37313,-5.33334 -0.62615,-2.08774 -1.60511,-4.95005 -2.17547,-6.3607 -0.81412,-2.01354 -0.58109,-2.38986 1.08412,-1.75086 1.17027,0.44907 2.41855,0.0389 2.78459,-0.91497 0.36491,-0.95091 3.48111,-2.43843 6.92492,-3.30559 5.22351,-1.31529 6.76783,-1.24486 9.31613,0.42486 2.87274,1.88228 3.10368,1.80622 3.87751,-1.2769 0.52759,-2.10209 1.77052,-3.2784 3.46408,-3.2784 1.45269,0 2.64127,-0.47498 2.64127,-1.05553 0,-0.58055 2.1669,-2.03771 4.81533,-3.23813 l 4.81533,-2.1826 15.72881,16.23813 c 23.88964,24.66321 29.05654,30.48755 31.55627,35.57147 1.68865,3.43436 2.42425,4.05254 2.78569,2.34104 0.6367,-3.01495 -3.40661,-8.78694 -14.26225,-20.35992 -4.82489,-5.14372 -10.38493,-11.14372 -12.35567,-13.33334 -1.97073,-2.18961 -4.37073,-4.63776 -5.33333,-5.44032 -0.9626,-0.80256 -4.61038,-5.47128 -8.1062,-10.37496 -3.4958,-4.90366 -7.76977,-9.45326 -9.49772,-10.11022 -3.13744,-1.19286 -4.76293,-4.93132 -5.53165,-12.72228 -0.21708,-2.2 -1.02949,-6.7 -1.80539,-10 -0.77589,-3.3 -1.42537,-17.51459 -1.44329,-31.58797 -0.0228,-17.92212 -0.49535,-25.87398 -1.5772,-26.5426 -1.86437,-1.15224 -0.66079,45.23929 1.55869,60.07909 1.64168,10.97648 1.05222,13.92894 -2.23641,11.20164 -5.93032,-4.91811 -6.28801,-8.35858 -6.84255,-65.81683 -0.43921,-45.50958 -0.8457,-54.84796 -2.42674,-55.749 -1.59715,-0.9102 -1.76327,-6.02392 -1.04456,-32.15622 0.8825,-32.08765 0.33096,-36.05002 -4.08078,-29.31687 -2.11806,3.23259 -3.10738,7.1756 -6.161,24.55543 -2.09286,11.91168 -4.10694,47.74169 -3.39146,60.33333 0.5143,9.05141 0.27245,11.66667 -1.07896,11.66667 -1.69118,0 -2.42,-6.74642 -4.24923,-39.33334 -0.94692,-16.86913 -2.10695,-26.64665 -3.31407,-27.93333 -0.65358,-0.69666 -1.18833,-5.01125 -1.18833,-9.58797 0,-4.61863 -0.65327,-8.72505 -1.46812,-9.22867 -1.03625,-0.64044 -1.18476,-7.33146 -0.50484,-22.74535 0.94101,-21.333134 0.55123,-23.882942 -3.09371,-20.23801 -1.24444,1.24445 -1.6,1.0963 -1.6,-0.666663 0,-1.528889 -1.08497,-2.266667 -3.33333,-2.266667 H 140 l 0.1866,17 0.18658,17 L 142,118.66666 143.62681,106 l 0.18659,13 c 0.10986,7.65338 0.73497,13 1.51993,13 0.80423,0 1.33333,-5.55556 1.33333,-14 0,-8.44445 0.52911,-14 1.33334,-14 1.98824,0 1.73917,28.39416 -0.26667,30.4 -2.31795,2.31794 -8.63452,1.98268 -9.59068,-0.50906 -0.44513,-1.15997 -0.80932,-9.89538 -0.80932,-19.41202 0,-11.19579 -0.47061,-17.012116 -1.33333,-16.478923 -0.76366,0.471965 -1.39012,8.053813 -1.46624,17.745353 -0.0736,9.37603 -0.56266,15.43497 -1.09667,13.58798 -0.53006,-1.83333 -0.7377,-7.23333 -0.46142,-12 0.27628,-4.76667 -0.0954,-11.36667 -0.82587,-14.66667 -1.06992,-4.833262 -1.27845,-2.30517 -1.07234,13.00088 0.25271,18.76635 0.21966,19.00087 -2.67788,19 -1.61356,-4.8e-4 -3.45008,-0.92352 -4.08115,-2.05118 -1.00747,-1.80025 -1.41906,-1.75015 -3.37467,0.41078 -1.90641,2.10656 -2.24776,6.14647 -2.36958,28.04418 -0.0783,14.07069 -0.68949,25.92125 -1.35825,26.33457 -0.69509,0.42958 -1.28311,-4.56516 -1.37276,-11.66054 -0.14415,-11.40911 -0.24831,-11.87335 -1.28903,-5.74535 -1.54904,9.12106 -3.86681,77.35445 -3.87817,114.17007 -0.008,25.06837 -0.34463,30.44836 -1.99233,31.81583 -1.09066,0.90517 -2.89793,1.29468 -4.01615,0.86557 -1.79354,-0.68824 -1.9333,-6.79416 -1.18601,-51.81582 1.03818,-62.546 0.99445,-55.32438 0.47291,-78.10598 -0.24012,-10.48866 -0.96822,-19.39887 -1.618,-19.80046 -0.64978,-0.40159 -1.07019,0.08 -0.93426,1.07032 0.51629,3.76105 -0.10541,9.54162 -0.93678,8.71026 -0.477388,-0.47738 -0.801363,-5.22738 -0.719943,-10.55555 0.09237,-6.04487 -0.286356,-8.93554 -1.007205,-7.68758 -0.635384,1.1 -1.49894,32.3 -1.919015,69.33333 -0.615697,54.27919 -1.159104,68.8408 -2.802891,75.10885 -1.121516,4.27655 -1.684965,8.34856 -1.252112,9.04894 1.081256,1.74952 -0.73079,11.84221 -2.126153,11.84221 -0.620165,0 -1.317426,-1.65 -1.54947,-3.66667 -0.381438,-3.31504 -0.787515,-2.92206 -4.2345,4.09786 -2.096934,4.27048 -4.646934,8.08466 -5.666667,8.47597 -1.019735,0.39132 -1.854062,1.25344 -1.854062,1.91583 0,2.64046 -10.180096,15.5798 -17.535907,22.28888 -4.288585,3.91153 -7.814456,7.81153 -7.835269,8.66666 -0.02081,0.85515 -2.447633,4.2548 -5.392934,7.5548 -5.174995,5.79822 -11.902556,16.44391 -11.902556,18.8346 0,0.64098 0.881505,1.1654 1.958902,1.1654 1.077396,0 3.627396,-3.42373 5.666667,-7.60828 2.039269,-4.18456 5.722764,-9.51956 8.185541,-11.85556 6.325669,-6.00004 5.72,-5.39377 17.889818,-17.90729 6.082347,-6.25413 13.097615,-14.51755 15.589484,-18.36316 4.803608,-7.41323 6.739947,-8.0818 8.206569,-2.83352 0.497129,1.77896 0.963679,2.48448 1.036777,1.56781 0.168835,-2.1172 3.408908,-2.14141 6.757027,-0.0504 3.508569,2.19114 4.873429,0.42768 2.745849,-3.54774 -1.03094,-1.92634 -3.169,-3.42612 -5.224233,-3.66466 -1.913488,-0.22216 -3.217572,-1.00386 -2.897963,-1.7372 1.299883,-2.98254 23.359446,-6.28166 25.784866,-3.85625 0.95112,0.95112 -1.15648,4.99152 -5.36597,10.28695 -4.06312,5.11128 -3.78239,7.47949 1,8.43597 3.56855,0.71371 5.87967,4.46667 2.75063,4.46667 -0.68714,0 -3.41919,2.25 -6.07121,5 -4.57339,4.74234 -4.77942,5.34181 -3.99825,11.63333 0.45298,3.64833 1.45849,7.39833 2.23447,8.33333 1.04174,1.25523 0.86223,1.7 -0.68613,1.7 -1.15335,0 -2.62975,-0.95197 -3.28089,-2.11549 -1.00907,-1.80309 -1.67112,-1.53644 -4.48342,1.80579 -1.81474,2.15669 -4.940229,4.99629 -6.945533,6.31022 -2.901196,1.90094 -3.491372,3.0982 -2.889033,5.86088 0.416336,1.90956 0.995682,7.30619 1.287437,11.99251 0.319489,5.13182 1.236695,8.96826 2.306195,9.64625 0.976652,0.61912 5.075734,1.1942 9.109064,1.27795 4.03333,0.0837 10.63333,0.60846 14.66667,1.16602 9.57366,1.32344 29.97673,1.61551 37.8139,0.54131 z M 97.669575,397.99999 c 0.0148,-2.93333 0.287847,-3.97633 0.606771,-2.31779 0.318924,1.65855 0.306816,4.05855 -0.02691,5.33333 -0.333724,1.27479 -0.594663,-0.0822 -0.579864,-3.01554 z M 162.32194,374.3042 c -1.09161,-1.66601 -2.41336,-5.56601 -2.93721,-8.66666 -0.70528,-4.17454 -1.57211,-5.63755 -3.34017,-5.63755 -1.33803,0 -3.07292,-1.61193 -3.94638,-3.66667 -2.40428,-5.65594 -7.64773,-8.96661 -11.45434,-7.2322 -1.70792,0.77818 -3.30147,2.79876 -3.54123,4.4902 C 136.3629,358.8095 134,356.32824 134,350.33332 v -5.66666 l 7.33333,-0.18391 c 11.18171,-0.2804 13.46547,1.52264 18.25492,14.41237 6.12852,16.49358 7.12515,22.1113 2.73369,15.40908 z m -9.09502,-40.30421 c -0.38636,-4.4 -0.97047,-8.825 -1.29803,-9.83333 -0.32756,-1.00834 0.0805,-2.0837 0.90683,-2.38968 2.19041,-0.81114 2.60154,1.8227 1.80389,11.55634 l -0.71021,8.66667 z m -5.65134,5.13115 c -1.33836,-1.33836 -1.1068,-10.85147 0.28508,-11.7117 0.6567,-0.40586 1.42516,1.68614 1.70771,4.64888 0.52557,5.51114 -0.37008,8.68551 -1.99279,7.06282 z m -4.8152,-4.05246 C 142.65446,331.77706 140,329.37387 140,332.5796 c 0,1.39143 -0.98375,1.92278 -3,1.62038 -2.31348,-0.34698 -3.1001,-1.47304 -3.43739,-4.92072 -0.24056,-2.45894 -1.44056,-5.23362 -2.66666,-6.16596 -2.01708,-1.5338 -1.94946,-1.6992 0.7103,-1.73758 2.34115,-0.0337 3.12624,0.95256 3.85647,4.84503 0.84577,4.50835 1.05728,4.69541 2.72708,2.41183 0.99561,-1.36159 1.8102,-1.82759 1.8102,-1.03558 0,0.79202 0.97956,1.3567 2.1768,1.25484 2.50689,-0.21326 3.26552,2.62119 1.73474,6.48148 -1.0142,2.55758 -1.06128,2.54716 -1.15116,-0.25464 z m 16.59619,-1.24593 c -1.31559,-1.31559 -2.00796,-3.80439 -1.76191,-6.33333 0.37983,-3.904 0.74087,-4.1661 5.73867,-4.1661 5.2248,0 5.33897,0.10174 5.61047,5 0.15242,2.75 -0.29758,5 -1,5 -0.70243,0 -1.27714,-1.16458 -1.27714,-2.58797 0,-1.42339 -0.6,-2.9588 -1.33333,-3.41203 -0.79349,-0.4904 -1.33333,1.09727 -1.33333,3.92131 0,5.18757 -1.30784,5.91371 -4.64343,2.57812 z m -32.68991,-3.91145 c 0,-1.93515 0.57713,-3.05534 1.33334,-2.58798 0.73333,0.45323 1.33333,1.98864 1.33333,3.41203 0,1.42339 -0.6,2.58797 -1.33333,2.58797 -0.73334,0 -1.33334,-1.53541 -1.33334,-3.41202 z m 45.59327,-1.25464 c 0.0272,-2.2 0.326,-2.93859 0.66405,-1.6413 0.33806,1.2973 0.31583,3.0973 -0.0495,4 -0.36524,0.90271 -0.64183,-0.1587 -0.61466,-2.3587 z m 4.44075,0.7217 c -0.55091,-0.8914 -0.34394,-2.27845 0.45994,-3.08233 2.04819,-2.04819 3.34578,-0.30748 1.81278,2.43184 -0.93287,1.66693 -1.53756,1.84001 -2.27272,0.65049 z m 10.90414,-2.85986 c 1.0546,-1.0546 2.16899,-1.0661 3.93334,-0.0405 2.15817,1.25444 1.97665,1.43595 -1.4715,1.4715 -2.86844,0.0296 -3.53494,-0.35784 -2.46184,-1.43095 z m -4.93816,79.47149 c 0,-1.1 -0.6,-2 -1.33333,-2 -0.73333,0 -1.33333,0.9 -1.33333,2 0,1.1 0.6,2 1.33333,2 0.73333,0 1.33333,-0.9 1.33333,-2 z m 10.81428,-10.04663 c -1.30297,-3.2643 -1.31237,-3.25944 -1.37822,0.7133 -0.0365,2.19999 0.37549,5.49999 0.91548,7.33333 0.9643,3.27394 0.98886,3.26124 1.37822,-0.7133 0.21804,-2.22564 -0.19393,-5.52563 -0.91548,-7.33333 z m -105.205747,-2.2867 c 0.477905,-9.27132 1.491149,-13.77883 4.935051,-21.95406 2.38352,-5.65805 5.486291,-11.75269 6.895046,-13.54362 4.64951,-5.9109 2.67583,-12.83566 -3.65838,-12.83566 -1.738148,0 -3.679884,-1.23346 -4.575167,-2.90632 -1.538402,-2.87452 -1.579014,-2.86169 -3.713578,1.17338 -1.186992,2.24382 -6.058167,8.30836 -10.824833,13.47672 -9.472463,10.27074 -17.976704,25.46524 -19.842549,35.45262 -1.033532,5.53223 -0.853322,6.43221 1.637269,8.17669 3.512264,2.4601 7.039264,2.51804 7.955368,0.13067 0.386132,-1.00624 1.129857,-4.75624 1.652722,-8.33333 1.036284,-7.08951 6.494622,-19.17043 8.661498,-19.17043 2.595951,0 2.796094,3.8848 0.836265,16.23208 -2.225543,14.02132 -1.660667,15.76792 5.099593,15.76792 h 4.340315 z m 3.31546,5.3587 c -0.338059,-1.29729 -0.636884,-0.5587 -0.664056,1.64129 -0.02717,2.2 0.24942,3.26142 0.61465,2.35871 0.365231,-0.90271 0.387463,-2.70271 0.0494,-4 z m 85.889037,-17.28453 c -0.86456,-2.05745 -2.7666,-5.24084 -4.22673,-7.07417 l -2.6548,-3.33334 0.87837,4 c 1.75721,8.00207 4.48925,13.23422 6.07988,11.64359 1.10475,-1.10475 1.08471,-2.47216 -0.0767,-5.23608 z m 3.97392,-1.80941 c -1.53281,-2.94079 -2.78695,-5.9535 -2.78695,-6.69491 0,-0.74141 -1.2,-2.63607 -2.66666,-4.21035 -1.46667,-1.57429 -2.66707,-2.2992 -2.66758,-1.61092 -0.001,2.28743 9.97063,20.67558 10.44348,19.25702 0.25556,-0.76668 -0.78946,-3.80006 -2.32229,-6.74084 z m 19.63053,-0.93143 c -0.2446,-1.28333 -1.85805,-2.53417 -3.58546,-2.77963 -1.72742,-0.24546 -3.44127,-1.59546 -3.80856,-3 -1.02876,-3.934 -3.02346,-3.02353 -3.02346,1.38004 0,4.27935 2.72302,6.62639 7.76443,6.69238 2.24152,0.0293 2.97484,-0.60442 2.65305,-2.29279 z M 184,375.31312 c 0,-1.01665 -8.17104,-15.31313 -8.7521,-15.31313 -0.69805,0 0.62814,3.70537 3.69836,10.33333 1.44372,3.11667 3.17143,5.66667 3.83935,5.66667 0.66791,0 1.21439,-0.30909 1.21439,-0.68687 z m 39.51358,-10.82964 c -4.69628,-4.03956 -7.51359,-4.04728 -7.51359,-0.0206 0,3.93796 4.8312,6.48133 8.58794,4.52111 2.47145,-1.28959 2.42309,-1.49215 -1.07435,-4.50054 z m -21.24458,-8.1794 c -3.44795,-3.44794 -6.269,-5.67364 -6.269,-4.94597 0,1.96096 10.74217,13.01081 11.70881,12.04417 0.45607,-0.45605 -1.99185,-3.65024 -5.43981,-7.0982 z m -7.6401,3.36258 c -0.0368,-1.625 -11.96224,-15.28634 -11.96224,-13.70351 0,2.06087 10.02975,15.37017 11.58279,15.37017 0.22947,0 0.40023,-0.75 0.37945,-1.66666 z m -25.13281,-3.23334 c -1.57179,-2.70294 -1.95135,-1.8378 -0.66471,1.51512 0.45726,1.1916 1.11226,1.88568 1.45555,1.54239 0.34329,-0.34329 -0.012,-1.71917 -0.79084,-3.05751 z m 5.17057,0.9 c 0,-0.73333 -0.6,-1.33333 -1.33333,-1.33333 -0.73333,0 -1.33333,0.6 -1.33333,1.33333 0,0.73334 0.6,1.33334 1.33333,1.33334 0.73333,0 1.33333,-0.6 1.33333,-1.33334 z M 164,351.99999 c 0,-0.73333 -0.6,-1.33333 -1.33334,-1.33333 -0.73333,0 -1.33333,0.6 -1.33333,1.33333 0,0.73333 0.6,1.33333 1.33333,1.33333 0.73334,0 1.33334,-0.6 1.33334,-1.33333 z m 24.97306,-124.97026 c -0.28864,-2.76635 -0.52962,-0.82974 -0.53554,4.3036 -0.005,5.13333 0.23024,7.39672 0.52478,5.02973 0.29455,-2.36697 0.29939,-6.56697 0.0107,-9.33333 z m -0.69518,-20.02974 c -0.65272,-10.13197 -1.28939,-11.00618 -1.45655,-2 -0.0851,4.58334 0.29965,8.33334 0.85495,8.33334 0.55528,0 0.826,-2.85 0.6016,-6.33334 z m -80.27788,-15 c 0,-0.73333 -0.63541,-1.33333 -1.41203,-1.33333 -0.77661,0 -1.0412,0.6 -0.58797,1.33333 0.45322,0.73334 1.08863,1.33334 1.41202,1.33334 0.32339,0 0.58798,-0.6 0.58798,-1.33334 z m 71.5497,-24.33333 c -0.36988,-0.91666 -0.67252,-0.16666 -0.67252,1.66667 0,1.83333 0.30264,2.58333 0.67252,1.66666 0.36988,-0.91666 0.36988,-2.41666 0,-3.33333 z M 104,127.25464 c 0,-19.94754 -0.48237,-31.254643 -1.33334,-31.254643 -0.85194,0 -1.33333,11.581783 -1.33333,32.078693 0,21.04627 0.45856,31.79528 1.33333,31.25464 C 103.4942,158.82189 104,146.65282 104,127.25464 Z m 11.59065,25.10406 c -0.33806,-1.29729 -0.63688,-0.5587 -0.66405,1.6413 -0.0272,2.2 0.24942,3.26141 0.61465,2.3587 0.36523,-0.9027 0.38746,-2.7027 0.0494,-4 z M 98.861792,122.47517 c -1.258873,-4.37411 -1.290674,-4.32211 -1.40821,2.3026 -0.06613,3.72778 0.329749,7.23534 0.879749,7.79459 1.587385,1.61406 1.943069,-5.18196 0.528461,-10.09719 z m 64.930128,-1.47487 c -0.48111,-6.7835 -0.93111,-14.08364 -1,-16.22253 -0.0689,-2.13888 -0.48684,-3.52729 -0.92879,-3.08535 -1.04165,1.04165 0.85708,31.64081 1.9634,31.64122 0.46207,1.6e-4 0.44649,-5.54984 -0.0347,-12.33334 z M 128,113.92131 c 0,-9.20995 -0.45,-16.466745 -1,-16.126218 -1.37808,0.853224 -1.0534,32.871568 0.33333,32.871568 0.36667,0 0.66667,-7.53541 0.66667,-16.74535 z m 26.25732,11.77073 c -0.33806,-1.29729 -0.63688,-0.55871 -0.66406,1.64129 -0.0272,2.2 0.24942,3.26142 0.61466,2.35871 0.36522,-0.90271 0.38745,-2.70271 0.0493,-4 z M 160,123.33333 C 160,119.3 159.4,116 158.66666,116 c -0.73333,0 -1.33333,3.3 -1.33333,7.33333 0,4.03333 0.6,7.33333 1.33333,7.33333 0.73334,0 1.33334,-3.3 1.33334,-7.33333 z m -36.49164,-11.66667 c -0.32358,-8.25 -0.64534,-15.149996 -0.71502,-15.333329 -0.0697,-0.183334 -1.02668,-0.333334 -2.12668,-0.333334 -2.36433,0 -2.58666,1.546672 -0.51948,3.613853 0.87593,0.87593 1.44101,6.24275 1.38375,13.14222 -0.09,10.84942 0.33456,13.91059 1.92944,13.91059 0.34998,0 0.37158,-6.75 0.048,-15 z M 177.20042,111 c -0.0731,-7.15 -0.52309,-11.641283 -1,-9.98063 C 175.29697,104.16534 175.7903,124 176.772,124 c 0.30873,0 0.50152,-5.85 0.42842,-13 z m -21.22084,3.33333 c 0.0112,-0.55 -0.57958,-1 -1.31292,-1 -0.73333,0 -1.32414,1.35 -1.31292,3 0.0165,2.42592 0.26776,2.61728 1.31292,1 0.71088,-1.1 1.3017,-2.45 1.31292,-3 z m -0.73538,-9.38321 c 0.34322,-2.6808 0.0537,-5.226672 -0.64342,-5.657504 -0.73274,-0.452868 -1.26745,1.874834 -1.26745,5.517584 0,7.22746 0.99411,7.30026 1.91087,0.13992 z M 160,105.25464 c 0,-3.26849 -0.5281,-5.08564 -1.33334,-4.58798 -2.25782,1.39542 -1.49297,10 0.8889,10 0.24444,0 0.44444,-2.43541 0.44444,-5.41202 z m 7,-14.137684 c -0.91667,-0.369883 -2.41667,-0.369883 -3.33334,0 -0.91666,0.369884 -0.16666,0.672515 1.66667,0.672515 1.83333,0 2.58333,-0.302631 1.66667,-0.672515 z m -26.6413,-1.324875 c -0.9027,-0.36523 -2.7027,-0.387462 -4,-0.0494 -1.29729,0.338059 -0.5587,0.636884 1.6413,0.664056 2.2,0.02717 3.26141,-0.24942 2.3587,-0.61465 z m 13.19943,-0.466497 c 0.24587,-0.737593 7.75759,-1.895995 16.69271,-2.574225 C 188.50397,85.365835 192,84.148038 192,79.175308 c 0,-4.046593 -2.71294,-3.709562 -4.64951,0.577614 -1.38555,3.067326 -3.96132,3.828148 -5.35049,1.580409 -0.45323,-0.733333 -1.98864,-1.333333 -3.41203,-1.333333 -1.42339,0 -2.58797,-0.9 -2.58797,-2 0,-1.441643 -1.47655,-2 -5.2889,-2 -4.21532,0 -6.19021,-0.901327 -9.72924,-4.440353 -5.57509,-5.575092 -7.87641,-6.23987 -24.3152,-7.023863 -7.33333,-0.349737 -18.73333,-1.305541 -25.33333,-2.124005 -6.6,-0.818465 -13.742855,-1.545943 -15.873014,-1.616615 l -3.873013,-0.128497 0.155424,9.980652 c 0.165551,10.630917 1.728164,13.399621 7.512111,13.310277 5.019312,-0.07753 7.411822,-3.145583 7.411822,-9.504587 0,-6.728089 1.72111,-9.119676 6.56297,-9.119676 h 3.36296 l -2.78991,2.789908 c -2.4506,2.450599 -2.62495,3.43979 -1.43356,8.133469 1.35953,5.35614 0.85362,6.477391 -3.70246,8.205742 -3.95974,1.502131 2.38095,2.331999 19.76133,2.586358 13.44194,0.19672 19.95538,0.798849 21.10675,1.951189 2.01299,2.014699 3.42234,2.128748 4.02339,0.325587 z m 22.80057,0.466497 c -0.9027,-0.36523 -2.7027,-0.387462 -4,-0.0494 -1.29729,0.338059 -0.5587,0.636884 1.6413,0.664056 2.2,0.02717 3.26141,-0.24942 2.3587,-0.61465 z m 4.65719,-29.950743 c 9.80068,-1.706716 9.49672,-0.141388 3.46447,-17.841339 -4.30658,-12.636393 -3.86908,-11.880528 -6.05832,-10.466848 -0.96546,0.623433 -4.45538,1.850508 -7.75538,2.726833 l -6,1.59332 6.99415,-0.71763 c 5.63533,-0.578212 7.15377,-0.301627 7.81583,1.42366 0.45193,1.17771 0.17968,2.914872 -0.605,3.860359 -0.7847,0.945487 -1.08184,3.037847 -0.66034,4.649687 0.9117,3.486323 0.81542,3.502092 -5.43556,0.890267 -2.68578,-1.122194 -4.52365,-2.622194 -4.08414,-3.333334 0.44009,-0.712078 -0.8043,-1.292981 -2.76978,-1.292981 -3.6861,0 -14.7016,-9.44245 -13.00025,-11.14379 0.47091,-0.470915 4.2062,-0.862814 8.30065,-0.870884 10.12479,-0.01996 17.6439,-1.386959 17.07166,-3.103688 -0.2603,-0.780896 -3.43291,-2.255304 -7.05024,-3.276463 -8.79646,-2.483201 -55.69503,-3.012084 -58.05735,-0.654722 -2.31392,2.309046 3.75295,4.382881 12.82182,4.382881 3.94231,0 7.48475,0.512784 7.8721,1.13952 0.38735,0.626736 -0.79273,2.545877 -2.6224,4.264757 -4.93338,4.634672 -6.92403,9.401732 -5.75358,13.778224 0.60336,2.256052 0.40783,4.728668 -0.48729,6.161983 -1.16282,1.861966 -0.99066,3.163699 0.77475,5.858054 l 2.26978,3.464128 h 22.19338 c 12.20636,0 26.04883,-0.671398 30.76104,-1.491994 z M 182,53.333332 c -0.45323,-0.733334 -0.18864,-1.333334 0.58797,-1.333334 0.77661,0 1.41203,0.6 1.41203,1.333334 0,0.733333 -0.26459,1.333333 -0.58798,1.333333 -0.32338,0 -0.9588,-0.6 -1.41202,-1.333333 z m -65.33334,0 c -0.45322,-0.733334 -1.68863,-1.333334 -2.74535,-1.333334 -1.05672,0 -1.92131,0.6 -1.92131,1.333334 0,0.733333 1.23541,1.333333 2.74535,1.333333 1.50995,0 2.37454,-0.6 1.92131,-1.333333 z m 6.66667,-6.666667 c 0.4904,-0.79349 -1.09726,-1.333333 -3.92131,-1.333333 -2.60995,0 -4.74536,0.6 -4.74536,1.333333 0,0.733334 1.76459,1.333334 3.92131,1.333334 2.15673,0 4.29214,-0.6 4.74536,-1.333334 z m -18.16912,-13.21621 c 0.83296,-2.502248 1.25601,-4.808007 0.94011,-5.123906 -0.69556,-0.695566 -4.05791,5.728689 -5.41184,10.340117 -0.8659,2.949214 -0.751898,3.102862 0.98929,1.333333 1.08238,-1.1 2.64948,-4.047295 3.48244,-6.549544 z"
     style="fill:#000000;stroke-width:1.33333325" />
</svg>
