<?xml version="1.0" encoding="UTF-8" standalone="no"?>
<svg
   xmlns:dc="http://purl.org/dc/elements/1.1/"
   xmlns:cc="http://creativecommons.org/ns#"
   xmlns:rdf="http://www.w3.org/1999/02/22-rdf-syntax-ns#"
   xmlns:svg="http://www.w3.org/2000/svg"
   xmlns="http://www.w3.org/2000/svg"
   id="svg8"
   version="1.1"
   viewBox="0 0 171 17"
   height="17mm"
   width="171mm">
  <defs
     id="defs2" />
  <metadata
     id="metadata5">
    <rdf:RDF>
      <cc:Work
         rdf:about="">
        <dc:format>image/svg+xml</dc:format>
        <dc:type
           rdf:resource="http://purl.org/dc/dcmitype/StillImage" />
        <dc:title></dc:title>
      </cc:Work>
    </rdf:RDF>
  </metadata>
  <g
     transform="translate(0,-280)"
     id="layer1">
    <g
       transform="rotate(1.0644522,-14780.937,-974.93712)"
       id="g4713">
      <path
         id="path44"
         style="font-style:normal;font-variant:normal;font-weight:bold;font-stretch:normal;font-size:40px;line-height:125%;font-family:'Century Schoolbook L';-inkscape-font-specification:'Century Schoolbook L Bold';letter-spacing:10px;word-spacing:0px;fill:#000000;fill-opacity:1;stroke:none;stroke-width:0.26458332px;stroke-linecap:butt;stroke-linejoin:miter;stroke-opacity:1"
         d="m 24.585672,10.940594 c -1.141123,0.219911 -2.281257,0.448788 -3.420255,0.687145 l 0.117294,0.559335 c 0.0388,-0.0081 0.07761,-0.01623 0.116416,-0.02434 0.560665,-0.117037 0.792292,-0.120281 0.910511,-0.02599 0.09103,0.0678 0.09949,0.109311 0.232951,0.762479 l 0.764756,3.742871 c 0.186435,0.912451 0.189763,1.192432 0.02085,1.464916 -0.128235,0.210153 -0.385913,0.360503 -0.78358,0.454997 l 0.117497,0.559297 c 0.971254,-0.204439 1.944301,-0.401696 2.919041,-0.592127 L 25.47172,17.968396 c -0.41352,0.07 -0.719733,0.03399 -0.91965,-0.109583 -0.261653,-0.185133 -0.365453,-0.433945 -0.550882,-1.357337 l -0.866671,-4.315813 c 1.239845,2.028518 2.455347,4.06619 3.647959,6.112415 0.178098,-0.03373 0.356251,-0.06725 0.534458,-0.100537 0.341218,-2.370625 0.706864,-4.741477 1.095443,-7.112315 l 0.915426,5.199231 c 0.115578,0.656434 0.122891,0.698075 0.06522,0.794203 -0.07303,0.131376 -0.282276,0.210466 -0.829612,0.309196 -0.03785,0.0068 -0.0757,0.01366 -0.113544,0.02051 l 0.101678,0.562182 c 1.310956,-0.237185 2.624771,-0.462761 3.941201,-0.677587 l -0.09206,-0.563847 c -0.038,0.0062 -0.07599,0.01241 -0.113983,0.01863 -0.549337,0.08992 -0.773123,0.08522 -0.885864,-0.0142 -0.0865,-0.07134 -0.09527,-0.123473 -0.203806,-0.770385 l -0.759756,-4.528278 c -0.108534,-0.646882 -0.117311,-0.699082 -0.05691,-0.795009 0.07623,-0.130469 0.292939,-0.210422 0.856554,-0.302759 0.039,-0.0064 0.07801,-0.01277 0.117016,-0.01914 l -0.09206,-0.5638466 c -1.158648,0.1892747 -2.31657,0.3867096 -3.473615,0.5928396 -0.252164,1.58521 -0.494134,3.170402 -0.725473,4.755505 -0.814988,-1.391285 -1.64054,-2.778642 -2.477115,-4.161877 z" />
      <path
         id="path46"
         style="font-style:normal;font-variant:normal;font-weight:bold;font-stretch:normal;font-size:40px;line-height:125%;font-family:'Century Schoolbook L';-inkscape-font-specification:'Century Schoolbook L Bold';letter-spacing:10px;word-spacing:0px;fill:#000000;fill-opacity:1;stroke:none;stroke-width:0.26458332px;stroke-linecap:butt;stroke-linejoin:miter;stroke-opacity:1"
         d="m 41.432316,8.2907487 c -2.39091,0.3008379 -4.780608,0.6296234 -7.167781,0.9910222 l 0.08544,0.5649419 c 0.05325,-0.00806 0.106503,-0.016105 0.159756,-0.024133 0.55364,-0.083462 0.784072,-0.073993 0.896603,0.026809 0.08685,0.072757 0.093,0.1146661 0.189933,0.7741892 l 0.667798,4.543487 c 0.09694,0.659554 0.103073,0.701398 0.04256,0.795872 -0.07687,0.129218 -0.288759,0.202522 -0.829332,0.28387 -0.05196,0.0078 -0.103916,0.01565 -0.155869,0.02351 l 0.08544,0.564942 c 2.346557,-0.354526 4.700816,-0.677095 7.061416,-0.972542 -0.07632,-0.946934 -0.152247,-1.893914 -0.227789,-2.840941 -0.185982,0.02323 -0.371938,0.04662 -0.557866,0.07019 -0.242456,1.631901 -0.89509,2.406688 -2.155936,2.577076 -0.104269,0.01409 -0.208525,0.02824 -0.312769,0.04244 -0.511042,0.06964 -0.6487,0.06804 -0.791598,-0.04057 -0.153028,-0.106933 -0.200474,-0.217771 -0.248851,-0.563647 l -0.325415,-2.326622 c 0.05968,-0.0083 0.119369,-0.01668 0.179057,-0.02499 0.822623,-0.11452 1.409147,0.341546 1.653745,1.290878 0.188769,-0.02528 0.377572,-0.05037 0.566409,-0.07528 L 39.77776,10.414304 c -0.191138,0.02525 -0.382258,0.05069 -0.57336,0.07632 0.01252,0.980967 -0.435251,1.574069 -1.257537,1.688566 -0.05981,0.0083 -0.119621,0.01668 -0.179428,0.02504 L 37.502119,10.3073 c -0.0601,-0.4296802 -0.05496,-0.5479668 0.0127,-0.6856322 0.09519,-0.1734795 0.340946,-0.2827737 0.778109,-0.3425575 0.09952,-0.013609 0.199039,-0.027167 0.298564,-0.040672 0.789525,-0.1071383 1.477345,0.091251 1.902936,0.5377819 0.264478,0.2863078 0.564995,0.7805588 0.793542,1.3066918 0.183628,-0.02338 0.367274,-0.04659 0.550939,-0.06963 -0.135343,-0.907538 -0.270873,-1.8150474 -0.40659,-2.7225277 z" />
      <path
         id="path48"
         style="font-style:normal;font-variant:normal;font-weight:bold;font-stretch:normal;font-size:40px;line-height:125%;font-family:'Century Schoolbook L';-inkscape-font-specification:'Century Schoolbook L Bold';letter-spacing:10px;word-spacing:0px;fill:#000000;fill-opacity:1;stroke:none;stroke-width:0.26458332px;stroke-linecap:butt;stroke-linejoin:miter;stroke-opacity:1"
         d="m 51.164266,7.1347779 c -0.160431,0.015667 -0.320864,0.031431 -0.4813,0.047293 C 50.51354,7.36196 50.344335,7.5419577 50.175357,7.722065 49.537258,7.3818903 48.94116,7.272308 48.192531,7.3512436 c -1.651577,0.1741426 -2.663848,1.250335 -2.505577,2.6487824 0.145308,1.283899 1.202596,2.088541 2.890168,2.218499 0.222676,0.01905 0.445303,0.03831 0.667882,0.05777 0.687653,0.05608 0.906389,0.08835 1.17239,0.199288 0.311546,0.128254 0.511651,0.427529 0.5484,0.79629 0.07352,0.737731 -0.476713,1.291744 -1.388498,1.386206 -1.183678,0.122632 -2.323219,-0.700569 -3.079519,-2.213737 -0.179361,0.02002 -0.358703,0.04017 -0.538023,0.06047 0.133434,0.989926 0.266684,1.979877 0.39975,2.969853 0.156845,-0.0177 0.313715,-0.0353 0.47061,-0.05279 0.193071,-0.231017 0.38658,-0.461881 0.580516,-0.692594 0.692769,0.414132 1.3852,0.563252 2.223436,0.476419 1.630694,-0.168924 2.668232,-1.308862 2.525855,-2.784948 -0.128925,-1.336626 -0.994486,-2.013656 -2.873474,-2.224349 -0.173854,-0.02108 -0.347752,-0.04204 -0.521694,-0.06287 -0.839252,-0.07285 -0.829566,-0.0704 -1.110196,-0.137717 -0.496055,-0.116936 -0.774286,-0.3950278 -0.821591,-0.8265689 -0.07036,-0.6418209 0.476142,-1.17103 1.321088,-1.2603333 1.111855,-0.1175132 2.077363,0.5626268 2.851763,1.9968516 0.187674,-0.018527 0.375356,-0.03692 0.563045,-0.055182 C 51.434307,8.945279 51.299442,8.040013 51.164266,7.1347858 Z" />
      <path
         id="path50"
         style="font-style:normal;font-variant:normal;font-weight:bold;font-stretch:normal;font-size:40px;line-height:125%;font-family:'Century Schoolbook L';-inkscape-font-specification:'Century Schoolbook L Bold';letter-spacing:10px;word-spacing:0px;fill:#000000;fill-opacity:1;stroke:none;stroke-width:0.26458332px;stroke-linecap:butt;stroke-linejoin:miter;stroke-opacity:1"
         d="m 60.97565,6.2854516 c -0.03002,0.00231 -0.06005,0.00463 -0.09007,0.00695 -0.130168,0.010005 -0.260343,0.020055 -0.390526,0.030151 -0.172482,0.1761479 -0.344821,0.3523853 -0.517012,0.528713 -0.629002,-0.3538723 -1.220279,-0.4767075 -1.968111,-0.4152077 -1.64865,0.1355806 -2.684891,1.1850653 -2.561246,2.5873845 0.113483,1.2870646 1.149968,2.1184766 2.835467,2.2866326 0.22227,0.02409 0.444497,0.04831 0.666682,0.07268 0.686868,0.07128 0.904293,0.107893 1.168328,0.224551 0.308867,0.134768 0.50281,0.438028 0.531801,0.80734 0.05799,0.73875 -0.504696,1.281478 -1.420703,1.356176 -1.189325,0.09699 -2.311556,-0.752494 -3.031185,-2.283729 -0.179896,0.01566 -0.359781,0.03143 -0.539656,0.04729 0.108904,0.992995 0.217671,1.986002 0.326302,2.97902 0.157693,-0.01391 0.315402,-0.02773 0.473128,-0.04148 0.199259,-0.226372 0.398839,-0.452616 0.598727,-0.678733 0.684133,0.430191 1.375136,0.594968 2.217299,0.526258 0.947148,-0.07727 1.699796,-0.482682 2.14622,-1.095824 0.326879,-0.449233 0.489626,-1.010472 0.442062,-1.63531 C 61.81461,10.950581 61.596567,10.46026 61.179283,10.09385 60.71993,9.6904564 60.018646,9.4368937 59.038231,9.304723 58.865081,9.279792 58.691894,9.2549452 58.518667,9.2301845 57.683691,9.1385408 57.690514,9.1404391 57.413272,9.0669287 56.920651,8.9383744 56.649551,8.6536023 56.612536,8.2210795 c -0.05506,-0.6433652 0.502513,-1.1589113 1.346575,-1.2285151 1.110798,-0.0916 2.058465,0.6092303 2.802072,2.0587508 0.11185,-0.00869 0.223698,-0.017352 0.335545,-0.025978 0.07593,-0.00587 0.15186,-0.011713 0.227792,-0.017544 -0.116039,-0.9074718 -0.232329,-1.814919 -0.34887,-2.7223416 z" />
      <path
         id="path52"
         style="font-style:normal;font-variant:normal;font-weight:bold;font-stretch:normal;font-size:40px;line-height:125%;font-family:'Century Schoolbook L';-inkscape-font-specification:'Century Schoolbook L Bold';letter-spacing:10px;word-spacing:0px;fill:#000000;fill-opacity:1;stroke:none;stroke-width:0.26458332px;stroke-linecap:butt;stroke-linejoin:miter;stroke-opacity:1"
         d="m 68.251764,5.6919943 c -0.692129,1.9168473 -1.375588,3.8350256 -2.050177,5.7545057 -0.409749,1.173445 -0.770389,1.611615 -1.388372,1.718878 l 0.04018,0.57007 c 1.014623,-0.07154 2.02952,-0.140031 3.044674,-0.205524 l -0.03679,-0.570292 c -0.762127,0.0068 -1.071017,-0.173474 -1.103367,-0.659472 -0.01194,-0.179411 0.01198,-0.297886 0.129139,-0.613132 0.04754,-0.137494 0.09513,-0.274981 0.142763,-0.412462 0.878462,-0.0579 1.757087,-0.113552 2.635863,-0.166999 0.155097,0.336914 0.309933,0.673895 0.464509,1.010943 0.09596,0.185063 0.147661,0.341026 0.152714,0.425524 0.01138,0.190273 -0.122084,0.261547 -0.596926,0.290504 1.6e-5,-2e-6 -0.178765,0.02153 -0.178748,0.02153 l 0.03498,0.570404 c 1.23327,-0.07563 2.466905,-0.146893 3.700878,-0.213878 l -0.03098,-0.570637 C 72.609,12.653492 72.434665,12.557698 72.18234,12.031082 71.15423,9.8982362 70.11514,7.7683366 69.064796,5.6415067 c 3.39e-4,-2.08e-5 -0.813371,0.050508 -0.813032,0.050488 z m -0.08224,2.2638266 c 0.397662,0.8196215 0.793681,1.6396863 1.188073,2.4601881 -0.699705,0.04291 -1.39932,0.08722 -2.09884,0.132948 0.30183,-0.8646376 0.605425,-1.7290171 0.910767,-2.5931361 z" />
      <path
         id="path54"
         style="font-style:normal;font-variant:normal;font-weight:bold;font-stretch:normal;font-size:40px;line-height:125%;font-family:'Century Schoolbook L';-inkscape-font-specification:'Century Schoolbook L Bold';letter-spacing:10px;word-spacing:0px;fill:#000000;fill-opacity:1;stroke:none;stroke-width:0.26458332px;stroke-linecap:butt;stroke-linejoin:miter;stroke-opacity:1"
         d="m 82.997592,5.0077618 c -0.156987,0.00567 -0.313973,0.011403 -0.470958,0.017201 2.43e-4,-2.191e-4 -0.61165,0.5526719 -0.611407,0.5524528 -0.764121,-0.3943039 -1.296132,-0.5217284 -2.066146,-0.4896882 -1.231212,0.051231 -2.261205,0.5324113 -3.011569,1.4153293 -0.690368,0.7954352 -0.976299,1.6998402 -0.919349,2.8624878 0.111868,2.2838275 1.692005,3.7823625 3.871143,3.6902515 0.643536,-0.0272 1.281121,-0.211842 1.756157,-0.505721 0.258211,-0.169171 0.421346,-0.3127 0.716281,-0.641831 0.185804,0.338945 0.371298,0.677981 0.556483,1.017108 0.186511,-0.0069 0.373027,-0.01367 0.55955,-0.02037 l -0.07828,-2.178772 c -0.02394,-0.666317 -0.02585,-0.719215 0.04541,-0.8064837 0.09158,-0.109002 0.260601,-0.1472584 0.865213,-0.1785741 L 84.19053,9.1699819 c -1.257509,0.043118 -2.514863,0.090327 -3.772032,0.1417333 l 0.02335,0.5710173 c 0.03892,-0.00159 0.07783,-0.00318 0.116747,-0.00476 0.923436,-0.037566 0.967108,-0.00622 0.997177,0.7652535 l 0.0058,0.148054 c 0.03875,0.994231 -0.560425,1.663045 -1.499711,1.702253 -0.64416,0.02689 -1.187093,-0.28825 -1.476886,-0.847436 -0.312729,-0.600354 -0.500067,-1.45034 -0.544905,-2.4439588 -0.05058,-1.1209029 0.120134,-2.0604521 0.487431,-2.7125177 0.287796,-0.5106185 0.841662,-0.8312524 1.472789,-0.8573689 1.263093,-0.052268 2.227727,0.8335556 2.638397,2.428066 0.188103,-0.00694 0.376208,-0.013795 0.564316,-0.020554 -0.06829,-1.0106772 -0.136756,-2.0213452 -0.205386,-3.0320039 z" />
      <path
         id="path56"
         style="font-style:normal;font-variant:normal;font-weight:bold;font-stretch:normal;font-size:40px;line-height:125%;font-family:'Century Schoolbook L';-inkscape-font-specification:'Century Schoolbook L Bold';letter-spacing:10px;word-spacing:0px;fill:#000000;fill-opacity:1;stroke:none;stroke-width:0.26458332px;stroke-linecap:butt;stroke-linejoin:miter;stroke-opacity:1"
         d="m 94.260086,4.824238 c -2.393611,0.041645 -4.787369,0.097024 -7.181067,0.1668437 l 0.01665,0.5712722 c 0.05346,-0.00156 0.106918,-0.00311 0.160378,-0.00466 0.555894,-0.016063 0.781792,0.020378 0.881085,0.1340059 0.07714,0.082585 0.07828,0.1249163 0.09647,0.7914322 l 0.125288,4.591602 c 0.01819,0.66653 0.01933,0.708833 -0.0524,0.795504 -0.09211,0.119102 -0.312863,0.167214 -0.862861,0.183089 -0.05288,0.0015 -0.105753,0.0031 -0.158629,0.0046 l 0.01665,0.571273 c 2.391196,-0.06966 4.783228,-0.124755 7.175881,-0.166027 0.02591,-0.949609 0.05202,-1.899218 0.07832,-2.8488256 -0.187619,0.0032 -0.375236,0.00648 -0.562851,0.00985 -0.417625,1.5957066 -1.15521,2.2964506 -2.434843,2.3245866 -0.105789,0.0023 -0.211577,0.0047 -0.317364,0.0071 -0.518484,0.01167 -0.656206,-0.0059 -0.786328,-0.130004 -0.140576,-0.123698 -0.175153,-0.239288 -0.183567,-0.588464 l -0.05661,-2.3489111 c 0.06025,-0.00145 0.120498,-0.00289 0.180747,-0.00433 0.829804,-0.019749 1.361959,0.4985352 1.499437,1.4694101 0.190923,-0.0041 0.381848,-0.0081 0.572777,-0.01198 l -0.07336,-3.5871692 c -0.192045,0.00393 -0.38409,0.00795 -0.576134,0.012056 -0.09655,0.976119 -0.606935,1.5159944 -1.436566,1.5357413 -0.06031,0.00144 -0.120614,0.00288 -0.180921,0.00433 l -0.04615,-1.9151027 c -0.01045,-0.4338028 0.0081,-0.5507184 0.09056,-0.6797317 0.113742,-0.1614833 0.368658,-0.2417754 0.807031,-0.2516838 0.09979,-0.00226 0.199587,-0.00449 0.29938,-0.00669 0.791425,-0.017501 1.449358,0.2553555 1.821977,0.7457569 0.23047,0.3133368 0.474866,0.8377086 0.644749,1.3852689 0.184681,-0.00336 0.369363,-0.00663 0.554045,-0.00983 C 94.3347,6.6577575 94.29744,5.7409964 94.260086,4.824238 Z" />
      <path
         id="path58"
         style="font-style:normal;font-variant:normal;font-weight:bold;font-stretch:normal;font-size:40px;line-height:125%;font-family:'Century Schoolbook L';-inkscape-font-specification:'Century Schoolbook L Bold';letter-spacing:10px;word-spacing:0px;fill:#000000;fill-opacity:1;stroke:none;stroke-width:0.26458332px;stroke-linecap:butt;stroke-linejoin:miter;stroke-opacity:1"
         d="m 130.39038,5.1926177 -0.0221,0.5710778 c 0.0534,0.00207 0.10689,0.00414 0.16033,0.00622 0.55572,0.021652 0.77867,0.073328 0.87046,0.1828479 0.071,0.098193 0.0697,0.1299361 0.0422,0.8067058 l -0.18617,4.5894068 c -0.027,0.666211 -0.0288,0.708493 -0.1062,0.790102 -0.10001,0.112585 -0.32343,0.145634 -0.8732,0.12423 -0.0529,-0.0021 -0.10571,-0.0041 -0.15856,-0.0062 l -0.0221,0.571078 c 1.42572,0.05511 2.8511,0.115444 4.2761,0.181131 1.0988,0.05065 1.65995,-0.0056 2.21111,-0.211632 0.69067,-0.27258 1.16971,-0.915351 1.20654,-1.623358 0.0385,-0.739757 -0.35397,-1.3645446 -1.12289,-1.752685 -0.35238,-0.1869466 -0.6678,-0.2875187 -1.21661,-0.3878009 0.52523,-0.059779 0.82583,-0.1188901 1.13073,-0.2416483 0.65308,-0.2747736 1.02011,-0.7643614 1.0527,-1.3985444 0.031,-0.6024987 -0.26024,-1.179085 -0.76995,-1.4907456 -0.56974,-0.3667845 -1.07124,-0.4776796 -2.34291,-0.5358918 -1.3764,-0.063007 -2.75292,-0.1210819 -4.12952,-0.1743473 z m 2.88808,3.5511147 0.0983,-2.2414978 c 0.0135,-0.3066119 0.0385,-0.3902768 0.14909,-0.4701487 0.11104,-0.090443 0.27324,-0.1256385 0.47629,-0.1165172 0.10688,0.0048 0.21375,0.00963 0.32061,0.014491 0.94106,0.042796 1.42036,0.5328083 1.37828,1.4099385 -0.0249,0.5179591 -0.2258,0.9215376 -0.57862,1.1697483 -0.29837,0.2191742 -0.66341,0.286613 -1.32289,0.2570829 -0.17369,-0.00778 -0.34739,-0.015477 -0.52109,-0.023097 z m -0.0255,0.5815203 c 0.24436,0.010719 0.4887,0.021594 0.73304,0.032625 0.669,0.030203 0.9747,0.108501 1.26272,0.3126836 0.3496,0.2603369 0.54966,0.7361527 0.52305,1.2858897 -0.0246,0.507331 -0.23768,0.963322 -0.55619,1.202383 -0.27488,0.209479 -0.62783,0.288126 -1.13506,0.265026 -0.10566,-0.0048 -0.21133,-0.0096 -0.317,-0.01435 -0.36984,-0.01664 -0.54667,-0.08785 -0.60361,-0.238703 -0.028,-0.08598 -0.0266,-0.117687 -0.0113,-0.466606 0.0348,-0.792984 0.0695,-1.585967 0.10431,-2.3789504 z" />
      <path
         id="path60"
         style="font-style:normal;font-variant:normal;font-weight:bold;font-stretch:normal;font-size:40px;line-height:125%;font-family:'Century Schoolbook L';-inkscape-font-specification:'Century Schoolbook L Bold';letter-spacing:10px;word-spacing:0px;fill:#000000;fill-opacity:1;stroke:none;stroke-width:0.26458332px;stroke-linecap:butt;stroke-linejoin:miter;stroke-opacity:1"
         d="m 145.66672,5.8285618 c -1.03738,-0.068254 -1.93346,0.1727276 -2.66421,0.7324867 -0.94398,0.7063437 -1.54499,1.868816 -1.61716,3.105236 -0.13077,2.2403965 1.4257,3.9501915 3.70616,4.1000295 1.07479,0.07062 1.92415,-0.135605 2.6706,-0.645284 0.95806,-0.663903 1.54577,-1.703214 1.63639,-2.937934 0.0899,-1.2247591 -0.36337,-2.4671871 -1.19694,-3.2799604 -0.67171,-0.662698 -1.48692,-1.0056262 -2.53484,-1.0745738 z m -0.0254,0.5498304 c 0.57695,0.037973 1.00721,0.3429535 1.2797,0.9025377 0.30882,0.6578728 0.43411,1.620803 0.35503,2.7613071 -0.14865,2.143646 -0.88484,3.258117 -2.08514,3.179108 -0.61164,-0.04026 -1.0376,-0.332433 -1.29869,-0.900415 -0.30708,-0.676603 -0.44016,-1.618449 -0.37111,-2.727263 0.0711,-1.1409094 0.30432,-1.9743825 0.7053,-2.5536498 0.34211,-0.4978799 0.7846,-0.7031089 1.41491,-0.661625 z" />
      <path
         id="path62"
         style="font-style:normal;font-variant:normal;font-weight:bold;font-stretch:normal;font-size:40px;line-height:125%;font-family:'Century Schoolbook L';-inkscape-font-specification:'Century Schoolbook L Bold';letter-spacing:10px;word-spacing:0px;fill:#000000;fill-opacity:1;stroke:none;stroke-width:0.26458332px;stroke-linecap:butt;stroke-linejoin:miter;stroke-opacity:1"
         d="m 160.17463,7.1388996 c -2.35816,-0.2206159 -4.71521,-0.4222418 -7.06985,-0.6095886 -0.0985,0.721292 -0.19682,1.4425914 -0.29502,2.1638979 -0.031,0.2274631 -0.0619,0.4549279 -0.0929,0.6823944 0.0127,0.00101 0.0255,0.00203 0.0382,0.00305 0.1749,0.013928 0.3498,0.027932 0.5247,0.042014 0.20097,-0.7694085 0.38339,-1.1691186 0.66898,-1.5174369 0.38206,-0.478639 0.80752,-0.688076 1.29819,-0.6471047 0.32002,0.026722 0.37775,0.1060928 0.34747,0.4646727 l -0.432,5.1158046 c -0.0561,0.664534 -0.0597,0.70671 -0.14061,0.784862 -0.10473,0.108132 -0.32941,0.131327 -0.88821,0.08498 -0.0773,-0.0064 -0.15462,-0.01281 -0.23194,-0.01919 l -0.0469,0.569649 c 1.41835,0.117111 2.83559,0.239368 4.25144,0.367842 l 0.0516,-0.569371 c -0.0772,-0.007 -0.1544,-0.01399 -0.2316,-0.02095 -0.55807,-0.05036 -0.77529,-0.111707 -0.85996,-0.236255 -0.0663,-0.0909 -0.0626,-0.133058 -0.004,-0.797449 l 0.45092,-5.1146903 c 0.0316,-0.3584895 0.10211,-0.4268459 0.42226,-0.3984135 0.45883,0.040748 0.79418,0.262454 1.09572,0.7258173 0.26268,0.4171554 0.39236,0.8761143 0.47246,1.7445792 0.18761,0.017392 0.37522,0.0349 0.56282,0.052527 0.0364,-0.957196 0.0725,-1.9144098 0.10819,-2.8716428 z" />
      <path
         id="path64"
         style="font-style:normal;font-variant:normal;font-weight:bold;font-stretch:normal;font-size:40px;line-height:125%;font-family:'Century Schoolbook L';-inkscape-font-specification:'Century Schoolbook L Bold';letter-spacing:10px;word-spacing:0px;fill:#000000;fill-opacity:1;stroke:none;stroke-width:0.26458332px;stroke-linecap:butt;stroke-linejoin:miter;stroke-opacity:1"
         d="m 170.57221,8.2492565 c -2.35872,-0.2865876 -4.71819,-0.5472639 -7.07712,-0.7867397 -3e-4,0.00189 -0.44859,2.8365452 -0.44889,2.8384322 0.18753,0.01896 0.37505,0.03804 0.56255,0.05727 0.21781,-0.7650238 0.40933,-1.1608618 0.7032,-1.5026761 0.39347,-0.4700099 0.82494,-0.6695883 1.31605,-0.6169153 0.32031,0.034355 0.37633,0.1151805 0.33762,0.4729676 l -0.55238,5.1048898 c -0.0718,0.66312 -0.0763,0.705197 -0.15889,0.781479 -0.10707,0.105765 -0.33157,0.123665 -0.8879,0.06494 -0.077,-0.0081 -0.15393,-0.01622 -0.2309,-0.0243 l -0.0597,0.568588 c 1.41135,0.148094 2.8209,0.303912 4.22836,0.468523 l 0.0665,-0.567753 c -0.0768,-0.009 -0.15356,-0.01794 -0.23034,-0.02687 -0.55513,-0.06455 -0.77006,-0.131074 -0.85137,-0.257735 -0.0638,-0.0925 -0.0591,-0.134548 0.0162,-0.797237 l 0.57952,-5.1015525 c 0.0406,-0.3575435 0.11301,-0.4241297 0.43326,-0.3873485 0.45892,0.052708 0.78949,0.2833371 1.07943,0.7546028 0.25216,0.4239689 0.36986,0.8864192 0.4266,1.7565132 0.18722,0.02249 0.37442,0.04514 0.56161,0.06795 1e-4,-0.0015 0.18647,-2.865495 0.18657,-2.8670265 z" />
      <path
         id="path66"
         style="font-style:normal;font-variant:normal;font-weight:bold;font-stretch:normal;font-size:40px;line-height:125%;font-family:'Century Schoolbook L';-inkscape-font-specification:'Century Schoolbook L Bold';letter-spacing:10px;word-spacing:0px;fill:#000000;fill-opacity:1;stroke:none;stroke-width:0.26458332px;stroke-linecap:butt;stroke-linejoin:miter;stroke-opacity:1"
         d="m 179.75,14.35665 c -0.32247,0.688951 -0.57117,1.0563 -0.90586,1.358548 -0.50591,0.446854 -1.13879,0.628972 -1.87705,0.520718 -0.0728,-0.01068 -0.14562,-0.02132 -0.21845,-0.03194 -0.51007,-0.07436 -0.64187,-0.113916 -0.74912,-0.257794 -0.11745,-0.145062 -0.13237,-0.264684 -0.0831,-0.610432 l 0.67717,-4.756238 c 0.094,-0.6599918 0.0999,-0.7019323 0.18644,-0.7750834 0.11209,-0.101305 0.34236,-0.1118521 0.90682,-0.029396 0.0781,0.011413 0.15626,0.022861 0.23439,0.034342 l 0.083,-0.5653351 C 176.59506,9.0369187 175.18513,8.840841 173.77473,8.6547981 l -0.0746,0.5666165 c 0.0533,0.00703 0.10664,0.014079 0.15997,0.02114 0.5544,0.073416 0.77297,0.1463142 0.85311,0.2744125 0.0633,0.094 0.0576,0.1359721 -0.032,0.7966429 l -0.61538,4.540898 c -0.091,0.671186 -0.0967,0.713103 -0.18106,0.787138 -0.10967,0.102881 -0.33392,0.114733 -0.87666,0.04304 -0.0522,-0.0069 -0.10435,-0.01377 -0.15654,-0.02063 l -0.0746,0.566617 c 2.32626,0.305943 4.64593,0.639197 6.95769,1.004647 0.18964,-0.930503 0.37974,-1.860917 0.57031,-2.791243 -0.18494,-0.02935 -0.36991,-0.05849 -0.55492,-0.08742 z" />
      <path
         id="path68"
         style="font-style:normal;font-variant:normal;font-weight:bold;font-stretch:normal;font-size:40px;line-height:125%;font-family:'Century Schoolbook L';-inkscape-font-specification:'Century Schoolbook L Bold';letter-spacing:10px;word-spacing:0px;fill:#000000;fill-opacity:1;stroke:none;stroke-width:0.26458332px;stroke-linecap:butt;stroke-linejoin:miter;stroke-opacity:1"
         d="m 191.26111,11.555616 c -2.37528,-0.485461 -4.75517,-0.930115 -7.13832,-1.338869 l -0.0966,0.563086 c 0.0532,0.0091 0.1063,0.01825 0.15945,0.0274 0.55253,0.09515 0.76869,0.17689 0.84389,0.308 0.0597,0.09644 0.0523,0.138141 -0.0635,0.794524 l -0.79745,4.521862 c -0.11577,0.656417 -0.12313,0.698052 -0.21021,0.768671 -0.11346,0.09848 -0.33723,0.101333 -0.87517,0.0087 -0.0517,-0.0089 -0.10342,-0.01779 -0.15514,-0.02666 l -0.0966,0.563085 c 2.33538,0.400534 4.66203,0.836376 6.97858,1.31261 0.23169,-0.921164 0.46395,-1.84221 0.69679,-2.763138 -0.18333,-0.03775 -0.3667,-0.07525 -0.55012,-0.112505 -0.75239,1.468028 -1.61426,1.993235 -2.85903,1.755326 -0.10298,-0.01968 -0.20597,-0.03929 -0.30898,-0.05882 -0.50513,-0.09578 -0.63466,-0.140564 -0.73555,-0.288814 -0.11093,-0.149774 -0.12082,-0.269871 -0.0573,-0.61323 l 0.42729,-2.309622 c 0.0593,0.01096 0.11849,0.02195 0.17773,0.03295 0.81678,0.15179 1.22765,0.770696 1.1575,1.74825 0.18666,0.03599 0.37326,0.07223 0.55981,0.108714 l 0.6882,-3.520457 c -0.18969,-0.03705 -0.37941,-0.07386 -0.56917,-0.110404 -0.30028,0.933834 -0.91377,1.35345 -1.73001,1.201776 -0.0594,-0.01104 -0.11879,-0.02205 -0.17819,-0.03304 l 0.34838,-1.88307 c 0.0789,-0.426536 0.12127,-0.537096 0.22922,-0.646206 0.14548,-0.134322 0.41399,-0.160109 0.84896,-0.07786 0.099,0.01873 0.19805,0.03752 0.29706,0.05638 0.7856,0.149647 1.37703,0.557598 1.63886,1.116913 0.15996,0.356073 0.28708,0.920215 0.33528,1.491972 0.18175,0.03676 0.36347,0.07375 0.54514,0.110988 0.16332,-0.902793 0.32636,-1.805634 0.48912,-2.708522 z" />
      <path
         id="path37"
         style="font-style:normal;font-variant:normal;font-weight:bold;font-stretch:normal;font-size:40px;line-height:125%;font-family:'Averia Serif Libre';-inkscape-font-specification:'Averia Serif Libre Bold';letter-spacing:0px;word-spacing:0px;fill:#000000;fill-opacity:1;stroke:none;stroke-width:0.24086721px;stroke-linecap:butt;stroke-linejoin:miter;stroke-opacity:1"
         d="m 105.44013,4.3992885 c -5e-5,-0.1819063 0.0713,-0.3356126 0.2141,-0.461059 0.14599,-0.1254426 0.30317,-0.1881104 0.47142,-0.187981 0.0508,3.9e-5 0.10158,8.37e-5 0.15237,1.341e-4 0.0476,0.00945 0.0873,0.014202 0.11903,0.014238 0.15237,1.776e-4 0.2872,0.067816 0.40438,0.2028816 0.11718,0.1350656 0.1756,0.2637848 0.17536,0.3860952 l -2.4e-4,0.1223159 c -0.006,0.031348 -0.009,0.054866 -0.009,0.070552 -2.5e-4,0.1317301 -0.075,0.2601528 -0.22415,0.3853566 -0.14915,0.1252053 -0.31395,0.1877062 -0.49453,0.187537 -0.0491,-4.6e-5 -0.0982,-8.67e-5 -0.14732,-1.222e-4 -0.17741,-1.28e-4 -0.33104,-0.055056 -0.46097,-0.1648353 -0.12676,-0.1129125 -0.19022,-0.2414788 -0.19026,-0.3857538 -0.003,-0.01568 -0.006,-0.031359 -0.009,-0.047039 -2.8e-4,-0.040774 -5.6e-4,-0.081547 -8.4e-4,-0.1223209 z m 0.89752,6.1209015 c -0.1493,-1.52e-4 -0.2986,-2.56e-4 -0.4479,-3.1e-4 -0.41816,-1.52e-4 -0.66938,-0.01086 -0.75438,-0.03279 -0.0817,-0.02503 -0.12267,-0.09242 -0.12277,-0.202192 -1.1e-4,-0.112898 0.0784,-0.247863 0.23559,-0.4047674 0.15721,-0.156909 0.25633,-0.313729 0.29724,-0.4705568 0.0409,-0.1599147 0.0614,-0.5724321 0.0614,-1.2372914 -2e-5,-0.6680765 -0.0174,-1.0616158 -0.0521,-1.180829 -0.0347,-0.1191721 -0.14378,-0.2211077 -0.3272,-0.3056839 -0.18023,-0.087712 -0.27046,-0.1911002 -0.27058,-0.3102895 -1.2e-4,-0.1223123 0.0836,-0.211799 0.25125,-0.2683561 0.37956,-0.1256801 0.79893,-0.1883428 1.25777,-0.1877702 0.0237,2.96e-5 0.0475,6.05e-5 0.0712,9.26e-5 0.18355,2.481e-4 0.28942,0.077298 0.31761,0.231021 0.0156,0.087887 0.0226,0.6147158 0.0208,1.5807359 -0.002,0.962771 0.0177,1.5274851 0.0584,1.6937138 0.0294,0.1094725 0.0885,0.2239366 0.17725,0.3434251 0.0435,0.058616 0.0942,0.1184396 0.15207,0.1794776 0.17571,0.1854493 0.26341,0.3017913 0.26328,0.3488143 l -1.6e-4,0.05645 c -1.8e-4,0.06686 -0.13912,0.113462 -0.41676,0.140126 -0.19142,0.01839 -0.44859,0.0273 -0.77184,0.02697 -5e-5,10e-7 -10e-5,2e-6 -1.5e-4,2e-6 z" />
      <path
         id="path39"
         style="font-style:normal;font-variant:normal;font-weight:bold;font-stretch:normal;font-size:40px;line-height:125%;font-family:'Averia Serif Libre';-inkscape-font-specification:'Averia Serif Libre Bold';letter-spacing:0px;word-spacing:0px;fill:#000000;fill-opacity:1;stroke:none;stroke-width:0.24086721px;stroke-linecap:butt;stroke-linejoin:miter;stroke-opacity:1"
         d="m 113.63992,10.219085 c -0.001,0.116048 -0.0983,0.201122 -0.29068,0.255371 -0.18927,0.05116 -0.50842,0.07418 -0.95792,0.06967 -0.44633,-0.0045 -0.71311,-0.0381 -0.80062,-0.101643 -0.0875,-0.0635 -0.13085,-0.137579 -0.13012,-0.222259 7.5e-4,-0.08781 0.0412,-0.219213 0.12139,-0.3941435 0.0833,-0.1749212 0.13499,-0.3155782 0.15484,-0.4220506 0.0198,-0.1064325 0.0325,-0.4670789 0.0381,-1.0817574 0.006,-0.6147551 -0.0443,-1.033844 -0.14975,-1.2575153 -0.10226,-0.2267189 -0.30835,-0.3414596 -0.61815,-0.3439005 -0.30979,-0.00244 -0.5621,0.1290831 -0.7566,0.3943628 -0.13076,0.1779231 -0.19757,0.505203 -0.20066,0.9819452 -0.005,0.7871315 0.0637,1.3648355 0.20589,1.7326819 0.0866,0.2138504 0.12968,0.3521984 0.12924,0.4149044 -8.3e-4,0.119184 -0.0737,0.193933 -0.21847,0.224328 -0.14495,0.02729 -0.45903,0.03926 -0.94324,0.03669 -0.48096,-0.0025 -0.77146,-0.03497 -0.87187,-0.09814 -0.10033,-0.06626 -0.15032,-0.154263 -0.1499,-0.264037 4.1e-4,-0.109763 0.0842,-0.2192412 0.25137,-0.3283209 0.16723,-0.1090821 0.2621,-0.2074243 0.28454,-0.2951492 0.0224,-0.090821 0.0353,-0.4891426 0.0385,-1.1947808 0.003,-0.7088433 -0.0185,-1.1228687 -0.0654,-1.2422998 -0.0469,-0.1225194 -0.14103,-0.2640916 -0.2826,-0.4246153 -0.1416,-0.1605425 -0.21246,-0.2423087 -0.21245,-0.2454647 l 3.8e-4,-0.09879 c 2e-4,-0.053312 0.0399,-0.1017812 0.11917,-0.1453831 0.27579,-0.1557168 0.68604,-0.2324147 1.23032,-0.2292992 0.1519,8.695e-4 0.27805,0.075348 0.37835,0.2233892 0.10347,0.1480638 0.17886,0.2222658 0.22631,0.2225802 0.0475,3.146e-4 0.15846,-0.049132 0.33314,-0.1482598 0.17782,-0.1022035 0.27487,-0.1564044 0.29067,-0.1625321 0.25401,-0.114132 0.4903,-0.1702312 0.70868,-0.168352 0.0506,4.358e-4 0.10127,8.773e-4 0.15191,0.00132 0.55392,0.00489 0.9474,0.2285878 1.17985,0.6701525 0.1488,0.2871401 0.217,0.9729962 0.20509,2.0582535 -0.006,0.5801791 0.009,0.9113033 0.0457,0.9932391 0.0369,0.081969 0.13813,0.177169 0.30361,0.2857264 0.16868,0.105454 0.25238,0.20685 0.25122,0.304063 5e-5,2e-6 1e-4,4e-6 1.4e-4,6e-6 z" />
      <path
         id="path41"
         style="font-style:normal;font-variant:normal;font-weight:bold;font-stretch:normal;font-size:40px;line-height:125%;font-family:'Averia Serif Libre';-inkscape-font-specification:'Averia Serif Libre Bold';letter-spacing:0px;word-spacing:0px;fill:#000000;fill-opacity:1;stroke:none;stroke-width:0.24086721px;stroke-linecap:butt;stroke-linejoin:miter;stroke-opacity:1"
         d="m 119.40799,8.7183653 c 0.003,-0.1411068 -0.0397,-0.2125888 -0.128,-0.2144117 -0.041,-8.462e-4 -0.082,-0.00169 -0.12296,-0.00253 -0.0791,0.014066 -0.13919,0.020693 -0.18018,0.019866 -0.28689,-0.00579 -0.52973,0.072641 -0.72828,0.2351223 -0.19856,0.1624876 -0.29966,0.3488544 -0.30356,0.5589524 l -0.002,0.1081884 c -0.003,0.1599313 0.0448,0.2988432 0.14332,0.4167608 0.0985,0.1179212 0.22004,0.1782625 0.36472,0.1810675 0.0503,9.75e-4 0.10065,0.002 0.15097,0.0029 0.20758,0.0041 0.38655,-0.056623 0.53705,-0.1821649 0.15049,-0.1255413 0.22708,-0.2494112 0.22963,-0.3717125 0.0139,-0.062456 0.021,-0.1030858 0.0214,-0.121901 0.004,-0.025023 0.007,-0.050046 0.0106,-0.075069 l 0.004,-0.2022563 c 0.002,-0.025051 0.004,-0.050102 0.007,-0.075152 l 0.004,-0.2069594 c -0.005,-0.031487 -0.008,-0.055069 -0.008,-0.070747 -9e-5,-7e-7 -1.8e-4,-1.3e-6 -2.8e-4,-1.9e-6 z m 1.88363,1.5339077 -0.002,0.07055 c -0.003,0.106624 -0.12283,0.204093 -0.36068,0.292658 -0.23779,0.08543 -0.51838,0.124498 -0.84196,0.117378 -0.19791,-0.0044 -0.36718,-0.0974 -0.50798,-0.279196 -0.0764,-0.102008 -0.13671,-0.153465 -0.18071,-0.154385 -0.044,-0.0041 -0.12019,0.03043 -0.22858,0.103496 -0.36335,0.237234 -0.75207,0.351903 -1.16675,0.344148 -0.003,-6.2e-5 -0.006,0.0014 -0.009,0.0045 -0.4084,-0.0076 -0.73322,-0.118403 -0.9748,-0.332725 -0.24155,-0.214294 -0.36097,-0.511127 -0.35783,-0.890633 0.0135,-0.814961 0.65199,-1.3185346 1.91857,-1.5040568 0.30389,-0.041135 0.48593,-0.073435 0.54646,-0.097324 0.18454,-0.071519 0.2796,-0.2373625 0.28502,-0.4976317 0.005,-0.2602739 -0.0507,-0.448094 -0.16852,-0.5634584 -0.11457,-0.1184249 -0.25094,-0.179231 -0.40904,-0.182375 -0.24979,-0.00497 -0.47848,0.1239564 -0.68573,0.3866999 -0.20718,0.2596091 -0.4448,0.386983 -0.71322,0.3822281 -0.15789,-0.0028 -0.27715,-0.047201 -0.35782,-0.1332825 -0.0775,-0.089162 -0.11544,-0.1792029 -0.1139,-0.2701477 0.005,-0.2759528 0.15379,-0.4930591 0.44769,-0.6510032 0.48871,-0.2611497 1.00413,-0.386396 1.54537,-0.3755393 0.0823,0.00165 0.16458,0.00332 0.24688,0.005 0.27219,0.00557 0.53054,0.06906 0.77482,0.1904311 0.24754,0.1183087 0.43663,0.296658 0.56726,0.534902 0.13068,0.2383274 0.1865,0.7649502 0.16781,1.580284 -0.0187,0.8152066 -0.004,1.286227 0.0432,1.4127584 0.0507,0.1235237 0.15239,0.2168475 0.30508,0.2800491 0.15592,0.06014 0.23276,0.135727 0.23059,0.226651 -1.5e-4,-3e-6 -3e-4,-7e-6 -4.5e-4,-1e-5 z" />
      <g
         aria-label="-"
         transform="matrix(1.2172179,-0.03474171,0.00754864,0.26447563,-301.15705,25.178522)"
         style="font-style:normal;font-variant:normal;font-weight:normal;font-stretch:normal;font-size:40px;line-height:125%;font-family:'Besley*';-inkscape-font-specification:'Besley*';letter-spacing:0px;word-spacing:0px;fill:#000000;fill-opacity:1;stroke:none;stroke-width:1px;stroke-linecap:butt;stroke-linejoin:miter;stroke-opacity:1"
         id="flowRoot4684">
        <path
           d="m 334.56904,-1.4203452 c 0.28155,7.295e-4 0.56312,0.00244 0.8447,0.00513 3.64531,0.036334 7.29066,0.2355655 10.93516,0.61400442 0.23946,0.0248654 0.42589,0.0583174 0.55874,0.099439 0.13294,0.041149 0.23906,0.11962821 0.31833,0.23518538 0.10589,0.11854019 0.15818,0.2979059 0.15689,0.53782509 -10e-4,0.18661703 -0.002,0.37323401 -0.003,0.55985094 -0.002,0.39994697 -0.0966,0.64250687 -0.2833,0.72853957 -0.16022,0.062413 -0.45245,0.070071 -0.87816,0.026326 -3.60576,-0.3705116 -7.21249,-0.56566939 -10.81933,-0.60131203 -0.1837,-0.001726 -0.3674,-0.003037 -0.55109,-0.003931 -0.50561,-0.002461 -0.81098,-0.0543665 -0.91762,-0.16098988 -0.0798,-0.10644334 -0.11975,-0.45295208 -0.11983,-1.03963085 -6e-5,-0.42666096 0.0531,-0.69357224 0.15959,-0.80049804 0.10641,-0.1335348 0.30614,-0.2006941 0.59893,-0.1999354 z"
           id="path4692" />
      </g>
    </g>
  </g>
</svg>
