<?xml version="1.0" encoding="UTF-8" standalone="no"?>
<svg
   xmlns:dc="http://purl.org/dc/elements/1.1/"
   xmlns:cc="http://creativecommons.org/ns#"
   xmlns:rdf="http://www.w3.org/1999/02/22-rdf-syntax-ns#"
   xmlns:svg="http://www.w3.org/2000/svg"
   xmlns="http://www.w3.org/2000/svg"
   id="svg8"
   version="1.1"
   viewBox="0 0 38 31"
   height="31mm"
   width="38mm">
  <defs
     id="defs2" />
  <metadata
     id="metadata5">
    <rdf:RDF>
      <cc:Work
         rdf:about="">
        <dc:format>image/svg+xml</dc:format>
        <dc:type
           rdf:resource="http://purl.org/dc/dcmitype/StillImage" />
        <dc:title></dc:title>
      </cc:Work>
    </rdf:RDF>
  </metadata>
  <g
     transform="translate(0,-266)"
     id="layer1">
    <g
       transform="translate(-84.761562,54.031286)"
       id="g5099">
      <path
         id="path895"
         style="font-style:normal;font-variant:normal;font-weight:normal;font-stretch:normal;font-size:40px;line-height:125%;font-family:'ODE logotype';-inkscape-font-specification:'ODE logotype';letter-spacing:0px;word-spacing:0px;fill:#000000;fill-opacity:1;stroke:none;stroke-width:0.99203211px;stroke-linecap:butt;stroke-linejoin:miter;stroke-opacity:1"
         d="m 104.0207,213.98579 v -0.15872 l -3.25386,1.94438 1.98406,-0.99203 z m -0.35713,13.69004 v 0.4365 l 4.04749,-2.42056 -1.98406,0.99203 z m -0.91267,-12.89641 -1.98406,0.99203 v 4.96016 h 1.98406 z m 10.16261,5.15856 -1.98407,1.19044 2.02375,1.03172 1.98406,-1.19044 z m -9.17058,-5.55538 h -0.1984 v 8.33307 h 0.1984 z m 9.28962,1.86502 h -0.1984 v 6.86487 h 0.1984 z m -18.579231,0.31745 h -0.198407 v 6.54742 h 0.198407 z m 18.618911,10.03937 -0.11904,0.31745 3.49195,-2.06343 -0.11904,-0.1984 z m -7.34523,0.15872 1.98406,-1.07139 v -4.96016 H 105.727 Z M 94.373956,226.4854 v 0.43649 l 4.04749,-2.42056 -1.984064,0.99203 z m 1.150757,-11.0314 v -0.11905 l -4.047492,2.42056 1.984064,-0.99203 z m -2.063428,1.30948 -1.984064,0.99203 v 3.37291 h 1.984064 z m 2.063428,-1.42853 -1.54757,1.11108 c 0.476176,0.71426 1.666613,1.30948 2.460239,1.50789 l 1.984064,-1.19044 c -0.793625,-0.19841 -2.103108,-0.83331 -2.896733,-1.42853 z m 17.428477,11.58694 1.54757,-1.11108 c -0.47618,-0.71426 -1.66661,-1.30948 -2.46024,-1.50789 l -1.98406,1.19044 c 0.79362,0.19841 2.1031,0.83331 2.89673,1.42853 z m -9.28962,1.19044 1.54757,-1.11108 c -0.47617,-0.71426 -1.66661,-1.30948 -2.46024,-1.50789 l -1.98406,1.19044 c 0.79362,0.19841 2.10311,0.83331 2.89673,1.42853 z m 6.39289,-2.61897 1.98406,-1.19044 v -3.1745 h -1.98406 z m -9.28962,1.19044 1.98406,-1.19044 v -4.76175 h -1.98406 z m -6.392884,0.23809 1.547569,-1.11108 c -0.476175,-0.71426 -1.666613,-1.30948 -2.46024,-1.50789 l -1.984064,1.19044 c 0.793625,0.19841 2.103108,0.83331 2.896735,1.42853 z m -2.896735,-1.42853 1.984064,-1.19044 v -3.1745 h -1.984064 z m 4.960161,0 1.984064,-0.99203 v -3.37291 h -1.984064 z m 18.380828,-10.43617 -1.98406,1.19043 c 0.79362,0.59522 1.42852,0.91267 2.22215,1.11108 l 1.98406,-1.19044 c -0.79362,-0.19841 -1.42852,-0.51586 -2.22215,-1.11107 z m -2.77769,0.39681 -1.98406,1.19044 v 4.48398 h 1.98406 z m -9.28962,-3.13482 -1.98406,1.19044 c 1.19044,1.19043 3.37291,2.06342 4.96016,2.46023 l 1.98406,-1.19043 c -1.58725,-0.39682 -3.76972,-1.2698 -4.96016,-2.46024 z m 4.96016,2.46024 -1.98406,1.19043 v 4.76176 h 1.98406 z m -9.289614,1.98406 -1.984064,1.19044 v 3.1745 h 1.984064 z" />
      <g
         aria-label="CREATED WITH LOVE BY
OWEN D. EARL
&amp; COMPANY"
         transform="matrix(0.3046539,0,0,0.3046539,3.9118399,91.432534)"
         style="font-style:normal;font-variant:normal;font-weight:bold;font-stretch:normal;font-size:8.758811px;line-height:125%;font-family:'Jost*';-inkscape-font-specification:'Jost* Bold';text-align:center;letter-spacing:1.642277px;word-spacing:1.642277px;text-anchor:middle;fill:#000000;fill-opacity:1;stroke:none;stroke-width:1px;stroke-linecap:butt;stroke-linejoin:miter;stroke-opacity:1"
         id="flowRoot1224">
        <path
           d="m 267.17115,470.54712 q 0,-0.46714 0.20438,-0.80289 0.21167,-0.33575 0.56202,-0.51093 0.35035,-0.18248 0.7591,-0.18248 0.54012,0 0.90507,0.20438 0.37225,0.19707 0.62042,0.47443 v -1.34302 q -0.30656,-0.23356 -0.67151,-0.37224 -0.36495,-0.13869 -0.92697,-0.13869 -0.81749,0 -1.45251,0.33576 -0.63501,0.33575 -0.99266,0.94157 -0.35765,0.59852 -0.35765,1.39411 0,0.79559 0.35765,1.40141 0.35765,0.59852 0.99266,0.93427 0.63502,0.33576 1.45251,0.33576 0.56202,0 0.92697,-0.13868 0.36495,-0.13868 0.67151,-0.37225 v -1.34302 q -0.24817,0.27006 -0.62042,0.47444 -0.36495,0.20437 -0.90507,0.20437 -0.40875,0 -0.7591,-0.17518 -0.35035,-0.18247 -0.56202,-0.51823 -0.20438,-0.33575 -0.20438,-0.80289 z"
           style="font-style:normal;font-variant:normal;font-weight:bold;font-stretch:normal;font-size:7.29900885px;font-family:'Jost*';-inkscape-font-specification:'Jost* Bold';text-align:center;letter-spacing:1.642277px;word-spacing:1.642277px;text-anchor:middle"
           id="path4991" />
        <path
           d="m 274.09221,471.33541 h 0.37955 l 1.09485,1.76636 h 1.4525 l -1.32842,-1.92693 q 0.50363,-0.18978 0.7591,-0.58392 0.26276,-0.39415 0.26276,-0.92698 0,-0.7445 -0.50363,-1.20434 -0.50363,-0.46713 -1.4817,-0.46713 h -0.63501 -0.45984 -0.77369 v 5.1093 h 1.23353 z m 0,-0.96347 v -1.32841 h 0.54013 q 0.37225,0 0.58392,0.17517 0.21167,0.16788 0.21167,0.48904 0,0.31385 -0.21167,0.48903 -0.21167,0.17517 -0.58392,0.17517 z"
           style="font-style:normal;font-variant:normal;font-weight:bold;font-stretch:normal;font-size:7.29900885px;font-family:'Jost*';-inkscape-font-specification:'Jost* Bold';text-align:center;letter-spacing:1.642277px;word-spacing:1.642277px;text-anchor:middle"
           id="path4993" />
        <path
           d="m 280.40939,470.91207 h 2.06562 v -0.99266 h -2.06562 v -0.90508 h 2.2116 v -1.02186 h -2.2116 -0.37225 -0.81749 v 5.1093 h 0.81749 0.37225 2.2116 v -1.02186 h -2.2116 z"
           style="font-style:normal;font-variant:normal;font-weight:bold;font-stretch:normal;font-size:7.29900885px;font-family:'Jost*';-inkscape-font-specification:'Jost* Bold';text-align:center;letter-spacing:1.642277px;word-spacing:1.642277px;text-anchor:middle"
           id="path4995" />
        <path
           d="m 286.59541,472.11641 h 1.62038 l 0.48174,0.98536 h 1.40141 l -2.68604,-5.43046 -2.70063,5.43046 h 1.40141 z m 0.24817,-0.94157 0.56932,-1.29923 0.56202,1.29923 z"
           style="font-style:normal;font-variant:normal;font-weight:bold;font-stretch:normal;font-size:7.29900885px;font-family:'Jost*';-inkscape-font-specification:'Jost* Bold';text-align:center;letter-spacing:1.642277px;word-spacing:1.642277px;text-anchor:middle"
           id="path4997" />
        <path
           d="m 291.24534,469.10192 h 1.40141 v 3.99985 h 1.24083 v -3.99985 h 1.40141 v -1.10945 h -4.04365 z"
           style="font-style:normal;font-variant:normal;font-weight:bold;font-stretch:normal;font-size:7.29900885px;font-family:'Jost*';-inkscape-font-specification:'Jost* Bold';text-align:center;letter-spacing:1.642277px;word-spacing:1.642277px;text-anchor:middle"
           id="path4999" />
        <path
           d="m 298.67972,470.91207 h 2.06562 v -0.99266 h -2.06562 v -0.90508 h 2.2116 v -1.02186 h -2.2116 -0.37225 -0.81749 v 5.1093 h 0.81749 0.37225 2.2116 v -1.02186 h -2.2116 z"
           style="font-style:normal;font-variant:normal;font-weight:bold;font-stretch:normal;font-size:7.29900885px;font-family:'Jost*';-inkscape-font-specification:'Jost* Bold';text-align:center;letter-spacing:1.642277px;word-spacing:1.642277px;text-anchor:middle"
           id="path5001" />
        <path
           d="m 304.35481,473.10177 h 0.45254 0.55473 q 0.83938,0 1.4525,-0.30655 0.61311,-0.31386 0.94887,-0.88318 0.34305,-0.57663 0.34305,-1.36492 0,-0.78829 -0.34305,-1.35761 -0.33576,-0.57663 -0.94887,-0.88318 -0.61312,-0.31386 -1.4525,-0.31386 h -0.55473 -0.45254 -0.81749 v 5.1093 z m 0.45254,-1.09485 v -2.9196 h 0.51093 q 0.39415,0 0.7372,0.13868 0.34305,0.13138 0.55473,0.45254 0.21167,0.32116 0.21167,0.86858 0,0.54743 -0.21167,0.86858 -0.21168,0.31386 -0.55473,0.45254 -0.34305,0.13868 -0.7372,0.13868 z"
           style="font-style:normal;font-variant:normal;font-weight:bold;font-stretch:normal;font-size:7.29900885px;font-family:'Jost*';-inkscape-font-specification:'Jost* Bold';text-align:center;letter-spacing:1.642277px;word-spacing:1.642277px;text-anchor:middle"
           id="path5003" />
        <path
           d="m 320.80096,471.01426 -1.4525,-3.27726 -1.4525,3.26996 -0.93427,-3.01449 h -1.4671 l 2.2116,5.41586 1.64227,-3.08018 1.64958,3.08018 2.2116,-5.41586 h -1.4671 z"
           style="font-style:normal;font-variant:normal;font-weight:bold;font-stretch:normal;font-size:7.29900885px;font-family:'Jost*';-inkscape-font-specification:'Jost* Bold';text-align:center;letter-spacing:1.642277px;word-spacing:1.642277px;text-anchor:middle"
           id="path5005" />
        <path
           d="m 325.41724,467.99247 v 5.1093 h 1.25543 v -5.1093 z"
           style="font-style:normal;font-variant:normal;font-weight:bold;font-stretch:normal;font-size:7.29900885px;font-family:'Jost*';-inkscape-font-specification:'Jost* Bold';text-align:center;letter-spacing:1.642277px;word-spacing:1.642277px;text-anchor:middle"
           id="path5007" />
        <path
           d="m 328.88655,469.10192 h 1.40141 v 3.99985 h 1.24083 v -3.99985 h 1.40141 v -1.10945 h -4.04365 z"
           style="font-style:normal;font-variant:normal;font-weight:bold;font-stretch:normal;font-size:7.29900885px;font-family:'Jost*';-inkscape-font-specification:'Jost* Bold';text-align:center;letter-spacing:1.642277px;word-spacing:1.642277px;text-anchor:middle"
           id="path5009" />
        <path
           d="m 335.1312,467.99247 v 5.1093 h 1.23353 v -2.13861 h 2.197 v 2.13861 h 1.23354 v -5.1093 h -1.23354 v 1.86125 h -2.197 v -1.86125 z"
           style="font-style:normal;font-variant:normal;font-weight:bold;font-stretch:normal;font-size:7.29900885px;font-family:'Jost*';-inkscape-font-specification:'Jost* Bold';text-align:center;letter-spacing:1.642277px;word-spacing:1.642277px;text-anchor:middle"
           id="path5011" />
        <path
           d="m 347.98429,467.99247 v 5.1093 h 3.28456 v -1.06565 h -2.05102 v -4.04365 z"
           style="font-style:normal;font-variant:normal;font-weight:bold;font-stretch:normal;font-size:7.29900885px;font-family:'Jost*';-inkscape-font-specification:'Jost* Bold';text-align:center;letter-spacing:1.642277px;word-spacing:1.642277px;text-anchor:middle"
           id="path5013" />
        <path
           d="m 352.96986,470.54712 q 0,0.59122 0.19707,1.08755 0.20438,0.49634 0.56933,0.86129 0.37225,0.36495 0.87588,0.56932 0.50363,0.19707 1.10215,0.19707 0.60582,0 1.10945,-0.19707 0.50363,-0.20437 0.86858,-0.56932 0.37225,-0.36495 0.57662,-0.86129 0.20437,-0.49633 0.20437,-1.08755 0,-0.59122 -0.21167,-1.08025 -0.20437,-0.48904 -0.57662,-0.84669 -0.37225,-0.35765 -0.87588,-0.54742 -0.50363,-0.19708 -1.09485,-0.19708 -0.58392,0 -1.08755,0.19708 -0.49634,0.18977 -0.86859,0.54742 -0.37225,0.35765 -0.58392,0.84669 -0.20437,0.48903 -0.20437,1.08025 z m 1.30652,0 q 0,-0.45254 0.17518,-0.79559 0.18248,-0.35035 0.50363,-0.54013 0.32846,-0.19707 0.7591,-0.19707 0.44524,0 0.76639,0.19707 0.32846,0.18978 0.50364,0.54013 0.17517,0.34305 0.17517,0.79559 0,0.45254 -0.18247,0.80289 -0.18248,0.34306 -0.51093,0.54013 -0.32116,0.18977 -0.7518,0.18977 -0.43064,0 -0.7591,-0.18977 -0.32115,-0.19707 -0.50363,-0.54013 -0.17518,-0.35035 -0.17518,-0.80289 z"
           style="font-style:normal;font-variant:normal;font-weight:bold;font-stretch:normal;font-size:7.29900885px;font-family:'Jost*';-inkscape-font-specification:'Jost* Bold';text-align:center;letter-spacing:1.642277px;word-spacing:1.642277px;text-anchor:middle"
           id="path5015" />
        <path
           d="m 362.82364,471.03615 -1.24813,-3.04368 h -1.4525 l 2.70063,5.43046 2.68603,-5.43046 h -1.4452 z"
           style="font-style:normal;font-variant:normal;font-weight:bold;font-stretch:normal;font-size:7.29900885px;font-family:'Jost*';-inkscape-font-specification:'Jost* Bold';text-align:center;letter-spacing:1.642277px;word-spacing:1.642277px;text-anchor:middle"
           id="path5017" />
        <path
           d="m 368.86996,470.91207 h 2.06562 v -0.99266 h -2.06562 v -0.90508 h 2.2116 v -1.02186 h -2.2116 -0.37225 -0.81749 v 5.1093 h 0.81749 0.37225 2.2116 v -1.02186 h -2.2116 z"
           style="font-style:normal;font-variant:normal;font-weight:bold;font-stretch:normal;font-size:7.29900885px;font-family:'Jost*';-inkscape-font-specification:'Jost* Bold';text-align:center;letter-spacing:1.642277px;word-spacing:1.642277px;text-anchor:middle"
           id="path5019" />
        <path
           d="m 382.16361,470.35735 q 0.34306,-0.15328 0.54013,-0.42335 0.19707,-0.27006 0.19707,-0.64231 0,-0.43794 -0.23356,-0.7226 -0.23357,-0.29196 -0.64232,-0.43064 -0.40874,-0.14598 -0.93427,-0.14598 h -1.88314 v 5.1093 h 1.99992 q 0.91238,0 1.44521,-0.33575 0.54012,-0.34305 0.54012,-1.10215 0,-0.51823 -0.29925,-0.83939 -0.29197,-0.32115 -0.72991,-0.46713 z m -1.72256,0.52553 h 0.63501 q 0.35765,0 0.59852,0.13868 0.24087,0.13868 0.24087,0.47443 0,0.36495 -0.24087,0.50363 -0.24087,0.13869 -0.59852,0.13869 h -0.63501 z m 0,-0.86129 v -1.06565 h 0.51093 q 0.32116,0 0.49633,0.13138 0.17518,0.13138 0.17518,0.38685 0,0.25546 -0.17518,0.40144 -0.17517,0.14598 -0.49633,0.14598 z"
           style="font-style:normal;font-variant:normal;font-weight:bold;font-stretch:normal;font-size:7.29900885px;font-family:'Jost*';-inkscape-font-specification:'Jost* Bold';text-align:center;letter-spacing:1.642277px;word-spacing:1.642277px;text-anchor:middle"
           id="path5021" />
        <path
           d="m 388.34416,467.99247 -0.99266,1.91964 -0.99267,-1.91964 h -1.4306 l 1.79555,3.03639 v 2.07291 h 1.25543 v -2.07291 l 1.79556,-3.03639 z"
           style="font-style:normal;font-variant:normal;font-weight:bold;font-stretch:normal;font-size:7.29900885px;font-family:'Jost*';-inkscape-font-specification:'Jost* Bold';text-align:center;letter-spacing:1.642277px;word-spacing:1.642277px;text-anchor:middle"
           id="path5023" />
        <path
           d="m 290.26824,481.91272 q 0,0.59122 0.19707,1.08755 0.20437,0.49634 0.56933,0.86129 0.37224,0.36495 0.87588,0.56932 0.50363,0.19707 1.10215,0.19707 0.60581,0 1.10945,-0.19707 0.50363,-0.20437 0.86858,-0.56932 0.37225,-0.36495 0.57662,-0.86129 0.20437,-0.49633 0.20437,-1.08755 0,-0.59122 -0.21167,-1.08025 -0.20437,-0.48904 -0.57662,-0.84669 -0.37225,-0.35765 -0.87588,-0.54742 -0.50363,-0.19708 -1.09485,-0.19708 -0.58392,0 -1.08756,0.19708 -0.49633,0.18977 -0.86858,0.54742 -0.37225,0.35765 -0.58392,0.84669 -0.20437,0.48903 -0.20437,1.08025 z m 1.30652,0 q 0,-0.45254 0.17518,-0.79559 0.18247,-0.35035 0.50363,-0.54013 0.32846,-0.19707 0.7591,-0.19707 0.44524,0 0.76639,0.19707 0.32846,0.18978 0.50363,0.54013 0.17518,0.34305 0.17518,0.79559 0,0.45254 -0.18247,0.80289 -0.18248,0.34306 -0.51094,0.54013 -0.32115,0.18977 -0.75179,0.18977 -0.43064,0 -0.7591,-0.18977 -0.32116,-0.19707 -0.50363,-0.54013 -0.17518,-0.35035 -0.17518,-0.80289 z"
           style="font-style:normal;font-variant:normal;font-weight:bold;font-stretch:normal;font-size:7.29900885px;font-family:'Jost*';-inkscape-font-specification:'Jost* Bold';text-align:center;letter-spacing:1.642277px;word-spacing:1.642277px;text-anchor:middle"
           id="path5025" />
        <path
           d="m 302.77156,482.37986 -1.45251,-3.27726 -1.4525,3.26996 -0.93427,-3.01449 h -1.4671 l 2.2116,5.41586 1.64227,-3.08018 1.64958,3.08018 2.2116,-5.41586 h -1.4671 z"
           style="font-style:normal;font-variant:normal;font-weight:bold;font-stretch:normal;font-size:7.29900885px;font-family:'Jost*';-inkscape-font-specification:'Jost* Bold';text-align:center;letter-spacing:1.642277px;word-spacing:1.642277px;text-anchor:middle"
           id="path5027" />
        <path
           d="m 308.57757,482.27767 h 2.06562 v -0.99266 h -2.06562 v -0.90508 h 2.2116 v -1.02186 h -2.2116 -0.37224 -0.81749 v 5.1093 h 0.81749 0.37224 2.2116 v -1.02186 h -2.2116 z"
           style="font-style:normal;font-variant:normal;font-weight:bold;font-stretch:normal;font-size:7.29900885px;font-family:'Jost*';-inkscape-font-specification:'Jost* Bold';text-align:center;letter-spacing:1.642277px;word-spacing:1.642277px;text-anchor:middle"
           id="path5029" />
        <path
           d="m 316.9606,479.35807 v 2.81742 l -3.52542,-3.07289 v 5.36477 h 1.18974 v -2.81741 l 3.52542,3.07288 v -5.36477 z"
           style="font-style:normal;font-variant:normal;font-weight:bold;font-stretch:normal;font-size:7.29900885px;font-family:'Jost*';-inkscape-font-specification:'Jost* Bold';text-align:center;letter-spacing:1.642277px;word-spacing:1.642277px;text-anchor:middle"
           id="path5031" />
        <path
           d="m 327.16279,484.46737 h 0.45254 0.55472 q 0.83939,0 1.45251,-0.30655 0.61311,-0.31386 0.94887,-0.88318 0.34305,-0.57663 0.34305,-1.36492 0,-0.78829 -0.34305,-1.35761 -0.33576,-0.57663 -0.94887,-0.88318 -0.61312,-0.31386 -1.45251,-0.31386 h -0.55472 -0.45254 -0.81749 v 5.1093 z m 0.45254,-1.09485 v -2.9196 h 0.51093 q 0.39415,0 0.7372,0.13868 0.34305,0.13138 0.55473,0.45254 0.21167,0.32116 0.21167,0.86858 0,0.54743 -0.21167,0.86858 -0.21168,0.31386 -0.55473,0.45254 -0.34305,0.13868 -0.7372,0.13868 z"
           style="font-style:normal;font-variant:normal;font-weight:bold;font-stretch:normal;font-size:7.29900885px;font-family:'Jost*';-inkscape-font-specification:'Jost* Bold';text-align:center;letter-spacing:1.642277px;word-spacing:1.642277px;text-anchor:middle"
           id="path5033" />
        <path
           d="m 333.0686,483.97104 q 0,0.27007 0.18977,0.47444 0.19708,0.19707 0.49634,0.19707 0.29926,0 0.49633,-0.19707 0.19707,-0.20437 0.19707,-0.47444 0,-0.27736 -0.19707,-0.47443 -0.19707,-0.19708 -0.49633,-0.19708 -0.29926,0 -0.49634,0.19708 -0.18977,0.19707 -0.18977,0.47443 z"
           style="font-style:normal;font-variant:normal;font-weight:bold;font-stretch:normal;font-size:7.29900885px;font-family:'Jost*';-inkscape-font-specification:'Jost* Bold';text-align:center;letter-spacing:1.642277px;word-spacing:1.642277px;text-anchor:middle"
           id="path5035" />
        <path
           d="m 343.78389,482.27767 h 2.06562 v -0.99266 h -2.06562 v -0.90508 h 2.2116 v -1.02186 h -2.2116 -0.37225 -0.81749 v 5.1093 h 0.81749 0.37225 2.2116 v -1.02186 h -2.2116 z"
           style="font-style:normal;font-variant:normal;font-weight:bold;font-stretch:normal;font-size:7.29900885px;font-family:'Jost*';-inkscape-font-specification:'Jost* Bold';text-align:center;letter-spacing:1.642277px;word-spacing:1.642277px;text-anchor:middle"
           id="path5037" />
        <path
           d="m 349.96991,483.48201 h 1.62038 l 0.48174,0.98536 h 1.4014 l -2.68603,-5.43046 -2.70063,5.43046 h 1.40141 z m 0.24817,-0.94157 0.56932,-1.29923 0.56202,1.29923 z"
           style="font-style:normal;font-variant:normal;font-weight:bold;font-stretch:normal;font-size:7.29900885px;font-family:'Jost*';-inkscape-font-specification:'Jost* Bold';text-align:center;letter-spacing:1.642277px;word-spacing:1.642277px;text-anchor:middle"
           id="path5039" />
        <path
           d="m 356.87751,482.70101 h 0.37955 l 1.09485,1.76636 h 1.4525 l -1.32842,-1.92693 q 0.50364,-0.18978 0.7591,-0.58392 0.26276,-0.39415 0.26276,-0.92698 0,-0.7445 -0.50363,-1.20433 -0.50363,-0.46714 -1.4817,-0.46714 h -0.63501 -0.45984 -0.77369 v 5.1093 h 1.23353 z m 0,-0.96346 v -1.32842 h 0.54013 q 0.37225,0 0.58392,0.17517 0.21167,0.16788 0.21167,0.48904 0,0.31385 -0.21167,0.48903 -0.21167,0.17518 -0.58392,0.17518 z"
           style="font-style:normal;font-variant:normal;font-weight:bold;font-stretch:normal;font-size:7.29900885px;font-family:'Jost*';-inkscape-font-specification:'Jost* Bold';text-align:center;letter-spacing:1.642277px;word-spacing:1.642277px;text-anchor:middle"
           id="path5041" />
        <path
           d="m 362.00495,479.35807 v 5.1093 h 3.28455 v -1.06565 h -2.05102 v -4.04365 z"
           style="font-style:normal;font-variant:normal;font-weight:bold;font-stretch:normal;font-size:7.29900885px;font-family:'Jost*';-inkscape-font-specification:'Jost* Bold';text-align:center;letter-spacing:1.642277px;word-spacing:1.642277px;text-anchor:middle"
           id="path5043" />
        <path
           d="m 300.03979,492.62141 q -0.18248,-0.19707 -0.29926,-0.35765 -0.10949,-0.16788 -0.10949,-0.32846 0,-0.17517 0.11679,-0.31385 0.12408,-0.13868 0.37225,-0.13868 0.21897,0 0.35035,0.13868 0.13138,0.13868 0.13138,0.31385 0,0.34306 -0.56202,0.68611 z m 2.03642,2.197 q 0.21167,-0.21897 0.39415,-0.45254 0.18977,-0.23356 0.34305,-0.45983 l -0.7372,-0.56203 q -0.13868,0.21897 -0.29926,0.42335 -0.15328,0.19707 -0.32115,0.37954 l -0.89778,-0.96346 q 0.34305,-0.22627 0.57662,-0.41605 0.23357,-0.18977 0.35035,-0.40874 0.12408,-0.21897 0.12408,-0.52553 0,-0.30656 -0.17517,-0.59122 -0.16788,-0.28466 -0.49633,-0.46714 -0.32846,-0.18247 -0.8029,-0.18247 -0.48903,0 -0.84668,0.18247 -0.35035,0.18248 -0.54013,0.47444 -0.18977,0.29196 -0.18977,0.61311 0,0.34306 0.18977,0.61312 0.19708,0.27006 0.42335,0.53283 -0.28467,0.11678 -0.57663,0.29926 -0.28466,0.18247 -0.47443,0.45984 -0.18978,0.27736 -0.18978,0.6934 0,0.45984 0.24087,0.78829 0.24087,0.32846 0.64231,0.50364 0.40875,0.17517 0.89778,0.17517 0.47444,0 0.88318,-0.13868 0.40875,-0.14598 0.7664,-0.37225 l 0.37955,0.41605 h 1.27002 z m -1.33572,-0.0876 q -0.21167,0.12408 -0.43794,0.19707 -0.21897,0.073 -0.44524,0.073 -0.37225,0 -0.57662,-0.18248 -0.19707,-0.18977 -0.19707,-0.45254 0,-0.27736 0.19707,-0.43794 0.19707,-0.16787 0.45984,-0.29196 z"
           style="font-style:normal;font-variant:normal;font-weight:bold;font-stretch:normal;font-size:7.29900885px;font-family:'Jost*';-inkscape-font-specification:'Jost* Bold';text-align:center;letter-spacing:1.642277px;word-spacing:1.642277px;text-anchor:middle"
           id="path5045" />
        <path
           d="m 311.84764,493.27832 q 0,-0.46713 0.20438,-0.80289 0.21167,-0.33575 0.56202,-0.51093 0.35035,-0.18247 0.7591,-0.18247 0.54012,0 0.90507,0.20437 0.37225,0.19707 0.62042,0.47443 v -1.34301 q -0.30656,-0.23357 -0.67151,-0.37225 -0.36495,-0.13868 -0.92697,-0.13868 -0.81749,0 -1.45251,0.33575 -0.63501,0.33575 -0.99266,0.94157 -0.35765,0.59852 -0.35765,1.39411 0,0.79559 0.35765,1.40141 0.35765,0.59852 0.99266,0.93428 0.63502,0.33575 1.45251,0.33575 0.56202,0 0.92697,-0.13868 0.36495,-0.13868 0.67151,-0.37225 v -1.34302 q -0.24817,0.27006 -0.62042,0.47444 -0.36495,0.20437 -0.90507,0.20437 -0.40875,0 -0.7591,-0.17518 -0.35035,-0.18247 -0.56202,-0.51823 -0.20438,-0.33575 -0.20438,-0.80289 z"
           style="font-style:normal;font-variant:normal;font-weight:bold;font-stretch:normal;font-size:7.29900885px;font-family:'Jost*';-inkscape-font-specification:'Jost* Bold';text-align:center;letter-spacing:1.642277px;word-spacing:1.642277px;text-anchor:middle"
           id="path5047" />
        <path
           d="m 317.24321,493.27832 q 0,0.59122 0.19707,1.08755 0.20437,0.49634 0.56932,0.86129 0.37225,0.36495 0.87589,0.56932 0.50363,0.19707 1.10215,0.19707 0.60581,0 1.10944,-0.19707 0.50364,-0.20437 0.86859,-0.56932 0.37225,-0.36495 0.57662,-0.86129 0.20437,-0.49633 0.20437,-1.08755 0,-0.59122 -0.21167,-1.08025 -0.20437,-0.48903 -0.57662,-0.84669 -0.37225,-0.35765 -0.87588,-0.54742 -0.50363,-0.19707 -1.09485,-0.19707 -0.58393,0 -1.08756,0.19707 -0.49633,0.18977 -0.86858,0.54742 -0.37225,0.35766 -0.58392,0.84669 -0.20437,0.48903 -0.20437,1.08025 z m 1.30652,0 q 0,-0.45254 0.17518,-0.79559 0.18247,-0.35035 0.50363,-0.54013 0.32845,-0.19707 0.7591,-0.19707 0.44524,0 0.76639,0.19707 0.32846,0.18978 0.50363,0.54013 0.17518,0.34305 0.17518,0.79559 0,0.45254 -0.18248,0.80289 -0.18247,0.34306 -0.51093,0.54013 -0.32115,0.18977 -0.75179,0.18977 -0.43065,0 -0.7591,-0.18977 -0.32116,-0.19707 -0.50363,-0.54013 -0.17518,-0.35035 -0.17518,-0.80289 z"
           style="font-style:normal;font-variant:normal;font-weight:bold;font-stretch:normal;font-size:7.29900885px;font-family:'Jost*';-inkscape-font-specification:'Jost* Bold';text-align:center;letter-spacing:1.642277px;word-spacing:1.642277px;text-anchor:middle"
           id="path5049" />
        <path
           d="m 326.47874,493.27102 1.40141,2.08752 1.38681,-2.07292 0.30656,2.54736 h 1.31382 l -0.83209,-5.36478 -2.1751,3.11668 -2.18241,-3.11668 -0.82479,5.36478 h 1.29923 z"
           style="font-style:normal;font-variant:normal;font-weight:bold;font-stretch:normal;font-size:7.29900885px;font-family:'Jost*';-inkscape-font-specification:'Jost* Bold';text-align:center;letter-spacing:1.642277px;word-spacing:1.642277px;text-anchor:middle"
           id="path5051" />
        <path
           d="m 334.54141,494.06662 h 0.54012 q 0.97807,0 1.4817,-0.44524 0.50363,-0.45254 0.50363,-1.22624 0,-0.78099 -0.50363,-1.22623 -0.50363,-0.44524 -1.4817,-0.44524 h -0.54012 -0.45984 -0.7737 v 5.10931 h 1.23354 z m 0,-1.02187 v -1.29922 h 0.54012 q 0.37225,0 0.58392,0.16788 0.21167,0.16058 0.21167,0.48173 0,0.31386 -0.21167,0.48174 -0.21167,0.16787 -0.58392,0.16787 z"
           style="font-style:normal;font-variant:normal;font-weight:bold;font-stretch:normal;font-size:7.29900885px;font-family:'Jost*';-inkscape-font-specification:'Jost* Bold';text-align:center;letter-spacing:1.642277px;word-spacing:1.642277px;text-anchor:middle"
           id="path5053" />
        <path
           d="m 340.31298,494.84761 h 1.62038 l 0.48174,0.98537 h 1.40141 l -2.68604,-5.43047 -2.70063,5.43047 h 1.40141 z m 0.24817,-0.94157 0.56932,-1.29923 0.56203,1.29923 z"
           style="font-style:normal;font-variant:normal;font-weight:bold;font-stretch:normal;font-size:7.29900885px;font-family:'Jost*';-inkscape-font-specification:'Jost* Bold';text-align:center;letter-spacing:1.642277px;word-spacing:1.642277px;text-anchor:middle"
           id="path5055" />
        <path
           d="m 349.51247,490.72367 v 2.81742 l -3.52542,-3.07289 v 5.36478 h 1.18974 v -2.81742 l 3.52542,3.07288 v -5.36477 z"
           style="font-style:normal;font-variant:normal;font-weight:bold;font-stretch:normal;font-size:7.29900885px;font-family:'Jost*';-inkscape-font-specification:'Jost* Bold';text-align:center;letter-spacing:1.642277px;word-spacing:1.642277px;text-anchor:middle"
           id="path5057" />
        <path
           d="m 356.27842,490.72367 -0.99266,1.91964 -0.99267,-1.91964 h -1.4306 l 1.79555,3.03639 v 2.07292 h 1.25543 v -2.07292 l 1.79556,-3.03639 z"
           style="font-style:normal;font-variant:normal;font-weight:bold;font-stretch:normal;font-size:7.29900885px;font-family:'Jost*';-inkscape-font-specification:'Jost* Bold';text-align:center;letter-spacing:1.642277px;word-spacing:1.642277px;text-anchor:middle"
           id="path5059" />
      </g>
    </g>
  </g>
</svg>
