<?xml version="1.0" encoding="UTF-8" standalone="no"?>
<svg
   xmlns:dc="http://purl.org/dc/elements/1.1/"
   xmlns:cc="http://creativecommons.org/ns#"
   xmlns:rdf="http://www.w3.org/1999/02/22-rdf-syntax-ns#"
   xmlns:svg="http://www.w3.org/2000/svg"
   xmlns="http://www.w3.org/2000/svg"
   xmlns:sodipodi="http://sodipodi.sourceforge.net/DTD/sodipodi-0.dtd"
   xmlns:inkscape="http://www.inkscape.org/namespaces/inkscape"
   inkscape:version="1.0alpha2 (1:0.92.0+devel+201907090511+74dcc2b)"
   sodipodi:docname="spiral.svg"
   width="120mm"
   height="120mm"
   viewBox="-60 -60 120 120"
   version="1.1"
   id="svg2449">
  <sodipodi:namedview
     inkscape:current-layer="svg2449"
     inkscape:window-maximized="1"
     inkscape:window-y="30"
     inkscape:window-x="0"
     inkscape:cy="351.81547"
     inkscape:cx="305.4517"
     inkscape:zoom="0.87390512"
     showgrid="false"
     id="namedview7"
     inkscape:window-height="1017"
     inkscape:window-width="1920"
     inkscape:pageshadow="2"
     inkscape:pageopacity="0"
     guidetolerance="10"
     gridtolerance="10"
     objecttolerance="10"
     borderopacity="1"
     inkscape:document-rotation="0"
     bordercolor="#666666"
     pagecolor="#ffffff" />
  <defs
     id="defs2451" />
  <metadata
     id="metadata2822">
    <rdf:RDF>
      <cc:Work
         rdf:about="">
        <dc:format>image/svg+xml</dc:format>
        <dc:type
           rdf:resource="http://purl.org/dc/dcmitype/StillImage" />
        <dc:title />
      </cc:Work>
    </rdf:RDF>
  </metadata>
  <g
     transform="translate(-1.5192407,1.5859962)"
     id="Template"
     style="fill:none;stroke:#000000;stroke-width:0.05">
    <path
       inkscape:connector-curvature="0"
       id="path3018"
       style="opacity:1;fill:#000000;fill-opacity:1;fill-rule:evenodd;stroke:#000000;stroke-width:0.00288389;stroke-miterlimit:4;stroke-dasharray:none;stop-opacity:1"
       d="M 229.43359,5.609375 C 175.87365,5.7388987 122.33302,24.700353 80.626953,63.277344 -5.7927571,143.21324 -12.588965,282.46282 67.667969,369.19727 145.60733,453.42709 281.35555,458.86635 365.9082,380.625 l -6.65625,-7.43359 C 278.7647,447.67079 149.51616,442.5198 75.324219,362.33984 -1.0738587,279.77569 5.395617,147.22138 87.660156,71.128906 172.35517,-7.211701 308.31908,-0.5708388 386.36133,83.804688 466.6946,170.65716 459.87911,310.07193 373.33789,390.08789 l 7.39649,8.25781 C 471.6468,314.28814 478.80494,167.83117 394.41406,76.591797 350.85999,29.503222 290.13486,5.4625815 229.43359,5.609375 Z m 0.30469,21.519531 C 181.53433,27.245477 133.34796,44.310006 95.8125,79.029297 18.034759,150.97161 11.917198,276.29642 84.148438,354.35742 154.29386,430.16427 276.46902,435.05979 352.56641,364.64258 l -5.99219,-6.68946 C 274.13569,424.98457 157.81181,420.34946 91.039062,348.1875 22.280794,273.87976 28.104491,154.58089 102.14258,86.097656 178.36809,15.59111 300.73463,21.565933 370.97266,97.503906 443.2726,175.67113 437.13905,301.14579 359.25195,373.16016 l 6.65625,7.43164 C 447.72939,304.93999 454.17444,173.1291 378.22266,91.013672 339.02399,48.633953 284.36942,26.996792 229.73828,27.128906 Z m 0.27344,19.367188 C 186.62817,46.601008 143.26238,61.959669 109.48047,93.207031 39.480504,157.95511 33.974306,270.74705 98.982422,341.00195 162.11331,409.22811 272.07094,413.6333 340.55859,350.25781 l -5.39257,-6.01953 c -65.19468,60.32831 -169.88696,56.1567 -229.98243,-8.78906 -61.882439,-66.87697 -56.642089,-174.24595 9.99219,-235.880861 68.60296,-63.45589 178.735,-58.078551 241.94922,10.265621 65.06995,70.35051 59.54761,183.27692 -10.55078,248.08985 l 5.99219,6.68945 c 73.63906,-68.08662 79.43863,-186.7172 11.08203,-260.62109 -35.2788,-38.141748 -84.4687,-57.614999 -133.63672,-57.496096 z m 0.24805,17.43164 c -39.0452,0.09442 -78.07675,13.916437 -108.48047,42.039066 -62.999973,58.27327 -67.954571,159.78621 -9.44727,223.01562 56.8178,61.40355 155.77908,65.36802 217.41797,8.33008 l -4.85156,-5.41797 C 266.22323,386.19 171.99999,382.43557 117.91406,323.98438 62.219867,263.79511 66.937351,167.16282 126.9082,111.69141 c 61.74267,-57.110305 160.85916,-52.269528 217.75196,9.24023 58.56295,63.31546 53.59441,164.94961 -9.49414,223.28125 l 5.39257,6.01953 C 406.83375,288.95446 412.0522,182.18733 350.53125,115.67383 318.78033,81.346256 274.51099,63.820722 230.25977,63.927734 Z m 0.22265,15.6875 c -35.14068,0.08498 -70.26946,12.525574 -97.63281,37.835936 -56.699974,52.44595 -61.158528,143.80642 -8.50195,200.71289 51.13601,55.26319 140.20078,58.8322 195.67578,7.49805 l -4.36719,-4.87695 c -52.80768,48.86592 -137.60782,45.48693 -186.28516,-7.11914 -50.124771,-54.17034 -45.880016,-141.13823 8.09375,-191.0625 55.5684,-51.399277 144.775,-47.04238 195.97852,8.3164 52.70666,56.98391 48.23478,148.4527 -8.54492,200.95117 l 4.85156,5.41797 C 389.39764,282.1389 394.09541,186.04965 338.72656,126.1875 310.15073,95.292686 270.30852,79.518923 230.48242,79.615234 Z m 0.19922,14.119141 c -31.62661,0.07648 -63.24017,11.273405 -87.86719,34.052735 -51.029972,47.20135 -55.043258,129.42676 -7.65234,180.64258 46.02241,49.73687 126.17992,52.94682 176.10742,6.74609 l -3.92969,-4.38867 c -47.52691,43.97933 -123.8486,40.93921 -167.6582,-6.40625 -45.112297,-48.75331 -41.291236,-127.02519 7.28516,-171.95703 50.01155,-46.259348 130.29769,-42.338531 176.38086,7.48437 47.43598,51.28552 43.41032,133.6088 -7.69141,180.85742 l 4.36719,4.875 C 373.70632,276.00547 377.93548,189.52437 328.10352,135.64844 302.38527,107.8431 266.52513,93.647695 230.68164,93.734375 Z m 0.18164,12.707035 c -28.46395,0.0688 -56.91772,10.14509 -79.08203,30.64648 -45.92698,42.48122 -49.53854,116.48388 -6.88672,162.57813 41.42018,44.76318 113.56135,47.65487 158.49609,6.07421 l -3.5371,-3.95117 c -42.77423,39.58141 -111.46199,36.8453 -150.89063,-5.76562 -40.60107,-43.87798 -37.16211,-114.32306 6.55664,-154.76172 45.0104,-41.633414 117.26539,-38.10429 158.74024,6.73633 42.69239,46.15696 39.07163,120.24772 -6.91993,162.77148 l 3.92969,4.38867 c 48.31459,-44.67163 52.12025,-122.5058 7.27149,-170.99414 -23.14643,-25.0248 -55.4186,-37.80067 -87.67774,-37.72265 z m 0.16211,11.43554 c -25.61755,0.062 -51.22595,9.13078 -71.17383,27.58203 -41.33428,38.2331 -44.58586,104.8355 -6.19922,146.32032 37.27816,40.28686 102.20717,42.88939 142.64844,5.46679 l -3.18359,-3.55468 c -38.4968,35.62326 -100.31696,33.15842 -135.80274,-5.19141 -36.54096,-39.49018 -33.44649,-102.89037 5.90039,-139.28516 40.50936,-37.47007 105.53983,-34.29405 142.86719,6.0625 38.42315,41.54127 35.16388,108.22471 -6.22851,146.4961 l 3.5371,3.94922 c 43.48313,-40.20447 46.90881,-110.25503 6.54493,-153.89454 -20.83178,-22.52232 -49.87693,-34.02138 -78.91016,-33.95117 z m 0.14453,10.29297 c -23.0558,0.0558 -46.10159,8.21809 -64.05469,24.82422 -37.20085,34.40978 -40.12805,94.35312 -5.58007,131.68945 33.55034,36.25818 91.98762,38.59831 128.38476,4.91797 l -2.86719,-3.19922 c -34.64712,32.06094 -90.2835,29.84297 -122.2207,-4.67187 -32.88686,-35.54116 -30.10164,-92.60016 5.31055,-125.35547 36.45842,-33.72307 94.98545,-30.86582 128.58008,5.45508 34.58084,37.38714 31.64769,97.40145 -5.60547,131.8457 l 3.18359,3.55469 c 39.13482,-36.18402 42.21617,-99.22835 5.88867,-138.50391 -18.7486,-20.27009 -44.88962,-30.61983 -71.01953,-30.55664 z m 0.13281,9.26367 c -20.75021,0.0502 -41.4926,7.39628 -57.65039,22.3418 -33.48076,30.96881 -36.11466,84.91683 -5.02148,118.51953 30.1953,32.63236 82.78749,34.74003 115.54492,4.42774 l -2.57812,-2.87891 c -31.18241,28.85484 -81.25653,26.85828 -110,-4.20508 -29.59819,-31.98704 -27.09168,-83.34053 4.77929,-112.82031 32.81259,-30.35076 85.4875,-27.77865 115.72266,4.91016 31.12276,33.64842 28.48097,87.66033 -5.04688,118.66015 l 2.86719,3.19922 c 35.22134,-32.56562 37.99358,-89.3063 5.29883,-124.6543 -16.87374,-18.24308 -40.3991,-27.55687 -63.91602,-27.5 z m 0.11719,8.33789 c -18.67519,0.0452 -37.34276,6.65646 -51.88476,20.10743 -30.1327,27.87192 -32.5034,76.42553 -4.51954,106.66797 27.17578,29.36912 74.50855,31.26544 103.99024,3.98437 l -2.32031,-2.5918 c -28.06417,25.96936 -73.13087,24.17187 -99,-3.78515 -26.63836,-28.78834 -24.3831,-75.00531 4.30078,-101.53711 29.53132,-27.31568 76.94069,-25.00196 104.15234,4.41797 28.01048,30.28358 25.63405,78.89508 -4.54101,106.79492 l 2.57812,2.8789 c 31.69921,-29.30905 34.19481,-80.37429 4.76953,-112.1875 -15.18636,-16.41877 -36.36017,-24.80118 -57.52539,-24.75 z m 0.10742,7.50196 c -16.80767,0.0406 -33.60946,5.99179 -46.69726,18.09765 -27.11942,25.08474 -29.25188,68.78182 -4.06641,96 24.4582,26.43222 67.05633,28.13891 93.58985,3.58594 l -2.0879,-2.33203 c -25.25775,23.37242 -65.81739,21.75702 -89.0996,-3.4043 -23.97453,-25.9095 -21.9444,-67.50614 3.87109,-91.38476 26.57819,-24.58412 69.24389,-22.50137 93.73437,3.97656 25.20944,27.25523 23.07162,71.00538 -4.08593,96.11523 l 2.32031,2.5918 c 28.52928,-26.37815 30.77767,-72.33882 4.29492,-100.9707 -13.66773,-14.7769 -32.72474,-22.32146 -51.77344,-22.27539 z m 0.0957,6.7539 c -15.12691,0.0366 -30.24832,5.39183 -42.02735,16.28711 -24.40748,22.57626 -26.32708,61.90402 -3.66015,86.40039 22.01237,23.78899 60.35225,25.32619 84.23242,3.22852 l -1.88086,-2.09961 c -22.73198,21.03518 -59.23546,19.58073 -80.18945,-3.06445 -21.57708,-23.31856 -19.74957,-60.75729 3.48437,-82.24805 23.92037,-22.1257 62.31989,-20.25006 84.36133,3.58008 22.68848,24.5297 20.76406,63.90503 -3.67774,86.5039 l 2.0879,2.33204 c 25.67635,-23.74034 27.69971,-65.10436 3.86523,-90.87305 -12.30096,-13.2992 -29.45187,-20.08833 -46.5957,-20.04688 z m 0.0859,6.07813 c -13.61421,0.0329 -27.22309,4.85245 -37.82421,14.6582 -21.96674,20.31864 -23.69516,55.71304 -3.29493,77.75977 19.81114,21.41009 54.31645,22.79415 75.8086,2.90625 l -1.69141,-1.89063 c -20.45878,18.93166 -53.31132,17.62286 -72.16992,-2.75781 -19.41936,-20.9867 -17.77578,-54.6798 3.13477,-74.02148 21.52833,-19.91314 56.08849,-18.22643 75.92578,3.2207 20.41963,22.07673 18.68707,57.51453 -3.31055,77.85351 l 1.88086,2.09961 c 23.10872,-21.3663 24.92759,-58.59333 3.47656,-81.78515 -11.07086,-11.96929 -26.5061,-18.08028 -41.93555,-18.04297 z m 0.0781,5.46875 c -12.2528,0.0296 -24.50196,4.36818 -34.04297,13.19336 -19.77006,18.28677 -21.32506,50.14231 -2.96484,69.98437 17.83002,19.26909 48.88558,20.51435 68.22851,2.61524 l -1.52343,-1.70117 c -18.41291,17.03849 -47.98039,15.86018 -64.95313,-2.48243 -17.47743,-18.88803 -15.99723,-49.21162 2.82227,-66.61914 19.3755,-17.92182 50.47846,-16.40398 68.33203,2.89844 18.37767,19.86906 16.81934,51.76327 -2.97852,70.06836 l 1.69141,1.88867 c 20.79784,-19.22967 22.43678,-52.73283 3.13086,-73.60547 -9.96378,-10.77235 -23.85569,-16.27381 -37.74219,-16.24023 z m 0.0684,4.92383 c -11.02752,0.0267 -22.04981,3.93038 -30.63672,11.87304 -17.79305,16.4581 -19.19216,45.12848 -2.66797,62.98633 16.04703,17.34218 43.99566,18.46272 61.4043,2.35352 l -1.3711,-1.53125 c -16.57161,15.33464 -43.18156,14.27397 -58.45703,-2.23438 -15.72968,-16.99923 -14.39848,-44.29026 2.53907,-59.95703 17.43795,-16.12964 45.43179,-14.7628 61.5,2.60938 16.5399,17.88215 15.13643,46.58597 -2.68164,63.06054 l 1.52343,1.70118 c 18.71806,-17.30671 20.19174,-47.46072 2.81641,-66.2461 -8.9674,-9.69512 -21.4709,-14.64546 -33.96875,-14.61523 z m 0.0625,4.42968 c -9.92477,0.024 -19.84405,3.53911 -27.57227,10.6875 -16.01374,14.81229 -17.27411,40.61544 -2.40234,56.6875 14.44232,15.60796 39.59785,16.61547 55.26562,2.11719 l -1.23437,-1.37695 c -14.91445,13.80118 -38.86536,12.84579 -52.61328,-2.01172 -14.15672,-15.2993 -12.95668,-39.86085 2.28711,-53.96094 15.69415,-14.51667 40.88822,-13.2873 55.34961,2.34766 14.88592,16.09394 13.6222,41.92874 -2.41407,56.75586 l 1.3711,1.52929 c 16.84625,-15.57603 18.17295,-42.71425 2.53515,-59.62109 -8.07065,-8.72561 -19.32419,-13.1815 -30.57226,-13.1543 z m 0.0566,3.98829 c -8.93229,0.0216 -17.86101,3.18363 -24.81641,9.61718 -14.41237,13.33106 -15.54475,36.55467 -2.16015,51.01953 12.99809,14.04716 35.63728,14.95471 49.73828,1.90625 l -1.11133,-1.24023 c -13.42301,12.42106 -34.97844,11.56121 -47.35156,-1.81055 -12.74105,-13.76937 -11.66082,-35.87437 2.05859,-48.56445 14.12474,-13.06501 36.79921,-11.95818 49.81445,2.11328 13.39733,14.48455 12.26076,37.73567 -2.17187,51.08008 l 1.23437,1.37695 c 15.16163,-14.01843 16.35527,-38.444 2.28125,-53.66015 -7.26359,-7.85305 -17.39236,-11.86238 -27.51562,-11.83789 z m 0.0508,3.58984 c -8.03906,0.0194 -16.07413,2.8641 -22.33398,8.6543 -12.97114,11.99795 -13.99145,32.89959 -1.94532,45.91796 11.69829,12.64245 32.07277,13.45846 44.76368,1.71485 l -0.99805,-1.11524 c -12.08071,11.17896 -31.48138,10.40568 -42.61719,-1.6289 -11.46694,-12.39244 -10.4959,-32.28791 1.85156,-43.70899 12.71227,-11.7585 33.12026,-10.76197 44.83399,1.90235 12.05759,13.03609 11.03429,33.96073 -1.95508,45.9707 l 1.11133,1.24023 c 13.64547,-12.61659 14.71935,-34.59842 2.05273,-48.29296 -6.53723,-7.06775 -15.65273,-10.67633 -24.76367,-10.6543 z m 0.0469,3.22852 c -7.23516,0.0175 -14.4677,2.57983 -20.10157,7.79101 -11.67402,10.79816 -12.59152,29.60768 -1.75,41.32422 10.52846,11.3782 28.8653,12.11417 40.28711,1.54492 l -0.89843,-1.00391 c -10.87264,10.06107 -28.33324,9.36433 -38.35547,-1.46679 -10.32025,-11.1532 -9.44671,-29.05893 1.66601,-39.33789 11.44104,-10.58266 29.80921,-9.685 40.35156,1.71289 10.85184,11.73248 9.93068,30.56407 -1.75976,41.37305 l 0.99805,1.11523 c 12.28092,-11.35493 13.24956,-31.1378 1.84961,-43.46289 -5.88352,-6.36097 -14.08727,-9.60967 -22.28711,-9.58984 z m 0.041,2.9082 c -6.51164,0.0157 -13.02131,2.3197 -18.0918,7.00976 -10.50662,9.71834 -11.33158,26.64848 -1.57421,37.19336 9.4756,10.24038 25.97818,10.901 36.25781,1.38868 l -0.8086,-0.90235 c -9.78537,9.05496 -25.49952,8.4277 -34.51953,-1.32031 -9.28822,-10.03788 -8.50145,-26.15323 1.5,-35.4043 10.29694,-9.52439 26.82634,-8.71708 36.31446,1.54102 9.76665,10.55923 8.93936,27.5102 -1.58203,37.23828 l 0.89843,1.0039 c 11.05283,-10.21943 11.92403,-28.02656 1.66407,-39.11914 -5.29516,-5.72487 -12.67874,-8.64675 -20.0586,-8.6289 z m 0.0371,2.61523 c -5.86047,0.0142 -11.71781,2.08949 -16.28125,6.31055 -9.45596,8.74651 -10.1996,23.98226 -1.41797,33.47266 8.52805,9.21634 23.38115,9.81304 32.63281,1.25195 l -0.72851,-0.81445 c -8.80684,8.14946 -22.95035,7.58571 -31.06836,-1.1875 -8.3594,-9.03409 -7.64974,-23.53732 1.35156,-31.86329 9.26725,-8.57195 24.14429,-7.84556 32.6836,1.38672 8.78998,9.50331 8.04347,24.75841 -1.42579,33.51367 l 0.8086,0.90235 c 9.94754,-9.1975 10.73201,-25.22176 1.49804,-35.20508 -4.76564,-5.15238 -11.41086,-7.78364 -18.05273,-7.76758 z m 1.08789,2.37696 c -5.62082,-0.24978 -11.32808,1.60403 -15.70898,5.65625 -8.51037,7.87185 -9.17886,21.58559 -1.27539,30.12695 7.67524,8.29471 21.04264,8.82998 29.36914,1.125 v -0.002 c 8.05751,-7.44998 8.6924,-20.43109 1.21289,-28.51758 -7.26621,-7.85587 -19.92493,-8.47367 -27.81055,-1.17969 -7.65933,7.08467 -8.26156,19.42606 -1.14844,27.11328 6.90772,7.46524 18.93975,7.9462 26.4336,1.01172 v -0.002 c 7.25176,-6.70498 7.8214,-18.38818 1.08984,-25.66602 -6.53958,-7.07028 -17.93224,-7.62513 -25.0293,-1.06055 -6.89339,6.37621 -7.43501,17.4819 -1.0332,24.40039 6.21695,6.71872 17.0446,7.15315 23.78906,0.91211 v -0.002 l -0.53125,-0.58984 c -6.42018,5.94095 -16.73041,5.52848 -22.64843,-0.86719 -6.09401,-6.58585 -5.57758,-17.15889 0.98437,-23.22852 6.75582,-6.24895 17.60102,-5.71861 23.82617,1.01172 6.4079,6.92792 5.86403,18.04905 -1.03906,24.43164 v 0.002 c -7.13354,6.60106 -18.58848,6.14536 -25.16406,-0.96094 -6.77112,-7.31761 -6.19731,-19.06652 1.09375,-25.81055 7.50646,-6.94328 19.55777,-6.3551 26.47461,1.12305 7.11988,7.69768 6.5158,20.05472 -1.1543,27.14648 v 0.002 c -7.92615,7.33451 -20.65473,6.82753 -27.96094,-1.06836 -7.52346,-8.13068 -6.88633,-21.18437 1.21485,-28.67774 8.34052,-7.71475 21.72869,-7.05905 29.41406,1.25 7.91099,8.55298 7.24108,22.28042 -1.28125,30.16016 l 0.72851,0.81445 c 8.9528,-8.27774 9.65823,-22.70056 1.34766,-31.68554 -4.03678,-4.36438 -9.57254,-6.71898 -15.19336,-6.96875 z m 9.88867,33.91601 c 6.52659,-6.03447 7.04083,-16.54955 0.98243,-23.09961 -5.88563,-6.36325 -16.14,-6.8632 -22.52735,-0.95508 -6.20405,5.73859 -6.69132,15.73429 -0.92969,21.96094 5.59526,6.04684 15.34014,6.43724 21.41016,0.82031 v -0.002 c 5.87393,-5.43103 6.33733,-14.89401 0.88477,-20.78906 -5.29707,-5.72693 -14.52678,-6.17669 -20.27539,-0.85938 -5.58365,5.16473 -6.02141,14.16164 -0.83594,19.76563 5.03572,5.44216 13.80651,5.79352 19.26953,0.73828 v -0.002 c 5.28653,-4.88793 5.70223,-13.4054 0.79492,-18.71094 -4.76736,-5.15424 -13.07234,-5.55902 -18.24609,-0.77344 -5.02529,4.64825 -5.42083,12.74548 -0.75391,17.78906 4.53215,4.89795 12.42508,5.21378 17.3418,0.66407 v -0.002 c 4.75788,-4.39913 5.13337,-12.0629 0.71679,-16.83789 -4.29062,-4.63881 -11.76549,-5.00429 -16.42187,-0.69726 -4.52276,4.18342 -4.87796,11.47054 -0.67773,16.00976 4.07893,4.40815 11.18237,4.69435 15.60742,0.59961 v -0.002 c 4.28209,-3.95922 4.61945,-10.85876 0.64453,-15.15625 -3.86156,-4.17493 -10.58856,-4.50328 -14.7793,-0.62695 -4.07048,3.76508 -4.39153,10.32485 -0.61133,14.41015 3.67105,3.96734 10.06629,4.22238 14.04883,0.53711 v -0.002 c 3.85388,-3.5633 4.15751,-9.77093 0.58008,-13.63867 -3.4754,-3.75744 -9.53107,-4.05315 -13.30273,-0.56446 -3.66344,3.38858 -3.95102,9.29198 -0.54883,12.96875 3.30394,3.5706 9.05829,3.80112 12.64257,0.48438 v -0.002 c 3.4685,-3.20696 3.74117,-8.79442 0.52149,-12.27539 -3.12786,-3.38169 -8.5762,-3.64763 -11.9707,-0.50781 -3.29709,3.04972 -3.55806,8.36278 -0.4961,11.67188 2.97355,3.21354 8.15305,3.42061 11.37891,0.43554 v -0.002 c 3.12164,-2.88627 3.36842,-7.914 0.4707,-11.04687 -2.81507,-3.04353 -7.72034,-3.28287 -10.77539,-0.45704 -2.96738,2.74475 -3.20108,7.52572 -0.44531,10.50391 2.67619,2.89219 7.33892,3.07914 10.24219,0.39258 v -0.002 c 2.80948,-2.59765 3.02982,-7.12378 0.42187,-9.94336 -2.53357,-2.73918 -6.94772,-2.95341 -9.69726,-0.41016 -2.67065,2.47027 -2.88059,6.77276 -0.4004,9.45312 2.40858,2.60297 6.60386,2.77143 9.2168,0.35352 v -0.002 c 2.52853,-2.33788 2.72801,-6.4116 0.38086,-8.94922 -2.28021,-2.46526 -6.25197,-2.65807 -8.72656,-0.36914 -2.40358,2.22324 -2.5935,6.09548 -0.36133,8.50781 2.16772,2.34267 5.94327,2.49447 8.29492,0.31836 v -0.002 c 2.27568,-2.10409 2.45423,-5.76887 0.3418,-8.05274 -2.05219,-2.21873 -5.62639,-2.39402 -7.85352,-0.33398 -2.16322,2.00092 -2.33317,5.4871 -0.32421,7.6582 1.95094,2.1084 5.34835,2.24366 7.46484,0.28516 2.04811,-1.89368 2.20978,-5.19257 0.30859,-7.24805 -1.84697,-1.99686 -5.06589,-2.15481 -7.07031,-0.30078 -1.9469,1.80083 -2.09908,4.93859 -0.29102,6.89258 1.75585,1.89756 4.81392,2.02046 6.71875,0.25781 v -0.002 c 1.84331,-1.70432 1.98842,-4.67351 0.27735,-6.52344 -1.66228,-1.79717 -4.55735,-1.93816 -6.36133,-0.26953 -1.75221,1.62074 -1.89093,4.44453 -0.26367,6.20312 1.58026,1.70781 4.33252,1.81686 6.04687,0.23047 1.65897,-1.53388 1.78997,-4.20616 0.25,-5.87109 -1.49604,-1.61746 -4.10298,-1.74591 -5.72656,-0.24414 -1.57699,1.45867 -1.70086,4.00125 -0.23633,5.58398 1.42224,1.53703 3.90044,1.63478 5.44336,0.20703 1.49307,-1.38049 1.61058,-3.78671 0.22461,-5.28515 -1.34644,-1.45571 -3.69307,-1.57034 -5.1543,-0.21875 -1.41928,1.3128 -1.53096,3.60093 -0.21289,5.02539 1.28002,1.38332 3.50982,1.47247 4.89844,0.1875 1.34377,-1.24245 1.44854,-3.40726 0.20117,-4.75586 -1.2118,-1.31014 -3.32162,-1.4137 -4.63672,-0.19727 -1.27736,1.18153 -1.37767,3.23948 -0.1914,4.52149 1.15201,1.24499 3.15844,1.32639 4.4082,0.16992 v -0.002 c 1.20939,-1.1182 1.30428,-3.06556 0.18164,-4.2793 -1.09062,-1.17913 -2.99024,-1.27252 -4.17383,-0.17774 -1.14962,1.06338 -1.24147,2.91651 -0.17382,4.07032 1.03681,1.12049 2.84396,1.19317 3.96875,0.15234 v -0.002 c 1.08845,-1.00638 1.17443,-2.7592 0.16406,-3.85157 -0.98156,-1.06121 -2.69258,-1.14546 -3.75781,-0.16015 -1.03467,0.95703 -1.11518,2.62563 -0.1543,3.66406 0.93313,1.00845 2.558,1.07347 3.57031,0.13672 0.97961,-0.90574 1.05582,-2.48562 0.14649,-3.46875 -0.88341,-0.95509 -2.42216,-1.02936 -3.38086,-0.14258 -0.9312,0.86133 -1.00347,2.36229 -0.13868,3.29688 0.83982,0.9076 2.30182,0.96611 3.2129,0.12304 0.88164,-0.81516 0.95121,-2.23627 0.13281,-3.12109 -0.79506,-0.85958 -2.18014,-0.92701 -3.04297,-0.12891 -0.83808,0.7752 -0.90331,2.12567 -0.125,2.9668 0.75583,0.81684 2.07065,0.87009 2.89062,0.11133 v -0.002 c 0.79348,-0.73366 0.85766,-2.01031 0.1211,-2.80664 -0.71556,-0.77363 -1.96368,-0.83548 -2.74024,-0.11719 -0.75426,0.69767 -0.81376,1.9129 -0.11328,2.66992 0.68025,0.73515 1.86555,0.7825 2.60352,0.0996 0.71413,-0.66029 0.77032,-1.81064 0.10742,-2.52734 -0.644,-0.69626 -1.76595,-0.74998 -2.46484,-0.10352 -0.67885,0.62791 -0.732,1.72103 -0.10157,2.40234 0.61223,0.66164 1.67958,0.70445 2.34375,0.0899 0.64272,-0.59426 0.69232,-1.63036 0.0957,-2.27539 -0.5796,-0.62664 -1.58975,-0.67557 -2.21875,-0.0937 -0.61096,0.56511 -0.65919,1.54892 -0.0918,2.16211 0.551,0.59547 1.51162,0.63517 2.10937,0.082 v -0.002 c 0.57845,-0.53483 0.62485,-1.46634 0.0879,-2.04687 -0.52163,-0.56397 -1.43194,-0.60762 -1.99804,-0.084 -0.54986,0.50861 -0.59268,1.39345 -0.082,1.94532 0.4959,0.53593 1.36045,0.57204 1.89843,0.0742 0.52061,-0.48135 0.56139,-1.32128 0.0781,-1.84375 -0.46948,-0.50758 -1.28738,-0.54745 -1.79688,-0.0762 -0.49487,0.45775 -0.5338,1.25528 -0.0742,1.75196 0.44631,0.48233 1.22284,0.51445 1.70703,0.0664 0.46854,-0.43321 0.50524,-1.18797 0.0703,-1.6582 -0.42253,-0.45682 -1.15864,-0.49446 -1.61719,-0.0703 -0.44538,0.41197 -0.48003,1.13111 -0.0664,1.57812 0.40168,0.4341 1.10134,0.46183 1.53711,0.0586 0.42168,-0.3899 0.45589,-1.06899 0.0645,-1.49219 -0.38028,-0.41113 -1.04434,-0.44423 -1.45703,-0.0625 -0.40085,0.37077 -0.43086,1.01566 -0.0586,1.41797 0.36152,0.39069 0.99063,0.4176 1.38282,0.0547 0.37951,-0.35091 0.40893,-0.96287 0.0566,-1.34376 -0.34225,-0.37001 -0.93913,-0.40019 -1.31055,-0.0566 -0.36076,0.3337 -0.38777,0.91527 -0.0527,1.27735 0.32536,0.35162 0.89117,0.37545 1.24414,0.0488 0.34156,-0.31582 0.36784,-0.86619 0.0508,-1.20899 -0.30803,-0.33302 -0.84346,-0.35998 -1.17774,-0.0508 -0.32469,0.30033 -0.35036,0.82452 -0.0488,1.15039 0.29283,0.31646 0.80343,0.33693 1.1211,0.043 v -0.002 c 0.30741,-0.28423 0.33028,-0.77938 0.0449,-1.08789 -0.27722,-0.29972 -0.7597,-0.3232 -1.06055,-0.0449 -0.29221,0.2703 -0.31435,0.74188 -0.043,1.03516 0.26355,0.28481 0.72191,0.30363 1.00782,0.0391 0.27667,-0.25581 0.29784,-0.7028 0.041,-0.98047 -0.2495,-0.26974 -0.68431,-0.28951 -0.95508,-0.0391 -0.26299,0.24327 -0.2833,0.66573 -0.0391,0.92969 0.23719,0.25633 0.65089,0.27326 0.9082,0.0352 0.24899,-0.23023 0.26826,-0.63097 0.0371,-0.88086 -0.22454,-0.24278 -0.61568,-0.26252 -0.85937,-0.0371 -0.23669,0.21894 -0.25497,0.60033 -0.0352,0.83789 0.21347,0.23069 0.58483,0.24554 0.81641,0.0312 0.22409,-0.20721 0.24123,-0.56806 0.0332,-0.79297 -0.20209,-0.21848 -0.55411,-0.23607 -0.77343,-0.0332 -0.21302,0.19704 -0.22909,0.5401 -0.0313,0.7539 0.19213,0.20762 0.52595,0.22216 0.73438,0.0293 0.20169,-0.18649 0.21847,-0.51243 0.0312,-0.71484 -0.18188,-0.19667 -0.49792,-0.21188 -0.69531,-0.0293 -0.19174,0.17734 -0.20735,0.48726 -0.0293,0.67969 0.17291,0.18687 0.47453,0.19897 0.66211,0.0254 0.18153,-0.16784 0.19585,-0.4604 0.0273,-0.64258 -0.16369,-0.17697 -0.4493,-0.19167 -0.62695,-0.0274 -0.17257,0.15961 -0.18564,0.43815 -0.0254,0.61133 0.15562,0.1682 0.42493,0.17771 0.59375,0.0215 0.16335,-0.15106 0.17704,-0.41417 0.0254,-0.57813 -0.14733,-0.15927 -0.40457,-0.17132 -0.56445,-0.0234 -0.15529,0.14365 -0.16766,0.39492 -0.0234,0.55079 0.14006,0.15135 0.38517,0.16013 0.53711,0.0195 0.14702,-0.13595 0.15797,-0.37197 0.0215,-0.51953 -0.13259,-0.14337 -0.36391,-0.15459 -0.50781,-0.0215 -0.13978,0.12928 -0.14933,0.35386 -0.0195,0.49414 0.12605,0.13623 0.34372,0.14412 0.48047,0.0176 0.13233,-0.12235 0.14432,-0.33399 0.0215,-0.4668 -0.11933,-0.12902 -0.32752,-0.13932 -0.45703,-0.0195 -0.12578,0.11636 -0.13635,0.31907 -0.0195,0.44531 0.11345,0.1226 0.31052,0.12951 0.43359,0.0156 0.11909,-0.11012 0.13009,-0.30235 0.0195,-0.42188 -0.1074,-0.11613 -0.29556,-0.12538 -0.41211,-0.0176 -0.11321,0.10471 -0.12272,0.28872 -0.0176,0.40234 0.1021,0.11034 0.27986,0.11617 0.39062,0.0137 0.1072,-0.0991 0.11708,-0.27133 0.0176,-0.3789 -0.0967,-0.1045 -0.26619,-0.11266 -0.37109,-0.0156 -0.10188,0.0943 -0.1083,0.25907 -0.0137,0.36133 0.0919,0.0993 0.25187,0.10592 0.35156,0.0137 0.0965,-0.0892 0.10322,-0.24498 0.0137,-0.3418 -0.087,-0.0941 -0.23762,-0.10295 -0.33203,-0.0156 -0.0917,0.0848 -0.10079,0.23414 -0.0156,0.32617 0.0827,0.0894 0.22669,0.0947 0.31641,0.0117 0.0868,-0.0803 0.0943,-0.21951 0.0137,-0.30664 -0.0783,-0.0846 -0.21386,-0.0923 -0.29883,-0.0137 -0.0825,0.0763 -0.0903,0.21013 -0.0137,0.29297 0.0744,0.0804 0.20441,0.0845 0.28516,0.01 0.0781,-0.0722 0.0842,-0.19697 0.0117,-0.27539 -0.0705,-0.0762 -0.19306,-0.0824 -0.26953,-0.0117 -0.0743,0.0687 -0.0807,0.18717 -0.0117,0.26172 0.067,0.0724 0.18514,0.077 0.25781,0.01 0.0703,-0.065 0.075,-0.17747 0.01,-0.24805 -0.0634,-0.0686 -0.17337,-0.0734 -0.24219,-0.01 -0.0668,0.0618 -0.0718,0.16924 -0.01,0.23633 0.0603,0.0652 0.16507,0.0683 0.23047,0.008 0.0633,-0.0585 0.0685,-0.15913 0.01,-0.22265 -0.0571,-0.0617 -0.15681,-0.0671 -0.21875,-0.01 -0.0602,0.0556 -0.0656,0.15251 -0.01,0.21289 0.0543,0.0587 0.15012,0.0623 0.20898,0.008 0.057,-0.0527 0.0607,-0.14401 0.008,-0.20118 -0.0514,-0.0555 -0.14152,-0.0594 -0.19727,-0.008 -0.0541,0.0501 -0.0581,0.13706 -0.008,0.19141 0.0488,0.0528 0.13452,0.0549 0.1875,0.006 0.0513,-0.0474 0.0554,-0.13019 0.008,-0.18164 -0.0462,-0.05 -0.12756,-0.0523 -0.17773,-0.006 -0.0487,0.0451 -0.0531,0.12296 -0.008,0.17187 0.044,0.0475 0.12224,0.05 0.16993,0.006 0.0461,-0.0427 0.0487,-0.1158 0.006,-0.16211 -0.0416,-0.045 -0.11305,-0.0496 -0.15821,-0.008 -0.0438,0.0406 -0.0485,0.11223 -0.008,0.15625 0.0396,0.0427 0.10943,0.0456 0.15234,0.006 0.0415,-0.0384 0.0444,-0.10676 0.006,-0.14844 -0.0374,-0.0405 -0.10389,-0.0435 -0.14453,-0.006 -0.0395,0.0365 -0.0425,0.10101 -0.006,0.14063 0.0356,0.0385 0.0981,0.0397 0.13672,0.004 0.0374,-0.0345 0.0406,-0.0934 0.006,-0.13086 -0.0337,-0.0364 -0.0923,-0.0397 -0.1289,-0.006 -0.0355,0.0329 -0.0389,0.0894 -0.006,0.125 0.032,0.0346 0.0883,0.038 0.12304,0.006 0.0336,-0.0311 0.0371,-0.0854 0.006,-0.11914 -0.0303,-0.0328 -0.0843,-0.0363 -0.11719,-0.006 -0.032,0.0296 -0.0336,0.0812 -0.004,0.11329 0.0288,0.0312 0.0781,0.0329 0.10937,0.004 0.0303,-0.028 0.034,-0.077 0.006,-0.10742 -0.0273,-0.0295 -0.0758,-0.0313 -0.10547,-0.004 -0.0288,0.0266 -0.0306,0.0727 -0.004,0.10157 0.0259,0.028 0.0714,0.0299 0.0996,0.004 0.0272,-0.0252 0.0292,-0.0684 0.004,-0.0957 -0.0246,-0.0266 -0.0671,-0.0286 -0.0937,-0.004 -0.0259,0.024 -0.0279,0.0658 -0.004,0.0918 0.0233,0.0252 0.0626,0.0273 0.0879,0.004 0.0245,-0.0227 0.0267,-0.0633 0.004,-0.0879 -0.0221,-0.0239 -0.06,-0.0261 -0.084,-0.004 -0.0233,0.0216 -0.0256,0.0606 -0.004,0.084 0.021,0.0227 0.0573,0.0231 0.0801,0.002 v -0.002 c -0.0217,0.0201 -0.0581,0.0197 -0.0781,-0.002 -0.0206,-0.0223 -0.0183,-0.0596 0.004,-0.0801 0.0229,-0.0211 0.059,-0.0188 0.0801,0.004 0.0217,0.0234 0.0195,0.0605 -0.004,0.082 -0.0241,0.0223 -0.0618,0.0221 -0.084,-0.002 -0.0229,-0.0247 -0.0207,-0.0651 0.004,-0.0879 0.0254,-0.0235 0.0664,-0.0214 0.0898,0.004 0.0241,0.026 0.022,0.0678 -0.004,0.0918 -0.0268,0.0248 -0.071,0.0228 -0.0957,-0.004 -0.0254,-0.0275 -0.0235,-0.0704 0.004,-0.0957 0.0282,-0.0261 0.0736,-0.0242 0.0996,0.004 0.0268,0.0289 0.0249,0.0749 -0.004,0.10156 -0.0298,0.0275 -0.078,0.0258 -0.10547,-0.004 -0.0283,-0.0305 -0.0246,-0.0793 0.006,-0.10742 0.0313,-0.029 0.0805,-0.0273 0.10938,0.004 0.0297,0.0321 0.0281,0.0837 -0.004,0.11328 -0.0331,0.0306 -0.0867,0.0291 -0.11719,-0.004 -0.0314,-0.0339 -0.028,-0.0878 0.006,-0.11914 0.0348,-0.0322 0.089,-0.0308 0.1211,0.004 0.033,0.0357 0.0317,0.0941 -0.004,0.12695 -0.0368,0.034 -0.097,0.0308 -0.13086,-0.006 -0.0349,-0.0377 -0.0317,-0.098 0.006,-0.13281 0.0387,-0.0358 0.10108,-0.0327 0.13672,0.006 0.0367,0.0397 0.0337,0.10407 -0.006,0.14062 -0.0409,0.0378 -0.10689,0.0348 -0.14453,-0.006 -0.0388,-0.0419 -0.0359,-0.10982 0.006,-0.14843 0.043,-0.0398 0.11273,-0.037 0.15234,0.006 0.0408,0.0441 0.0381,0.11563 -0.006,0.15624 -0.0454,0.042 -0.11832,0.0394 -0.16016,-0.006 -0.0431,-0.0466 -0.0405,-0.12116 0.006,-0.16407 0.0478,-0.0442 0.12396,-0.0398 0.16797,0.008 0.0453,0.049 0.0429,0.12675 -0.006,0.17187 -0.0504,0.0467 -0.13124,0.0444 -0.17773,-0.006 -0.0479,-0.0517 -0.0437,-0.13591 0.008,-0.18359 0.0531,-0.0491 0.13665,-0.0451 0.18555,0.008 0.0503,0.0544 0.0464,0.14127 -0.008,0.19141 -0.056,0.0518 -0.14562,0.05 -0.19727,-0.006 -0.0532,-0.0575 -0.0495,-0.15015 0.008,-0.20313 0.059,-0.0546 0.15465,-0.0509 0.20899,0.008 0.0559,0.0605 0.0505,0.15719 -0.01,0.2129 -0.0623,0.0576 -0.16136,0.0542 -0.21875,-0.008 -0.0591,-0.0639 -0.0539,-0.16574 0.01,-0.22461 0.0655,-0.0606 0.1701,-0.0555 0.23047,0.01 0.0621,0.0672 0.0572,0.17443 -0.01,0.23633 -0.0692,0.064 -0.18037,0.0591 -0.24414,-0.01 -0.0657,-0.071 -0.0609,-0.1846 0.01,-0.25 0.0728,-0.0673 0.19073,-0.0608 0.25781,0.0117 0.0691,0.0746 0.0627,0.1949 -0.0117,0.26367 -0.0769,0.0711 -0.20063,0.0649 -0.27149,-0.0117 -0.0729,-0.0788 -0.0668,-0.20467 0.0117,-0.27734 0.0809,-0.0748 0.21063,-0.0689 0.28516,0.0117 0.0767,0.0829 0.0709,0.21655 -0.0117,0.29297 -0.0854,0.079 -0.22205,0.0734 -0.30078,-0.0117 -0.0811,-0.0876 -0.0756,-0.22785 0.0117,-0.3086 0.0899,-0.0831 0.23554,-0.0759 0.31836,0.0137 0.0852,0.0922 0.0782,0.23931 -0.0137,0.32422 -0.0949,0.0878 -0.24847,0.0828 -0.33594,-0.0117 -0.0901,-0.0973 -0.0814,-0.25404 0.0156,-0.34375 0.0999,-0.0924 0.25955,-0.0858 0.35157,0.0137 0.0947,0.1024 0.0864,0.26699 -0.0156,0.36133 -0.10544,0.0976 -0.2739,0.0914 -0.37109,-0.0137 -0.10007,-0.10816 -0.0922,-0.28117 0.0156,-0.38085 0.11095,-0.10265 0.28839,-0.0949 0.39063,0.0156 0.10525,0.11378 0.0958,0.29752 -0.0176,0.40234 -0.11716,0.10841 -0.30412,0.10109 -0.41211,-0.0156 -0.11121,-0.12018 -0.10217,-0.31307 0.0176,-0.42383 0.12328,-0.11404 0.32195,-0.10524 0.43554,0.0176 0.11692,0.12642 0.10644,0.32884 -0.0195,0.44531 -0.13017,0.12047 -0.33899,0.1121 -0.45898,-0.0176 -0.12356,-0.13353 -0.11352,-0.34763 0.0195,-0.4707 0.13698,-0.12672 0.3562,-0.11498 0.48242,0.0215 0.12993,0.14047 0.12043,0.36473 -0.0195,0.49414 -0.14464,0.13384 -0.3784,0.12456 -0.51172,-0.0195 -0.13727,-0.14836 -0.12439,-0.38669 0.0234,-0.52343 0.1522,-0.14077 0.39687,-0.12819 0.53711,0.0234 0.14437,0.15608 0.13208,0.407 -0.0234,0.55079 -0.16071,0.14872 -0.42022,0.1386 -0.56836,-0.0215 -0.15253,-0.16485 -0.13886,-0.4301 0.0254,-0.58203 0.16911,-0.15641 0.43988,-0.14308 0.59571,0.0254 0.16039,0.17342 0.1474,0.45156 -0.0254,0.61133 -0.17856,0.16523 -0.46626,0.15444 -0.63085,-0.0234 -0.1695,-0.18317 -0.15321,-0.47767 0.0293,-0.64648 0.1879,-0.17381 0.48897,-0.15985 0.66211,0.0273 0.17824,0.19268 0.1627,0.50217 -0.0293,0.67969 -0.19841,0.18358 -0.51634,0.17225 -0.69922,-0.0254 -0.18831,-0.20353 -0.17349,-0.53118 0.0293,-0.71875 0.20878,-0.1931 0.54395,-0.17674 0.73633,0.0312 0.19804,0.21409 0.18208,0.55861 -0.0312,0.75586 -0.22045,0.204 -0.57414,0.19031 -0.77734,-0.0293 -0.20925,-0.22614 -0.19212,-0.59042 0.0332,-0.79883 0.23197,-0.21455 0.60461,-0.19594 0.81836,0.0352 0.22002,0.23788 0.20187,0.61873 -0.0352,0.83789 v 0.002 c -0.24494,0.22665 -0.63945,0.2108 -0.86523,-0.0332 -0.23251,-0.25127 -0.21324,-0.65515 0.0371,-0.88672 0.25775,-0.23841 0.67265,-0.21772 0.91015,0.0391 0.24448,0.26432 0.22235,0.68814 -0.041,0.93164 -0.27216,0.25184 -0.70811,0.23401 -0.95899,-0.0371 -0.25833,-0.27918 -0.23715,-0.72707 0.041,-0.98437 0.28639,-0.2649 0.74588,-0.24234 1.00977,0.043 0.27163,0.29368 0.24966,0.76459 -0.043,1.03515 -0.3024,0.27983 -0.78766,0.26023 -1.06641,-0.041 -0.28703,-0.3102 -0.26415,-0.80787 0.0449,-1.09375 0.31821,-0.29434 0.82984,-0.26818 1.12305,0.0488 0.30182,0.32631 0.27632,0.84976 -0.0488,1.15039 -0.336,0.31092 -0.87583,0.28979 -1.18555,-0.0449 -0.31892,-0.34466 -0.29263,-0.89914 0.0508,-1.21679 0.35356,-0.32704 0.92225,-0.2995 1.24804,0.0527 0.33536,0.36257 0.30659,0.94527 -0.0547,1.2793 -0.37334,0.34546 -0.97228,0.32112 -1.31641,-0.0508 -0.35436,-0.38297 -0.32494,-0.99666 0.0566,-1.34961 0.39285,-0.36338 1.02277,-0.33278 1.38477,0.0586 0.37261,0.40286 0.34281,1.04878 -0.0586,1.41992 -0.41481,0.38385 -1.08247,0.35855 -1.46484,-0.0547 -0.39374,-0.42552 -0.35952,-1.10979 0.0644,-1.50196 0.4365,-0.40375 1.13685,-0.36844 1.53906,0.0664 0.41402,0.44762 0.37961,1.16574 -0.0664,1.57812 -0.46091,0.42651 -1.2021,0.39665 -1.62696,-0.0625 -0.43748,-0.47279 -0.40076,-1.23223 0.0703,-1.66796 0.485,-0.44861 1.26403,-0.41091 1.71093,0.0723 0.46003,0.49735 0.42136,1.2957 -0.0742,1.75391 v 0.002 c -0.51212,0.47389 -1.33459,0.43985 -1.80664,-0.0703 -0.4861,-0.52533 -0.4453,-1.36937 0.0781,-1.85352 0.53889,-0.49846 1.40383,-0.45482 1.90039,0.082 0.51113,0.55262 0.4686,1.44011 -0.082,1.94922 -0.56902,0.52655 -1.4833,0.48872 -2.00781,-0.0781 -0.54011,-0.5837 -0.49369,-1.52065 0.0879,-2.0586 0.59876,-0.55384 1.55959,-0.50666 2.11133,0.0898 0.56792,0.61401 0.52002,1.60033 -0.0918,2.16601 -0.63224,0.58505 -1.64768,0.54389 -2.23047,-0.0859 -0.60012,-0.64856 -0.54855,-1.68939 0.0977,-2.28711 0.66529,-0.61538 1.73266,-0.56318 2.3457,0.0996 0.63103,0.68224 0.57628,1.77771 -0.10352,2.40625 -0.70249,0.65005 -1.82901,0.60605 -2.47656,-0.0937 -0.6668,-0.72062 -0.61058,-1.87884 0.10742,-2.54297 0.73922,-0.68376 1.92628,-0.6251 2.60742,0.11133 0.70115,0.75804 0.6401,1.97545 -0.11523,2.67382 -0.78054,0.72228 -2.03246,0.6721 -2.75195,-0.10547 -0.74089,-0.80068 -0.67864,-2.08629 0.11914,-2.82421 0.82135,-0.75973 2.13965,-0.69521 2.89648,0.12304 0.77906,0.84228 0.7123,2.19473 -0.12695,2.97071 -0.86727,0.80253 -2.25916,0.74677 -3.05859,-0.11719 -0.82321,-0.88965 -0.75361,-2.31876 0.13281,-3.13867 0.91261,-0.84414 2.37782,-0.77245 3.21875,0.13671 0.86561,0.93586 0.79188,2.43859 -0.14063,3.30079 -0.96363,0.8917 -2.51017,0.83105 -3.39843,-0.12891 -0.91468,-0.9885 -0.83843,-2.57531 0.14648,-3.48633 1.01401,-0.93793 2.64181,-0.85979 3.57617,0.15039 0.96179,1.03985 0.87987,2.70998 -0.15625,3.66797 -1.0707,0.99079 -2.78843,0.92209 -3.77539,-0.14453 -1.01631,-1.09833 -0.93028,-2.8608 0.16406,-3.87305 1.12668,-1.04215 2.93448,-0.95446 3.97266,0.16797 1.06866,1.15538 0.97741,3.00978 -0.17383,4.07422 -1.18967,1.10087 -3.09869,1.02498 -4.19531,-0.16016 -1.12923,-1.22037 -1.0343,-3.17997 0.18164,-4.30468 1.25187,-1.15795 3.26248,-1.05965 4.41602,0.1875 1.18739,1.28375 1.08579,3.34463 -0.19336,4.52734 -1.32186,1.22319 -3.4456,1.13908 -4.66407,-0.17773 -1.2547,-1.35597 -1.14792,-3.53157 0.20313,-4.78125 1.39096,-1.28661 3.62454,-1.17869 4.90625,0.20703 1.31933,1.42639 1.20644,3.71713 -0.21484,5.03125 -1.46874,1.3591 -3.82584,1.2639 -5.17969,-0.19922 -1.39411,-1.50663 -1.27656,-3.92397 0.22461,-5.3125 1.54551,-1.42956 4.02705,-1.30922 5.45117,0.23047 1.46592,1.58488 1.34092,4.12971 -0.23828,5.58984 -1.63193,1.51011 -4.25158,1.40499 -5.75586,-0.2207 -1.54902,-1.67404 -1.41796,-4.36148 0.25,-5.9043 1.71724,-1.5884 4.47234,-1.45295 6.05469,0.25781 1.6288,1.76099 1.491,4.58662 -0.26368,6.20899 v 0.002 c -1.81325,1.6779 -4.72505,1.56219 -6.39648,-0.24414 -1.72113,-1.86004 -1.57399,-4.8463 0.2793,-6.56055 1.90804,-1.76488 4.97035,-1.61569 6.72851,0.28516 1.80978,1.95665 1.65667,5.09776 -0.29297,6.90039 -2.01472,1.86434 -5.25028,1.73555 -7.10742,-0.27148 -1.91236,-2.06671 -1.75061,-5.38435 0.3086,-7.28907 2.12004,-1.96098 5.52304,-1.79564 7.47656,0.31641 2.01086,2.17405 1.84009,5.66504 -0.32617,7.66797 -2.23858,2.07148 -5.833,1.92925 -7.89649,-0.30078 -2.12485,-2.29635 -1.94426,-5.98326 0.34375,-8.09961 2.35561,-2.17888 6.13607,-1.99516 8.30664,0.35156 2.2343,2.41561 2.04563,6.29406 -0.36133,8.51953 -2.48731,2.30165 -6.48262,2.14383 -8.77539,-0.33398 -2.36094,-2.5515 -2.15942,-6.6485 0.38282,-9 2.61734,-2.42097 6.81871,-2.21685 9.23046,0.39062 2.48256,2.68402 2.27206,6.99405 -0.40234,9.4668 -2.76368,2.55739 -7.20248,2.38008 -9.75,-0.37305 -2.62327,-2.83499 -2.40088,-7.38527 0.42383,-9.99804 2.90816,-2.68997 7.57613,-2.46165 10.25586,0.43554 2.75839,2.98224 2.52428,7.76813 -0.44727,10.51563 v 0.002 c -3.07075,2.84154 -8.00145,2.64497 -10.83203,-0.41406 -2.91474,-3.14999 -2.66786,-8.20825 0.4707,-11.11133 3.23129,-2.98885 8.41902,-2.73472 11.39649,0.48437 3.06488,3.3136 2.80368,8.63278 -0.49805,11.68555 v 0.002 c -3.41195,3.15727 -8.89007,2.93799 -12.03515,-0.46093 -3.23861,-3.49999 -2.96386,-9.12006 0.52343,-12.34571 3.59032,-3.32094 9.35381,-3.03771 12.66211,0.53907 3.40542,3.68177 3.11585,9.59045 -0.55273,12.98242 v 0.002 c -3.79106,3.50808 -9.87851,3.26486 -13.37305,-0.51172 -3.59845,-3.88887 -3.29469,-10.13079 0.58008,-13.71484 3.98924,-3.68994 10.39442,-3.37849 14.07031,0.5957 3.7838,4.09087 3.46292,10.65693 -0.61328,14.42578 v 0.002 c -4.21228,3.89786 -10.97656,3.62979 -14.85937,-0.56641 -3.99828,-4.32098 -3.66077,-11.2599 0.64453,-15.24219 4.43249,-4.09993 11.54849,-3.75171 15.63281,0.66407 4.20422,4.5454 3.84747,11.84168 -0.68164,16.02929 v 0.002 c -4.68031,4.33095 -12.19553,4.03158 -16.50977,-0.63086 -4.44253,-4.80109 -4.06686,-12.50884 0.7168,-16.9336 4.92499,-4.55548 12.831,-4.17008 17.36914,0.73633 4.67136,5.05045 4.27649,13.15764 -0.75586,17.81055 v 0.002 c -5.20035,4.81218 -13.5521,4.47932 -18.3457,-0.70117 -4.93614,-5.33454 -4.51831,-13.89806 0.79687,-18.81445 5.47222,-5.06166 14.25646,-4.63322 19.29883,0.81835 5.1904,5.61162 4.75166,14.61917 -0.83984,19.78907 v 0.002 c -5.77817,5.34686 -15.05854,4.97681 -20.38477,-0.7793 -5.4846,-5.92726 -5.01904,-15.44163 0.88672,-20.90429 6.08024,-5.62406 15.84072,-5.1491 21.44336,0.9082 5.76711,6.23512 5.27723,16.24395 -0.93555,21.98828 z M 232.51953,220.8457 c 0.0205,-0.0206 0.0239,-0.0546 0.004,-0.0762 -0.0189,-0.0204 -0.0506,-0.0188 -0.0723,-0.002 0.0206,-0.0174 0.0519,-0.016 0.0703,0.004 0.0195,0.0211 0.0191,0.0548 -0.002,0.0742 z m -0.0723,-0.0781 c -0.0199,0.0184 -0.0183,0.0492 -0.002,0.0703 -0.017,-0.0201 -0.0155,-0.0523 0.004,-0.0703 0,0 -0.002,0 -0.002,0 z m 0.004,0.002 c -0.0178,0.0165 -0.0164,0.0454 -0.002,0.0644 -0.0151,-0.0181 -0.0135,-0.0464 0.004,-0.0625 0.0185,-0.0171 0.0474,-0.0145 0.0645,0.004 0.0176,0.019 0.0169,0.0489 -0.002,0.0664 -0.0195,0.0181 -0.0523,0.0175 -0.0703,-0.002 0,0 0,0.002 0,0.002 0.0189,0.0205 0.0517,0.021 0.0723,0.002 0.0198,-0.0184 0.0204,-0.0504 0.002,-0.0703 -0.0179,-0.0194 -0.0489,-0.0219 -0.0684,-0.004 z m 0.004,0.004 c 0,0 0,0.002 0,0.002 0.0166,-0.0154 0.0433,-0.0146 0.0586,0.002 -0.0163,-0.0159 -0.0417,-0.0196 -0.0586,-0.004 z m 0.0586,0.004 c 0,0 0,0.002 0,0.002 -0.0145,-0.0157 -0.0409,-0.0165 -0.0566,-0.002 -0.0153,0.0142 -0.0162,0.0393 -0.002,0.0547 0,0 -0.002,0 -0.002,0 -0.015,-0.0162 -0.0142,-0.0417 0.002,-0.0566 -0.0155,0.0159 -0.0192,0.0421 -0.004,0.0586 0.0153,0.0166 0.042,0.0173 0.0586,0.002 v -0.002 c 0,0 -0.002,0 -0.002,0 0.0134,-0.0124 0.0124,-0.0343 0.002,-0.0488 0.0108,0.0133 0.008,0.0325 -0.004,0.0449 0,0 0,0.002 0,0.002 -0.0142,0.0132 -0.0357,0.0122 -0.0488,-0.002 -0.0135,-0.0146 -0.0126,-0.0373 0.002,-0.0508 0,0 0.002,0 0.002,0 0,0 0,0.002 0,0.002 0.0129,-0.012 0.0343,-0.01 0.0469,0.002 0,0 0.002,0 0.002,0 0,0 0,-0.002 0,-0.002 0,0 0.002,0 0.002,0 0.0142,0.0154 0.0134,0.0386 -0.002,0.0527 0.014,-0.0145 0.0168,-0.0371 0.004,-0.0527 0.0127,0.0171 0.014,0.0419 -0.002,0.0566 -0.0176,0.0163 -0.0463,0.0156 -0.0625,-0.002 0,0 0,0.002 0,0.002 0.017,0.0184 0.046,0.019 0.0644,0.002 0.0179,-0.0165 0.0186,-0.0445 0.002,-0.0625 0,0 -0.002,0 -0.002,0 z m -0.006,0.006 c -0.0118,-0.0127 -0.0322,-0.0118 -0.0449,0 0.0121,-0.0112 0.0318,-0.0101 0.043,0.002 0,0 0,0.002 0,0.002 0,0 -0.002,0 -0.002,0 0,0 0,0.002 0,0.002 0,0 -0.002,0 -0.002,0 -0.008,-0.009 -0.0219,-0.007 -0.0312,0 0,0 0,0.002 0,0.002 0.008,-0.007 0.02,-0.008 0.0274,0 0,0 0,0.002 0,0.002 0.006,0.008 0.008,0.0203 0,0.0273 0.007,-0.008 0.009,-0.0213 0.002,-0.0293 0.008,0.009 0.009,0.0229 0,0.0312 0,0 -0.002,0 -0.002,0 v -0.002 c 0,0 -0.002,0 -0.002,0 v -0.002 c 0.006,-0.006 0.005,-0.0184 0,-0.0254 -0.007,-0.006 -0.0184,-0.008 -0.0254,-0.002 -0.007,0.006 -0.005,0.018 0,0.0254 -0.006,-0.007 -0.005,-0.017 0.002,-0.0234 0.006,-0.005 0.0154,-0.003 0.0215,0.002 0,0 0,0.002 0,0.002 0,0 -0.002,0 -0.002,0 -0.004,-0.004 -0.009,-0.003 -0.0137,0 0,0 0,0.002 0,0.002 -0.002,0.002 -0.001,0.009 0,0.0117 0.003,0.003 0.007,0.003 0.01,0 -0.002,0.002 -0.005,-6e-4 -0.008,-0.002 0.002,0.002 0.004,0.002 0.006,0 0,0 0,-0.002 0,-0.002 -0.001,0.001 -0.003,0.001 -0.004,0 0,0 -0.002,0 -0.002,0 -0.001,-0.002 3.6e-4,-0.002 0.002,-0.004 0,0 -0.002,0 -0.002,0 0,0 0,-0.002 0,-0.002 0.002,-0.002 0.006,1.4e-4 0.008,0.002 0,0 0,-0.002 0,-0.002 0,0 0.002,0 0.002,0 0,0 0,-0.002 0,-0.002 0,0 0.002,0 0.002,0 0.003,0.004 0.003,0.01 0,0.0137 -0.004,0.004 -0.0115,0.004 -0.0156,0 0.004,0.003 0.0115,0.006 0.0156,0.002 -0.006,0.005 -0.0144,0.005 -0.0195,0 0.005,0.006 0.0157,0.007 0.0215,0.002 0,0 0,0.002 0,0.002 -0.007,0.005 -0.0176,0.004 -0.0234,-0.002 0,0 0,0.002 0,0.002 0.004,0.003 0.009,0.002 0.0137,0.002 -0.006,2e-5 -0.0113,0.004 -0.0156,0 0,0 0,-0.002 0,-0.002 -0.006,-0.009 -0.008,-0.0219 0,-0.0293 -0.009,0.008 -0.0103,0.0222 -0.002,0.0312 -0.009,-0.01 -0.01,-0.0244 0,-0.0332 -0.0101,0.009 -0.0113,0.0251 -0.002,0.0352 -0.01,-0.0107 -0.0106,-0.0273 0,-0.0371 -0.0112,0.0103 -0.0123,0.0279 -0.002,0.0391 0,0 -0.002,0 -0.002,0 0,0 0,0.002 0,0.002 0.0112,0.0121 0.0308,0.0132 0.043,0.002 0,0 0,0.002 0,0.002 h 0.002 c 0.013,-0.0121 0.014,-0.0338 0.002,-0.0469 z m -0.0312,0.0293 c -0.004,-0.005 -0.005,-0.0114 0,-0.0156 -0.005,0.004 -0.006,0.0108 -0.002,0.0156 0,0 0.002,0 0.002,0 z"
       transform="matrix(0.26458333,0,0,0.26458333,-60,-60)" />
  </g>
</svg>
