<?xml version="1.0" encoding="UTF-8" standalone="no"?>
<!-- Created with Inkscape (http://www.inkscape.org/) -->

<svg
   width="57.744278mm"
   height="23.406288mm"
   viewBox="0 0 57.744278 23.406288"
   version="1.1"
   id="svg5"
   xmlns="http://www.w3.org/2000/svg"
   xmlns:svg="http://www.w3.org/2000/svg">
  <defs
     id="defs2" />
  <g
     id="layer1"
     transform="translate(-21.988322,-61.010746)">
    <path
       id="path10899"
       style="font-size:31.631px;line-height:1.25;font-family:'Hasubi Mono';-inkscape-font-specification:'Hasubi Mono';letter-spacing:0px;word-spacing:0px;fill:#15141e;stroke-width:1.13386;stroke-linejoin:bevel"
       d="m 292.95117,230.5918 c -2.18105,0 -4.10363,0.7354 -5.84765,2.25195 -1.71663,1.49272 -2.55469,3.40596 -2.55469,5.9043 l -0.56836,0.57031 h -2.65625 v 2.92969 h 20.02734 v -3.5 c 0,-2.49834 -0.83802,-4.41158 -2.55468,-5.9043 -1.74402,-1.51655 -3.66466,-2.25195 -5.84571,-2.25195 z m -0.002,2.93164 h 0.002 c 1.46819,0 2.74932,0.50641 3.72656,1.47461 1.06009,0.97435 1.61719,2.26446 1.61719,3.75 l -0.5625,0.57031 h -9.5664 l -0.56836,-0.57031 c 0,-1.47701 0.50457,-2.7624 1.48437,-3.74219 l 0.0156,-0.0137 c 1.05397,-0.96617 3.85157,0.008 3.85156,-1.46875 z m -126.91002,16.91015 -0.62891,0.62891 v 58.98255 l -0.16797,0.39844 -0.95312,0.95899 -0.40625,0.16211 h -20.8517 l -0.62695,0.6289 v 5.33763 l 0.62695,0.62109 h 51.17187 l 0.62696,-0.62109 v -5.24192 l -0.64258,-0.72461 h -19.40777 l -0.40625,-0.16211 -0.95313,-0.95899 -0.16992,-0.39844 V 251.0625 l -0.61914,-0.62891 z m 78.43665,0 -0.62695,0.62891 v 52.28724 c 0,2.94272 -0.55802,5.08924 -1.8457,6.37696 -1.28769,1.28771 -3.43618,1.83789 -6.37891,1.83789 h -31.3821 l -0.62696,0.6289 v 5.33763 l 0.62696,0.62109 h 36.10547 c 3.73111,0 6.85904,-0.13879 8.63826,-1.91797 1.77921,-1.77919 2.70312,-3.419 2.70312,-7.15012 V 251.0625 l -0.6289,-0.62891 z m 43.55204,0 -0.63477,0.62891 v 67.25377 l 0.62891,0.6211 h 6.59209 l 0.62696,-0.6211 V 251.0625 l -0.62696,-0.62891 z m -180.91307,29.04493 -0.62109,0.61914 v 3.5957 l -0.16992,0.39844 -0.95117,1.74414 -0.39844,0.16211 H 92.534744 c -3.719433,0 -6.443066,1.01534 -7.591385,2.95312 -1.209388,2.04084 -1.83789,3.89834 -1.83789,7.17383 v 12.95912 c 0,3.27549 0.628426,4.08181 1.83789,6.12278 1.148395,1.93791 3.440916,2.94531 7.160157,2.94531 H 104.9043 l 0.61914,-0.62109 v -2.03711 l 0.56836,-0.56836 h 0.96093 l 0.46485,0.24414 c 1.05353,0.55332 1.44649,1.71064 2.32422,2.22266 0.8499,0.49576 1.94776,0.75976 3.30859,0.75976 h 20.80078 l 0.62891,-0.62109 v -5.33763 l -0.62891,-0.6289 h -14.26573 c -1.97593,0 -3.39049,-0.2831 -4.22852,-1.1211 -0.83802,-0.83802 -1.1064,-2.25462 -1.12305,-4.23047 v -26.11536 l -0.61914,-0.61914 z m -11.542185,12.16601 h 9.401565 l 0.39844,0.16992 0.95117,0.95117 0.16992,0.39844 v 16.88099 l -0.16992,0.39844 -0.95117,0.95899 -0.39844,0.16211 h -9.401565 c -1.975918,0 -3.392446,-0.28309 -4.230469,-1.1211 -0.838016,-0.83802 -1.121094,-2.25455 -1.121094,-4.23047 v -9.21693 c 0,-1.97591 0.283093,-3.39244 1.121094,-4.23047 0.838027,-0.83801 2.254551,-1.12109 4.230469,-1.12109 z m 11.087525,24.41784 v 0.21484 h 0.37109 c -0.0593,-0.0759 -0.12738,-0.1372 -0.18555,-0.21484 z m 0.52539,0.39258 c 0.68726,0.94578 1.47477,1.68889 2.37304,2.21289 0.2588,0.15096 0.53808,0.27844 0.83203,0.38867 -0.38198,-0.2387 -0.78202,-0.48809 -1.11718,-0.6836 -0.79298,-0.46257 -1.46491,-1.14979 -2.08789,-1.91796 z"
       transform="scale(0.26458333)" />
  </g>
</svg>
