<?xml version="1.0" encoding="UTF-8" standalone="no"?>
<!-- Created with Inkscape (http://www.inkscape.org/) -->

<svg
   version="1.1"
   id="svg2"
   width="512"
   height="512"
   viewBox="0 0 512 512"
   sodipodi:docname="Favicon.svg"
   inkscape:version="1.1.2 (0a00cf5339, 2022-02-04)"
   xmlns:inkscape="http://www.inkscape.org/namespaces/inkscape"
   xmlns:sodipodi="http://sodipodi.sourceforge.net/DTD/sodipodi-0.dtd"
   xmlns="http://www.w3.org/2000/svg"
   xmlns:svg="http://www.w3.org/2000/svg">
  <defs
     id="defs6" />
  <sodipodi:namedview
     id="namedview4"
     pagecolor="#ffffff"
     bordercolor="#666666"
     borderopacity="1.0"
     inkscape:pageshadow="2"
     inkscape:pageopacity="0.0"
     inkscape:pagecheckerboard="0"
     showgrid="false"
     inkscape:zoom="0.070548181"
     inkscape:cx="-5386.3898"
     inkscape:cy="1856.887"
     inkscape:window-width="1832"
     inkscape:window-height="837"
     inkscape:window-x="44"
     inkscape:window-y="373"
     inkscape:window-maximized="0"
     inkscape:current-layer="g8" />
  <g
     inkscape:groupmode="layer"
     inkscape:label="Image"
     id="g8">
    <rect
       style="fill:#15141e;fill-opacity:1;stroke-width:3.38812"
       id="rect2706"
       width="458.97775"
       height="458.97775"
       x="53.022247"
       y="53.022247" />
    <rect
       style="fill:#fffcf7;fill-opacity:1;stroke:#15141e;stroke-width:12.0634;stroke-miterlimit:4;stroke-dasharray:none;stroke-opacity:1"
       id="rect1103"
       width="458.97775"
       height="458.97775"
       x="6.0317001"
       y="6.0317001" />
    <rect
       style="fill:#fff5b1;fill-opacity:1;stroke:#15141e;stroke-width:15;stroke-miterlimit:4;stroke-dasharray:none;stroke-opacity:1"
       id="rect6422-1"
       width="152.99106"
       height="152.99106"
       x="7.5000091"
       y="7.5" />
    <rect
       style="fill:#cce5ff;fill-opacity:1;stroke:#15141e;stroke-width:15;stroke-miterlimit:4;stroke-dasharray:none;stroke-opacity:1"
       id="rect6422"
       width="152.99106"
       height="152.99106"
       x="160.49109"
       y="7.4999933" />
    <rect
       style="fill:#cce5ff;fill-opacity:1;stroke:#15141e;stroke-width:15;stroke-miterlimit:4;stroke-dasharray:none;stroke-opacity:1"
       id="rect6422-10"
       width="152.99106"
       height="152.99106"
       x="313.48215"
       y="7.4999962" />
    <g
       id="rect6422-1-8">
      <path
         style="color:#000000;fill:#fffcf7;stroke-width:15;-inkscape-stroke:none"
         d="M 160.49109,160.49106 H 313.48215 V 313.48212 H 160.49109 Z"
         id="path7362" />
      <path
         style="color:#000000;fill:#15141e;-inkscape-stroke:none"
         d="m 152.99023,152.99023 v 7.5 160.49219 H 320.98242 V 152.99023 Z m 15,15 H 305.98242 V 305.98242 H 167.99023 Z"
         id="path7364" />
    </g>
    <g
       id="rect6422-0-5">
      <path
         style="color:#000000;fill:#fffcf7;stroke-width:15;-inkscape-stroke:none"
         d="M 313.48215,160.49106 H 466.47321 V 313.48212 H 313.48215 Z"
         id="path7368" />
      <path
         style="color:#000000;fill:#15141e;-inkscape-stroke:none"
         d="m 305.98242,152.99023 v 7.5 160.49219 H 473.97266 V 152.99023 Z m 15,15 H 458.97266 V 305.98242 H 320.98242 Z"
         id="path7370" />
    </g>
    <g
       id="rect6422-06">
      <path
         style="color:#000000;fill:#fffcf7;stroke-width:15;-inkscape-stroke:none"
         d="M 7.5000091,160.49106 H 160.49107 V 313.48212 H 7.5000091 Z"
         id="path7374" />
      <path
         style="color:#000000;fill:#15141e;-inkscape-stroke:none"
         d="m 0,152.99023 v 7.5 160.49219 H 167.99023 V 152.99023 Z m 15,15 H 152.99023 V 305.98242 H 15 Z"
         id="path7376" />
    </g>
    <g
       id="rect6422-1-4">
      <path
         style="color:#000000;fill:#fffcf7;stroke-width:15;-inkscape-stroke:none"
         d="M 160.49107,313.48212 H 313.48213 V 466.47318 H 160.49107 Z"
         id="path7380" />
      <path
         style="color:#000000;fill:#15141e;-inkscape-stroke:none"
         d="m 152.99023,305.98242 v 7.5 160.49024 H 320.98242 V 305.98242 Z m 15,15 H 305.98242 V 458.97266 H 167.99023 Z"
         id="path7382" />
    </g>
    <g
       id="rect6422-0-6">
      <path
         style="color:#000000;fill:#fffcf7;stroke-width:15;-inkscape-stroke:none"
         d="M 313.48212,313.48212 H 466.47318 V 466.47318 H 313.48212 Z"
         id="path7386" />
      <path
         style="color:#000000;fill:#15141e;-inkscape-stroke:none"
         d="m 305.98242,305.98242 v 7.5 160.49024 H 473.97266 V 305.98242 Z m 15,15 H 458.97266 V 458.97266 H 320.98242 Z"
         id="path7388" />
    </g>
    <g
       id="rect6422-2">
      <path
         style="color:#000000;fill:#fffcf7;stroke-width:15;-inkscape-stroke:none"
         d="M 7.5,313.48212 H 160.49106 V 466.47318 H 7.5 Z"
         id="path7392" />
      <path
         style="color:#000000;fill:#15141e;-inkscape-stroke:none"
         d="m 0,305.98242 v 7.5 160.49024 H 167.99023 V 305.98242 Z m 15,15 H 152.99023 V 458.97266 H 15 Z"
         id="path7394" />
    </g>
    <g
       aria-label="â²"
       id="text1186"
       style="font-size:784.227px;font-family:'MFEK Sans';-inkscape-font-specification:'MFEK Sans, Normal';letter-spacing:0px;word-spacing:0px;stroke:#fffcf7;stroke-width:33.0456;paint-order:markers stroke fill"
       transform="matrix(1.3708592,0,0,1.3708592,-55.957668,-57.593417)">
      <g
         id="path7339">
        <path
           style="color:#000000;-inkscape-font-specification:'Drafting Mono Light';fill:#fffcf7;stroke:none;-inkscape-stroke:none"
           d="m 240.86719,57.525391 c -60.2568,0 -117.33453,26.212885 -158.488284,83.324219 l -9.498047,13.18359 13.021485,9.71875 39.060546,29.15039 9.98438,-12.45117 c 31.08698,-38.76729 69.90719,-60.47265 101.60546,-60.47265 16.85052,0 28.39956,4.0172 34.96289,8.99414 6.56334,4.97693 9.29297,10.38741 9.29297,19.18359 0,8.82947 -3.76091,15.70996 -16.04882,25.30859 -12.28792,9.59864 -32.53436,19.8456 -58.86524,30.80078 l -0.004,0.002 -0.004,0.002 c -68.1095,28.37896 -116.662677,66.0413 -135.425593,117.41593 l -2.923828,8.0039 27.00586,39.28125 H 351.10547 V 297.10547 H 173.96484 c 13.03385,-10.69321 31.82957,-20.51174 58.13477,-31.81836 l 0.004,-0.004 0.006,-0.002 c 26.75199,-11.52093 56.07021,-23.53746 80.0918,-41.29492 24.0216,-17.75746 43.2168,-43.50813 43.2168,-77.39844 0,-27.22998 -13.00124,-51.147252 -33.89063,-66.382812 -20.88938,-15.23556 -48.8233,-22.679687 -80.66015,-22.679687 z m 41.5957,39.46289 c 7.62124,2.653842 14.22535,6.002029 19.5918,9.916019 13.51854,9.85967 20.31836,22.21268 20.31836,39.68359 0,22.18186 -10.60754,36.62446 -29.81641,50.82422 -19.20887,14.19976 -46.55007,25.90578 -73.51758,37.51953 l 0.01,-0.006 c -45.52905,19.5695 -78.65997,37.83503 -94.01953,71.91406 l -10.50586,23.3125 h 203.53515 v 5.77344 H 111.92578 l -7.2539,-10.55078 c 16.34127,-35.50163 54.50608,-65.84135 113.91796,-90.59766 l 0.008,-0.004 c 27.38478,-11.39397 49.68109,-22.12305 66.50586,-35.26563 16.82648,-13.14392 28.75,-30.77255 28.75,-51.35156 0,-17.86751 -8.25047,-34.80608 -22.3711,-45.51367 -2.80773,-2.12909 -5.85112,-3.970899 -9.01953,-5.654299 z M 166.91992,108.07031 c -16.77928,10.12728 -32.69834,23.60917 -47.25781,39.64258 l -0.42578,-0.31836 c 14.59616,-17.28319 30.54395,-30.22008 47.68359,-39.32422 z"
           id="path7404" />
        <path
           style="color:#000000;-inkscape-font-specification:'Drafting Mono Light';fill:#000000;stroke:none;-inkscape-stroke:none"
           d="m 95.784656,150.50965 26.271604,19.60567 c 33.32965,-41.56403 75.6779,-66.65929 114.49714,-66.65929 38.81924,0 60.77759,18.03722 60.77759,44.70094 0,29.40851 -31.36908,49.01418 -85.08863,71.36465 C 146.3673,246.96957 102.45059,282.25978 85.981818,327.35283 L 103.23481,352.4481 H 334.58177 V 313.62886 H 140.09348 c 12.54763,-27.84006 40.7798,-44.30882 85.48074,-63.52238 53.71955,-23.1347 113.3208,-47.44574 113.3208,-103.51797 0,-44.70094 -39.60346,-72.540994 -98.02837,-72.540994 -55.68012,0 -106.65487,23.134696 -145.081994,76.462134 z"
           id="path7406" />
      </g>
    </g>
  </g>
</svg>
