<?xml version="1.0" encoding="UTF-8" standalone="no"?>
<svg
   xmlns:dc="http://purl.org/dc/elements/1.1/"
   xmlns:cc="http://creativecommons.org/ns#"
   xmlns:rdf="http://www.w3.org/1999/02/22-rdf-syntax-ns#"
   xmlns:svg="http://www.w3.org/2000/svg"
   xmlns="http://www.w3.org/2000/svg"
   xmlns:sodipodi="http://sodipodi.sourceforge.net/DTD/sodipodi-0.dtd"
   xmlns:inkscape="http://www.inkscape.org/namespaces/inkscape"
   inkscape:version="1.0alpha2 (1:0.92.0+devel+201907090511+74dcc2b)"
   sodipodi:docname="09.svg"
   version="1.1"
   id="svg2"
   width="709.76001"
   height="684.79999"
   viewBox="0 0 709.76001 684.79999">
  <sodipodi:namedview
     inkscape:current-layer="svg2"
     inkscape:window-maximized="1"
     inkscape:window-y="30"
     inkscape:window-x="0"
     inkscape:cy="351.40758"
     inkscape:cx="175.73537"
     inkscape:zoom="6.7707908"
     showgrid="false"
     id="namedview102"
     inkscape:window-height="1017"
     inkscape:window-width="1920"
     inkscape:pageshadow="2"
     inkscape:pageopacity="0"
     guidetolerance="10"
     gridtolerance="10"
     objecttolerance="10"
     borderopacity="1"
     inkscape:document-rotation="0"
     bordercolor="#666666"
     pagecolor="#ffffff" />
  <metadata
     id="metadata8">
    <rdf:RDF>
      <cc:Work
         rdf:about="">
        <dc:format>image/svg+xml</dc:format>
        <dc:type
           rdf:resource="http://purl.org/dc/dcmitype/StillImage" />
        <dc:title />
      </cc:Work>
    </rdf:RDF>
  </metadata>
  <defs
     id="defs6" />
  <g
     id="g10">
    <path
       id="path908"
       style="color:#000000;font-style:normal;font-variant:normal;font-weight:normal;font-stretch:normal;font-size:medium;line-height:normal;font-family:sans-serif;font-variant-ligatures:normal;font-variant-position:normal;font-variant-caps:normal;font-variant-numeric:normal;font-variant-alternates:normal;font-variant-east-asian:normal;font-feature-settings:normal;font-variation-settings:normal;text-indent:0;text-align:start;text-decoration:none;text-decoration-line:none;text-decoration-style:solid;text-decoration-color:#000000;letter-spacing:normal;word-spacing:normal;text-transform:none;writing-mode:lr-tb;direction:ltr;text-orientation:mixed;dominant-baseline:auto;baseline-shift:baseline;text-anchor:start;white-space:normal;shape-padding:0;shape-margin:0;inline-size:0;clip-rule:nonzero;display:inline;overflow:visible;visibility:visible;opacity:1;isolation:auto;mix-blend-mode:normal;color-interpolation:sRGB;color-interpolation-filters:linearRGB;solid-color:#000000;solid-opacity:1;vector-effect:none;fill:#000000;fill-opacity:0.98037;fill-rule:nonzero;stroke:none;stroke-width:5.33974;stroke-linecap:butt;stroke-linejoin:miter;stroke-miterlimit:4;stroke-dasharray:none;stroke-dashoffset:0;stroke-opacity:1;color-rendering:auto;image-rendering:auto;shape-rendering:auto;text-rendering:auto;enable-background:accumulate;stop-color:#000000;stop-opacity:1"
       d="m 482.09198,-81.332251 -535.848407,5.78402 -1.1347,17.96945 -4.05069,-6.24081 -15.84396,-0.50268 -9.02332,11.203 -5.93628,-13.11988 -12.836223,-9.10884 -21.17121,-0.57778 -17.08714,12.42531 -5.19164,10.44377 -7.51317,-15.68964 -16.53857,-1.04291 -12.09991,14.69678 -19.29813,292.921861 113.707103,7.3338 -21.899163,151.67969 h 248.95877 v -11.80165 h 101.56547 v -8.27659 h 137.94657 v -44.60971 h 103.2946 z m -5.33974,5.39814 V 129.3202 H 438.6587 v 5.33974 h 38.09354 v 192.15527 h -97.95486 v -38.61502 -1.06794 l -8.23695,-0.002 v -16.5615 h 2.89721 5.33974 V 269.5008 134.66005 h 38.02892 v -5.33974 H 378.79738 V -13.928551 h -5.33974 v 5.7214399 H 97.652117 v -8.6416199 h -5.33974 v 8.6416199 h -15.41222 v 5.33973 h 15.41222 V 20.124759 H -23.755897 V -2.8673811 h 89.223614 v -5.33973 H -34.860867 v 5.33973 h 5.76524 V 64.046143 h 5.33973 V 25.464489 H 27.993625 V 118.03167 H -23.755897 V 77.981593 h -5.33973 v 51.096657 h 5.33973 v -5.70684 l 57.089252,-0.0396 V 25.464499 H 92.312377 V 118.03168 H 46.615945 v 5.33973 h 47.258732 l 23.488563,23.05472 v 54.06061 H -23.755897 V 148.42226 H 98.031737 v -5.33973 H -23.755897 v -4.34061 h -5.33973 v 4.34061 h -9.41754 v 5.33973 h 9.41754 v 14.10024 h -33.93233 l 0.86354,-14.10024 h 11.41784 v -5.33973 h -11.09246 l 5.08944,-83.039107 -5.32305,-0.45053 -7.21698,117.812017 5.32096,0.44846 0.30245,-4.91839 h 34.57059 v 27.55175 h -10.88804 v 5.33974 l -0.002,8.23696 h -16.56154 v -8.23696 -5.33974 h -8.80846 l 0.74255,-12.09782 -5.32304,-0.45054 -3.23512,52.81329 -122.632503,-7.9074 18.83508,-285.871751 9.27152,-11.25933 10.6899,0.67373 8.23695,17.20394 -1.14929,29.69184 4.61803,0.17938 -0.64869,14.9783599 56.277853,3.32274 0.84685,-14.1940999 4.48664,0.31914 2.49048,-34.92727 9.55311,-11.86214 10.3937,0.32956 6.45982,9.95777 -5.98425,97.673304 5.32096,0.44845 3.21009,-52.3752641 h 6.60167 v -5.33973 h -6.27419 l 1.48511,-24.2352999 h 11.55969 v -5.33972 h -11.23221 l 1.9878,-32.45348 26.54222,-0.28785 v 32.74133 h -5.86536 v 5.33972 h 22.8920095 v -5.33972 H -16.885207 v -32.79973 l 70.225852,-0.76133 v 33.56106 H 6.2341745 v 5.33972 H 68.206367 v -5.33972 h -9.525992 v -33.61738 l 33.631962,-0.36501 v 33.98239 h -12.67351 v 5.33972 h 12.67351 v 1.65823 h 5.33973 v -1.65823 h 12.708993 v -5.33972 H 97.652067 v -34.0408 l 57.863093,-0.62784 v 9.21938 h 5.33974 v -9.27778 l 30.64506,-0.33165 v 35.05869 H 160.8549 v -11.51381 h -5.33974 v 11.51381 h -33.72165 v 5.33972 h 84.4074 v -5.33972 h -9.36122 v -35.11709 l 59.12292,-0.64035 v 9.97653 h 5.33974 v -10.03494 l 30.73686,-0.33373 v 36.14958 h -30.73686 v -11.84754 h -5.33974 v 11.84754 h -38.32924 v 5.33972 h 83.9444 v -5.33972 h -4.19881 v -36.20798 l 76.07863,-0.82391 v 37.03189 h -60.4474 v 5.33972 h 60.4474 v 4.5784 h 5.33974 v -47.00841 z m -598.83221,5.39606 17.72958,0.48182 10.335313,7.33378 6.85196,15.14315 -2.2673,31.80478 -55.051403,-3.3123 1.05126,-27.20343 6.78939,-13.66012 z m -22.08897,52.54003 54.411053,3.27267 -0.26283,4.40111 -54.346383,-3.11207 z m -0.24404,5.62966 54.327613,3.1099799 -0.28368,4.74527 -54.223323,-3.73156 z m -0.22527,5.1916399 54.206633,3.72947 -0.24405,4.08198998 -54.162823,-3.19758998 z m 242.290367,4.30934 H 373.45764 V 244.81277 H 235.97412 V 200.48673 H 122.70298 V 144.64691 L 97.652117,119.59605 Z M -63.094707,163.59045 h 33.99908 v 3.65437 h -34.22226 z m -0.28992,4.72232 h 34.289 v 3.55426 h -34.50594 z m -2.2986,37.5137 h 5.34391 v 28.43407 h 3.79204 16.80764 v -0.006 h 4.04027 l 0.002,-28.42783 h 6.60166 v 36.65435 l -38.7068,-2.11294 z m 6.41185,0 h 1.65616 v 27.36613 h -1.65616 z m 20.35565,0 h 2.1505 l -0.002,27.35988 h -2.1505 z m 15.15983,0 H 133.94562 v 84.53465 H -23.755897 Z m 163.041237,0 h 91.34909 v 38.9863 h -25.07591 v 5.33973 h 27.74573 140.15339 v 16.6241 h -23.09432 v 3.79204 16.80764 h 0.007 v 4.04027 l 23.0881,0.002 v 14.41727 h -12.34394 v 5.33973 h 12.34394 v 60.24928 h -34.21597 v -60.24917 h 9.63652 v -5.33973 h -90.3272 v 5.33973 h 9.01497 v 23.89739 h 5.33974 v -23.89739 h 60.99602 v 60.24928 h -60.99644 v -22.41641 h -5.33974 v 22.41644 h -26.71536 v -60.24928 h 5.46696 v -5.33973 h -72.72047 v 5.33973 9.27361 h -12.23341 v -9.27361 -5.33973 h -22.0787 v -55.6834 h 19.1855 v -5.33974 h -19.1855 z m -195.832617,9.30491 h 16.56151 v 1.32241 h -16.56151 z m 235.056717,0.89273 v 17.26652 h 5.33973 v -17.26652 z m -235.056717,1.49763 h 16.56151 v 1.3245 h -16.56151 z m 0,2.39245 h 16.56151 v 1.32241 h -16.56151 z m 0,2.39036 h 16.56151 v 1.32242 h -16.56151 z m 0,2.39036 h 16.56151 v 1.32452 h -16.56151 z m 0,2.39246 h 16.56151 v 1.32242 h -16.56151 z m 0,2.39036 h 16.56151 v 1.32242 h -16.56151 z m 0,2.39036 h 16.56151 v 1.32451 h -16.56151 z m -11.31982,9.56564 38.77147,2.11921 v 1.43295 l -38.85907,-2.12337 z m -0.15226,2.49674 38.92373,2.12546 v 1.43506 l -39.01134,-2.13173 z m 238.723607,0.8823 v 5.33973 h 22.62085 v -5.33973 z m -253.132527,0.69459 14.25666,0.91985 39.07599,2.13381 v 47.13983 H 133.94562 v 23.00047 l -20.50166,3.28102 v 46.85615 l 20.50166,3.72112 v 18.94354 H -52.538297 v -0.31913 c 0,-6.49035 -2.23288,-14.95665 -7.23368,-22.18284 -3.90006,-5.63558 -12.63669,-12.03599 -20.22422,-13.90207 -0.0792,-0.0146 -0.001,10e-4 -0.44637,-0.11263 l -0.52354,-0.10221 -0.21484,1.11802 -0.0376,0.38379 -17.014134,-1.41629 3.896334,-26.98442 17.6524,1.90228 -0.0354,0.3838 v 1.13887 h 0.53398 c 11.03818,0 19.16944,-5.92798 24.17687,-13.1637 5.00079,-7.22619 7.23368,-15.69248 7.23368,-22.18283 l 0.0146,-0.36293 v -5.33973 h -44.14456 z m 313.400607,17.08923 v 27.6644 h 5.33969 v -27.6644 z m 120.45895,5.24795 h 22.02636 v 1.65615 h -22.02636 z m 0,2.7241 h 1.32448 v 16.56151 h -1.32448 z m 2.39243,0 h 1.3224 v 16.56151 h -1.3224 z m 2.39036,0 h 1.3224 v 16.56151 h -1.3224 z m 2.39036,0 h 1.32453 v 16.56151 h -1.32453 z m 2.39244,0 h 1.32245 v 16.56151 h -1.32245 z m 2.39035,0 h 1.32245 v 16.56151 h -1.32245 z m 2.39041,0 h 1.32448 v 16.56151 h -1.32448 z m 2.39244,0 h 1.3224 v 16.56151 h -1.3224 z m -16.73256,17.62946 22.02013,0.002 v 2.15049 l -22.02013,-0.002 z m -441.111967,7.50275 h 14.57162 v 18.27607 l -16.94739,-1.82512 z m 15.63957,0 h 1.91479 v 18.33656 h -1.91479 z m 2.98274,0 h 1.91687 v 18.33656 h -1.91687 z m 2.98481,0 h 1.91688 v 18.33656 h -1.91688 z m 2.98483,0 h 1.91479 v 18.33656 h -1.91479 z m 2.98274,0 h 1.91689 v 18.33656 h -1.91689 z m 2.98484,0 h 1.91688 v 18.33656 h -1.91688 z m 2.98482,0 h 1.9148 v 13.31178 c -0.56238,1.28461 -1.18933,2.55597 -1.9148,3.77953 z m 2.98275,0 h 1.91688 v 1.38916 c -0.12926,2.64722 -0.7597,5.8819 -1.91688,9.20061 z m 2.98482,0 h 4.27595 v 0.8969 c -0.11339,6.18178 -2.26892,14.20026 -7.00214,21.0398 -4.76906,6.8913 -12.3976,12.43521 -22.76268,12.63389 h -0.0814 l 0.46515,-4.29056 c 8.65331,-0.31384 14.73979,-4.80747 18.86842,-10.77333 4.1552,-6.00426 6.11659,-13.41957 6.23665,-18.6098 v -0.70501 z m 189.447877,15.47479 h 18.87471 v 12.47745 h 27.41618 v -3.20384 h -1.70412 v -9.27361 h 51.63896 v 68.52587 h -96.22573 z m 35.37991,0 h 2.00031 v 9.27361 h -2.00031 z m 3.06825,0 h 2.0024 v 9.27361 h -2.0024 z m 3.07035,0 h 2.00032 v 9.27361 h -2.00032 z m -273.006347,2.03369 17.04543,1.83553 -0.20442,1.90645 -17.11425,-1.84388 z m 18.11338,1.89602 h 16.44262 c -3.95903,5.49351 -9.51402,9.54359 -17.51057,9.86599 z m -18.54098,1.0596 17.1539,1.84804 -0.20441,1.90438 -17.22273,-1.85431 z m -0.4255,2.95562 17.26027,1.85849 -0.20649,1.90644 -17.32912,-1.8689 z m 227.001217,0.66121 v 2.10878 l -18.38037,3.10789 v 40.9157 l 18.38037,3.33525 v 2.2235 l -19.43372,-3.52506 v -45.05399 z m -227.428807,2.29234 17.36873,1.87307 -0.2065,1.90437 -17.43548,-1.87934 z m 227.428807,0.89899 v 1.52891 l -16.38213,2.93477 v 36.11412 l 16.38213,2.93476 v 1.67702 l -17.31242,-3.14128 v -39.11979 z m -227.854317,2.05664 17.47302,1.8835 -0.20441,1.90436 -17.54395,-1.88976 z m 227.854317,0.55899 v 39.8123 l -15.31419,-2.74287 v -34.32864 z m -232.330521,30.43857 17.005794,1.41836 -0.1606,1.90854 -17.120524,-1.42462 z m 18.171784,0.16269 c 7.35526,1.7626 15.76563,7.93606 19.56092,13.42025 4.73322,6.83954 6.88875,14.85802 7.00214,21.0398 v 0.8531 h -4.27595 v -0.1481 -0.705 c -0.12005,-5.19023 -2.08145,-12.60554 -6.23664,-18.6098 -3.40998,-4.92742 -9.98078,-10.15598 -16.40507,-11.54927 z m -18.599384,2.7971 17.185184,1.43088 -0.15644,1.90854 -17.304074,-1.43922 z m 18.161354,2.51552 c 5.97107,1.26379 11.95422,6.0789 15.24116,10.63983 h -16.14016 z m -18.588954,0.44219 17.364574,1.44549 -0.15853,1.9127 -17.479284,-1.45591 z m -0.42759,2.95981 17.546034,1.46216 -0.15852,1.90854 -17.660764,-1.47052 z m -0.427589,2.95979 17.725403,1.47468 -0.16061,1.91062 -17.838043,-1.4872 z m -0.42552,2.95771 17.654493,1.47051 v 19.21052 H -103.5077 Z m 17.829703,1.4872 h 0.0125 l -0.004,0.0188 z m 0.89274,0.90107 h 1.91479 v 18.29276 h -1.91479 z m 2.98274,0 h 1.91688 v 18.29276 h -1.91688 z m 2.98482,0 h 1.91688 v 18.29276 h -1.91688 z m 2.98483,0 h 1.9148 v 18.29276 h -1.9148 z m 2.98273,0 h 1.91688 v 18.29276 h -1.91688 z m 2.98483,0 h 1.91689 v 18.29276 h -1.91689 z m 2.98484,1.24525 c 0.72546,1.22356 1.3524,2.49492 1.91479,3.77953 v 13.26798 h -1.91479 z m 2.98274,6.50155 c 1.15718,3.3187 1.78762,6.55339 1.91688,9.2006 v 1.34536 h -1.91688 z" />
    <path
       id="rect1833"
       style="opacity:0.75;fill:#ffffff;fill-opacity:1;stroke:none;stroke-width:3;stroke-linecap:round;stroke-linejoin:round;stroke-miterlimit:4;stroke-dasharray:none;stroke-opacity:1"
       d="m -178.98438,-197.27734 v 863.73632 h 1038 v -863.73632 z m 512.8418,503.11328 h 45.00946 v 79.77148 h -45.00946 z" />
    <g
       aria-label="ix"
       transform="matrix(0.50645332,0,0,0.50645332,175.23141,140.31305)"
       id="flowRoot1711"
       style="font-style:normal;font-weight:normal;font-size:40px;line-height:1.25;font-family:sans-serif;letter-spacing:0px;word-spacing:0px;fill:#000000;fill-opacity:1;stroke:none">
      <path
         d="m 341.08725,371.51661 q 0.70312,-0.70313 1.77083,-0.70313 1.06771,0 1.74479,0.70313 0.70313,0.67708 0.70313,1.74479 0,1.06771 -0.70313,1.77083 -0.67708,0.67708 -1.74479,0.67708 -1.06771,0 -1.77083,-0.67708 -0.67708,-0.70312 -0.67708,-1.77083 0,-1.06771 0.67708,-1.74479 z m 3.72395,36.66664 h -3.90624 v -28.17706 h 3.90624 z"
         style="font-style:normal;font-variant:normal;font-weight:normal;font-stretch:normal;font-size:53.3333px;font-family:Gidole;-inkscape-font-specification:Gidole;text-align:center;text-anchor:middle"
         id="path2082" />
      <path
         d="m 372.02473,408.18325 h -4.40104 l -6.14583,-10.96353 -6.14583,10.96353 h -4.40104 l 8.33333,-14.1927 -8.20312,-13.98436 h 4.40104 l 6.01562,10.7552 6.01562,-10.7552 h 4.40104 l -8.20312,13.98436 z"
         style="font-style:normal;font-variant:normal;font-weight:normal;font-stretch:normal;font-size:53.3333px;font-family:Gidole;-inkscape-font-specification:Gidole;text-align:center;text-anchor:middle"
         id="path2084" />
    </g>
  </g>
  <rect
     y="331.96039"
     x="129.45003"
     height="27.105698"
     width="13.243884"
     id="rect15752"
     style="fill:#ffffff;stroke-linecap:round" />
</svg>
