<?xml version="1.0" encoding="UTF-8" standalone="no"?>
<svg
   xmlns:dc="http://purl.org/dc/elements/1.1/"
   xmlns:cc="http://creativecommons.org/ns#"
   xmlns:rdf="http://www.w3.org/1999/02/22-rdf-syntax-ns#"
   xmlns:svg="http://www.w3.org/2000/svg"
   xmlns="http://www.w3.org/2000/svg"
   xmlns:sodipodi="http://sodipodi.sourceforge.net/DTD/sodipodi-0.dtd"
   xmlns:inkscape="http://www.inkscape.org/namespaces/inkscape"
   viewBox="0 0 709.76001 684.79999"
   height="684.79999"
   width="709.76001"
   id="svg2"
   version="1.1"
   sodipodi:docname="lobby.svg"
   inkscape:version="1.0alpha2 (1:0.92.0+devel+201907090511+74dcc2b)">
  <sodipodi:namedview
     pagecolor="#ffffff"
     bordercolor="#666666"
     inkscape:document-rotation="0"
     borderopacity="1"
     objecttolerance="10"
     gridtolerance="10"
     guidetolerance="10"
     inkscape:pageopacity="0"
     inkscape:pageshadow="2"
     inkscape:window-width="1920"
     inkscape:window-height="1017"
     id="namedview22"
     showgrid="false"
     inkscape:zoom="2.2968813"
     inkscape:cx="335.22099"
     inkscape:cy="358.23643"
     inkscape:window-x="0"
     inkscape:window-y="30"
     inkscape:window-maximized="1"
     inkscape:current-layer="svg2" />
  <metadata
     id="metadata8">
    <rdf:RDF>
      <cc:Work
         rdf:about="">
        <dc:format>image/svg+xml</dc:format>
        <dc:type
           rdf:resource="http://purl.org/dc/dcmitype/StillImage" />
        <dc:title />
      </cc:Work>
    </rdf:RDF>
  </metadata>
  <defs
     id="defs6" />
  <g
     id="g10">
    <rect
       y="-197.27795"
       x="-178.98401"
       height="944.56165"
       width="1038.0004"
       id="rect1833"
       style="opacity:0.75;fill:#ffffff;fill-opacity:1;stroke:none;stroke-width:3.13722;stroke-linecap:round;stroke-linejoin:round;stroke-miterlimit:4;stroke-dasharray:none;stroke-opacity:1" />
    <g
       style="font-style:normal;font-weight:normal;font-size:40px;line-height:1.25;font-family:sans-serif;letter-spacing:0px;word-spacing:0px;fill:#000000;fill-opacity:1;stroke:none"
       id="flowRoot1711"
       transform="matrix(0.50645332,0,0,0.50645332,175.23141,134.31305)"
       aria-label="museum lobby">
      <path
         inkscape:connector-curvature="0"
         id="path2948"
         style="font-style:normal;font-variant:normal;font-weight:normal;font-stretch:normal;font-size:47.3884px;font-family:Gidole;-inkscape-font-specification:Gidole;text-align:center;text-anchor:middle"
         d="m 227.24969,402.92105 h -3.47083 v -14.73946 q 0,-1.43461 -0.0231,-2.0825 -0.0231,-0.67102 -0.16197,-1.45775 -0.13883,-0.78672 -0.4165,-1.36519 -0.60161,-1.2495 -1.85111,-1.94366 -1.22636,-0.71731 -2.75353,-0.71731 -1.52716,0 -2.77666,0.71731 -1.22636,0.69416 -1.82797,1.94366 -0.27767,0.57847 -0.4165,1.36519 -0.13883,0.78673 -0.16197,1.45775 -0.0231,0.64789 -0.0231,2.0825 v 14.73946 h -3.47083 v -25.03626 h 3.47083 v 2.56842 q 2.54528,-2.93864 5.90041,-2.93864 2.29075,0 4.02616,1.06439 1.73542,1.04125 2.68411,2.89236 1.22636,-1.85111 3.07747,-2.89236 1.85111,-1.06439 4.09558,-1.06439 2.52214,0 4.48894,1.34206 1.98994,1.34205 2.86922,3.70222 0.30081,0.78672 0.43964,1.78169 0.13883,0.97183 0.16197,1.64286 0.0231,0.67103 0.0231,1.9668 v 14.97085 h -3.47083 v -14.73946 q 0,-1.43461 -0.0231,-2.0825 -0.0231,-0.67102 -0.16197,-1.45775 -0.13883,-0.78672 -0.4165,-1.36519 -0.60161,-1.2495 -1.85111,-1.94366 -1.22636,-0.71731 -2.75352,-0.71731 -1.52717,0 -2.77667,0.71731 -1.22636,0.69416 -1.82797,1.94366 -0.27767,0.57847 -0.4165,1.36519 -0.13883,0.78673 -0.16197,1.45775 -0.0231,0.64789 -0.0231,2.0825 z" />
      <path
         inkscape:connector-curvature="0"
         id="path2950"
         style="font-style:normal;font-variant:normal;font-weight:normal;font-stretch:normal;font-size:47.3884px;font-family:Gidole;-inkscape-font-specification:Gidole;text-align:center;text-anchor:middle"
         d="m 248.07467,377.88479 h 3.47083 v 14.4618 q 0,3.12374 0.34708,4.18813 0.57847,1.7817 2.01308,2.73039 1.43461,0.92555 3.30886,0.92555 1.87425,0 3.30886,-0.92555 1.43461,-0.94869 2.01308,-2.73039 0.34708,-1.06439 0.34708,-4.18813 v -14.4618 h 3.47083 v 14.69319 q 0,1.22636 -0.0231,1.89738 -0.0231,0.64789 -0.16198,1.61972 -0.13883,0.97184 -0.43963,1.75856 -0.97184,2.63783 -3.19317,4.0493 -2.19819,1.38833 -5.32194,1.38833 -3.12375,0 -5.34508,-1.38833 -2.19819,-1.41147 -3.17002,-4.0493 -0.30081,-0.78672 -0.43964,-1.75856 -0.13883,-0.97183 -0.16197,-1.61972 -0.0231,-0.67102 -0.0231,-1.89738 z" />
      <path
         inkscape:connector-curvature="0"
         id="path2952"
         style="font-style:normal;font-variant:normal;font-weight:normal;font-stretch:normal;font-size:47.3884px;font-family:Gidole;-inkscape-font-specification:Gidole;text-align:center;text-anchor:middle"
         d="m 280.93186,377.51457 q 3.44769,0 7.93663,1.89739 l -1.18008,2.93864 q -4.07244,-1.73542 -6.75655,-1.73542 -1.34205,0 -2.36016,0.39336 -1.01811,0.39336 -1.52717,1.01811 -0.50905,0.62475 -0.76358,1.2495 -0.23139,0.62475 -0.23139,1.22636 0,1.15694 0.62475,2.03622 0.64789,0.85614 1.61972,1.29578 0.94869,0.43964 3.10061,0.76358 2.17505,0.30081 3.6328,0.833 2.03622,0.76358 3.42455,2.47586 1.38834,1.71227 1.38834,4.0493 0,2.93864 -2.38331,5.13683 -2.3833,2.19819 -6.52516,2.19819 -3.88733,0 -8.74649,-2.15191 l 1.2495,-2.89236 q 4.30383,1.94366 7.49699,1.94366 1.43461,0 2.52214,-0.39336 1.11066,-0.39336 1.71227,-1.04125 0.60161,-0.64788 0.90242,-1.34205 0.3008,-0.71731 0.3008,-1.45775 0,-1.31891 -0.78672,-2.29075 -0.78672,-0.97183 -1.94366,-1.41147 -0.78672,-0.3008 -3.17003,-0.67103 -2.3833,-0.37022 -3.79477,-1.01811 -1.78169,-0.83299 -2.93864,-2.40644 -1.15694,-1.57344 -1.15694,-3.65594 0,-2.84608 2.26761,-4.90544 2.29075,-2.0825 6.08552,-2.0825 z" />
      <path
         inkscape:connector-curvature="0"
         id="path2954"
         style="font-style:normal;font-variant:normal;font-weight:normal;font-stretch:normal;font-size:47.3884px;font-family:Gidole;-inkscape-font-specification:Gidole;text-align:center;text-anchor:middle"
         d="m 304.90373,403.29127 q -2.68411,0 -4.74347,-0.99497 -2.05936,-1.01811 -3.26258,-2.77666 -0.85614,-1.22636 -1.29578,-2.9155 -0.41649,-1.68914 -0.48591,-2.84608 -0.0463,-1.18008 -0.0463,-3.35514 0,-1.78169 0.0231,-2.68411 0.0463,-0.92555 0.23139,-2.22133 0.20825,-1.31891 0.60161,-2.3833 0.97183,-2.54528 3.23944,-4.07244 2.29075,-1.52717 5.27566,-1.52717 2.93864,0 5.22939,1.55031 2.31388,1.52716 3.30885,4.07244 0.57848,1.45775 0.69417,2.9155 0.13883,1.4346 0.13883,4.32696 v 0.76359 h -15.27165 q 0,1.50402 0.0463,2.42958 0.0463,0.90241 0.34708,2.19819 0.32395,1.27264 0.92556,2.12878 1.59658,2.29074 5.04427,2.29074 3.07747,0 6.61772,-1.68913 l 1.31891,2.86922 q -4.09558,1.92052 -7.93663,1.92052 z m 5.43763,-15.01712 q -0.0463,-2.63783 -0.67102,-4.18814 -0.62475,-1.59658 -2.03622,-2.52214 -1.38834,-0.94869 -3.19317,-0.94869 -1.87425,0 -3.23944,0.94869 -1.36519,0.92556 -1.9668,2.499 -0.62475,1.61972 -0.67103,4.21128 z" />
      <path
         inkscape:connector-curvature="0"
         id="path2956"
         style="font-style:normal;font-variant:normal;font-weight:normal;font-stretch:normal;font-size:47.3884px;font-family:Gidole;-inkscape-font-specification:Gidole;text-align:center;text-anchor:middle"
         d="m 320.08282,377.88479 h 3.47083 v 14.4618 q 0,3.12374 0.34708,4.18813 0.57848,1.7817 2.01309,2.73039 1.43461,0.92555 3.30885,0.92555 1.87425,0 3.30886,-0.92555 1.43461,-0.94869 2.01308,-2.73039 0.34709,-1.06439 0.34709,-4.18813 v -14.4618 h 3.47083 v 14.69319 q 0,1.22636 -0.0231,1.89738 -0.0231,0.64789 -0.16197,1.61972 -0.13884,0.97184 -0.43964,1.75856 -0.97184,2.63783 -3.19317,4.0493 -2.19819,1.38833 -5.32194,1.38833 -3.12374,0 -5.34507,-1.38833 -2.1982,-1.41147 -3.17003,-4.0493 -0.3008,-0.78672 -0.43964,-1.75856 -0.13883,-0.97183 -0.16197,-1.61972 -0.0231,-0.67102 -0.0231,-1.89738 z" />
      <path
         inkscape:connector-curvature="0"
         id="path2958"
         style="font-style:normal;font-variant:normal;font-weight:normal;font-stretch:normal;font-size:47.3884px;font-family:Gidole;-inkscape-font-specification:Gidole;text-align:center;text-anchor:middle"
         d="m 362.936,402.92105 h -3.47083 v -14.73946 q 0,-1.43461 -0.0231,-2.0825 -0.0231,-0.67102 -0.16197,-1.45775 -0.13883,-0.78672 -0.4165,-1.36519 -0.60161,-1.2495 -1.85111,-1.94366 -1.22636,-0.71731 -2.75353,-0.71731 -1.52716,0 -2.77666,0.71731 -1.22636,0.69416 -1.82797,1.94366 -0.27767,0.57847 -0.4165,1.36519 -0.13883,0.78673 -0.16197,1.45775 -0.0231,0.64789 -0.0231,2.0825 v 14.73946 h -3.47083 v -25.03626 h 3.47083 v 2.56842 q 2.54527,-2.93864 5.90041,-2.93864 2.29075,0 4.02616,1.06439 1.73542,1.04125 2.68411,2.89236 1.22636,-1.85111 3.07747,-2.89236 1.85111,-1.06439 4.09558,-1.06439 2.52214,0 4.48894,1.34206 1.98994,1.34205 2.86922,3.70222 0.30081,0.78672 0.43964,1.78169 0.13883,0.97183 0.16197,1.64286 0.0231,0.67103 0.0231,1.9668 v 14.97085 h -3.47083 v -14.73946 q 0,-1.43461 -0.0231,-2.0825 -0.0231,-0.67102 -0.16197,-1.45775 -0.13883,-0.78672 -0.4165,-1.36519 -0.60161,-1.2495 -1.85111,-1.94366 -1.22636,-0.71731 -2.75352,-0.71731 -1.52717,0 -2.77667,0.71731 -1.22636,0.69416 -1.82797,1.94366 -0.27767,0.57847 -0.4165,1.36519 -0.13883,0.78673 -0.16197,1.45775 -0.0231,0.64789 -0.0231,2.0825 z" />
      <path
         inkscape:connector-curvature="0"
         id="path2960"
         style="font-style:normal;font-variant:normal;font-weight:normal;font-stretch:normal;font-size:47.3884px;font-family:Gidole;-inkscape-font-specification:Gidole;text-align:center;text-anchor:middle"
         d="m 403.29019,400.05183 0.55533,2.96178 q -0.92555,0.27766 -2.12877,0.27766 -1.89739,0 -3.14689,-1.52716 -0.87928,-1.06439 -0.87928,-3.26258 V 368.3053 h 3.47083 v 30.19623 q 0,1.04125 0.25453,1.36519 0.25453,0.32394 0.80986,0.32394 0.50906,0 1.06439,-0.13883 z" />
      <path
         inkscape:connector-curvature="0"
         id="path2962"
         style="font-style:normal;font-variant:normal;font-weight:normal;font-stretch:normal;font-size:47.3884px;font-family:Gidole;-inkscape-font-specification:Gidole;text-align:center;text-anchor:middle"
         d="m 422.14837,382.44315 q -1.59658,-1.82797 -4.60463,-1.82797 -3.00806,0 -4.60464,1.82797 -0.62475,0.71731 -1.01811,1.61972 -0.37022,0.87928 -0.53219,2.0825 -0.13884,1.18008 -0.18511,1.98994 -0.0231,0.78672 -0.0231,2.26761 0,1.48089 0.0231,2.29075 0.0463,0.78672 0.18511,1.98994 0.16197,1.18009 0.53219,2.0825 0.39336,0.87928 1.01811,1.59658 1.59658,1.82797 4.60464,1.82797 3.00805,0 4.60463,-1.82797 0.62475,-0.7173 0.99497,-1.59658 0.39336,-0.90241 0.5322,-2.0825 0.16197,-1.20322 0.18511,-1.98994 0.0463,-0.80986 0.0463,-2.29075 0,-1.48089 -0.0463,-2.26761 -0.0231,-0.80986 -0.18511,-1.98994 -0.13884,-1.20322 -0.5322,-2.0825 -0.37022,-0.90241 -0.99497,-1.61972 z m -8.76963,-4.11872 q 1.87425,-0.80986 4.165,-0.80986 2.29074,0 4.16499,0.80986 1.87425,0.78672 3.07747,2.10564 0.92556,1.01811 1.48089,2.22133 0.57847,1.18008 0.78672,2.66097 0.23139,1.45775 0.27767,2.42958 0.0463,0.9487 0.0463,2.66097 0,1.71228 -0.0463,2.68411 -0.0463,0.94869 -0.27767,2.42958 -0.20825,1.45775 -0.78672,2.66097 -0.55533,1.18008 -1.48089,2.19819 -1.20322,1.31892 -3.07747,2.12878 -1.87425,0.78672 -4.16499,0.78672 -2.29075,0 -4.165,-0.78672 -1.87425,-0.80986 -3.07747,-2.12878 -0.92555,-1.01811 -1.50403,-2.19819 -0.55533,-1.20322 -0.78672,-2.66097 -0.20825,-1.48089 -0.25452,-2.42958 -0.0463,-0.97183 -0.0463,-2.68411 0,-1.71227 0.0463,-2.66097 0.0463,-0.97183 0.25452,-2.42958 0.23139,-1.48089 0.78672,-2.66097 0.57848,-1.20322 1.50403,-2.22133 1.20322,-1.31892 3.07747,-2.10564 z" />
      <path
         inkscape:connector-curvature="0"
         id="path2964"
         style="font-style:normal;font-variant:normal;font-weight:normal;font-stretch:normal;font-size:47.3884px;font-family:Gidole;-inkscape-font-specification:Gidole;text-align:center;text-anchor:middle"
         d="m 444.03774,377.51457 q 2.36017,0 4.28069,1.01811 1.92053,1.01811 3.00806,2.68411 1.15694,1.78169 1.50402,3.84105 0.34709,2.03622 0.34709,5.34508 0,3.30886 -0.34709,5.36822 -0.34708,2.03622 -1.50402,3.81791 -1.08753,1.666 -3.00806,2.68411 -1.92052,1.01811 -4.28069,1.01811 -3.86419,0 -6.59457,-3.03119 v 2.66097 h -3.47083 V 368.3053 h 3.47083 v 12.24046 q 2.73038,-3.03119 6.59457,-3.03119 z m 4.28069,5.36822 q -1.64285,-2.26761 -4.74346,-2.26761 -3.10061,0 -4.74347,2.26761 -0.87928,1.20322 -1.13381,2.9155 -0.25452,1.71227 -0.25452,4.60463 0,2.89236 0.25452,4.60464 0.25453,1.71227 1.13381,2.91549 1.64286,2.26761 4.74347,2.26761 3.10061,0 4.74346,-2.26761 0.87928,-1.20322 1.13381,-2.91549 0.25453,-1.71228 0.25453,-4.60464 0,-2.89236 -0.25453,-4.60463 -0.25453,-1.71228 -1.13381,-2.9155 z" />
      <path
         inkscape:connector-curvature="0"
         id="path2966"
         style="font-style:normal;font-variant:normal;font-weight:normal;font-stretch:normal;font-size:47.3884px;font-family:Gidole;-inkscape-font-specification:Gidole;text-align:center;text-anchor:middle"
         d="m 469.86071,377.51457 q 2.36017,0 4.28069,1.01811 1.92053,1.01811 3.00806,2.68411 1.15694,1.78169 1.50402,3.84105 0.34708,2.03622 0.34708,5.34508 0,3.30886 -0.34708,5.36822 -0.34708,2.03622 -1.50402,3.81791 -1.08753,1.666 -3.00806,2.68411 -1.92052,1.01811 -4.28069,1.01811 -3.86419,0 -6.59458,-3.03119 v 2.66097 H 459.7953 V 368.3053 h 3.47083 v 12.24046 q 2.73039,-3.03119 6.59458,-3.03119 z m 4.28069,5.36822 q -1.64286,-2.26761 -4.74347,-2.26761 -3.1006,0 -4.74346,2.26761 -0.87928,1.20322 -1.13381,2.9155 -0.25453,1.71227 -0.25453,4.60463 0,2.89236 0.25453,4.60464 0.25453,1.71227 1.13381,2.91549 1.64286,2.26761 4.74346,2.26761 3.10061,0 4.74347,-2.26761 0.87928,-1.20322 1.13381,-2.91549 0.25452,-1.71228 0.25452,-4.60464 0,-2.89236 -0.25452,-4.60463 -0.25453,-1.71228 -1.13381,-2.9155 z" />
      <path
         inkscape:connector-curvature="0"
         id="path2968"
         style="font-style:normal;font-variant:normal;font-weight:normal;font-stretch:normal;font-size:47.3884px;font-family:Gidole;-inkscape-font-specification:Gidole;text-align:center;text-anchor:middle"
         d="m 483.62835,412.38485 0.76359,-3.00806 q 1.18008,0.32395 2.19819,0.32395 1.666,0 2.77666,-0.87928 0.43964,-0.34708 0.76359,-0.87928 0.34708,-0.50905 0.50905,-0.94869 0.16197,-0.4165 0.4165,-1.20322 l 0.85614,-2.82294 -9.07044,-25.08254 h 3.60967 l 6.98793,20.4779 5.92355,-20.4779 h 3.54025 l -8.72335,28.71534 q -0.46278,1.52716 -1.01811,2.54528 -0.5322,1.01811 -1.43461,1.80483 -2.0825,1.85111 -5.13683,1.85111 -1.29578,0 -2.96178,-0.4165 z" />
    </g>
    <path
       d="m 231.0595,285.91463 v 2.5 38.74024 h 5 v -13.46094 h 55.51172 v -5 -17.7793 h 183.10742 v 19.52149 h -26.5586 v 0.5 60.01953 h 26.5586 v 19.51953 H 291.57122 v -18.78125 -2.5 -2.5 H 236.0595 v -13.61328 h -5 v 42.39453 H 479.67864 V 285.91463 Z m 5,5 h 2.51172 v 17.7793 h -2.51172 z m 3.51172,0 h 3 v 17.7793 h -3 z m 4,0 h 3 v 17.7793 h -3 z m 4,0 h 3 v 17.7793 h -3 z m 4,0 h 3 v 17.7793 h -3 z m 4,0 h 3 v 17.7793 h -3 z m 4,0 h 3 v 17.7793 h -3 z m 4,0 h 3 v 17.7793 h -3 z m 4,0 h 3 v 17.7793 h -3 z m 4,0 h 3 v 17.7793 h -3 z m 4,0 h 3 v 17.7793 h -3 z m 4,0 h 3 v 17.7793 h -3 z m 4,0 h 3 v 17.7793 h -3 z m 4,0 h 3 v 17.7793 h -3 z m 161.54882,20.52149 h 25.5586 v 58.51953 h -25.5586 z M 236.0595,371.69393 h 2.51172 v 18.78125 h -2.51172 z m 3.51172,0 h 3 v 18.78125 h -3 z m 4,0 h 3 v 18.78125 h -3 z m 4,0 h 3 v 18.78125 h -3 z m 4,0 h 3 v 18.78125 h -3 z m 4,0 h 3 v 18.78125 h -3 z m 4,0 h 3 v 18.78125 h -3 z m 4,0 h 3 v 18.78125 h -3 z m 4,0 h 3 v 18.78125 h -3 z m 4,0 h 3 v 18.78125 h -3 z m 4,0 h 3 v 18.78125 h -3 z m 4,0 h 3 v 18.78125 h -3 z m 4,0 h 3 v 18.78125 h -3 z m 4,0 h 3 v 18.78125 h -3 z"
       style="color:#000000;font-style:normal;font-variant:normal;font-weight:normal;font-stretch:normal;font-size:medium;line-height:normal;font-family:sans-serif;font-variant-ligatures:normal;font-variant-position:normal;font-variant-caps:normal;font-variant-numeric:normal;font-variant-alternates:normal;font-variant-east-asian:normal;font-feature-settings:normal;font-variation-settings:normal;text-indent:0;text-align:start;text-decoration:none;text-decoration-line:none;text-decoration-style:solid;text-decoration-color:#000000;letter-spacing:normal;word-spacing:normal;text-transform:none;writing-mode:lr-tb;direction:ltr;text-orientation:mixed;dominant-baseline:auto;baseline-shift:baseline;text-anchor:start;white-space:normal;shape-padding:0;shape-margin:0;inline-size:0;clip-rule:nonzero;display:inline;overflow:visible;visibility:visible;opacity:1;isolation:auto;mix-blend-mode:normal;color-interpolation:sRGB;color-interpolation-filters:linearRGB;solid-color:#000000;solid-opacity:1;vector-effect:none;fill:#000000;fill-opacity:1;fill-rule:nonzero;stroke:none;stroke-width:5;stroke-linecap:round;stroke-linejoin:miter;stroke-miterlimit:4;stroke-dasharray:none;stroke-dashoffset:0;stroke-opacity:1;color-rendering:auto;image-rendering:auto;shape-rendering:auto;text-rendering:auto;enable-background:accumulate;stop-color:#000000;stop-opacity:1"
       id="path2925" />
    <rect
       y="285.91464"
       x="231.05949"
       height="22.779301"
       width="59.511719"
       id="rect2944"
       style="opacity:0.75;fill:#ffffff;fill-opacity:1;stroke:none;stroke-width:1;stroke-linecap:round;stroke-linejoin:miter;stroke-miterlimit:4;stroke-dasharray:none;stroke-opacity:1" />
    <rect
       style="opacity:0.75;fill:#ffffff;fill-opacity:1;stroke:none;stroke-width:1.02196;stroke-linecap:round;stroke-linejoin:miter;stroke-miterlimit:4;stroke-dasharray:none;stroke-opacity:1"
       id="rect2946"
       width="59.511719"
       height="23.79096"
       x="231.05949"
       y="371.68423" />
  </g>
  <g
     style="font-style:normal;font-variant:normal;font-weight:normal;font-stretch:normal;font-size:9.33333px;line-height:1.25;font-family:Gidole;-inkscape-font-specification:Gidole;letter-spacing:0px;word-spacing:0px;fill:#000000;fill-opacity:1;stroke:none"
     id="flowRoot880"
     transform="translate(172,148)"
     aria-label="(click on adjoining rooms/stairs to navigate)
">
    <path
       inkscape:connector-curvature="0"
       id="path890"
       d="m 96.618489,206.88131 q -1.016276,-0.82487 -1.394531,-2.16472 -0.232422,-0.83854 -0.232422,-2.30143 0,-1.44466 0.232422,-2.30143 0.369141,-1.33073 1.394531,-2.16471 l 0.346354,0.40104 q -0.811198,0.75195 -1.111979,1.85482 -0.223307,0.82487 -0.223307,2.21028 0,1.38542 0.223307,2.21029 0.300781,1.10286 1.111979,1.85481 z" />
    <path
       inkscape:connector-curvature="0"
       id="path892"
       d="m 99.717446,199.87675 q 0.751954,0 1.490234,0.46029 l -0.32357,0.53776 q -0.597,-0.38737 -1.166664,-0.38737 -0.597005,0 -0.929687,0.47851 -0.11849,0.17318 -0.177734,0.45573 -0.05924,0.278 -0.06836,0.46485 -0.0091,0.18684 -0.0091,0.5013 0,0.35547 0.0046,0.54687 0.0091,0.18685 0.0638,0.45117 0.05469,0.26433 0.164062,0.44662 0.159506,0.26432 0.414714,0.38737 0.255208,0.12305 0.53776,0.12305 0.309899,0 0.647129,-0.11849 0.34181,-0.11849 0.59701,-0.29167 l 0.34635,0.51953 q -0.32357,0.21875 -0.75195,0.36003 -0.42838,0.14127 -0.838539,0.14127 -0.519531,0 -0.929687,-0.22786 -0.410156,-0.23242 -0.624349,-0.60612 -0.145833,-0.25521 -0.21875,-0.56055 -0.07292,-0.30989 -0.08659,-0.5332 -0.0091,-0.22787 -0.0091,-0.63802 0,-0.35547 0.0091,-0.56966 0.01367,-0.21875 0.08659,-0.54232 0.07292,-0.32357 0.21875,-0.56511 0.223307,-0.37369 0.624349,-0.60156 0.405599,-0.23242 0.929687,-0.23242 z" />
    <path
       inkscape:connector-curvature="0"
       id="path894"
       d="m 103.50455,204.31555 0.10938,0.58333 q -0.18229,0.0547 -0.41927,0.0547 -0.3737,0 -0.61979,-0.30078 -0.17318,-0.20963 -0.17318,-0.64258 v -5.94726 h 0.68359 v 5.94726 q 0,0.20508 0.0501,0.26888 0.0501,0.0638 0.15951,0.0638 0.10026,0 0.20963,-0.0273 z" />
    <path
       inkscape:connector-curvature="0"
       id="path896"
       d="m 104.68033,198.46399 q 0.12305,-0.12305 0.3099,-0.12305 0.18685,0 0.30534,0.12305 0.12305,0.11849 0.12305,0.30534 0,0.18685 -0.12305,0.3099 -0.11849,0.11848 -0.30534,0.11848 -0.18685,0 -0.3099,-0.11848 -0.11849,-0.12305 -0.11849,-0.3099 0,-0.18685 0.11849,-0.30534 z m 0.6517,6.41667 h -0.6836 v -4.93099 h 0.6836 z" />
    <path
       inkscape:connector-curvature="0"
       id="path898"
       d="m 108.52213,199.87675 q 0.75195,0 1.49023,0.46029 l -0.32356,0.53776 q -0.59701,-0.38737 -1.16667,-0.38737 -0.597,0 -0.92969,0.47851 -0.11849,0.17318 -0.17773,0.45573 -0.0593,0.278 -0.0684,0.46485 -0.009,0.18684 -0.009,0.5013 0,0.35547 0.005,0.54687 0.009,0.18685 0.0638,0.45117 0.0547,0.26433 0.16407,0.44662 0.1595,0.26432 0.41471,0.38737 0.25521,0.12305 0.53776,0.12305 0.3099,0 0.64714,-0.11849 0.34179,-0.11849 0.597,-0.29167 l 0.34636,0.51953 q -0.32357,0.21875 -0.75196,0.36003 -0.42838,0.14127 -0.83854,0.14127 -0.51953,0 -0.92969,-0.22786 -0.41015,-0.23242 -0.62435,-0.60612 -0.14583,-0.25521 -0.21875,-0.56055 -0.0729,-0.30989 -0.0866,-0.5332 -0.009,-0.22787 -0.009,-0.63802 0,-0.35547 0.009,-0.56966 0.0137,-0.21875 0.0866,-0.54232 0.0729,-0.32357 0.21875,-0.56511 0.22331,-0.37369 0.62435,-0.60156 0.4056,-0.23242 0.92969,-0.23242 z" />
    <path
       inkscape:connector-curvature="0"
       id="path900"
       d="m 111.20637,198.06295 h 0.6836 v 4.58919 l 2.00065,-2.70247 h 0.80208 l -1.82747,2.43815 1.87304,2.49284 h -0.82031 l -1.48112,-2.01888 -0.54687,0.71093 v 1.30795 h -0.6836 z" />
    <path
       inkscape:connector-curvature="0"
       id="path902"
       d="m 121.12759,200.84745 q -0.31445,-0.36002 -0.9069,-0.36002 -0.59244,0 -0.9069,0.36002 -0.12304,0.14128 -0.20052,0.31901 -0.0729,0.17318 -0.10482,0.41016 -0.0273,0.23242 -0.0365,0.39193 -0.005,0.15494 -0.005,0.44661 0,0.29167 0.005,0.45117 0.009,0.15495 0.0365,0.39193 0.0319,0.23242 0.10482,0.41016 0.0775,0.17317 0.20052,0.31445 0.31446,0.36003 0.9069,0.36003 0.59245,0 0.9069,-0.36003 0.12305,-0.14128 0.19597,-0.31445 0.0775,-0.17774 0.10482,-0.41016 0.0319,-0.23698 0.0365,-0.39193 0.009,-0.1595 0.009,-0.45117 0,-0.29167 -0.009,-0.44661 -0.005,-0.15951 -0.0365,-0.39193 -0.0273,-0.23698 -0.10482,-0.41016 -0.0729,-0.17773 -0.19597,-0.31901 z m -1.72721,-0.81119 q 0.36914,-0.15951 0.82031,-0.15951 0.45118,0 0.82032,0.15951 0.36914,0.15494 0.60612,0.41471 0.18229,0.20052 0.29166,0.4375 0.11393,0.23242 0.15495,0.52409 0.0456,0.28711 0.0547,0.47851 0.009,0.18685 0.009,0.52409 0,0.33724 -0.009,0.52865 -0.009,0.18685 -0.0547,0.47851 -0.041,0.28711 -0.15495,0.52409 -0.10937,0.23242 -0.29166,0.43294 -0.23698,0.25977 -0.60612,0.41927 -0.36914,0.15495 -0.82032,0.15495 -0.45117,0 -0.82031,-0.15495 -0.36914,-0.1595 -0.60612,-0.41927 -0.18229,-0.20052 -0.29622,-0.43294 -0.10938,-0.23698 -0.15495,-0.52409 -0.041,-0.29166 -0.0501,-0.47851 -0.009,-0.19141 -0.009,-0.52865 0,-0.33724 0.009,-0.52409 0.009,-0.1914 0.0501,-0.47851 0.0456,-0.29167 0.15495,-0.52409 0.11393,-0.23698 0.29622,-0.4375 0.23698,-0.25977 0.60612,-0.41471 z" />
    <path
       inkscape:connector-curvature="0"
       id="path904"
       d="m 125.39322,199.87675 q 0.50586,0 0.91601,0.26888 0.41472,0.26432 0.60612,0.74284 0.0684,0.16406 0.10026,0.3737 0.0319,0.20963 0.0365,0.35547 0.005,0.14127 0.005,0.41471 v 2.84831 h -0.68359 v -2.80274 q 0,-0.43294 -0.0182,-0.62435 -0.0182,-0.19596 -0.10026,-0.37369 -0.12761,-0.28256 -0.39649,-0.4375 -0.26432,-0.15495 -0.60156,-0.15495 -0.33724,0 -0.60612,0.15495 -0.26432,0.15494 -0.39193,0.4375 -0.082,0.17773 -0.10026,0.37369 -0.0182,0.19141 -0.0182,0.62435 v 2.80274 h -0.68359 v -4.93099 h 0.68359 v 0.51953 q 0.53776,-0.59245 1.25326,-0.59245 z" />
    <path
       inkscape:connector-curvature="0"
       id="path906"
       d="m 131.57746,203.41777 q 0,0.38736 0.25521,0.65625 0.25976,0.26888 0.72461,0.26888 0.37369,0 0.66536,-0.1823 0.29167,-0.18229 0.41016,-0.55143 0.041,-0.13216 0.0592,-0.30534 0.0228,-0.17317 0.0228,-0.32356 0.005,-0.15495 0.005,-0.50131 h -0.66081 q -0.65625,0 -0.86589,0.0638 -0.29622,0.0911 -0.45573,0.32812 -0.1595,0.23242 -0.1595,0.54688 z m 2.82552,-1.50391 v 2.9668 h -0.68359 v -0.52409 q -0.51954,0.597 -1.25326,0.597 -0.69271,0 -1.13476,-0.4375 -0.4375,-0.44205 -0.4375,-1.0983 0,-0.49219 0.27799,-0.87045 0.28255,-0.38281 0.79297,-0.53776 0.15039,-0.0456 0.33268,-0.0684 0.18229,-0.0228 0.31901,-0.0228 0.13672,-0.005 0.41472,-0.005 h 0.68815 q 0,-0.36458 -0.0137,-0.51953 -0.009,-0.15951 -0.0592,-0.29167 -0.11393,-0.30534 -0.38281,-0.46028 -0.26888,-0.15495 -0.61524,-0.15495 -0.50586,0 -1.19856,0.33268 l -0.25977,-0.5651 q 0.82943,-0.37826 1.45833,-0.37826 0.60612,0 1.06185,0.29167 0.45573,0.29166 0.61979,0.83398 0.0729,0.24154 0.0729,0.91146 z" />
    <path
       inkscape:connector-curvature="0"
       id="path908"
       d="m 137.45637,199.87675 q 0.76106,0 1.29882,0.59701 v -2.41081 h 0.6836 v 6.81771 h -0.6836 v -0.52409 q -0.53776,0.597 -1.29882,0.597 -0.46485,0 -0.8431,-0.20052 -0.37826,-0.20052 -0.59245,-0.52864 -0.22787,-0.35092 -0.29622,-0.75196 -0.0684,-0.4056 -0.0684,-1.05729 0,-0.65169 0.0684,-1.05273 0.0683,-0.4056 0.29622,-0.75651 0.21419,-0.32813 0.59245,-0.52865 0.37825,-0.20052 0.8431,-0.20052 z m 1.02539,1.05729 q -0.32357,-0.44661 -0.93425,-0.44661 -0.61068,0 -0.93424,0.44661 -0.17318,0.23698 -0.22331,0.57422 -0.0501,0.33724 -0.0501,0.9069 0,0.56966 0.0501,0.9069 0.0501,0.33724 0.22331,0.57422 0.32356,0.44662 0.93424,0.44662 0.61068,0 0.93425,-0.44662 0.17317,-0.23698 0.2233,-0.57422 0.0501,-0.33724 0.0501,-0.9069 0,-0.56966 -0.0501,-0.9069 -0.0501,-0.33724 -0.2233,-0.57422 z" />
    <path
       inkscape:connector-curvature="0"
       id="path910"
       d="m 140.95637,198.46399 q 0.12304,-0.12305 0.30989,-0.12305 0.18685,0 0.30534,0.12305 0.12305,0.11849 0.12305,0.30534 0,0.18685 -0.12305,0.3099 -0.11849,0.11848 -0.30534,0.11848 -0.18685,0 -0.30989,-0.11848 -0.11849,-0.12305 -0.11849,-0.3099 0,-0.18685 0.11849,-0.30534 z m 0.65169,7.02734 q 0,0.42839 -0.0456,0.59245 -0.0957,0.3418 -0.3737,0.54232 -0.278,0.20508 -0.65169,0.20508 -0.32357,0 -0.59701,-0.0866 l 0.17318,-0.59245 q 0.20508,0.0684 0.37825,0.0684 0.29167,0 0.38737,-0.24609 0.0456,-0.11394 0.0456,-0.50586 v -5.51888 h 0.6836 z" />
    <path
       inkscape:connector-curvature="0"
       id="path912"
       d="m 145.77342,200.84745 q -0.31445,-0.36002 -0.9069,-0.36002 -0.59245,0 -0.9069,0.36002 -0.12305,0.14128 -0.20052,0.31901 -0.0729,0.17318 -0.10482,0.41016 -0.0274,0.23242 -0.0365,0.39193 -0.005,0.15494 -0.005,0.44661 0,0.29167 0.005,0.45117 0.009,0.15495 0.0365,0.39193 0.0319,0.23242 0.10482,0.41016 0.0775,0.17317 0.20052,0.31445 0.31445,0.36003 0.9069,0.36003 0.59245,0 0.9069,-0.36003 0.12305,-0.14128 0.19596,-0.31445 0.0775,-0.17774 0.10482,-0.41016 0.0319,-0.23698 0.0365,-0.39193 0.009,-0.1595 0.009,-0.45117 0,-0.29167 -0.009,-0.44661 -0.005,-0.15951 -0.0365,-0.39193 -0.0273,-0.23698 -0.10482,-0.41016 -0.0729,-0.17773 -0.19596,-0.31901 z m -1.72721,-0.81119 q 0.36914,-0.15951 0.82031,-0.15951 0.45117,0 0.82031,0.15951 0.36914,0.15494 0.60612,0.41471 0.18229,0.20052 0.29167,0.4375 0.11393,0.23242 0.15494,0.52409 0.0456,0.28711 0.0547,0.47851 0.009,0.18685 0.009,0.52409 0,0.33724 -0.009,0.52865 -0.009,0.18685 -0.0547,0.47851 -0.041,0.28711 -0.15494,0.52409 -0.10938,0.23242 -0.29167,0.43294 -0.23698,0.25977 -0.60612,0.41927 -0.36914,0.15495 -0.82031,0.15495 -0.45117,0 -0.82031,-0.15495 -0.36914,-0.1595 -0.60612,-0.41927 -0.1823,-0.20052 -0.29623,-0.43294 -0.10937,-0.23698 -0.15495,-0.52409 -0.041,-0.29166 -0.0501,-0.47851 -0.009,-0.19141 -0.009,-0.52865 0,-0.33724 0.009,-0.52409 0.009,-0.1914 0.0501,-0.47851 0.0456,-0.29167 0.15495,-0.52409 0.11393,-0.23698 0.29623,-0.4375 0.23698,-0.25977 0.60612,-0.41471 z" />
    <path
       inkscape:connector-curvature="0"
       id="path914"
       d="m 148.15688,198.46399 q 0.12305,-0.12305 0.3099,-0.12305 0.18685,0 0.30534,0.12305 0.12304,0.11849 0.12304,0.30534 0,0.18685 -0.12304,0.3099 -0.11849,0.11848 -0.30534,0.11848 -0.18685,0 -0.3099,-0.11848 -0.11849,-0.12305 -0.11849,-0.3099 0,-0.18685 0.11849,-0.30534 z m 0.65169,6.41667 h -0.68359 v -4.93099 h 0.68359 z" />
    <path
       inkscape:connector-curvature="0"
       id="path916"
       d="m 152.22654,199.87675 q 0.50586,0 0.91602,0.26888 0.41471,0.26432 0.60612,0.74284 0.0684,0.16406 0.10026,0.3737 0.0319,0.20963 0.0365,0.35547 0.005,0.14127 0.005,0.41471 v 2.84831 h -0.68359 v -2.80274 q 0,-0.43294 -0.0182,-0.62435 -0.0182,-0.19596 -0.10026,-0.37369 -0.1276,-0.28256 -0.39648,-0.4375 -0.26433,-0.15495 -0.60157,-0.15495 -0.33724,0 -0.60612,0.15495 -0.26432,0.15494 -0.39192,0.4375 -0.082,0.17773 -0.10026,0.37369 -0.0182,0.19141 -0.0182,0.62435 v 2.80274 h -0.6836 v -4.93099 h 0.6836 v 0.51953 q 0.53776,-0.59245 1.25325,-0.59245 z" />
    <path
       inkscape:connector-curvature="0"
       id="path918"
       d="m 155.3574,198.46399 q 0.12305,-0.12305 0.3099,-0.12305 0.18685,0 0.30534,0.12305 0.12304,0.11849 0.12304,0.30534 0,0.18685 -0.12304,0.3099 -0.11849,0.11848 -0.30534,0.11848 -0.18685,0 -0.3099,-0.11848 -0.11849,-0.12305 -0.11849,-0.3099 0,-0.18685 0.11849,-0.30534 z m 0.65169,6.41667 h -0.68359 v -4.93099 h 0.68359 z" />
    <path
       inkscape:connector-curvature="0"
       id="path920"
       d="m 159.42706,199.87675 q 0.50586,0 0.91602,0.26888 0.41471,0.26432 0.60612,0.74284 0.0684,0.16406 0.10026,0.3737 0.0319,0.20963 0.0365,0.35547 0.005,0.14127 0.005,0.41471 v 2.84831 h -0.68359 v -2.80274 q 0,-0.43294 -0.0182,-0.62435 -0.0182,-0.19596 -0.10026,-0.37369 -0.1276,-0.28256 -0.39648,-0.4375 -0.26433,-0.15495 -0.60157,-0.15495 -0.33724,0 -0.60612,0.15495 -0.26432,0.15494 -0.39192,0.4375 -0.082,0.17773 -0.10026,0.37369 -0.0182,0.19141 -0.0182,0.62435 v 2.80274 h -0.6836 v -4.93099 h 0.6836 v 0.51953 q 0.53776,-0.59245 1.25325,-0.59245 z" />
    <path
       inkscape:connector-curvature="0"
       id="path922"
       d="m 164.14385,199.87675 q 0.76107,0 1.29883,0.59701 v -0.52409 h 0.6836 v 4.42513 q 0,0.80208 -0.0729,1.08463 -0.17318,0.66992 -0.69727,1.01628 -0.52409,0.35091 -1.21224,0.35091 -0.72916,0 -1.53125,-0.33268 l 0.22787,-0.57422 q 0.71094,0.29622 1.30338,0.29622 0.47396,0 0.80664,-0.23242 0.33724,-0.23242 0.44206,-0.68359 0.0501,-0.21875 0.0501,-0.94336 -0.53776,0.597 -1.29883,0.597 -0.46484,0 -0.84309,-0.20052 -0.37826,-0.20052 -0.59245,-0.52864 -0.22787,-0.35092 -0.29623,-0.75196 -0.0684,-0.4056 -0.0684,-1.05729 0,-0.65169 0.0684,-1.05273 0.0684,-0.4056 0.29623,-0.75651 0.21419,-0.32813 0.59245,-0.52865 0.37825,-0.20052 0.84309,-0.20052 z m 1.02539,1.05729 q -0.32356,-0.44661 -0.93424,-0.44661 -0.61068,0 -0.93424,0.44661 -0.17318,0.23698 -0.22331,0.57422 -0.0501,0.33724 -0.0501,0.9069 0,0.56966 0.0501,0.9069 0.0501,0.33724 0.22331,0.57422 0.32356,0.44662 0.93424,0.44662 0.61068,0 0.93424,-0.44662 0.17318,-0.23698 0.22331,-0.57422 0.0501,-0.33724 0.0501,-0.9069 0,-0.56966 -0.0501,-0.9069 -0.0501,-0.33724 -0.22331,-0.57422 z" />
    <path
       inkscape:connector-curvature="0"
       id="path924"
       d="m 170.97067,200.4692 q 0.49675,-0.59245 1.16211,-0.59245 0.18685,0 0.41927,0.0501 l -0.10026,0.60156 q -0.28711,-0.041 -0.41015,-0.041 -0.34636,0 -0.60156,0.16406 -0.25521,0.16406 -0.36914,0.44206 -0.10027,0.24153 -0.10027,0.85677 v 2.93034 h -0.68359 v -4.93099 h 0.68359 z" />
    <path
       inkscape:connector-curvature="0"
       id="path926"
       d="m 176.05205,200.84745 q -0.31445,-0.36002 -0.9069,-0.36002 -0.59245,0 -0.9069,0.36002 -0.12305,0.14128 -0.20052,0.31901 -0.0729,0.17318 -0.10482,0.41016 -0.0273,0.23242 -0.0365,0.39193 -0.005,0.15494 -0.005,0.44661 0,0.29167 0.005,0.45117 0.009,0.15495 0.0365,0.39193 0.0319,0.23242 0.10482,0.41016 0.0775,0.17317 0.20052,0.31445 0.31445,0.36003 0.9069,0.36003 0.59245,0 0.9069,-0.36003 0.12305,-0.14128 0.19597,-0.31445 0.0775,-0.17774 0.10481,-0.41016 0.0319,-0.23698 0.0365,-0.39193 0.009,-0.1595 0.009,-0.45117 0,-0.29167 -0.009,-0.44661 -0.005,-0.15951 -0.0365,-0.39193 -0.0273,-0.23698 -0.10481,-0.41016 -0.0729,-0.17773 -0.19597,-0.31901 z m -1.72721,-0.81119 q 0.36914,-0.15951 0.82031,-0.15951 0.45117,0 0.82031,0.15951 0.36914,0.15494 0.60612,0.41471 0.18229,0.20052 0.29167,0.4375 0.11393,0.23242 0.15495,0.52409 0.0456,0.28711 0.0547,0.47851 0.009,0.18685 0.009,0.52409 0,0.33724 -0.009,0.52865 -0.009,0.18685 -0.0547,0.47851 -0.041,0.28711 -0.15495,0.52409 -0.10938,0.23242 -0.29167,0.43294 -0.23698,0.25977 -0.60612,0.41927 -0.36914,0.15495 -0.82031,0.15495 -0.45117,0 -0.82031,-0.15495 -0.36914,-0.1595 -0.60612,-0.41927 -0.18229,-0.20052 -0.29622,-0.43294 -0.10938,-0.23698 -0.15495,-0.52409 -0.041,-0.29166 -0.0501,-0.47851 -0.009,-0.19141 -0.009,-0.52865 0,-0.33724 0.009,-0.52409 0.009,-0.1914 0.0501,-0.47851 0.0456,-0.29167 0.15495,-0.52409 0.11393,-0.23698 0.29622,-0.4375 0.23698,-0.25977 0.60612,-0.41471 z" />
    <path
       inkscape:connector-curvature="0"
       id="path928"
       d="m 181.06508,200.84745 q -0.31446,-0.36002 -0.90691,-0.36002 -0.59244,0 -0.9069,0.36002 -0.12304,0.14128 -0.20052,0.31901 -0.0729,0.17318 -0.10481,0.41016 -0.0274,0.23242 -0.0365,0.39193 -0.005,0.15494 -0.005,0.44661 0,0.29167 0.005,0.45117 0.009,0.15495 0.0365,0.39193 0.0319,0.23242 0.10481,0.41016 0.0775,0.17317 0.20052,0.31445 0.31446,0.36003 0.9069,0.36003 0.59245,0 0.90691,-0.36003 0.12304,-0.14128 0.19596,-0.31445 0.0775,-0.17774 0.10482,-0.41016 0.0319,-0.23698 0.0365,-0.39193 0.009,-0.1595 0.009,-0.45117 0,-0.29167 -0.009,-0.44661 -0.005,-0.15951 -0.0365,-0.39193 -0.0273,-0.23698 -0.10482,-0.41016 -0.0729,-0.17773 -0.19596,-0.31901 z m -1.72722,-0.81119 q 0.36914,-0.15951 0.82031,-0.15951 0.45118,0 0.82032,0.15951 0.36914,0.15494 0.60612,0.41471 0.18229,0.20052 0.29166,0.4375 0.11393,0.23242 0.15495,0.52409 0.0456,0.28711 0.0547,0.47851 0.009,0.18685 0.009,0.52409 0,0.33724 -0.009,0.52865 -0.009,0.18685 -0.0547,0.47851 -0.041,0.28711 -0.15495,0.52409 -0.10937,0.23242 -0.29166,0.43294 -0.23698,0.25977 -0.60612,0.41927 -0.36914,0.15495 -0.82032,0.15495 -0.45117,0 -0.82031,-0.15495 -0.36914,-0.1595 -0.60612,-0.41927 -0.18229,-0.20052 -0.29622,-0.43294 -0.10938,-0.23698 -0.15495,-0.52409 -0.041,-0.29166 -0.0501,-0.47851 -0.009,-0.19141 -0.009,-0.52865 0,-0.33724 0.009,-0.52409 0.009,-0.1914 0.0501,-0.47851 0.0456,-0.29167 0.15495,-0.52409 0.11393,-0.23698 0.29622,-0.4375 0.23698,-0.25977 0.60612,-0.41471 z" />
    <path
       inkscape:connector-curvature="0"
       id="path930"
       d="m 186.81181,204.88066 h -0.68359 v -2.903 q 0,-0.28255 -0.005,-0.41015 -0.005,-0.13217 -0.0319,-0.28711 -0.0273,-0.15495 -0.082,-0.26888 -0.11849,-0.2461 -0.36458,-0.38282 -0.24154,-0.14127 -0.54232,-0.14127 -0.30078,0 -0.54687,0.14127 -0.24154,0.13672 -0.36003,0.38282 -0.0547,0.11393 -0.082,0.26888 -0.0274,0.15494 -0.0319,0.28711 -0.005,0.1276 -0.005,0.41015 v 2.903 h -0.68359 v -4.93099 h 0.68359 v 0.50586 q 0.5013,-0.57878 1.16211,-0.57878 0.45117,0 0.79297,0.20964 0.34179,0.20507 0.52864,0.56966 0.24154,-0.36459 0.60612,-0.56966 0.36459,-0.20964 0.80664,-0.20964 0.49675,0 0.88412,0.26432 0.39192,0.26433 0.5651,0.72917 0.0593,0.15495 0.0866,0.35091 0.0273,0.19141 0.0319,0.32357 0.005,0.13216 0.005,0.38737 v 2.94857 h -0.68359 v -2.903 q 0,-0.28255 -0.005,-0.41015 -0.005,-0.13217 -0.0319,-0.28711 -0.0274,-0.15495 -0.082,-0.26888 -0.11849,-0.2461 -0.36459,-0.38282 -0.24153,-0.14127 -0.54232,-0.14127 -0.30078,0 -0.54687,0.14127 -0.24154,0.13672 -0.36003,0.38282 -0.0547,0.11393 -0.082,0.26888 -0.0273,0.15494 -0.0319,0.28711 -0.005,0.1276 -0.005,0.41015 z" />
    <path
       inkscape:connector-curvature="0"
       id="path932"
       d="m 192.40817,199.87675 q 0.67903,0 1.56315,0.3737 l -0.23242,0.57877 q -0.80209,-0.34179 -1.33073,-0.34179 -0.26433,0 -0.46485,0.0775 -0.20052,0.0775 -0.30078,0.20052 -0.10026,0.12305 -0.15039,0.2461 -0.0456,0.12304 -0.0456,0.24153 0,0.22787 0.12305,0.40104 0.1276,0.16862 0.31901,0.25521 0.18684,0.0866 0.61067,0.15039 0.42839,0.0593 0.7155,0.16407 0.40104,0.15039 0.67448,0.48763 0.27343,0.33723 0.27343,0.79752 0,0.57878 -0.4694,1.01172 -0.4694,0.43294 -1.28515,0.43294 -0.76563,0 -1.72266,-0.42383 l 0.24609,-0.56966 q 0.84766,0.38282 1.47657,0.38282 0.28255,0 0.49674,-0.0775 0.21875,-0.0775 0.33724,-0.20508 0.11849,-0.1276 0.17774,-0.26432 0.0592,-0.14128 0.0592,-0.28711 0,-0.25976 -0.15495,-0.45117 -0.15495,-0.19141 -0.38281,-0.278 -0.15495,-0.0592 -0.62435,-0.13216 -0.4694,-0.0729 -0.74739,-0.20052 -0.35092,-0.16406 -0.57878,-0.47396 -0.22786,-0.30989 -0.22786,-0.72005 0,-0.56054 0.44661,-0.96614 0.45117,-0.41016 1.19857,-0.41016 z" />
    <path
       inkscape:connector-curvature="0"
       id="path934"
       d="m 197.61715,198.42753 h 0.66993 l -2.60222,6.86328 h -0.66992 z" />
    <path
       inkscape:connector-curvature="0"
       id="path936"
       d="m 200.59307,199.87675 q 0.67903,0 1.56315,0.3737 l -0.23243,0.57877 q -0.80208,-0.34179 -1.33072,-0.34179 -0.26433,0 -0.46485,0.0775 -0.20052,0.0775 -0.30078,0.20052 -0.10026,0.12305 -0.15039,0.2461 -0.0456,0.12304 -0.0456,0.24153 0,0.22787 0.12304,0.40104 0.12761,0.16862 0.31901,0.25521 0.18685,0.0866 0.61068,0.15039 0.42839,0.0593 0.7155,0.16407 0.40104,0.15039 0.67447,0.48763 0.27344,0.33723 0.27344,0.79752 0,0.57878 -0.4694,1.01172 -0.4694,0.43294 -1.28515,0.43294 -0.76563,0 -1.72266,-0.42383 l 0.24609,-0.56966 q 0.84766,0.38282 1.47657,0.38282 0.28255,0 0.49674,-0.0775 0.21875,-0.0775 0.33724,-0.20508 0.11849,-0.1276 0.17773,-0.26432 0.0592,-0.14128 0.0592,-0.28711 0,-0.25976 -0.15495,-0.45117 -0.15495,-0.19141 -0.38281,-0.278 -0.15495,-0.0592 -0.62435,-0.13216 -0.4694,-0.0729 -0.7474,-0.20052 -0.35091,-0.16406 -0.57877,-0.47396 -0.22787,-0.30989 -0.22787,-0.72005 0,-0.56054 0.44662,-0.96614 0.45117,-0.41016 1.19857,-0.41016 z" />
    <path
       inkscape:connector-curvature="0"
       id="path938"
       d="m 203.4915,203.4998 v -2.98503 h -0.6836 v -0.5651 h 0.6836 v -1.06641 h 0.68359 v 1.06641 h 0.91146 v 0.5651 h -0.91146 v 2.98503 q 0,0.49218 0.041,0.59244 0.10482,0.25066 0.39193,0.25066 0.23698,0 0.51953,-0.14584 l 0.26433,0.56511 q -0.4375,0.1914 -0.82943,0.1914 -0.38737,0 -0.65625,-0.18685 -0.26432,-0.18685 -0.36458,-0.5332 -0.0501,-0.17318 -0.0501,-0.73372 z" />
    <path
       inkscape:connector-curvature="0"
       id="path940"
       d="m 206.73629,203.41777 q 0,0.38736 0.25521,0.65625 0.25977,0.26888 0.72461,0.26888 0.3737,0 0.66536,-0.1823 0.29167,-0.18229 0.41016,-0.55143 0.041,-0.13216 0.0592,-0.30534 0.0228,-0.17317 0.0228,-0.32356 0.005,-0.15495 0.005,-0.50131 h -0.66081 q -0.65625,0 -0.86588,0.0638 -0.29623,0.0911 -0.45573,0.32812 -0.15951,0.23242 -0.15951,0.54688 z m 2.82552,-1.50391 v 2.9668 h -0.68359 v -0.52409 q -0.51953,0.597 -1.25326,0.597 -0.6927,0 -1.13476,-0.4375 -0.4375,-0.44205 -0.4375,-1.0983 0,-0.49219 0.27799,-0.87045 0.28256,-0.38281 0.79297,-0.53776 0.15039,-0.0456 0.33268,-0.0684 0.1823,-0.0228 0.31901,-0.0228 0.13672,-0.005 0.41472,-0.005 h 0.68815 q 0,-0.36458 -0.0137,-0.51953 -0.009,-0.15951 -0.0593,-0.29167 -0.11393,-0.30534 -0.38281,-0.46028 -0.26888,-0.15495 -0.61523,-0.15495 -0.50586,0 -1.19857,0.33268 l -0.25977,-0.5651 q 0.82943,-0.37826 1.45834,-0.37826 0.60611,0 1.06184,0.29167 0.45573,0.29166 0.6198,0.83398 0.0729,0.24154 0.0729,0.91146 z" />
    <path
       inkscape:connector-curvature="0"
       id="path942"
       d="m 211.02925,198.46399 q 0.12305,-0.12305 0.3099,-0.12305 0.18685,0 0.30534,0.12305 0.12304,0.11849 0.12304,0.30534 0,0.18685 -0.12304,0.3099 -0.11849,0.11848 -0.30534,0.11848 -0.18685,0 -0.3099,-0.11848 -0.11849,-0.12305 -0.11849,-0.3099 0,-0.18685 0.11849,-0.30534 z m 0.6517,6.41667 h -0.6836 v -4.93099 h 0.6836 z" />
    <path
       inkscape:connector-curvature="0"
       id="path944"
       d="m 213.84566,200.4692 q 0.49674,-0.59245 1.16211,-0.59245 0.18685,0 0.41927,0.0501 l -0.10026,0.60156 q -0.28711,-0.041 -0.41016,-0.041 -0.34635,0 -0.60156,0.16406 -0.25521,0.16406 -0.36914,0.44206 -0.10026,0.24153 -0.10026,0.85677 v 2.93034 h -0.68359 v -4.93099 h 0.68359 z" />
    <path
       inkscape:connector-curvature="0"
       id="path946"
       d="m 217.78316,199.87675 q 0.67904,0 1.56315,0.3737 l -0.23242,0.57877 q -0.80209,-0.34179 -1.33073,-0.34179 -0.26432,0 -0.46484,0.0775 -0.20053,0.0775 -0.30079,0.20052 -0.10026,0.12305 -0.15039,0.2461 -0.0456,0.12304 -0.0456,0.24153 0,0.22787 0.12305,0.40104 0.1276,0.16862 0.31901,0.25521 0.18685,0.0866 0.61067,0.15039 0.42839,0.0593 0.7155,0.16407 0.40104,0.15039 0.67448,0.48763 0.27344,0.33723 0.27344,0.79752 0,0.57878 -0.46941,1.01172 -0.4694,0.43294 -1.28515,0.43294 -0.76563,0 -1.72266,-0.42383 l 0.2461,-0.56966 q 0.84765,0.38282 1.47656,0.38282 0.28255,0 0.49674,-0.0775 0.21875,-0.0775 0.33724,-0.20508 0.11849,-0.1276 0.17774,-0.26432 0.0592,-0.14128 0.0592,-0.28711 0,-0.25976 -0.15495,-0.45117 -0.15494,-0.19141 -0.38281,-0.278 -0.15495,-0.0592 -0.62435,-0.13216 -0.4694,-0.0729 -0.74739,-0.20052 -0.35091,-0.16406 -0.57878,-0.47396 -0.22786,-0.30989 -0.22786,-0.72005 0,-0.56054 0.44661,-0.96614 0.45117,-0.41016 1.19857,-0.41016 z" />
    <path
       inkscape:connector-curvature="0"
       id="path948"
       d="m 223.56181,203.4998 v -2.98503 h -0.6836 v -0.5651 h 0.6836 v -1.06641 h 0.68359 v 1.06641 h 0.91146 v 0.5651 h -0.91146 v 2.98503 q 0,0.49218 0.041,0.59244 0.10481,0.25066 0.39192,0.25066 0.23698,0 0.51954,-0.14584 l 0.26432,0.56511 q -0.4375,0.1914 -0.82943,0.1914 -0.38737,0 -0.65625,-0.18685 -0.26432,-0.18685 -0.36458,-0.5332 -0.0501,-0.17318 -0.0501,-0.73372 z" />
    <path
       inkscape:connector-curvature="0"
       id="path950"
       d="m 228.95308,200.84745 q -0.31445,-0.36002 -0.9069,-0.36002 -0.59245,0 -0.9069,0.36002 -0.12305,0.14128 -0.20052,0.31901 -0.0729,0.17318 -0.10482,0.41016 -0.0273,0.23242 -0.0365,0.39193 -0.005,0.15494 -0.005,0.44661 0,0.29167 0.005,0.45117 0.009,0.15495 0.0365,0.39193 0.0319,0.23242 0.10482,0.41016 0.0775,0.17317 0.20052,0.31445 0.31445,0.36003 0.9069,0.36003 0.59245,0 0.9069,-0.36003 0.12305,-0.14128 0.19597,-0.31445 0.0775,-0.17774 0.10481,-0.41016 0.0319,-0.23698 0.0365,-0.39193 0.009,-0.1595 0.009,-0.45117 0,-0.29167 -0.009,-0.44661 -0.005,-0.15951 -0.0365,-0.39193 -0.0273,-0.23698 -0.10481,-0.41016 -0.0729,-0.17773 -0.19597,-0.31901 z m -1.72721,-0.81119 q 0.36914,-0.15951 0.82031,-0.15951 0.45117,0 0.82031,0.15951 0.36915,0.15494 0.60612,0.41471 0.1823,0.20052 0.29167,0.4375 0.11393,0.23242 0.15495,0.52409 0.0456,0.28711 0.0547,0.47851 0.009,0.18685 0.009,0.52409 0,0.33724 -0.009,0.52865 -0.009,0.18685 -0.0547,0.47851 -0.041,0.28711 -0.15495,0.52409 -0.10937,0.23242 -0.29167,0.43294 -0.23697,0.25977 -0.60612,0.41927 -0.36914,0.15495 -0.82031,0.15495 -0.45117,0 -0.82031,-0.15495 -0.36914,-0.1595 -0.60612,-0.41927 -0.18229,-0.20052 -0.29622,-0.43294 -0.10938,-0.23698 -0.15495,-0.52409 -0.041,-0.29166 -0.0501,-0.47851 -0.009,-0.19141 -0.009,-0.52865 0,-0.33724 0.009,-0.52409 0.009,-0.1914 0.0501,-0.47851 0.0456,-0.29167 0.15495,-0.52409 0.11393,-0.23698 0.29622,-0.4375 0.23698,-0.25977 0.60612,-0.41471 z" />
    <path
       inkscape:connector-curvature="0"
       id="path952"
       d="m 235.91663,199.87675 q 0.50585,0 0.91601,0.26888 0.41471,0.26432 0.60612,0.74284 0.0684,0.16406 0.10026,0.3737 0.0319,0.20963 0.0365,0.35547 0.005,0.14127 0.005,0.41471 v 2.84831 h -0.6836 v -2.80274 q 0,-0.43294 -0.0182,-0.62435 -0.0182,-0.19596 -0.10026,-0.37369 -0.1276,-0.28256 -0.39648,-0.4375 -0.26432,-0.15495 -0.60156,-0.15495 -0.33724,0 -0.60612,0.15495 -0.26433,0.15494 -0.39193,0.4375 -0.082,0.17773 -0.10026,0.37369 -0.0182,0.19141 -0.0182,0.62435 v 2.80274 h -0.68359 v -4.93099 h 0.68359 v 0.51953 q 0.53776,-0.59245 1.25326,-0.59245 z" />
    <path
       inkscape:connector-curvature="0"
       id="path954"
       d="m 239.40295,203.41777 q 0,0.38736 0.25521,0.65625 0.25976,0.26888 0.72461,0.26888 0.37369,0 0.66536,-0.1823 0.29167,-0.18229 0.41016,-0.55143 0.041,-0.13216 0.0592,-0.30534 0.0228,-0.17317 0.0228,-0.32356 0.005,-0.15495 0.005,-0.50131 h -0.6608 q -0.65625,0 -0.86589,0.0638 -0.29622,0.0911 -0.45573,0.32812 -0.1595,0.23242 -0.1595,0.54688 z m 2.82552,-1.50391 v 2.9668 h -0.6836 v -0.52409 q -0.51953,0.597 -1.25325,0.597 -0.69271,0 -1.13477,-0.4375 -0.43749,-0.44205 -0.43749,-1.0983 0,-0.49219 0.27799,-0.87045 0.28255,-0.38281 0.79297,-0.53776 0.15039,-0.0456 0.33268,-0.0684 0.18229,-0.0228 0.31901,-0.0228 0.13672,-0.005 0.41471,-0.005 h 0.68815 q 0,-0.36458 -0.0137,-0.51953 -0.009,-0.15951 -0.0592,-0.29167 -0.11393,-0.30534 -0.38281,-0.46028 -0.26888,-0.15495 -0.61524,-0.15495 -0.50586,0 -1.19857,0.33268 l -0.25976,-0.5651 q 0.82943,-0.37826 1.45833,-0.37826 0.60612,0 1.06185,0.29167 0.45573,0.29166 0.61979,0.83398 0.0729,0.24154 0.0729,0.91146 z" />
    <path
       inkscape:connector-curvature="0"
       id="path956"
       d="m 244.74864,204.88066 -1.6543,-4.93099 h 0.7155 l 1.26693,4.05599 1.26692,-4.05599 h 0.7155 l -1.6543,4.93099 z" />
    <path
       inkscape:connector-curvature="0"
       id="path958"
       d="m 248.1256,198.46399 q 0.12305,-0.12305 0.3099,-0.12305 0.18685,0 0.30534,0.12305 0.12305,0.11849 0.12305,0.30534 0,0.18685 -0.12305,0.3099 -0.11849,0.11848 -0.30534,0.11848 -0.18685,0 -0.3099,-0.11848 -0.11848,-0.12305 -0.11848,-0.3099 0,-0.18685 0.11848,-0.30534 z m 0.6517,6.41667 h -0.6836 v -4.93099 h 0.6836 z" />
    <path
       inkscape:connector-curvature="0"
       id="path960"
       d="m 251.89903,199.87675 q 0.76106,0 1.29882,0.59701 v -0.52409 h 0.6836 v 4.42513 q 0,0.80208 -0.0729,1.08463 -0.17318,0.66992 -0.69726,1.01628 -0.52409,0.35091 -1.21224,0.35091 -0.72917,0 -1.53125,-0.33268 l 0.22786,-0.57422 q 0.71094,0.29622 1.30339,0.29622 0.47395,0 0.80664,-0.23242 0.33724,-0.23242 0.44205,-0.68359 0.0501,-0.21875 0.0501,-0.94336 -0.53776,0.597 -1.29882,0.597 -0.46485,0 -0.8431,-0.20052 -0.37826,-0.20052 -0.59245,-0.52864 -0.22786,-0.35092 -0.29622,-0.75196 -0.0684,-0.4056 -0.0684,-1.05729 0,-0.65169 0.0684,-1.05273 0.0684,-0.4056 0.29622,-0.75651 0.21419,-0.32813 0.59245,-0.52865 0.37825,-0.20052 0.8431,-0.20052 z m 1.02539,1.05729 q -0.32357,-0.44661 -0.93425,-0.44661 -0.61067,0 -0.93424,0.44661 -0.17318,0.23698 -0.22331,0.57422 -0.0501,0.33724 -0.0501,0.9069 0,0.56966 0.0501,0.9069 0.0501,0.33724 0.22331,0.57422 0.32357,0.44662 0.93424,0.44662 0.61068,0 0.93425,-0.44662 0.17317,-0.23698 0.2233,-0.57422 0.0501,-0.33724 0.0501,-0.9069 0,-0.56966 -0.0501,-0.9069 -0.0501,-0.33724 -0.2233,-0.57422 z" />
    <path
       inkscape:connector-curvature="0"
       id="path962"
       d="m 255.7545,203.41777 q 0,0.38736 0.2552,0.65625 0.25977,0.26888 0.72461,0.26888 0.3737,0 0.66537,-0.1823 0.29166,-0.18229 0.41015,-0.55143 0.041,-0.13216 0.0593,-0.30534 0.0228,-0.17317 0.0228,-0.32356 0.005,-0.15495 0.005,-0.50131 h -0.6608 q -0.65625,0 -0.86589,0.0638 -0.29622,0.0911 -0.45573,0.32812 -0.1595,0.23242 -0.1595,0.54688 z m 2.82552,-1.50391 v 2.9668 h -0.6836 v -0.52409 q -0.51953,0.597 -1.25325,0.597 -0.69271,0 -1.13477,-0.4375 -0.4375,-0.44205 -0.4375,-1.0983 0,-0.49219 0.278,-0.87045 0.28255,-0.38281 0.79297,-0.53776 0.15039,-0.0456 0.33268,-0.0684 0.18229,-0.0228 0.31901,-0.0228 0.13672,-0.005 0.41471,-0.005 h 0.68815 q 0,-0.36458 -0.0137,-0.51953 -0.009,-0.15951 -0.0592,-0.29167 -0.11394,-0.30534 -0.38282,-0.46028 -0.26888,-0.15495 -0.61523,-0.15495 -0.50586,0 -1.19857,0.33268 l -0.25976,-0.5651 q 0.82942,-0.37826 1.45833,-0.37826 0.60612,0 1.06185,0.29167 0.45573,0.29166 0.61979,0.83398 0.0729,0.24154 0.0729,0.91146 z" />
    <path
       inkscape:connector-curvature="0"
       id="path964"
       d="m 260.1295,203.4998 v -2.98503 h -0.6836 v -0.5651 h 0.6836 v -1.06641 h 0.68359 v 1.06641 h 0.91146 v 0.5651 h -0.91146 v 2.98503 q 0,0.49218 0.041,0.59244 0.10481,0.25066 0.39192,0.25066 0.23698,0 0.51953,-0.14584 l 0.26433,0.56511 q -0.4375,0.1914 -0.82943,0.1914 -0.38737,0 -0.65625,-0.18685 -0.26432,-0.18685 -0.36458,-0.5332 -0.0501,-0.17318 -0.0501,-0.73372 z" />
    <path
       inkscape:connector-curvature="0"
       id="path966"
       d="m 264.61387,204.95357 q -0.52865,0 -0.93424,-0.19596 -0.4056,-0.20052 -0.64258,-0.54688 -0.16862,-0.24153 -0.25521,-0.57421 -0.082,-0.33269 -0.0957,-0.56055 -0.009,-0.23242 -0.009,-0.66081 0,-0.35091 0.005,-0.52864 0.009,-0.1823 0.0456,-0.4375 0.041,-0.25977 0.11849,-0.4694 0.19141,-0.50131 0.63802,-0.80209 0.45117,-0.30078 1.03906,-0.30078 0.57878,0 1.02995,0.30534 0.45573,0.30078 0.65169,0.80208 0.11394,0.28711 0.13672,0.57422 0.0274,0.28255 0.0274,0.85221 v 0.15039 h -3.00781 q 0,0.29623 0.009,0.47852 0.009,0.17773 0.0684,0.43294 0.0638,0.25065 0.18229,0.41927 0.31445,0.45118 0.99349,0.45118 0.60612,0 1.30339,-0.33269 l 0.25976,0.56511 q -0.80664,0.37825 -1.56315,0.37825 z m 1.07096,-2.95768 q -0.009,-0.51953 -0.13216,-0.82487 -0.12304,-0.31445 -0.40104,-0.49674 -0.27344,-0.18685 -0.62891,-0.18685 -0.36914,0 -0.63802,0.18685 -0.26888,0.18229 -0.38737,0.49218 -0.12304,0.31901 -0.13216,0.82943 z" />
    <path
       inkscape:connector-curvature="0"
       id="path968"
       d="m 267.58522,197.94902 q 1.01628,0.82487 1.39453,2.16471 0.23242,0.85677 0.23242,2.30143 0,1.44466 -0.23242,2.30143 -0.37825,1.33985 -1.39453,2.16472 l -0.34635,-0.40105 q 0.81119,-0.75195 1.11197,-1.85481 0.22331,-0.82487 0.22331,-2.21029 0,-1.38541 -0.22331,-2.21028 -0.30078,-1.10287 -1.11197,-1.85482 z" />
  </g>
</svg>
