<?xml version="1.0" encoding="UTF-8" standalone="no"?>
<svg
   xmlns:dc="http://purl.org/dc/elements/1.1/"
   xmlns:cc="http://creativecommons.org/ns#"
   xmlns:rdf="http://www.w3.org/1999/02/22-rdf-syntax-ns#"
   xmlns:svg="http://www.w3.org/2000/svg"
   xmlns="http://www.w3.org/2000/svg"
   xmlns:sodipodi="http://sodipodi.sourceforge.net/DTD/sodipodi-0.dtd"
   xmlns:inkscape="http://www.inkscape.org/namespaces/inkscape"
   inkscape:version="1.0alpha2 (1:0.92.0+devel+201907090511+74dcc2b)"
   sodipodi:docname="outside.svg"
   version="1.1"
   id="svg2"
   width="709.76001"
   height="684.79999"
   viewBox="0 0 709.76001 684.79999">
  <sodipodi:namedview
     inkscape:current-layer="g10"
     inkscape:window-maximized="1"
     inkscape:window-y="30"
     inkscape:window-x="0"
     inkscape:cy="380.39108"
     inkscape:cx="387.13575"
     inkscape:zoom="1.9824827"
     showgrid="false"
     id="namedview22"
     inkscape:window-height="1017"
     inkscape:window-width="1920"
     inkscape:pageshadow="2"
     inkscape:pageopacity="0"
     guidetolerance="10"
     gridtolerance="10"
     objecttolerance="10"
     borderopacity="1"
     inkscape:document-rotation="0"
     bordercolor="#666666"
     pagecolor="#ffffff" />
  <metadata
     id="metadata8">
    <rdf:RDF>
      <cc:Work
         rdf:about="">
        <dc:format>image/svg+xml</dc:format>
        <dc:type
           rdf:resource="http://purl.org/dc/dcmitype/StillImage" />
        <dc:title></dc:title>
      </cc:Work>
    </rdf:RDF>
  </metadata>
  <defs
     id="defs6" />
  <g
     id="g10">
    <path
       inkscape:connector-curvature="0"
       id="path2925"
       style="color:#000000;font-style:normal;font-variant:normal;font-weight:normal;font-stretch:normal;font-size:medium;line-height:normal;font-family:sans-serif;font-variant-ligatures:normal;font-variant-position:normal;font-variant-caps:normal;font-variant-numeric:normal;font-variant-alternates:normal;font-variant-east-asian:normal;font-feature-settings:normal;font-variation-settings:normal;text-indent:0;text-align:start;text-decoration:none;text-decoration-line:none;text-decoration-style:solid;text-decoration-color:#000000;letter-spacing:normal;word-spacing:normal;text-transform:none;writing-mode:lr-tb;direction:ltr;text-orientation:mixed;dominant-baseline:auto;baseline-shift:baseline;text-anchor:start;white-space:normal;shape-padding:0;shape-margin:0;inline-size:0;clip-rule:nonzero;display:inline;overflow:visible;visibility:visible;opacity:1;isolation:auto;mix-blend-mode:normal;color-interpolation:sRGB;color-interpolation-filters:linearRGB;solid-color:#000000;solid-opacity:1;vector-effect:none;fill:#000000;fill-opacity:1;fill-rule:nonzero;stroke:none;stroke-width:5;stroke-linecap:round;stroke-linejoin:miter;stroke-miterlimit:4;stroke-dasharray:none;stroke-dashoffset:0;stroke-opacity:1;color-rendering:auto;image-rendering:auto;shape-rendering:auto;text-rendering:auto;enable-background:accumulate;stop-color:#000000;stop-opacity:1"
       d="m 491.0595,285.91463 v 2.5 38.74024 h 5 v -13.46094 h 55.51172 v -5 -17.7793 h 183.10742 v 19.52149 h -26.5586 v 0.5 60.01953 h 26.5586 v 19.51953 H 551.57122 v -18.78125 -2.5 -2.5 H 496.0595 v -13.61328 h -5 v 42.39453 H 739.67864 V 285.91463 Z m 5,5 h 2.51172 v 17.7793 h -2.51172 z m 3.51172,0 h 3 v 17.7793 h -3 z m 4,0 h 3 v 17.7793 h -3 z m 4,0 h 3 v 17.7793 h -3 z m 4,0 h 3 v 17.7793 h -3 z m 4,0 h 3 v 17.7793 h -3 z m 4,0 h 3 v 17.7793 h -3 z m 4,0 h 3 v 17.7793 h -3 z m 4,0 h 3 v 17.7793 h -3 z m 4,0 h 3 v 17.7793 h -3 z m 4,0 h 3 v 17.7793 h -3 z m 4,0 h 3 v 17.7793 h -3 z m 4,0 h 3 v 17.7793 h -3 z m 4,0 h 3 v 17.7793 h -3 z m 161.54882,20.52149 h 25.5586 v 58.51953 h -25.5586 z M 496.0595,371.69393 h 2.51172 v 18.78125 h -2.51172 z m 3.51172,0 h 3 v 18.78125 h -3 z m 4,0 h 3 v 18.78125 h -3 z m 4,0 h 3 v 18.78125 h -3 z m 4,0 h 3 v 18.78125 h -3 z m 4,0 h 3 v 18.78125 h -3 z m 4,0 h 3 v 18.78125 h -3 z m 4,0 h 3 v 18.78125 h -3 z m 4,0 h 3 v 18.78125 h -3 z m 4,0 h 3 v 18.78125 h -3 z m 4,0 h 3 v 18.78125 h -3 z m 4,0 h 3 v 18.78125 h -3 z m 4,0 h 3 v 18.78125 h -3 z m 4,0 h 3 v 18.78125 h -3 z" />
    <g
       style="font-style:normal;font-variant:normal;font-weight:normal;font-stretch:normal;font-size:40px;line-height:0.9;font-family:Gidole;-inkscape-font-specification:Gidole;text-align:center;letter-spacing:0px;word-spacing:0px;text-anchor:middle;fill:#000000;fill-opacity:1;stroke:none"
       id="flowRoot887"
       transform="matrix(0.59811907,0,0,0.59811907,142.54251,146.16311)"
       aria-label="where is the art
museum?">
      <path
         id="path1140"
         style=""
         d="m 229.01074,271.26783 -5.05859,-21.13281 h 2.98828 l 3.63281,16.28906 4.33594,-16.28906 h 2.85156 l 4.33594,16.28906 3.63281,-16.28906 h 2.98828 l -5.05859,21.13281 h -2.85156 l -4.47266,-16.71875 -4.47266,16.71875 z" />
      <path
         id="path1142"
         style=""
         d="m 261.51074,249.82252 q 1.71875,0 3.14453,0.70312 1.42578,0.70313 2.36328,1.875 0.58594,0.72266 0.9375,1.52344 0.35157,0.80078 0.48829,1.77735 0.13671,0.97656 0.15625,1.60156 0.0391,0.625 0.0391,1.75781 v 12.20703 h -2.92969 v -12.01172 q 0,-1.48437 -0.0391,-2.16797 -0.0391,-0.70312 -0.29297,-1.58203 -0.25391,-0.8789 -0.80078,-1.5039 -1.32813,-1.5625 -3.65235,-1.5625 -2.32421,0 -3.65234,1.5625 -0.54687,0.625 -0.80078,1.5039 -0.25391,0.87891 -0.29297,1.58203 -0.0391,0.6836 -0.0391,2.16797 v 12.01172 h -2.92969 v -29.21875 h 2.92969 v 10.3125 q 2.30469,-2.53906 5.37109,-2.53906 z" />
      <path
         id="path1144"
         style=""
         d="m 282.31152,271.58033 q -2.26562,0 -4.0039,-0.83984 -1.73828,-0.85938 -2.75391,-2.34375 -0.72266,-1.03516 -1.09375,-2.46094 -0.35156,-1.42578 -0.41016,-2.40234 -0.0391,-0.9961 -0.0391,-2.83203 0,-1.50391 0.0195,-2.26563 0.0391,-0.78125 0.19532,-1.875 0.17578,-1.11328 0.50781,-2.01172 0.82031,-2.14844 2.73437,-3.4375 1.9336,-1.28906 4.45313,-1.28906 2.48047,0 4.41406,1.30859 1.95313,1.28907 2.79297,3.4375 0.48828,1.23047 0.58594,2.46094 0.11718,1.21094 0.11718,3.65234 v 0.64454 h -12.89062 q 0,1.26953 0.0391,2.05078 0.0391,0.76172 0.29297,1.85547 0.27344,1.07421 0.78125,1.79687 1.34766,1.93359 4.25781,1.93359 2.59766,0 5.58594,-1.42578 l 1.11328,2.42188 q -3.45703,1.62109 -6.69922,1.62109 z m 4.58985,-12.67578 q -0.0391,-2.22656 -0.56641,-3.53516 -0.52734,-1.34765 -1.71875,-2.1289 -1.17187,-0.80078 -2.69531,-0.80078 -1.58203,0 -2.73438,0.80078 -1.15234,0.78125 -1.66015,2.10937 -0.52735,1.36719 -0.56641,3.55469 z" />
      <path
         id="path1146"
         style=""
         d="m 298.24902,252.36158 q 2.12891,-2.53906 4.98047,-2.53906 0.80078,0 1.79688,0.21484 l -0.42969,2.57813 q -1.23047,-0.17578 -1.75781,-0.17578 -1.48438,0 -2.57813,0.70312 -1.09375,0.70313 -1.58203,1.89453 -0.42969,1.03516 -0.42969,3.67188 v 12.55859 h -2.92968 v -21.13281 h 2.92968 z" />
      <path
         id="path1148"
         style=""
         d="m 316.13965,271.58033 q -2.26563,0 -4.00391,-0.83984 -1.73828,-0.85938 -2.7539,-2.34375 -0.72266,-1.03516 -1.09375,-2.46094 -0.35157,-1.42578 -0.41016,-2.40234 -0.0391,-0.9961 -0.0391,-2.83203 0,-1.50391 0.0195,-2.26563 0.0391,-0.78125 0.19531,-1.875 0.17578,-1.11328 0.50781,-2.01172 0.82032,-2.14844 2.73438,-3.4375 1.93359,-1.28906 4.45312,-1.28906 2.48047,0 4.41407,1.30859 1.95312,1.28907 2.79296,3.4375 0.48829,1.23047 0.58594,2.46094 0.11719,1.21094 0.11719,3.65234 v 0.64454 h -12.89063 q 0,1.26953 0.0391,2.05078 0.0391,0.76172 0.29297,1.85547 0.27343,1.07421 0.78125,1.79687 1.34765,1.93359 4.25781,1.93359 2.59765,0 5.58594,-1.42578 l 1.11328,2.42188 q -3.45703,1.62109 -6.69922,1.62109 z m 4.58984,-12.67578 q -0.0391,-2.22656 -0.5664,-3.53516 -0.52735,-1.34765 -1.71875,-2.1289 -1.17188,-0.80078 -2.69532,-0.80078 -1.58203,0 -2.73437,0.80078 -1.15235,0.78125 -1.66016,2.10937 -0.52734,1.36719 -0.5664,3.55469 z" />
      <path
         id="path1150"
         style=""
         d="m 340.94434,243.76783 q 0.52734,-0.52734 1.32812,-0.52734 0.80078,0 1.30859,0.52734 0.52735,0.50781 0.52735,1.3086 0,0.80078 -0.52735,1.32812 -0.50781,0.50781 -1.30859,0.50781 -0.80078,0 -1.32812,-0.50781 -0.50782,-0.52734 -0.50782,-1.32812 0,-0.80079 0.50782,-1.3086 z m 2.79296,27.5 h -2.92968 v -21.13281 h 2.92968 z" />
      <path
         id="path1152"
         style=""
         d="m 356.2959,249.82252 q 2.91015,0 6.69922,1.60156 l -0.9961,2.48047 q -3.4375,-1.46484 -5.70312,-1.46484 -1.13281,0 -1.99219,0.33203 -0.85937,0.33203 -1.28906,0.85937 -0.42969,0.52735 -0.64453,1.05469 -0.19532,0.52734 -0.19532,1.03516 0,0.97656 0.52735,1.71875 0.54687,0.72265 1.36719,1.09375 0.80078,0.37109 2.61718,0.64453 1.83594,0.2539 3.06641,0.70312 1.71875,0.64453 2.89062,2.08985 1.17188,1.44531 1.17188,3.41797 0,2.48046 -2.01172,4.33593 -2.01172,1.85547 -5.50781,1.85547 -3.28125,0 -7.38281,-1.8164 l 1.05468,-2.44141 q 3.63282,1.64062 6.32813,1.64062 1.21094,0 2.1289,-0.33203 0.9375,-0.33203 1.44532,-0.8789 0.50781,-0.54688 0.76172,-1.13282 0.2539,-0.60546 0.2539,-1.23046 0,-1.11329 -0.66406,-1.9336 -0.66406,-0.82031 -1.64063,-1.1914 -0.66406,-0.25391 -2.67578,-0.56641 -2.01172,-0.3125 -3.20312,-0.85938 -1.50391,-0.70312 -2.48047,-2.03125 -0.97656,-1.32812 -0.97656,-3.08593 0,-2.40235 1.91406,-4.14063 1.93359,-1.75781 5.13672,-1.75781 z" />
      <path
         id="path1154"
         style=""
         d="m 381.06152,265.34986 v -12.79297 h -2.92968 v -2.42187 h 2.92968 v -4.57031 h 2.92969 v 4.57031 h 3.90625 v 2.42187 h -3.90625 v 12.79297 q 0,2.10938 0.17578,2.53907 0.44922,1.07421 1.67969,1.07421 1.01562,0 2.22656,-0.625 l 1.13281,2.42188 q -1.875,0.82031 -3.55468,0.82031 -1.66016,0 -2.8125,-0.80078 -1.13282,-0.80078 -1.5625,-2.28516 -0.21485,-0.74218 -0.21485,-3.14453 z" />
      <path
         id="path1156"
         style=""
         d="m 401.51074,249.82252 q 1.71875,0 3.14453,0.70312 1.42578,0.70313 2.36328,1.875 0.58594,0.72266 0.9375,1.52344 0.35157,0.80078 0.48829,1.77735 0.13671,0.97656 0.15625,1.60156 0.0391,0.625 0.0391,1.75781 v 12.20703 h -2.92969 v -12.01172 q 0,-1.48437 -0.0391,-2.16797 -0.0391,-0.70312 -0.29297,-1.58203 -0.25391,-0.8789 -0.80078,-1.5039 -1.32813,-1.5625 -3.65235,-1.5625 -2.32421,0 -3.65234,1.5625 -0.54687,0.625 -0.80078,1.5039 -0.25391,0.87891 -0.29297,1.58203 -0.0391,0.6836 -0.0391,2.16797 v 12.01172 h -2.92969 v -29.21875 h 2.92969 v 10.3125 q 2.30469,-2.53906 5.37109,-2.53906 z" />
      <path
         id="path1158"
         style=""
         d="m 422.31152,271.58033 q -2.26562,0 -4.0039,-0.83984 -1.73828,-0.85938 -2.75391,-2.34375 -0.72266,-1.03516 -1.09375,-2.46094 -0.35156,-1.42578 -0.41016,-2.40234 -0.0391,-0.9961 -0.0391,-2.83203 0,-1.50391 0.0195,-2.26563 0.0391,-0.78125 0.19532,-1.875 0.17578,-1.11328 0.50781,-2.01172 0.82031,-2.14844 2.73437,-3.4375 1.9336,-1.28906 4.45313,-1.28906 2.48047,0 4.41406,1.30859 1.95313,1.28907 2.79297,3.4375 0.48828,1.23047 0.58594,2.46094 0.11718,1.21094 0.11718,3.65234 v 0.64454 h -12.89062 q 0,1.26953 0.0391,2.05078 0.0391,0.76172 0.29297,1.85547 0.27344,1.07421 0.78125,1.79687 1.34766,1.93359 4.25781,1.93359 2.59766,0 5.58594,-1.42578 l 1.11328,2.42188 q -3.45703,1.62109 -6.69922,1.62109 z m 4.58985,-12.67578 q -0.0391,-2.22656 -0.56641,-3.53516 -0.52734,-1.34765 -1.71875,-2.1289 -1.17187,-0.80078 -2.69531,-0.80078 -1.58203,0 -2.73438,0.80078 -1.15234,0.78125 -1.66015,2.10937 -0.52735,1.36719 -0.56641,3.55469 z" />
      <path
         id="path1160"
         style=""
         d="m 448.63965,264.9983 q 0,1.66016 1.09375,2.8125 1.11328,1.15234 3.10547,1.15234 1.60156,0 2.85156,-0.78125 1.25,-0.78125 1.75781,-2.36328 0.17578,-0.5664 0.25391,-1.30859 0.0976,-0.74219 0.0976,-1.38672 0.0195,-0.66406 0.0195,-2.14844 h -2.83204 q -2.8125,0 -3.71093,0.27344 -1.26953,0.39063 -1.95313,1.40625 -0.68359,0.99609 -0.68359,2.34375 z m 12.10937,-6.44531 v 12.71484 h -2.92968 v -2.24609 q -2.22657,2.55859 -5.3711,2.55859 -2.96875,0 -4.86328,-1.875 -1.875,-1.89453 -1.875,-4.70703 0,-2.10937 1.19141,-3.73047 1.21093,-1.64062 3.39843,-2.30469 0.64454,-0.19531 1.42579,-0.29296 0.78125,-0.0977 1.36718,-0.0977 0.58594,-0.0195 1.77735,-0.0195 h 2.94922 q 0,-1.5625 -0.0586,-2.22656 -0.0391,-0.6836 -0.2539,-1.25 -0.48829,-1.3086 -1.64063,-1.97266 -1.15234,-0.66406 -2.63672,-0.66406 -2.16797,0 -5.13672,1.42578 l -1.11328,-2.42188 q 3.55469,-1.62109 6.25,-1.62109 2.59766,0 4.55078,1.25 1.95313,1.25 2.65625,3.57422 0.3125,1.03515 0.3125,3.90625 z" />
      <path
         id="path1162"
         style=""
         d="m 469.7334,252.36158 q 2.1289,-2.53906 4.98047,-2.53906 0.80078,0 1.79687,0.21484 l -0.42969,2.57813 q -1.23046,-0.17578 -1.75781,-0.17578 -1.48437,0 -2.57812,0.70312 -1.09375,0.70313 -1.58203,1.89453 -0.42969,1.03516 -0.42969,3.67188 v 12.55859 h -2.92969 v -21.13281 h 2.92969 z" />
      <path
         id="path1164"
         style=""
         d="m 481.37402,265.34986 v -12.79297 h -2.92968 v -2.42187 h 2.92968 v -4.57031 h 2.92969 v 4.57031 h 3.90625 v 2.42187 h -3.90625 v 12.79297 q 0,2.10938 0.17578,2.53907 0.44922,1.07421 1.67969,1.07421 1.01562,0 2.22656,-0.625 l 1.13281,2.42188 q -1.875,0.82031 -3.55468,0.82031 -1.66016,0 -2.8125,-0.80078 -1.13282,-0.80078 -1.5625,-2.28516 -0.21485,-0.74218 -0.21485,-3.14453 z" />
      <path
         id="path1166"
         style=""
         d="m 292.62402,307.26783 h -2.92968 v -12.4414 q 0,-1.21094 -0.0195,-1.75782 -0.0195,-0.5664 -0.13671,-1.23047 -0.11719,-0.66406 -0.35157,-1.15234 -0.50781,-1.05469 -1.5625,-1.64062 -1.03515,-0.60547 -2.32422,-0.60547 -1.28906,0 -2.34375,0.60547 -1.03515,0.58593 -1.54296,1.64062 -0.23438,0.48828 -0.35157,1.15234 -0.11718,0.66407 -0.13672,1.23047 -0.0195,0.54688 -0.0195,1.75782 v 12.4414 h -2.92968 v -21.13281 h 2.92968 v 2.16797 q 2.14844,-2.48047 4.98047,-2.48047 1.9336,0 3.39844,0.89844 1.46484,0.8789 2.26562,2.4414 1.03516,-1.5625 2.59766,-2.4414 1.5625,-0.89844 3.45703,-0.89844 2.12891,0 3.78906,1.13281 1.67969,1.13281 2.42188,3.125 0.25391,0.66406 0.37109,1.50391 0.11719,0.82031 0.13672,1.38672 0.0195,0.5664 0.0195,1.66015 v 12.63672 h -2.92968 v -12.4414 q 0,-1.21094 -0.0195,-1.75782 -0.0195,-0.5664 -0.13671,-1.23047 -0.11719,-0.66406 -0.35157,-1.15234 -0.50781,-1.05469 -1.5625,-1.64062 -1.03515,-0.60547 -2.32422,-0.60547 -1.28906,0 -2.34375,0.60547 -1.03515,0.58593 -1.54296,1.64062 -0.23438,0.48828 -0.35157,1.15234 -0.11718,0.66407 -0.13672,1.23047 -0.0195,0.54688 -0.0195,1.75782 z" />
      <path
         id="path1168"
         style=""
         d="m 310.20215,286.13502 h 2.92969 v 12.20703 q 0,2.63672 0.29296,3.53516 0.48829,1.5039 1.69922,2.30468 1.21094,0.78125 2.79297,0.78125 1.58203,0 2.79297,-0.78125 1.21094,-0.80078 1.69922,-2.30468 0.29297,-0.89844 0.29297,-3.53516 v -12.20703 h 2.92969 v 12.40234 q 0,1.03516 -0.0195,1.60157 -0.0195,0.54687 -0.13671,1.36718 -0.11719,0.82032 -0.3711,1.48438 -0.82031,2.22656 -2.69531,3.41797 -1.85547,1.17187 -4.49219,1.17187 -2.63672,0 -4.51172,-1.17187 -1.85547,-1.19141 -2.67578,-3.41797 -0.2539,-0.66406 -0.37109,-1.48438 -0.11719,-0.82031 -0.13672,-1.36718 -0.0195,-0.56641 -0.0195,-1.60157 z" />
      <path
         id="path1170"
         style=""
         d="m 337.93652,285.82252 q 2.91016,0 6.69922,1.60156 l -0.99609,2.48047 q -3.4375,-1.46484 -5.70313,-1.46484 -1.13281,0 -1.99218,0.33203 -0.85938,0.33203 -1.28907,0.85937 -0.42968,0.52735 -0.64453,1.05469 -0.19531,0.52734 -0.19531,1.03516 0,0.97656 0.52734,1.71875 0.54688,0.72265 1.36719,1.09375 0.80078,0.37109 2.61719,0.64453 1.83594,0.2539 3.0664,0.70312 1.71875,0.64453 2.89063,2.08985 1.17187,1.44531 1.17187,3.41797 0,2.48046 -2.01171,4.33593 -2.01172,1.85547 -5.50782,1.85547 -3.28125,0 -7.38281,-1.8164 l 1.05469,-2.44141 q 3.63281,1.64062 6.32812,1.64062 1.21094,0 2.12891,-0.33203 0.9375,-0.33203 1.44531,-0.8789 0.50781,-0.54688 0.76172,-1.13282 0.25391,-0.60546 0.25391,-1.23046 0,-1.11329 -0.66407,-1.9336 -0.66406,-0.82031 -1.64062,-1.1914 -0.66406,-0.25391 -2.67578,-0.56641 -2.01172,-0.3125 -3.20313,-0.85938 -1.5039,-0.70312 -2.48047,-2.03125 -0.97656,-1.32812 -0.97656,-3.08593 0,-2.40235 1.91406,-4.14063 1.9336,-1.75781 5.13672,-1.75781 z" />
      <path
         id="path1172"
         style=""
         d="m 358.1709,307.58033 q -2.26563,0 -4.00391,-0.83984 -1.73828,-0.85938 -2.7539,-2.34375 -0.72266,-1.03516 -1.09375,-2.46094 -0.35157,-1.42578 -0.41016,-2.40234 -0.0391,-0.9961 -0.0391,-2.83203 0,-1.50391 0.0195,-2.26563 0.0391,-0.78125 0.19531,-1.875 0.17578,-1.11328 0.50781,-2.01172 0.82032,-2.14844 2.73438,-3.4375 1.93359,-1.28906 4.45312,-1.28906 2.48047,0 4.41407,1.30859 1.95312,1.28907 2.79296,3.4375 0.48829,1.23047 0.58594,2.46094 0.11719,1.21094 0.11719,3.65234 v 0.64454 H 352.7998 q 0,1.26953 0.0391,2.05078 0.0391,0.76172 0.29297,1.85547 0.27343,1.07421 0.78125,1.79687 1.34765,1.93359 4.25781,1.93359 2.59765,0 5.58594,-1.42578 l 1.11328,2.42188 q -3.45703,1.62109 -6.69922,1.62109 z m 4.58984,-12.67578 q -0.0391,-2.22656 -0.5664,-3.53516 -0.52735,-1.34765 -1.71875,-2.1289 -1.17188,-0.80078 -2.69532,-0.80078 -1.58203,0 -2.73437,0.80078 -1.15235,0.78125 -1.66016,2.10937 -0.52734,1.36719 -0.5664,3.55469 z" />
      <path
         id="path1174"
         style=""
         d="m 370.9834,286.13502 h 2.92969 v 12.20703 q 0,2.63672 0.29296,3.53516 0.48829,1.5039 1.69922,2.30468 1.21094,0.78125 2.79297,0.78125 1.58203,0 2.79297,-0.78125 1.21094,-0.80078 1.69922,-2.30468 0.29297,-0.89844 0.29297,-3.53516 v -12.20703 h 2.92969 v 12.40234 q 0,1.03516 -0.0195,1.60157 -0.0195,0.54687 -0.13671,1.36718 -0.11719,0.82032 -0.3711,1.48438 -0.82031,2.22656 -2.69531,3.41797 -1.85547,1.17187 -4.49219,1.17187 -2.63672,0 -4.51172,-1.17187 -1.85547,-1.19141 -2.67578,-3.41797 -0.2539,-0.66406 -0.37109,-1.48438 -0.11719,-0.82031 -0.13672,-1.36718 -0.0195,-0.56641 -0.0195,-1.60157 z" />
      <path
         id="path1176"
         style=""
         d="m 407.15527,307.26783 h -2.92968 v -12.4414 q 0,-1.21094 -0.0195,-1.75782 -0.0195,-0.5664 -0.13671,-1.23047 -0.11719,-0.66406 -0.35157,-1.15234 -0.50781,-1.05469 -1.5625,-1.64062 -1.03515,-0.60547 -2.32422,-0.60547 -1.28906,0 -2.34375,0.60547 -1.03515,0.58593 -1.54296,1.64062 -0.23438,0.48828 -0.35157,1.15234 -0.11718,0.66407 -0.13672,1.23047 -0.0195,0.54688 -0.0195,1.75782 v 12.4414 h -2.92968 v -21.13281 h 2.92968 v 2.16797 q 2.14844,-2.48047 4.98047,-2.48047 1.9336,0 3.39844,0.89844 1.46484,0.8789 2.26562,2.4414 1.03516,-1.5625 2.59766,-2.4414 1.5625,-0.89844 3.45703,-0.89844 2.12891,0 3.78906,1.13281 1.67969,1.13281 2.42188,3.125 0.25391,0.66406 0.37109,1.50391 0.11719,0.82031 0.13672,1.38672 0.0195,0.5664 0.0195,1.66015 v 12.63672 h -2.92968 v -12.4414 q 0,-1.21094 -0.0195,-1.75782 -0.0195,-0.5664 -0.13671,-1.23047 -0.11719,-0.66406 -0.35157,-1.15234 -0.50781,-1.05469 -1.5625,-1.64062 -1.03515,-0.60547 -2.32422,-0.60547 -1.28906,0 -2.34375,0.60547 -1.03515,0.58593 -1.54296,1.64062 -0.23438,0.48828 -0.35157,1.15234 -0.11718,0.66407 -0.13672,1.23047 -0.0195,0.54688 -0.0195,1.75782 z" />
      <path
         id="path1178"
         style=""
         d="m 426.90137,303.88893 q 0.60547,-0.60547 1.5625,-0.60547 0.95703,0 1.54297,0.60547 0.60546,0.58593 0.60546,1.54296 0,0.95704 -0.60546,1.5625 -0.58594,0.58594 -1.54297,0.58594 -0.95703,0 -1.5625,-0.58594 -0.58594,-0.60546 -0.58594,-1.5625 0,-0.95703 0.58594,-1.54296 z m -3.1836,-19.92188 -1.91406,-1.95312 q 2.85156,-2.71485 6.66016,-2.71485 3.3789,0 5.54687,2.10938 2.16797,2.10937 2.16797,5.3125 0,2.34375 -1.44531,4.3164 -0.54688,0.74219 -2.14844,1.99219 -1.60156,1.25 -1.99219,1.93359 -0.48828,0.83985 -0.66406,1.60157 -0.17578,0.76172 -0.17578,1.97265 l -0.0195,1.17188 h -2.53906 q -0.0195,-0.6836 -0.0195,-1.15235 0,-1.67968 0.25391,-2.79296 0.25391,-1.13282 1.03516,-2.26563 0.37109,-0.54687 0.89843,-1.05469 0.54688,-0.52734 1.28907,-1.13281 0.74218,-0.625 1.03515,-0.89844 1.5625,-1.44531 1.5625,-3.67187 0,-2.12891 -1.30859,-3.47656 -1.28906,-1.34766 -3.47656,-1.34766 -2.61719,0 -4.7461,2.05078 z" />
    </g>
    <path
       d="m 496.28766,263.73004 h 284.1066 v 168.0199 h -284.1066 z"
       style="opacity:0.75;vector-effect:none;fill:#ffffff;stroke-width:0.649832;stop-color:#000000"
       id="rect899" />
    <g
       style="font-style:normal;font-variant:normal;font-weight:normal;font-stretch:normal;font-size:15.6045px;line-height:1.5;font-family:Gidole;-inkscape-font-specification:Gidole;text-align:center;letter-spacing:0px;word-spacing:0px;text-anchor:middle;fill:#000000;fill-opacity:1;stroke:none"
       id="flowRoot909"
       transform="matrix(0.59811907,0,0,0.59811907,142.54251,202.16311)"
       aria-label="You are outside.
Click on the musem (→) to enter.
Make sure your sound is turned on.">
      <path
         id="path1002"
         style=""
         d="m 303.56696,247.83536 h 1.28768 l 2.52964,5.66882 2.52963,-5.66882 h 1.28768 l -3.223,6.93364 v 3.85541 h -1.18863 V 254.769 Z" />
      <path
         id="path1004"
         style=""
         d="m 316.00942,251.88125 q -0.52574,-0.60193 -1.51626,-0.60193 -0.99052,0 -1.51626,0.60193 -0.20572,0.23621 -0.33525,0.53336 -0.12191,0.28954 -0.17524,0.68575 -0.0457,0.38858 -0.061,0.65526 -0.008,0.25906 -0.008,0.7467 0,0.48764 0.008,0.75432 0.0152,0.25906 0.061,0.65527 0.0533,0.38859 0.17524,0.68574 0.12953,0.28954 0.33525,0.52574 0.52574,0.60193 1.51626,0.60193 0.99052,0 1.51626,-0.60193 0.20572,-0.2362 0.32763,-0.52574 0.12953,-0.29715 0.17525,-0.68574 0.0533,-0.39621 0.0609,-0.65527 0.0152,-0.26668 0.0152,-0.75432 0,-0.48764 -0.0152,-0.7467 -0.008,-0.26668 -0.0609,-0.65526 -0.0457,-0.39621 -0.17525,-0.68575 -0.12191,-0.29715 -0.32763,-0.53336 z m -2.88775,-1.35625 q 0.61717,-0.26667 1.37149,-0.26667 0.75432,0 1.37149,0.26667 0.61717,0.25906 1.01338,0.69337 0.30478,0.33525 0.48764,0.73146 0.19049,0.38859 0.25906,0.87623 0.0762,0.48002 0.0914,0.80003 0.0152,0.3124 0.0152,0.87623 0,0.56384 -0.0152,0.88385 -0.0152,0.3124 -0.0914,0.80004 -0.0686,0.48002 -0.25906,0.87623 -0.18286,0.38859 -0.48764,0.72384 -0.39621,0.4343 -1.01338,0.70098 -0.61717,0.25906 -1.37149,0.25906 -0.75432,0 -1.37149,-0.25906 -0.61717,-0.26668 -1.01337,-0.70098 -0.30478,-0.33525 -0.49526,-0.72384 -0.18287,-0.39621 -0.25906,-0.87623 -0.0686,-0.48764 -0.0838,-0.80004 -0.0152,-0.32001 -0.0152,-0.88385 0,-0.56383 0.0152,-0.87623 0.0152,-0.32001 0.0838,-0.80003 0.0762,-0.48764 0.25906,-0.87623 0.19048,-0.39621 0.49526,-0.73146 0.3962,-0.43431 1.01337,-0.69337 z" />
      <path
         id="path1006"
         style=""
         d="m 319.82673,250.38024 h 1.14291 v 4.76211 q 0,1.02862 0.11429,1.37911 0.19049,0.58669 0.66289,0.89909 0.4724,0.30477 1.08957,0.30477 0.61717,0 1.08957,-0.30477 0.4724,-0.3124 0.66289,-0.89909 0.11429,-0.35049 0.11429,-1.37911 v -4.76211 h 1.14291 v 4.83831 q 0,0.40382 -0.008,0.62478 -0.008,0.21335 -0.0533,0.53336 -0.0457,0.32002 -0.14477,0.57908 -0.32001,0.8686 -1.05147,1.33339 -0.72384,0.45716 -1.75246,0.45716 -1.02862,0 -1.76008,-0.45716 -0.72384,-0.46479 -1.04385,-1.33339 -0.0991,-0.25906 -0.14477,-0.57908 -0.0457,-0.32001 -0.0533,-0.53336 -0.008,-0.22096 -0.008,-0.62478 z" />
      <path
         id="path1008"
         style=""
         d="m 333.41971,256.17859 q 0,0.64765 0.42669,1.09719 0.4343,0.44954 1.21148,0.44954 0.62479,0 1.11243,-0.30477 0.48764,-0.30478 0.68575,-0.92195 0.0686,-0.22096 0.099,-0.5105 0.0381,-0.28953 0.0381,-0.54097 0.008,-0.25906 0.008,-0.83814 h -1.10481 q -1.09719,0 -1.44768,0.10668 -0.49526,0.15238 -0.76194,0.54859 -0.26668,0.38859 -0.26668,0.91433 z m 4.72402,-2.5144 v 4.96022 h -1.14291 v -0.87623 q -0.86861,0.99814 -2.09533,0.99814 -1.15814,0 -1.89722,-0.73146 -0.73146,-0.73908 -0.73146,-1.83627 0,-0.8229 0.46478,-1.4553 0.4724,-0.64003 1.32577,-0.89909 0.25144,-0.0762 0.55622,-0.11429 0.30477,-0.0381 0.53335,-0.0381 0.22858,-0.008 0.69337,-0.008 h 1.15052 q 0,-0.60955 -0.0228,-0.86861 -0.0152,-0.26668 -0.0991,-0.48764 -0.19048,-0.5105 -0.64002,-0.76956 -0.44955,-0.25906 -1.02862,-0.25906 -0.84575,0 -2.0039,0.55622 l -0.4343,-0.94481 q 1.38672,-0.6324 2.4382,-0.6324 1.01338,0 1.77532,0.48764 0.76193,0.48764 1.03623,1.39434 0.12191,0.40383 0.12191,1.52388 z" />
      <path
         id="path1010"
         style=""
         d="m 341.64865,251.24885 q 0.83051,-0.99052 1.94294,-0.99052 0.3124,0 0.70099,0.0838 l -0.16763,1.00576 q -0.48002,-0.0686 -0.68574,-0.0686 -0.57908,0 -1.00576,0.2743 -0.42669,0.2743 -0.61717,0.73908 -0.16763,0.40383 -0.16763,1.43245 v 4.89926 h -1.14291 v -8.24417 h 1.14291 z" />
      <path
         id="path1012"
         style=""
         d="m 348.62801,258.74632 q -0.88385,0 -1.56198,-0.32763 -0.67812,-0.33526 -1.07433,-0.91433 -0.28192,-0.40383 -0.42669,-0.96004 -0.13714,-0.55622 -0.16,-0.93719 -0.0152,-0.38858 -0.0152,-1.10481 0,-0.58669 0.008,-0.88385 0.0152,-0.30477 0.0762,-0.73146 0.0686,-0.4343 0.19811,-0.78479 0.32001,-0.83814 1.06671,-1.34101 0.75432,-0.50288 1.73722,-0.50288 0.96766,0 1.72198,0.51049 0.76194,0.50288 1.08957,1.34102 0.19049,0.48002 0.22858,0.96004 0.0457,0.4724 0.0457,1.42482 v 0.25144 h -5.02879 q 0,0.49526 0.0152,0.80004 0.0152,0.29715 0.1143,0.72384 0.10667,0.41907 0.30477,0.70098 0.52574,0.75432 1.66103,0.75432 1.01337,0 2.17914,-0.55621 l 0.43431,0.9448 q -1.34864,0.63241 -2.61345,0.63241 z m 1.79055,-4.94498 q -0.0152,-0.86861 -0.22096,-1.37911 -0.20572,-0.52574 -0.67051,-0.83051 -0.45716,-0.3124 -1.05147,-0.3124 -0.61717,0 -1.06671,0.3124 -0.44955,0.30477 -0.64765,0.82289 -0.20573,0.53336 -0.22096,1.38673 z" />
      <path
         id="path1014"
         style=""
         d="m 362.70101,251.88125 q -0.52574,-0.60193 -1.51626,-0.60193 -0.99052,0 -1.51626,0.60193 -0.20572,0.23621 -0.33525,0.53336 -0.12191,0.28954 -0.17525,0.68575 -0.0457,0.38858 -0.0609,0.65526 -0.008,0.25906 -0.008,0.7467 0,0.48764 0.008,0.75432 0.0152,0.25906 0.0609,0.65527 0.0533,0.38859 0.17525,0.68574 0.12953,0.28954 0.33525,0.52574 0.52574,0.60193 1.51626,0.60193 0.99052,0 1.51626,-0.60193 0.20572,-0.2362 0.32763,-0.52574 0.12953,-0.29715 0.17525,-0.68574 0.0533,-0.39621 0.0609,-0.65527 0.0152,-0.26668 0.0152,-0.75432 0,-0.48764 -0.0152,-0.7467 -0.008,-0.26668 -0.0609,-0.65526 -0.0457,-0.39621 -0.17525,-0.68575 -0.12191,-0.29715 -0.32763,-0.53336 z m -2.88775,-1.35625 q 0.61717,-0.26667 1.37149,-0.26667 0.75432,0 1.37149,0.26667 0.61717,0.25906 1.01338,0.69337 0.30477,0.33525 0.48764,0.73146 0.19048,0.38859 0.25906,0.87623 0.0762,0.48002 0.0914,0.80003 0.0152,0.3124 0.0152,0.87623 0,0.56384 -0.0152,0.88385 -0.0152,0.3124 -0.0914,0.80004 -0.0686,0.48002 -0.25906,0.87623 -0.18287,0.38859 -0.48764,0.72384 -0.39621,0.4343 -1.01338,0.70098 -0.61717,0.25906 -1.37149,0.25906 -0.75432,0 -1.37149,-0.25906 -0.61717,-0.26668 -1.01338,-0.70098 -0.30477,-0.33525 -0.49526,-0.72384 -0.18286,-0.39621 -0.25906,-0.87623 -0.0686,-0.48764 -0.0838,-0.80004 -0.0152,-0.32001 -0.0152,-0.88385 0,-0.56383 0.0152,-0.87623 0.0152,-0.32001 0.0838,-0.80003 0.0762,-0.48764 0.25906,-0.87623 0.19049,-0.39621 0.49526,-0.73146 0.39621,-0.43431 1.01338,-0.69337 z" />
      <path
         id="path1016"
         style=""
         d="m 366.51832,250.38024 h 1.14291 v 4.76211 q 0,1.02862 0.11429,1.37911 0.19048,0.58669 0.66289,0.89909 0.4724,0.30477 1.08957,0.30477 0.61717,0 1.08957,-0.30477 0.4724,-0.3124 0.66289,-0.89909 0.11429,-0.35049 0.11429,-1.37911 v -4.76211 h 1.14291 v 4.83831 q 0,0.40382 -0.008,0.62478 -0.008,0.21335 -0.0533,0.53336 -0.0457,0.32002 -0.14477,0.57908 -0.32001,0.8686 -1.05147,1.33339 -0.72384,0.45716 -1.75246,0.45716 -1.02862,0 -1.76008,-0.45716 -0.72384,-0.46479 -1.04386,-1.33339 -0.099,-0.25906 -0.14476,-0.57908 -0.0457,-0.32001 -0.0533,-0.53336 -0.008,-0.22096 -0.008,-0.62478 z" />
      <path
         id="path1018"
         style=""
         d="m 375.14347,256.31574 v -4.9907 h -1.14291 v -0.9448 h 1.14291 v -1.78294 h 1.1429 v 1.78294 h 1.52388 v 0.9448 h -1.52388 v 4.9907 q 0,0.82289 0.0686,0.99052 0.17524,0.41906 0.65527,0.41906 0.3962,0 0.86861,-0.24382 l 0.44192,0.94481 q -0.73146,0.32001 -1.38673,0.32001 -0.64765,0 -1.09719,-0.31239 -0.44192,-0.3124 -0.60955,-0.89147 -0.0838,-0.28954 -0.0838,-1.22672 z" />
      <path
         id="path1020"
         style=""
         d="m 382.45807,250.25833 q 1.13529,0 2.61345,0.62479 l -0.38859,0.96766 q -1.34101,-0.57146 -2.22486,-0.57146 -0.44192,0 -0.77717,0.12953 -0.33526,0.12953 -0.50288,0.33526 -0.16763,0.20572 -0.25144,0.41144 -0.0762,0.20573 -0.0762,0.40383 0,0.38097 0.20573,0.67051 0.21334,0.28191 0.53335,0.42668 0.3124,0.14477 1.021,0.25144 0.71622,0.0991 1.19624,0.2743 0.67051,0.25144 1.12767,0.81527 0.45717,0.56384 0.45717,1.3334 0,0.96766 -0.7848,1.6915 -0.7848,0.72384 -2.14867,0.72384 -1.28005,0 -2.88012,-0.7086 l 0.41144,-0.95243 q 1.41721,0.64003 2.46868,0.64003 0.47241,0 0.83052,-0.12953 0.36573,-0.12953 0.56383,-0.34287 0.1981,-0.21334 0.29716,-0.44192 0.099,-0.2362 0.099,-0.48002 0,-0.43431 -0.25906,-0.75432 -0.25906,-0.32002 -0.64003,-0.46479 -0.25906,-0.0991 -1.04385,-0.22096 -0.7848,-0.12191 -1.24958,-0.33525 -0.5867,-0.2743 -0.96767,-0.79242 -0.38096,-0.51812 -0.38096,-1.20386 0,-0.93718 0.7467,-1.61531 0.75431,-0.68574 2.00389,-0.68574 z" />
      <path
         id="path1022"
         style=""
         d="m 387.47163,247.89632 q 0.20572,-0.20573 0.51811,-0.20573 0.3124,0 0.5105,0.20573 0.20573,0.1981 0.20573,0.5105 0,0.31239 -0.20573,0.51811 -0.1981,0.19811 -0.5105,0.19811 -0.31239,0 -0.51811,-0.19811 -0.19811,-0.20572 -0.19811,-0.51811 0,-0.3124 0.19811,-0.5105 z m 1.08957,10.72809 h -1.14291 v -8.24417 h 1.14291 z" />
      <path
         id="path1024"
         style=""
         d="m 393.78048,250.25833 q 1.27243,0 2.17152,0.99814 v -4.03066 h 1.14291 v 11.3986 H 395.952 v -0.87623 q -0.89909,0.99814 -2.17152,0.99814 -0.77718,0 -1.40959,-0.33525 -0.63241,-0.33526 -0.99052,-0.88385 -0.38097,-0.58669 -0.49526,-1.2572 -0.11429,-0.67812 -0.11429,-1.7677 0,-1.08957 0.11429,-1.76007 0.11429,-0.67813 0.49526,-1.26482 0.35811,-0.5486 0.99052,-0.88385 0.63241,-0.33525 1.40959,-0.33525 z m 1.71436,1.76769 q -0.54098,-0.7467 -1.56198,-0.7467 -1.02099,0 -1.56197,0.7467 -0.28954,0.39621 -0.37335,0.96005 -0.0838,0.56383 -0.0838,1.51625 0,0.95243 0.0838,1.51626 0.0838,0.56384 0.37335,0.96004 0.54098,0.7467 1.56197,0.7467 1.021,0 1.56198,-0.7467 0.28953,-0.3962 0.37335,-0.96004 0.0838,-0.56383 0.0838,-1.51626 0,-0.95242 -0.0838,-1.51625 -0.0838,-0.56384 -0.37335,-0.96005 z" />
      <path
         id="path1026"
         style=""
         d="m 402.3599,258.74632 q -0.88385,0 -1.56197,-0.32763 -0.67813,-0.33526 -1.07433,-0.91433 -0.28192,-0.40383 -0.42669,-0.96004 -0.13715,-0.55622 -0.16001,-0.93719 -0.0152,-0.38858 -0.0152,-1.10481 0,-0.58669 0.008,-0.88385 0.0152,-0.30477 0.0762,-0.73146 0.0686,-0.4343 0.1981,-0.78479 0.32002,-0.83814 1.06671,-1.34101 0.75432,-0.50288 1.73722,-0.50288 0.96767,0 1.72199,0.51049 0.76193,0.50288 1.08957,1.34102 0.19048,0.48002 0.22858,0.96004 0.0457,0.4724 0.0457,1.42482 v 0.25144 h -5.0288 q 0,0.49526 0.0152,0.80004 0.0152,0.29715 0.11429,0.72384 0.10667,0.41907 0.30478,0.70098 0.52573,0.75432 1.66102,0.75432 1.01338,0 2.17915,-0.55621 l 0.4343,0.9448 q -1.34863,0.63241 -2.61345,0.63241 z m 1.79056,-4.94498 q -0.0152,-0.86861 -0.22096,-1.37911 -0.20573,-0.52574 -0.67051,-0.83051 -0.45716,-0.3124 -1.05148,-0.3124 -0.61717,0 -1.06671,0.3124 -0.44954,0.30477 -0.64765,0.82289 -0.20572,0.53336 -0.22096,1.38673 z" />
      <path
         id="path1028"
         style=""
         d="m 407.20583,257.30626 q 0.2362,-0.2362 0.60955,-0.2362 0.37335,0 0.60193,0.2362 0.2362,0.22858 0.2362,0.60193 0,0.37335 -0.2362,0.60955 -0.22858,0.22858 -0.60193,0.22858 -0.37335,0 -0.60955,-0.22858 -0.22858,-0.2362 -0.22858,-0.60955 0,-0.37335 0.22858,-0.60193 z" />
      <path
         id="path1030"
         style=""
         d="m 253.40094,271.09733 q 1.53911,0 2.84965,0.92195 l -0.60955,0.91432 q -1.08196,-0.76955 -2.2401,-0.76955 -1.58484,0 -2.14867,1.29529 -0.24382,0.55622 -0.31239,1.31815 -0.0686,0.76194 -0.0686,1.85913 0,1.0972 0.0686,1.85913 0.0686,0.76194 0.31239,1.31816 0.56383,1.29529 2.14867,1.29529 1.40196,0 2.46868,-0.9067 l 0.6705,0.88384 q -1.38673,1.08958 -3.13918,1.08958 -1.18101,0 -2.01914,-0.52574 -0.83051,-0.52574 -1.23434,-1.43245 -0.20572,-0.45716 -0.32002,-1.11243 -0.10667,-0.66288 -0.12952,-1.16576 -0.0152,-0.5105 -0.0152,-1.30292 0,-1.2191 0.0838,-2.08009 0.0914,-0.86099 0.38097,-1.50102 0.41907,-0.91432 1.24958,-1.43244 0.83813,-0.52574 2.0039,-0.52574 z" />
      <path
         id="path1032"
         style=""
         d="m 260.25838,281.08634 0.18287,0.97529 q -0.30478,0.0914 -0.70099,0.0914 -0.62479,0 -1.03623,-0.50288 -0.28954,-0.35049 -0.28954,-1.07433 v -9.9433 h 1.14291 v 9.9433 q 0,0.34287 0.0838,0.44954 0.0838,0.10667 0.26668,0.10667 0.16763,0 0.35049,-0.0457 z" />
      <path
         id="path1034"
         style=""
         d="m 262.22418,271.30305 q 0.20573,-0.20572 0.51812,-0.20572 0.3124,0 0.5105,0.20572 0.20572,0.19811 0.20572,0.5105 0,0.3124 -0.20572,0.51812 -0.1981,0.19811 -0.5105,0.19811 -0.31239,0 -0.51812,-0.19811 -0.1981,-0.20572 -0.1981,-0.51812 0,-0.31239 0.1981,-0.5105 z m 1.08958,10.7281 h -1.14291 v -8.24418 h 1.14291 z" />
      <path
         id="path1036"
         style=""
         d="m 268.64732,273.66506 q 1.2572,0 2.49154,0.76956 l -0.54097,0.89909 q -0.99814,-0.64765 -1.95057,-0.64765 -0.99813,0 -1.55435,0.80004 -0.1981,0.28953 -0.29716,0.76194 -0.0991,0.46478 -0.11429,0.77717 -0.0152,0.3124 -0.0152,0.83814 0,0.59431 0.008,0.91432 0.0152,0.3124 0.10668,0.75432 0.0914,0.44192 0.27429,0.7467 0.26668,0.44192 0.69337,0.64765 0.42668,0.20572 0.89908,0.20572 0.51812,0 1.08196,-0.1981 0.57145,-0.19811 0.99814,-0.48764 l 0.57907,0.86861 q -0.54098,0.36573 -1.2572,0.60193 -0.71622,0.2362 -1.40197,0.2362 -0.8686,0 -1.55435,-0.38097 -0.68574,-0.38859 -1.04386,-1.01338 -0.24382,-0.42668 -0.36573,-0.93718 -0.12191,-0.51812 -0.14476,-0.89147 -0.0152,-0.38097 -0.0152,-1.06671 0,-0.59432 0.0152,-0.95243 0.0229,-0.36573 0.14476,-0.9067 0.12191,-0.54098 0.36573,-0.94481 0.37335,-0.62479 1.04386,-1.00576 0.67813,-0.38859 1.55435,-0.38859 z" />
      <path
         id="path1038"
         style=""
         d="m 273.13514,270.63255 h 1.14291 v 7.67272 l 3.34491,-4.5183 h 1.34101 l -3.05537,4.07638 3.13157,4.1678 h -1.37149 l -2.4763,-3.37539 -0.91433,1.18863 v 2.18676 h -1.14291 z" />
      <path
         id="path1040"
         style=""
         d="m 289.72254,275.28799 q -0.52573,-0.60193 -1.51625,-0.60193 -0.99052,0 -1.51626,0.60193 -0.20573,0.2362 -0.33526,0.53336 -0.12191,0.28954 -0.17524,0.68574 -0.0457,0.38859 -0.061,0.65527 -0.008,0.25906 -0.008,0.7467 0,0.48764 0.008,0.75432 0.0152,0.25906 0.061,0.65527 0.0533,0.38859 0.17524,0.68574 0.12953,0.28954 0.33526,0.52574 0.52574,0.60193 1.51626,0.60193 0.99052,0 1.51625,-0.60193 0.20573,-0.2362 0.32764,-0.52574 0.12953,-0.29715 0.17524,-0.68574 0.0533,-0.39621 0.061,-0.65527 0.0152,-0.26668 0.0152,-0.75432 0,-0.48764 -0.0152,-0.7467 -0.008,-0.26668 -0.061,-0.65527 -0.0457,-0.3962 -0.17524,-0.68574 -0.12191,-0.29716 -0.32764,-0.53336 z m -2.88774,-1.35625 q 0.61717,-0.26668 1.37149,-0.26668 0.75431,0 1.37148,0.26668 0.61717,0.25906 1.01338,0.69337 0.30478,0.33525 0.48764,0.73146 0.19049,0.38859 0.25906,0.87623 0.0762,0.48002 0.0914,0.80003 0.0152,0.3124 0.0152,0.87623 0,0.56384 -0.0152,0.88385 -0.0152,0.31239 -0.0914,0.80004 -0.0686,0.48002 -0.25906,0.87622 -0.18286,0.38859 -0.48764,0.72385 -0.39621,0.4343 -1.01338,0.70098 -0.61717,0.25906 -1.37148,0.25906 -0.75432,0 -1.37149,-0.25906 -0.61717,-0.26668 -1.01338,-0.70098 -0.30478,-0.33526 -0.49526,-0.72385 -0.18287,-0.3962 -0.25906,-0.87622 -0.0686,-0.48765 -0.0838,-0.80004 -0.0152,-0.32001 -0.0152,-0.88385 0,-0.56383 0.0152,-0.87623 0.0152,-0.32001 0.0838,-0.80003 0.0762,-0.48764 0.25906,-0.87623 0.19048,-0.39621 0.49526,-0.73146 0.39621,-0.43431 1.01338,-0.69337 z" />
      <path
         id="path1042"
         style=""
         d="m 296.85429,273.66506 q 0.84575,0 1.53149,0.44955 0.69337,0.44192 1.01338,1.24196 0.11429,0.2743 0.16763,0.62479 0.0533,0.35049 0.0609,0.59431 0.008,0.2362 0.008,0.69336 v 4.76212 h -1.1429 v -4.68592 q 0,-0.72384 -0.0305,-1.04386 -0.0305,-0.32763 -0.16763,-0.62479 -0.21334,-0.4724 -0.66288,-0.73146 -0.44193,-0.25906 -1.00576,-0.25906 -0.56384,0 -1.01338,0.25906 -0.44193,0.25906 -0.65527,0.73146 -0.13715,0.29716 -0.16762,0.62479 -0.0305,0.32002 -0.0305,1.04386 v 4.68592 h -1.14291 v -8.24418 h 1.14291 v 0.86861 q 0.89909,-0.99052 2.09533,-0.99052 z" />
      <path
         id="path1044"
         style=""
         d="m 306.73663,279.72247 v -4.99069 h -1.14291 v -0.94481 h 1.14291 v -1.78293 h 1.14291 v 1.78293 h 1.52387 v 0.94481 h -1.52387 v 4.99069 q 0,0.8229 0.0686,0.99052 0.17525,0.41907 0.65527,0.41907 0.39621,0 0.86861,-0.24382 l 0.44192,0.9448 q -0.73146,0.32002 -1.38672,0.32002 -0.64765,0 -1.0972,-0.3124 -0.44192,-0.31239 -0.60955,-0.89146 -0.0838,-0.28954 -0.0838,-1.22673 z" />
      <path
         id="path1046"
         style=""
         d="m 314.71413,273.66506 q 0.6705,0 1.22672,0.2743 0.55621,0.2743 0.92194,0.73146 0.22858,0.28192 0.36573,0.59431 0.13715,0.3124 0.19049,0.69337 0.0533,0.38097 0.0609,0.62479 0.0152,0.24382 0.0152,0.68574 v 4.76212 h -1.14291 v -4.68592 q 0,-0.57908 -0.0152,-0.84575 -0.0152,-0.2743 -0.11429,-0.61717 -0.099,-0.34288 -0.31239,-0.5867 -0.51812,-0.60955 -1.42483,-0.60955 -0.9067,0 -1.42482,0.60955 -0.21334,0.24382 -0.3124,0.5867 -0.099,0.34287 -0.11429,0.61717 -0.0152,0.26667 -0.0152,0.84575 v 4.68592 h -1.1429 v -11.3986 h 1.1429 v 4.02303 q 0.89909,-0.99052 2.09534,-0.99052 z" />
      <path
         id="path1048"
         style=""
         d="m 322.82877,282.15306 q -0.88385,0 -1.56197,-0.32763 -0.67813,-0.33526 -1.07434,-0.91433 -0.28191,-0.40383 -0.42668,-0.96004 -0.13715,-0.55622 -0.16001,-0.93719 -0.0152,-0.38859 -0.0152,-1.10481 0,-0.58669 0.008,-0.88385 0.0152,-0.30477 0.0762,-0.73146 0.0686,-0.4343 0.1981,-0.78479 0.32001,-0.83814 1.06671,-1.34102 0.75432,-0.50288 1.73722,-0.50288 0.96767,0 1.72198,0.5105 0.76194,0.50288 1.08958,1.34101 0.19048,0.48003 0.22858,0.96005 0.0457,0.4724 0.0457,1.42482 v 0.25144 h -5.02879 q 0,0.49526 0.0152,0.80004 0.0152,0.29715 0.11429,0.72384 0.10667,0.41906 0.30478,0.70098 0.52573,0.75432 1.66102,0.75432 1.01338,0 2.17915,-0.55621 l 0.4343,0.9448 q -1.34863,0.63241 -2.61345,0.63241 z m 1.79056,-4.94498 q -0.0152,-0.86861 -0.22097,-1.37911 -0.20572,-0.52574 -0.6705,-0.83051 -0.45716,-0.3124 -1.05148,-0.3124 -0.61717,0 -1.06671,0.3124 -0.44954,0.30477 -0.64765,0.82289 -0.20572,0.53336 -0.22096,1.38673 z" />
      <path
         id="path1050"
         style=""
         d="m 338.1285,282.03115 h -1.14291 v -4.85355 q 0,-0.4724 -0.008,-0.68574 -0.008,-0.22097 -0.0533,-0.48003 -0.0457,-0.25905 -0.13714,-0.44954 -0.19811,-0.41145 -0.60956,-0.64003 -0.40382,-0.2362 -0.9067,-0.2362 -0.50288,0 -0.91433,0.2362 -0.40383,0.22858 -0.60193,0.64003 -0.0914,0.19049 -0.13715,0.44954 -0.0457,0.25906 -0.0533,0.48003 -0.008,0.21334 -0.008,0.68574 v 4.85355 h -1.14291 v -8.24418 h 1.14291 v 0.84576 q 0.83813,-0.96767 1.94294,-0.96767 0.75432,0 1.32577,0.3505 0.57146,0.34287 0.88385,0.95242 0.40383,-0.60955 1.01338,-0.95242 0.60955,-0.3505 1.34863,-0.3505 0.83051,0 1.47816,0.44193 0.65527,0.44192 0.9448,1.2191 0.0991,0.25906 0.14477,0.58669 0.0457,0.32002 0.0533,0.54098 0.008,0.22096 0.008,0.64765 v 4.92974 h -1.14291 v -4.85355 q 0,-0.4724 -0.008,-0.68574 -0.008,-0.22097 -0.0533,-0.48003 -0.0457,-0.25905 -0.13715,-0.44954 -0.19811,-0.41145 -0.60955,-0.64003 -0.40383,-0.2362 -0.90671,-0.2362 -0.50288,0 -0.91433,0.2362 -0.40382,0.22858 -0.60193,0.64003 -0.0914,0.19049 -0.13715,0.44954 -0.0457,0.25906 -0.0533,0.48003 -0.008,0.21334 -0.008,0.68574 z" />
      <path
         id="path1052"
         style=""
         d="m 344.98594,273.78697 h 1.14291 v 4.76212 q 0,1.02862 0.11429,1.37911 0.19049,0.58669 0.66289,0.89909 0.4724,0.30477 1.08957,0.30477 0.61717,0 1.08957,-0.30477 0.4724,-0.3124 0.66289,-0.89909 0.11429,-0.35049 0.11429,-1.37911 v -4.76212 h 1.14291 v 4.83831 q 0,0.40383 -0.008,0.62479 -0.008,0.21335 -0.0533,0.53336 -0.0457,0.32001 -0.14477,0.57907 -0.32001,0.86861 -1.05147,1.3334 -0.72384,0.45716 -1.75246,0.45716 -1.02862,0 -1.76008,-0.45716 -0.72384,-0.46479 -1.04385,-1.3334 -0.0991,-0.25906 -0.14477,-0.57907 -0.0457,-0.32001 -0.0533,-0.53336 -0.008,-0.22096 -0.008,-0.62479 z" />
      <path
         id="path1054"
         style=""
         d="m 355.80547,273.66506 q 1.13529,0 2.61345,0.62479 l -0.38859,0.96767 q -1.34101,-0.57146 -2.22486,-0.57146 -0.44193,0 -0.77718,0.12953 -0.33525,0.12953 -0.50288,0.33525 -0.16763,0.20573 -0.25144,0.41145 -0.0762,0.20572 -0.0762,0.40383 0,0.38097 0.20572,0.6705 0.21334,0.28192 0.53336,0.42669 0.31239,0.14477 1.02099,0.25144 0.71623,0.099 1.19625,0.2743 0.6705,0.25144 1.12767,0.81527 0.45716,0.56384 0.45716,1.33339 0,0.96767 -0.7848,1.69151 -0.78479,0.72384 -2.14866,0.72384 -1.28006,0 -2.88013,-0.7086 l 0.41145,-0.95243 q 1.4172,0.64003 2.46868,0.64003 0.4724,0 0.83051,-0.12953 0.36573,-0.12953 0.56383,-0.34287 0.19811,-0.21334 0.29716,-0.44193 0.0991,-0.2362 0.0991,-0.48002 0,-0.4343 -0.25906,-0.75432 -0.25906,-0.32001 -0.64002,-0.46478 -0.25906,-0.0991 -1.04386,-0.22096 -0.7848,-0.12191 -1.24958,-0.33525 -0.58669,-0.2743 -0.96766,-0.79242 -0.38097,-0.51812 -0.38097,-1.20386 0,-0.93719 0.7467,-1.61531 0.75432,-0.68575 2.0039,-0.68575 z" />
      <path
         id="path1056"
         style=""
         d="m 363.69915,282.15306 q -0.88385,0 -1.56198,-0.32763 -0.67812,-0.33526 -1.07433,-0.91433 -0.28192,-0.40383 -0.42668,-0.96004 -0.13715,-0.55622 -0.16001,-0.93719 -0.0152,-0.38859 -0.0152,-1.10481 0,-0.58669 0.008,-0.88385 0.0152,-0.30477 0.0762,-0.73146 0.0686,-0.4343 0.19811,-0.78479 0.32001,-0.83814 1.06671,-1.34102 0.75432,-0.50288 1.73722,-0.50288 0.96766,0 1.72198,0.5105 0.76194,0.50288 1.08957,1.34101 0.19049,0.48003 0.22858,0.96005 0.0457,0.4724 0.0457,1.42482 v 0.25144 h -5.02879 q 0,0.49526 0.0152,0.80004 0.0152,0.29715 0.11429,0.72384 0.10667,0.41906 0.30477,0.70098 0.52574,0.75432 1.66103,0.75432 1.01338,0 2.17914,-0.55621 l 0.43431,0.9448 q -1.34863,0.63241 -2.61345,0.63241 z m 1.79055,-4.94498 q -0.0152,-0.86861 -0.22096,-1.37911 -0.20572,-0.52574 -0.6705,-0.83051 -0.45717,-0.3124 -1.05148,-0.3124 -0.61717,0 -1.06671,0.3124 -0.44955,0.30477 -0.64765,0.82289 -0.20572,0.53336 -0.22096,1.38673 z" />
      <path
         id="path1058"
         style=""
         d="m 374.48819,282.03115 h -1.1429 v -4.85355 q 0,-0.4724 -0.008,-0.68574 -0.008,-0.22097 -0.0533,-0.48003 -0.0457,-0.25905 -0.13715,-0.44954 -0.1981,-0.41145 -0.60955,-0.64003 -0.40383,-0.2362 -0.90671,-0.2362 -0.50288,0 -0.91432,0.2362 -0.40383,0.22858 -0.60193,0.64003 -0.0914,0.19049 -0.13715,0.44954 -0.0457,0.25906 -0.0533,0.48003 -0.008,0.21334 -0.008,0.68574 v 4.85355 h -1.14291 v -8.24418 h 1.14291 v 0.84576 q 0.83813,-0.96767 1.94295,-0.96767 0.75431,0 1.32577,0.3505 0.57145,0.34287 0.88385,0.95242 0.40382,-0.60955 1.01337,-0.95242 0.60956,-0.3505 1.34864,-0.3505 0.83051,0 1.47816,0.44193 0.65526,0.44192 0.9448,1.2191 0.099,0.25906 0.14477,0.58669 0.0457,0.32002 0.0533,0.54098 0.008,0.22096 0.008,0.64765 v 4.92974 h -1.1429 v -4.85355 q 0,-0.4724 -0.008,-0.68574 -0.008,-0.22097 -0.0533,-0.48003 -0.0457,-0.25905 -0.13715,-0.44954 -0.1981,-0.41145 -0.60955,-0.64003 -0.40383,-0.2362 -0.90671,-0.2362 -0.50288,0 -0.91432,0.2362 -0.40383,0.22858 -0.60193,0.64003 -0.0914,0.19049 -0.13715,0.44954 -0.0457,0.25906 -0.0533,0.48003 -0.008,0.21334 -0.008,0.68574 z" />
      <path
         id="path1060"
         style=""
         d="m 388.27166,285.37606 q -1.69912,-1.37911 -2.33153,-3.61921 -0.38859,-1.40197 -0.38859,-3.84779 0,-2.41534 0.38859,-3.84779 0.61717,-2.22486 2.33153,-3.61921 l 0.57908,0.67051 q -1.35625,1.2572 -1.85913,3.10109 -0.37335,1.37911 -0.37335,3.6954 0,2.31629 0.37335,3.6954 0.50288,1.84389 1.85913,3.10109 z" />
      <path
         id="path1062"
         style=""
         d="m 394.75576,274.54891 0.80765,-0.70098 3.2611,3.74874 v 0.62479 l -3.2611,3.74873 -0.80765,-0.70098 2.45344,-2.84965 h -6.61363 v -1.021 h 6.61363 z" />
      <path
         id="path1064"
         style=""
         d="m 401.46082,270.44206 q 1.69912,1.37911 2.33153,3.61921 0.38859,1.43245 0.38859,3.84779 0,2.41535 -0.38859,3.84779 -0.63241,2.2401 -2.33153,3.61921 l -0.57908,-0.67051 q 1.35626,-1.2572 1.85913,-3.10109 0.37335,-1.37911 0.37335,-3.6954 0,-2.31629 -0.37335,-3.6954 -0.50287,-1.84389 -1.85913,-3.10109 z" />
      <path
         id="path1066"
         style=""
         d="m 410.96981,279.72247 v -4.99069 h -1.14291 v -0.94481 h 1.14291 v -1.78293 h 1.14291 v 1.78293 h 1.52388 v 0.94481 h -1.52388 v 4.99069 q 0,0.8229 0.0686,0.99052 0.17525,0.41907 0.65527,0.41907 0.39621,0 0.86861,-0.24382 l 0.44192,0.9448 q -0.73146,0.32002 -1.38672,0.32002 -0.64765,0 -1.0972,-0.3124 -0.44192,-0.31239 -0.60955,-0.89146 -0.0838,-0.28954 -0.0838,-1.22673 z" />
      <path
         id="path1068"
         style=""
         d="m 419.98355,275.28799 q -0.52574,-0.60193 -1.51626,-0.60193 -0.99052,0 -1.51626,0.60193 -0.20572,0.2362 -0.33525,0.53336 -0.12191,0.28954 -0.17525,0.68574 -0.0457,0.38859 -0.061,0.65527 -0.008,0.25906 -0.008,0.7467 0,0.48764 0.008,0.75432 0.0152,0.25906 0.061,0.65527 0.0533,0.38859 0.17525,0.68574 0.12953,0.28954 0.33525,0.52574 0.52574,0.60193 1.51626,0.60193 0.99052,0 1.51626,-0.60193 0.20572,-0.2362 0.32763,-0.52574 0.12953,-0.29715 0.17525,-0.68574 0.0533,-0.39621 0.0609,-0.65527 0.0152,-0.26668 0.0152,-0.75432 0,-0.48764 -0.0152,-0.7467 -0.008,-0.26668 -0.0609,-0.65527 -0.0457,-0.3962 -0.17525,-0.68574 -0.12191,-0.29716 -0.32763,-0.53336 z m -2.88775,-1.35625 q 0.61717,-0.26668 1.37149,-0.26668 0.75432,0 1.37149,0.26668 0.61717,0.25906 1.01338,0.69337 0.30477,0.33525 0.48764,0.73146 0.19048,0.38859 0.25906,0.87623 0.0762,0.48002 0.0914,0.80003 0.0152,0.3124 0.0152,0.87623 0,0.56384 -0.0152,0.88385 -0.0152,0.31239 -0.0914,0.80004 -0.0686,0.48002 -0.25906,0.87622 -0.18287,0.38859 -0.48764,0.72385 -0.39621,0.4343 -1.01338,0.70098 -0.61717,0.25906 -1.37149,0.25906 -0.75432,0 -1.37149,-0.25906 -0.61717,-0.26668 -1.01338,-0.70098 -0.30477,-0.33526 -0.49526,-0.72385 -0.18286,-0.3962 -0.25906,-0.87622 -0.0686,-0.48765 -0.0838,-0.80004 -0.0152,-0.32001 -0.0152,-0.88385 0,-0.56383 0.0152,-0.87623 0.0152,-0.32001 0.0838,-0.80003 0.0762,-0.48764 0.25906,-0.87623 0.19049,-0.39621 0.49526,-0.73146 0.39621,-0.43431 1.01338,-0.69337 z" />
      <path
         id="path1070"
         style=""
         d="m 431.35929,282.15306 q -0.88385,0 -1.56197,-0.32763 -0.67813,-0.33526 -1.07434,-0.91433 -0.28192,-0.40383 -0.42668,-0.96004 -0.13715,-0.55622 -0.16001,-0.93719 -0.0152,-0.38859 -0.0152,-1.10481 0,-0.58669 0.008,-0.88385 0.0152,-0.30477 0.0762,-0.73146 0.0686,-0.4343 0.19811,-0.78479 0.32001,-0.83814 1.06671,-1.34102 0.75432,-0.50288 1.73722,-0.50288 0.96766,0 1.72198,0.5105 0.76194,0.50288 1.08957,1.34101 0.19049,0.48003 0.22859,0.96005 0.0457,0.4724 0.0457,1.42482 v 0.25144 h -5.02879 q 0,0.49526 0.0152,0.80004 0.0152,0.29715 0.11429,0.72384 0.10667,0.41906 0.30477,0.70098 0.52574,0.75432 1.66103,0.75432 1.01338,0 2.17914,-0.55621 l 0.43431,0.9448 q -1.34863,0.63241 -2.61345,0.63241 z m 1.79055,-4.94498 q -0.0152,-0.86861 -0.22096,-1.37911 -0.20572,-0.52574 -0.6705,-0.83051 -0.45717,-0.3124 -1.05148,-0.3124 -0.61717,0 -1.06671,0.3124 -0.44955,0.30477 -0.64765,0.82289 -0.20572,0.53336 -0.22096,1.38673 z" />
      <path
         id="path1072"
         style=""
         d="m 439.67203,273.66506 q 0.84576,0 1.5315,0.44955 0.69336,0.44192 1.01338,1.24196 0.11429,0.2743 0.16762,0.62479 0.0533,0.35049 0.061,0.59431 0.008,0.2362 0.008,0.69336 v 4.76212 h -1.14291 v -4.68592 q 0,-0.72384 -0.0305,-1.04386 -0.0305,-0.32763 -0.16762,-0.62479 -0.21335,-0.4724 -0.66289,-0.73146 -0.44192,-0.25906 -1.00576,-0.25906 -0.56383,0 -1.01338,0.25906 -0.44192,0.25906 -0.65526,0.73146 -0.13715,0.29716 -0.16763,0.62479 -0.0305,0.32002 -0.0305,1.04386 v 4.68592 h -1.1429 v -8.24418 h 1.1429 v 0.86861 q 0.89909,-0.99052 2.09533,-0.99052 z" />
      <path
         id="path1074"
         style=""
         d="m 445.04369,279.72247 v -4.99069 h -1.1429 v -0.94481 h 1.1429 v -1.78293 h 1.14291 v 1.78293 h 1.52388 v 0.94481 h -1.52388 v 4.99069 q 0,0.8229 0.0686,0.99052 0.17524,0.41907 0.65526,0.41907 0.39621,0 0.86861,-0.24382 l 0.44193,0.9448 q -0.73146,0.32002 -1.38673,0.32002 -0.64765,0 -1.09719,-0.3124 -0.44193,-0.31239 -0.60955,-0.89146 -0.0838,-0.28954 -0.0838,-1.22673 z" />
      <path
         id="path1076"
         style=""
         d="m 452.54117,282.15306 q -0.88384,0 -1.56197,-0.32763 -0.67813,-0.33526 -1.07433,-0.91433 -0.28192,-0.40383 -0.42669,-0.96004 -0.13715,-0.55622 -0.16001,-0.93719 -0.0152,-0.38859 -0.0152,-1.10481 0,-0.58669 0.008,-0.88385 0.0152,-0.30477 0.0762,-0.73146 0.0686,-0.4343 0.1981,-0.78479 0.32002,-0.83814 1.06672,-1.34102 0.75432,-0.50288 1.73722,-0.50288 0.96766,0 1.72198,0.5105 0.76194,0.50288 1.08957,1.34101 0.19048,0.48003 0.22858,0.96005 0.0457,0.4724 0.0457,1.42482 v 0.25144 h -5.0288 q 0,0.49526 0.0152,0.80004 0.0152,0.29715 0.11429,0.72384 0.10667,0.41906 0.30478,0.70098 0.52574,0.75432 1.66102,0.75432 1.01338,0 2.17915,-0.55621 l 0.4343,0.9448 q -1.34863,0.63241 -2.61345,0.63241 z m 1.79056,-4.94498 q -0.0152,-0.86861 -0.22096,-1.37911 -0.20573,-0.52574 -0.67051,-0.83051 -0.45716,-0.3124 -1.05147,-0.3124 -0.61717,0 -1.06672,0.3124 -0.44954,0.30477 -0.64765,0.82289 -0.20572,0.53336 -0.22096,1.38673 z" />
      <path
         id="path1078"
         style=""
         d="m 458.75859,274.65558 q 0.83051,-0.99052 1.94294,-0.99052 0.3124,0 0.70098,0.0838 l -0.16762,1.00576 q -0.48002,-0.0686 -0.68575,-0.0686 -0.57907,0 -1.00576,0.2743 -0.42668,0.2743 -0.61717,0.73908 -0.16762,0.40383 -0.16762,1.43244 v 4.89927 h -1.14291 v -8.24418 h 1.14291 z" />
      <path
         id="path1080"
         style=""
         d="m 461.77587,280.71299 q 0.2362,-0.2362 0.60955,-0.2362 0.37335,0 0.60194,0.2362 0.2362,0.22859 0.2362,0.60194 0,0.37335 -0.2362,0.60955 -0.22859,0.22858 -0.60194,0.22858 -0.37335,0 -0.60955,-0.22858 -0.22858,-0.2362 -0.22858,-0.60955 0,-0.37335 0.22858,-0.60194 z" />
      <path
         id="path1082"
         style=""
         d="m 239.97558,305.43789 v -10.78905 h 1.18862 l 3.13157,6.39266 3.13157,-6.39266 h 1.18862 v 10.78905 h -1.18862 v -8.54895 l -2.59059,5.34119 h -1.08195 l -2.5906,-5.34119 v 8.54895 z" />
      <path
         id="path1084"
         style=""
         d="m 251.90754,302.99206 q 0,0.64765 0.42668,1.0972 0.43431,0.44954 1.21148,0.44954 0.62479,0 1.11243,-0.30478 0.48765,-0.30477 0.68575,-0.92194 0.0686,-0.22096 0.099,-0.5105 0.0381,-0.28954 0.0381,-0.54098 0.008,-0.25906 0.008,-0.83813 h -1.10481 q -1.09719,0 -1.44769,0.10667 -0.49526,0.15239 -0.76193,0.5486 -0.26668,0.38859 -0.26668,0.91432 z m 4.72402,-2.51439 v 4.96022 h -1.14291 v -0.87623 q -0.86861,0.99814 -2.09533,0.99814 -1.15815,0 -1.89723,-0.73146 -0.73146,-0.73908 -0.73146,-1.83628 0,-0.82289 0.46478,-1.4553 0.4724,-0.64003 1.32577,-0.89909 0.25144,-0.0762 0.55622,-0.11429 0.30478,-0.0381 0.53336,-0.0381 0.22858,-0.008 0.69336,-0.008 h 1.15053 q 0,-0.60955 -0.0229,-0.86861 -0.0152,-0.26668 -0.0991,-0.48764 -0.19049,-0.5105 -0.64003,-0.76956 -0.44954,-0.25906 -1.02862,-0.25906 -0.84575,0 -2.0039,0.55622 l -0.4343,-0.94481 q 1.38673,-0.63241 2.4382,-0.63241 1.01338,0 1.77532,0.48764 0.76194,0.48764 1.03624,1.39435 0.12191,0.40383 0.12191,1.52388 z" />
      <path
         id="path1086"
         style=""
         d="m 258.99356,294.03929 h 1.14291 v 7.67272 l 3.34491,-4.5183 h 1.34101 l -3.05537,4.07637 3.13157,4.16781 h -1.37149 l -2.4763,-3.37539 -0.91433,1.18862 v 2.18677 h -1.14291 z" />
      <path
         id="path1088"
         style=""
         d="m 269.34069,305.5598 q -0.88385,0 -1.56197,-0.32764 -0.67813,-0.33525 -1.07434,-0.91432 -0.28191,-0.40383 -0.42668,-0.96005 -0.13715,-0.55621 -0.16001,-0.93718 -0.0152,-0.38859 -0.0152,-1.10481 0,-0.58669 0.008,-0.88385 0.0152,-0.30477 0.0762,-0.73146 0.0686,-0.4343 0.19811,-0.7848 0.32001,-0.83813 1.06671,-1.34101 0.75432,-0.50288 1.73722,-0.50288 0.96766,0 1.72198,0.5105 0.76194,0.50288 1.08957,1.34101 0.19049,0.48002 0.22859,0.96005 0.0457,0.4724 0.0457,1.42482 v 0.25144 h -5.02879 q 0,0.49526 0.0152,0.80004 0.0152,0.29715 0.11429,0.72384 0.10667,0.41906 0.30477,0.70098 0.52574,0.75432 1.66103,0.75432 1.01338,0 2.17914,-0.55622 l 0.43431,0.94481 q -1.34863,0.63241 -2.61345,0.63241 z m 1.79055,-4.94498 q -0.0152,-0.86861 -0.22096,-1.37911 -0.20572,-0.52574 -0.6705,-0.83052 -0.45717,-0.31239 -1.05148,-0.31239 -0.61717,0 -1.06671,0.31239 -0.44955,0.30478 -0.64765,0.8229 -0.20572,0.53336 -0.22096,1.38673 z" />
      <path
         id="path1090"
         style=""
         d="m 281.34884,297.0718 q 1.13529,0 2.61345,0.62479 l -0.38859,0.96766 q -1.34101,-0.57145 -2.22486,-0.57145 -0.44192,0 -0.77718,0.12953 -0.33525,0.12953 -0.50288,0.33525 -0.16762,0.20573 -0.25144,0.41145 -0.0762,0.20572 -0.0762,0.40383 0,0.38097 0.20572,0.6705 0.21335,0.28192 0.53336,0.42669 0.3124,0.14477 1.021,0.25144 0.71622,0.099 1.19624,0.2743 0.67051,0.25144 1.12767,0.81527 0.45716,0.56383 0.45716,1.33339 0,0.96766 -0.78479,1.69151 -0.7848,0.72384 -2.14867,0.72384 -1.28006,0 -2.88013,-0.70861 l 0.41145,-0.95242 q 1.41721,0.64003 2.46868,0.64003 0.4724,0 0.83051,-0.12953 0.36573,-0.12953 0.56384,-0.34287 0.1981,-0.21335 0.29715,-0.44193 0.0991,-0.2362 0.0991,-0.48002 0,-0.4343 -0.25906,-0.75432 -0.25906,-0.32001 -0.64003,-0.46478 -0.25906,-0.099 -1.04386,-0.22096 -0.78479,-0.12191 -1.24958,-0.33525 -0.58669,-0.2743 -0.96766,-0.79242 -0.38097,-0.51812 -0.38097,-1.20386 0,-0.93719 0.7467,-1.61531 0.75432,-0.68575 2.0039,-0.68575 z" />
      <path
         id="path1092"
         style=""
         d="m 286.19477,297.19371 h 1.14291 v 4.76212 q 0,1.02861 0.11429,1.37911 0.19048,0.58669 0.66288,0.89908 0.4724,0.30478 1.08958,0.30478 0.61717,0 1.08957,-0.30478 0.4724,-0.31239 0.66288,-0.89908 0.11429,-0.3505 0.11429,-1.37911 v -4.76212 h 1.14291 v 4.83831 q 0,0.40383 -0.008,0.62479 -0.008,0.21334 -0.0533,0.53336 -0.0457,0.32001 -0.14477,0.57907 -0.32002,0.86861 -1.05148,1.33339 -0.72384,0.45717 -1.75245,0.45717 -1.02862,0 -1.76008,-0.45717 -0.72384,-0.46478 -1.04386,-1.33339 -0.099,-0.25906 -0.14477,-0.57907 -0.0457,-0.32002 -0.0533,-0.53336 -0.008,-0.22096 -0.008,-0.62479 z" />
      <path
         id="path1094"
         style=""
         d="m 295.73424,298.06232 q 0.83051,-0.99052 1.94294,-0.99052 0.3124,0 0.70099,0.0838 l -0.16763,1.00575 q -0.48002,-0.0686 -0.68575,-0.0686 -0.57907,0 -1.00575,0.2743 -0.42669,0.2743 -0.61717,0.73908 -0.16763,0.40383 -0.16763,1.43244 v 4.89927 h -1.14291 v -8.24418 h 1.14291 z" />
      <path
         id="path1096"
         style=""
         d="m 302.7136,305.5598 q -0.88385,0 -1.56198,-0.32764 -0.67812,-0.33525 -1.07433,-0.91432 -0.28192,-0.40383 -0.42669,-0.96005 -0.13715,-0.55621 -0.16,-0.93718 -0.0152,-0.38859 -0.0152,-1.10481 0,-0.58669 0.008,-0.88385 0.0152,-0.30477 0.0762,-0.73146 0.0686,-0.4343 0.1981,-0.7848 0.32002,-0.83813 1.06672,-1.34101 0.75432,-0.50288 1.73722,-0.50288 0.96766,0 1.72198,0.5105 0.76194,0.50288 1.08957,1.34101 0.19048,0.48002 0.22858,0.96005 0.0457,0.4724 0.0457,1.42482 v 0.25144 h -5.0288 q 0,0.49526 0.0152,0.80004 0.0152,0.29715 0.11429,0.72384 0.10668,0.41906 0.30478,0.70098 0.52574,0.75432 1.66103,0.75432 1.01337,0 2.17914,-0.55622 l 0.4343,0.94481 q -1.34863,0.63241 -2.61344,0.63241 z m 1.79055,-4.94498 q -0.0152,-0.86861 -0.22096,-1.37911 -0.20573,-0.52574 -0.67051,-0.83052 -0.45716,-0.31239 -1.05147,-0.31239 -0.61717,0 -1.06672,0.31239 -0.44954,0.30478 -0.64764,0.8229 -0.20573,0.53336 -0.22097,1.38673 z" />
      <path
         id="path1098"
         style=""
         d="m 311.7959,308.55422 0.25144,-0.99052 q 0.38859,0.10667 0.72384,0.10667 0.5486,0 0.91433,-0.28954 0.14477,-0.11429 0.25144,-0.28954 0.11429,-0.16762 0.16762,-0.31239 0.0533,-0.13715 0.13715,-0.39621 l 0.28192,-0.92956 -2.9868,-8.25942 h 1.18862 l 2.30106,6.74316 1.95056,-6.74316 h 1.16577 l -2.87251,9.45566 q -0.15239,0.50288 -0.33525,0.83813 -0.17525,0.33525 -0.47241,0.59431 -0.68574,0.60955 -1.6915,0.60955 -0.42668,0 -0.97528,-0.13714 z" />
      <path
         id="path1100"
         style=""
         d="m 324.16216,298.69473 q -0.52574,-0.60193 -1.51626,-0.60193 -0.99052,0 -1.51625,0.60193 -0.20573,0.2362 -0.33526,0.53336 -0.12191,0.28953 -0.17524,0.68574 -0.0457,0.38859 -0.061,0.65527 -0.008,0.25906 -0.008,0.7467 0,0.48764 0.008,0.75432 0.0152,0.25906 0.061,0.65527 0.0533,0.38858 0.17524,0.68574 0.12953,0.28954 0.33526,0.52574 0.52573,0.60193 1.51625,0.60193 0.99052,0 1.51626,-0.60193 0.20572,-0.2362 0.32763,-0.52574 0.12953,-0.29716 0.17525,-0.68574 0.0533,-0.39621 0.061,-0.65527 0.0152,-0.26668 0.0152,-0.75432 0,-0.48764 -0.0152,-0.7467 -0.008,-0.26668 -0.061,-0.65527 -0.0457,-0.39621 -0.17525,-0.68574 -0.12191,-0.29716 -0.32763,-0.53336 z m -2.88775,-1.35625 q 0.61717,-0.26668 1.37149,-0.26668 0.75432,0 1.37149,0.26668 0.61717,0.25906 1.01338,0.69336 0.30478,0.33526 0.48764,0.73147 0.19049,0.38858 0.25906,0.87623 0.0762,0.48002 0.0914,0.80003 0.0152,0.3124 0.0152,0.87623 0,0.56383 -0.0152,0.88385 -0.0152,0.31239 -0.0914,0.80003 -0.0686,0.48002 -0.25906,0.87623 -0.18286,0.38859 -0.48764,0.72384 -0.39621,0.43431 -1.01338,0.70099 -0.61717,0.25906 -1.37149,0.25906 -0.75432,0 -1.37149,-0.25906 -0.61717,-0.26668 -1.01337,-0.70099 -0.30478,-0.33525 -0.49526,-0.72384 -0.18287,-0.39621 -0.25906,-0.87623 -0.0686,-0.48764 -0.0838,-0.80003 -0.0152,-0.32002 -0.0152,-0.88385 0,-0.56383 0.0152,-0.87623 0.0152,-0.32001 0.0838,-0.80003 0.0762,-0.48765 0.25906,-0.87623 0.19048,-0.39621 0.49526,-0.73147 0.3962,-0.4343 1.01337,-0.69336 z" />
      <path
         id="path1102"
         style=""
         d="m 327.97947,297.19371 h 1.14291 v 4.76212 q 0,1.02861 0.11429,1.37911 0.19049,0.58669 0.66289,0.89908 0.4724,0.30478 1.08957,0.30478 0.61717,0 1.08957,-0.30478 0.47241,-0.31239 0.66289,-0.89908 0.11429,-0.3505 0.11429,-1.37911 v -4.76212 h 1.14291 v 4.83831 q 0,0.40383 -0.008,0.62479 -0.008,0.21334 -0.0533,0.53336 -0.0457,0.32001 -0.14477,0.57907 -0.32001,0.86861 -1.05147,1.33339 -0.72384,0.45717 -1.75246,0.45717 -1.02862,0 -1.76008,-0.45717 -0.72384,-0.46478 -1.04385,-1.33339 -0.0991,-0.25906 -0.14477,-0.57907 -0.0457,-0.32002 -0.0533,-0.53336 -0.008,-0.22096 -0.008,-0.62479 z" />
      <path
         id="path1104"
         style=""
         d="m 337.51894,298.06232 q 0.83051,-0.99052 1.94294,-0.99052 0.3124,0 0.70099,0.0838 l -0.16763,1.00575 q -0.48002,-0.0686 -0.68574,-0.0686 -0.57908,0 -1.00576,0.2743 -0.42669,0.2743 -0.61717,0.73908 -0.16763,0.40383 -0.16763,1.43244 v 4.89927 h -1.14291 v -8.24418 h 1.14291 z" />
      <path
         id="path1106"
         style=""
         d="m 348.61276,297.0718 q 1.13529,0 2.61345,0.62479 l -0.38858,0.96766 q -1.34102,-0.57145 -2.22487,-0.57145 -0.44192,0 -0.77717,0.12953 -0.33526,0.12953 -0.50288,0.33525 -0.16763,0.20573 -0.25144,0.41145 -0.0762,0.20572 -0.0762,0.40383 0,0.38097 0.20573,0.6705 0.21334,0.28192 0.53335,0.42669 0.3124,0.14477 1.021,0.25144 0.71622,0.099 1.19625,0.2743 0.6705,0.25144 1.12766,0.81527 0.45717,0.56383 0.45717,1.33339 0,0.96766 -0.7848,1.69151 -0.7848,0.72384 -2.14867,0.72384 -1.28005,0 -2.88012,-0.70861 l 0.41144,-0.95242 q 1.41721,0.64003 2.46868,0.64003 0.47241,0 0.83052,-0.12953 0.36573,-0.12953 0.56383,-0.34287 0.19811,-0.21335 0.29716,-0.44193 0.0991,-0.2362 0.0991,-0.48002 0,-0.4343 -0.25906,-0.75432 -0.25906,-0.32001 -0.64003,-0.46478 -0.25906,-0.099 -1.04385,-0.22096 -0.7848,-0.12191 -1.24958,-0.33525 -0.58669,-0.2743 -0.96766,-0.79242 -0.38097,-0.51812 -0.38097,-1.20386 0,-0.93719 0.7467,-1.61531 0.75432,-0.68575 2.00389,-0.68575 z" />
      <path
         id="path1108"
         style=""
         d="m 358.02271,298.69473 q -0.52574,-0.60193 -1.51626,-0.60193 -0.99052,0 -1.51625,0.60193 -0.20573,0.2362 -0.33526,0.53336 -0.12191,0.28953 -0.17524,0.68574 -0.0457,0.38859 -0.061,0.65527 -0.008,0.25906 -0.008,0.7467 0,0.48764 0.008,0.75432 0.0152,0.25906 0.061,0.65527 0.0533,0.38858 0.17524,0.68574 0.12953,0.28954 0.33526,0.52574 0.52573,0.60193 1.51625,0.60193 0.99052,0 1.51626,-0.60193 0.20572,-0.2362 0.32763,-0.52574 0.12953,-0.29716 0.17525,-0.68574 0.0533,-0.39621 0.061,-0.65527 0.0152,-0.26668 0.0152,-0.75432 0,-0.48764 -0.0152,-0.7467 -0.008,-0.26668 -0.061,-0.65527 -0.0457,-0.39621 -0.17525,-0.68574 -0.12191,-0.29716 -0.32763,-0.53336 z m -2.88775,-1.35625 q 0.61717,-0.26668 1.37149,-0.26668 0.75432,0 1.37149,0.26668 0.61717,0.25906 1.01338,0.69336 0.30478,0.33526 0.48764,0.73147 0.19049,0.38858 0.25906,0.87623 0.0762,0.48002 0.0914,0.80003 0.0152,0.3124 0.0152,0.87623 0,0.56383 -0.0152,0.88385 -0.0152,0.31239 -0.0914,0.80003 -0.0686,0.48002 -0.25906,0.87623 -0.18286,0.38859 -0.48764,0.72384 -0.39621,0.43431 -1.01338,0.70099 -0.61717,0.25906 -1.37149,0.25906 -0.75432,0 -1.37149,-0.25906 -0.61717,-0.26668 -1.01337,-0.70099 -0.30478,-0.33525 -0.49526,-0.72384 -0.18287,-0.39621 -0.25906,-0.87623 -0.0686,-0.48764 -0.0838,-0.80003 -0.0152,-0.32002 -0.0152,-0.88385 0,-0.56383 0.0152,-0.87623 0.0152,-0.32001 0.0838,-0.80003 0.0762,-0.48765 0.25906,-0.87623 0.19048,-0.39621 0.49526,-0.73147 0.3962,-0.4343 1.01337,-0.69336 z" />
      <path
         id="path1110"
         style=""
         d="m 361.84002,297.19371 h 1.1429 v 4.76212 q 0,1.02861 0.11429,1.37911 0.19049,0.58669 0.66289,0.89908 0.4724,0.30478 1.08957,0.30478 0.61717,0 1.08958,-0.30478 0.4724,-0.31239 0.66288,-0.89908 0.11429,-0.3505 0.11429,-1.37911 v -4.76212 h 1.14291 v 4.83831 q 0,0.40383 -0.008,0.62479 -0.008,0.21334 -0.0533,0.53336 -0.0457,0.32001 -0.14477,0.57907 -0.32002,0.86861 -1.05148,1.33339 -0.72384,0.45717 -1.75246,0.45717 -1.02861,0 -1.76007,-0.45717 -0.72385,-0.46478 -1.04386,-1.33339 -0.0991,-0.25906 -0.14477,-0.57907 -0.0457,-0.32002 -0.0533,-0.53336 -0.008,-0.22096 -0.008,-0.62479 z" />
      <path
         id="path1112"
         style=""
         d="m 373.47482,297.0718 q 0.84575,0 1.5315,0.44955 0.69336,0.44192 1.01338,1.24196 0.11429,0.27429 0.16762,0.62479 0.0533,0.35049 0.061,0.59431 0.008,0.2362 0.008,0.69336 v 4.76212 h -1.14291 v -4.68592 q 0,-0.72385 -0.0305,-1.04386 -0.0305,-0.32763 -0.16762,-0.62479 -0.21335,-0.4724 -0.66289,-0.73146 -0.44192,-0.25906 -1.00576,-0.25906 -0.56383,0 -1.01338,0.25906 -0.44192,0.25906 -0.65526,0.73146 -0.13715,0.29716 -0.16763,0.62479 -0.0305,0.32001 -0.0305,1.04386 v 4.68592 h -1.14291 v -8.24418 h 1.14291 v 0.86861 q 0.89909,-0.99052 2.09533,-0.99052 z" />
      <path
         id="path1114"
         style=""
         d="m 381.36088,297.0718 q 1.27244,0 2.17152,0.99814 v -4.03065 h 1.14291 v 11.3986 h -1.14291 v -0.87623 q -0.89908,0.99814 -2.17152,0.99814 -0.77718,0 -1.40959,-0.33526 -0.63241,-0.33525 -0.99052,-0.88384 -0.38097,-0.5867 -0.49526,-1.2572 -0.11429,-0.67813 -0.11429,-1.7677 0,-1.08957 0.11429,-1.76008 0.11429,-0.67812 0.49526,-1.26482 0.35811,-0.54859 0.99052,-0.88384 0.63241,-0.33526 1.40959,-0.33526 z m 1.71436,1.7677 q -0.54098,-0.7467 -1.56197,-0.7467 -1.021,0 -1.56198,0.7467 -0.28953,0.39621 -0.37335,0.96004 -0.0838,0.56384 -0.0838,1.51626 0,0.95242 0.0838,1.51626 0.0838,0.56383 0.37335,0.96004 0.54098,0.7467 1.56198,0.7467 1.02099,0 1.56197,-0.7467 0.28954,-0.39621 0.37335,-0.96004 0.0838,-0.56384 0.0838,-1.51626 0,-0.95242 -0.0838,-1.51626 -0.0838,-0.56383 -0.37335,-0.96004 z" />
      <path
         id="path1116"
         style=""
         d="m 391.72325,294.70979 q 0.20572,-0.20572 0.51812,-0.20572 0.31239,0 0.5105,0.20572 0.20572,0.19811 0.20572,0.5105 0,0.3124 -0.20572,0.51812 -0.19811,0.1981 -0.5105,0.1981 -0.3124,0 -0.51812,-0.1981 -0.1981,-0.20572 -0.1981,-0.51812 0,-0.31239 0.1981,-0.5105 z m 1.08957,10.7281 h -1.14291 v -8.24418 h 1.14291 z" />
      <path
         id="path1118"
         style=""
         d="m 397.71208,297.0718 q 1.13529,0 2.61345,0.62479 l -0.38859,0.96766 q -1.34101,-0.57145 -2.22486,-0.57145 -0.44192,0 -0.77717,0.12953 -0.33526,0.12953 -0.50288,0.33525 -0.16763,0.20573 -0.25144,0.41145 -0.0762,0.20572 -0.0762,0.40383 0,0.38097 0.20573,0.6705 0.21334,0.28192 0.53335,0.42669 0.3124,0.14477 1.021,0.25144 0.71622,0.099 1.19625,0.2743 0.6705,0.25144 1.12766,0.81527 0.45717,0.56383 0.45717,1.33339 0,0.96766 -0.7848,1.69151 -0.7848,0.72384 -2.14867,0.72384 -1.28005,0 -2.88012,-0.70861 l 0.41144,-0.95242 q 1.41721,0.64003 2.46868,0.64003 0.47241,0 0.83052,-0.12953 0.36573,-0.12953 0.56383,-0.34287 0.19811,-0.21335 0.29716,-0.44193 0.099,-0.2362 0.099,-0.48002 0,-0.4343 -0.25906,-0.75432 -0.25906,-0.32001 -0.64003,-0.46478 -0.25906,-0.099 -1.04385,-0.22096 -0.7848,-0.12191 -1.24958,-0.33525 -0.5867,-0.2743 -0.96766,-0.79242 -0.38097,-0.51812 -0.38097,-1.20386 0,-0.93719 0.7467,-1.61531 0.75432,-0.68575 2.00389,-0.68575 z" />
      <path
         id="path1120"
         style=""
         d="m 407.37346,303.12921 v -4.99069 h -1.14291 v -0.94481 h 1.14291 v -1.78293 h 1.14291 v 1.78293 h 1.52387 v 0.94481 h -1.52387 v 4.99069 q 0,0.8229 0.0686,0.99052 0.17525,0.41907 0.65527,0.41907 0.39621,0 0.86861,-0.24382 l 0.44192,0.9448 q -0.73146,0.32002 -1.38672,0.32002 -0.64765,0 -1.0972,-0.3124 -0.44192,-0.31239 -0.60955,-0.89147 -0.0838,-0.28953 -0.0838,-1.22672 z" />
      <path
         id="path1122"
         style=""
         d="m 411.88414,297.19371 h 1.14291 v 4.76212 q 0,1.02861 0.11429,1.37911 0.19049,0.58669 0.66289,0.89908 0.4724,0.30478 1.08957,0.30478 0.61717,0 1.08957,-0.30478 0.47241,-0.31239 0.66289,-0.89908 0.11429,-0.3505 0.11429,-1.37911 v -4.76212 h 1.14291 v 4.83831 q 0,0.40383 -0.008,0.62479 -0.008,0.21334 -0.0533,0.53336 -0.0457,0.32001 -0.14476,0.57907 -0.32002,0.86861 -1.05148,1.33339 -0.72384,0.45717 -1.75246,0.45717 -1.02862,0 -1.76008,-0.45717 -0.72384,-0.46478 -1.04385,-1.33339 -0.0991,-0.25906 -0.14477,-0.57907 -0.0457,-0.32002 -0.0533,-0.53336 -0.008,-0.22096 -0.008,-0.62479 z" />
      <path
         id="path1124"
         style=""
         d="m 421.4236,298.06232 q 0.83052,-0.99052 1.94295,-0.99052 0.31239,0 0.70098,0.0838 l -0.16763,1.00575 q -0.48002,-0.0686 -0.68574,-0.0686 -0.57907,0 -1.00576,0.2743 -0.42668,0.2743 -0.61717,0.73908 -0.16763,0.40383 -0.16763,1.43244 v 4.89927 h -1.1429 v -8.24418 h 1.1429 z" />
      <path
         id="path1126"
         style=""
         d="m 428.82204,297.0718 q 0.84575,0 1.53149,0.44955 0.69337,0.44192 1.01338,1.24196 0.11429,0.27429 0.16763,0.62479 0.0533,0.35049 0.0609,0.59431 0.008,0.2362 0.008,0.69336 v 4.76212 h -1.14291 v -4.68592 q 0,-0.72385 -0.0305,-1.04386 -0.0305,-0.32763 -0.16763,-0.62479 -0.21334,-0.4724 -0.66289,-0.73146 -0.44192,-0.25906 -1.00576,-0.25906 -0.56383,0 -1.01337,0.25906 -0.44193,0.25906 -0.65527,0.73146 -0.13715,0.29716 -0.16763,0.62479 -0.0305,0.32001 -0.0305,1.04386 v 4.68592 h -1.14291 v -8.24418 h 1.14291 v 0.86861 q 0.89908,-0.99052 2.09533,-0.99052 z" />
      <path
         id="path1128"
         style=""
         d="m 436.93667,305.5598 q -0.88384,0 -1.56197,-0.32764 -0.67812,-0.33525 -1.07433,-0.91432 -0.28192,-0.40383 -0.42669,-0.96005 -0.13715,-0.55621 -0.16,-0.93718 -0.0152,-0.38859 -0.0152,-1.10481 0,-0.58669 0.008,-0.88385 0.0152,-0.30477 0.0762,-0.73146 0.0686,-0.4343 0.1981,-0.7848 0.32002,-0.83813 1.06672,-1.34101 0.75432,-0.50288 1.73722,-0.50288 0.96766,0 1.72198,0.5105 0.76194,0.50288 1.08957,1.34101 0.19048,0.48002 0.22858,0.96005 0.0457,0.4724 0.0457,1.42482 v 0.25144 h -5.0288 q 0,0.49526 0.0152,0.80004 0.0152,0.29715 0.11429,0.72384 0.10667,0.41906 0.30478,0.70098 0.52574,0.75432 1.66102,0.75432 1.01338,0 2.17915,-0.55622 l 0.4343,0.94481 q -1.34863,0.63241 -2.61345,0.63241 z m 1.79056,-4.94498 q -0.0152,-0.86861 -0.22096,-1.37911 -0.20573,-0.52574 -0.67051,-0.83052 -0.45716,-0.31239 -1.05147,-0.31239 -0.61717,0 -1.06672,0.31239 -0.44954,0.30478 -0.64764,0.8229 -0.20573,0.53336 -0.22097,1.38673 z" />
      <path
         id="path1130"
         style=""
         d="m 444.75416,297.0718 q 1.27244,0 2.17152,0.99814 v -4.03065 h 1.14291 v 11.3986 h -1.14291 v -0.87623 q -0.89908,0.99814 -2.17152,0.99814 -0.77718,0 -1.40959,-0.33526 -0.63241,-0.33525 -0.99052,-0.88384 -0.38097,-0.5867 -0.49526,-1.2572 -0.11429,-0.67813 -0.11429,-1.7677 0,-1.08957 0.11429,-1.76008 0.11429,-0.67812 0.49526,-1.26482 0.35811,-0.54859 0.99052,-0.88384 0.63241,-0.33526 1.40959,-0.33526 z m 1.71436,1.7677 q -0.54098,-0.7467 -1.56197,-0.7467 -1.021,0 -1.56198,0.7467 -0.28953,0.39621 -0.37335,0.96004 -0.0838,0.56384 -0.0838,1.51626 0,0.95242 0.0838,1.51626 0.0838,0.56383 0.37335,0.96004 0.54098,0.7467 1.56198,0.7467 1.02099,0 1.56197,-0.7467 0.28954,-0.39621 0.37335,-0.96004 0.0838,-0.56384 0.0838,-1.51626 0,-0.95242 -0.0838,-1.51626 -0.0838,-0.56383 -0.37335,-0.96004 z" />
      <path
         id="path1132"
         style=""
         d="m 459.51291,298.69473 q -0.52573,-0.60193 -1.51625,-0.60193 -0.99052,0 -1.51626,0.60193 -0.20572,0.2362 -0.33525,0.53336 -0.12191,0.28953 -0.17525,0.68574 -0.0457,0.38859 -0.0609,0.65527 -0.008,0.25906 -0.008,0.7467 0,0.48764 0.008,0.75432 0.0152,0.25906 0.0609,0.65527 0.0533,0.38858 0.17525,0.68574 0.12953,0.28954 0.33525,0.52574 0.52574,0.60193 1.51626,0.60193 0.99052,0 1.51625,-0.60193 0.20573,-0.2362 0.32764,-0.52574 0.12953,-0.29716 0.17524,-0.68574 0.0533,-0.39621 0.061,-0.65527 0.0152,-0.26668 0.0152,-0.75432 0,-0.48764 -0.0152,-0.7467 -0.008,-0.26668 -0.061,-0.65527 -0.0457,-0.39621 -0.17524,-0.68574 -0.12191,-0.29716 -0.32764,-0.53336 z m -2.88774,-1.35625 q 0.61717,-0.26668 1.37149,-0.26668 0.75432,0 1.37149,0.26668 0.61717,0.25906 1.01337,0.69336 0.30478,0.33526 0.48765,0.73147 0.19048,0.38858 0.25905,0.87623 0.0762,0.48002 0.0914,0.80003 0.0152,0.3124 0.0152,0.87623 0,0.56383 -0.0152,0.88385 -0.0152,0.31239 -0.0914,0.80003 -0.0686,0.48002 -0.25905,0.87623 -0.18287,0.38859 -0.48765,0.72384 -0.3962,0.43431 -1.01337,0.70099 -0.61717,0.25906 -1.37149,0.25906 -0.75432,0 -1.37149,-0.25906 -0.61717,-0.26668 -1.01338,-0.70099 -0.30478,-0.33525 -0.49526,-0.72384 -0.18287,-0.39621 -0.25906,-0.87623 -0.0686,-0.48764 -0.0838,-0.80003 -0.0152,-0.32002 -0.0152,-0.88385 0,-0.56383 0.0152,-0.87623 0.0152,-0.32001 0.0838,-0.80003 0.0762,-0.48765 0.25906,-0.87623 0.19048,-0.39621 0.49526,-0.73147 0.39621,-0.4343 1.01338,-0.69336 z" />
      <path
         id="path1134"
         style=""
         d="m 466.64465,297.0718 q 0.84575,0 1.5315,0.44955 0.69336,0.44192 1.01338,1.24196 0.11429,0.27429 0.16762,0.62479 0.0533,0.35049 0.061,0.59431 0.008,0.2362 0.008,0.69336 v 4.76212 h -1.14291 v -4.68592 q 0,-0.72385 -0.0305,-1.04386 -0.0305,-0.32763 -0.16762,-0.62479 -0.21335,-0.4724 -0.66289,-0.73146 -0.44192,-0.25906 -1.00576,-0.25906 -0.56383,0 -1.01338,0.25906 -0.44192,0.25906 -0.65526,0.73146 -0.13715,0.29716 -0.16763,0.62479 -0.0305,0.32001 -0.0305,1.04386 v 4.68592 h -1.14291 v -8.24418 h 1.14291 v 0.86861 q 0.89909,-0.99052 2.09533,-0.99052 z" />
      <path
         id="path1136"
         style=""
         d="m 471.86393,304.11973 q 0.2362,-0.2362 0.60955,-0.2362 0.37335,0 0.60193,0.2362 0.2362,0.22858 0.2362,0.60193 0,0.37335 -0.2362,0.60956 -0.22858,0.22858 -0.60193,0.22858 -0.37335,0 -0.60955,-0.22858 -0.22859,-0.23621 -0.22859,-0.60956 0,-0.37335 0.22859,-0.60193 z" />
    </g>
    <g
       style="font-style:normal;font-weight:normal;font-size:40px;line-height:1.25;font-family:sans-serif;letter-spacing:0px;word-spacing:0px;fill:#000000;fill-opacity:1;stroke:none"
       id="text919" />
  </g>
</svg>
