<?xml version="1.0" encoding="UTF-8" standalone="no"?>
<svg
   xmlns:dc="http://purl.org/dc/elements/1.1/"
   xmlns:cc="http://creativecommons.org/ns#"
   xmlns:rdf="http://www.w3.org/1999/02/22-rdf-syntax-ns#"
   xmlns:svg="http://www.w3.org/2000/svg"
   xmlns="http://www.w3.org/2000/svg"
   xmlns:sodipodi="http://sodipodi.sourceforge.net/DTD/sodipodi-0.dtd"
   xmlns:inkscape="http://www.inkscape.org/namespaces/inkscape"
   inkscape:version="1.0alpha2 (1:0.92.0+devel+201907090511+74dcc2b)"
   sodipodi:docname="start.svg"
   version="1.1"
   id="svg2"
   width="709.76001"
   height="684.79999"
   viewBox="0 0 709.76001 684.79999">
  <sodipodi:namedview
     inkscape:current-layer="svg2"
     inkscape:window-maximized="1"
     inkscape:window-y="30"
     inkscape:window-x="0"
     inkscape:cy="405.30411"
     inkscape:cx="355.04122"
     inkscape:zoom="1.994743"
     showgrid="false"
     id="namedview22"
     inkscape:window-height="1017"
     inkscape:window-width="1920"
     inkscape:pageshadow="2"
     inkscape:pageopacity="0"
     guidetolerance="10"
     gridtolerance="10"
     objecttolerance="10"
     borderopacity="1"
     inkscape:document-rotation="0"
     bordercolor="#666666"
     pagecolor="#ffffff" />
  <metadata
     id="metadata8">
    <rdf:RDF>
      <cc:Work
         rdf:about="">
        <dc:format>image/svg+xml</dc:format>
        <dc:type
           rdf:resource="http://purl.org/dc/dcmitype/StillImage" />
        <dc:title></dc:title>
      </cc:Work>
    </rdf:RDF>
  </metadata>
  <defs
     id="defs6" />
  <g
     style="font-style:normal;font-weight:normal;font-size:26.6667px;line-height:1.25;font-family:sans-serif;text-align:center;letter-spacing:0px;word-spacing:0px;text-anchor:middle;fill:#000000;fill-opacity:1;stroke:none"
     id="flowRoot847"
     transform="translate(0,40)"
     aria-label="where is the art museum?">
    <path
       id="path931"
       style="font-style:normal;font-variant:normal;font-weight:normal;font-stretch:normal;font-size:26.6667px;font-family:Gidole;-inkscape-font-specification:Gidole"
       d="m 212.90249,265.44984 -3.3724,-14.08856 h 1.99219 l 2.42188,10.85939 2.89062,-10.85939 h 1.90105 l 2.89063,10.85939 2.42188,-10.85939 h 1.99219 l -3.3724,14.08856 h -1.90105 l -2.98177,-11.14585 -2.98178,11.14585 z" />
    <path
       id="path933"
       style="font-style:normal;font-variant:normal;font-weight:normal;font-stretch:normal;font-size:26.6667px;font-family:Gidole;-inkscape-font-specification:Gidole"
       d="m 234.56918,251.15294 q 1.14584,0 2.09636,0.46875 0.95052,0.46875 1.57552,1.25 0.39063,0.48178 0.625,1.01563 0.23438,0.53386 0.32552,1.1849 0.0911,0.65104 0.10417,1.06771 0.026,0.41667 0.026,1.17187 v 8.13804 h -1.95312 v -8.00783 q 0,-0.98958 -0.026,-1.44531 -0.026,-0.46875 -0.19531,-1.05469 -0.16927,-0.58594 -0.53385,-1.00261 -0.88542,-1.04166 -2.4349,-1.04166 -1.54948,0 -2.4349,1.04166 -0.36459,0.41667 -0.53386,1.00261 -0.16927,0.58594 -0.19531,1.05469 -0.026,0.45573 -0.026,1.44531 v 8.00783 h -1.95313 v -19.4792 h 1.95313 v 6.87501 q 1.53646,-1.69271 3.58073,-1.69271 z" />
    <path
       id="path935"
       style="font-style:normal;font-variant:normal;font-weight:normal;font-stretch:normal;font-size:26.6667px;font-family:Gidole;-inkscape-font-specification:Gidole"
       d="m 248.43639,265.65817 q -1.51042,0 -2.66928,-0.5599 -1.15885,-0.57291 -1.83594,-1.5625 -0.48177,-0.6901 -0.72916,-1.64063 -0.23438,-0.95052 -0.27344,-1.60156 -0.026,-0.66406 -0.026,-1.88802 0,-1.00261 0.013,-1.51042 0.026,-0.52084 0.13021,-1.25 0.11718,-0.74219 0.33854,-1.34115 0.54687,-1.4323 1.82292,-2.29167 1.28906,-0.85938 2.96875,-0.85938 1.65365,0 2.94271,0.8724 1.30209,0.85938 1.86198,2.29167 0.32553,0.82031 0.39063,1.64063 0.0781,0.80729 0.0781,2.4349 v 0.42968 h -8.59377 q 0,0.84636 0.026,1.36719 0.026,0.50782 0.19531,1.23698 0.18229,0.71615 0.52083,1.19792 0.89844,1.28907 2.83855,1.28907 1.73177,0 3.72396,-0.95053 l 0.74219,1.61459 q -2.30469,1.08073 -4.46615,1.08073 z m 3.0599,-8.45053 q -0.026,-1.48438 -0.37761,-2.35678 -0.35156,-0.89843 -1.14583,-1.41927 -0.78125,-0.53385 -1.79688,-0.53385 -1.05469,0 -1.82292,0.53385 -0.76823,0.52084 -1.10677,1.40625 -0.35156,0.91146 -0.3776,2.3698 z" />
    <path
       id="path937"
       style="font-style:normal;font-variant:normal;font-weight:normal;font-stretch:normal;font-size:26.6667px;font-family:Gidole;-inkscape-font-specification:Gidole"
       d="m 259.0614,252.84565 q 1.41928,-1.69271 3.32032,-1.69271 0.53385,0 1.19792,0.14323 l -0.28646,1.71875 q -0.82031,-0.11718 -1.17188,-0.11718 -0.98958,0 -1.71875,0.46875 -0.72917,0.46875 -1.05469,1.26302 -0.28646,0.6901 -0.28646,2.44792 v 8.37241 h -1.95312 v -14.08856 h 1.95312 z" />
    <path
       id="path939"
       style="font-style:normal;font-variant:normal;font-weight:normal;font-stretch:normal;font-size:26.6667px;font-family:Gidole;-inkscape-font-specification:Gidole"
       d="m 270.9885,265.65817 q -1.51042,0 -2.66927,-0.5599 -1.15886,-0.57291 -1.83594,-1.5625 -0.48177,-0.6901 -0.72917,-1.64063 -0.23438,-0.95052 -0.27344,-1.60156 -0.026,-0.66406 -0.026,-1.88802 0,-1.00261 0.013,-1.51042 0.026,-0.52084 0.13021,-1.25 0.11719,-0.74219 0.33854,-1.34115 0.54688,-1.4323 1.82292,-2.29167 1.28906,-0.85938 2.96875,-0.85938 1.65365,0 2.94272,0.8724 1.30208,0.85938 1.86198,2.29167 0.32552,0.82031 0.39062,1.64063 0.0781,0.80729 0.0781,2.4349 v 0.42968 h -8.59376 q 0,0.84636 0.026,1.36719 0.026,0.50782 0.19531,1.23698 0.18229,0.71615 0.52084,1.19792 0.89843,1.28907 2.83854,1.28907 1.73177,0 3.72396,-0.95053 l 0.74219,1.61459 q -2.30469,1.08073 -4.46615,1.08073 z m 3.0599,-8.45053 q -0.026,-1.48438 -0.3776,-2.35678 -0.35157,-0.89843 -1.14584,-1.41927 -0.78125,-0.53385 -1.79688,-0.53385 -1.05469,0 -1.82292,0.53385 -0.76823,0.52084 -1.10677,1.40625 -0.35156,0.91146 -0.3776,2.3698 z" />
    <path
       id="path941"
       style="font-style:normal;font-variant:normal;font-weight:normal;font-stretch:normal;font-size:26.6667px;font-family:Gidole;-inkscape-font-specification:Gidole"
       d="m 287.52498,247.11648 q 0.35156,-0.35156 0.88542,-0.35156 0.53385,0 0.87239,0.35156 0.35157,0.33854 0.35157,0.8724 0,0.53385 -0.35157,0.88541 -0.33854,0.33855 -0.87239,0.33855 -0.53386,0 -0.88542,-0.33855 -0.33854,-0.35156 -0.33854,-0.88541 0,-0.53386 0.33854,-0.8724 z m 1.86198,18.33336 h -1.95313 v -14.08856 h 1.95313 z" />
    <path
       id="path943"
       style="font-style:normal;font-variant:normal;font-weight:normal;font-stretch:normal;font-size:26.6667px;font-family:Gidole;-inkscape-font-specification:Gidole"
       d="m 297.75937,251.15294 q 1.9401,0 4.46615,1.06771 l -0.66407,1.65365 q -2.29167,-0.97656 -3.80208,-0.97656 -0.75521,0 -1.32813,0.22135 -0.57292,0.22136 -0.85938,0.57292 -0.28646,0.35156 -0.42969,0.70312 -0.1302,0.35157 -0.1302,0.69011 0,0.65104 0.35156,1.14583 0.36458,0.48178 0.91146,0.72917 0.53385,0.2474 1.74479,0.42969 1.22396,0.16927 2.04428,0.46875 1.14583,0.42969 1.92708,1.39323 0.78125,0.96354 0.78125,2.27865 0,1.65365 -1.34114,2.89063 -1.34115,1.23698 -3.67188,1.23698 -2.18751,0 -4.92189,-1.21094 l 0.70313,-1.62761 q 2.42188,1.09376 4.21876,1.09376 0.80729,0 1.41927,-0.22136 0.625,-0.22135 0.96354,-0.58594 0.33854,-0.36458 0.50781,-0.75521 0.16928,-0.40364 0.16928,-0.82031 0,-0.74219 -0.44271,-1.28906 -0.44271,-0.54688 -1.09375,-0.79428 -0.44271,-0.16927 -1.78386,-0.3776 -1.34115,-0.20833 -2.13542,-0.57292 -1.00261,-0.46875 -1.65365,-1.35417 -0.65104,-0.88541 -0.65104,-2.05729 0,-1.60157 1.27604,-2.76042 1.28907,-1.17188 3.42449,-1.17188 z" />
    <path
       id="path945"
       style="font-style:normal;font-variant:normal;font-weight:normal;font-stretch:normal;font-size:26.6667px;font-family:Gidole;-inkscape-font-specification:Gidole"
       d="m 314.26981,261.50452 v -8.52866 h -1.95313 v -1.61458 h 1.95313 v -3.04688 h 1.95312 v 3.04688 h 2.60417 v 1.61458 h -2.60417 v 8.52866 q 0,1.40625 0.11719,1.69271 0.29948,0.71615 1.11979,0.71615 0.67709,0 1.48438,-0.41667 l 0.75521,1.61458 q -1.25,0.54688 -2.36979,0.54688 -1.10678,0 -1.87501,-0.53386 -0.75521,-0.53385 -1.04166,-1.52343 -0.14323,-0.4948 -0.14323,-2.09636 z" />
    <path
       id="path947"
       style="font-style:normal;font-variant:normal;font-weight:normal;font-stretch:normal;font-size:26.6667px;font-family:Gidole;-inkscape-font-specification:Gidole"
       d="m 327.90263,251.15294 q 1.14584,0 2.09636,0.46875 0.95052,0.46875 1.57552,1.25 0.39063,0.48178 0.62501,1.01563 0.23437,0.53386 0.32552,1.1849 0.0911,0.65104 0.10416,1.06771 0.026,0.41667 0.026,1.17187 v 8.13804 h -1.95313 v -8.00783 q 0,-0.98958 -0.026,-1.44531 -0.026,-0.46875 -0.19532,-1.05469 -0.16927,-0.58594 -0.53385,-1.00261 -0.88542,-1.04166 -2.4349,-1.04166 -1.54948,0 -2.4349,1.04166 -0.36458,0.41667 -0.53385,1.00261 -0.16928,0.58594 -0.19532,1.05469 -0.026,0.45573 -0.026,1.44531 v 8.00783 h -1.95313 v -19.4792 h 1.95313 v 6.87501 q 1.53646,-1.69271 3.58073,-1.69271 z" />
    <path
       id="path949"
       style="font-style:normal;font-variant:normal;font-weight:normal;font-stretch:normal;font-size:26.6667px;font-family:Gidole;-inkscape-font-specification:Gidole"
       d="m 341.76984,265.65817 q -1.51042,0 -2.66927,-0.5599 -1.15886,-0.57291 -1.83594,-1.5625 -0.48177,-0.6901 -0.72917,-1.64063 -0.23437,-0.95052 -0.27344,-1.60156 -0.026,-0.66406 -0.026,-1.88802 0,-1.00261 0.013,-1.51042 0.026,-0.52084 0.13021,-1.25 0.11719,-0.74219 0.33854,-1.34115 0.54688,-1.4323 1.82292,-2.29167 1.28907,-0.85938 2.96876,-0.85938 1.65364,0 2.94271,0.8724 1.30208,0.85938 1.86198,2.29167 0.32552,0.82031 0.39062,1.64063 0.0781,0.80729 0.0781,2.4349 v 0.42968 h -8.59376 q 0,0.84636 0.026,1.36719 0.026,0.50782 0.19531,1.23698 0.18229,0.71615 0.52084,1.19792 0.89844,1.28907 2.83854,1.28907 1.73178,0 3.72397,-0.95053 l 0.74218,1.61459 q -2.30469,1.08073 -4.46615,1.08073 z m 3.0599,-8.45053 q -0.026,-1.48438 -0.3776,-2.35678 -0.35157,-0.89843 -1.14584,-1.41927 -0.78125,-0.53385 -1.79687,-0.53385 -1.05469,0 -1.82292,0.53385 -0.76823,0.52084 -1.10678,1.40625 -0.35156,0.91146 -0.3776,2.3698 z" />
    <path
       id="path951"
       style="font-style:normal;font-variant:normal;font-weight:normal;font-stretch:normal;font-size:26.6667px;font-family:Gidole;-inkscape-font-specification:Gidole"
       d="m 359.32195,261.27014 q 0,1.10678 0.72916,1.87501 0.74219,0.76823 2.07032,0.76823 1.06771,0 1.90104,-0.52084 0.83334,-0.52083 1.17188,-1.57552 0.11719,-0.37761 0.16927,-0.8724 0.0651,-0.49479 0.0651,-0.92448 0.013,-0.44271 0.013,-1.43229 h -1.88803 q -1.875,0 -2.47396,0.18229 -0.84635,0.26042 -1.30208,0.9375 -0.45573,0.66406 -0.45573,1.5625 z m 8.07292,-4.29688 v 8.47658 h -1.95312 v -1.4974 q -1.48438,1.70573 -3.58074,1.70573 -1.97917,0 -3.24219,-1.25 -1.25,-1.26302 -1.25,-3.13803 0,-1.40625 0.79427,-2.48698 0.80729,-1.09375 2.26563,-1.53646 0.42969,-0.13021 0.95052,-0.19531 0.52083,-0.0651 0.91146,-0.0651 0.39063,-0.013 1.1849,-0.013 h 1.96615 q 0,-1.04167 -0.0391,-1.48437 -0.026,-0.45573 -0.16927,-0.83334 -0.32552,-0.8724 -1.09375,-1.3151 -0.76823,-0.44271 -1.75781,-0.44271 -1.44532,0 -3.42449,0.95052 l -0.74219,-1.61459 q 2.3698,-1.08073 4.16668,-1.08073 1.73177,0 3.03385,0.83334 1.30209,0.83333 1.77084,2.38281 0.20833,0.69011 0.20833,2.60417 z" />
    <path
       id="path953"
       style="font-style:normal;font-variant:normal;font-weight:normal;font-stretch:normal;font-size:26.6667px;font-family:Gidole;-inkscape-font-specification:Gidole"
       d="m 373.38446,252.84565 q 1.41927,-1.69271 3.32032,-1.69271 0.53385,0 1.19792,0.14323 l -0.28646,1.71875 q -0.82032,-0.11718 -1.17188,-0.11718 -0.98958,0 -1.71875,0.46875 -0.72917,0.46875 -1.05469,1.26302 -0.28646,0.6901 -0.28646,2.44792 v 8.37241 h -1.95313 v -14.08856 h 1.95313 z" />
    <path
       id="path955"
       style="font-style:normal;font-variant:normal;font-weight:normal;font-stretch:normal;font-size:26.6667px;font-family:Gidole;-inkscape-font-specification:Gidole"
       d="m 381.1449,261.50452 v -8.52866 h -1.95313 v -1.61458 h 1.95313 v -3.04688 h 1.95312 v 3.04688 h 2.60417 v 1.61458 h -2.60417 v 8.52866 q 0,1.40625 0.11719,1.69271 0.29948,0.71615 1.1198,0.71615 0.67708,0 1.48437,-0.41667 l 0.75521,1.61458 q -1.25,0.54688 -2.36979,0.54688 -1.10678,0 -1.87501,-0.53386 -0.7552,-0.53385 -1.04166,-1.52343 -0.14323,-0.4948 -0.14323,-2.09636 z" />
    <path
       id="path957"
       style="font-style:normal;font-variant:normal;font-weight:normal;font-stretch:normal;font-size:26.6667px;font-family:Gidole;-inkscape-font-specification:Gidole"
       d="m 406.71785,265.44984 h -1.95313 v -8.29429 q 0,-0.80729 -0.013,-1.17187 -0.013,-0.37761 -0.0912,-0.82032 -0.0781,-0.4427 -0.23437,-0.76823 -0.33855,-0.70312 -1.04167,-1.09375 -0.69011,-0.40364 -1.54948,-0.40364 -0.85938,0 -1.5625,0.40364 -0.69011,0.39063 -1.02865,1.09375 -0.15625,0.32553 -0.23438,0.76823 -0.0781,0.44271 -0.0911,0.82032 -0.013,0.36458 -0.013,1.17187 v 8.29429 h -1.95313 v -14.08856 h 1.95313 v 1.44531 q 1.43229,-1.65365 3.32031,-1.65365 1.28907,0 2.26563,0.59896 0.97656,0.58594 1.51042,1.62761 0.6901,-1.04167 1.73177,-1.62761 1.04167,-0.59896 2.30469,-0.59896 1.41928,0 2.52605,0.75521 1.11979,0.75521 1.61458,2.08334 0.16927,0.44271 0.2474,1.0026 0.0781,0.54688 0.0911,0.92448 0.013,0.37761 0.013,1.10678 v 8.42449 h -1.95313 v -8.29429 q 0,-0.80729 -0.013,-1.17187 -0.013,-0.37761 -0.0912,-0.82032 -0.0781,-0.4427 -0.23437,-0.76823 -0.33855,-0.70312 -1.04167,-1.09375 -0.69011,-0.40364 -1.54948,-0.40364 -0.85938,0 -1.5625,0.40364 -0.69011,0.39063 -1.02865,1.09375 -0.15625,0.32553 -0.23438,0.76823 -0.0781,0.44271 -0.0911,0.82032 -0.013,0.36458 -0.013,1.17187 z" />
    <path
       id="path959"
       style="font-style:normal;font-variant:normal;font-weight:normal;font-stretch:normal;font-size:26.6667px;font-family:Gidole;-inkscape-font-specification:Gidole"
       d="m 418.43661,251.36128 h 1.95313 v 8.13803 q 0,1.75781 0.19531,2.35677 0.32552,1.00261 1.13281,1.53646 0.8073,0.52084 1.86198,0.52084 1.05469,0 1.86199,-0.52084 0.80729,-0.53385 1.13281,-1.53646 0.19531,-0.59896 0.19531,-2.35677 v -8.13803 h 1.95313 v 8.26824 q 0,0.6901 -0.013,1.06771 -0.013,0.36458 -0.0911,0.91146 -0.0781,0.54687 -0.24739,0.98958 -0.54688,1.48438 -1.79688,2.27865 -1.23698,0.78125 -2.9948,0.78125 -1.75781,0 -3.00781,-0.78125 -1.23698,-0.79427 -1.78386,-2.27865 -0.16927,-0.44271 -0.24739,-0.98958 -0.0781,-0.54688 -0.0911,-0.91146 -0.013,-0.37761 -0.013,-1.06771 z" />
    <path
       id="path961"
       style="font-style:normal;font-variant:normal;font-weight:normal;font-stretch:normal;font-size:26.6667px;font-family:Gidole;-inkscape-font-specification:Gidole"
       d="m 436.92621,251.15294 q 1.94011,0 4.46615,1.06771 l -0.66406,1.65365 q -2.29167,-0.97656 -3.80209,-0.97656 -0.75521,0 -1.32812,0.22135 -0.57292,0.22136 -0.85938,0.57292 -0.28646,0.35156 -0.42969,0.70312 -0.13021,0.35157 -0.13021,0.69011 0,0.65104 0.35157,1.14583 0.36458,0.48178 0.91146,0.72917 0.53385,0.2474 1.74479,0.42969 1.22396,0.16927 2.04427,0.46875 1.14584,0.42969 1.92709,1.39323 0.78125,0.96354 0.78125,2.27865 0,1.65365 -1.34115,2.89063 -1.34114,1.23698 -3.67188,1.23698 -2.1875,0 -4.92188,-1.21094 l 0.70313,-1.62761 q 2.42188,1.09376 4.21875,1.09376 0.8073,0 1.41928,-0.22136 0.625,-0.22135 0.96354,-0.58594 0.33854,-0.36458 0.50781,-0.75521 0.16927,-0.40364 0.16927,-0.82031 0,-0.74219 -0.44271,-1.28906 -0.44271,-0.54688 -1.09375,-0.79428 -0.44271,-0.16927 -1.78385,-0.3776 -1.34115,-0.20833 -2.13542,-0.57292 -1.00261,-0.46875 -1.65365,-1.35417 -0.65104,-0.88541 -0.65104,-2.05729 0,-1.60157 1.27604,-2.76042 1.28906,-1.17188 3.42448,-1.17188 z" />
    <path
       id="path963"
       style="font-style:normal;font-variant:normal;font-weight:normal;font-stretch:normal;font-size:26.6667px;font-family:Gidole;-inkscape-font-specification:Gidole"
       d="m 450.41581,265.65817 q -1.51042,0 -2.66928,-0.5599 -1.15885,-0.57291 -1.83594,-1.5625 -0.48177,-0.6901 -0.72916,-1.64063 -0.23438,-0.95052 -0.27344,-1.60156 -0.026,-0.66406 -0.026,-1.88802 0,-1.00261 0.013,-1.51042 0.026,-0.52084 0.13021,-1.25 0.11718,-0.74219 0.33854,-1.34115 0.54687,-1.4323 1.82292,-2.29167 1.28906,-0.85938 2.96875,-0.85938 1.65365,0 2.94271,0.8724 1.30209,0.85938 1.86198,2.29167 0.32553,0.82031 0.39063,1.64063 0.0781,0.80729 0.0781,2.4349 v 0.42968 h -8.59376 q 0,0.84636 0.0261,1.36719 0.026,0.50782 0.19531,1.23698 0.18229,0.71615 0.52083,1.19792 0.89844,1.28907 2.83855,1.28907 1.73177,0 3.72396,-0.95053 l 0.74219,1.61459 q -2.30469,1.08073 -4.46615,1.08073 z m 3.0599,-8.45053 q -0.026,-1.48438 -0.37761,-2.35678 -0.35156,-0.89843 -1.14583,-1.41927 -0.78125,-0.53385 -1.79688,-0.53385 -1.05469,0 -1.82292,0.53385 -0.76823,0.52084 -1.10677,1.40625 -0.35156,0.91146 -0.37761,2.3698 z" />
    <path
       id="path965"
       style="font-style:normal;font-variant:normal;font-weight:normal;font-stretch:normal;font-size:26.6667px;font-family:Gidole;-inkscape-font-specification:Gidole"
       d="m 458.95748,251.36128 h 1.95313 v 8.13803 q 0,1.75781 0.19531,2.35677 0.32552,1.00261 1.13282,1.53646 0.80729,0.52084 1.86198,0.52084 1.05469,0 1.86198,-0.52084 0.80729,-0.53385 1.13281,-1.53646 0.19532,-0.59896 0.19532,-2.35677 v -8.13803 h 1.95312 v 8.26824 q 0,0.6901 -0.013,1.06771 -0.013,0.36458 -0.0911,0.91146 -0.0781,0.54687 -0.2474,0.98958 -0.54687,1.48438 -1.79688,2.27865 -1.23698,0.78125 -2.99479,0.78125 -1.75782,0 -3.00782,-0.78125 -1.23698,-0.79427 -1.78385,-2.27865 -0.16928,-0.44271 -0.2474,-0.98958 -0.0781,-0.54688 -0.0911,-0.91146 -0.013,-0.37761 -0.013,-1.06771 z" />
    <path
       id="path967"
       style="font-style:normal;font-variant:normal;font-weight:normal;font-stretch:normal;font-size:26.6667px;font-family:Gidole;-inkscape-font-specification:Gidole"
       d="m 483.07209,265.44984 h -1.95312 v -8.29429 q 0,-0.80729 -0.013,-1.17187 -0.013,-0.37761 -0.0912,-0.82032 -0.0781,-0.4427 -0.23438,-0.76823 -0.33854,-0.70312 -1.04166,-1.09375 -0.69011,-0.40364 -1.54948,-0.40364 -0.85938,0 -1.56251,0.40364 -0.6901,0.39063 -1.02864,1.09375 -0.15625,0.32553 -0.23438,0.76823 -0.0781,0.44271 -0.0911,0.82032 -0.013,0.36458 -0.013,1.17187 v 8.29429 h -1.95312 v -14.08856 h 1.95312 v 1.44531 q 1.4323,-1.65365 3.32032,-1.65365 1.28907,0 2.26563,0.59896 0.97656,0.58594 1.51042,1.62761 0.6901,-1.04167 1.73177,-1.62761 1.04167,-0.59896 2.30469,-0.59896 1.41927,0 2.52605,0.75521 1.11979,0.75521 1.61458,2.08334 0.16927,0.44271 0.2474,1.0026 0.0781,0.54688 0.0911,0.92448 0.013,0.37761 0.013,1.10678 v 8.42449 h -1.95312 v -8.29429 q 0,-0.80729 -0.013,-1.17187 -0.013,-0.37761 -0.0911,-0.82032 -0.0781,-0.4427 -0.23438,-0.76823 -0.33854,-0.70312 -1.04166,-1.09375 -0.69011,-0.40364 -1.54948,-0.40364 -0.85938,0 -1.56251,0.40364 -0.6901,0.39063 -1.02864,1.09375 -0.15625,0.32553 -0.23438,0.76823 -0.0781,0.44271 -0.0912,0.82032 -0.013,0.36458 -0.013,1.17187 z" />
    <path
       id="path969"
       style="font-style:normal;font-variant:normal;font-weight:normal;font-stretch:normal;font-size:26.6667px;font-family:Gidole;-inkscape-font-specification:Gidole"
       d="m 496.23617,263.19723 q 0.40364,-0.40365 1.04167,-0.40365 0.63802,0 1.02864,0.40365 0.40365,0.39062 0.40365,1.02865 0,0.63802 -0.40365,1.04166 -0.39062,0.39063 -1.02864,0.39063 -0.63803,0 -1.04167,-0.39063 -0.39063,-0.40364 -0.39063,-1.04166 0,-0.63803 0.39063,-1.02865 z m -2.1224,-13.28127 -1.27604,-1.30208 q 1.90104,-1.8099 4.44011,-1.8099 2.2526,0 3.69792,1.40625 1.44531,1.40625 1.44531,3.54167 0,1.5625 -0.96354,2.87761 -0.36459,0.49479 -1.4323,1.32813 -1.0677,0.83333 -1.32812,1.28906 -0.32552,0.5599 -0.44271,1.06771 -0.11719,0.50781 -0.11719,1.31511 l -0.013,0.78125 h -1.69271 q -0.013,-0.45573 -0.013,-0.76823 0,-1.1198 0.16927,-1.86198 0.16927,-0.75521 0.69011,-1.51042 0.24739,-0.36459 0.59895,-0.70313 0.36459,-0.35156 0.85938,-0.75521 0.49479,-0.41667 0.69011,-0.59896 1.04166,-0.96354 1.04166,-2.44792 0,-1.41927 -0.87239,-2.31771 -0.85938,-0.89844 -2.31771,-0.89844 -1.7448,0 -3.16407,1.36719 z" />
  </g>
  <g
     style="font-style:normal;font-weight:normal;font-size:40px;line-height:1.25;font-family:sans-serif;letter-spacing:0px;word-spacing:0px;fill:#000000;fill-opacity:1;stroke:none"
     id="flowRoot855" />
  <g
     style="font-style:normal;font-weight:normal;font-size:16px;line-height:1.25;font-family:sans-serif;text-align:center;letter-spacing:0px;word-spacing:0px;text-anchor:middle;fill:#000000;fill-opacity:1;stroke:none"
     id="flowRoot869"
     transform="translate(0,84)"
     aria-label="click anywhere to enter">
    <path
       id="path889"
       style="font-style:normal;font-variant:normal;font-weight:normal;font-stretch:normal;font-size:16px;font-family:Gidole;-inkscape-font-specification:Gidole"
       d="m 281.02246,247.26363 q 1.28906,0 2.55469,0.78907 l -0.55469,0.92187 q -1.02344,-0.66406 -2,-0.66406 -1.02344,0 -1.59375,0.82031 -0.20312,0.29688 -0.30469,0.78125 -0.10156,0.47656 -0.11718,0.79688 -0.0156,0.32031 -0.0156,0.85937 0,0.60938 0.008,0.9375 0.0156,0.32031 0.10938,0.77344 0.0937,0.45312 0.28125,0.76562 0.27344,0.45313 0.71094,0.66407 0.4375,0.21093 0.92187,0.21093 0.53125,0 1.10938,-0.20312 0.58593,-0.20313 1.02343,-0.5 l 0.59375,0.89062 q -0.55468,0.375 -1.28906,0.61719 -0.73437,0.24219 -1.4375,0.24219 -0.89062,0 -1.59375,-0.39063 -0.70312,-0.39843 -1.07031,-1.03906 -0.25,-0.4375 -0.375,-0.96094 -0.125,-0.53125 -0.14844,-0.91406 -0.0156,-0.39062 -0.0156,-1.09375 0,-0.60937 0.0156,-0.97656 0.0234,-0.375 0.14844,-0.92969 0.125,-0.55469 0.375,-0.96875 0.38281,-0.64062 1.07031,-1.03125 0.69531,-0.39844 1.59375,-0.39844 z" />
    <path
       id="path891"
       style="font-style:normal;font-variant:normal;font-weight:normal;font-stretch:normal;font-size:16px;font-family:Gidole;-inkscape-font-specification:Gidole"
       d="m 287.51465,254.87301 0.1875,1 q -0.3125,0.0937 -0.71875,0.0937 -0.64063,0 -1.0625,-0.51563 -0.29688,-0.35937 -0.29688,-1.10156 v -10.19531 h 1.17188 v 10.19531 q 0,0.35156 0.0859,0.46094 0.0859,0.10937 0.27343,0.10937 0.17188,0 0.35938,-0.0469 z" />
    <path
       id="path893"
       style="font-style:normal;font-variant:normal;font-weight:normal;font-stretch:normal;font-size:16px;font-family:Gidole;-inkscape-font-specification:Gidole"
       d="m 289.53027,244.84176 q 0.21094,-0.21094 0.53125,-0.21094 0.32032,0 0.52344,0.21094 0.21094,0.20312 0.21094,0.52344 0,0.32031 -0.21094,0.53125 -0.20312,0.20312 -0.52344,0.20312 -0.32031,0 -0.53125,-0.20312 -0.20312,-0.21094 -0.20312,-0.53125 0,-0.32032 0.20312,-0.52344 z m 1.11719,11 h -1.17187 v -8.45313 h 1.17187 z" />
    <path
       id="path895"
       style="font-style:normal;font-variant:normal;font-weight:normal;font-stretch:normal;font-size:16px;font-family:Gidole;-inkscape-font-specification:Gidole"
       d="m 296.11621,247.26363 q 1.28906,0 2.55469,0.78907 l -0.55469,0.92187 q -1.02344,-0.66406 -2,-0.66406 -1.02344,0 -1.59375,0.82031 -0.20312,0.29688 -0.30469,0.78125 -0.10156,0.47656 -0.11718,0.79688 -0.0156,0.32031 -0.0156,0.85937 0,0.60938 0.008,0.9375 0.0156,0.32031 0.10938,0.77344 0.0937,0.45312 0.28125,0.76562 0.27344,0.45313 0.71094,0.66407 0.4375,0.21093 0.92187,0.21093 0.53125,0 1.10938,-0.20312 0.58593,-0.20313 1.02343,-0.5 l 0.59375,0.89062 q -0.55468,0.375 -1.28906,0.61719 -0.73437,0.24219 -1.4375,0.24219 -0.89062,0 -1.59375,-0.39063 -0.70312,-0.39843 -1.07031,-1.03906 -0.25,-0.4375 -0.375,-0.96094 -0.125,-0.53125 -0.14844,-0.91406 -0.0156,-0.39062 -0.0156,-1.09375 0,-0.60937 0.0156,-0.97656 0.0234,-0.375 0.14844,-0.92969 0.125,-0.55469 0.375,-0.96875 0.38281,-0.64062 1.07031,-1.03125 0.69531,-0.39844 1.59375,-0.39844 z" />
    <path
       id="path897"
       style="font-style:normal;font-variant:normal;font-weight:normal;font-stretch:normal;font-size:16px;font-family:Gidole;-inkscape-font-specification:Gidole"
       d="m 300.71777,244.15426 h 1.17188 v 7.86719 l 3.42969,-4.63282 h 1.375 l -3.13282,4.17969 3.21094,4.27344 h -1.40625 l -2.53906,-3.46094 -0.9375,1.21875 v 2.24219 h -1.17188 z" />
    <path
       id="path899"
       style="font-style:normal;font-variant:normal;font-weight:normal;font-stretch:normal;font-size:16px;font-family:Gidole;-inkscape-font-specification:Gidole"
       d="m 313.82715,253.33395 q 0,0.66406 0.4375,1.125 0.44531,0.46093 1.24219,0.46093 0.64062,0 1.14062,-0.3125 0.5,-0.3125 0.70313,-0.94531 0.0703,-0.22656 0.10156,-0.52344 0.0391,-0.29687 0.0391,-0.55468 0.008,-0.26563 0.008,-0.85938 h -1.13281 q -1.125,0 -1.48437,0.10938 -0.50782,0.15625 -0.78125,0.5625 -0.27344,0.39843 -0.27344,0.9375 z m 4.84375,-2.57813 v 5.08594 h -1.17188 v -0.89844 q -0.89062,1.02344 -2.14843,1.02344 -1.1875,0 -1.94532,-0.75 -0.75,-0.75781 -0.75,-1.88281 0,-0.84375 0.47657,-1.49219 0.48437,-0.65625 1.35937,-0.92188 0.25781,-0.0781 0.57031,-0.11718 0.3125,-0.0391 0.54688,-0.0391 0.23437,-0.008 0.71094,-0.008 h 1.17968 q 0,-0.625 -0.0234,-0.89062 -0.0156,-0.27344 -0.10157,-0.5 -0.19531,-0.52344 -0.65625,-0.78907 -0.46093,-0.26562 -1.05468,-0.26562 -0.86719,0 -2.05469,0.57031 l -0.44531,-0.96875 q 1.42187,-0.64844 2.5,-0.64844 1.03906,0 1.82031,0.5 0.78125,0.5 1.0625,1.42969 0.125,0.41406 0.125,1.5625 z" />
    <path
       id="path901"
       style="font-style:normal;font-variant:normal;font-weight:normal;font-stretch:normal;font-size:16px;font-family:Gidole;-inkscape-font-specification:Gidole"
       d="m 324.41309,247.26363 q 0.86718,0 1.57031,0.46094 0.71094,0.45313 1.03906,1.27344 0.11719,0.28125 0.17188,0.64062 0.0547,0.35938 0.0625,0.60938 0.008,0.24219 0.008,0.71094 v 4.88281 h -1.17188 v -4.80469 q 0,-0.74219 -0.0312,-1.07031 -0.0312,-0.33594 -0.17187,-0.64063 -0.21875,-0.48437 -0.67969,-0.75 -0.45312,-0.26562 -1.03125,-0.26562 -0.57812,0 -1.03906,0.26562 -0.45313,0.26563 -0.67188,0.75 -0.14062,0.30469 -0.17187,0.64063 -0.0312,0.32812 -0.0312,1.07031 v 4.80469 h -1.17188 v -8.45313 h 1.17188 v 0.89063 q 0.92187,-1.01563 2.14844,-1.01563 z" />
    <path
       id="path903"
       style="font-style:normal;font-variant:normal;font-weight:normal;font-stretch:normal;font-size:16px;font-family:Gidole;-inkscape-font-specification:Gidole"
       d="m 329.01465,259.03707 0.25781,-1.01562 q 0.39844,0.10937 0.74219,0.10937 0.5625,0 0.9375,-0.29687 0.14844,-0.11719 0.25781,-0.29688 0.11719,-0.17187 0.17188,-0.32031 0.0547,-0.14063 0.14062,-0.40625 l 0.28906,-0.95313 -3.0625,-8.46875 h 1.21875 l 2.35938,6.91407 2,-6.91407 h 1.19531 l -2.94531,9.69532 q -0.15625,0.51562 -0.34375,0.85937 -0.17969,0.34375 -0.48438,0.60938 -0.70312,0.625 -1.73437,0.625 -0.4375,0 -1,-0.14063 z" />
    <path
       id="path905"
       style="font-style:normal;font-variant:normal;font-weight:normal;font-stretch:normal;font-size:16px;font-family:Gidole;-inkscape-font-specification:Gidole"
       d="m 338.56934,255.84176 -2.02344,-8.45313 h 1.19531 l 1.45313,6.51563 1.73437,-6.51563 h 1.14063 l 1.73437,6.51563 1.45313,-6.51563 h 1.19531 l -2.02344,8.45313 h -1.14062 l -1.78907,-6.6875 -1.78906,6.6875 z" />
    <path
       id="path907"
       style="font-style:normal;font-variant:normal;font-weight:normal;font-stretch:normal;font-size:16px;font-family:Gidole;-inkscape-font-specification:Gidole"
       d="m 351.56934,247.26363 q 0.6875,0 1.25781,0.28125 0.57031,0.28125 0.94531,0.75 0.23438,0.28907 0.375,0.60938 0.14063,0.32031 0.19531,0.71094 0.0547,0.39062 0.0625,0.64062 0.0156,0.25 0.0156,0.70313 v 4.88281 h -1.17188 v -4.80469 q 0,-0.59375 -0.0156,-0.86719 -0.0156,-0.28125 -0.11719,-0.63281 -0.10156,-0.35156 -0.32031,-0.60156 -0.53125,-0.625 -1.46094,-0.625 -0.92969,0 -1.46094,0.625 -0.21875,0.25 -0.32031,0.60156 -0.10156,0.35156 -0.11719,0.63281 -0.0156,0.27344 -0.0156,0.86719 v 4.80469 h -1.17188 v -11.6875 h 1.17188 v 4.125 q 0.92187,-1.01563 2.14844,-1.01563 z" />
    <path
       id="path909"
       style="font-style:normal;font-variant:normal;font-weight:normal;font-stretch:normal;font-size:16px;font-family:Gidole;-inkscape-font-specification:Gidole"
       d="m 359.88965,255.96676 q -0.90625,0 -1.60156,-0.33594 -0.69532,-0.34375 -1.10157,-0.9375 -0.28906,-0.41406 -0.4375,-0.98437 -0.14062,-0.57032 -0.16406,-0.96094 -0.0156,-0.39844 -0.0156,-1.13281 0,-0.60157 0.008,-0.90625 0.0156,-0.3125 0.0781,-0.75 0.0703,-0.44532 0.20313,-0.80469 0.32812,-0.85938 1.09375,-1.375 0.77344,-0.51563 1.78125,-0.51563 0.99219,0 1.76562,0.52344 0.78125,0.51563 1.11719,1.375 0.19531,0.49219 0.23438,0.98438 0.0469,0.48437 0.0469,1.46093 v 0.25782 h -5.15625 q 0,0.50781 0.0156,0.82031 0.0156,0.30469 0.11718,0.74219 0.10938,0.42968 0.3125,0.71875 0.53907,0.77343 1.70313,0.77343 1.03906,0 2.23437,-0.57031 l 0.44532,0.96875 q -1.38282,0.64844 -2.67969,0.64844 z m 1.83594,-5.07031 q -0.0156,-0.89063 -0.22657,-1.41407 -0.21093,-0.53906 -0.6875,-0.85156 -0.46875,-0.32031 -1.07812,-0.32031 -0.63281,0 -1.09375,0.32031 -0.46094,0.3125 -0.66406,0.84375 -0.21094,0.54688 -0.22657,1.42188 z" />
    <path
       id="path911"
       style="font-style:normal;font-variant:normal;font-weight:normal;font-stretch:normal;font-size:16px;font-family:Gidole;-inkscape-font-specification:Gidole"
       d="m 366.26465,248.27926 q 0.85156,-1.01563 1.99219,-1.01563 0.32031,0 0.71875,0.0859 l -0.17188,1.03125 q -0.49219,-0.0703 -0.70312,-0.0703 -0.59375,0 -1.03125,0.28125 -0.4375,0.28125 -0.63282,0.75781 -0.17187,0.41406 -0.17187,1.46875 v 5.02344 h -1.17188 v -8.45313 h 1.17188 z" />
    <path
       id="path913"
       style="font-style:normal;font-variant:normal;font-weight:normal;font-stretch:normal;font-size:16px;font-family:Gidole;-inkscape-font-specification:Gidole"
       d="m 373.4209,255.96676 q -0.90625,0 -1.60156,-0.33594 -0.69532,-0.34375 -1.10157,-0.9375 -0.28906,-0.41406 -0.4375,-0.98437 -0.14062,-0.57032 -0.16406,-0.96094 -0.0156,-0.39844 -0.0156,-1.13281 0,-0.60157 0.008,-0.90625 0.0156,-0.3125 0.0781,-0.75 0.0703,-0.44532 0.20313,-0.80469 0.32812,-0.85938 1.09375,-1.375 0.77344,-0.51563 1.78125,-0.51563 0.99219,0 1.76562,0.52344 0.78125,0.51563 1.11719,1.375 0.19531,0.49219 0.23438,0.98438 0.0469,0.48437 0.0469,1.46093 v 0.25782 h -5.15625 q 0,0.50781 0.0156,0.82031 0.0156,0.30469 0.11718,0.74219 0.10938,0.42968 0.3125,0.71875 0.53907,0.77343 1.70313,0.77343 1.03906,0 2.23437,-0.57031 l 0.44532,0.96875 q -1.38282,0.64844 -2.67969,0.64844 z m 1.83594,-5.07031 q -0.0156,-0.89063 -0.22657,-1.41407 -0.21093,-0.53906 -0.6875,-0.85156 -0.46875,-0.32031 -1.07812,-0.32031 -0.63281,0 -1.09375,0.32031 -0.46094,0.3125 -0.66406,0.84375 -0.21094,0.54688 -0.22657,1.42188 z" />
    <path
       id="path915"
       style="font-style:normal;font-variant:normal;font-weight:normal;font-stretch:normal;font-size:16px;font-family:Gidole;-inkscape-font-specification:Gidole"
       d="m 383.4834,253.47457 v -5.11719 h -1.17188 v -0.96875 h 1.17188 v -1.82812 h 1.17187 v 1.82812 h 1.5625 v 0.96875 h -1.5625 v 5.11719 q 0,0.84375 0.0703,1.01563 0.17968,0.42968 0.67187,0.42968 0.40625,0 0.89063,-0.25 l 0.45312,0.96875 q -0.75,0.32813 -1.42187,0.32813 -0.66407,0 -1.125,-0.32031 -0.45313,-0.32032 -0.625,-0.91407 -0.0859,-0.29687 -0.0859,-1.25781 z" />
    <path
       id="path917"
       style="font-style:normal;font-variant:normal;font-weight:normal;font-stretch:normal;font-size:16px;font-family:Gidole;-inkscape-font-specification:Gidole"
       d="m 392.72559,248.9277 q -0.53907,-0.61719 -1.55469,-0.61719 -1.01563,0 -1.55469,0.61719 -0.21094,0.24218 -0.34375,0.54687 -0.125,0.29688 -0.17969,0.70313 -0.0469,0.39843 -0.0625,0.67187 -0.008,0.26563 -0.008,0.76563 0,0.5 0.008,0.77343 0.0156,0.26563 0.0625,0.67188 0.0547,0.39844 0.17969,0.70312 0.13281,0.29688 0.34375,0.53907 0.53906,0.61718 1.55469,0.61718 1.01562,0 1.55469,-0.61718 0.21093,-0.24219 0.33593,-0.53907 0.13282,-0.30468 0.17969,-0.70312 0.0547,-0.40625 0.0625,-0.67188 0.0156,-0.27343 0.0156,-0.77343 0,-0.5 -0.0156,-0.76563 -0.008,-0.27344 -0.0625,-0.67187 -0.0469,-0.40625 -0.17969,-0.70313 -0.125,-0.30469 -0.33593,-0.54687 z m -2.96094,-1.39063 q 0.63281,-0.27344 1.40625,-0.27344 0.77344,0 1.40625,0.27344 0.63281,0.26563 1.03906,0.71094 0.3125,0.34375 0.5,0.75 0.19531,0.39844 0.26563,0.89844 0.0781,0.49218 0.0937,0.82031 0.0156,0.32031 0.0156,0.89844 0,0.57812 -0.0156,0.90625 -0.0156,0.32031 -0.0937,0.82031 -0.0703,0.49219 -0.26563,0.89844 -0.1875,0.39843 -0.5,0.74218 -0.40625,0.44532 -1.03906,0.71875 -0.63281,0.26563 -1.40625,0.26563 -0.77344,0 -1.40625,-0.26563 -0.63281,-0.27343 -1.03906,-0.71875 -0.3125,-0.34375 -0.50782,-0.74218 -0.1875,-0.40625 -0.26562,-0.89844 -0.0703,-0.5 -0.0859,-0.82031 -0.0156,-0.32813 -0.0156,-0.90625 0,-0.57813 0.0156,-0.89844 0.0156,-0.32813 0.0859,-0.82031 0.0781,-0.5 0.26562,-0.89844 0.19532,-0.40625 0.50782,-0.75 0.40625,-0.44531 1.03906,-0.71094 z" />
    <path
       id="path919"
       style="font-style:normal;font-variant:normal;font-weight:normal;font-stretch:normal;font-size:16px;font-family:Gidole;-inkscape-font-specification:Gidole"
       d="m 404.38965,255.96676 q -0.90625,0 -1.60156,-0.33594 -0.69532,-0.34375 -1.10157,-0.9375 -0.28906,-0.41406 -0.4375,-0.98437 -0.14062,-0.57032 -0.16406,-0.96094 -0.0156,-0.39844 -0.0156,-1.13281 0,-0.60157 0.008,-0.90625 0.0156,-0.3125 0.0781,-0.75 0.0703,-0.44532 0.20313,-0.80469 0.32812,-0.85938 1.09375,-1.375 0.77344,-0.51563 1.78125,-0.51563 0.99219,0 1.76562,0.52344 0.78125,0.51563 1.11719,1.375 0.19531,0.49219 0.23438,0.98438 0.0469,0.48437 0.0469,1.46093 v 0.25782 h -5.15625 q 0,0.50781 0.0156,0.82031 0.0156,0.30469 0.11718,0.74219 0.10938,0.42968 0.3125,0.71875 0.53907,0.77343 1.70313,0.77343 1.03906,0 2.23437,-0.57031 l 0.44532,0.96875 q -1.38282,0.64844 -2.67969,0.64844 z m 1.83594,-5.07031 q -0.0156,-0.89063 -0.22657,-1.41407 -0.21093,-0.53906 -0.6875,-0.85156 -0.46875,-0.32031 -1.07812,-0.32031 -0.63281,0 -1.09375,0.32031 -0.46094,0.3125 -0.66406,0.84375 -0.21094,0.54688 -0.22657,1.42188 z" />
    <path
       id="path921"
       style="font-style:normal;font-variant:normal;font-weight:normal;font-stretch:normal;font-size:16px;font-family:Gidole;-inkscape-font-specification:Gidole"
       d="m 412.91309,247.26363 q 0.86718,0 1.57031,0.46094 0.71094,0.45313 1.03906,1.27344 0.11719,0.28125 0.17188,0.64062 0.0547,0.35938 0.0625,0.60938 0.008,0.24219 0.008,0.71094 v 4.88281 h -1.17188 v -4.80469 q 0,-0.74219 -0.0312,-1.07031 -0.0312,-0.33594 -0.17187,-0.64063 -0.21875,-0.48437 -0.67969,-0.75 -0.45312,-0.26562 -1.03125,-0.26562 -0.57812,0 -1.03906,0.26562 -0.45313,0.26563 -0.67188,0.75 -0.14062,0.30469 -0.17187,0.64063 -0.0312,0.32812 -0.0312,1.07031 v 4.80469 h -1.17188 v -8.45313 h 1.17188 v 0.89063 q 0.92187,-1.01563 2.14844,-1.01563 z" />
    <path
       id="path923"
       style="font-style:normal;font-variant:normal;font-weight:normal;font-stretch:normal;font-size:16px;font-family:Gidole;-inkscape-font-specification:Gidole"
       d="m 418.4209,253.47457 v -5.11719 h -1.17188 v -0.96875 h 1.17188 v -1.82812 h 1.17187 v 1.82812 h 1.5625 v 0.96875 h -1.5625 v 5.11719 q 0,0.84375 0.0703,1.01563 0.17968,0.42968 0.67187,0.42968 0.40625,0 0.89063,-0.25 l 0.45312,0.96875 q -0.75,0.32813 -1.42187,0.32813 -0.66407,0 -1.125,-0.32031 -0.45313,-0.32032 -0.625,-0.91407 -0.0859,-0.29687 -0.0859,-1.25781 z" />
    <path
       id="path925"
       style="font-style:normal;font-variant:normal;font-weight:normal;font-stretch:normal;font-size:16px;font-family:Gidole;-inkscape-font-specification:Gidole"
       d="m 426.1084,255.96676 q -0.90625,0 -1.60156,-0.33594 -0.69532,-0.34375 -1.10157,-0.9375 -0.28906,-0.41406 -0.4375,-0.98437 -0.14062,-0.57032 -0.16406,-0.96094 -0.0156,-0.39844 -0.0156,-1.13281 0,-0.60157 0.008,-0.90625 0.0156,-0.3125 0.0781,-0.75 0.0703,-0.44532 0.20313,-0.80469 0.32812,-0.85938 1.09375,-1.375 0.77344,-0.51563 1.78125,-0.51563 0.99219,0 1.76562,0.52344 0.78125,0.51563 1.11719,1.375 0.19531,0.49219 0.23438,0.98438 0.0469,0.48437 0.0469,1.46093 v 0.25782 h -5.15625 q 0,0.50781 0.0156,0.82031 0.0156,0.30469 0.11718,0.74219 0.10938,0.42968 0.3125,0.71875 0.53907,0.77343 1.70313,0.77343 1.03906,0 2.23437,-0.57031 l 0.44532,0.96875 q -1.38282,0.64844 -2.67969,0.64844 z m 1.83594,-5.07031 q -0.0156,-0.89063 -0.22657,-1.41407 -0.21093,-0.53906 -0.6875,-0.85156 -0.46875,-0.32031 -1.07812,-0.32031 -0.63281,0 -1.09375,0.32031 -0.46094,0.3125 -0.66406,0.84375 -0.21094,0.54688 -0.22657,1.42188 z" />
    <path
       id="path927"
       style="font-style:normal;font-variant:normal;font-weight:normal;font-stretch:normal;font-size:16px;font-family:Gidole;-inkscape-font-specification:Gidole"
       d="m 432.4834,248.27926 q 0.85156,-1.01563 1.99219,-1.01563 0.32031,0 0.71875,0.0859 l -0.17188,1.03125 q -0.49219,-0.0703 -0.70312,-0.0703 -0.59375,0 -1.03125,0.28125 -0.4375,0.28125 -0.63282,0.75781 -0.17187,0.41406 -0.17187,1.46875 v 5.02344 h -1.17188 v -8.45313 h 1.17188 z" />
  </g>
</svg>
