<?xml version="1.0" encoding="UTF-8" standalone="no"?>
<!-- Created with Inkscape (http://www.inkscape.org/) -->

<svg
   version="1.1"
   id="svg2"
   width="414.85577"
   height="342.85757"
   viewBox="0 0 414.85578 342.85759"
   sodipodi:docname="shroom1.svg"
   inkscape:version="1.1.2 (0a00cf5339, 2022-02-04)"
   xmlns:inkscape="http://www.inkscape.org/namespaces/inkscape"
   xmlns:sodipodi="http://sodipodi.sourceforge.net/DTD/sodipodi-0.dtd"
   xmlns="http://www.w3.org/2000/svg"
   xmlns:svg="http://www.w3.org/2000/svg">
  <defs
     id="defs6" />
  <sodipodi:namedview
     id="namedview4"
     pagecolor="#ffffff"
     bordercolor="#666666"
     borderopacity="1.0"
     inkscape:pageshadow="2"
     inkscape:pageopacity="0.0"
     inkscape:pagecheckerboard="0"
     showgrid="false"
     inkscape:zoom="1.2361309"
     inkscape:cx="184.85097"
     inkscape:cy="136.31242"
     inkscape:window-width="1920"
     inkscape:window-height="1044"
     inkscape:window-x="0"
     inkscape:window-y="0"
     inkscape:window-maximized="1"
     inkscape:current-layer="g8" />
  <g
     inkscape:groupmode="layer"
     inkscape:label="Image"
     id="g8"
     transform="translate(-168.97392,-412.98954)">
    <path
       style="fill:#ffffdd;stroke-width:0.32;fill-opacity:1"
       d="m 230.65717,755.18708 c -1.81582,-0.95898 -2.69267,-2.39485 -4.61392,-7.5554 -0.97295,-2.61341 -2.99757,-7.91961 -4.49916,-11.79161 -6.34044,-16.34951 -7.1245,-18.42074 -8.35827,-22.08001 -0.71209,-2.112 -1.90049,-5.856 -2.64088,-8.32 -0.74039,-2.464 -2.02729,-6.208 -2.85978,-8.32 -0.83248,-2.112 -1.60407,-4.09821 -1.71464,-4.41379 -0.28605,-0.81648 -0.72999,-0.50506 -5.07586,3.56051 -6.1785,5.78003 -13.98819,11.94468 -16.73466,13.20967 -4.08996,1.88381 -8.48,-0.80464 -8.48,-5.19312 0,-1.77472 0.71767,-3.06151 2.74584,-4.92327 l 1.743,-1.6 -0.64442,-5.59958 c -0.77357,-6.72176 -0.81536,-10.71988 -0.14591,-13.96087 1.12119,-5.42806 4.05248,-11.9904 7.85231,-17.57917 5.79798,-8.52765 12.22278,-12.33833 20.78525,-12.32816 4.92891,0.006 8.28938,1.01888 12.14392,3.6609 2.47974,1.69965 6.73607,6.01984 7.58881,7.70265 0.94067,1.85632 1.26814,4.60548 0.76854,6.45191 -0.39483,1.4592 -2.17007,4.22531 -4.35565,6.78685 l -1.44582,1.69449 1.72313,2.14551 c 2.7249,3.3928 5.90739,8.11472 9.3181,13.82547 1.7344,2.904 3.68127,6.072 4.32636,7.04 7.4796,11.22352 19.9195,33.6865 20.77874,37.52058 0.94792,4.22986 -2.90822,8.0672 -6.99963,6.96551 -2.29786,-0.61876 -3.42911,-1.96624 -5.77459,-6.8784 -3.1289,-6.55287 -10.75917,-19.89825 -16.67828,-29.17041 -1.44561,-2.26451 -3.70205,-5.91728 -5.01433,-8.11728 -3.34067,-5.60057 -9.44608,-14.70835 -9.86401,-14.71472 -0.19175,-0.003 -0.49689,0.32013 -0.6781,0.71782 -0.27222,0.59744 -0.20629,0.816 0.37935,1.25777 1.30373,0.98342 5.08391,9.0703 6.86611,14.6886 3.2792,10.33754 4.85013,14.78785 8.37086,23.71405 3.08122,7.81188 5.85063,15.14026 8.8038,23.29649 1.18143,3.26294 0.92293,5.25043 -0.95082,7.3104 -1.58532,1.74288 -4.44327,2.17021 -6.66539,0.99661 z m -30.76958,-74.62702 c 15.5281,-15.71578 15.9752,-16.19766 15.59566,-16.8095 -0.62828,-1.01284 -3.41381,-2.89732 -4.79778,-3.2458 -5.98844,-1.50793 -10.81464,1.60298 -15.65888,10.09348 -3.18714,5.58608 -4.51851,10.47036 -4.15947,15.25939 0.12793,1.70634 0.34244,3.10243 0.47669,3.10243 0.13425,0 3.97895,-3.78 8.54378,-8.4 z m 186.50488,66.68762 c -2.96342,-1.40195 -3.69834,-2.32787 -4.8936,-6.16541 -1.20864,-3.88051 -2.63133,-10.93961 -3.57168,-17.72221 -0.36602,-2.64 -1.01792,-7.104 -1.44867,-9.92 -2.19421,-14.34464 -4.79805,-36.36221 -6.24426,-52.8 -1.24016,-14.09575 -2.14233,-20.59255 -5.15469,-37.12 -0.70572,-3.872 -1.92403,-11.07201 -2.70732,-16.00001 -0.7833,-4.928 -2.07933,-12.272 -2.88013,-16.32 -2.81546,-14.23245 -4.46346,-26.7337 -5.75818,-43.68 -0.3646,-4.77213 -0.57622,-14.58365 -0.77651,-36 -0.2736,-29.25751 -0.52614,-36.57914 -1.46243,-42.40001 -0.5497,-3.41721 -0.42064,-4.70566 0.65744,-6.56342 1.48512,-2.5592 4.95149,-3.48596 7.55837,-2.0208 4.4422,2.49667 5.02777,8.22054 5.24851,51.30423 0.14531,28.3623 0.46265,35.20461 2.42656,52.32 0.91008,7.93149 2.32115,16.80583 4.14685,26.08 0.86617,4.4 2.08697,11.312 2.71292,15.36 1.1729,7.58544 3.17888,19.10516 3.62202,20.80001 0.24787,0.94806 0.25971,0.93696 0.95165,-0.892 0.38534,-1.0186 2.15872,-5.1226 3.9408,-9.12001 7.46809,-16.75174 13.12841,-30.6391 14.55235,-35.70345 0.44822,-1.59431 1.01936,-3.38781 1.26912,-3.98564 0.24979,-0.59779 0.37594,-1.21344 0.28038,-1.36806 -0.0956,-0.15466 -1.21062,-0.87856 -2.47788,-1.60867 -3.10944,-1.79152 -6.71709,-4.50727 -7.70087,-5.79706 -1.24733,-1.63533 -1.69011,-3.70291 -1.19501,-5.58003 0.22416,-0.84979 0.43536,-2.57018 0.46935,-3.82311 0.10157,-3.74316 0.54729,-4.19539 7.93302,-8.04793 7.15546,-3.73248 9.28679,-4.52151 12.90256,-4.77668 7.80608,-0.55088 17.54186,4.92644 23.99354,13.49876 3.60237,4.78643 4.97552,8.2296 4.96985,12.46195 -0.005,3.93389 -0.9359,6.49235 -3.29084,9.04717 -2.12679,2.3073 -3.99994,3.11005 -7.4257,3.1824 -1.584,0.0335 -2.952,0.073 -3.04,0.0879 -0.088,0.0147 -0.17357,1.79046 -0.19018,3.94572 -0.0332,4.30896 -0.66166,9.08049 -1.9071,14.47869 -3.45942,14.99482 -3.88685,20.00039 -2.68806,31.47921 0.17692,1.69443 0.59686,6.73161 0.93312,11.19373 0.33628,4.46211 0.66444,8.16595 0.72924,8.23075 0.0648,0.0648 1.98199,-1.99235 4.26042,-4.57149 2.2784,-2.5791 6.08656,-6.71558 8.46256,-9.19216 9.13801,-9.52477 13.41145,-14.58103 18.00237,-21.30003 4.66272,-6.82413 6.29801,-10.32154 12.49379,-26.72001 11.11133,-29.40858 13.73853,-37.6024 15.69961,-48.9649 2.61652,-15.16019 2.71879,-22.22557 0.48855,-33.7551 -2.18621,-11.30199 -6.78199,-26.56919 -8.15674,-27.09674 -0.24227,-0.093 -2.13411,0.3368 -4.20406,0.95504 -5.94477,1.77555 -8.20359,2.36403 -13.84352,3.60656 -4.36103,0.96077 -5.97619,1.17123 -9.28,1.20918 -4.94816,0.0568 -5.42759,-0.14627 -9.27968,-3.93158 -2.48019,-2.43719 -2.83965,-2.93837 -3.22928,-4.50247 -1.00051,-4.01638 -0.0243,-11.73206 2.76074,-21.81904 3.19737,-11.58064 6.83148,-18.56806 13.08463,-25.15821 2.97207,-3.13226 5.77335,-5.20314 9.62359,-7.11437 4.62201,-2.29433 8.28512,-3.21261 13.6,-3.40931 17.16179,-0.63514 34.74403,9.73622 41.76089,24.63379 2.213,4.6984 2.55911,6.02839 2.55911,9.83386 0,3.14525 -0.0675,3.50314 -1.02666,5.44 -1.86227,3.76067 -4.98579,6.63312 -9.05334,8.32557 -0.968,0.40278 -1.87248,0.82848 -2.00999,0.94602 -0.24502,0.2094 0.27812,3.64534 2.50935,16.48169 0.61187,3.52 1.90355,11.224 2.87043,17.12 0.96691,5.89601 2.42026,14.46401 3.2297,19.04001 3.48825,19.72041 3.7823,23.17286 3.77455,44.32 -0.005,14.10832 -0.0711,16.05741 -0.72553,21.42826 -1.43942,11.81405 -3.95632,24.62342 -6.08525,30.97021 -1.17949,3.51635 -3.87907,9.82976 -5.37126,12.56154 -2.71917,4.97808 -6.67824,10.58595 -13.55495,19.2 -5.66835,7.10041 -12.22377,15.62342 -13.66,17.76 -2.19945,3.2719 -7.07052,11.93011 -9.54166,16.96 -2.86534,5.83239 -7.92653,18.40151 -12.69206,31.52 -1.05495,2.904 -2.28612,5.76512 -2.736,6.35802 -0.44986,0.59293 -1.46714,1.36522 -2.26061,1.71622 -4.04208,1.788 -8.4384,-1.50048 -7.97741,-5.9671 0.29069,-2.81661 9.31555,-26.84659 13.64851,-36.34109 2.67402,-5.85946 8.37187,-16.07498 11.88458,-21.30759 1.53097,-2.28057 11.42627,-15.08899 16.91792,-21.89846 8.27017,-10.25476 12.93449,-19.32855 15.54537,-30.24145 3.9248,-16.40457 5.46567,-33.63549 4.66426,-52.15856 -0.64544,-14.91891 -0.8975,-17.21968 -3.4007,-31.04 -0.76506,-4.224 -1.76989,-10.128 -2.233,-13.12 -0.4631,-2.992 -1.40995,-8.752 -2.10412,-12.80001 -0.69418,-4.048 -1.97764,-11.59376 -2.85216,-16.76838 -0.87453,-5.17459 -1.62829,-9.44147 -1.67501,-9.48192 -0.10368,-0.0898 -7.65885,2.35753 -7.84131,2.54 -0.0714,0.0714 0.51353,1.76342 1.29987,3.76006 2.712,6.88618 5.17206,16.08388 7.09059,26.51025 2.27091,12.3414 2.17264,19.676 -0.47827,35.69689 -1.34211,8.11101 -2.78848,13.72481 -6.05559,23.50311 -2.71372,8.12202 -12.28745,33.90362 -15.66982,42.19805 -4.81517,11.80797 -12.60675,22.71338 -26.79037,37.49687 -15.57427,16.23299 -27.43369,31.28295 -37.93852,48.14509 -4.70496,7.55235 -5.67232,9.75901 -7.0897,16.17274 -1.49587,6.76896 -1.93126,11.64682 -2.27584,25.49715 -0.1527,6.1369 -0.52506,7.56525 -2.51238,9.63741 -2.1416,2.23303 -4.0354,2.51539 -7.11114,1.06032 z m 1.45168,-43.8265 c 0.003,-0.29763 0.61821,-2.05312 1.3687,-3.90112 2.13719,-5.26246 9.81226,-17.5407 17.70269,-28.32 1.93248,-2.64 3.62999,-4.99046 3.77229,-5.22326 0.15565,-0.25466 -0.0685,-1.15216 -0.56253,-2.25316 -0.85965,-1.91555 -0.85136,-1.8448 -1.8023,-15.40358 -0.19133,-2.728 -0.64599,-8.34176 -1.01037,-12.47498 -0.50717,-5.75325 -0.6271,-9.05405 -0.51165,-14.08 0.17056,-7.42266 0.5736,-9.98237 3.57786,-22.72202 0.95497,-4.04963 1.98957,-9.18422 2.29913,-11.41024 0.46013,-3.30864 0.70352,-4.21443 1.33373,-4.96339 l 0.77088,-0.91613 -1.71129,-0.76576 c -0.94122,-0.42118 -2.02336,-0.85757 -2.40477,-0.96976 -0.74477,-0.2191 -0.59187,-0.57603 -2.25415,5.26227 -1.22822,4.31386 -8.30067,21.49604 -14.45315,35.11316 -3.66509,8.1119 -5.06573,11.63235 -7.55843,18.99821 -2.32502,6.87024 -2.65616,7.58809 -4.03555,8.74877 l -1.01773,0.85638 0.19517,2.62173 c 0.42067,5.65046 1.55558,17.93174 2.13481,23.10176 2.29386,20.47331 3.50624,29.64781 3.88682,29.41261 0.15162,-0.0937 0.27754,-0.41389 0.27984,-0.71149 z m 37.73392,-132.94113 c -0.80848,-2.82883 -5.91002,-8.49056 -9.69168,-10.75594 -4.29862,-2.57507 -6.12477,-2.60995 -11.62467,-0.22217 -2.20669,0.95805 -4.08272,1.81245 -4.16899,1.89872 -0.3129,0.31289 0.27212,0.80941 2.27078,1.9271 5.8063,3.24707 19.13936,8.05248 22.65414,8.16487 0.81792,0.0262 0.84388,-0.0208 0.56042,-1.01258 z m 26.43507,-96.09706 c 5.02208,-1.0801 11.99062,-2.97607 15.82685,-4.30605 0.968,-0.33562 6.08,-2.00205 11.36,-3.7032 5.28,-1.70119 9.744,-3.20387 9.92,-3.3393 0.36461,-0.28061 10.4615,-3.95891 11.68,-4.25501 0.44,-0.10694 1.29715,-0.61053 1.90477,-1.11913 1.46726,-1.22807 1.42236,-2.37181 -0.23162,-5.90132 -2.50451,-5.34448 -5.61632,-8.89888 -10.65018,-12.16496 -4.65449,-3.01993 -8.5096,-4.62413 -13.33046,-5.54713 -10.22467,-1.95764 -18.05059,1.10582 -24.45808,9.57411 -3.04784,4.02813 -5.424,9.50928 -7.65533,17.65904 -0.89632,3.27367 -2.86937,13.64448 -2.66025,13.98285 0.32483,0.5256 3.15555,0.22528 8.2943,-0.8799 z m -173.7791,263.42885 c -1.23877,-0.56249 -2.96948,-2.53078 -3.21615,-3.65763 -0.10524,-0.4808 -0.2548,-1.07498 -0.33234,-1.32042 -0.0775,-0.24547 0.0246,-2.26147 0.22686,-4.48 0.67986,-7.45529 -0.94474,-31.16179 -2.95183,-43.07373 -0.95334,-5.65798 -4.29676,-19.47392 -6.46617,-26.72 -3.84541,-12.8441 -6.02531,-19.35175 -10.45124,-31.2 -2.2108,-5.91831 -3.91772,-11.13153 -5.56332,-16.99121 -1.86295,-6.6336 -5.748,-21.81939 -6.61535,-25.85785 -1.42914,-6.65424 -3.06853,-12.20669 -9.74799,-33.01562 -4.48593,-13.97527 -5.66984,-18.78839 -6.87074,-27.93258 -1.03949,-7.91514 -0.86621,-11.96307 1.00176,-23.40276 1.07252,-6.56819 1.52693,-12.58025 0.97656,-12.92038 -0.30148,-0.18634 -6.67171,2.49885 -14.3041,6.02944 -5.16153,2.38765 -10.05636,4.36733 -18.20914,7.36454 -0.86304,0.31728 -2.08704,1.03975 -2.72,1.60544 -1.77915,1.59015 -2.15815,1.69088 -6.43085,1.70954 -3.39281,0.0147 -4.20714,-0.0818 -5.36453,-0.63629 -1.46333,-0.70109 -2.78401,-2.53497 -3.15253,-4.37757 -0.47169,-2.35846 1.20587,-5.22729 3.76104,-6.43184 l 1.07602,-0.50723 0.22944,-4.15782 c 0.33312,-6.03636 0.93275,-8.85872 3.65143,-17.1866 4.44467,-13.61497 6.4921,-17.98061 11.54449,-24.61568 4.8361,-6.35107 12.11775,-13.28803 18.17463,-17.31437 6.25316,-4.1568 16.4463,-8.35062 23.97465,-9.864 3.06531,-0.61622 4.14644,-0.68032 8.8,-0.52166 6.09716,0.20787 10.96476,1.08931 16.36759,2.9639 5.7442,1.99303 15.6501,7.27459 21.71303,11.57677 3.25944,2.31286 8.30513,7.33223 17.70378,17.61143 l 1.25046,1.36761 0.92712,-0.78013 c 0.96543,-0.81235 2.18365,-1.28019 4.22699,-1.62332 1.10093,-0.1849 1.29621,-0.38512 2.28876,-2.34695 1.42265,-2.81193 7.55418,-12.37338 10.36247,-16.1591 3.12483,-4.21245 5.78038,-6.94928 9.35763,-9.64397 3.56458,-2.68515 7.0152,-4.69482 10.87754,-6.33517 4.01008,-1.70311 5.82249,-2.0057 11.82998,-1.97507 4.84237,0.0246 5.58637,0.10883 8.97626,1.01568 2.03296,0.54384 4.84096,1.44336 6.24,1.99891 10.70979,4.25299 22.67328,12.99517 25.90217,18.92778 1.60144,2.94233 1.4281,7.31165 -0.39536,9.96633 -1.74672,2.54301 -3.16813,2.9514 -13.04307,3.74765 -6.5793,0.5305 -11.52749,1.57648 -34.62185,7.31869 -4.25802,1.05872 -9.13252,2.17334 -10.8322,2.47696 -1.69971,0.30358 -3.152,0.71264 -3.22736,0.90899 -0.0753,0.19635 0.37741,3.15837 1.00612,6.58224 1.08195,5.89229 1.15891,6.7737 1.43862,16.47972 0.38742,13.44352 1.35696,29.6201 2.08003,34.70554 0.0876,0.616 0.51927,5.008 0.9593,9.76 0.44006,4.752 1.01488,10.296 1.27737,12.32 0.95856,7.39097 1.47447,17.49616 1.75629,34.4 0.15847,9.504 0.45927,25.416 0.66845,35.36 0.41238,19.60445 0.33584,21.77741 -1.1607,32.96001 -0.43575,3.256 -1.43629,9.52 -2.22346,13.92 -3.03078,16.94141 -3.85984,23.36035 -4.17434,32.32 -0.22684,6.46243 -0.58016,7.77488 -2.45958,9.13632 -0.70525,0.51088 -1.78966,1.02403 -2.40986,1.14039 l -1.12758,0.21155 0.19645,3.71587 c 0.10806,2.04374 0.35549,8.07568 0.54985,13.40429 0.35293,9.67626 0.35248,9.69027 -0.34985,11.14112 -1.65194,3.41245 -5.73447,4.27418 -8.64531,1.82483 -2.09792,-1.76525 -2.11652,-1.89795 -3.66883,-26.17437 -0.58135,-9.09171 -1.02099,-13.21049 -2.73254,-25.6 -3.55961,-25.76704 -5.14091,-31.95293 -11.73854,-45.92 -2.49717,-5.28647 -4.58751,-8.86989 -9.9867,-17.12001 -10.8633,-16.59939 -15.8904,-25.63043 -23.86896,-42.88 -1.38391,-2.992 -5.63231,-11.632 -9.44089,-19.2 -7.19656,-14.30026 -9.43159,-19.43603 -11.3327,-26.041 -3.72219,-12.9319 -3.92051,-21.63373 -0.95183,-41.76409 0.4384,-2.97281 0.74279,-5.4594 0.67641,-5.52577 -0.31665,-0.31667 -10.30406,3.512 -10.28194,3.94157 0.008,0.1481 0.35236,1.3354 0.76608,2.63837 0.6686,2.10576 0.72979,2.74605 0.55045,5.76 -0.11097,1.86503 -0.64265,6.19891 -1.18151,9.63091 -1.9627,12.50055 -2.06061,15.4369 -0.80241,24.06372 0.88301,6.0543 2.09656,10.98755 4.74935,19.30669 8.66151,27.16243 8.80775,27.66726 12.97506,44.7896 4.43319,18.21482 6.57011,25.27021 12.61195,41.64058 7.68,20.80893 14.35479,46.01053 16.05012,60.59943 1.05794,9.104 2.10936,25.521 2.10065,32.8 -0.0103,8.61041 -0.80028,11.89415 -3.25164,13.51639 -1.50188,0.99389 -4.0837,1.28029 -5.54792,0.61539 z m 49.59798,-76.57143 c 0.42135,-2.44218 1.19463,-6.88835 1.7184,-9.88035 2.09053,-11.94173 2.95844,-20.02842 2.97085,-27.68 0.0118,-7.32141 -0.29581,-24.35453 -0.54336,-30.08001 -0.0951,-2.2 -0.30461,-11.992 -0.4655,-21.76 -0.28355,-17.21357 -0.69856,-25.12099 -1.72147,-32.8 -0.25792,-1.936 -0.69879,-6.112 -0.97978,-9.28 -0.28099,-3.168 -0.79066,-8.49684 -1.13261,-11.84183 -1.03129,-10.08793 -1.74675,-22.14906 -2.24928,-37.91818 -0.16547,-5.192 -0.51417,-10.952 -0.77491,-12.8 -0.26077,-1.848 -0.47866,-3.96349 -0.48422,-4.70112 -0.005,-0.7376 -0.16039,-1.43395 -0.344,-1.54745 -0.3097,-0.1914 -10.88843,0.44105 -11.13875,0.66595 -0.0619,0.0557 0.15115,0.86649 0.47351,1.80189 0.84545,2.45321 0.79428,6.10406 -0.10947,7.81104 -0.99085,1.87148 -2.69052,3.23014 -4.81286,3.84723 -1.71801,0.49952 -2.23727,0.49945 -7.91858,0 -14.41628,-1.27056 -21.405,-1.46355 -29.61603,-0.81783 -4.41391,0.34711 -10.5496,1.16052 -10.82401,1.43492 -0.0846,0.0846 0.14417,0.69216 0.50834,1.3502 1.14345,2.06615 1.13535,2.84672 -0.11737,11.31457 -1.14809,7.7606 -1.20171,8.4919 -1.20549,16.44185 -0.004,7.39472 0.0745,8.6792 0.70114,11.54983 1.99448,9.13613 3.59502,13.14061 11.75487,29.41018 3.88394,7.744 8.7709,17.752 10.85991,22.24 7.22199,15.51558 13.17688,26.10166 22.64627,40.25853 4.26738,6.37981 6.13538,9.57005 9.21714,15.74147 5.6455,11.30544 8.02205,18.10615 10.39987,29.76001 0.76109,3.73014 2.07517,11.31165 2.0753,11.97334 3e-5,0.16131 0.0779,0.21549 0.17302,0.12035 0.0951,-0.0951 0.51773,-2.17113 0.93907,-4.61334 z m -127.01651,-175.434 c 5.13677,-2.07728 7.28132,-3.02457 21.10448,-9.32227 27.60209,-12.5752 43.82938,-15.9393 68.73613,-14.24976 4.54087,0.30803 8.34121,0.47497 8.44521,0.37101 0.42225,-0.42228 -7.52103,-9.37415 -13.54788,-15.26813 -4.22352,-4.1304 -6.57344,-5.89536 -12.07147,-9.06653 -7.19584,-4.15047 -11.94522,-6.04839 -18.22914,-7.28464 -9.02168,-1.77488 -16.41287,-0.43492 -27.09285,4.91174 -5.46345,2.73511 -8.99449,5.37181 -14.25053,10.64112 -8.53198,8.55354 -11.079,13.12349 -16.00971,28.72516 -2.39219,7.56931 -3.51357,12.73593 -2.76424,12.73593 0.14054,0 2.69654,-0.98713 5.68,-2.19363 z m 130.76695,-38.43296 c 5.23779,-0.77088 7.00339,-1.14128 15.29753,-3.20922 20.68275,-5.1567 28.46323,-6.86771 32.92029,-7.23939 1.42982,-0.11927 2.59971,-0.3265 2.59971,-0.46051 0,-0.30752 -3.66,-3.00557 -6.4152,-4.72912 -3.18435,-1.99204 -9.08589,-4.72068 -12.3048,-5.68925 -2.22413,-0.66925 -3.76282,-0.89879 -6.75654,-1.00797 -4.76675,-0.17382 -6.50474,0.16662 -10.11338,1.98109 -5.88713,2.96013 -9.90089,6.55059 -14.33245,12.82096 -1.11948,1.584 -2.80092,3.91946 -3.73654,5.18989 -1.51626,2.05888 -1.99443,2.97011 -1.55862,2.97011 0.0783,0 2.05833,-0.28198 4.4,-0.62659 z m 170.70719,281.75986 c -3.29366,-1.17437 -4.74653,-4.92557 -3.1328,-8.0887 0.36087,-0.70733 2.57018,-3.64407 4.9096,-6.52611 8.20842,-10.11233 8.99863,-11.14993 18.61178,-24.43844 14.39657,-19.90077 19.1462,-27.49888 20.45907,-32.72883 0.57987,-2.30999 1.73161,-14.02893 1.41033,-14.35018 -0.21907,-0.21907 -17.78902,1.10502 -18.23225,1.37402 -0.13453,0.0817 -1.0432,-0.0173 -2.01927,-0.21997 -3.09513,-0.64256 -4.93612,-2.86413 -4.93612,-5.95664 0,-3.22173 2.59644,-5.55479 6.72,-6.03831 2.58422,-0.30304 2.88,-0.43417 2.88,-1.27677 0,-0.41446 0.47257,-1.37676 1.05017,-2.13846 1.30618,-1.72243 10.26999,-9.4592 12.88954,-11.12509 7.77718,-4.94582 17.53699,-5.8776 27.18665,-2.59549 3.89348,1.32429 5.87514,2.59479 9.25821,5.93572 3.69344,3.64745 4.49939,5.17136 4.48493,8.48 -0.0128,2.88681 -0.6791,4.36486 -3.14266,6.96972 -2.24643,2.37527 -3.72601,3.07021 -7.98822,3.75194 -1.15024,0.18397 -1.2096,0.2489 -1.0193,1.1153 0.12551,0.57145 -0.1654,2.42224 -0.768,4.88585 -0.53353,2.18125 -1.34182,6.04295 -1.79619,8.58154 -0.4544,2.53859 -1.24925,6.91965 -1.76633,9.73565 -0.51712,2.816 -1.59389,8.864 -2.39284,13.44 -2.13779,12.24419 -3.21708,17.25114 -4.84083,22.45757 -1.85187,5.93782 -2.72669,8.25562 -4.36685,11.56979 -2.12099,4.28583 -9.40057,13.03268 -11.65801,14.00784 -3.43978,1.48589 -7.50362,-1.28704 -7.50362,-5.12003 0,-1.77107 0.0624,-1.88512 4.22163,-7.71517 4.54919,-6.37667 4.98928,-7.27209 7.54935,-15.36 1.58944,-5.02137 2.67085,-9.94704 4.6016,-20.96 0.72512,-4.136 1.73158,-9.752 2.23657,-12.48 0.50496,-2.728 1.01335,-5.608 1.1297,-6.4 0.11638,-0.792 0.85866,-4.7281 1.6495,-8.74685 0.79088,-4.01878 1.36186,-7.38294 1.2689,-7.47594 -0.093,-0.093 -0.7169,-0.04 -1.38646,0.1177 l -1.21744,0.28672 -0.0815,2.06918 c -0.17203,4.3656 -1.06333,12.60845 -1.65798,15.33296 -1.53028,7.01159 -6.03549,14.69073 -19.81578,33.77623 -9.79328,13.56355 -13.90003,18.99194 -20.09337,26.56 -6.31924,7.72192 -7.5034,8.92112 -9.3026,9.42077 -1.52857,0.42448 -1.88876,0.41098 -3.39907,-0.12752 z m 46.74006,-100.18228 c 1.30653,-0.5976 3.25434,-0.60185 4.80381,-0.0106 1.99011,0.75949 3.82394,0.78963 9.36647,0.15405 2.904,-0.33302 5.568,-0.61206 5.92,-0.6201 0.57616,-0.0131 0.55177,-0.0922 -0.24452,-0.79302 -1.97315,-1.73648 -9.62889,-3.1527 -13.00054,-2.40496 -2.43754,0.54061 -5.58864,2.00422 -7.36544,3.42112 -1.77965,1.41917 -2.39968,2.02227 -1.3095,1.27376 0.44,-0.30211 1.26336,-0.76122 1.82972,-1.02029 z"
       id="path1071" />
  </g>
</svg>
