<?xml version="1.0" encoding="UTF-8" standalone="no"?>
<!-- Created with Inkscape (http://www.inkscape.org/) -->

<svg
   version="1.1"
   id="svg2"
   width="414.85577"
   height="342.85757"
   viewBox="0 0 414.85578 342.85759"
   sodipodi:docname="shroom3.svg"
   inkscape:version="1.1.2 (0a00cf5339, 2022-02-04)"
   xmlns:inkscape="http://www.inkscape.org/namespaces/inkscape"
   xmlns:sodipodi="http://sodipodi.sourceforge.net/DTD/sodipodi-0.dtd"
   xmlns="http://www.w3.org/2000/svg"
   xmlns:svg="http://www.w3.org/2000/svg">
  <defs
     id="defs6" />
  <sodipodi:namedview
     id="namedview4"
     pagecolor="#ffffff"
     bordercolor="#666666"
     borderopacity="1.0"
     inkscape:pageshadow="2"
     inkscape:pageopacity="0.0"
     inkscape:pagecheckerboard="0"
     showgrid="false"
     inkscape:zoom="0.89090347"
     inkscape:cx="137.50087"
     inkscape:cy="98.214905"
     inkscape:window-width="1920"
     inkscape:window-height="1044"
     inkscape:window-x="0"
     inkscape:window-y="0"
     inkscape:window-maximized="1"
     inkscape:current-layer="g8" />
  <g
     inkscape:groupmode="layer"
     inkscape:label="Image"
     id="g8"
     transform="translate(-168.97392,-412.98954)">
    <path
       style="fill:#ffffdd;stroke-width:0.32;fill-opacity:1"
       d="m 227.35999,746.71523 c -2.31774,-1.24985 -3.21048,-2.65907 -3.81317,-6.01929 -0.48623,-2.71095 -2.62006,-12.04845 -4.40039,-19.25588 -1.48726,-6.02096 -5.07763,-16.96429 -6.98172,-21.28 -2.24599,-5.09065 -4.82446,-10.24 -5.12755,-10.24 -0.34654,0 -4.4856,5.97722 -8.97442,12.96 -3.28871,5.11588 -3.2913,5.12151 -3.22686,7.00432 0.082,2.39412 -0.34253,3.66583 -1.64191,4.91914 -2.84119,2.74042 -6.59572,2.06752 -8.77961,-1.5735 -1.37967,-2.30023 -3.46652,-7.58852 -4.49747,-11.39706 -0.79472,-2.93587 -0.84361,-3.54055 -0.85977,-10.6329 -0.0204,-8.93558 0.19047,-10.03728 3.03112,-15.84 2.94402,-6.01392 6.71113,-10.45155 11.69922,-13.78167 8.75454,-5.84467 24.01693,-10.26473 28.69482,-8.31017 2.71225,1.13325 4.37781,3.53907 4.39069,6.34211 0.009,2.04035 -0.57146,3.32 -2.99492,6.59824 -1.85077,2.50352 -2.75806,3.91463 -2.75806,4.28957 0,0.0771 0.60421,0.23674 1.34268,0.35482 2.24752,0.35939 3.19029,1.70912 7.40313,10.59865 7.20258,15.19824 8.54166,17.27556 26.32646,40.84055 7.62076,10.09757 9.08773,12.36109 9.08773,14.02231 0,1.15145 -0.74934,3.08224 -1.5322,3.94793 -1.49016,1.64784 -4.60584,2.30051 -6.44412,1.34992 -1.86881,-0.9664 -7.38563,-7.67709 -16.18894,-19.69226 -2.25667,-3.08 -5.36543,-7.27388 -6.90837,-9.31977 -3.41322,-4.52583 -6.12836,-8.63021 -8.47567,-12.81245 -0.9717,-1.73127 -1.82852,-3.14778 -1.90404,-3.14778 -0.0755,0 0.16124,0.756 0.52615,1.68 3.37627,8.54925 5.21041,15.01997 9.59205,33.84001 2.10908,9.05894 1.88318,12.06 -1.05413,14.00384 -1.5796,1.04531 -4.14112,1.30067 -5.53073,0.55132 z m -31.83283,-61.43517 c 2.14788,-3.168 4.8027,-7.128 5.8996,-8.8 1.0969,-1.672 2.95285,-4.25178 4.12433,-5.7328 1.17148,-1.48106 2.07274,-2.75002 2.0028,-2.81997 -0.22373,-0.22374 -6.04642,2.82535 -7.988,4.18295 -2.52519,1.76566 -5.0463,4.8855 -6.76357,8.36982 -1.53093,3.10624 -2.07586,5.53459 -2.07991,9.26858 -0.002,1.92547 0.0589,2.16483 0.44855,1.76 0.24803,-0.25773 2.20832,-3.06058 4.3562,-6.22858 z m 20.61019,-5.16022 c -0.46737,-1.03389 -0.91367,-1.71117 -0.99178,-1.50509 -0.15771,0.41603 1.44828,3.77811 1.6895,3.53689 0.0836,-0.0836 -0.23036,-0.99792 -0.69772,-2.0318 z m 61.46336,60.8161 c -2.7241,-1.42039 -3.28898,-2.76211 -3.50992,-8.33693 -0.46458,-11.72263 -1.25635,-19.86186 -3.22026,-33.10349 -0.24998,-1.68551 -0.81879,-6.58151 -1.26401,-10.88 -2.54736,-24.59396 -3.33304,-28.01037 -10.88573,-47.33546 -2.98566,-7.63943 -4.81136,-12.64356 -6.82976,-18.72 -1.8399,-5.53908 -2.93039,-8.49748 -9.28937,-25.20109 -3.20641,-8.42253 -6.00262,-16.79457 -8.04221,-24.07892 -0.73918,-2.64 -2.10917,-7.464 -3.0444,-10.72 -2.91278,-10.14077 -4.10297,-16.45434 -6.06257,-32.16 -1.10514,-8.85741 -1.44967,-13.95936 -1.4586,-21.6 -0.004,-3.608 -0.21635,-8.86401 -0.47141,-11.68001 -0.25505,-2.816 -0.46795,-5.28896 -0.47311,-5.49545 -0.005,-0.2065 -0.36421,-0.79715 -0.79791,-1.31258 -1.92582,-2.2887 -1.78641,-5.39097 0.34846,-7.75402 1.57452,-1.74281 2.80229,-2.08761 5.22418,-1.46713 3.54789,0.90893 5.95298,3.24813 6.7033,6.51965 0.64746,2.82307 1.33276,13.13757 1.46546,22.05674 0.13885,9.33248 0.24527,10.68569 1.79393,22.8128 1.59581,12.49619 2.75505,18.4463 5.23695,26.88 0.59563,2.024 1.82966,6.344 2.74228,9.6 2.54396,9.07619 4.79526,15.74752 9.33224,27.65456 4.77407,12.52928 7.82036,20.92535 9.00726,24.82545 0.73194,2.40512 2.01343,5.85392 8.2044,22.08 2.17575,5.70246 4.6672,13.4392 5.41008,16.8 1.06503,4.81818 2.21171,12.94704 3.25009,23.04 0.54322,5.28 1.6171,14.208 2.3864,19.84 1.46457,10.72205 1.92935,15.27312 2.23861,21.92 0.10236,2.2 0.25813,5.15201 0.34614,6.56001 0.29656,4.7438 -0.84229,7.82473 -3.36885,9.11366 -1.51195,0.77136 -3.6479,0.83245 -4.97167,0.14221 z m 46.49218,-0.7729 c -0.66509,-0.36137 -1.53792,-1.24365 -1.98487,-2.00627 l -0.79772,-1.36122 0.22486,-15.51773 c 0.39046,-26.94806 0.30272,-37.32534 -0.35654,-42.16765 -1.3523,-9.93273 -3.70828,-17.02214 -9.932,-29.8865 -3.65582,-7.55654 -6.20259,-12.27126 -10.77301,-19.94361 -7.22074,-12.12145 -9.61878,-16.99828 -14.37062,-29.22516 -1.55073,-3.99017 -3.68881,-9.34285 -4.75126,-11.89485 -1.06246,-2.552 -3.36584,-8.096 -5.11861,-12.32 -3.74025,-9.0136 -5.52365,-13.13168 -8.79998,-20.32 -3.22499,-7.07568 -7.31908,-16.8497 -8.37749,-20 -2.14546,-6.38586 -5.17768,-19.75911 -6.89282,-30.40001 -1.2458,-7.72908 -1.49652,-9.71577 -2.24126,-17.76 -0.98904,-10.68291 -0.88852,-11.67398 1.38655,-13.67152 3.40533,-2.98992 8.06065,-1.38003 9.29055,3.2128 0.2443,0.91229 0.82232,5.61872 1.28449,10.45872 0.46217,4.84 1.20668,11.104 1.65448,13.92 1.74663,10.98391 5.08141,25.74855 7.05627,31.24145 1.10933,3.08553 4.85621,11.83936 8.74827,20.43856 1.71266,3.784 3.78266,8.464 4.6,10.4 4.57952,10.84733 7.47896,17.91664 11.94341,29.12 5.66056,14.20493 8.4574,19.95904 15.32057,31.52001 4.15512,6.99929 9.8978,17.95689 13.91959,26.56 l 1.42115,3.04 0.22887,-2.72 c 0.12585,-1.496 0.38384,-9.416 0.57325,-17.6 0.543,-23.46039 1.04102,-29.60209 4.07395,-50.24001 l 1.81056,-12.32 0.0634,-10.72 c 0.0909,-15.37978 -0.3656,-24.39616 -2.13072,-42.08 -1.8465,-18.49927 -3.29952,-25.2498 -7.83536,-36.40257 -2.27018,-5.58192 -2.49907,-7.06429 -1.41805,-9.18323 1.80336,-3.53494 6.25904,-4.11082 9.14378,-1.18182 2.89161,2.936 7.53862,16.12598 9.54332,27.08761 3.88695,21.25354 5.94672,64.35569 3.7466,78.40001 -0.63584,4.05895 -2.45632,16.87127 -3.20548,22.56 -0.94041,7.141 -1.67712,21.52113 -2.0984,40.96001 -0.36224,16.71376 -1.11881,27.54646 -2.03321,29.11216 -0.62531,1.07069 -2.70739,2.3944 -3.77904,2.40256 -0.64791,0.005 -0.68077,0.12637 -0.54279,2.00528 0.0808,1.1 0.37991,4.088 0.66474,6.64 0.60205,5.3945 0.63302,15.43943 0.11485,37.28 -0.41895,17.65796 -0.80573,20.13277 -3.46346,22.15991 -1.50029,1.14432 -4.20694,1.3289 -5.91078,0.40307 z m 112.99945,-6.37203 c -2.13901,-0.69158 -3.82109,-2.90704 -3.80531,-5.01197 0.0115,-1.54752 1.09517,-3.46384 2.71427,-4.80013 0.83891,-0.69235 1.90179,-1.63552 2.36198,-2.0959 0.4602,-0.46042 4.41898,-6.79642 8.79728,-14.08 11.14336,-18.53767 13.04087,-21.60026 16.22903,-26.19351 3.57187,-5.14614 7.38848,-11.2713 12.06915,-19.36944 2.03456,-3.52 4.43856,-7.552 5.34227,-8.96 5.14739,-8.01981 8.47392,-14.71136 10.71085,-21.5458 1.89498,-5.78956 2.84291,-10.53286 4.32762,-21.65421 0.6344,-4.752 1.42924,-10.296 1.76633,-12.32 2.00995,-12.06864 3.25693,-21.62086 4.30938,-33.01174 0.44454,-4.81156 0.87645,-9.04922 0.95977,-9.41709 0.25866,-1.14163 2.04407,-21.42237 2.41972,-27.48535 0.55862,-9.01635 0.49724,-19.1599 -0.14426,-23.84583 -1.14822,-8.38707 -3.02064,-14.96947 -5.96218,-20.96 -2.0984,-4.27344 -5.76464,-9.44 -6.69872,-9.44 -0.55328,0 -9.72448,3.84829 -10.12448,4.24826 -0.10224,0.10227 0.17616,1.45625 0.61869,3.00883 2.09575,7.3528 2.71719,12.81424 2.81533,24.74292 0.11206,13.62134 0.50355,20.16694 2.00003,33.44 1.84743,16.38614 2.03571,20.05494 1.33834,26.08 -0.93731,8.09776 -2.92778,17.54519 -5.00381,23.7496 -0.94208,2.81543 -4.34848,9.82205 -6.31552,12.9904 -2.83418,4.56496 -4.41574,6.38964 -12.53341,14.46 -8.28544,8.23713 -9.04115,9.03466 -14.40307,15.20001 -1.83677,2.112 -5.00342,5.712 -7.03699,8 -5.16077,5.80643 -9.14102,10.43203 -13.63014,15.84 -8.04474,9.69139 -9.75418,12.09795 -12.42887,17.49747 -1.76358,3.56023 -2.16493,4.59725 -5.79827,14.98253 -1.16992,3.344 -3.06803,8.6 -4.21805,11.68 -1.14998,3.08 -3.48867,9.848 -5.19709,15.04 -1.70838,5.192 -3.33868,9.88663 -3.62284,10.43252 -1.17402,2.25516 -4.09722,3.88192 -6.21466,3.45843 -0.86294,-0.17258 -1.0632,-0.0355 -2.1415,1.46538 -2.72023,3.78633 -7.37773,3.72121 -9.63748,-0.13472 -0.67942,-1.15937 -0.94028,-2.4801 -1.74844,-8.85213 -2.4921,-19.64999 -7.87191,-50.8859 -11.0176,-63.96948 -0.78138,-3.24989 -1.22631,-4.83095 -5.12762,-18.22023 -4.10221,-14.07875 -6.16611,-28.39136 -7.89683,-54.76295 -0.79328,-12.0871 -0.97158,-30.57645 -0.4889,-50.69683 0.25632,-10.68372 0.22631,-12.00784 -0.41337,-18.24 -0.37939,-3.696 -1.05338,-9.096 -1.49779,-12.00001 -0.80103,-5.23427 -1.2794,-7.81747 -4.77031,-25.76 -1.40697,-7.23149 -3.32947,-17.73933 -3.35181,-18.32 -0.0115,-0.29584 -2.65952,0.1201 -9.55164,1.50029 -11.13213,2.22922 -14.67632,2.71504 -16.42059,2.25085 -3.12249,-0.83098 -4.66435,-2.88493 -5.09965,-6.79344 -0.16157,-1.45072 -0.37916,-3.16247 -0.48354,-3.80388 -0.12499,-0.76806 -0.009,-1.54675 0.33922,-2.28096 1.53381,-3.23225 11.90107,-13.87091 17.1378,-17.58646 5.56333,-3.94727 12.15856,-6.81133 18.75565,-8.14493 5.67277,-1.14675 16.31133,-0.56397 24.99942,1.36944 7.33972,1.63338 16.60036,5.39933 19.49213,7.92675 3.54515,3.09847 3.49863,8.07863 -0.10112,10.82586 -1.47821,1.1281 -17.81286,6.54118 -25.39075,8.41414 -5.63293,1.39223 -12.48,3.49092 -12.48,3.82519 0,0.20547 0.49296,2.52537 1.09546,5.15536 1.30902,5.71411 5.93606,29.24167 7.06022,35.89994 2.31978,13.73984 3.17981,25.1376 2.74666,36.40186 -0.84362,21.9407 -0.74429,32.76605 0.46985,51.2 1.66887,25.3376 3.68058,38.37949 8.29248,53.76001 4.08659,13.62851 5.37607,19.13699 8.4945,36.28771 2.14009,11.77002 3.59958,20.61472 5.12713,31.07124 0.55271,3.78342 1.05229,6.9263 1.11018,6.98422 0.0579,0.0579 0.70806,-1.74166 1.44483,-3.99897 0.73677,-2.25732 3.1016,-9.0002 5.2552,-14.9842 2.1536,-5.984 4.8937,-13.616 6.08909,-16.96 2.17155,-6.07482 4.8897,-11.9615 7.24541,-15.69155 0.68694,-1.08768 1.24899,-2.06365 1.24899,-2.16884 0,-0.10515 -0.35254,-0.71068 -0.78342,-1.34563 -0.88493,-1.304 -0.96173,-1.78627 -1.44887,-9.09542 -0.19283,-2.89376 -0.77856,-9.05383 -1.3016,-13.68903 -1.77206,-15.70432 -1.8967,-20.9392 -0.76416,-32.08954 0.54855,-5.40054 1.69277,-13.2792 2.07427,-14.28265 0.69181,-1.81962 3.6457,-3.26576 5.91754,-2.89709 1.52678,0.24774 3.28029,1.37641 4.01802,2.58621 0.81564,1.3376 0.80316,5.28838 -0.045,14.27353 -0.90563,9.59386 -0.85667,17.07329 0.17386,26.56001 1.15219,10.6063 1.74573,16.38461 1.75305,17.06665 0.004,0.32269 0.12877,0.53869 0.27844,0.48 0.14963,-0.0587 1.88576,-2.01756 3.85801,-4.35312 1.97226,-2.33558 5.39885,-6.29558 7.61466,-8.8 2.21577,-2.50445 6.48112,-7.36153 9.47852,-10.79353 2.99741,-3.432 9.28448,-10.05601 13.97124,-14.72001 6.62454,-6.59232 8.9286,-9.10198 10.35062,-11.27411 1.92442,-2.93952 4.50454,-7.86304 5.64538,-10.7727 1.03273,-2.63399 3.11168,-11.01178 4.0815,-16.44762 0.76662,-4.29709 0.86653,-5.65069 0.85523,-11.58557 -0.008,-4.38384 -0.20086,-8.16618 -0.55376,-10.88 -1.95603,-15.04192 -2.76086,-24.99722 -2.78109,-34.4 -0.0189,-8.84519 -0.44601,-18.76273 -0.94377,-21.92001 -0.44384,-2.81529 -1.93043,-9.20243 -2.21421,-9.51325 -0.11712,-0.12832 -2.0808,0.33197 -4.36368,1.02279 -2.28291,0.69085 -6.81475,1.90986 -10.07075,2.7089 -3.256,0.79904 -7.792,2.01859 -10.08,2.71008 -5.31843,1.60739 -6.1832,1.75763 -7.72605,1.34217 -1.7759,-0.47821 -3.8024,-2.30829 -4.3784,-3.95408 -0.65984,-1.88521 -1.63379,-14.39597 -1.35974,-17.4665 0.63782,-7.14739 3.77846,-15.33411 7.97264,-20.78227 1.94976,-2.53274 5.70227,-6.02838 8.37155,-7.7985 5.51715,-3.65862 13.33043,-6.84883 19.04,-7.77411 4.41005,-0.71469 11.14662,-0.64864 15.05366,0.14755 9.23898,1.88279 19.45187,7.07591 24.17811,12.29424 2.58634,2.85565 5.00672,6.42829 5.96772,8.80877 0.9608,2.37987 1.02492,7.27165 0.11763,8.97421 -1.54618,2.90151 -3.05197,4.09335 -7.6488,6.05399 l -1.53165,0.65328 1.73395,2.48636 c 5.84317,8.37869 9.55107,19.41185 11.26723,33.52637 0.92026,7.56868 0.44407,21.41719 -1.45795,42.40001 -0.35897,3.96 -0.79478,8.208 -0.96851,9.44 -0.1737,1.232 -0.604,5.48 -0.95619,9.44 -0.76467,8.59763 -2.17594,19.69168 -3.70432,29.12 -0.61338,3.784 -1.68768,11.128 -2.3873,16.32 -2.15456,15.98961 -3.59254,22.00929 -7.41494,31.04001 -1.94227,4.5888 -3.70951,7.95721 -7.13527,13.6 -1.7096,2.816 -4.62713,7.712 -6.48336,10.88 -5.78668,9.8759 -8.66726,14.50762 -13.03568,20.96 -3.96425,5.85546 -6.65548,10.21447 -18.42889,29.84964 -7.30519,12.18326 -8.42871,13.62675 -12.02045,15.44403 -1.90362,0.96314 -4.64586,1.32387 -6.21264,0.81728 z m 18.20221,-260.66473 c 3.19056,-0.75517 10.79897,-2.93917 12.28995,-3.52784 0.29949,-0.11824 0.71549,-0.74227 0.92442,-1.38669 0.8471,-2.61267 2.90464,-4.21171 5.41936,-4.21171 1.42028,0 2.31123,0.35539 3.41907,1.36391 0.94931,0.86416 2.14473,0.64412 5.84729,-1.07613 2.46221,-1.144 3.02599,-1.54899 3.529,-2.53495 0.74185,-1.45414 2.59926,-3.12035 3.7622,-3.37494 0.4808,-0.10525 1.07114,-0.25331 1.31191,-0.32906 0.24077,-0.0757 1.1912,0.0998 2.11209,0.39005 l 1.67431,0.52778 2.68793,-1.06794 c 1.47834,-0.58736 2.86368,-1.21978 3.0785,-1.40538 0.55424,-0.47875 -2.3801,-4.32089 -4.6839,-6.13305 -2.23376,-1.75706 -8.60298,-4.91267 -12.14992,-6.01971 -7.66701,-2.39293 -15.62557,-1.69053 -23.56052,2.07936 -8.10787,3.85206 -12.26291,8.47856 -15.06998,16.78006 -0.73178,2.16403 -0.8889,3.26304 -1.01584,7.10535 -0.0826,2.49993 -0.071,4.75168 0.0259,5.00387 0.14675,0.38243 0.72461,0.31027 3.47987,-0.43447 1.81715,-0.49116 4.93047,-1.27801 6.91847,-1.74851 z m -118.3056,-25.26979 c 9.79642,-1.94477 14.69978,-3.08618 22.21104,-5.17031 11.53578,-3.2008 15.52,-4.3808 15.52,-4.59657 0,-0.1169 -1.044,-0.45578 -2.32,-0.75309 -7.02618,-1.63703 -16.20867,-2.23578 -20.83917,-1.35885 -7.20585,1.36464 -13.88329,5.03133 -19.55817,10.73968 -1.40122,1.40947 -2.46599,2.56269 -2.36621,2.56269 0.0998,0 3.40842,-0.64061 7.35251,-1.42355 z M 507.99999,727.2319 c -2.10586,-0.92809 -3.68,-3.26979 -3.68,-5.4743 0,-1.9296 1.48557,-4.3471 8.15904,-13.27754 4.62246,-6.18576 7.00585,-9.71968 10.47251,-15.52793 6.89459,-11.55162 9.73577,-17.04589 12.56749,-24.30301 4.01827,-10.29812 5.04156,-14.32055 5.66003,-22.24906 0.42473,-5.44531 0.18419,-8.48628 -0.64512,-8.15556 -0.29367,0.11712 -1.63943,0.29191 -2.99056,0.38839 -2.22707,0.15901 -2.58618,0.0995 -3.84343,-0.63735 -2.495,-1.46214 -3.48521,-4.15228 -2.6822,-7.28678 0.27622,-1.07821 0.50224,-2.60138 0.50224,-3.38483 0,-0.78343 0.22723,-1.95981 0.50496,-2.61415 0.27772,-0.65436 0.92006,-2.31776 1.42739,-3.69641 1.42457,-3.87127 3.08349,-6.55152 5.57865,-9.01332 5.2033,-5.1336 11.37856,-6.55356 19.7234,-4.53529 5.32726,1.28845 12.91331,4.85798 16.40508,7.71923 2.02528,1.65955 3.91309,4.58087 4.36407,6.75315 0.30457,1.46717 0.28173,2.02141 -0.13363,3.24039 -1.11652,3.27673 -2.99767,4.58189 -9.21674,6.39449 -2.16326,0.6305 -4.16477,1.26688 -4.44784,1.41418 -0.42246,0.21987 -0.55549,1.14451 -0.7424,5.16086 -0.12525,2.69114 -0.43478,7.413 -0.68787,10.493 -0.25306,3.08 -0.60131,9.992 -0.77389,15.36 -0.4784,14.88173 -1.04509,19.92115 -3.20269,28.48 -2.34483,9.30157 -5.62845,16.9512 -11.12624,25.92 -2.47817,4.04282 -3.05113,4.70855 -4.71225,5.4752 -4.4536,2.05546 -9.15424,-1.93417 -7.88224,-6.69001 0.20588,-0.76979 1.46265,-3.22339 2.79283,-5.45242 7.47971,-12.53408 11.23558,-24.93626 11.79049,-38.93277 0.10464,-2.64 0.27418,-6.744 0.37668,-9.12 0.10252,-2.376 0.11331,-4.248 0.024,-4.16 -0.0894,0.088 -0.82327,2.14016 -1.63095,4.56035 -3.27245,9.80586 -6.08435,16.27789 -10.65869,24.53271 -6.42195,11.58896 -10.66172,18.26166 -16.89312,26.58694 -1.77843,2.376 -3.93372,5.328 -4.78953,6.56 -2.04787,2.948 -3.92909,4.9296 -5.19914,5.47655 -1.28281,0.55245 -3.15065,0.55046 -4.41027,-0.005 z m 41.8655,-102.91428 c 2.08205,-0.35145 4.60205,-0.90396 5.6,-1.22777 0.99798,-0.32384 2.7913,-0.85018 3.98515,-1.16967 l 2.17063,-0.58086 -2.01063,-0.8983 c -2.6927,-1.20301 -6.32902,-1.99328 -8.30013,-1.80391 -2.61145,0.25095 -5.3503,2.73226 -6.18444,5.60295 -0.26237,0.90294 -0.15994,0.9046 4.73942,0.0776 z m -171.25164,15.31581 c -2.75594,-1.36416 -3.837,-4.44829 -2.67568,-7.63337 0.35296,-0.968 2.47273,-5.648 4.71065,-10.4 7.40499,-15.72397 9.76573,-21.00916 11.06151,-24.76445 2.29155,-6.64113 4.23785,-15.12455 3.60364,-15.7074 -0.15068,-0.13846 -2.00198,-0.64656 -4.11398,-1.12905 -4.50656,-1.02957 -5.88646,-1.65831 -7.0833,-3.22743 -1.24316,-1.62985 -1.44534,-4.41402 -0.4438,-6.11149 0.94304,-1.59837 0.98108,-2.87219 0.13196,-4.42019 -0.97728,-1.78166 -1.1855,-3.07786 -0.75264,-4.68541 0.48746,-1.81021 1.94221,-3.12726 4.49831,-4.07245 1.1272,-0.4168 3.92953,-1.74044 6.22739,-2.9414 8.6479,-4.51981 12.41699,-5.01223 20.30208,-2.65242 9.27971,2.77718 18.55683,10.18691 21.97501,17.55168 1.18646,2.55629 1.27337,6.61213 0.18605,8.68103 -1.04474,1.9878 -3.27005,3.78259 -5.43687,4.38499 -3.67417,1.02144 -16.48537,1.54246 -21.19421,0.86195 -2.29356,-0.33146 -2.55667,-0.18851 -2.56508,1.3935 -0.007,1.37604 -1.52743,7.89911 -2.73085,11.71853 -2.15472,6.83876 -4.11392,11.56781 -8.94861,21.60001 -1.35709,2.816 -3.32736,6.992 -4.37837,9.28 -3.62944,7.90115 -4.78166,10.04406 -5.95395,11.07337 -2.25126,1.97661 -4.13782,2.32928 -6.41926,1.2 z m 44.10614,-68.39892 c 0,-0.59523 -3.99315,-3.94864 -6.34662,-5.32982 -1.34938,-0.7919 -3.82138,-1.88134 -5.49338,-2.42096 -4.29056,-1.38474 -5.46618,-1.25277 -10.72982,1.20445 -2.2826,1.06557 -4.83511,2.18694 -5.67223,2.4919 -0.83712,0.30496 -1.45043,0.67034 -1.36288,0.81197 0.0875,0.14163 1.85245,0.56557 3.92205,0.94205 2.06957,0.37648 5.63488,1.03638 7.92288,1.46643 2.288,0.43002 4.592,0.83629 5.12,0.90275 2.05878,0.25923 12.64,0.20167 12.64,-0.0688 z M 176,498.32916 c -1.14033,-0.42851 -2.30197,-1.51609 -2.92619,-2.73964 -1.15553,-2.26503 -0.48519,-5.38397 2.76598,-12.86948 3.39113,-7.80777 8.69325,-17.80925 11.6109,-21.90185 3.61049,-5.06445 6.25559,-7.56493 16.0693,-15.19079 9.19464,-7.1448 14.14788,-10.45213 24.96,-16.66605 8.40063,-4.828 11.39815,-6.28016 16.14647,-7.82218 6.52345,-2.11852 8.47361,-2.41913 15.69353,-2.41913 7.00001,0 8.97004,0.29821 14.24,2.15561 7.6135,2.68336 12.52648,5.99789 20.01031,13.5 12.35433,12.38449 18.39566,20.87495 20.32833,28.56942 1.09162,4.34604 0.16999,7.22284 -2.98183,9.30758 -2.12494,1.4055 -3.24794,1.32976 -27.91681,-1.88307 -4.048,-0.5272 -9.448,-1.30855 -12,-1.73635 -6.57875,-1.10279 -9.23827,-1.23623 -16.35554,-0.82061 -9.82262,0.57363 -17.73201,1.92573 -27.19345,4.6487 -5.55696,1.59927 -7.45105,2.28298 -12.93101,4.66755 -9.78091,4.25616 -16.05903,7.94401 -25.26301,14.83978 -2.92133,2.18871 -4.60702,3.22506 -5.81895,3.57735 -0.93842,0.27283 -1.79807,0.64467 -1.91034,0.82633 -0.11228,0.18167 -0.86313,0.74819 -1.66856,1.25901 -1.43078,0.90736 -3.50769,1.20563 -4.85913,0.69782 z m 21.13026,-25.4008 c 12.86285,-7.36931 26.81859,-12.51053 41.1468,-15.15824 7.37312,-1.3625 11.73042,-1.78739 20.28293,-1.97789 8.00594,-0.17833 8.27479,-0.16323 14.24,0.79914 5.56547,0.89789 15.87846,2.3111 24.07127,3.29853 1.7992,0.21686 3.36947,0.29606 3.4895,0.17603 0.12003,-0.12 -0.43499,-1.19194 -1.23338,-2.38205 -4.06426,-6.05837 -16.1378,-18.62672 -20.72739,-21.57683 -3.9467,-2.5369 -6.62835,-3.72772 -10.58757,-4.70157 -5.66954,-1.39456 -11.38545,-1.18621 -17.86251,0.65107 -4.23471,1.20125 -7.64677,2.79747 -14.93789,6.98826 -10.98155,6.312 -15.48309,9.32793 -25.17329,16.8656 -7.06133,5.49277 -8.98825,7.20931 -11.18022,9.95968 -2.25842,2.8337 -6.1786,9.32995 -5.6302,9.32995 0.0752,0 1.92112,-1.02227 4.10195,-2.27168 z"
       id="path871" />
  </g>
</svg>
