<?xml version="1.0" encoding="UTF-8" standalone="no"?>
<!-- Created with Inkscape (http://www.inkscape.org/) -->

<svg
   version="1.1"
   id="svg2"
   width="414.85577"
   height="342.85757"
   viewBox="0 0 414.85578 342.85759"
   sodipodi:docname="shroom2.svg"
   inkscape:version="1.1.2 (0a00cf5339, 2022-02-04)"
   xmlns:inkscape="http://www.inkscape.org/namespaces/inkscape"
   xmlns:sodipodi="http://sodipodi.sourceforge.net/DTD/sodipodi-0.dtd"
   xmlns="http://www.w3.org/2000/svg"
   xmlns:svg="http://www.w3.org/2000/svg">
  <defs
     id="defs6" />
  <sodipodi:namedview
     id="namedview4"
     pagecolor="#ffffff"
     bordercolor="#666666"
     borderopacity="1.0"
     inkscape:pageshadow="2"
     inkscape:pageopacity="0.0"
     inkscape:pagecheckerboard="0"
     showgrid="false"
     inkscape:zoom="0.89090347"
     inkscape:cx="-200.35841"
     inkscape:cy="98.214905"
     inkscape:window-width="1920"
     inkscape:window-height="1044"
     inkscape:window-x="0"
     inkscape:window-y="0"
     inkscape:window-maximized="1"
     inkscape:current-layer="g8" />
  <g
     inkscape:groupmode="layer"
     inkscape:label="Image"
     id="g8"
     transform="translate(-168.97392,-412.98954)">
    <path
       style="fill:#ffffdd;stroke-width:0.32;fill-opacity:1"
       d="m 229.59999,748.8481 c -2.35381,-1.12496 -4.47295,-3.89399 -7.31764,-9.56179 -2.90563,-5.78919 -5.14244,-12.14836 -8.35968,-23.76625 -0.99913,-3.608 -2.82303,-9.35411 -4.05311,-12.76912 -1.23008,-3.41501 -2.61227,-7.54598 -3.07153,-9.17997 -0.78724,-2.80086 -0.87285,-2.95113 -1.49652,-2.62691 -0.7401,0.3848 -6.3883,6.01965 -13.15249,13.12141 -4.97547,5.22378 -6.13602,5.97808 -9.62932,6.2585 -1.75441,0.14083 -2.1782,0.0557 -3.4578,-0.69415 -2.17516,-1.27472 -2.58216,-2.26892 -2.5194,-6.15414 0.0929,-5.74944 1.88011,-13.82515 4.59199,-20.74916 1.57232,-4.01443 5.25867,-10.7718 7.98551,-14.63804 2.87381,-4.07466 7.87214,-9.1898 11.03885,-11.29684 3.08098,-2.05001 7.94966,-4.05472 11.6861,-4.81184 9.80055,-1.98582 20.49487,3.57847 20.46802,10.64964 -0.0121,3.196 -0.92481,4.50224 -6.24303,8.93513 -1.23754,1.03152 -2.87588,2.55949 -3.64076,3.39549 -1.30314,1.42432 -1.3428,1.52006 -0.62994,1.52118 1.12564,0.003 2.6896,1.07716 3.82231,2.62823 2.45871,3.36681 8.49858,14.01542 13.02889,22.97059 9.75334,19.27965 11.87505,22.80967 18.37483,30.5713 2.93602,3.50599 3.45472,4.47744 3.45472,6.47018 0,3.04905 -2.58017,5.65424 -5.6,5.65424 -2.57644,0 -4.3722,-1.38029 -8.51226,-6.54279 -5.81484,-7.25088 -8.85808,-12.30301 -16.32268,-27.09757 -2.94838,-5.84358 -6.79738,-13.25958 -8.55333,-16.48 -1.75596,-3.22045 -3.80354,-7.09421 -4.5502,-8.60835 -0.74665,-1.51418 -1.645,-2.93255 -1.99634,-3.15197 -0.57263,-0.3576 -0.82963,-0.20506 -2.48139,1.47302 l -1.84259,1.87194 1.72858,0.017 c 3.1644,0.031 3.81529,0.94295 7.78574,10.90887 1.65488,4.15376 3.52919,9.78953 5.41241,16.27424 4.11458,14.16819 6.05244,19.15616 9.58049,24.65981 1.91191,2.98253 2.31157,3.93344 2.31157,5.5 0,3.89933 -4.44143,6.87251 -7.84,5.24822 z M 203.3652,676.13747 c 1.75714,-1.68442 5.21079,-4.90791 7.67479,-7.1633 6.58132,-6.02409 6.13795,-5.39472 3.67248,-5.21318 -5.78814,0.42624 -11.83806,4.95414 -16.79298,12.56829 -1.98277,3.04684 -5.27949,9.14189 -5.27949,9.76077 0,0.23977 1.69434,-1.21239 3.7652,-3.22701 2.07087,-2.01463 5.20287,-5.04116 6.96,-6.72557 z m 74.63401,63.05856 c -0.66043,-0.35862 -1.59643,-1.24944 -2.08,-1.97958 l -0.87922,-1.32755 -0.19871,-8.50442 c -0.2018,-8.63677 -0.48904,-11.74643 -2.21915,-24.02442 -3.75484,-26.64675 -8.59959,-45.25111 -20.29111,-77.92 -1.70065,-4.752 -4.31605,-12.60001 -5.81201,-17.44001 -4.53421,-14.66992 -5.41992,-17.41808 -11.49944,-35.68 -7.00338,-21.03706 -7.82033,-24.41277 -9.87404,-40.8 -1.07216,-8.55511 -1.09993,-8.88295 -1.62629,-19.2 -1.06704,-20.91479 -0.95941,-28.51725 0.43039,-30.40001 2.18866,-2.96499 7.2184,-2.91952 9.44681,0.0854 0.73303,0.98845 0.72188,0.84759 1.62717,20.55456 0.86535,18.83754 1.85893,29.14231 3.8568,40.00001 1.34308,7.29917 2.14721,10.07178 7.98162,27.52 5.70113,17.04967 7.48463,22.57875 10.77273,33.3969 2.3214,7.6376 3.1481,10.10256 7.5807,22.60311 10.38657,29.29168 15.06696,47.64477 18.93258,74.24 1.97226,13.56909 2.6494,21.19786 2.52131,28.40589 -0.10117,5.69319 -0.16574,6.26861 -0.86212,7.68282 -1.0761,2.18534 -2.54962,3.21011 -4.79852,3.33715 -1.35682,0.0766 -2.10873,-0.0607 -3.0095,-0.54989 z m 50.88369,-2.03683 c -1.79305,-0.66163 -2.73068,-1.37129 -3.3216,-2.51392 -0.55929,-1.08157 -0.55504,-1.65945 0.16621,-22.64522 0.23011,-6.6951 -0.0474,-13.00285 -0.73376,-16.67523 -0.27597,-1.47664 -0.63392,-4.19677 -0.79549,-6.04477 -0.60166,-6.88176 -4.23638,-20.41117 -7.60517,-28.30855 -2.87136,-6.73126 -4.75109,-9.98416 -16.65097,-28.81481 -7.71413,-12.20701 -11.97328,-20.33249 -18.00787,-34.35492 -6.55572,-15.23334 -12.0756,-30.12205 -22.10197,-59.61533 -9.82866,-28.91172 -12.48544,-39.73373 -12.46642,-50.78033 0.006,-3.73705 0.66323,-9.04729 1.47831,-11.95225 0.63145,-2.25047 2.4933,-4.51834 4.16131,-5.06884 2.68728,-0.88688 5.68846,0.43296 6.86232,3.01786 0.74332,1.63686 0.75836,2.85965 0.0752,6.11715 -0.39238,1.87107 -0.53549,4.15319 -0.53179,8.48 0.004,5.23293 0.10756,6.40282 0.88815,10.08 1.20726,5.6872 2.83876,11.98845 4.39056,16.95738 1.65484,5.29891 9.50985,28.66388 12.10362,36.00263 1.08858,3.08 2.8427,8.048 3.89806,11.04 2.8153,7.98157 3.7381,10.43341 6.92526,18.4 8.67391,21.68132 13.74816,31.81498 24.03516,48.00001 9.83028,15.46646 13.92461,22.63315 16.06756,28.12438 0.16406,0.42042 0.37664,0.68602 0.47238,0.59027 0.54615,-0.54614 3.04592,-26.43968 3.79162,-39.27465 0.27097,-4.66401 0.58435,-9.84801 0.69645,-11.52001 0.97056,-14.47885 0.7703,-56.41431 -0.34618,-72.48 -0.0856,-1.232 -0.2345,-4.472 -0.33082,-7.2 -0.0964,-2.728 -0.24323,-6.76 -0.32643,-8.96 -0.0832,-2.2 -0.17411,-7.6 -0.20205,-12 -0.12006,-18.91575 -1.09536,-24.87018 -6.28976,-38.40001 l -1.22854,-3.2 -1.09814,0.0373 c -0.60397,0.0205 -3.40215,0.95588 -6.21815,2.0786 -4.29569,1.71264 -5.42988,2.0415 -7.04475,2.04268 -1.61838,0 -2.16315,-0.15651 -3.42254,-0.99068 -1.11902,-0.74122 -2.00797,-1.04116 -3.51525,-1.18612 -1.1096,-0.10672 -4.59763,-0.99014 -7.75118,-1.96313 -7.1942,-2.21975 -9.62959,-2.55264 -16.98628,-2.32189 -10.57935,0.33187 -21.18759,2.79373 -34.08,7.90896 -7.80438,3.09651 -9.68725,3.90662 -15.32326,6.5928 -2.3558,1.12282 -4.33098,2.04147 -4.38928,2.04147 -0.16459,0 -12.23191,5.42912 -17.40746,7.83168 -6.5826,3.05572 -11.03138,5.28948 -13.74281,6.90029 -3.01643,1.79203 -5.30596,2.07367 -7.38021,0.90787 -2.60619,-1.46473 -3.59275,-4.6623 -2.25035,-7.29363 1.68563,-3.30409 4.66648,-4.94506 30.41337,-16.74269 25.15793,-11.52778 32.84207,-14.51859 44.64093,-17.3752 9.1612,-2.21802 11.86092,-2.53549 21.59907,-2.53987 9.79849,-0.004 9.77086,-0.008 18.37758,2.68717 2.27567,0.71273 4.19838,1.2351 4.27269,1.1608 0.25665,-0.25668 -2.87608,-5.84327 -4.47059,-7.97242 -2.91296,-3.8897 -8.93358,-8.55725 -14.81968,-11.48912 -11.73273,-5.8441 -21.90884,-7.95639 -31.36,-6.50944 -7.62821,1.16784 -22.22846,7.22758 -30.88,12.81654 -2.70041,1.74448 -12.66531,9.71012 -16.78326,13.41604 -4.97725,4.4792 -12.66286,12.30848 -14.22829,14.49421 -1.9492,2.7216 -2.92149,4.52083 -5.9378,10.98777 -2.72305,5.83824 -3.30457,7.2816 -4.14411,10.28602 -1.08503,3.88301 -5.30615,5.55082 -8.71563,3.44365 -2.40616,-1.48711 -2.91177,-4.07434 -1.71254,-8.76327 1.34688,-5.26627 6.60152,-16.8015 9.77653,-21.46195 3.04886,-4.47527 8.47159,-10.16784 17.42511,-18.29219 4.58953,-4.16452 13.74101,-11.44564 17.59999,-14.00292 8.60905,-5.70512 22.91157,-11.92816 32.76306,-14.25523 10.17254,-2.40291 22.1851,-1.04614 34.34622,3.87926 10.11745,4.0977 16.65006,8.23066 22.9074,14.49271 2.95243,2.95466 5.3907,6.41386 8.0891,11.4761 l 1.83484,3.44217 0.5423,-1.20217 c 0.73237,-1.62356 12.10463,-12.71783 16.19465,-15.79879 6.57302,-4.95139 12.19907,-7.97792 17.6039,-9.47005 2.90816,-0.80285 3.61508,-0.8711 8.91853,-0.86118 6.32717,0.0118 9.35939,0.42249 15.34902,2.07875 9.17504,2.53709 16.26964,6.03398 21.85501,10.77219 4.09152,3.47095 5.4577,5.42365 5.73338,8.19466 0.24243,2.43667 -1.04298,4.74182 -3.37901,6.05974 l -1.72157,0.97127 -6.91843,0.0802 c -9.5664,0.11081 -23.12246,1.76205 -36.60528,4.45878 -5.57814,1.11568 -17.13328,4.12717 -17.59293,4.58503 -0.13187,0.13136 0.33831,1.41821 1.04484,2.85968 3.49664,7.13373 5.46505,12.94128 6.53062,19.26758 1.03856,6.16612 1.39933,12.32071 1.62266,27.68001 0.10233,7.04 0.49884,18.416 0.88108,25.28 0.59866,10.74953 0.6954,15.89658 0.6976,37.12 0.003,24.21972 -0.11478,28.52586 -1.27731,46.88001 -1.05923,16.72323 -2.71843,32.42813 -6.25443,59.2 -1.02755,7.77994 -1.14845,10.82208 -0.60426,15.20544 1.06887,8.60976 1.02221,16.67431 -0.18323,31.67456 -0.65373,8.13453 -0.91728,9.68564 -1.80784,10.63924 -1.55315,1.6631 -4.06374,2.30646 -6.08701,1.5599 z m 6.2034,-290.10671 c 3.80089,-1.17283 12.25635,-3.18234 17.48691,-4.15591 5.6103,-1.04425 18.92176,-3.03603 22.70678,-3.3976 1.276,-0.12192 2.32,-0.31446 2.32,-0.4279 0,-0.57088 -8.84058,-3.30371 -13.0776,-4.04259 -3.58525,-0.62522 -10.22905,-0.61271 -12.69517,0.024 -3.43664,0.88713 -7.7032,3.13984 -12.30723,6.49814 -3.99891,2.9169 -7.45481,6.12951 -6.59369,6.12951 0.0694,0 1.04144,-0.2824 2.16,-0.62756 z m 44.31763,281.13372 c -1.86522,-0.68739 -2.94695,-1.91184 -3.50964,-3.97277 -1.21286,-4.44221 -4.1607,-26.32272 -5.50396,-40.85338 -0.56119,-6.0703 -1.53972,-14.42806 -2.22925,-19.04 -1.63271,-10.92016 -3.69271,-29.03648 -5.11239,-44.96 -0.62764,-7.04001 -1.35862,-15.17601 -1.62441,-18.08001 -0.94125,-10.2848 -1.4185,-16.60499 -2.05392,-27.2 -1.15911,-19.3256 -1.30003,-22.66989 -1.77331,-42.08 -0.54029,-22.15927 -1.83216,-43.0937 -3.35703,-54.40001 -1.668,-12.36784 -1.70694,-12.87811 -1.06617,-13.97174 1.0871,-1.85543 2.78435,-2.93283 4.85619,-3.08269 2.59878,-0.18797 4.33523,0.70714 5.17577,2.668 1.7688,4.12646 3.48618,16.30874 4.64458,32.94643 0.098,1.408 0.24438,3.424 0.32525,4.48 0.56061,7.32205 1.10057,19.89834 1.25715,29.28001 0.23437,14.04541 0.65645,25.24214 1.45363,38.56 0.93488,15.61895 1.21661,19.59939 2.06099,29.12 0.42144,4.752 1.00061,11.448 1.28704,14.88 0.28644,3.432 0.65684,7.56634 0.82317,9.1874 0.16631,1.62105 0.30237,3.16905 0.30237,3.44 0,1.06589 0.61053,0.39648 1.37475,-1.50739 0.44157,-1.1 2.63194,-6.032 4.86752,-10.96001 2.23555,-4.928 6.28579,-14.576 9.00055,-21.44 2.71472,-6.864 5.06758,-12.79305 5.22857,-13.17571 0.39453,-0.9376 0.14858,-1.08704 -3.83139,-2.32746 -4.01587,-1.25161 -4.94355,-1.69193 -6.3473,-3.01267 -1.50432,-1.41533 -1.9727,-2.47386 -1.9727,-4.45818 0,-3.66995 2.15498,-7.83382 6.69562,-12.93731 5.23081,-5.8792 9.52876,-8.95053 14.42316,-10.30682 4.54445,-1.25932 9.42775,-0.61027 16.48122,2.19056 4.80762,1.90906 7.57158,3.47053 10.15603,5.73754 4.34768,3.81367 8.71616,9.66291 10.02285,13.42029 1.61507,4.64413 1.67667,11.13776 0.13584,14.32067 -0.79632,1.64496 -2.30743,3.20052 -3.97779,4.09476 -1.10688,0.5926 -1.85962,0.70054 -5.13693,0.73673 -5.42442,0.0599 -13.65891,-0.94253 -14.71798,-1.79168 -0.38036,-0.30493 -8.51853,-2.60016 -9.95066,-2.80637 l -0.98867,-0.14236 -1.51946,4.58899 c -2.21453,6.68825 -8.28496,21.80189 -11.86845,29.54902 -6.36816,13.76743 -7.84224,17.49028 -9.43948,23.84001 -3.08461,12.26253 -4.14301,23.90816 -3.04368,33.48957 0.25939,2.26073 0.767,7.35043 1.128,11.31043 0.36102,3.96 1.0128,10.20893 1.44838,13.88653 0.43562,3.67757 0.792,6.76637 0.792,6.864 0,0.0976 0.12678,0.0407 0.28176,-0.12653 0.15494,-0.1672 0.53066,-1.456 0.83485,-2.864 2.33347,-10.80045 7.63437,-22.72288 14.08547,-31.68 4.22003,-5.85939 3.82464,-4.95162 3.3543,-7.70109 -0.29289,-1.71229 -0.34944,-3.90112 -0.19449,-7.52602 0.36925,-8.63648 1.25645,-14.6015 3.82739,-25.73289 0.4065,-1.76 1.568,-6.8 2.58115,-11.2 4.6329,-20.12026 7.01299,-28.7809 8.29987,-30.20126 2.00381,-2.21164 5.86688,-2.12256 8.28231,0.19101 1.89933,1.81923 1.84877,2.52752 -1.06816,14.97024 -0.70141,2.992 -1.78029,7.672 -2.39751,10.4 -0.61718,2.728 -1.83923,7.91201 -2.71564,11.52001 -2.41847,9.95628 -3.7176,16.10665 -4.43629,21.00195 -0.72535,4.94074 -0.80218,6.3023 -0.34672,6.1447 0.16957,-0.0587 3.30157,-3.06124 6.96,-6.67241 11.11389,-10.97021 17.011,-16.6344 21.37171,-20.52743 4.27305,-3.81478 12.23235,-11.73792 15.21597,-15.14682 2.66124,-3.04054 8.46988,-12.09187 10.67868,-16.64 5.35956,-11.0359 8.344,-22.28646 9.29508,-35.04 1.30329,-17.47703 0.2831,-32.17312 -3.32356,-47.87703 -2.82336,-12.29322 -5.46617,-26.54192 -5.46617,-29.47069 0,-0.60189 0.15053,-1.37565 0.33453,-1.71942 0.31456,-0.58781 0.25308,-0.61207 -1.03101,-0.40672 -2.04435,0.32691 -12.90483,3.93718 -18.18352,6.04464 -7.17901,2.86614 -9.59635,2.58358 -11.95895,-1.39786 -0.64476,-1.08659 -1.25312,-1.76432 -1.51843,-1.69158 -0.24342,0.0667 -1.1128,0.19171 -1.93187,0.27776 -2.92963,0.30771 -5.71075,-2.3034 -5.71075,-5.36164 0,-1.58867 2.14829,-7.1846 6.14141,-15.99747 4.78176,-10.55338 7.88345,-15.54464 12.89852,-20.75635 5.69757,-5.92096 10.54442,-8.61392 19.04007,-10.57892 4.49862,-1.04051 11.26566,-1.72022 15.2,-1.52678 3.82816,0.18826 9.7975,1.5039 13.34675,2.94166 4.69904,1.90352 12.54269,7.53664 16.57958,11.90705 2.41492,2.61443 5.05296,6.59971 6.0777,9.18156 0.85888,2.16394 1.02083,5.31767 0.38272,7.45188 -0.22039,0.73702 -0.95466,2.04089 -1.63171,2.89744 -1.54375,1.95299 -3.43795,2.83597 -9.47504,4.41689 -2.464,0.64522 -4.65882,1.31856 -4.87735,1.49632 -0.30585,0.24877 -0.20214,0.55412 0.4504,1.32621 2.25136,2.66384 4.75786,10.33504 7.46036,22.83258 3.45974,15.99933 4.35356,24.9937 4.61996,46.49047 0.21536,17.37677 -0.58784,30.26979 -3.50854,56.32 -1.91037,17.03888 -4.40886,27.72026 -9.43123,40.32001 -6.56122,16.46016 -11.73271,25.85776 -19.63594,35.68227 -10.94899,13.61069 -15.78035,20.14698 -20.57641,27.83773 -7.75258,12.43162 -10.84103,18.26839 -12.16266,22.98576 -0.65987,2.3554 -1.16003,3.4714 -1.99053,4.44167 -1.87017,2.18486 -4.35056,2.75568 -6.72054,1.54659 -6.59917,-3.36662 -3.47555,-12.69946 12.89136,-38.51712 3.00774,-4.74452 10.90064,-15.28132 18.31792,-24.45392 5.46742,-6.76132 7.86291,-10.46113 11.96717,-18.48298 6.93734,-13.5593 11.55881,-26.94141 13.75868,-39.84001 1.15434,-6.76835 3.33434,-26.66937 4.32912,-39.52 1.08544,-14.02186 0.90634,-41.38999 -0.35017,-53.50711 -0.97975,-9.44806 -4.76749,-27.52621 -7.70435,-36.7712 -0.98029,-3.08592 -1.08621,-3.71821 -0.79776,-4.76291 l 0.33264,-1.20464 -1.50608,0.1888 c -1.67268,0.20963 -9.42938,2.62566 -13.25357,4.12816 l -2.46755,0.96947 1.02755,0.68393 c 1.92528,1.28151 2.62045,3.52292 5.51913,17.79549 0.98298,4.84 2.14695,10.312 2.58656,12.16001 2.15088,9.04124 3.38948,16.64918 3.95933,24.32 0.7384,9.93904 0.22528,29.21338 -0.97926,36.7848 -1.68359,10.58282 -5.53795,22.71911 -10.07927,31.737 -2.31414,4.59523 -7.6912,12.90332 -10.96208,16.93744 -2.84281,3.50617 -13.01462,13.74861 -17.97689,18.10169 -6.76362,5.93332 -29.4537,28.46061 -34.28502,34.03908 -9.76727,11.27773 -15.30874,21.46355 -18.50813,34.02007 -1.3905,5.45728 -1.9241,10.0344 -1.92576,16.51891 0,3.71331 -0.0927,4.48829 -0.67386,5.6887 -1.02902,2.1257 -2.42048,3.0129 -5.17405,3.29904 -1.27225,0.13223 -2.53331,0.33197 -2.80236,0.44391 -0.26906,0.11193 -0.76551,0 -1.1032,-0.24547 -0.53581,-0.39181 -0.76468,-0.37047 -1.79687,0.16752 -1.62371,0.84633 -3.1023,0.99315 -4.56681,0.45347 z m 51.20553,-156.18718 c -0.10864,-0.79258 -0.47619,-1.9873 -0.81683,-2.65501 -0.83456,-1.63584 -4.5064,-6.14845 -6.01446,-7.39162 -3.17613,-2.61821 -10.66077,-5.56905 -14.17818,-5.58979 -1.70547,-0.01 -2.38701,0.15507 -3.78496,0.91702 -2.352,1.28199 -8.78176,7.22036 -8.31894,7.6832 0.0668,0.0668 1.73331,0.55965 3.70345,1.09533 1.97015,0.53571 5.13421,1.5441 7.03127,2.24087 6.5936,2.42185 17.163,4.91229 21.65267,5.10201 0.91446,0.0386 0.92157,0.025 0.72598,-1.40201 z m 16.75053,-99.55054 c 9.51462,-3.72995 41.70605,-14.0312 53.44,-17.10077 2.904,-0.75968 5.41024,-1.49315 5.56944,-1.62989 0.8327,-0.71539 -5.11376,-6.6552 -9.88752,-9.87648 -3.21456,-2.16918 -5.03754,-2.97549 -9.05728,-4.00617 -5.08439,-1.30362 -11.13264,-1.077 -18.30464,0.68592 -7.54717,1.8551 -12.19082,5.50601 -17.18922,13.51443 -1.74067,2.78886 -10.01078,19.55926 -10.01078,20.30016 0,0.16106 0.18,0.21158 0.4,0.11229 0.22,-0.0993 2.488,-0.99907 5.04,-1.99949 z m 58.7992,255.22754 c -1.47194,-0.79933 -2.7017,-2.59609 -2.9792,-4.35293 -0.28791,-1.82265 0.53065,-3.53145 3.45334,-7.20908 5.26272,-6.62208 17.26755,-23.40884 21.47338,-30.02689 2.77916,-4.37318 6.524,-11.65817 8.31059,-16.16707 3.18713,-8.04339 4.55469,-14.65123 5.03037,-24.30592 0.17379,-3.52775 0.39072,-6.74125 0.48201,-7.14112 0.11079,-0.48516 -0.006,-0.79303 -0.35113,-0.92548 -0.28445,-0.10915 -2.48397,0.11088 -4.88788,0.4889 -5.19507,0.81702 -6.19641,0.84045 -8.1064,0.18963 -2.85174,-0.97168 -5.4191,-4.41981 -5.64809,-7.58579 l -0.13603,-1.88064 5.8799,-5.93555 c 10.32806,-10.42576 13.08832,-12.60548 18.13808,-14.32301 4.1839,-1.42301 7.95952,-1.89811 15.26186,-1.92048 6.32515,-0.0192 6.82876,0.0234 8.57107,0.72659 2.8168,1.13693 5.41491,3.72029 6.93936,6.89997 3.45309,7.20246 3.71139,12.29878 0.78739,15.5353 -1.34246,1.48595 -3.0104,2.3008 -6.21782,3.03763 -1.32,0.30323 -2.77488,0.69251 -3.23306,0.86502 l -0.83302,0.3137 -0.19066,8.86061 c -0.24611,11.43696 -0.86138,16.89401 -3.61469,32.06064 -3.54742,19.54093 -6.65837,27.16538 -18.60566,45.6 -2.45008,3.78042 -3.35383,4.8082 -4.95018,5.62932 -3.63171,1.86806 -7.94429,-0.86205 -7.92569,-5.01744 0.009,-2.08855 0.49814,-3.07034 5.08435,-10.21188 4.27638,-6.65907 9.0511,-15.91968 10.55936,-20.48 2.82864,-8.55258 6.46825,-28.41434 7.38854,-40.32 0.19047,-2.464 0.52541,-6.69248 0.74432,-9.39661 0.44845,-5.53952 0.48272,-5.44512 -1.80249,-4.964 l -1.34112,0.28233 -0.19703,8.31914 c -0.2151,9.08291 -0.69107,13.16202 -2.20281,18.87914 -1.84503,6.97734 -3.07796,10.35482 -6.0906,16.68429 -4.00371,8.41162 -6.79145,12.88541 -16.62236,26.67571 -9.5721,13.4273 -14.24899,19.39856 -16.26826,20.77069 -1.61126,1.09488 -4.23638,1.24851 -5.89974,0.34528 z M 549.5013,624.31407 c 5.46403,-0.63731 17.91309,-2.50521 18.13059,-2.72041 0.0615,-0.0609 -0.0593,-0.62948 -0.26858,-1.26349 -0.66966,-2.02912 -1.30512,-2.21776 -6.66217,-1.97795 -5.19261,0.23248 -9.78093,1.04617 -11.84935,2.1014 -1.77036,0.90317 -5.81398,4.50644 -5.05715,4.50644 0.0924,0 2.66039,-0.29069 5.70666,-0.64599 z"
       id="path971" />
  </g>
</svg>
