<?xml version="1.0" encoding="UTF-8" standalone="no"?>
<svg
   xmlns:svg="http://www.w3.org/2000/svg"
   xmlns="http://www.w3.org/2000/svg"
   xmlns:sodipodi="http://sodipodi.sourceforge.net/DTD/sodipodi-0.dtd"
   xmlns:inkscape="http://www.inkscape.org/namespaces/inkscape"
   inkscape:version="1.1-dev (1:0.92.0+devel+202005110039+9ce7266)"
   sodipodi:docname="01.svg"
   version="1.1"
   id="svg2"
   xml:space="preserve"
   width="2527.5789"
   height="2526.3159"
   viewBox="0 0 2527.5789 2526.3159"><sodipodi:namedview
     inkscape:current-layer="svg2"
     inkscape:window-maximized="0"
     inkscape:window-y="30"
     inkscape:window-x="0"
     inkscape:cy="1263.158"
     inkscape:cx="1263.7894"
     inkscape:zoom="0.26956249"
     showgrid="false"
     id="namedview7"
     inkscape:window-height="480"
     inkscape:window-width="796"
     inkscape:pageshadow="2"
     inkscape:pageopacity="0"
     guidetolerance="10"
     gridtolerance="10"
     objecttolerance="10"
     borderopacity="1"
     bordercolor="#666666"
     pagecolor="#ffffff" /><defs
     id="defs6" /><g
     style="fill:#625970;fill-opacity:1"
     id="g8"
     transform="matrix(1.3333333,0,0,1.3333333,0,4.5824564e-5)"><g
       style="fill:#625970;fill-opacity:1"
       id="g10"><path
         d="m 1064.582,1869.996 c -35.152,-3.387 -88.883,-14.793 -157.949,-33.527 -51.403,-13.942 -158.379,-45.047 -184.738,-53.711 -158.129,-51.988 -279.93,-143.25 -346.743,-259.801 -16.629,-29.008 -34.058,-71.371 -34.09,-82.844 -0.019,-8.316 6.52,-14.062 14.926,-13.113 6.645,0.75 9.766,4.637 13.485,16.789 9.183,30.035 27.793,66.652 49.843,98.07 49.149,70.032 119.469,128.649 206.739,172.329 44.281,22.167 87.207,38.378 150.789,56.945 150.043,43.824 220.254,61.707 273.789,69.734 19.859,2.977 56.125,3.238 67.262,0.481 22.839,-5.657 37.152,-18.879 51.414,-47.504 25.187,-50.563 47.441,-146.996 60.812,-263.551 1.324,-11.563 2.797,-22.047 3.274,-23.297 1.148,-3.023 5.996,-7.004 9.449,-7.762 3.773,-0.828 9.746,0.903 12.125,3.52 4.929,5.41 4.996,6.867 1.668,36.516 -16.375,145.91 -48.348,259.71 -84.407,300.437 -14.343,16.199 -34.441,26.301 -59.546,29.938 -10.289,1.492 -34.442,1.667 -48.102,0.351 z M 875.367,1674.875 c -88.308,-4.723 -155.762,-20.844 -193.805,-46.32 -21.089,-14.121 -34.437,-31.532 -40.335,-52.606 -3.043,-10.871 -3.012,-28.64 0.074,-41.211 11.176,-45.535 40.554,-82.109 89.594,-111.539 35.687,-21.418 83.425,-39.179 132.043,-49.129 17.824,-3.648 20.785,-3.847 25.3,-1.707 9.117,4.328 9.379,18.938 0.418,23.571 -1.594,0.824 -7.687,2.359 -13.543,3.406 -55.465,9.933 -113.738,33.496 -150.949,61.039 -11.43,8.461 -31.219,28.793 -38.098,39.144 -16.812,25.297 -24.031,54.391 -18.187,73.313 13.562,43.91 104.644,73.199 234.016,75.258 28.949,0.461 32.085,0.668 35.707,2.367 9.867,4.629 9.882,19.176 0.023,23.851 -2.852,1.356 -6.586,1.563 -25.926,1.442 -12.426,-0.078 -28.777,-0.473 -36.332,-0.879 z m 464.824,-87.109 c -3.98,-1.196 -8.496,-4.555 -10.757,-8.008 -3.34,-5.094 -6.618,-17.227 -11.18,-41.387 -7.57,-40.117 -13.457,-60.098 -24.086,-81.793 -10.457,-21.34 -21.152,-34.723 -40.926,-51.203 -34.433,-28.699 -93.465,-60.09 -155.75,-82.816 -17.019,-6.211 -20.445,-8.36 -22.301,-13.989 -2.785,-8.433 3.786,-17.308 12.809,-17.308 3.852,0 26.422,7.82 47.895,16.59 80.937,33.058 140.734,72.824 168.859,112.293 8.004,11.226 19.332,33.855 24.414,48.75 5.613,16.464 8.766,28.933 14.723,58.218 2.906,14.305 5.504,26.36 5.773,26.793 0.266,0.43 2.262,-0.562 4.434,-2.203 9.199,-6.945 29.687,-19.793 60.324,-37.828 40.723,-23.973 59.719,-35.477 79.156,-47.93 40.395,-25.89 67.766,-48.902 74.367,-62.531 1.555,-3.203 1.707,-4.391 0.852,-6.633 -9.117,-23.922 -9.992,-76.672 -2.336,-140.793 2.484,-20.82 3.449,-24.418 7.547,-28.199 2.176,-2.008 3.48,-2.367 8.586,-2.367 5.375,0 6.332,0.297 8.937,2.797 3.946,3.777 5.074,8.394 3.887,15.871 -4.559,28.64 -7.055,65.68 -6.406,95.015 0.547,24.653 1.918,36.946 5.343,47.844 3.641,11.582 2.106,22.223 -4.898,33.934 -7.543,12.617 -30.805,33.633 -58.508,52.867 -23.941,16.617 -34.285,22.992 -117.949,72.68 -25.457,15.117 -44.16,27.511 -51.805,34.332 -3.879,3.461 -7.304,5.593 -10.539,6.55 -5.308,1.579 -6.527,1.633 -10.465,0.454 z m -354.453,-29.735 c -9.593,-4.261 -10.871,-18.121 -2.179,-23.621 1.199,-0.758 6.75,-2.508 12.339,-3.887 16.399,-4.046 26.598,-8.828 35.02,-16.425 7.348,-6.621 9.5,-15.934 5.07,-21.938 -8.789,-11.91 -38.933,-24.906 -74.84,-32.265 -10.46,-2.141 -13,-3.415 -15.714,-7.868 -4.055,-6.648 -1.215,-15.453 6.152,-19.058 3.371,-1.653 4.336,-1.715 10.406,-0.676 26.106,4.469 59.578,16.008 75.86,26.156 21.664,13.504 30.843,30.242 26.875,49.004 -5.063,23.942 -27.614,41.559 -64.106,50.082 -9.16,2.141 -11.047,2.203 -14.883,0.496 z M 313.949,1311.074 c -19.308,-3.23 -36.582,-13.73 -47.176,-28.676 -23.953,-33.793 -28.211,-90.511 -17.105,-227.976 2.973,-36.781 5.52,-61.399 9.062,-87.633 12.997,-96.187 35.02,-179.184 60.211,-226.894 19.485,-36.911 37.821,-52.106 62.868,-52.106 24.98,0 51.605,15.258 82.879,47.492 14.124,14.555 23.128,25.535 24.714,30.133 2.473,7.184 -1.902,15.176 -9.418,17.203 -6.199,1.668 -10.648,-0.679 -17.746,-9.367 -23.965,-29.332 -49.605,-50.402 -68.605,-56.367 -13.422,-4.215 -19.957,-2.762 -29.945,6.66 -38.418,36.242 -73.141,166.48 -86.075,322.824 -11.863,143.43 -7.941,201.785 15.121,224.848 9.918,9.918 19.313,12.961 39.793,12.887 19.926,-0.075 37.879,-3.481 62.438,-11.836 12.664,-4.313 16.515,-4.602 21.027,-1.59 8.508,5.683 8.309,17.195 -0.387,22.539 -3.89,2.39 -26.183,9.703 -38.98,12.785 -22.098,5.328 -48.426,7.457 -62.676,5.074 z m 944.024,-92.527 c -1.375,-0.91 -6.918,-5.492 -12.317,-10.188 -47.297,-41.14 -110.426,-74.64 -166.605,-88.414 -28.242,-6.922 -49.196,-9.14 -79.102,-8.375 -34.137,0.875 -64.094,5.977 -96.633,16.457 -49.004,15.782 -101.878,46.293 -136.257,78.625 -7.043,6.625 -9.375,7.875 -14.672,7.871 -7.496,-0.011 -14.207,-8 -12.836,-15.285 1.578,-8.39 18.426,-37.172 33.433,-57.113 38.926,-51.73 89.973,-87.699 149.383,-105.266 26.879,-7.945 51.172,-11.16 84.211,-11.14 26.957,0.019 44.348,1.75 65.844,6.558 70.973,15.879 131.473,56.844 175.41,118.774 15.121,21.316 29.25,47.273 29.906,54.937 0.875,10.2 -11.468,18.043 -19.765,12.559 z m -858.164,-91.891 c -1.813,-0.91 -4.254,-3.086 -5.418,-4.832 -1.926,-2.883 -2.114,-4.246 -2.02,-14.683 0.055,-6.332 -0.402,-13.641 -1.023,-16.246 -1.825,-7.672 -7.082,-17.184 -16.762,-30.317 -22.422,-30.426 -29.738,-45.351 -33.07,-67.449 -1.774,-11.758 -1.766,-16.945 0.031,-27.254 1.848,-10.605 4.297,-17.867 9.558,-28.348 8.512,-16.961 19.036,-29.914 52.043,-64.054 11.332,-11.723 24.215,-25.653 28.622,-30.953 4.41,-5.301 9.226,-10.141 10.707,-10.754 6.285,-2.602 13.714,-0.407 17.035,5.043 2.074,3.398 2.461,10.062 0.769,13.281 -2.851,5.433 -17.613,21.992 -42.019,47.129 -29.067,29.941 -39.754,43.476 -45.805,58.008 -5.309,12.757 -6.172,27.55 -2.465,42.351 2.41,9.625 9.977,24.016 19.43,36.949 17.867,24.446 23.39,34.227 27.609,48.887 1.789,6.227 2.153,9.789 2.164,21.219 0.016,15.699 -0.957,18.629 -7.289,21.879 -4.367,2.242 -7.84,2.285 -12.097,0.144 z M 1584,1105.809 c -2.098,-1.125 -4.074,-3.325 -5.383,-5.981 -2.062,-4.191 -2.066,-4.219 -0.769,-26.461 4.89,-84.004 6.863,-205.578 4.273,-263.367 -2.937,-65.559 -9.156,-106.84 -18.492,-122.773 -1.313,-2.243 -2.738,-4.293 -3.164,-4.555 -0.426,-0.262 -3.684,-0.945 -7.242,-1.512 -8.106,-1.297 -18.075,0.047 -27.567,3.711 -13.058,5.043 -30.968,18.492 -41.558,31.203 -6.496,7.801 -9,9.106 -16.828,8.774 -3.735,-0.16 -9.043,-5.231 -10.278,-9.813 -1.644,-6.097 0.692,-10.691 10.824,-21.312 18.899,-19.801 37.77,-31.883 58.965,-37.746 7.434,-2.059 25.028,-2.813 33.031,-1.418 14.743,2.566 22.356,7.851 28.278,19.64 10.562,21.02 16.644,55.938 20.598,118.274 2.601,41.039 2.089,156.007 -1.028,229.265 -2.273,53.555 -3.82,75.688 -5.48,78.532 -3.739,6.406 -11.922,8.898 -18.18,5.539 z m -88.77,-43.77 c -3.765,-2.297 -5.968,-6.414 -5.96,-11.125 0,-1.976 1.714,-8.434 3.8,-14.34 6.239,-17.66 8.801,-32.035 8.899,-49.89 0.082,-14.766 0.019,-15.27 -2.43,-19.43 -4.73,-8.047 -15.828,-14.035 -43.906,-23.692 -19.477,-6.699 -24.524,-9.156 -29.86,-14.546 -6.019,-6.078 -8.035,-11.102 -8.035,-20.016 0,-6.828 0.321,-8.168 3.231,-13.539 3.293,-6.07 9.656,-12.641 19.707,-20.34 15.117,-11.578 42.836,-30.457 45.879,-31.246 7.562,-1.961 15.965,4.891 15.965,13.02 0,7.347 -1.567,8.843 -31.258,29.851 -15.309,10.832 -26.524,20.066 -26.524,21.84 0,1.644 7.047,4.859 22.282,10.164 21.828,7.598 29.636,10.973 37.675,16.289 11.524,7.613 18.996,16.949 22.383,27.961 5.098,16.566 2.387,49.805 -6.258,76.738 -4.66,14.516 -7.347,19.887 -11.109,22.211 -4.055,2.508 -10.449,2.547 -14.481,0.09 z M 812.242,929.848 c -14.097,-3.067 -25.34,-9.368 -36.347,-20.375 -15.77,-15.77 -22.7,-33.641 -21.493,-55.422 0.672,-12.125 2.418,-18.684 7.95,-29.84 3.769,-7.602 5.871,-10.418 13.527,-18.117 8.082,-8.129 10.137,-9.633 18.988,-13.903 13.367,-6.453 21.539,-8.152 36.336,-7.55 9.109,0.371 13.047,0.996 19.059,3.027 31.176,10.52 50.855,37.676 50.855,70.176 0,34.32 -22.918,63.531 -56.086,71.48 -9.386,2.25 -23.793,2.481 -32.789,0.524 z m 310.863,-7.653 c -14.566,-3.199 -30.667,-13.484 -39.839,-25.453 -9.469,-12.351 -13.961,-25.906 -13.993,-42.215 -0.027,-12.261 1.665,-19.238 7.571,-31.261 3.668,-7.465 5.804,-10.383 12.554,-17.133 6.75,-6.75 9.664,-8.887 17.129,-12.555 12.024,-5.902 19,-7.594 31.262,-7.57 16.539,0.035 29.609,4.43 42.738,14.375 8.149,6.176 14.153,13.738 19.285,24.301 5.645,11.605 7.524,20.742 6.903,33.539 -0.871,17.965 -7.567,32.8 -20.563,45.566 -8.574,8.422 -15.078,12.465 -26.324,16.352 -6.965,2.41 -10.055,2.921 -19.195,3.191 -7.391,0.219 -13.031,-0.148 -17.528,-1.137 z m -476.667,-156.8 c -1.641,-0.481 -4.305,-2.379 -5.922,-4.219 -2.485,-2.832 -2.938,-4.11 -2.938,-8.313 0,-4.117 0.703,-6.195 4.137,-12.218 9.015,-15.825 25.308,-33.829 41.812,-46.211 28.446,-21.34 64.711,-35.957 102.477,-41.301 14.375,-2.035 38.367,-2.059 50.535,-0.055 23.941,3.945 45.816,13.434 59.656,25.875 7.711,6.938 9.34,12.574 5.571,19.285 -2.801,4.981 -6.852,6.992 -12.911,6.41 -3.972,-0.378 -5.605,-1.164 -9.386,-4.492 -9.86,-8.687 -24.231,-15.383 -41.098,-19.144 -8.387,-1.867 -12.43,-2.196 -26.476,-2.145 -18.301,0.067 -28.493,1.422 -46.422,6.18 -22.344,5.93 -44.645,16.117 -61.547,28.113 -16.465,11.684 -33.082,30.106 -41.871,46.414 -2.582,4.797 -9.86,7.508 -15.617,5.821 z M 113.418,710.441 C 101.77,707.699 93.941,697.25 93.035,683.238 90.984,651.555 119.16,572.215 156.859,503.527 209.152,408.242 268.84,349.559 332.629,330.715 c 11.894,-3.512 24.101,-6.055 39.793,-8.289 16.848,-2.399 67.883,-2.406 89.894,-0.016 80.586,8.758 179.004,34.399 264.317,68.867 18.797,7.598 38.125,16.157 43.578,19.297 2.344,1.352 4.695,2.461 5.227,2.469 0.531,0.004 2.417,-2.656 4.191,-5.91 4.73,-8.684 11.496,-18.418 17.238,-24.797 27.11,-30.121 99.883,-67.77 199.055,-102.977 9.246,-3.285 16.801,-6.199 16.781,-6.48 -0.015,-0.281 -3.937,-3.496 -8.707,-7.141 C 936.102,213.832 818.168,113.828 753.457,53.289 739.035,39.793 737.523,37.199 738.168,27.062 c 0.312,-4.914 0.969,-7.011 3.199,-10.226 5.664,-8.176 17.656,-11.5 26.688,-7.398 2.343,1.062 12.937,9.996 25.578,21.566 70.055,64.113 145.269,128.184 216.734,184.613 23.996,18.945 41.375,32.317 48.383,37.223 l 5.75,4.027 17.461,-5.238 c 92.57,-27.777 178.133,-44.961 232.512,-46.695 48.234,-1.539 118.613,9.347 213.16,32.976 143.539,35.871 270.035,81.25 297.527,106.735 8.004,7.421 11.488,16.554 10.559,27.671 -1.121,13.368 -7.332,24.012 -23.27,39.872 -18.769,18.675 -40.449,33.265 -72.195,48.589 -69.188,33.391 -166.695,53.703 -259.043,53.953 -25.781,0.071 -38.422,-1.418 -63,-7.433 -76.879,-18.817 -175.777,-70.406 -294.16,-153.449 -20.969,-14.711 -21.926,-15.403 -49.938,-35.903 l -17.73,-12.976 -11.164,3.469 c -27.16,8.441 -75.625,26.585 -107.324,40.187 -48.188,20.676 -86.516,43.004 -107.426,62.586 -5.477,5.129 -15.324,19.734 -14.621,21.684 0.172,0.472 6.066,4.675 13.101,9.335 14.524,9.625 26.551,19.653 30.762,25.645 2.629,3.738 2.867,4.727 2.867,11.883 0,6.93 -0.289,8.242 -2.613,11.75 -3.957,5.984 -9.203,9.023 -16.352,9.48 -7.957,0.508 -11.73,-0.914 -18.73,-7.062 -5.41,-4.75 -19.871,-15.016 -28.344,-20.125 l -3.516,-2.117 -3.472,6.921 c -21.223,42.258 -39.824,63.786 -66.172,76.586 -18.07,8.774 -34.93,11.793 -65.906,11.801 -24.379,0 -29.723,-0.562 -71.524,-7.574 -59.914,-10.047 -89.195,-11.453 -106.176,-5.102 -8.183,3.063 -15.187,9.016 -28.941,24.594 -31.207,35.348 -45.316,44.977 -83.891,57.274 -10.851,3.461 -48.933,15.82 -84.625,27.464 -103.906,33.911 -137.304,44.02 -153.429,46.45 -10.082,1.519 -10.43,1.527 -15.469,0.343 z m 44.793,-53.011 c 16.422,-4.7 55.672,-17.231 119.367,-38.11 27.879,-9.136 59.852,-19.472 71.055,-22.972 37.23,-11.621 38.851,-12.727 72.933,-49.696 24.625,-26.714 47.481,-37.996 80.067,-39.523 21.519,-1.008 53.457,2.055 95.629,9.172 40.511,6.832 60.16,8.523 78.211,6.719 29.984,-3 41.648,-9.579 56.386,-31.809 6.582,-9.93 22.86,-39.117 22.121,-39.664 -6.98,-5.195 -47.878,-22.223 -85.253,-35.496 -91.27,-32.414 -182.079,-50.375 -254.629,-50.363 -51.067,0.007 -80.325,6.832 -107.625,25.109 -39.285,26.297 -81.305,78.168 -117.035,144.465 -21.27,39.468 -44.344,97.039 -49.102,122.511 l -0.848,4.539 2.965,-0.613 c 1.633,-0.336 8.723,-2.258 15.758,-4.269 z M 1518.156,469.84 c 101.504,-7.133 189.028,-33.016 244.414,-72.278 10.504,-7.445 22.114,-18.382 24.535,-23.117 l 1.579,-3.082 -15.422,-7.48 c -18.719,-9.074 -37.215,-16.574 -68.328,-27.699 -132.278,-47.297 -308.825,-87.899 -382.493,-87.965 -39.179,-0.035 -110.675,12.965 -193.652,35.211 -9.898,2.652 -18.336,5.125 -18.742,5.488 -0.746,0.664 38.691,28.98 68.953,49.504 115.562,78.383 210.016,122.769 280.895,132 10.605,1.379 33.585,1.152 58.261,-0.582 z M 1276.84,702.418 c -1.422,-0.77 -4.363,-4.059 -6.539,-7.305 -27.356,-40.804 -67.168,-69.422 -102.637,-73.781 -23.094,-2.836 -43,5.766 -60.957,26.34 -6.469,7.41 -10.32,9.473 -15.777,8.449 -9.77,-1.832 -13.879,-12.574 -8.219,-21.496 3.891,-6.137 13.59,-16.223 20.863,-21.695 30.438,-22.903 68.867,-25.11 108.582,-6.239 24.473,11.629 49.387,32.059 68.301,56.004 15.68,19.856 18.879,27.141 15.047,34.258 -3.387,6.289 -12.324,8.906 -18.664,5.465 z"
         style="fill:#625970;fill-opacity:1;fill-rule:nonzero;stroke:none"
         id="path12" /></g></g></svg>
