<?xml version="1.0" encoding="UTF-8" standalone="no"?>
<svg
   xmlns:svg="http://www.w3.org/2000/svg"
   xmlns="http://www.w3.org/2000/svg"
   xmlns:sodipodi="http://sodipodi.sourceforge.net/DTD/sodipodi-0.dtd"
   xmlns:inkscape="http://www.inkscape.org/namespaces/inkscape"
   inkscape:version="1.1-dev (1:0.92.0+devel+202005110039+9ce7266)"
   sodipodi:docname="02.svg"
   version="1.1"
   id="svg829"
   xml:space="preserve"
   width="2527.5789"
   height="2526.3159"
   viewBox="0 0 2527.5789 2526.3159"><sodipodi:namedview
     inkscape:current-layer="svg829"
     inkscape:window-maximized="0"
     inkscape:window-y="30"
     inkscape:window-x="0"
     inkscape:cy="1263.158"
     inkscape:cx="1263.7894"
     inkscape:zoom="0.26956249"
     showgrid="false"
     id="namedview7"
     inkscape:window-height="480"
     inkscape:window-width="796"
     inkscape:pageshadow="2"
     inkscape:pageopacity="0"
     guidetolerance="10"
     gridtolerance="10"
     objecttolerance="10"
     borderopacity="1"
     bordercolor="#666666"
     pagecolor="#ffffff" /><defs
     id="defs833" /><g
     style="fill:#625970;fill-opacity:1"
     id="g835"
     transform="matrix(1.3333333,0,0,1.3333333,0,4.5824564e-5)"><g
       style="fill:#625970;fill-opacity:1"
       id="g837"><path
         d="m 1119.816,1313.281 c -38.898,-3.707 -88.347,-15.129 -151.66,-35.027 -10.066,-3.164 -19.89,-5.762 -21.828,-5.77 -1.941,0 -10.988,-1.035 -20.101,-2.277 -14.43,-1.969 -16.789,-2.531 -18.27,-4.359 -2.164,-2.672 -2.168,-5.848 0,-8.516 2.156,-2.664 3.039,-2.676 22.984,-0.266 48.149,5.809 82.926,7.821 135.254,7.832 60.489,0 93.922,-4.101 132.364,-16.277 10.273,-3.258 33.554,-12.211 33.05,-12.715 -0.183,-0.183 -7.156,0.899 -15.5,2.406 -31.664,5.723 -74.648,11.29 -102.457,13.266 -37.929,2.703 -89.679,2.09 -123.859,-1.461 -16.113,-1.676 -18.039,-2.527 -18.039,-7.988 0,-2.969 0.504,-4.082 2.402,-5.324 2.121,-1.391 3.516,-1.453 12.102,-0.516 22.961,2.504 41.23,3.32 73.765,3.301 43.446,-0.028 73.563,-2.211 116.274,-8.449 19.004,-2.774 54.433,-8.805 56.476,-9.61 4.856,-1.918 -91.437,-14.609 -132.328,-17.441 -20.222,-1.402 -60.64,-0.629 -75.539,1.437 -41.773,5.805 -85.179,15.758 -128.777,29.528 -11.606,3.664 -13.793,4.097 -15.922,3.125 -2.41,-1.098 -4.043,-4.594 -3.48,-7.442 0.621,-3.133 3.718,-4.855 15.183,-8.449 58.172,-18.23 114.391,-29.789 157.207,-32.324 38.031,-2.246 100.153,3.465 180.332,16.586 48.778,7.984 48.883,8.011 48.883,14.34 0,2.695 -0.711,3.668 -4.984,6.804 -24.762,18.192 -67.688,35.469 -106.543,42.883 -8.758,1.672 -8.785,1.707 -3.703,4.891 10.027,6.277 15.586,13.398 15.718,20.148 0.164,8.047 -5.16,13.192 -16.836,16.274 -6.922,1.828 -29.707,2.578 -42.164,1.39 v 0 z m 39.801,-14.746 c 2.602,-0.773 5.031,-1.898 5.406,-2.504 1.075,-1.734 -7.668,-8.972 -15.183,-12.57 -3.723,-1.781 -10.129,-4.117 -14.238,-5.184 -6.934,-1.804 -8.508,-1.871 -22.118,-0.929 -8.328,0.578 -33.113,0.875 -57.41,0.695 -47.851,-0.359 -46.316,-0.906 -17.886,6.387 30.003,7.691 61.89,13.601 84,15.562 12.222,1.086 31.378,0.34 37.429,-1.457 z M 63.73,1013.387 C 47.031,1009.902 36.621,993.379 33,964.609 c -1.5,-11.91 -0.703,-50.816 1.375,-67.023 4.957,-38.684 10.738,-67.398 25.23,-125.289 22.114,-88.34 34.586,-121.762 51.883,-139.004 11.524,-11.484 29.453,-14.266 38.832,-6.031 6.496,5.703 7.532,9.019 7.496,24.015 -0.023,11.379 -0.418,14.86 -2.742,24.203 -5.375,21.637 -19.004,57.993 -22.426,59.825 -4.132,2.211 -10.394,-0.817 -10.394,-5.024 0,-0.855 1.949,-6.316 4.332,-12.136 6.863,-16.75 11.406,-30.047 14.781,-43.243 2.653,-10.379 3.133,-13.933 3.16,-23.464 0.032,-11.145 0.012,-11.25 -2.632,-13.524 -4.852,-4.18 -12.438,-2.504 -20.016,4.422 -14.395,13.156 -25.43,41.074 -43.18,109.226 -11.047,42.422 -23.836,97.622 -23.836,102.891 0,1.426 4.66,1.527 56.239,1.227 56.14,-0.332 56.246,-0.328 62.406,1.789 7.797,2.676 11.48,4.949 14.547,8.969 3.754,4.917 5.027,10.992 3.793,18.085 -1.039,5.965 -11.395,35.18 -16.231,45.782 -8.965,19.656 -33.34,47.48 -55.828,63.73 -9.766,7.055 -26.941,15.899 -34.637,17.832 -7.312,1.836 -16.707,2.5 -21.422,1.52 z m 21.34,-15.719 c 4.008,-1.336 10.36,-4.172 14.118,-6.309 6.824,-3.882 6.832,-3.89 8.769,-10.261 6.969,-22.95 10.5,-42.075 10.5,-56.879 0,-11.442 -1.387,-17.422 -5.203,-22.426 -5.508,-7.219 -27.488,-19.973 -47,-27.273 -4.961,-1.852 -10.152,-3.805 -11.539,-4.332 -2.524,-0.965 -2.524,-0.961 -3.637,5.386 -4.777,27.262 -7.082,68.93 -4.816,86.957 1.308,10.391 3.984,20.844 6.695,26.16 2.102,4.114 7.012,9.317 9.902,10.485 4.192,1.695 14.735,0.98 22.211,-1.508 z m 49.172,-33.879 c 15.449,-15.879 27.406,-32.707 31.625,-44.512 1.184,-3.316 4.235,-11.586 6.774,-18.371 8.156,-21.781 8.25,-25.183 0.793,-28.988 -6.774,-3.453 -17.375,-4.102 -52.129,-3.18 l -31.797,0.848 5.219,2.726 c 9.808,5.126 21.308,13.168 26.699,18.672 7.886,8.063 9.578,13.078 10.105,29.957 0.449,14.438 -0.855,25.739 -4.929,42.579 -1.204,4.976 -1.899,9.046 -1.543,9.046 0.351,0 4.484,-3.949 9.183,-8.777 z m 975.606,31.609 c -12.004,-2.503 -26.528,-6.121 -32.27,-8.043 -9.719,-3.253 -22.64,-9.453 -26.226,-12.578 -1.36,-1.187 -1.993,-1.054 -5.118,1.067 -8.558,5.808 -19.656,0.668 -21.05,-9.75 -0.911,-6.774 3.839,-13.039 11.293,-14.899 4.023,-1.004 8.968,1.203 15.253,6.813 9.426,8.41 22.493,14.933 38.528,19.226 8.629,2.313 35.48,7.762 35.949,7.293 0.16,-0.16 -1.207,-6.437 -3.031,-13.953 -4.617,-19.004 -6.207,-32.836 -6.207,-53.949 0,-15.648 0.207,-18.125 1.66,-19.844 2.562,-3.027 6.055,-3.445 9.059,-1.078 l 2.57,2.02 V 915 c 0,25.066 2.258,40.598 9.672,66.488 l 3.777,13.192 -1.84,2.468 c -2.734,3.68 -7.121,3.438 -32.019,-1.75 z m 558.691,2.282 c -14.484,-2.067 -24.203,-4.774 -33.809,-9.414 -10.109,-4.887 -16.773,-10.977 -20.3,-18.547 -3.414,-7.328 -3.317,-17.696 0.25,-26.969 8.125,-21.117 35.34,-48.188 71.304,-70.93 15.52,-9.812 38.52,-23.035 55.328,-31.804 7.68,-4.008 14.129,-7.418 14.336,-7.586 0.211,-0.164 -2.566,-3.407 -6.168,-7.207 -7.859,-8.289 -13.136,-14.785 -14.019,-17.243 -0.356,-0.992 -0.199,-3.16 0.348,-4.816 2.656,-8.047 16.355,-10.211 72.832,-11.488 25.257,-0.571 28.738,-0.832 29.121,-2.184 0.898,-3.156 3.41,-17.082 4.988,-27.637 2.227,-14.914 2.246,-41.687 0.039,-50.562 -2.973,-11.941 -8.457,-19.023 -15.598,-20.141 -1.968,-0.308 -4.804,-0.757 -6.304,-0.996 -4.34,-0.691 -14.703,1.336 -21.559,4.215 -18.875,7.93 -39.82,28.223 -59.121,57.27 -6.492,9.769 -8.16,11.687 -10.395,11.945 -6.335,0.726 -9.124,-4.875 -5.73,-11.508 2.984,-5.824 14.496,-22.086 21.98,-31.035 14.071,-16.84 27.247,-28.188 41.376,-35.637 14.128,-7.445 25.886,-9.961 38.101,-8.14 16.246,2.414 24.789,10.964 30.016,30.05 1.785,6.512 2.082,10.11 2.133,26.067 0.066,19.254 -0.77,27.773 -4.786,48.879 -5.25,27.578 -15.98,63.648 -24.078,80.926 -7.23,15.425 -11.48,18.019 -21.422,13.062 -5.738,-2.859 -19.257,-13.551 -31.773,-25.129 -5.109,-4.723 -9.574,-8.586 -9.926,-8.586 -0.351,0 -7.969,3.899 -16.926,8.664 -62.644,33.332 -96.64,58.121 -114.406,83.426 -15.512,22.086 -10.797,36.949 14.242,44.918 40.032,12.738 86.676,5.367 142.926,-22.594 15.805,-7.855 34.59,-18.761 47.133,-27.367 3.586,-2.461 7.34,-4.473 8.348,-4.473 2.613,0 6.492,4.227 6.492,7.079 0,3.851 -4.586,7.453 -25.801,20.265 -38.356,23.164 -76.871,38.516 -111.352,44.379 -12.547,2.137 -35.89,2.547 -47.82,0.848 z m 157.352,-165.114 c 3.047,-9.394 5.812,-18.238 6.148,-19.648 l 0.606,-2.563 -3.102,1.293 c -2.957,1.235 -12.742,5.836 -38.438,18.063 -6.394,3.043 -11.628,5.867 -11.628,6.273 0,1.051 20.144,18.661 27.515,24.055 l 6.16,4.504 3.598,-7.445 c 1.98,-4.094 6.094,-15.133 9.141,-24.532 z m -50.883,-9.89 c 3.242,-1.524 12.515,-6 20.605,-9.949 l 14.711,-7.18 -13.582,-0.027 c -15.367,-0.028 -40.762,1.66 -42.851,2.832 -1.071,0.597 0.429,2.636 6.574,8.929 4.379,4.485 8.117,8.157 8.305,8.157 0.191,0 3,-1.247 6.238,-2.774 z M 944.871,992.484 c -7.461,-2.242 -12.93,-9.949 -12.969,-18.285 -0.027,-5.707 1.715,-9.808 5.801,-13.676 3.735,-3.535 7.258,-5.039 11.801,-5.039 1.793,0 3.262,-0.418 3.262,-0.929 0,-2.004 -10.539,-11.321 -15.414,-13.625 -2.836,-1.344 -7.848,-2.871 -11.137,-3.403 -3.285,-0.531 -6.793,-1.703 -7.793,-2.605 -2.586,-2.344 -1.988,-7.656 1.121,-9.949 2.09,-1.539 3.086,-1.633 8.34,-0.782 13.094,2.129 24.887,8.797 32.719,18.5 7.019,8.7 8.718,13.965 8.75,27.11 0.027,10.574 -0.082,11.148 -2.696,14.918 -4.711,6.801 -13.988,10.105 -21.785,7.765 z m 349.113,-163.621 c -9.824,-1.883 -13.761,-3.761 -13.761,-6.57 0,-3.934 2.004,-4.731 7.75,-3.094 12.312,3.504 28.66,4.196 47.418,2.004 23.718,-2.777 67.129,-13.332 104.086,-25.316 13.918,-4.512 15.863,-4.504 15.863,0.051 0,3.214 -0.055,3.253 -8.067,5.968 -24.187,8.192 -69.765,20.153 -95.39,25.032 -16.235,3.093 -46.559,4.101 -57.899,1.925 z m -716.738,-5.265 c -10.332,-1.192 -20.684,-3.899 -27.203,-7.114 -4.77,-2.347 -5.891,-3.332 -5.891,-5.168 0,-3.382 2.594,-4.621 6.383,-3.039 14.133,5.887 23.918,7.68 41.883,7.68 23.719,0 58.941,-6.43 96.754,-17.664 11.191,-3.324 14.25,-3.473 15.297,-0.738 1.093,2.847 -1.262,4.906 -7.914,6.929 -48.41,14.704 -94.094,22.024 -119.309,19.114 z m 40.942,-34.239 c -19.387,-3.89 -35.504,-19.398 -39.493,-38.007 -1.582,-7.375 -0.613,-21.137 1.957,-27.786 3.188,-8.246 9.297,-16.515 16.012,-21.671 3.285,-2.52 5.664,-4.583 5.293,-4.583 -0.371,0 -6.695,1.743 -14.055,3.876 -23.672,6.855 -54.464,18.753 -80.629,31.156 -6.714,3.179 -13.433,5.781 -14.937,5.781 -4.207,0 -8.645,-4.461 -8.645,-8.695 0,-5.305 1.598,-7.172 9.571,-11.18 26.285,-13.215 65.281,-28.406 92.652,-36.098 36.172,-10.16 59.113,-12.675 96.34,-10.558 43.48,2.468 66.336,8.707 79.57,21.715 10.742,10.558 14.996,26.046 8.981,32.695 -2.235,2.469 -7.133,3.062 -10.575,1.281 -3.382,-1.746 -4.375,-3.347 -5.32,-8.57 -3.41,-18.856 -26.91,-26.875 -84.047,-28.684 -10.179,-0.32 -22.777,-0.261 -27.996,0.133 l -9.492,0.719 7.117,2.062 c 10.16,2.95 16.328,6.66 23.231,13.973 15.074,15.98 18.043,37.879 7.773,57.297 -3.68,6.961 -11.805,15.273 -18.879,19.324 -9.699,5.547 -23.863,7.941 -34.429,5.82 z m 12.738,-52.105 c 5.519,-5.59 11.742,-9.563 14.984,-9.574 4.852,-0.028 8.938,-2.075 10.461,-5.27 1.438,-3.015 1.441,-3.512 0.027,-6.496 -4.156,-8.711 -22.175,-5.316 -34.105,6.426 -8.754,8.621 -10.102,12.633 -5.91,17.613 1.867,2.219 3.242,2.918 5.73,2.918 2.739,0 4.18,-0.918 8.825,-5.617 z m 674.871,46.058 c -9.336,-3.589 -16.93,-9.812 -21.543,-17.66 -4.188,-7.121 -6.391,-18.984 -3.527,-18.984 5.871,0 28.089,11.742 33.191,17.539 3.75,4.262 6.914,4.996 10.246,2.379 5.875,-4.621 1.914,-12.148 -10.562,-20.066 -7.879,-5 -22.914,-11.86 -27.805,-12.684 -3.988,-0.676 -4.215,-1.078 -2.609,-4.602 1.238,-2.722 3.261,-3.414 10.011,-3.433 7.84,-0.028 14.598,1.887 15.547,4.387 1.824,4.796 8.719,5.144 12.277,0.621 2.262,-2.879 2.481,-7.586 0.481,-10.442 -1.547,-2.203 -9.207,-5.41 -16.988,-7.105 l -4.836,-1.059 3.023,-1.25 c 13.422,-5.57 30.422,-1.687 40.692,9.297 17.804,19.035 11.718,50.375 -11.918,61.387 -6.325,2.949 -20.043,3.843 -25.68,1.675 z m 121.547,-28.742 c -2.86,-1.105 -5.68,-4.48 -6.242,-7.465 -0.657,-3.511 1.441,-8.378 4.07,-9.421 0.933,-0.372 4.664,-1.754 8.293,-3.075 8.082,-2.945 13.808,-6.613 13.808,-8.847 0,-1.961 -4.859,-6.446 -10.64,-9.821 -6.672,-3.894 -18.453,-8.234 -32.071,-11.816 -12.765,-3.355 -12.89,-3.367 -33.695,-3.422 -21.555,-0.055 -30.156,0.817 -52.203,5.281 -22.152,4.485 -50.723,12.543 -70.238,19.813 -11.641,4.336 -14.809,4.402 -18.571,0.398 -1.621,-1.722 -2.269,-3.511 -2.269,-6.254 0,-6.324 2.863,-8.054 26.144,-15.8 54.02,-17.977 103.055,-25.926 135.668,-21.993 17.457,2.102 40.114,8.907 54.375,16.325 30.356,15.793 29.809,40.922 -1.148,52.843 -7.82,3.012 -13.039,4.122 -15.281,3.254 z M 324.422,725.773 c -6.824,-1.203 -10.106,-5.16 -14.317,-17.269 -6.894,-19.801 -0.562,-38.527 20.411,-60.375 8.234,-8.574 18.121,-15.602 37.57,-26.699 14.019,-8 82.543,-42.403 116.269,-58.375 56.231,-26.625 187.141,-87.575 199.325,-92.801 26.008,-11.152 41.027,-14.977 58.855,-14.977 17.789,0 48.117,6.258 61.469,12.68 34.266,16.481 86.859,75.809 143.586,161.965 18.398,27.949 18.316,27.758 14.234,31.84 -1.898,1.902 -3.277,2.332 -7.469,2.332 -17.339,0 -43.355,-8.797 -64.058,-21.656 -13.836,-8.598 -23.695,-16.836 -63.297,-52.883 -45.793,-41.688 -63.285,-54.637 -77.734,-57.539 -7.332,-1.473 -13.817,0.234 -27.383,7.199 -63.778,32.738 -71.071,36.023 -116.035,52.281 -96.91,35.031 -200.246,84.649 -246.664,118.442 -17.305,12.597 -27.305,17.152 -34.762,15.835 z m 802.734,-32.296 c -14.351,-3.559 -25.39,-17.094 -25.363,-31.082 0.035,-16.754 5.855,-26.024 46.23,-73.622 42.188,-49.726 64.215,-73.265 78.571,-83.961 14.187,-10.57 22.726,-12.351 44.136,-9.214 26.094,3.82 99,25.293 177.454,52.265 50.484,17.356 112.464,46.91 175.632,83.758 22.5,13.125 24.157,14.359 24.489,18.281 0.199,2.391 -0.254,3.86 -1.563,5.043 -2.066,1.867 -29.515,9.035 -46.015,12.016 -24.719,4.461 -37.915,3.461 -70.145,-5.324 -23.465,-6.399 -40.539,-12.032 -54.359,-17.946 -15.235,-6.515 -48.121,-23.336 -72.61,-37.132 -35.66,-20.098 -55.168,-28.813 -77.215,-34.497 -22.175,-5.718 -38.98,-6.183 -48.851,-1.355 -15.481,7.574 -50.805,39.531 -87.027,78.727 -30.235,32.714 -32.649,35.156 -37.821,38.254 -9.176,5.5 -18.34,7.578 -25.543,5.789 z"
         style="fill:#625970;fill-opacity:1;fill-rule:nonzero;stroke:none"
         id="path839" /></g></g></svg>
