<?xml version="1.0" encoding="UTF-8" standalone="no"?>
<svg
   xmlns:svg="http://www.w3.org/2000/svg"
   xmlns="http://www.w3.org/2000/svg"
   xmlns:sodipodi="http://sodipodi.sourceforge.net/DTD/sodipodi-0.dtd"
   xmlns:inkscape="http://www.inkscape.org/namespaces/inkscape"
   inkscape:version="1.1-dev (1:0.92.0+devel+202005110039+9ce7266)"
   sodipodi:docname="02a.svg"
   version="1.1"
   id="svg875"
   xml:space="preserve"
   width="2527.5789"
   height="2526.3159"
   viewBox="0 0 2527.5789 2526.3159"><sodipodi:namedview
     inkscape:current-layer="svg875"
     inkscape:window-maximized="0"
     inkscape:window-y="30"
     inkscape:window-x="0"
     inkscape:cy="1263.158"
     inkscape:cx="1263.7894"
     inkscape:zoom="0.26956249"
     showgrid="false"
     id="namedview829"
     inkscape:window-height="480"
     inkscape:window-width="796"
     inkscape:pageshadow="2"
     inkscape:pageopacity="0"
     guidetolerance="10"
     gridtolerance="10"
     objecttolerance="10"
     borderopacity="1"
     bordercolor="#666666"
     pagecolor="#ffffff" /><defs
     id="defs879" /><g
     style="fill:#625970;fill-opacity:1"
     id="g881"
     transform="matrix(1.3333333,0,0,1.3333333,0,4.5824564e-5)"><g
       style="fill:#625970;fill-opacity:1"
       id="g883"><path
         id="path5733"
         style="font-variant:normal;font-weight:bold;font-size:100px;font-family:'IBM Plex Mono';-inkscape-font-specification:IBMPlexMono-Bold;writing-mode:lr-tb;fill:#625970;fill-opacity:1;fill-rule:nonzero;stroke:none;stroke-width:1.33333"
         d="M 672.80078 92 L 672.80078 190.66602 L 683.4668 190.66602 L 683.4668 142.93359 C 683.4668 133.86693 691.99987 129.73437 700.5332 129.73438 C 711.06654 129.73438 716.80078 135.86706 716.80078 148.40039 L 716.80078 190.66602 L 727.4668 190.66602 L 727.4668 146.5332 C 727.4668 129.86654 717.99961 120.26758 703.59961 120.26758 C 692.26628 120.26758 686.93333 126.26641 684 133.06641 L 683.4668 133.06641 L 683.4668 92 L 672.80078 92 z M 830.40039 92 L 830.40039 101.06641 L 854.40039 101.06641 L 854.40039 181.59961 L 830.40039 181.59961 L 830.40039 190.66602 L 889.06641 190.66602 L 889.06641 181.59961 L 865.06641 181.59961 L 865.06641 92 L 830.40039 92 z M 620 96 C 601.06667 96 588.93359 104.80052 588.93359 121.86719 C 588.93359 133.60052 594.66693 144.13255 612.93359 147.19922 L 623.33398 148.93359 C 636.00065 151.06693 640.66602 155.86693 640.66602 164.93359 C 640.66602 176.13359 633.33385 182.66602 619.86719 182.66602 C 608.66719 182.66602 601.06719 178.26589 593.86719 169.19922 L 585.73242 175.86719 C 592.66576 185.46719 602.80013 192.26758 619.4668 192.26758 C 640.13346 192.26758 652 181.86602 652 164.66602 C 652 152.53268 645.99909 142.39922 627.73242 139.19922 L 617.73242 137.4668 C 604.53242 135.20013 600.26758 129.86628 600.26758 121.59961 C 600.26758 111.06628 607.33385 105.59961 619.86719 105.59961 C 631.46719 105.59961 638.13398 110.26641 643.33398 117.06641 L 651.19922 110.26758 C 644.93255 101.33425 634.8 96 620 96 z M 108.13281 97.599609 L 108.13281 190.66602 L 125.19922 190.66602 L 125.19922 128.80078 L 126.66602 128.80078 L 147.86719 190.66602 L 171.86719 190.66602 L 171.86719 97.599609 L 154.80078 97.599609 L 154.80078 159.4668 L 153.33398 159.4668 L 132.13281 97.599609 L 108.13281 97.599609 z M 1141.5996 97.599609 L 1173.7324 154.13281 L 1173.7324 190.66602 L 1184.9336 190.66602 L 1184.9336 154.13281 L 1217.0664 97.599609 L 1204.5332 97.599609 L 1191.1992 121.86719 L 1179.5996 143.06641 L 1179.0664 143.06641 L 1167.7324 121.86719 L 1154.4004 97.599609 L 1141.5996 97.599609 z M 218.66602 120.26758 C 203.33268 120.26758 193.33411 126.00104 188.80078 133.73438 L 199.59961 143.33398 C 203.33294 138.26732 208.13372 134.66602 216.40039 134.66602 C 225.46706 134.66602 228.93359 138.93307 228.93359 147.06641 L 228.93359 150.5332 L 217.86719 150.5332 C 197.73385 150.5332 186.93359 157.33438 186.93359 171.73438 C 186.93359 184.66771 195.73307 192.26758 209.06641 192.26758 C 219.59974 192.26758 227.6 187.46654 230 178.5332 L 230.66602 178.5332 C 231.46602 186.26654 236.80026 190.66602 244.93359 190.66602 L 256.26758 190.66602 L 256.26758 176.40039 L 248.66602 176.40039 L 248.66602 146.26758 C 248.66602 128.93425 237.46602 120.26758 218.66602 120.26758 z M 293.86719 120.26758 C 286.53385 120.26758 282.93411 125.6 280.80078 132 L 279.86719 132 L 279.86719 121.86719 L 264 121.86719 L 264 190.66602 L 279.86719 190.66602 L 279.86719 141.59961 C 279.86719 136.93294 282.66758 134.80078 286.26758 134.80078 C 289.73424 134.80078 292 137.0668 292 143.4668 L 292 190.66602 L 308 190.66602 L 308 141.59961 C 308 136.93294 310.79948 134.80078 314.13281 134.80078 C 317.73281 134.80078 320.13281 137.0668 320.13281 143.4668 L 320.13281 190.66602 L 336 190.66602 L 336 141.4668 C 336 127.33346 331.19961 120.26758 321.59961 120.26758 C 313.06628 120.26758 309.20026 125.73333 306.93359 132 L 306.13281 132 C 304.66615 124.4 300.40052 120.26758 293.86719 120.26758 z M 380.13281 120.26758 C 359.46615 120.26758 346.66602 133.99987 346.66602 156.5332 C 346.66602 178.5332 358.80052 192.26758 381.86719 192.26758 C 396.66719 192.26758 406.00065 186.66615 411.33398 180.13281 L 400.66602 168.5332 C 396.39935 173.59987 390.66654 177.06641 382.5332 177.06641 C 371.99987 177.06641 366.26758 171.06758 366.26758 162.26758 L 366.26758 161.06641 L 413.33398 161.06641 L 413.33398 155.19922 C 413.33398 133.73255 400.66615 120.26758 380.13281 120.26758 z M 460 120.26758 C 450 120.26758 446 125.33398 446 131.33398 L 446 136 C 446 142 450 147.06641 460 147.06641 C 470 147.06641 474 142 474 136 L 474 131.33398 C 474 125.33398 470 120.26758 460 120.26758 z M 1020.2676 120.26758 C 1001.6009 120.26758 988.66602 134.40039 988.66602 156.40039 C 988.66602 178.13372 1001.2003 192.26758 1020.9336 192.26758 C 1034.5336 192.26758 1044.3999 185.60039 1048.5332 176.40039 L 1040.666 171.06641 C 1037.066 178.53307 1030.1336 183.06641 1020.9336 183.06641 C 1008.0003 183.06641 999.86719 174.26615 999.86719 162.13281 L 999.86719 158.93359 L 1050.8008 158.93359 L 1050.8008 153.86719 C 1050.8008 134.40052 1038.8009 120.26758 1020.2676 120.26758 z M 1259.334 120.26758 C 1240.0007 120.26758 1228.1328 134.40091 1228.1328 156.26758 C 1228.1328 178.13424 1240.0007 192.26758 1259.334 192.26758 C 1278.6673 192.26758 1290.5332 178.13424 1290.5332 156.26758 C 1290.5332 134.40091 1278.6673 120.26758 1259.334 120.26758 z M 752.5332 121.86719 L 752.5332 130.93359 L 795.4668 130.93359 L 751.06641 180.40039 L 751.06641 190.66602 L 808.40039 190.66602 L 808.40039 181.59961 L 762.66602 181.59961 L 807.06641 132.13281 L 807.06641 121.86719 L 752.5332 121.86719 z M 912.5332 121.86719 L 912.5332 130.93359 L 955.4668 130.93359 L 911.06641 180.40039 L 911.06641 190.66602 L 968.40039 190.66602 L 968.40039 181.59961 L 922.66602 181.59961 L 967.06641 132.13281 L 967.06641 121.86719 L 912.5332 121.86719 z M 1311.5996 121.86719 L 1311.5996 166 C 1311.5996 182.66667 1321.0668 192.26758 1335.4668 192.26758 C 1346.8001 192.26758 1352.1331 186.2668 1355.0664 179.4668 L 1355.5996 179.4668 L 1355.5996 190.66602 L 1366.2676 190.66602 L 1366.2676 121.86719 L 1355.5996 121.86719 L 1355.5996 169.59961 C 1355.5996 178.66628 1347.0665 182.80078 1338.5332 182.80078 C 1327.9999 182.80078 1322.2676 176.66615 1322.2676 164.13281 L 1322.2676 121.86719 L 1311.5996 121.86719 z M 1020.2676 129.06641 C 1031.6009 129.06641 1039.334 137.33346 1039.334 149.4668 L 1039.334 150.93359 L 999.86719 150.93359 L 999.86719 150 C 999.86719 138 1008.5342 129.06641 1020.2676 129.06641 z M 1259.334 129.4668 C 1271.2007 129.4668 1279.1992 136.53398 1279.1992 151.33398 L 1279.1992 161.19922 C 1279.1992 175.99922 1271.2007 183.06641 1259.334 183.06641 C 1247.4673 183.06641 1239.4668 175.99922 1239.4668 161.19922 L 1239.4668 151.33398 C 1239.4668 136.53398 1247.4673 129.4668 1259.334 129.4668 z M 380.26758 134.40039 C 388.80091 134.40039 394 140.00026 394 148.93359 L 394 150 L 366.26758 150 L 366.26758 148.93359 C 366.26758 140.13359 371.73425 134.40039 380.26758 134.40039 z M 218.40039 161.19922 L 228.93359 161.19922 L 228.93359 169.4668 C 228.93359 175.8668 223.46654 179.33398 216.5332 179.33398 C 210.26654 179.33398 206.26758 176.8 206.26758 172 L 206.26758 169.33398 C 206.26758 164.00065 210.53372 161.19922 218.40039 161.19922 z M 460 165.4668 C 450 165.4668 446 170.5332 446 176.5332 L 446 181.19922 C 446 187.19922 450 192.26758 460 192.26758 C 470 192.26758 474 187.19922 474 181.19922 L 474 176.5332 C 474 170.5332 470 165.4668 460 165.4668 z M 538.66602 262.66602 C 520.39935 262.66602 512.00039 273.59987 508.40039 284.5332 L 518.40039 288.26758 C 521.33372 278.66758 527.06706 272.40039 538.40039 272.40039 C 549.86706 272.40039 555.86719 278.8 555.86719 290 L 555.86719 291.59961 C 555.86719 301.06628 549.33424 309.73385 540.26758 317.86719 L 509.19922 345.86719 L 509.19922 357.33398 L 571.33398 357.33398 L 571.33398 347.59961 L 520.80078 347.59961 L 546.80078 324.93359 C 559.20078 314.13359 567.59961 303.73294 567.59961 289.59961 C 567.59961 273.86628 557.19935 262.66602 538.66602 262.66602 z M 618.66602 262.66602 C 600.39935 262.66602 592.00039 273.59987 588.40039 284.5332 L 598.40039 288.26758 C 601.33372 278.66758 607.06706 272.40039 618.40039 272.40039 C 629.86706 272.40039 635.86719 278.8 635.86719 290 L 635.86719 291.59961 C 635.86719 301.06628 629.33424 309.73385 620.26758 317.86719 L 589.19922 345.86719 L 589.19922 357.33398 L 651.33398 357.33398 L 651.33398 347.59961 L 600.80078 347.59961 L 626.80078 324.93359 C 639.20078 314.13359 647.59961 303.73294 647.59961 289.59961 C 647.59961 273.86628 637.19935 262.66602 618.66602 262.66602 z M 125.86719 264.26758 L 100.66602 357.33398 L 120.93359 357.33398 L 126.66602 334.93359 L 152.13281 334.93359 L 158 357.33398 L 179.33398 357.33398 L 154.13281 264.26758 L 125.86719 264.26758 z M 241.86719 275.33398 C 235.33385 275.33398 231.33398 279.33268 231.33398 284.66602 L 231.33398 288.40039 C 227.73398 287.46706 223.59922 286.93359 219.19922 286.93359 C 201.19922 286.93359 189.33398 295.4668 189.33398 311.4668 C 189.33398 321.60013 194.13424 328.79935 202.26758 332.66602 L 202.26758 333.4668 C 194.80091 335.20013 189.86719 337.99935 189.86719 344.66602 C 189.86719 350.66602 193.60013 353.73346 199.4668 355.4668 L 199.4668 356.26758 C 191.20013 358.40091 186.26758 362.00104 186.26758 369.73438 C 186.26758 379.06771 193.46628 385.59961 219.59961 385.59961 C 245.73294 385.59961 257.73242 378.80091 257.73242 364.26758 C 257.73242 352.66758 250.13372 344.40039 230.40039 344.40039 L 214.66602 344.40039 C 209.19935 344.40039 204.5332 344.13437 204.5332 339.73438 C 204.5332 337.33438 206 335.73268 208 334.66602 C 211.33333 335.59935 215.19922 336 219.19922 336 C 237.33255 336 249.33398 327.33346 249.33398 311.4668 C 249.33398 301.73346 244.93346 294.80026 237.4668 290.93359 L 237.4668 289.73438 L 254 289.73438 L 254 275.33398 L 241.86719 275.33398 z M 138.93359 283.59961 L 140 283.59961 L 149.06641 318.80078 L 129.86719 318.80078 L 138.93359 283.59961 z M 300.13281 286.93359 C 279.46615 286.93359 266.66602 300.66589 266.66602 323.19922 C 266.66602 345.19922 278.80052 358.93359 301.86719 358.93359 C 316.66719 358.93359 326.00065 353.33411 331.33398 346.80078 L 320.66602 335.19922 C 316.39935 340.26589 310.66654 343.73438 302.5332 343.73438 C 291.99987 343.73438 286.26758 337.73359 286.26758 328.93359 L 286.26758 327.73438 L 333.33398 327.73438 L 333.33398 321.86719 C 333.33398 300.40052 320.66615 286.93359 300.13281 286.93359 z M 380 286.93359 C 370 286.93359 366 292 366 298 L 366 302.66602 C 366 308.66602 370 313.73438 380 313.73438 C 390 313.73438 394 308.66602 394 302.66602 L 394 298 C 394 292 390 286.93359 380 286.93359 z M 219.19922 299.4668 C 227.06589 299.4668 230.66602 303.86719 230.66602 309.86719 L 230.66602 313.06641 C 230.66602 319.06641 227.06589 323.4668 219.19922 323.4668 C 211.46589 323.4668 208 319.06641 208 313.06641 L 208 309.86719 C 208 303.86719 211.46589 299.4668 219.19922 299.4668 z M 300.26758 301.06641 C 308.80091 301.06641 314 306.66628 314 315.59961 L 314 316.66602 L 286.26758 316.66602 L 286.26758 315.59961 C 286.26758 306.79961 291.73425 301.06641 300.26758 301.06641 z M 380 332.13281 C 370 332.13281 366 337.19922 366 343.19922 L 366 347.86719 C 366 353.86719 370 358.93359 380 358.93359 C 390 358.93359 394 353.86719 394 347.86719 L 394 343.19922 C 394 337.19922 390 332.13281 380 332.13281 z M 205.19922 360 L 228.80078 360 C 236.80078 360 239.06641 362.13438 239.06641 365.73438 C 239.06641 370.40104 235.06615 372.93359 226.13281 372.93359 L 214.5332 372.93359 C 205.86654 372.93359 202.5332 369.86628 202.5332 365.59961 C 202.5332 363.33294 203.46589 361.46667 205.19922 360 z M 1743.4668 424.26758 C 1737.3335 424.26758 1735.0664 427.19974 1735.0664 431.06641 L 1735.0664 433.19922 C 1735.0664 437.06589 1737.3335 440 1743.4668 440 C 1749.6001 440 1751.8672 437.06589 1751.8672 433.19922 L 1751.8672 431.06641 C 1751.8672 427.19974 1749.6001 424.26758 1743.4668 424.26758 z M 232.40039 425.33398 L 232.40039 467.73438 L 231.4668 467.73438 C 228.00013 459.46771 222.13307 453.59961 211.06641 453.59961 C 195.86641 453.59961 185.19922 464.66628 185.19922 489.59961 C 185.19922 514.53294 195.86641 525.59961 211.06641 525.59961 C 222.13307 525.59961 228.00013 519.73346 231.4668 511.4668 L 232.40039 511.4668 L 232.40039 524 L 252.13281 524 L 252.13281 425.33398 L 232.40039 425.33398 z M 312.40039 425.33398 L 312.40039 467.73438 L 311.4668 467.73438 C 308.00013 459.46771 302.13307 453.59961 291.06641 453.59961 C 275.86641 453.59961 265.19922 464.66628 265.19922 489.59961 C 265.19922 514.53294 275.86641 525.59961 291.06641 525.59961 C 302.13307 525.59961 308.00013 519.73346 311.4668 511.4668 L 312.40039 511.4668 L 312.40039 524 L 332.13281 524 L 332.13281 425.33398 L 312.40039 425.33398 z M 990.13281 425.33398 L 990.13281 434.40039 L 1014.1328 434.40039 L 1014.1328 514.93359 L 990.13281 514.93359 L 990.13281 524 L 1048.8008 524 L 1048.8008 514.93359 L 1024.8008 514.93359 L 1024.8008 425.33398 L 990.13281 425.33398 z M 1070.1328 425.33398 L 1070.1328 434.40039 L 1094.1328 434.40039 L 1094.1328 514.93359 L 1070.1328 514.93359 L 1070.1328 524 L 1128.8008 524 L 1128.8008 514.93359 L 1104.8008 514.93359 L 1104.8008 425.33398 L 1070.1328 425.33398 z M 1595.8672 425.33398 L 1595.8672 466.40039 L 1595.334 466.40039 C 1590.934 458.00039 1583.7328 453.59961 1574.1328 453.59961 C 1557.3328 453.59961 1547.1992 467.06628 1547.1992 489.59961 C 1547.1992 512.13294 1557.3328 525.59961 1574.1328 525.59961 C 1583.7328 525.59961 1590.934 521.20078 1595.334 512.80078 L 1595.8672 512.80078 L 1595.8672 524 L 1606.5332 524 L 1606.5332 425.33398 L 1595.8672 425.33398 z M 1675.8672 425.33398 L 1675.8672 466.40039 L 1675.334 466.40039 C 1670.934 458.00039 1663.7328 453.59961 1654.1328 453.59961 C 1637.3328 453.59961 1627.1992 467.06628 1627.1992 489.59961 C 1627.1992 512.13294 1637.3328 525.59961 1654.1328 525.59961 C 1663.7328 525.59961 1670.934 521.20078 1675.334 512.80078 L 1675.8672 512.80078 L 1675.8672 524 L 1686.5332 524 L 1686.5332 425.33398 L 1675.8672 425.33398 z M 125.86719 430.93359 L 100.66602 524 L 120.93359 524 L 126.66602 501.59961 L 152.13281 501.59961 L 158 524 L 179.33398 524 L 154.13281 430.93359 L 125.86719 430.93359 z M 831.4668 430.93359 L 831.4668 524 L 842.66602 524 L 842.66602 481.73438 L 886.13281 481.73438 L 886.13281 472 L 842.66602 472 L 842.66602 440.66602 L 890.13281 440.66602 L 890.13281 430.93359 L 831.4668 430.93359 z M 1391.1992 430.93359 L 1391.1992 524 L 1402.4004 524 L 1402.4004 484.26758 L 1417.1992 484.26758 L 1439.8672 524 L 1452.4004 524 L 1428.666 483.73438 C 1443.466 482.26771 1451.5996 472.66771 1451.5996 457.73438 C 1451.5996 440.93438 1442.2664 430.93359 1425.0664 430.93359 L 1391.1992 430.93359 z M 1807.7324 430.93359 L 1807.7324 448.93359 C 1807.7324 453.60026 1806.0001 455.19922 1801.4668 455.19922 L 1784.4004 455.19922 L 1784.4004 464.26758 L 1807.334 464.26758 L 1807.334 508.26758 C 1807.334 517.46758 1812.1332 524 1822.5332 524 L 1849.334 524 L 1849.334 514.93359 L 1818 514.93359 L 1818 464.26758 L 1849.334 464.26758 L 1849.334 455.19922 L 1818 455.19922 L 1818 430.93359 L 1807.7324 430.93359 z M 2052.9336 430.93359 L 2052.9336 458 L 2056.666 492.93359 L 2060.9336 492.93359 L 2064.666 458 L 2064.666 430.93359 L 2052.9336 430.93359 z M 1402.4004 440.66602 L 1424.8008 440.66602 C 1434.1341 440.66602 1439.7324 445.60091 1439.7324 454.26758 L 1439.7324 461.19922 C 1439.7324 469.86589 1434.1341 474.80078 1424.8008 474.80078 L 1402.4004 474.80078 L 1402.4004 440.66602 z M 138.93359 450.26758 L 140 450.26758 L 149.06641 485.4668 L 129.86719 485.4668 L 138.93359 450.26758 z M 460.13281 453.59961 C 439.46615 453.59961 426.66602 467.33385 426.66602 489.86719 C 426.66602 511.86719 438.80052 525.59961 461.86719 525.59961 C 476.66719 525.59961 486.00065 520.00013 491.33398 513.4668 L 480.66602 501.86719 C 476.39935 506.93385 470.66654 510.40039 462.5332 510.40039 C 451.99987 510.40039 446.26758 504.39961 446.26758 495.59961 L 446.26758 494.40039 L 493.33398 494.40039 L 493.33398 488.5332 C 493.33398 467.06654 480.66615 453.59961 460.13281 453.59961 z M 541.73242 453.59961 C 521.86576 453.59961 510.26758 462.26602 510.26758 476.66602 C 510.26758 489.73268 520.00091 494.93411 532.26758 496.80078 L 543.33398 498.5332 C 548.66732 499.3332 551.86719 500.53372 551.86719 504.40039 C 551.86719 509.33372 547.06732 511.73438 539.33398 511.73438 C 530.13398 511.73438 522.93294 508.26706 517.59961 502.40039 L 506.5332 512.66602 C 512.1332 520.66602 523.99922 525.59961 539.19922 525.59961 C 559.59922 525.59961 571.19922 516.53424 571.19922 502.26758 C 571.19922 489.20091 561.46641 483.99948 549.06641 482.13281 L 538.13281 480.40039 C 532.79948 479.60039 529.59961 478.40039 529.59961 474.40039 C 529.59961 469.86706 533.59974 467.4668 541.06641 467.4668 C 549.99974 467.4668 556.5332 470.93398 560.5332 475.33398 L 570.40039 464.13281 C 564.66706 457.46615 555.19909 453.59961 541.73242 453.59961 z M 621.73242 453.59961 C 601.86576 453.59961 590.26758 462.26602 590.26758 476.66602 C 590.26758 489.73268 600.00091 494.93411 612.26758 496.80078 L 623.33398 498.5332 C 628.66732 499.3332 631.86719 500.53372 631.86719 504.40039 C 631.86719 509.33372 627.06732 511.73438 619.33398 511.73438 C 610.13398 511.73438 602.93294 508.26706 597.59961 502.40039 L 586.5332 512.66602 C 592.1332 520.66602 603.99922 525.59961 619.19922 525.59961 C 639.59922 525.59961 651.19922 516.53424 651.19922 502.26758 C 651.19922 489.20091 641.46641 483.99948 629.06641 482.13281 L 618.13281 480.40039 C 612.79948 479.60039 609.59961 478.40039 609.59961 474.40039 C 609.59961 469.86706 613.59974 467.4668 621.06641 467.4668 C 629.99974 467.4668 636.5332 470.93398 640.5332 475.33398 L 650.40039 464.13281 C 644.66706 457.46615 635.19909 453.59961 621.73242 453.59961 z M 699.59961 453.59961 C 689.59961 453.59961 685.59961 458.66602 685.59961 464.66602 L 685.59961 469.33398 C 685.59961 475.33398 689.59961 480.40039 699.59961 480.40039 C 709.59961 480.40039 713.59961 475.33398 713.59961 469.33398 L 713.59961 464.66602 C 713.59961 458.66602 709.59961 453.59961 699.59961 453.59961 z M 940 453.59961 C 921.33333 453.59961 908.40039 467.73438 908.40039 489.73438 C 908.40039 511.46771 920.93268 525.59961 940.66602 525.59961 C 954.26602 525.59961 964.13424 518.93437 968.26758 509.73438 L 960.40039 504.40039 C 956.80039 511.86706 949.86602 516.40039 940.66602 516.40039 C 927.73268 516.40039 919.59961 507.60013 919.59961 495.4668 L 919.59961 492.26758 L 970.5332 492.26758 L 970.5332 487.19922 C 970.5332 467.73255 958.53333 453.59961 940 453.59961 z M 1179.4668 453.59961 C 1160.1335 453.59961 1148.2676 467.73294 1148.2676 489.59961 C 1148.2676 511.46628 1160.1335 525.59961 1179.4668 525.59961 C 1198.8001 525.59961 1210.666 511.46628 1210.666 489.59961 C 1210.666 467.73294 1198.8001 453.59961 1179.4668 453.59961 z M 1499.7324 453.59961 C 1481.0658 453.59961 1468.1328 467.73438 1468.1328 489.73438 C 1468.1328 511.46771 1480.6671 525.59961 1500.4004 525.59961 C 1514.0004 525.59961 1523.8667 518.93437 1528 509.73438 L 1520.1328 504.40039 C 1516.5328 511.86706 1509.6004 516.40039 1500.4004 516.40039 C 1487.4671 516.40039 1479.334 507.60013 1479.334 495.4668 L 1479.334 492.26758 L 1530.2676 492.26758 L 1530.2676 487.19922 C 1530.2676 467.73255 1518.2658 453.59961 1499.7324 453.59961 z M 349.86719 455.19922 L 349.86719 470.5332 L 365.73242 470.5332 L 365.73242 508.66602 L 349.86719 508.66602 L 349.86719 524 L 408.13281 524 L 408.13281 508.66602 L 385.4668 508.66602 L 385.4668 488.26758 C 385.4668 480.00091 390.53425 473.33398 400.26758 473.33398 L 414.93359 473.33398 L 414.93359 455.19922 L 408.40039 455.19922 C 394.80039 455.19922 388.93372 464.53268 386.40039 474.66602 L 385.4668 474.66602 L 385.4668 455.19922 L 349.86719 455.19922 z M 1223.4668 455.19922 L 1234 524 L 1247.8672 524 L 1259.0664 466.40039 L 1260.1328 466.40039 L 1271.0664 524 L 1284.9336 524 L 1295.4668 455.19922 L 1286.2676 455.19922 L 1278.4004 514.66602 L 1277.1992 514.66602 L 1265.4668 455.19922 L 1253.7324 455.19922 L 1242 514.66602 L 1240.8008 514.66602 L 1232.9336 455.19922 L 1223.4668 455.19922 z M 1713.334 455.19922 L 1713.334 464.26758 L 1738.1328 464.26758 L 1738.1328 514.93359 L 1713.334 514.93359 L 1713.334 524 L 1772 524 L 1772 514.93359 L 1748.8008 514.93359 L 1748.8008 455.19922 L 1713.334 455.19922 z M 1869.0664 455.19922 L 1869.0664 464.26758 L 1889.1992 464.26758 L 1889.1992 514.93359 L 1869.0664 514.93359 L 1869.0664 524 L 1926.5332 524 L 1926.5332 514.93359 L 1899.8672 514.93359 L 1899.8672 485.19922 C 1899.8672 474.53255 1906.9337 465.86719 1920.4004 465.86719 L 1933.334 465.86719 L 1933.334 455.19922 L 1923.7324 455.19922 C 1909.3324 455.19922 1903.1999 463.46654 1900.5332 472.5332 L 1899.8672 472.5332 L 1899.8672 455.19922 L 1869.0664 455.19922 z M 1945.8672 455.19922 L 1973.5996 522.66602 L 1965.8672 541.59961 L 1949.8672 541.59961 L 1949.8672 550.66602 L 1960 550.66602 C 1970.4 550.66602 1974.3996 546.93307 1977.5996 539.06641 L 2011.7324 455.19922 L 2001.0664 455.19922 L 1989.4668 484 L 1979.1992 510.13281 L 1978.666 510.13281 L 1968.4004 484 L 1956.8008 455.19922 L 1945.8672 455.19922 z M 940 462.40039 C 951.33333 462.40039 959.06641 470.66745 959.06641 482.80078 L 959.06641 484.26758 L 919.59961 484.26758 L 919.59961 483.33398 C 919.59961 471.33398 928.26667 462.40039 940 462.40039 z M 1499.7324 462.40039 C 1511.0658 462.40039 1518.8008 470.66745 1518.8008 482.80078 L 1518.8008 484.26758 L 1479.334 484.26758 L 1479.334 483.33398 C 1479.334 471.33398 1487.9991 462.40039 1499.7324 462.40039 z M 1179.4668 462.80078 C 1191.3335 462.80078 1199.334 469.86602 1199.334 484.66602 L 1199.334 494.5332 C 1199.334 509.3332 1191.3335 516.40039 1179.4668 516.40039 C 1167.6001 516.40039 1159.5996 509.3332 1159.5996 494.5332 L 1159.5996 484.66602 C 1159.5996 469.86602 1167.6001 462.80078 1179.4668 462.80078 z M 1578.2676 463.06641 C 1587.7342 463.06641 1595.8672 467.99922 1595.8672 477.19922 L 1595.8672 502 C 1595.8672 511.2 1587.7342 516.13281 1578.2676 516.13281 C 1565.8676 516.13281 1558.666 507.8668 1558.666 495.4668 L 1558.666 483.73438 C 1558.666 471.33438 1565.8676 463.06641 1578.2676 463.06641 z M 1658.2676 463.06641 C 1667.7342 463.06641 1675.8672 467.99922 1675.8672 477.19922 L 1675.8672 502 C 1675.8672 511.2 1667.7342 516.13281 1658.2676 516.13281 C 1645.8676 516.13281 1638.666 507.8668 1638.666 495.4668 L 1638.666 483.73438 C 1638.666 471.33438 1645.8676 463.06641 1658.2676 463.06641 z M 460.26758 467.73438 C 468.80091 467.73438 474 473.33425 474 482.26758 L 474 483.33398 L 446.26758 483.33398 L 446.26758 482.26758 C 446.26758 473.46758 451.73425 467.73438 460.26758 467.73438 z M 219.59961 468.93359 C 226.53294 468.93359 232.40039 472.2668 232.40039 479.4668 L 232.40039 499.73438 C 232.40039 506.93437 226.53294 510.26758 219.59961 510.26758 C 210.79961 510.26758 205.73242 504.53359 205.73242 494.93359 L 205.73242 484.26758 C 205.73242 474.66758 210.79961 468.93359 219.59961 468.93359 z M 299.59961 468.93359 C 306.53294 468.93359 312.40039 472.2668 312.40039 479.4668 L 312.40039 499.73438 C 312.40039 506.93437 306.53294 510.26758 299.59961 510.26758 C 290.79961 510.26758 285.73242 504.53359 285.73242 494.93359 L 285.73242 484.26758 C 285.73242 474.66758 290.79961 468.93359 299.59961 468.93359 z M 699.59961 498.80078 C 689.59961 498.80078 685.59961 503.86719 685.59961 509.86719 L 685.59961 514.5332 C 685.59961 520.5332 689.59961 525.59961 699.59961 525.59961 C 709.59961 525.59961 713.59961 520.5332 713.59961 514.5332 L 713.59961 509.86719 C 713.59961 503.86719 709.59961 498.80078 699.59961 498.80078 z M 2058.8008 506.80078 C 2051.6008 506.80078 2048.9336 510.26745 2048.9336 514.80078 L 2048.9336 517.19922 C 2048.9336 521.73255 2051.6008 525.19922 2058.8008 525.19922 C 2066.0008 525.19922 2068.666 521.73255 2068.666 517.19922 L 2068.666 514.80078 C 2068.666 510.26745 2066.0008 506.80078 2058.8008 506.80078 z M 284.26758 812 L 267.73242 910.66602 L 278.13281 910.66602 L 284.5332 872.66602 C 285.86654 864.79935 290.93372 858.66693 292.40039 856.93359 C 296.26706 852.40026 300.93359 849.4668 306.93359 849.4668 C 314.66693 849.4668 318.40039 854.53268 318.40039 862.66602 C 318.40039 864.13268 318.26576 866.8 317.73242 870 L 310.93359 910.66602 L 321.33398 910.66602 L 328.26758 869.06641 C 328.80091 865.99974 329.06641 862.79948 329.06641 860.13281 C 329.06641 847.59948 321.86706 840.26758 310.40039 840.26758 C 299.33372 840.26758 292.53346 847.19948 287.4668 858.13281 L 286.93359 858.13281 L 294.66602 812 L 284.26758 812 z M 1127.0664 812 L 1120 853.86719 L 1119.5996 853.86719 C 1116.6663 844.93385 1109.6001 840.26758 1099.4668 840.26758 C 1075.2001 840.26758 1066.9336 867.19961 1066.9336 885.59961 C 1066.9336 903.19961 1074.5337 912.26758 1088.4004 912.26758 C 1100.5337 912.26758 1107.4674 905.20039 1112.8008 894.40039 L 1113.1992 894.40039 L 1110.5332 910.66602 L 1120.9336 910.66602 L 1137.4668 812 L 1127.0664 812 z M 1526.9336 812 L 1519.8672 853.86719 L 1519.4668 853.86719 C 1516.5335 844.93385 1509.4673 840.26758 1499.334 840.26758 C 1475.0673 840.26758 1466.8008 867.19961 1466.8008 885.59961 C 1466.8008 903.19961 1474.4009 912.26758 1488.2676 912.26758 C 1500.4009 912.26758 1507.3327 905.20039 1512.666 894.40039 L 1513.0664 894.40039 L 1510.4004 910.66602 L 1520.8008 910.66602 L 1537.334 812 L 1526.9336 812 z M 1681.4668 812 C 1671.2001 812 1665.3339 818.53294 1663.8672 827.59961 L 1661.4668 841.86719 L 1636.9336 841.86719 L 1635.4668 850.80078 L 1660 850.80078 L 1646.9336 929.06641 L 1644.5332 929.59961 L 1624 907.73242 L 1616.9336 914.13281 L 1625.0664 923.06641 C 1635.7331 934.66641 1639.5992 938.93359 1645.1992 938.93359 C 1653.1992 938.93359 1656.8 932.40026 1658 924.93359 L 1670.4004 850.80078 L 1698.2656 850.80078 L 1699.7324 841.86719 L 1671.8672 841.86719 L 1675.334 820.93359 L 1703.0664 820.93359 L 1704.5332 812 L 1681.4668 812 z M 121.06641 817.59961 L 119.59961 826.40039 L 142.93359 826.40039 L 130.26758 901.86719 L 106.93359 901.86719 L 105.4668 910.66602 L 163.06641 910.66602 L 164.5332 901.86719 L 141.19922 901.86719 L 153.86719 826.40039 L 177.19922 826.40039 L 178.66602 817.59961 L 121.06641 817.59961 z M 379.86719 840.26758 C 355.60052 840.26758 347.33398 867.19961 347.33398 885.59961 C 347.33398 903.19961 354.93411 912.26758 368.80078 912.26758 C 380.93411 912.26758 387.86589 905.20039 393.19922 894.40039 L 393.59961 894.40039 L 390.93359 910.66602 L 401.33398 910.66602 L 412.80078 841.86719 L 402.40039 841.86719 L 400.40039 853.86719 L 400 853.86719 C 397.06667 844.93385 390.00052 840.26758 379.86719 840.26758 z M 547.4668 840.26758 C 525.33346 840.26758 509.59961 857.86745 509.59961 882.80078 C 509.59961 902.53411 519.46745 912.26758 536.80078 912.26758 C 551.33411 912.26758 560.66706 905.33268 568.40039 892.66602 L 561.06641 888.13281 C 553.33307 899.06615 547.59909 903.33398 537.73242 903.33398 C 523.33242 903.33398 520.5332 894.40078 520.5332 884.80078 C 520.5332 884.53411 520.53268 883.06576 520.66602 881.73242 C 564.53268 880.53242 570.80078 868.53411 570.80078 858.80078 C 570.80078 846.80078 560.93346 840.26758 547.4668 840.26758 z M 699.59961 840.26758 C 675.33294 840.26758 667.06641 867.19961 667.06641 885.59961 C 667.06641 903.19961 674.66654 912.26758 688.5332 912.26758 C 700.66654 912.26758 707.60026 905.20039 712.93359 894.40039 L 713.33398 894.40039 L 710.66602 910.66602 L 721.06641 910.66602 L 732.5332 841.86719 L 722.13281 841.86719 L 720.13281 853.86719 L 719.73242 853.86719 C 716.79909 844.93385 709.73294 840.26758 699.59961 840.26758 z M 859.4668 840.26758 C 835.73346 840.26758 827.06641 866.13385 827.06641 883.86719 C 827.06641 900.66719 834.53268 910 848.66602 910 C 860.79935 910 867.99922 903.19948 873.19922 892.13281 L 873.73242 892.13281 L 870.93359 908.66602 C 868.40026 923.86602 860.93372 929.73242 848.40039 929.73242 C 840.00039 929.73242 834.40078 927.06654 830.80078 922.5332 L 823.59961 929.4668 C 828.53294 935.60013 836.66576 938.93359 847.73242 938.93359 C 864.93242 938.93359 877.46693 930.93268 880.93359 910.66602 L 892.40039 841.86719 L 882 841.86719 L 880 853.86719 L 879.59961 853.86719 C 876.66628 844.93385 869.60013 840.26758 859.4668 840.26758 z M 944 840.26758 C 923.86667 840.26758 908 856.93255 908 883.19922 C 908 900.39922 917.20078 912.26758 934.80078 912.26758 C 955.06745 912.26758 970.93359 895.60065 970.93359 869.33398 C 970.93359 852.13398 961.86667 840.26758 944 840.26758 z M 1024 840.26758 C 1003.8667 840.26758 988 856.93255 988 883.19922 C 988 900.39922 997.20078 912.26758 1014.8008 912.26758 C 1035.0674 912.26758 1050.9336 895.60065 1050.9336 869.33398 C 1050.9336 852.13398 1041.8667 840.26758 1024 840.26758 z M 1343.8672 840.26758 C 1323.7339 840.26758 1307.8672 856.93255 1307.8672 883.19922 C 1307.8672 900.39922 1317.066 912.26758 1334.666 912.26758 C 1354.9327 912.26758 1370.8008 895.60065 1370.8008 869.33398 C 1370.8008 852.13398 1361.7339 840.26758 1343.8672 840.26758 z M 1743.5996 840.26758 C 1723.4663 840.26758 1707.5996 856.93255 1707.5996 883.19922 C 1707.5996 900.39922 1716.8004 912.26758 1734.4004 912.26758 C 1754.6671 912.26758 1770.5332 895.60065 1770.5332 869.33398 C 1770.5332 852.13398 1761.4663 840.26758 1743.5996 840.26758 z M 487.59961 841.06641 L 477.59961 844 C 480.13294 848.93333 481.33398 854.93359 481.33398 860.93359 C 481.33398 880.80026 469.73294 900.66628 447.59961 903.59961 L 445.86719 902.40039 L 454.93359 841.86719 L 430.13281 841.86719 L 428.66602 850.80078 L 443.33398 850.80078 L 436.40039 897.19922 C 436.13372 898.79922 435.86719 900.79948 435.86719 902.13281 C 435.86719 908.13281 439.19948 911.73242 446.13281 911.73242 C 470.93281 911.73242 492 888.40039 492 860.40039 C 492 853.20039 490.39961 846.39974 487.59961 841.06641 z M 1291.334 841.19922 L 1282.5332 843.86719 C 1284.5332 848.13385 1285.5996 855.06576 1285.5996 861.73242 C 1285.5996 881.33242 1278.1328 903.4668 1268.1328 903.4668 C 1263.9995 903.4668 1262.2676 901.19909 1262.2676 895.73242 C 1262.2676 893.46576 1262.4003 890.93294 1262.9336 887.59961 L 1270.4004 841.86719 L 1261.334 841.86719 L 1253.7324 885.86719 C 1253.0658 889.33385 1251.8673 894.66615 1249.334 898.13281 C 1246.934 901.33281 1244.4008 903.4668 1240.8008 903.4668 C 1236.9341 903.4668 1234.8008 901.20052 1234.8008 895.86719 C 1234.8008 893.46719 1235.0663 890.66628 1235.5996 887.59961 L 1243.0664 841.86719 L 1233.7324 841.86719 L 1225.8672 889.4668 C 1225.3339 892.93346 1225.0664 895.60039 1225.0664 898.40039 C 1225.0664 906.66706 1229.0664 912 1237.0664 912 C 1245.4664 912 1250.1333 906.66667 1254 898 L 1254.666 898 C 1253.9993 908.4 1258.8 912 1266 912 C 1273.3333 912 1279.7332 908.53385 1284.5332 901.86719 C 1291.1999 892.53385 1294.9336 877.19922 1294.9336 861.19922 C 1294.9336 853.06589 1293.4673 845.86589 1291.334 841.19922 z M 1395.1992 841.86719 L 1393.7324 850.80078 L 1413.0664 850.80078 L 1403.0664 910.66602 L 1413.4668 910.66602 L 1419.4668 874.80078 C 1420.8001 866.80078 1425.6007 861.19922 1427.334 859.19922 C 1431.4673 854.39922 1436.4004 852.26758 1444.4004 852.26758 L 1456.1328 852.26758 L 1457.8672 841.86719 L 1447.4668 841.86719 C 1434.2668 841.86719 1427.3332 849.33425 1422.5332 860.26758 L 1421.8672 860.26758 L 1424.9336 841.86719 L 1395.1992 841.86719 z M 1794.9336 841.86719 L 1793.4668 850.80078 L 1812.8008 850.80078 L 1802.8008 910.66602 L 1813.1992 910.66602 L 1819.1992 874.80078 C 1820.5326 866.80078 1825.3331 861.19922 1827.0664 859.19922 C 1831.1997 854.39922 1836.1328 852.26758 1844.1328 852.26758 L 1855.8672 852.26758 L 1857.5996 841.86719 L 1847.1992 841.86719 C 1833.9992 841.86719 1827.0656 849.33425 1822.2656 860.26758 L 1821.5996 860.26758 L 1824.666 841.86719 L 1794.9336 841.86719 z M 546.5332 848.93359 C 556.5332 848.93359 560.13281 853.59922 560.13281 859.19922 C 560.13281 865.86589 555.0668 873.46654 521.4668 874.5332 L 521.59961 873.19922 C 523.59961 857.59922 532.66654 848.93359 546.5332 848.93359 z M 943.59961 849.33398 C 953.86628 849.33398 960.40039 854.66758 960.40039 866.26758 C 960.40039 867.86758 960.26576 869.86641 959.73242 873.06641 L 958.40039 881.06641 C 956.13372 894.66641 948.26732 903.19922 935.33398 903.19922 C 925.06732 903.19922 918.5332 897.86758 918.5332 886.26758 C 918.5332 884.66758 918.66589 882.6668 919.19922 879.4668 L 920.5332 871.4668 C 922.79987 857.8668 930.66628 849.33398 943.59961 849.33398 z M 1023.5996 849.33398 C 1033.8663 849.33398 1040.4004 854.66758 1040.4004 866.26758 C 1040.4004 867.86758 1040.2658 869.86641 1039.7324 873.06641 L 1038.4004 881.06641 C 1036.1337 894.66641 1028.2673 903.19922 1015.334 903.19922 C 1005.0673 903.19922 998.5332 897.86758 998.5332 886.26758 C 998.5332 884.66758 998.66589 882.6668 999.19922 879.4668 L 1000.5332 871.4668 C 1002.7999 857.8668 1010.6663 849.33398 1023.5996 849.33398 z M 1343.4668 849.33398 C 1353.7335 849.33398 1360.2676 854.66758 1360.2676 866.26758 C 1360.2676 867.86758 1360.1329 869.86641 1359.5996 873.06641 L 1358.2676 881.06641 C 1356.0009 894.66641 1348.1326 903.19922 1335.1992 903.19922 C 1324.9326 903.19922 1318.4004 897.86758 1318.4004 886.26758 C 1318.4004 884.66758 1318.5331 882.6668 1319.0664 879.4668 L 1320.4004 871.4668 C 1322.6671 857.8668 1330.5335 849.33398 1343.4668 849.33398 z M 1743.1992 849.33398 C 1753.4659 849.33398 1760 854.66758 1760 866.26758 C 1760 867.86758 1759.8673 869.86641 1759.334 873.06641 L 1758 881.06641 C 1755.7333 894.66641 1747.8669 903.19922 1734.9336 903.19922 C 1724.6669 903.19922 1718.1328 897.86758 1718.1328 886.26758 C 1718.1328 884.66758 1718.2674 882.6668 1718.8008 879.4668 L 1720.1328 871.4668 C 1722.3995 857.8668 1730.2659 849.33398 1743.1992 849.33398 z M 382.93359 849.4668 C 393.20026 849.4668 400.26602 854.9332 398.66602 864.5332 L 396.13281 879.73242 C 395.06615 886.13242 391.99987 891.60013 388.5332 895.4668 C 383.7332 900.80013 378.13372 903.06641 372.40039 903.06641 C 362.80039 903.06641 357.86719 896.93268 357.86719 886.66602 C 357.86719 884.93268 358.00039 883.06602 358.40039 880.66602 L 360 871.06641 C 362.13333 858.26641 369.73359 849.4668 382.93359 849.4668 z M 702.66602 849.4668 C 712.93268 849.4668 720.00039 854.9332 718.40039 864.5332 L 715.86719 879.73242 C 714.80052 886.13242 711.73424 891.60013 708.26758 895.4668 C 703.46758 900.80013 697.86615 903.06641 692.13281 903.06641 C 682.53281 903.06641 677.59961 896.93268 677.59961 886.66602 C 677.59961 884.93268 677.73281 883.06602 678.13281 880.66602 L 679.73242 871.06641 C 681.86576 858.26641 689.46602 849.4668 702.66602 849.4668 z M 862.5332 849.4668 C 872.79987 849.4668 879.86758 854.9332 878.26758 864.5332 L 876.13281 877.59961 C 874.93281 885.06628 871.06654 890.39922 868.5332 893.19922 C 863.59987 898.66589 858.00091 900.80078 852.26758 900.80078 C 842.66758 900.80078 837.73242 894.80052 837.73242 883.86719 C 837.73242 882.00052 838.00039 880.4 838.40039 878 L 839.59961 870.80078 C 841.73294 858.00078 849.59987 849.4668 862.5332 849.4668 z M 1102.5332 849.4668 C 1112.7999 849.4668 1119.8676 854.9332 1118.2676 864.5332 L 1115.7324 879.73242 C 1114.6658 886.13242 1111.5995 891.60013 1108.1328 895.4668 C 1103.3328 900.80013 1097.7333 903.06641 1092 903.06641 C 1082.4 903.06641 1077.4668 896.93268 1077.4668 886.66602 C 1077.4668 884.93268 1077.6 883.06602 1078 880.66602 L 1079.5996 871.06641 C 1081.7329 858.26641 1089.3332 849.4668 1102.5332 849.4668 z M 1502.4004 849.4668 C 1512.6671 849.4668 1519.7328 854.9332 1518.1328 864.5332 L 1515.5996 879.73242 C 1514.5329 886.13242 1511.4667 891.60013 1508 895.4668 C 1503.2 900.80013 1497.6005 903.06641 1491.8672 903.06641 C 1482.2672 903.06641 1477.334 896.93268 1477.334 886.66602 C 1477.334 884.93268 1477.4672 883.06602 1477.8672 880.66602 L 1479.4668 871.06641 C 1481.6001 858.26641 1489.2004 849.4668 1502.4004 849.4668 z M 147.59961 1006.9336 C 125.46627 1006.9336 109.73242 1024.5335 109.73242 1049.4668 C 109.73242 1069.2001 119.60026 1078.9336 136.93359 1078.9336 C 151.46693 1078.9336 160.79987 1072.0007 168.5332 1059.334 L 161.19922 1054.8008 C 153.46589 1065.7341 147.73385 1070 137.86719 1070 C 123.46719 1070 120.66602 1061.0668 120.66602 1051.4668 C 120.66602 1051.2001 120.66745 1049.7337 120.80078 1048.4004 C 164.66745 1047.2004 170.93359 1035.2001 170.93359 1025.4668 C 170.93359 1013.4668 161.06628 1006.9336 147.59961 1006.9336 z M 307.59961 1006.9336 C 285.46628 1006.9336 269.73242 1024.5335 269.73242 1049.4668 C 269.73242 1069.2001 279.60026 1078.9336 296.93359 1078.9336 C 311.46693 1078.9336 320.79987 1072.0007 328.5332 1059.334 L 321.19922 1054.8008 C 313.46589 1065.7341 307.73385 1070 297.86719 1070 C 283.46719 1070 280.66602 1061.0668 280.66602 1051.4668 C 280.66602 1051.2001 280.66745 1049.7337 280.80078 1048.4004 C 324.66745 1047.2004 330.93359 1035.2001 330.93359 1025.4668 C 330.93359 1013.4668 321.06628 1006.9336 307.59961 1006.9336 z M 544.5332 1006.9336 C 524.39987 1006.9336 508.5332 1023.6005 508.5332 1049.8672 C 508.5332 1067.0672 517.73398 1078.9336 535.33398 1078.9336 C 555.60065 1078.9336 571.4668 1062.2667 571.4668 1036 C 571.4668 1018.8 562.39987 1006.9336 544.5332 1006.9336 z M 630.5332 1006.9336 C 619.46654 1006.9336 612.66628 1013.8674 607.59961 1024.8008 L 607.06641 1024.8008 L 609.73242 1008.5332 L 599.33398 1008.5332 L 587.86719 1077.334 L 598.26758 1077.334 L 604.66602 1039.334 C 605.99935 1031.4673 611.06654 1025.3329 612.5332 1023.5996 C 616.39987 1019.0663 621.06641 1016.1328 627.06641 1016.1328 C 634.79974 1016.1328 638.5332 1021.2007 638.5332 1029.334 C 638.5332 1030.8007 638.40052 1033.466 637.86719 1036.666 L 631.06641 1077.334 L 641.4668 1077.334 L 648.40039 1035.7324 C 648.93372 1032.6658 649.19922 1029.4674 649.19922 1026.8008 C 649.19922 1014.2674 641.99987 1006.9336 630.5332 1006.9336 z M 707.19922 1006.9336 C 685.06589 1006.9336 669.33398 1024.5335 669.33398 1049.4668 C 669.33398 1069.2001 679.19987 1078.9336 696.5332 1078.9336 C 711.06654 1078.9336 720.39948 1072.0007 728.13281 1059.334 L 720.80078 1054.8008 C 713.06745 1065.7341 707.33346 1070 697.4668 1070 C 683.0668 1070 680.26758 1061.0668 680.26758 1051.4668 C 680.26758 1051.2001 680.26706 1049.7337 680.40039 1048.4004 C 724.26706 1047.2004 730.5332 1035.2001 730.5332 1025.4668 C 730.5332 1013.4668 720.66589 1006.9336 707.19922 1006.9336 z M 247.73242 1007.7324 L 237.73242 1010.666 C 240.26576 1015.5993 241.4668 1021.5996 241.4668 1027.5996 C 241.4668 1047.4663 229.86575 1067.3342 207.73242 1070.2676 L 206 1069.0664 L 215.06641 1008.5332 L 190.26758 1008.5332 L 188.80078 1017.4668 L 203.4668 1017.4668 L 196.5332 1063.8672 C 196.26654 1065.4672 196 1067.4674 196 1068.8008 C 196 1074.8008 199.33424 1078.4004 206.26758 1078.4004 C 231.06758 1078.4004 252.13281 1055.0664 252.13281 1027.0664 C 252.13281 1019.8664 250.53242 1013.0658 247.73242 1007.7324 z M 355.86719 1008.5332 L 354.40039 1017.4668 L 373.73242 1017.4668 L 363.73242 1077.334 L 374.13281 1077.334 L 380.13281 1041.4668 C 381.46615 1033.4668 386.26667 1027.8672 388 1025.8672 C 392.13333 1021.0672 397.06641 1018.9336 405.06641 1018.9336 L 416.80078 1018.9336 L 418.5332 1008.5332 L 408.13281 1008.5332 C 394.93281 1008.5332 387.99922 1016.0003 383.19922 1026.9336 L 382.5332 1026.9336 L 385.59961 1008.5332 L 355.86719 1008.5332 z M 438.80078 1008.5332 L 432.13281 1048.5332 C 431.59948 1052.1332 431.33398 1054.6664 431.33398 1057.0664 C 431.33398 1069.5997 438.66615 1076.9336 450.13281 1076.9336 C 461.19948 1076.9336 468.13255 1069.9997 473.19922 1059.0664 L 473.59961 1059.0664 L 470.93359 1075.334 C 468.53359 1090.2673 461.06706 1096.4004 448.40039 1096.4004 C 440.00039 1096.4004 434.40078 1093.7326 430.80078 1089.1992 L 423.59961 1096.1328 C 428.53294 1102.2661 436.66576 1105.5996 447.73242 1105.5996 C 464.93242 1105.5996 477.46693 1097.6007 480.93359 1077.334 L 492.40039 1008.5332 L 482 1008.5332 L 476 1044.5332 C 474.66667 1052.3999 469.59948 1058.5342 468.13281 1060.2676 C 464.26615 1064.8009 459.59961 1067.7324 453.59961 1067.7324 C 445.86628 1067.7324 442 1062.6665 442 1054.5332 C 442 1053.0665 442.13268 1050.6663 442.66602 1047.5996 L 449.19922 1008.5332 L 438.80078 1008.5332 z M 146.66602 1015.5996 C 156.66602 1015.5996 160.26758 1020.2672 160.26758 1025.8672 C 160.26758 1032.5339 155.19961 1040.1326 121.59961 1041.1992 L 121.73242 1039.8672 C 123.73242 1024.2672 132.79935 1015.5996 146.66602 1015.5996 z M 306.66602 1015.5996 C 316.66602 1015.5996 320.26758 1020.2672 320.26758 1025.8672 C 320.26758 1032.5339 315.19961 1040.1326 281.59961 1041.1992 L 281.73242 1039.8672 C 283.73242 1024.2672 292.79935 1015.5996 306.66602 1015.5996 z M 706.26758 1015.5996 C 716.26758 1015.5996 719.86719 1020.2672 719.86719 1025.8672 C 719.86719 1032.5339 714.79922 1040.1326 681.19922 1041.1992 L 681.33398 1039.8672 C 683.33398 1024.2672 692.40091 1015.5996 706.26758 1015.5996 z M 544.13281 1016 C 554.39948 1016 560.93359 1021.3336 560.93359 1032.9336 C 560.93359 1034.5336 560.80091 1036.5324 560.26758 1039.7324 L 558.93359 1047.7324 C 556.66693 1061.3324 548.80052 1069.8672 535.86719 1069.8672 C 525.60052 1069.8672 519.06641 1064.5336 519.06641 1052.9336 C 519.06641 1051.3336 519.19909 1049.3328 519.73242 1046.1328 L 521.06641 1038.1328 C 523.33307 1024.5328 531.19948 1016 544.13281 1016 z M 776.5332 1060.4004 C 769.7332 1060.4004 766.53242 1063.4676 765.73242 1068.2676 C 765.46576 1069.8676 765.19922 1071.4665 765.19922 1072.5332 C 765.19922 1075.8665 767.60052 1078.5332 773.86719 1078.5332 C 780.66719 1078.5332 783.86602 1075.466 784.66602 1070.666 C 784.93268 1069.066 785.19922 1067.4671 785.19922 1066.4004 C 785.19922 1063.0671 782.79987 1060.4004 776.5332 1060.4004 z M 2065.8672 1310.9336 C 2060.5339 1310.9336 2057.7331 1313.334 2057.0664 1317.334 C 2056.7997 1318.934 2056.5332 1320.1326 2056.5332 1321.1992 C 2056.5332 1323.9992 2058.5342 1326.5332 2064.2676 1326.5332 C 2069.6009 1326.5332 2072.3997 1324.1328 2073.0664 1320.1328 C 2073.3331 1318.5328 2073.5996 1317.3342 2073.5996 1316.2676 C 2073.5996 1313.4676 2071.6005 1310.9336 2065.8672 1310.9336 z M 545.59961 1312 L 539.4668 1348.8008 L 549.33398 1348.8008 L 555.4668 1312 L 545.59961 1312 z M 1127.1992 1312 L 1120.1328 1353.8672 L 1119.7324 1353.8672 C 1116.7991 1344.9339 1109.7329 1340.2676 1099.5996 1340.2676 C 1075.3329 1340.2676 1067.0664 1367.1996 1067.0664 1385.5996 C 1067.0664 1403.1996 1074.6665 1412.2676 1088.5332 1412.2676 C 1100.6665 1412.2676 1107.6003 1405.2004 1112.9336 1394.4004 L 1113.334 1394.4004 L 1110.666 1410.666 L 1121.0664 1410.666 L 1137.5996 1312 L 1127.1992 1312 z M 1521.7324 1312 C 1511.4658 1312 1505.5995 1318.5329 1504.1328 1327.5996 L 1501.7324 1341.8672 L 1477.1992 1341.8672 L 1475.7324 1350.8008 L 1500.2676 1350.8008 L 1487.1992 1429.0664 L 1484.8008 1429.5996 L 1464.2676 1407.7324 L 1457.1992 1414.1328 L 1465.334 1423.0664 C 1476.0007 1434.6664 1479.8668 1438.9336 1485.4668 1438.9336 C 1493.4668 1438.9336 1497.0676 1432.4003 1498.2676 1424.9336 L 1510.666 1350.8008 L 1538.5332 1350.8008 L 1540 1341.8672 L 1512.1328 1341.8672 L 1515.5996 1320.9336 L 1543.334 1320.9336 L 1544.8008 1312 L 1521.7324 1312 z M 121.06641 1317.5996 L 119.59961 1326.4004 L 142.93359 1326.4004 L 130.26758 1401.8672 L 106.93359 1401.8672 L 105.4668 1410.666 L 163.06641 1410.666 L 164.5332 1401.8672 L 141.19922 1401.8672 L 153.86719 1326.4004 L 177.19922 1326.4004 L 178.66602 1317.5996 L 121.06641 1317.5996 z M 616.40039 1317.5996 L 613.33398 1335.5996 C 612.53398 1340.2663 610.40052 1341.8672 605.86719 1341.8672 L 591.86719 1341.8672 L 590.40039 1350.8008 L 610.26758 1350.8008 L 602.26758 1397.1992 C 602.00091 1398.6659 601.86719 1401.2004 601.86719 1402.4004 C 601.86719 1408.8004 605.46576 1412.2676 611.73242 1412.2676 C 617.19909 1412.2676 622.53359 1409.466 634.93359 1400.666 L 650 1390 L 644.80078 1383.334 L 614.80078 1403.334 L 612.13281 1401.7324 L 620.66602 1350.8008 L 649.06641 1350.8008 L 650.5332 1341.8672 L 622.13281 1341.8672 L 626.26758 1317.5996 L 616.40039 1317.5996 z M 856.13281 1317.5996 L 853.06641 1335.5996 C 852.26641 1340.2663 850.13294 1341.8672 845.59961 1341.8672 L 831.59961 1341.8672 L 830.13281 1350.8008 L 850 1350.8008 L 842 1397.1992 C 841.73333 1398.6659 841.59961 1401.2004 841.59961 1402.4004 C 841.59961 1408.8004 845.20013 1412.2676 851.4668 1412.2676 C 856.93346 1412.2676 862.26602 1409.466 874.66602 1400.666 L 889.73242 1390 L 884.5332 1383.334 L 854.5332 1403.334 L 851.86719 1401.7324 L 860.40039 1350.8008 L 888.80078 1350.8008 L 890.26758 1341.8672 L 861.86719 1341.8672 L 866 1317.5996 L 856.13281 1317.5996 z M 1815.4668 1317.5996 L 1812.4004 1335.5996 C 1811.6004 1340.2663 1809.4669 1341.8672 1804.9336 1341.8672 L 1790.9336 1341.8672 L 1789.4668 1350.8008 L 1809.334 1350.8008 L 1801.334 1397.1992 C 1801.0673 1398.6659 1800.9336 1401.2004 1800.9336 1402.4004 C 1800.9336 1408.8004 1804.5341 1412.2676 1810.8008 1412.2676 C 1816.2674 1412.2676 1821.6 1409.466 1834 1400.666 L 1849.0664 1390 L 1843.8672 1383.334 L 1813.8672 1403.334 L 1811.1992 1401.7324 L 1819.7324 1350.8008 L 1848.1328 1350.8008 L 1849.5996 1341.8672 L 1821.1992 1341.8672 L 1825.334 1317.5996 L 1815.4668 1317.5996 z M 1975.4668 1317.5996 L 1972.4004 1335.5996 C 1971.6004 1340.2663 1969.4669 1341.8672 1964.9336 1341.8672 L 1950.9336 1341.8672 L 1949.4668 1350.8008 L 1969.334 1350.8008 L 1961.334 1397.1992 C 1961.0673 1398.6659 1960.9336 1401.2004 1960.9336 1402.4004 C 1960.9336 1408.8004 1964.5341 1412.2676 1970.8008 1412.2676 C 1976.2674 1412.2676 1981.6 1409.466 1994 1400.666 L 2009.0664 1390 L 2003.8672 1383.334 L 1973.8672 1403.334 L 1971.1992 1401.7324 L 1979.7324 1350.8008 L 2008.1328 1350.8008 L 2009.5996 1341.8672 L 1981.1992 1341.8672 L 1985.334 1317.5996 L 1975.4668 1317.5996 z M 305.33398 1340.2676 C 285.73398 1340.2676 269.86719 1356.9326 269.86719 1383.1992 C 269.86719 1400.3992 278.80052 1412.2676 295.86719 1412.2676 C 310.26719 1412.2676 318.93294 1404.8008 327.59961 1390.8008 L 320.13281 1386.4004 C 309.19948 1401.4671 303.33255 1403.1992 297.19922 1403.1992 C 287.19922 1403.1992 280.40039 1397.7333 280.40039 1386 C 280.40039 1384.2667 280.53307 1382.7996 281.06641 1379.5996 L 282.40039 1371.5996 C 284.80039 1357.1996 292.39948 1349.334 304.13281 1349.334 C 312.66615 1349.334 317.73372 1351.8676 320.40039 1360.2676 L 329.33398 1356.8008 C 326.93398 1347.7341 319.86732 1340.2676 305.33398 1340.2676 z M 379.86719 1340.2676 C 355.60052 1340.2676 347.33398 1367.1996 347.33398 1385.5996 C 347.33398 1403.1996 354.93411 1412.2676 368.80078 1412.2676 C 380.93411 1412.2676 387.86589 1405.2004 393.19922 1394.4004 L 393.59961 1394.4004 L 390.93359 1410.666 L 401.33398 1410.666 L 412.80078 1341.8672 L 402.40039 1341.8672 L 400.40039 1353.8672 L 400 1353.8672 C 397.06667 1344.9339 390.00052 1340.2676 379.86719 1340.2676 z M 470.40039 1340.2676 C 459.33372 1340.2676 452.53346 1347.1995 447.4668 1358.1328 L 446.93359 1358.1328 L 449.59961 1341.8672 L 439.19922 1341.8672 L 427.73242 1410.666 L 438.13281 1410.666 L 444.5332 1372.666 C 445.86654 1364.7993 450.93372 1358.6669 452.40039 1356.9336 C 456.26706 1352.4003 460.93359 1349.4668 466.93359 1349.4668 C 474.66693 1349.4668 478.40039 1354.5327 478.40039 1362.666 C 478.40039 1364.1327 478.26576 1366.8 477.73242 1370 L 470.93359 1410.666 L 481.33398 1410.666 L 488.26758 1369.0664 C 488.80091 1365.9997 489.06641 1362.7995 489.06641 1360.1328 C 489.06641 1347.5995 481.86706 1340.2676 470.40039 1340.2676 z M 784.93359 1340.2676 C 768.66693 1340.2676 755.4668 1347.5995 755.4668 1362.1328 C 755.4668 1374.9328 765.86719 1378.2658 775.86719 1379.7324 L 785.86719 1381.1992 C 791.46719 1381.9992 795.86719 1383.8676 795.86719 1390.2676 C 795.86719 1398.5342 788.40091 1403.4668 776.26758 1403.4668 C 765.86758 1403.4668 759.06576 1399.8659 753.73242 1393.1992 L 746 1399.334 C 752 1407.6007 762.00065 1412.2676 775.33398 1412.2676 C 793.73398 1412.2676 806.13281 1403.4659 806.13281 1389.1992 C 806.13281 1375.5992 794.8 1373.4667 786 1372 L 776.26758 1370.4004 C 770.66758 1369.4671 765.59961 1368.0007 765.59961 1361.334 C 765.59961 1353.8673 771.86576 1349.0664 783.73242 1349.0664 C 795.33242 1349.0664 800.93398 1353.5992 803.33398 1357.1992 L 810.66602 1350.8008 C 805.46602 1344.2674 796.93359 1340.2676 784.93359 1340.2676 z M 939.59961 1340.2676 C 915.33294 1340.2676 907.06641 1367.1996 907.06641 1385.5996 C 907.06641 1403.1996 914.66654 1412.2676 928.5332 1412.2676 C 940.66654 1412.2676 947.60026 1405.2004 952.93359 1394.4004 L 953.33398 1394.4004 L 950.66602 1410.666 L 961.06641 1410.666 L 972.5332 1341.8672 L 962.13281 1341.8672 L 960.13281 1353.8672 L 959.73242 1353.8672 C 956.79909 1344.9339 949.73294 1340.2676 939.59961 1340.2676 z M 1030.1328 1340.2676 C 1019.0661 1340.2676 1012.2659 1347.1995 1007.1992 1358.1328 L 1006.666 1358.1328 L 1009.334 1341.8672 L 998.93359 1341.8672 L 987.4668 1410.666 L 997.86719 1410.666 L 1004.2676 1372.666 C 1005.6009 1364.7993 1010.6661 1358.6669 1012.1328 1356.9336 C 1015.9995 1352.4003 1020.666 1349.4668 1026.666 1349.4668 C 1034.3993 1349.4668 1038.1328 1354.5327 1038.1328 1362.666 C 1038.1328 1364.1327 1038.0001 1366.8 1037.4668 1370 L 1030.666 1410.666 L 1041.0664 1410.666 L 1048 1369.0664 C 1048.5333 1365.9997 1048.8008 1362.7995 1048.8008 1360.1328 C 1048.8008 1347.5995 1041.5995 1340.2676 1030.1328 1340.2676 z M 1264.8008 1340.2676 C 1245.2008 1340.2676 1229.334 1356.9326 1229.334 1383.1992 C 1229.334 1400.3992 1238.2673 1412.2676 1255.334 1412.2676 C 1269.734 1412.2676 1278.3997 1404.8008 1287.0664 1390.8008 L 1279.5996 1386.4004 C 1268.6663 1401.4671 1262.7993 1403.1992 1256.666 1403.1992 C 1246.666 1403.1992 1239.8672 1397.7333 1239.8672 1386 C 1239.8672 1384.2667 1239.9999 1382.7996 1240.5332 1379.5996 L 1241.8672 1371.5996 C 1244.2672 1357.1996 1251.8663 1349.334 1263.5996 1349.334 C 1272.1329 1349.334 1277.2005 1351.8676 1279.8672 1360.2676 L 1288.8008 1356.8008 C 1286.4008 1347.7341 1279.3341 1340.2676 1264.8008 1340.2676 z M 1343.8672 1340.2676 C 1323.7339 1340.2676 1307.8672 1356.9326 1307.8672 1383.1992 C 1307.8672 1400.3992 1317.066 1412.2676 1334.666 1412.2676 C 1354.9327 1412.2676 1370.8008 1395.6007 1370.8008 1369.334 C 1370.8008 1352.134 1361.7339 1340.2676 1343.8672 1340.2676 z M 1429.8672 1340.2676 C 1418.8005 1340.2676 1412.0003 1347.1995 1406.9336 1358.1328 L 1406.4004 1358.1328 L 1409.0664 1341.8672 L 1398.666 1341.8672 L 1387.1992 1410.666 L 1397.5996 1410.666 L 1404 1372.666 C 1405.3333 1364.7993 1410.4005 1358.6669 1411.8672 1356.9336 C 1415.7339 1352.4003 1420.4004 1349.4668 1426.4004 1349.4668 C 1434.1337 1349.4668 1437.8672 1354.5327 1437.8672 1362.666 C 1437.8672 1364.1327 1437.7326 1366.8 1437.1992 1370 L 1430.4004 1410.666 L 1440.8008 1410.666 L 1447.7324 1369.0664 C 1448.2658 1365.9997 1448.5332 1362.7995 1448.5332 1360.1328 C 1448.5332 1347.5995 1441.3339 1340.2676 1429.8672 1340.2676 z M 1663.8672 1340.2676 C 1643.7339 1340.2676 1627.8672 1356.9326 1627.8672 1383.1992 C 1627.8672 1400.3992 1637.066 1412.2676 1654.666 1412.2676 C 1674.9327 1412.2676 1690.8008 1395.6007 1690.8008 1369.334 C 1690.8008 1352.134 1681.7339 1340.2676 1663.8672 1340.2676 z M 1749.4668 1340.2676 C 1738.4001 1340.2676 1731.5999 1347.1995 1726.5332 1358.1328 L 1726 1358.1328 L 1728.666 1341.8672 L 1718.2676 1341.8672 L 1706.8008 1410.666 L 1717.1992 1410.666 L 1723.5996 1372.666 C 1724.9329 1364.7993 1730.0001 1358.6669 1731.4668 1356.9336 C 1735.3335 1352.4003 1740 1349.4668 1746 1349.4668 C 1753.7333 1349.4668 1757.4668 1354.5327 1757.4668 1362.666 C 1757.4668 1364.1327 1757.3341 1366.8 1756.8008 1370 L 1750 1410.666 L 1760.4004 1410.666 L 1767.334 1369.0664 C 1767.8673 1365.9997 1768.1328 1362.7995 1768.1328 1360.1328 C 1768.1328 1347.5995 1760.9335 1340.2676 1749.4668 1340.2676 z M 1898.9336 1340.2676 C 1874.6669 1340.2676 1866.4004 1367.1996 1866.4004 1385.5996 C 1866.4004 1403.1996 1874.0005 1412.2676 1887.8672 1412.2676 C 1900.0005 1412.2676 1906.9342 1405.2004 1912.2676 1394.4004 L 1912.666 1394.4004 L 1910 1410.666 L 1920.4004 1410.666 L 1931.8672 1341.8672 L 1921.4668 1341.8672 L 1919.4668 1353.8672 L 1919.0664 1353.8672 C 1916.1331 1344.9339 1909.0669 1340.2676 1898.9336 1340.2676 z M 2143.4668 1340.2676 C 2123.3335 1340.2676 2107.4668 1356.9326 2107.4668 1383.1992 C 2107.4668 1400.3992 2116.6676 1412.2676 2134.2676 1412.2676 C 2154.5342 1412.2676 2170.4004 1395.6007 2170.4004 1369.334 C 2170.4004 1352.134 2161.3335 1340.2676 2143.4668 1340.2676 z M 2229.4668 1340.2676 C 2218.4001 1340.2676 2211.5999 1347.1995 2206.5332 1358.1328 L 2206 1358.1328 L 2208.666 1341.8672 L 2198.2676 1341.8672 L 2186.8008 1410.666 L 2197.1992 1410.666 L 2203.5996 1372.666 C 2204.9329 1364.7993 2210.0001 1358.6669 2211.4668 1356.9336 C 2215.3335 1352.4003 2220 1349.4668 2226 1349.4668 C 2233.7333 1349.4668 2237.4668 1354.5327 2237.4668 1362.666 C 2237.4668 1364.1327 2237.3341 1366.8 2236.8008 1370 L 2230 1410.666 L 2240.4004 1410.666 L 2247.334 1369.0664 C 2247.8673 1365.9997 2248.1328 1362.7995 2248.1328 1360.1328 C 2248.1328 1347.5995 2240.9335 1340.2676 2229.4668 1340.2676 z M 2303.8672 1340.2676 C 2287.6005 1340.2676 2274.4004 1347.5995 2274.4004 1362.1328 C 2274.4004 1374.9328 2284.8008 1378.2658 2294.8008 1379.7324 L 2304.8008 1381.1992 C 2310.4008 1381.9992 2314.8008 1383.8676 2314.8008 1390.2676 C 2314.8008 1398.5342 2307.3326 1403.4668 2295.1992 1403.4668 C 2284.7992 1403.4668 2277.9993 1399.8659 2272.666 1393.1992 L 2264.9336 1399.334 C 2270.9336 1407.6007 2280.9342 1412.2676 2294.2676 1412.2676 C 2312.6676 1412.2676 2325.0664 1403.4659 2325.0664 1389.1992 C 2325.0664 1375.5992 2313.7336 1373.4667 2304.9336 1372 L 2295.1992 1370.4004 C 2289.5992 1369.4671 2284.5332 1368.0007 2284.5332 1361.334 C 2284.5332 1353.8673 2290.7993 1349.0664 2302.666 1349.0664 C 2314.266 1349.0664 2319.8676 1353.5992 2322.2676 1357.1992 L 2329.5996 1350.8008 C 2324.3996 1344.2674 2315.8672 1340.2676 2303.8672 1340.2676 z M 1555.1992 1341.8672 L 1553.7324 1350.8008 L 1573.0664 1350.8008 L 1563.0664 1410.666 L 1573.4668 1410.666 L 1579.4668 1374.8008 C 1580.8001 1366.8008 1585.6007 1361.1992 1587.334 1359.1992 C 1591.4673 1354.3992 1596.4004 1352.2676 1604.4004 1352.2676 L 1616.1328 1352.2676 L 1617.8672 1341.8672 L 1607.4668 1341.8672 C 1594.2668 1341.8672 1587.3332 1349.3342 1582.5332 1360.2676 L 1581.8672 1360.2676 L 1584.9336 1341.8672 L 1555.1992 1341.8672 z M 2031.334 1341.8672 L 2029.8672 1350.8008 L 2054.666 1350.8008 L 2045.5996 1397.7324 C 2045.3329 1399.3324 2044.9336 1401.3331 2044.9336 1403.0664 C 2044.9336 1408.3997 2048.5326 1412.2676 2055.1992 1412.2676 C 2061.1992 1412.2676 2066.1327 1409.0668 2078.666 1397.4668 L 2090.8008 1386.2676 L 2084.5332 1380.4004 L 2058.2676 1403.0664 L 2055.1992 1401.8672 L 2066.8008 1341.8672 L 2031.334 1341.8672 z M 1343.4668 1349.334 C 1353.7335 1349.334 1360.2676 1354.6676 1360.2676 1366.2676 C 1360.2676 1367.8676 1360.1329 1369.8664 1359.5996 1373.0664 L 1358.2676 1381.0664 C 1356.0009 1394.6664 1348.1326 1403.1992 1335.1992 1403.1992 C 1324.9326 1403.1992 1318.4004 1397.8676 1318.4004 1386.2676 C 1318.4004 1384.6676 1318.5331 1382.6668 1319.0664 1379.4668 L 1320.4004 1371.4668 C 1322.6671 1357.8668 1330.5335 1349.334 1343.4668 1349.334 z M 1663.4668 1349.334 C 1673.7335 1349.334 1680.2676 1354.6676 1680.2676 1366.2676 C 1680.2676 1367.8676 1680.1329 1369.8664 1679.5996 1373.0664 L 1678.2676 1381.0664 C 1676.0009 1394.6664 1668.1326 1403.1992 1655.1992 1403.1992 C 1644.9326 1403.1992 1638.4004 1397.8676 1638.4004 1386.2676 C 1638.4004 1384.6676 1638.5331 1382.6668 1639.0664 1379.4668 L 1640.4004 1371.4668 C 1642.6671 1357.8668 1650.5335 1349.334 1663.4668 1349.334 z M 2143.0664 1349.334 C 2153.3331 1349.334 2159.8672 1354.6676 2159.8672 1366.2676 C 2159.8672 1367.8676 2159.7326 1369.8664 2159.1992 1373.0664 L 2157.8672 1381.0664 C 2155.6005 1394.6664 2147.7341 1403.1992 2134.8008 1403.1992 C 2124.5341 1403.1992 2118 1397.8676 2118 1386.2676 C 2118 1384.6676 2118.1327 1382.6668 2118.666 1379.4668 L 2120 1371.4668 C 2122.2667 1357.8668 2130.1331 1349.334 2143.0664 1349.334 z M 382.93359 1349.4668 C 393.20026 1349.4668 400.26602 1354.9332 398.66602 1364.5332 L 396.13281 1379.7324 C 395.06615 1386.1324 391.99987 1391.6001 388.5332 1395.4668 C 383.7332 1400.8001 378.13372 1403.0664 372.40039 1403.0664 C 362.80039 1403.0664 357.86719 1396.9327 357.86719 1386.666 C 357.86719 1384.9327 358.00039 1383.066 358.40039 1380.666 L 360 1371.0664 C 362.13333 1358.2664 369.73359 1349.4668 382.93359 1349.4668 z M 942.66602 1349.4668 C 952.93268 1349.4668 960.00039 1354.9332 958.40039 1364.5332 L 955.86719 1379.7324 C 954.80052 1386.1324 951.73424 1391.6001 948.26758 1395.4668 C 943.46758 1400.8001 937.86615 1403.0664 932.13281 1403.0664 C 922.53281 1403.0664 917.59961 1396.9327 917.59961 1386.666 C 917.59961 1384.9327 917.73281 1383.066 918.13281 1380.666 L 919.73242 1371.0664 C 921.86576 1358.2664 929.46602 1349.4668 942.66602 1349.4668 z M 1102.666 1349.4668 C 1112.9327 1349.4668 1120.0004 1354.9332 1118.4004 1364.5332 L 1115.8672 1379.7324 C 1114.8005 1386.1324 1111.7342 1391.6001 1108.2676 1395.4668 C 1103.4676 1400.8001 1097.8661 1403.0664 1092.1328 1403.0664 C 1082.5328 1403.0664 1077.5996 1396.9327 1077.5996 1386.666 C 1077.5996 1384.9327 1077.7328 1383.066 1078.1328 1380.666 L 1079.7324 1371.0664 C 1081.8658 1358.2664 1089.466 1349.4668 1102.666 1349.4668 z M 1902 1349.4668 C 1912.2667 1349.4668 1919.3324 1354.9332 1917.7324 1364.5332 L 1915.1992 1379.7324 C 1914.1326 1386.1324 1911.0663 1391.6001 1907.5996 1395.4668 C 1902.7996 1400.8001 1897.2001 1403.0664 1891.4668 1403.0664 C 1881.8668 1403.0664 1876.9336 1396.9327 1876.9336 1386.666 C 1876.9336 1384.9327 1877.0668 1383.066 1877.4668 1380.666 L 1879.0664 1371.0664 C 1881.1997 1358.2664 1888.8 1349.4668 1902 1349.4668 z M 2375.4668 1393.7324 C 2368.6668 1393.7324 2365.466 1396.7996 2364.666 1401.5996 C 2364.3993 1403.1996 2364.1328 1404.8005 2364.1328 1405.8672 C 2364.1328 1409.2005 2366.5341 1411.8672 2372.8008 1411.8672 C 2379.6008 1411.8672 2382.7996 1408.8 2383.5996 1404 C 2383.8663 1402.4 2384.1328 1400.7991 2384.1328 1399.7324 C 2384.1328 1396.3991 2381.7335 1393.7324 2375.4668 1393.7324 z M 275.59961 1645.334 L 274.13281 1654.2676 L 298.40039 1654.2676 L 283.4668 1731.8672 C 283.20013 1733.0672 283.06641 1734.9328 283.06641 1736.1328 C 283.06641 1741.5995 285.86641 1745.5996 293.06641 1745.5996 C 298.39974 1745.5996 303.19948 1743.3329 316.13281 1731.5996 L 330 1719.0664 L 324 1713.1992 L 296.66602 1736.4004 L 293.33398 1735.334 L 310.66602 1645.334 L 275.59961 1645.334 z M 722 1645.334 C 711.73333 1645.334 705.86706 1651.8669 704.40039 1660.9336 L 702 1675.1992 L 677.4668 1675.1992 L 676 1684.1328 L 700.5332 1684.1328 L 687.4668 1762.4004 L 685.06641 1762.9336 L 664.5332 1741.0664 L 657.4668 1747.4668 L 665.59961 1756.4004 C 676.26628 1768.0004 680.13242 1772.2676 685.73242 1772.2676 C 693.73242 1772.2676 697.3332 1765.7342 698.5332 1758.2676 L 710.93359 1684.1328 L 738.80078 1684.1328 L 740.26758 1675.1992 L 712.40039 1675.1992 L 715.86719 1654.2676 L 743.59961 1654.2676 L 745.06641 1645.334 L 722 1645.334 z M 755.33398 1645.334 L 753.86719 1654.2676 L 778.13281 1654.2676 L 763.19922 1731.8672 C 762.93255 1733.0672 762.80078 1734.9328 762.80078 1736.1328 C 762.80078 1741.5995 765.60078 1745.5996 772.80078 1745.5996 C 778.13411 1745.5996 782.93385 1743.3329 795.86719 1731.5996 L 809.73242 1719.0664 L 803.73242 1713.1992 L 776.40039 1736.4004 L 773.06641 1735.334 L 790.40039 1645.334 L 755.33398 1645.334 z M 121.06641 1650.9336 L 119.59961 1659.7324 L 142.93359 1659.7324 L 130.26758 1735.1992 L 106.93359 1735.1992 L 105.4668 1744 L 163.06641 1744 L 164.5332 1735.1992 L 141.19922 1735.1992 L 153.86719 1659.7324 L 177.19922 1659.7324 L 178.66602 1650.9336 L 121.06641 1650.9336 z M 384.40039 1673.5996 C 364.26706 1673.5996 348.40039 1690.2665 348.40039 1716.5332 C 348.40039 1733.7332 357.59922 1745.5996 375.19922 1745.5996 C 395.46588 1745.5996 411.33398 1728.9327 411.33398 1702.666 C 411.33398 1685.466 402.26706 1673.5996 384.40039 1673.5996 z M 547.4668 1673.5996 C 525.33346 1673.5996 509.59961 1691.1995 509.59961 1716.1328 C 509.59961 1735.8661 519.46745 1745.5996 536.80078 1745.5996 C 551.33411 1745.5996 560.66706 1738.6667 568.40039 1726 L 561.06641 1721.4668 C 553.33307 1732.4001 547.59909 1736.666 537.73242 1736.666 C 523.33242 1736.666 520.5332 1727.7328 520.5332 1718.1328 C 520.5332 1717.8661 520.53268 1716.3997 520.66602 1715.0664 C 564.53268 1713.8664 570.80078 1701.8661 570.80078 1692.1328 C 570.80078 1680.1328 560.93346 1673.5996 547.4668 1673.5996 z M 864.13281 1673.5996 C 843.99948 1673.5996 828.13281 1690.2665 828.13281 1716.5332 C 828.13281 1733.7332 837.33359 1745.5996 854.93359 1745.5996 C 875.20026 1745.5996 891.06641 1728.9327 891.06641 1702.666 C 891.06641 1685.466 881.99948 1673.5996 864.13281 1673.5996 z M 1027.1992 1673.5996 C 1005.0659 1673.5996 989.33398 1691.1995 989.33398 1716.1328 C 989.33398 1735.8661 999.19987 1745.5996 1016.5332 1745.5996 C 1031.0665 1745.5996 1040.3995 1738.6667 1048.1328 1726 L 1040.8008 1721.4668 C 1033.0674 1732.4001 1027.3335 1736.666 1017.4668 1736.666 C 1003.0668 1736.666 1000.2676 1727.7328 1000.2676 1718.1328 C 1000.2676 1717.8661 1000.2671 1716.3997 1000.4004 1715.0664 C 1044.2671 1713.8664 1050.5332 1701.8661 1050.5332 1692.1328 C 1050.5332 1680.1328 1040.6659 1673.5996 1027.1992 1673.5996 z M 1184.9336 1673.5996 C 1168.6669 1673.5996 1155.4668 1680.9335 1155.4668 1695.4668 C 1155.4668 1708.2668 1165.8672 1711.5997 1175.8672 1713.0664 L 1185.8672 1714.5332 C 1191.4672 1715.3332 1195.8672 1717.1996 1195.8672 1723.5996 C 1195.8672 1731.8663 1188.4009 1736.8008 1176.2676 1736.8008 C 1165.8676 1736.8008 1159.0658 1733.1999 1153.7324 1726.5332 L 1146 1732.666 C 1152 1740.9327 1162.0007 1745.5996 1175.334 1745.5996 C 1193.734 1745.5996 1206.1328 1736.7999 1206.1328 1722.5332 C 1206.1328 1708.9332 1194.8 1706.8007 1186 1705.334 L 1176.2676 1703.7324 C 1170.6676 1702.7991 1165.5996 1701.3327 1165.5996 1694.666 C 1165.5996 1687.1993 1171.8658 1682.4004 1183.7324 1682.4004 C 1195.3324 1682.4004 1200.934 1686.9332 1203.334 1690.5332 L 1210.666 1684.1328 C 1205.466 1677.5995 1196.9336 1673.5996 1184.9336 1673.5996 z M 487.59961 1674.4004 L 477.59961 1677.334 C 480.13294 1682.2673 481.33398 1688.2676 481.33398 1694.2676 C 481.33398 1714.1342 469.73294 1734.0003 447.59961 1736.9336 L 445.86719 1735.7324 L 454.93359 1675.1992 L 430.13281 1675.1992 L 428.66602 1684.1328 L 443.33398 1684.1328 L 436.40039 1730.5332 C 436.13372 1732.1332 435.86719 1734.1335 435.86719 1735.4668 C 435.86719 1741.4668 439.19948 1745.0664 446.13281 1745.0664 C 470.93281 1745.0664 492 1721.7324 492 1693.7324 C 492 1686.5324 490.39961 1679.7337 487.59961 1674.4004 z M 971.59961 1674.5332 L 962.80078 1677.1992 C 964.80078 1681.4659 965.86719 1688.3997 965.86719 1695.0664 C 965.86719 1714.6664 958.40039 1736.8008 948.40039 1736.8008 C 944.26706 1736.8008 942.5332 1734.5331 942.5332 1729.0664 C 942.5332 1726.7997 942.66589 1724.2669 943.19922 1720.9336 L 950.66602 1675.1992 L 941.59961 1675.1992 L 934 1719.1992 C 933.33333 1722.6659 932.13294 1728.0001 929.59961 1731.4668 C 927.19961 1734.6668 924.66641 1736.8008 921.06641 1736.8008 C 917.19974 1736.8008 915.06641 1734.5326 915.06641 1729.1992 C 915.06641 1726.7992 915.33385 1724.0003 915.86719 1720.9336 L 923.33398 1675.1992 L 914 1675.1992 L 906.13281 1722.8008 C 905.59948 1726.2674 905.33398 1728.9324 905.33398 1731.7324 C 905.33398 1739.9991 909.33398 1745.334 917.33398 1745.334 C 925.73398 1745.334 930.40091 1740.0007 934.26758 1731.334 L 934.93359 1731.334 C 934.26693 1741.734 939.06758 1745.334 946.26758 1745.334 C 953.60091 1745.334 960.00078 1741.8659 964.80078 1735.1992 C 971.46745 1725.8659 975.19922 1710.5332 975.19922 1694.5332 C 975.19922 1686.3999 973.73294 1679.1999 971.59961 1674.5332 z M 1075.4668 1675.1992 L 1074 1684.1328 L 1093.334 1684.1328 L 1083.334 1744 L 1093.7324 1744 L 1099.7324 1708.1328 C 1101.0658 1700.1328 1105.8663 1694.5332 1107.5996 1692.5332 C 1111.7329 1687.7332 1116.666 1685.5996 1124.666 1685.5996 L 1136.4004 1685.5996 L 1138.1328 1675.1992 L 1127.7324 1675.1992 C 1114.5324 1675.1992 1107.6008 1682.6663 1102.8008 1693.5996 L 1102.1328 1693.5996 L 1105.1992 1675.1992 L 1075.4668 1675.1992 z M 546.5332 1682.2676 C 556.5332 1682.2676 560.13281 1686.9332 560.13281 1692.5332 C 560.13281 1699.1999 555.0668 1706.8005 521.4668 1707.8672 L 521.59961 1706.5332 C 523.59961 1690.9332 532.66654 1682.2676 546.5332 1682.2676 z M 1026.2676 1682.2676 C 1036.2676 1682.2676 1039.8672 1686.9332 1039.8672 1692.5332 C 1039.8672 1699.1999 1034.7992 1706.8005 1001.1992 1707.8672 L 1001.334 1706.5332 C 1003.334 1690.9332 1012.4009 1682.2676 1026.2676 1682.2676 z M 384 1682.666 C 394.26667 1682.666 400.80078 1687.9996 400.80078 1699.5996 C 400.80078 1701.1996 400.66615 1703.2004 400.13281 1706.4004 L 398.80078 1714.4004 C 396.53411 1728.0004 388.66575 1736.5332 375.73242 1736.5332 C 365.46576 1736.5332 358.93359 1731.1996 358.93359 1719.5996 C 358.93359 1717.9996 359.06628 1716.0008 359.59961 1712.8008 L 360.93359 1704.8008 C 363.20026 1691.2008 371.06667 1682.666 384 1682.666 z M 863.73242 1682.666 C 873.99909 1682.666 880.5332 1687.9996 880.5332 1699.5996 C 880.5332 1701.1996 880.40052 1703.2004 879.86719 1706.4004 L 878.5332 1714.4004 C 876.26654 1728.0004 868.40013 1736.5332 855.4668 1736.5332 C 845.20013 1736.5332 838.66602 1731.1996 838.66602 1719.5996 C 838.66602 1717.9996 838.80065 1716.0008 839.33398 1712.8008 L 840.66602 1704.8008 C 842.93268 1691.2008 850.79909 1682.666 863.73242 1682.666 z M 1256.5332 1727.0664 C 1249.7332 1727.0664 1246.5324 1730.1336 1245.7324 1734.9336 C 1245.4658 1736.5336 1245.1992 1738.1326 1245.1992 1739.1992 C 1245.1992 1742.5326 1247.6005 1745.1992 1253.8672 1745.1992 C 1260.6672 1745.1992 1263.866 1742.134 1264.666 1737.334 C 1264.9327 1735.734 1265.1992 1734.1331 1265.1992 1733.0664 C 1265.1992 1729.7331 1262.7999 1727.0664 1256.5332 1727.0664 z M 897.32812 2068.6836 C 894.83879 2068.4956 893.63619 2071.6665 895.63086 2073.1719 C 895.63086 2073.1719 996.89617 2149.6885 1061.4375 2175.2031 C 1093.2655 2187.7871 1127.1201 2202.5361 1147.9121 2218.3027 C 1154.3748 2223.2027 1159.521 2228.1877 1163.0156 2233.125 L 1150.8594 2272.5781 C 1131.754 2287.0568 1102.5368 2298.5677 1068.1621 2306.7344 C 1028.8501 2316.0784 982.81211 2321.1356 937.41211 2321.9062 C 909.94327 2322.3754 883.92965 2318.8381 860.98438 2313.6895 C 869.9613 2313.2358 873.59961 2308.3783 873.59961 2302.666 L 873.59961 2298 C 873.59961 2292 869.59961 2286.9336 859.59961 2286.9336 C 849.59961 2286.9336 845.59961 2292 845.59961 2298 L 845.59961 2302.666 C 845.59961 2305.8984 846.77367 2308.8521 849.4082 2310.8965 C 831.65802 2306.3143 816.1384 2300.9447 803.72461 2296.043 C 798.61215 2290.8131 791.53056 2287.6623 782.88281 2287.0508 C 778.73065 2285.0931 775.5255 2283.4829 773.67188 2282.5156 C 781.11454 2279.541 813.69713 2266.661 842.45312 2260.2344 C 843.80246 2259.937 844.64561 2258.598 844.34961 2257.25 C 844.04694 2255.906 842.70737 2255.0567 841.35938 2255.3594 C 808.44738 2262.7127 766.47266 2279.8965 766.47266 2279.8965 C 764.52999 2280.6938 764.3737 2283.3805 766.20703 2284.3965 C 766.20703 2284.3965 768.48284 2285.6376 772.36133 2287.5684 C 756.06628 2290.5051 746.26758 2303.4826 746.26758 2323.1992 C 746.26758 2345.1992 758.40013 2358.9336 781.4668 2358.9336 C 796.2668 2358.9336 805.60026 2353.3341 810.93359 2346.8008 L 800.26758 2335.1992 C 796.00091 2340.2659 790.26615 2343.7324 782.13281 2343.7324 C 771.59948 2343.7324 765.86719 2337.7336 765.86719 2328.9336 L 765.86719 2327.7324 L 812.93359 2327.7324 L 812.93359 2321.8672 C 812.93359 2314.6634 811.50155 2308.3653 808.83008 2303.1699 C 840.66324 2314.9488 887.17842 2327.7638 937.5 2326.9062 C 983.21333 2326.1303 1029.5457 2321.0529 1069.3164 2311.5996 C 1101.0617 2304.0583 1128.6351 2293.7822 1148.4258 2280.4648 L 1136.6445 2318.7129 C 1135.8592 2321.2502 1139.046 2323.0936 1140.8594 2321.1562 C 1140.8594 2321.1562 1152.4073 2308.7972 1166.7246 2297.5879 C 1173.8806 2291.9786 1181.7284 2286.6768 1189.0098 2283.3848 C 1196.2964 2280.0928 1202.864 2278.9479 1207.584 2280.7812 C 1209.828 2281.6506 1211.1141 2283.0414 1211.9941 2285.2188 C 1212.8741 2287.3907 1213.1975 2290.4006 1212.9375 2293.9473 C 1212.4215 2301.0459 1209.63 2310.1775 1206.082 2319.0469 C 1198.994 2336.7922 1189.0215 2353.5625 1189.0215 2353.5625 C 1187.6775 2355.8278 1190.297 2358.3633 1192.5156 2356.9473 L 1218.7461 2340.1875 C 1219.9074 2339.4422 1220.2459 2337.8957 1219.5059 2336.7344 C 1218.7605 2335.5677 1217.2141 2335.2287 1216.0527 2335.9727 L 1198.1445 2347.416 C 1201.7592 2340.7707 1206.3845 2331.7697 1210.7285 2320.9004 C 1214.3685 2311.7857 1217.3378 2302.3698 1217.9258 2294.3125 C 1218.2178 2290.2818 1217.9269 2286.5571 1216.6309 2283.3438 C 1215.3282 2280.1251 1212.864 2277.4631 1209.3906 2276.1191 C 1202.6666 2273.5098 1194.8331 2275.2655 1186.9531 2278.8281 C 1179.0678 2282.3908 1170.9846 2287.8957 1163.6406 2293.6504 C 1155.8033 2299.7864 1149.2231 2305.85 1144.4004 2310.5273 L 1155.1719 2275.5742 C 1157.5625 2273.6942 1159.8116 2271.7647 1161.9062 2269.7754 C 1171.8222 2260.3221 1174.947 2250.2401 1172.291 2240.7188 C 1171.4883 2237.8388 1170.2032 2235.0355 1168.5059 2232.2969 L 1207.1094 2107 C 1207.516 2105.6827 1206.7763 2104.287 1205.459 2103.875 C 1204.1363 2103.4697 1202.7407 2104.2086 1202.334 2105.5312 L 1164.834 2227.2246 C 1161.1567 2222.7713 1156.4263 2218.4831 1150.9316 2214.3164 C 1129.265 2197.8897 1095.2142 2183.1834 1063.2715 2170.5527 C 1007.0835 2148.3394 924.08283 2087.9375 905.9375 2074.5215 C 924.9015 2076.3748 976.70861 2082.3333 1030.2246 2096.8066 C 1096.6206 2114.7706 1143.291 2147.8848 1143.291 2147.8848 C 1144.415 2148.6874 1145.9781 2148.4209 1146.7754 2147.2969 C 1147.5781 2146.1662 1147.3115 2144.6093 1146.1875 2143.8066 C 1146.1875 2143.8066 1098.85 2110.1977 1031.5273 2091.9844 C 964.37535 2073.8177 897.32812 2068.6836 897.32812 2068.6836 z M 2065.7246 2092.3066 C 2064.3553 2092.24 2063.1658 2092.8225 2062.2285 2093.5625 C 2061.2912 2094.2972 2060.4883 2095.2291 2059.6816 2096.3691 C 2058.0563 2098.6451 2056.4065 2101.7754 2054.5625 2105.7754 C 2050.8638 2113.7701 2046.4425 2125.235 2040.9785 2139.4844 C 2039.9785 2142.0937 2038.4366 2145.9008 2037.3633 2148.6875 C 2033.2073 2150.6448 2029.1461 2152.6202 2024.5527 2154.5215 C 1997.3287 2165.7815 1963.3901 2175.2193 1935.3848 2173.834 C 1907.2594 2172.438 1891.4633 2162.7606 1883.166 2150.7246 C 1874.8633 2138.6886 1874.0047 2123.9221 1876.8594 2112.1367 C 1878.1714 2106.7301 1881.5115 2103.5737 1886.2715 2101.4844 C 1891.0315 2099.3964 1897.1931 2098.6261 1903.2598 2098.6367 C 1915.3904 2098.6567 1926.9648 2101.6836 1926.9648 2101.6836 C 1928.3035 2102.0369 1929.6668 2101.2396 1930.0215 2099.9062 C 1930.3695 2098.5676 1929.5736 2097.2029 1928.2402 2096.8496 C 1928.2402 2096.8496 1916.2243 2093.6567 1903.2656 2093.6367 C 1896.7923 2093.6207 1890.031 2094.3743 1884.2656 2096.9062 C 1878.495 2099.4369 1873.688 2103.9998 1872 2110.9531 C 1868.8693 2123.8905 1869.7661 2140.0985 1879.0527 2153.5625 C 1888.3394 2167.0265 1905.9486 2177.3801 1935.1406 2178.8281 C 1964.4486 2180.2815 1998.8035 2170.5846 2026.4648 2159.1406 C 2029.4328 2157.9126 2031.9488 2156.631 2034.7461 2155.375 C 2024.4074 2182.183 2011.6561 2214.5686 1993.8281 2251.918 C 1984.1508 2272.198 1974.4531 2290.7135 1964.4531 2308.1309 C 1963.8598 2308.2189 1963.3687 2308.27 1962.7754 2308.3594 C 1908.2234 2316.5407 1843.0679 2329.5152 1800.0879 2349.1445 C 1785.9088 2355.6201 1773.3888 2363.1968 1762.4082 2371.4668 L 1707.0664 2371.4668 L 1707.0664 2378.4004 L 1753.7441 2378.4004 C 1735.9173 2393.5582 1722.7837 2410.5352 1713.8223 2427.1777 C 1698.3636 2455.8697 1694.995 2483.4586 1701.875 2499.7812 C 1705.3123 2507.9319 1711.5674 2513.2018 1719.7754 2515.1191 C 1727.9781 2517.0298 1737.9899 2515.8378 1749.7246 2512.0098 C 1773.1939 2504.3591 1803.7537 2486.0264 1840.207 2458.1504 C 1873.0053 2433.0764 1899.6575 2407.2817 1922.9316 2378.4004 L 1931.0664 2378.4004 L 1931.0664 2371.4668 L 1928.4023 2371.4668 C 1942.4504 2353.3254 1955.2999 2333.943 1967.5879 2312.7461 C 2012.0359 2306.2194 2047.1205 2303.0681 2057.2031 2302.2188 C 2047.1618 2306.5107 2037.3225 2313.4122 2029.1719 2320.9375 C 2021.9585 2327.6042 2016.0989 2334.7924 2012.7402 2341.4844 C 2011.0629 2344.8337 2009.9894 2348.0688 2009.8027 2351.1621 C 2009.6147 2354.2554 2010.4065 2357.2924 2012.4531 2359.5938 C 2016.1451 2363.7457 2021.4152 2365.2125 2026.7285 2365.1445 C 2032.0405 2365.0819 2037.5731 2363.5991 2042.6504 2361.7031 C 2052.8171 2357.9218 2061.2656 2352.3809 2061.2656 2352.3809 C 2062.4216 2351.6262 2062.7488 2350.074 2061.9941 2348.918 C 2061.2395 2347.7606 2059.6886 2347.4374 2058.5312 2348.1934 C 2058.5312 2348.1934 2050.4209 2353.4788 2040.9062 2357.0215 C 2036.1503 2358.7922 2031.0673 2360.0925 2026.666 2360.1445 C 2022.2647 2360.1965 2018.7235 2359.1262 2016.1875 2356.2715 C 2015.1195 2355.0688 2014.6603 2353.5888 2014.791 2351.4648 C 2014.9203 2349.3395 2015.7337 2346.6658 2017.207 2343.7285 C 2020.155 2337.8485 2025.6878 2330.9646 2032.5625 2324.6152 C 2046.3225 2311.9072 2065.5791 2301.4836 2079.5938 2302.8223 C 2083.2191 2303.1663 2085.454 2303.9329 2086.4434 2304.5996 C 2087.438 2305.2663 2087.4381 2305.4538 2087.3555 2306.2871 C 2087.1835 2307.9538 2084.374 2312.0298 2080.3594 2316.0352 C 2076.3434 2320.0405 2071.3959 2324.2444 2067.5879 2327.9258 C 2065.6879 2329.7698 2064.0686 2331.4631 2062.918 2333.1191 C 2062.3446 2333.9471 2061.8639 2334.7656 2061.5879 2335.7402 C 2061.3119 2336.7136 2061.2756 2338.0054 2061.9062 2339.1094 C 2063.4996 2341.896 2066.6037 2343.2539 2070.625 2344.3379 C 2074.645 2345.4259 2079.7187 2345.9842 2085.416 2345.7402 C 2096.8227 2345.2549 2110.755 2341.5473 2122.9844 2331.918 C 2146.4164 2313.474 2198.9727 2274.25 2198.9727 2274.25 C 2200.078 2273.426 2200.3065 2271.8592 2199.4785 2270.7539 C 2199.0825 2270.2232 2198.4939 2269.8687 2197.8379 2269.7754 C 2197.1819 2269.6821 2196.5164 2269.8501 2195.9844 2270.2461 C 2195.9844 2270.2461 2143.4693 2309.4329 2119.8906 2327.9902 C 2108.62 2336.8609 2095.6964 2340.2981 2085.207 2340.7461 C 2079.963 2340.9701 2075.3271 2340.4316 2071.9258 2339.5156 C 2068.8218 2338.677 2067.041 2337.3963 2066.541 2336.8496 C 2066.6303 2336.6403 2066.7247 2336.4007 2067.0273 2335.9688 C 2067.798 2334.8488 2069.2604 2333.2655 2071.0684 2331.5215 C 2074.6777 2328.0268 2079.6666 2323.7915 2083.8906 2319.5781 C 2088.1146 2315.3595 2091.8548 2311.4363 2092.3281 2306.791 C 2092.5628 2304.463 2091.4069 2301.9118 2089.2402 2300.4531 C 2087.0736 2298.9891 2084.1409 2298.2291 2080.0742 2297.8438 C 2074.8862 2297.3491 2069.4125 2298.099 2063.8965 2299.7656 C 2063.9325 2299.5683 2063.9423 2299.3648 2063.9316 2299.1621 C 2063.8276 2297.7821 2062.63 2296.7501 2061.25 2296.8555 C 2061.25 2296.8555 2021.2712 2299.9898 1970.6152 2307.2871 C 1980.0419 2290.6724 1989.2238 2273.1782 1998.3438 2254.0742 C 2017.2651 2214.4222 2030.7239 2179.8752 2041.2812 2152.3965 C 2048.8692 2148.7605 2055.8859 2145.1368 2061.4219 2141.7461 C 2065.9179 2138.9901 2069.6244 2136.4076 2072.4004 2134.0742 C 2075.1764 2131.7356 2077.1084 2129.8541 2077.9004 2127.3848 C 2079.9577 2120.9834 2079.7182 2112.8499 2077.7969 2105.9219 C 2076.8382 2102.4645 2075.4588 2099.3017 2073.5215 2096.8164 C 2071.5842 2094.3377 2068.9126 2092.464 2065.7246 2092.3066 z M 2065.5879 2097.3125 C 2066.9586 2097.4165 2068.2541 2098.2032 2069.5781 2099.8965 C 2070.9368 2101.6365 2072.1452 2104.2544 2072.9785 2107.2598 C 2074.6398 2113.2651 2074.7606 2120.8128 2073.1406 2125.8555 C 2073.0166 2126.2461 2071.6656 2128.1568 2069.1816 2130.2461 C 2066.6963 2132.3341 2063.156 2134.8172 2058.8066 2137.4785 C 2054.5733 2140.0785 2049.5165 2142.854 2043.9219 2145.666 C 2044.4165 2144.3793 2045.1717 2142.5168 2045.6504 2141.2715 C 2051.1091 2127.0315 2055.5297 2115.5931 2059.0977 2107.8691 C 2060.8843 2104.0105 2062.47 2101.0688 2063.75 2099.2715 C 2064.3913 2098.3755 2064.9592 2097.7755 2065.3125 2097.4941 C 2065.4792 2097.3635 2065.5572 2097.3285 2065.5879 2097.3125 z M 1444.7656 2115.9785 C 1443.3856 2116.0732 1442.3442 2117.266 1442.4375 2118.6406 C 1442.4375 2118.6406 1445.2967 2161.4473 1428.9688 2216.25 C 1412.4688 2271.63 1398.9902 2336.5527 1398.9902 2336.5527 C 1398.6049 2338.4167 1400.3604 2340.0153 1402.1777 2339.4473 L 1421.6094 2333.4004 C 1422.9267 2332.9884 1423.6607 2331.5888 1423.25 2330.2715 C 1422.838 2328.9542 1421.4365 2328.2183 1420.1191 2328.625 L 1404.8164 2333.3906 C 1406.1497 2327.0573 1418.2238 2269.8183 1433.7598 2217.6836 C 1450.3384 2162.0369 1447.4258 2118.3066 1447.4258 2118.3066 C 1447.3324 2116.932 1446.1403 2115.8905 1444.7656 2115.9785 z M 1166.4121 2239.0781 C 1166.8441 2240.0781 1167.1967 2241.0732 1167.4727 2242.0625 C 1169.6393 2249.8225 1167.5211 2257.5157 1158.4531 2266.1504 C 1158.2811 2266.3171 1158.0939 2266.4779 1157.9219 2266.6445 L 1166.4121 2239.0781 z M 1373.5938 2256.5996 C 1359.8284 2256.6369 1343.5308 2257.0518 1333.4375 2258.5625 C 1323.2135 2260.0932 1303.0685 2265.8805 1285.2031 2271.3125 C 1267.3391 2276.7458 1251.9258 2281.8066 1251.9258 2281.8066 C 1250.6138 2282.24 1249.902 2283.6515 1250.334 2284.9648 C 1250.7607 2286.2768 1252.1724 2286.9886 1253.4844 2286.5566 C 1253.4844 2286.5566 1268.8608 2281.5116 1286.6621 2276.0996 C 1304.4648 2270.6889 1324.8644 2264.9004 1334.1777 2263.5098 C 1350.6777 2261.0404 1383.2031 2261.6407 1392.1777 2261.834 C 1389.8964 2263.7407 1386.8232 2266.1139 1382.4219 2268.9473 C 1372.2712 2275.4833 1356.2088 2283.7179 1332.6621 2290.3633 C 1284.6048 2303.9259 1238.5996 2332.875 1238.5996 2332.875 C 1236.3396 2334.303 1237.5927 2337.8061 1240.25 2337.4688 C 1240.25 2337.4688 1262.9381 2334.5873 1296.2461 2328.3633 C 1329.1888 2322.2126 1362.5684 2322.2812 1362.5684 2322.2812 C 1363.9484 2322.2812 1365.0742 2321.1671 1365.0742 2319.7871 C 1365.0742 2318.4071 1363.964 2317.2866 1362.584 2317.2812 C 1362.584 2317.2812 1328.8748 2317.1819 1295.3281 2323.4473 C 1275.8388 2327.0873 1262.0687 2329.2547 1252.334 2330.6934 C 1268.4647 2321.536 1300.5268 2304.6311 1334.0215 2295.1777 C 1358.0362 2288.4017 1374.5682 2279.9536 1385.1309 2273.1562 C 1395.6882 2266.3549 1400.4121 2261.0527 1400.4121 2261.0527 C 1401.8121 2259.4647 1400.7294 2256.9577 1398.6094 2256.9004 C 1398.6094 2256.9004 1387.3644 2256.5583 1373.5938 2256.5996 z M 224.26758 2257.1992 C 215.46758 2257.1992 212.40039 2261.1999 212.40039 2266.5332 L 212.40039 2270.4004 C 212.40039 2275.6004 215.46758 2279.7324 224.26758 2279.7324 C 233.06758 2279.7324 236.13281 2275.6004 236.13281 2270.4004 L 236.13281 2266.5332 C 236.13281 2261.1999 233.06758 2257.1992 224.26758 2257.1992 z M 1646.8555 2259.4648 C 1644.9177 2259.3761 1642.7332 2259.7087 1640.3027 2260.3496 C 1635.4374 2261.6309 1629.3594 2264.3032 1621.7754 2268.6152 C 1606.2447 2277.4432 1583.1621 2298.7871 1570.2461 2318.6777 C 1563.8394 2328.5364 1559.7456 2338.0367 1561.1562 2346.1367 C 1540.2976 2352.7247 1506.2186 2362.9257 1481.5879 2367.4004 C 1476.9012 2368.2497 1473.3748 2368.656 1470.9375 2368.6934 C 1468.7762 2368.7294 1467.6835 2368.3798 1467.3809 2368.2598 C 1467.3969 2368.1878 1467.3636 2368.2394 1467.4316 2368.082 C 1467.7023 2367.3274 1468.6305 2365.8597 1470.0625 2364.1504 C 1475.7865 2357.3171 1488.953 2346.2453 1498.0156 2334.584 C 1506.4116 2323.776 1524.4062 2309.7492 1540.1875 2298.6719 C 1555.9635 2287.5932 1569.5527 2279.334 1569.5527 2279.334 C 1572.0581 2277.8073 1570.3392 2273.9586 1567.5312 2274.8066 C 1567.5312 2274.8066 1520.6611 2288.9488 1499.3438 2296.7715 C 1489.2704 2300.4702 1473.6457 2302.5517 1460.6777 2303.625 C 1447.7137 2304.697 1437.375 2304.8066 1437.375 2304.8066 C 1435.995 2304.82 1434.8844 2305.9481 1434.9004 2307.3281 C 1434.9164 2308.7135 1436.0458 2309.8173 1437.4258 2309.8066 C 1437.4258 2309.8066 1447.9324 2309.6974 1461.0938 2308.6094 C 1474.2511 2307.5267 1490.027 2305.5168 1501.0684 2301.4648 C 1515.0684 2296.3288 1536.2537 2289.6885 1551.707 2284.9219 C 1547.2017 2287.8805 1542.8285 2290.7075 1537.3125 2294.5781 C 1521.3858 2305.7595 1503.2758 2319.661 1494.0625 2331.5156 C 1485.5158 2342.521 1472.6245 2353.3074 1466.2285 2360.9434 C 1464.6298 2362.85 1463.4005 2364.5363 1462.7285 2366.375 C 1462.3952 2367.2923 1462.1938 2368.3017 1462.3965 2369.4004 C 1462.5992 2370.4991 1463.3026 2371.5725 1464.1973 2372.2285 C 1465.0549 2372.8576 1465.9986 2373.2284 1467.0664 2373.4414 L 1467.0664 2378.4004 L 1531.0664 2378.4004 L 1531.0664 2371.4668 L 1486.9336 2371.4668 C 1511.5863 2366.5677 1543.1541 2357.0872 1562.834 2350.8594 C 1564.074 2353.046 1565.8961 2354.9524 1568.3027 2356.4004 C 1572.2507 2358.7804 1577.6154 2360.0518 1584.6621 2360.2598 C 1612.4901 2361.0878 1648.0203 2350.3647 1676.791 2339.5273 C 1705.567 2328.6833 1727.541 2317.6309 1727.541 2317.6309 C 1728.7757 2317.0109 1729.2762 2315.5047 1728.6562 2314.2754 C 1728.0363 2313.0407 1726.5302 2312.5421 1725.2969 2313.1621 C 1725.2969 2313.1621 1703.5419 2324.0984 1675.0312 2334.8438 C 1646.5219 2345.5877 1611.2085 2356.047 1584.8125 2355.2656 C 1578.3032 2355.0736 1573.7662 2353.8538 1570.8809 2352.1191 C 1569.4902 2351.2858 1568.4645 2350.3546 1567.7031 2349.3066 C 1575.8965 2346.672 1581.3691 2344.8379 1581.3691 2344.8379 C 1582.6771 2344.3952 1583.3743 2342.9727 1582.9316 2341.666 C 1582.489 2340.3593 1581.0736 2339.6608 1579.7656 2340.1035 C 1579.7656 2340.1035 1574.2356 2341.9538 1565.9902 2344.5938 C 1565.3649 2338.9178 1568.5735 2330.4257 1574.4375 2321.4004 C 1586.7495 2302.4471 1609.9181 2281.1048 1624.2461 2272.9648 C 1631.5994 2268.7822 1637.3901 2266.2876 1641.5781 2265.1836 C 1645.7595 2264.0796 1648.0992 2264.521 1648.9219 2265.125 C 1649.7405 2265.7237 1650.198 2266.9075 1649.6406 2269.7715 C 1649.0793 2272.6368 1647.38 2276.6673 1644.584 2281.334 C 1633.948 2299.0993 1606.3848 2301.1777 1606.3848 2301.1777 C 1605.0101 2301.2657 1603.9589 2302.4481 1604.0469 2303.8281 C 1604.1309 2305.2081 1605.3173 2306.254 1606.6973 2306.166 C 1606.6973 2306.166 1636.4323 2304.6817 1648.875 2283.9004 C 1651.8497 2278.9257 1653.8029 2274.5405 1654.5469 2270.7285 C 1655.2922 2266.9112 1654.6977 2263.1617 1651.875 2261.0938 C 1650.4706 2260.0585 1648.795 2259.5534 1646.8594 2259.4648 L 1646.8555 2259.4648 z M 141.33398 2262.666 C 120.26732 2262.666 107.86719 2273.0669 107.86719 2290.9336 C 107.86719 2304.5336 114.93294 2314.7996 131.59961 2317.5996 L 141.33398 2319.1992 C 150.40065 2320.6659 153.86719 2323.7342 153.86719 2330.2676 C 153.86719 2338.2676 148.66589 2342.666 139.19922 2342.666 C 130.93255 2342.666 122.53242 2339.1991 115.73242 2331.7324 L 104.13281 2344.5332 C 111.19948 2353.3332 123.06653 2358.9336 138.5332 2358.9336 C 161.86654 2358.9336 174.13281 2346.1327 174.13281 2328.666 C 174.13281 2313.9993 165.46654 2305.1999 150.5332 2302.5332 L 140.80078 2300.8008 C 131.73411 2299.2008 128 2296.4 128 2290 C 128 2282.6667 132.53346 2278.9336 141.4668 2278.9336 C 149.8668 2278.9336 156.79909 2282.2658 161.73242 2287.7324 L 173.06641 2275.0664 C 166.53307 2267.4664 155.60065 2262.666 141.33398 2262.666 z M 525.86719 2264.2676 L 525.86719 2280.4004 C 525.86719 2286.5337 523.59909 2288.5332 517.73242 2288.5332 L 505.59961 2288.5332 L 505.59961 2303.8672 L 524.26758 2303.8672 L 524.26758 2337.4668 C 524.26758 2349.0668 531.06732 2357.334 545.33398 2357.334 L 570.80078 2357.334 L 570.80078 2342 L 544 2342 L 544 2303.8672 L 570.80078 2303.8672 L 570.80078 2288.5332 L 544 2288.5332 L 544 2264.2676 L 525.86719 2264.2676 z M 321.86719 2275.334 C 315.33385 2275.334 311.33398 2279.3327 311.33398 2284.666 L 311.33398 2288.4004 C 307.73398 2287.4671 303.59922 2286.9336 299.19922 2286.9336 C 281.19922 2286.9336 269.33398 2295.4668 269.33398 2311.4668 C 269.33398 2321.6001 274.13424 2328.7993 282.26758 2332.666 L 282.26758 2333.4668 C 274.80091 2335.2001 269.86719 2337.9993 269.86719 2344.666 C 269.86719 2350.666 273.60013 2353.7335 279.4668 2355.4668 L 279.4668 2356.2676 C 271.20013 2358.4009 266.26758 2361.9991 266.26758 2369.7324 C 266.26758 2379.0658 273.46628 2385.5996 299.59961 2385.5996 C 325.73294 2385.5996 337.73242 2378.8009 337.73242 2364.2676 C 337.73242 2352.6676 330.13372 2344.4004 310.40039 2344.4004 L 294.66602 2344.4004 C 289.19935 2344.4004 284.5332 2344.1324 284.5332 2339.7324 C 284.5332 2337.3324 286 2335.7327 288 2334.666 C 291.33333 2335.5993 295.19922 2336 299.19922 2336 C 317.33255 2336 329.33398 2327.3335 329.33398 2311.4668 C 329.33398 2301.7335 324.93346 2294.8003 317.4668 2290.9336 L 317.4668 2289.7324 L 334 2289.7324 L 334 2275.334 L 321.86719 2275.334 z M 389.4668 2286.9336 C 378.40013 2286.9336 372.26589 2293.3331 369.19922 2301.0664 L 368.40039 2301.0664 L 368.40039 2288.5332 L 348.66602 2288.5332 L 348.66602 2357.334 L 368.40039 2357.334 L 368.40039 2312.1328 C 368.40039 2305.4661 374.39987 2302.1328 380.5332 2302.1328 C 388.26654 2302.1328 392.13281 2306.8001 392.13281 2315.4668 L 392.13281 2357.334 L 411.86719 2357.334 L 411.86719 2312.8008 C 411.86719 2296.1341 402.6668 2286.9336 389.4668 2286.9336 z M 458.66602 2286.9336 C 443.33268 2286.9336 433.33411 2292.6671 428.80078 2300.4004 L 439.59961 2310 C 443.33294 2304.9333 448.13372 2301.334 456.40039 2301.334 C 465.46706 2301.334 468.93359 2305.5991 468.93359 2313.7324 L 468.93359 2317.1992 L 457.86719 2317.1992 C 437.73385 2317.1992 426.93359 2324.0004 426.93359 2338.4004 C 426.93359 2351.3337 435.73307 2358.9336 449.06641 2358.9336 C 459.59974 2358.9336 467.6 2354.1326 470 2345.1992 L 470.66602 2345.1992 C 471.46602 2352.9326 476.80026 2357.334 484.93359 2357.334 L 496.26758 2357.334 L 496.26758 2343.0664 L 488.66602 2343.0664 L 488.66602 2312.9336 C 488.66602 2295.6003 477.46602 2286.9336 458.66602 2286.9336 z M 192.5332 2288.5332 L 192.5332 2303.8672 L 214.40039 2303.8672 L 214.40039 2342 L 192.5332 2342 L 192.5332 2357.334 L 254.40039 2357.334 L 254.40039 2342 L 234.13281 2342 L 234.13281 2288.5332 L 192.5332 2288.5332 z M 588.13281 2288.5332 L 588.13281 2333.0664 C 588.13281 2349.7331 597.3332 2358.9336 610.5332 2358.9336 C 621.59987 2358.9336 627.73411 2352.5341 630.80078 2344.8008 L 631.59961 2344.8008 L 631.59961 2357.334 L 651.33398 2357.334 L 651.33398 2288.5332 L 631.59961 2288.5332 L 631.59961 2333.7324 C 631.59961 2340.3991 625.60013 2343.7324 619.4668 2343.7324 C 611.73346 2343.7324 607.86719 2339.0671 607.86719 2330.4004 L 607.86719 2288.5332 L 588.13281 2288.5332 z M 669.4668 2288.5332 L 669.4668 2303.8672 L 685.33398 2303.8672 L 685.33398 2342 L 669.4668 2342 L 669.4668 2357.334 L 727.73242 2357.334 L 727.73242 2342 L 705.06641 2342 L 705.06641 2321.5996 C 705.06641 2313.3329 710.13385 2306.666 719.86719 2306.666 L 734.5332 2306.666 L 734.5332 2288.5332 L 728 2288.5332 C 714.4 2288.5332 708.53333 2297.8667 706 2308 L 705.06641 2308 L 705.06641 2288.5332 L 669.4668 2288.5332 z M 299.19922 2299.4668 C 307.06589 2299.4668 310.66602 2303.8672 310.66602 2309.8672 L 310.66602 2313.0664 C 310.66602 2319.0664 307.06589 2323.4668 299.19922 2323.4668 C 291.46589 2323.4668 288 2319.0664 288 2313.0664 L 288 2309.8672 C 288 2303.8672 291.46589 2299.4668 299.19922 2299.4668 z M 779.86719 2301.0664 C 788.40052 2301.0664 793.59961 2306.6663 793.59961 2315.5996 L 793.59961 2316.666 L 765.86719 2316.666 L 765.86719 2315.5996 C 765.86719 2306.7996 771.33385 2301.0664 779.86719 2301.0664 z M 1961.3555 2313.666 C 1949.0846 2334.556 1936.2404 2353.6238 1922.166 2371.4668 L 1867.0664 2371.4668 L 1867.0664 2378.4004 L 1916.5762 2378.4004 C 1894.1435 2405.6967 1868.5164 2430.2153 1837.1719 2454.1836 C 1800.9532 2481.8756 1770.6151 2499.9424 1748.1777 2507.2598 C 1736.9591 2510.9171 1727.7654 2511.8487 1720.9121 2510.25 C 1714.0574 2508.65 1709.407 2504.7704 1706.4844 2497.8438 C 1700.6564 2484.0104 1703.2713 2457.3069 1718.2246 2429.5469 C 1727.6476 2412.0474 1741.8649 2394.0895 1761.6035 2378.4004 L 1771.0664 2378.4004 L 1771.0664 2371.4668 L 1770.916 2371.4668 C 1780.2457 2364.9594 1790.637 2358.9579 1802.166 2353.6934 C 1843.6193 2334.76 1907.4275 2321.838 1961.3555 2313.666 z M 458.40039 2327.8672 L 468.93359 2327.8672 L 468.93359 2336.1328 C 468.93359 2342.5328 463.46654 2346 456.5332 2346 C 450.26654 2346 446.26758 2343.466 446.26758 2338.666 L 446.26758 2336 C 446.26758 2330.6667 450.53372 2327.8672 458.40039 2327.8672 z M 859.59961 2332.1328 C 849.59961 2332.1328 845.59961 2337.1992 845.59961 2343.1992 L 845.59961 2347.8672 C 845.59961 2353.8672 849.59961 2358.9336 859.59961 2358.9336 C 869.59961 2358.9336 873.59961 2353.8672 873.59961 2347.8672 L 873.59961 2343.1992 C 873.59961 2337.1992 869.59961 2332.1328 859.59961 2332.1328 z M 285.19922 2360 L 308.80078 2360 C 316.80078 2360 319.06641 2362.1324 319.06641 2365.7324 C 319.06641 2370.3991 315.06615 2372.9336 306.13281 2372.9336 L 294.5332 2372.9336 C 285.86654 2372.9336 282.5332 2369.8663 282.5332 2365.5996 C 282.5332 2363.3329 283.46589 2361.4667 285.19922 2360 z M 987.4668 2371.4668 L 987.4668 2378.4004 L 1051.4668 2378.4004 L 1051.4668 2371.4668 L 987.4668 2371.4668 z M 1067.4668 2371.4668 L 1067.4668 2378.4004 L 1131.4668 2378.4004 L 1131.4668 2371.4668 L 1067.4668 2371.4668 z M 1147.4668 2371.4668 L 1147.4668 2378.4004 L 1211.4668 2378.4004 L 1211.4668 2371.4668 L 1147.4668 2371.4668 z M 1227.4668 2371.4668 L 1227.4668 2378.4004 L 1291.4668 2378.4004 L 1291.4668 2371.4668 L 1227.4668 2371.4668 z M 1307.4668 2371.4668 L 1307.4668 2378.4004 L 1371.4668 2378.4004 L 1371.4668 2371.4668 L 1307.4668 2371.4668 z M 1387.4668 2371.4668 L 1387.4668 2378.4004 L 1451.4668 2378.4004 L 1451.4668 2371.4668 L 1387.4668 2371.4668 z M 1547.0664 2371.4668 L 1547.0664 2378.4004 L 1611.0664 2378.4004 L 1611.0664 2371.4668 L 1547.0664 2371.4668 z M 1627.0664 2371.4668 L 1627.0664 2378.4004 L 1691.0664 2378.4004 L 1691.0664 2371.4668 L 1627.0664 2371.4668 z M 1787.0664 2371.4668 L 1787.0664 2378.4004 L 1851.0664 2378.4004 L 1851.0664 2371.4668 L 1787.0664 2371.4668 z M 1947.0664 2371.4668 L 1947.0664 2378.4004 L 2011.0664 2378.4004 L 2011.0664 2371.4668 L 1947.0664 2371.4668 z M 2027.0664 2371.4668 L 2027.0664 2378.4004 L 2091.0664 2378.4004 L 2091.0664 2371.4668 L 2027.0664 2371.4668 z M 2106.666 2371.4668 L 2106.666 2378.4004 L 2170.666 2378.4004 L 2170.666 2371.4668 L 2106.666 2371.4668 z "
         transform="matrix(0.75000002,0,0,0.75000002,0,-3.4368424e-5)" /></g></g></svg>
