<?xml version="1.0" encoding="UTF-8" standalone="no"?>
<svg
   xmlns:svg="http://www.w3.org/2000/svg"
   xmlns="http://www.w3.org/2000/svg"
   xmlns:sodipodi="http://sodipodi.sourceforge.net/DTD/sodipodi-0.dtd"
   xmlns:inkscape="http://www.inkscape.org/namespaces/inkscape"
   inkscape:version="1.1-dev (1:0.92.0+devel+202005110039+9ce7266)"
   sodipodi:docname="03.svg"
   version="1.1"
   id="svg898"
   xml:space="preserve"
   width="2527.5789"
   height="2526.3159"
   viewBox="0 0 2527.5789 2526.3159"><sodipodi:namedview
     inkscape:current-layer="svg898"
     inkscape:window-maximized="0"
     inkscape:window-y="30"
     inkscape:window-x="0"
     inkscape:cy="1263.158"
     inkscape:cx="1263.7894"
     inkscape:zoom="0.26956249"
     showgrid="false"
     id="namedview893"
     inkscape:window-height="480"
     inkscape:window-width="796"
     inkscape:pageshadow="2"
     inkscape:pageopacity="0"
     guidetolerance="10"
     gridtolerance="10"
     objecttolerance="10"
     borderopacity="1"
     bordercolor="#666666"
     pagecolor="#ffffff" /><defs
     id="defs902" /><g
     style="fill:#625970;fill-opacity:1"
     id="g904"
     transform="matrix(1.3333333,0,0,1.3333333,0,4.5824564e-5)"><g
       style="fill:#625970;fill-opacity:1"
       id="g906"><path
         d="m 1081.941,1850.449 c -61.101,-5.183 -111.273,-14.402 -161.925,-29.754 l -12.313,-3.734 -11.574,1.75 c -6.367,0.965 -12.293,1.477 -13.168,1.141 -0.875,-0.336 -1.59,-1.77 -1.59,-3.184 0,-2.805 2.559,-4.711 6.324,-4.711 3.922,0 0.95,-1.531 -10.965,-5.648 -37.863,-13.086 -102.597,-41.676 -138.699,-61.258 -27.59,-14.965 -50.57,-28.598 -51.133,-30.336 -0.746,-2.301 1.25,-4.848 3.805,-4.848 1.055,0 5.059,1.926 8.895,4.281 22.73,13.95 69.476,38.247 102.121,53.086 23.078,10.489 60.019,25.289 85.386,34.215 l 20.688,7.281 25.719,-4.05 c 63.097,-9.938 76.398,-11.559 90.168,-10.996 9.121,0.371 14.554,1.121 18.582,2.562 13.019,4.652 16.429,7.164 34.523,25.434 9.645,9.738 19.274,18.84 21.399,20.23 4.347,2.844 5.668,5.516 3.828,7.738 -1.215,1.461 -8.723,1.762 -20.071,0.801 z m -10.492,-22.551 c -15.09,-15.871 -20.258,-19.918 -29.695,-23.234 -13.988,-4.918 -22.449,-4.715 -64.645,1.555 -13.238,1.965 -29.406,4.367 -35.929,5.336 -6.524,0.965 -12.223,2.07 -12.668,2.457 -1.043,0.902 22.418,7.363 45,12.39 30.14,6.711 69.508,12.739 100.179,15.336 5.672,0.481 10.696,0.938 11.164,1.016 0.465,0.078 -5.566,-6.609 -13.406,-14.856 z m -78.191,-142.406 c -40.551,-0.57 -89.676,-2.41 -106.731,-4.004 -112.832,-10.531 -220.929,-44.164 -323.629,-100.695 -48.855,-26.895 -70.3,-41.734 -70.3,-48.652 0,-4.524 4.562,-8.118 15.121,-11.907 10.808,-3.879 13.101,-3.863 13.558,0.098 0.352,3.012 -1.621,4.457 -9.601,7.035 -2.27,0.731 -5.692,1.985 -7.606,2.781 l -3.476,1.454 2.961,3.097 c 7.679,8.028 58.945,37.863 98.871,57.547 96.976,47.813 196.933,75.164 301.629,82.539 24.461,1.723 128.066,3.363 177.371,2.809 63.695,-0.719 69.691,-1.68 120.191,-19.262 40.199,-14 61.539,-23.164 90.621,-38.922 24.473,-13.262 53.375,-31.344 75.645,-47.324 6.148,-4.41 8.051,-5.305 9.562,-4.496 4.864,2.601 3.657,4.832 -6.617,12.215 -26.984,19.394 -55.535,36.808 -85.734,52.297 -25.828,13.246 -41.692,19.992 -73.953,31.445 -59.485,21.121 -62.864,21.648 -141.059,22 -30.344,0.137 -64.914,0.113 -76.824,-0.055 z m -34.031,-13.504 c -41.918,-1.386 -106.543,-14.984 -167.438,-35.222 -27.18,-9.032 -38.863,-13.707 -48.48,-19.391 -36.204,-21.406 -74.914,-70.48 -112.09,-142.109 -13.707,-26.407 -19.25,-39.364 -17.914,-41.86 0.699,-1.312 1.937,-1.972 3.304,-1.773 1.743,0.254 5.356,6.629 17.727,31.258 16.418,32.683 30.191,56.453 44.699,77.16 29.531,42.14 57.035,67.66 84.168,78.097 47.414,18.243 111.856,35.418 157.867,42.086 16.078,2.328 38.653,4.004 28.36,2.106 -30.067,-5.551 -46.539,-9.324 -76.825,-17.594 -39.683,-10.836 -88.261,-27.637 -106.359,-36.785 -18.051,-9.125 -42.773,-33.953 -74.793,-75.113 -38.539,-49.539 -74.965,-106.582 -75.082,-117.578 -0.016,-1.235 0.703,-2.977 1.594,-3.868 6.156,-6.152 14.195,2.286 51.527,54.067 54.551,75.664 84.055,110.629 105.145,124.597 19.722,13.059 43.285,21.485 73.133,26.153 28.539,4.465 120.796,3.074 143.941,-2.168 16.176,-3.664 38.652,-12.801 54.113,-21.992 l 6.164,-3.664 1.571,-7.477 c 1.707,-8.125 3.769,-10.652 6.984,-8.57 1.336,0.867 1.73,2.289 1.519,5.484 l -0.281,4.313 3.086,-1.825 c 4.617,-2.726 25.938,-18.758 32.485,-24.422 4.011,-3.472 5.73,-5.707 5.73,-7.457 0,-1.886 0.695,-2.652 2.836,-3.129 1.559,-0.347 3.59,-0.835 4.516,-1.082 0.921,-0.246 7.918,-6.828 15.546,-14.628 14.848,-15.176 19.622,-22.524 20.977,-32.282 0.82,-5.906 -1.551,-15.707 -5.414,-22.379 -3.586,-6.199 -13.531,-16.171 -21.445,-21.515 -6.215,-4.192 -19.059,-11.063 -19.551,-10.453 -0.141,0.175 -9.922,14.011 -21.727,30.746 -62.226,88.179 -89.175,119.496 -113.922,132.375 -26.011,13.543 -61.964,15.082 -99.511,4.269 -31.227,-8.996 -74.934,-30.355 -98.567,-48.172 -22.047,-16.625 -43.183,-40.769 -62.105,-70.941 -13.25,-21.133 -34.418,-65.254 -33.516,-69.852 0.422,-2.121 3.27,-3.839 5.164,-3.113 0.832,0.32 3.035,4.457 4.895,9.188 9.035,23.035 26.648,55.472 41.344,76.152 25.687,36.137 48.652,55.609 91.222,77.348 38.598,19.707 69.305,28.269 101.059,28.175 14.281,-0.046 17.828,-0.402 26.363,-2.664 11.457,-3.039 23.57,-8.847 32.586,-15.625 18.559,-13.953 49.27,-51.918 97.262,-120.234 10.957,-15.598 20.359,-28.922 20.894,-29.609 0.707,-0.914 -0.312,-1.575 -3.797,-2.454 -4.867,-1.222 -7.226,-3.695 -6.164,-6.453 0.95,-2.476 2.864,-2.671 9.618,-0.968 3.496,0.879 6.472,1.421 6.617,1.207 4.136,-6.2 16.949,-22.524 21.156,-26.95 5.648,-5.941 7.961,-7 10.27,-4.691 2.179,2.18 1.355,4.25 -3.797,9.559 -5.036,5.187 -19.715,24.097 -19.715,25.398 0,0.379 2.437,1.891 5.414,3.356 16.812,8.289 32.086,22.168 38.269,34.773 6.625,13.504 6.657,25.547 0.106,38.973 -3.387,6.945 -5.945,9.972 -21.692,25.675 l -17.851,17.801 -1.652,11.223 c -2.18,14.812 -6,28.805 -10.305,37.754 -10.156,21.117 -45.852,46.597 -82.305,58.742 -18.855,6.285 -36.113,8.719 -56.933,8.027 z m 54.246,-15.726 c 18.785,-6.235 36.289,-15.465 53.113,-28.004 12.355,-9.211 20.508,-18.141 24.797,-27.168 3.531,-7.438 7.801,-22.578 9.109,-32.301 l 0.738,-5.469 -10.156,7.938 c -5.586,4.367 -14.851,11.09 -20.586,14.937 -10.386,6.969 -10.433,7.02 -10.976,11.809 -0.793,7.043 -8.121,17.223 -23.41,32.508 -12.743,12.742 -27.114,23.586 -38.204,28.824 l -4.64,2.191 4.125,-0.644 c 2.269,-0.36 9.508,-2.438 16.09,-4.621 z m -17.539,-5.399 c 12.699,-6.367 21.625,-13.164 35.531,-27.058 9.441,-9.438 20.914,-23.813 19.82,-24.84 -0.152,-0.149 -7.015,3.078 -15.25,7.164 -16.43,8.148 -32.859,14.016 -46.387,16.562 -25.671,4.832 -113.621,5.918 -140.828,1.743 -33.781,-5.188 -56.976,-13.34 -78.308,-27.52 -23.317,-15.504 -49.375,-46.184 -107.274,-126.289 -20.152,-27.879 -33.359,-45.375 -34.254,-45.375 -0.75,0 6.606,12.953 14.887,26.219 17.086,27.371 47.289,69.054 68.481,94.504 26.543,31.875 42.761,47.121 58.488,54.984 36.437,18.215 126.898,44.879 182.199,53.707 5.106,0.816 14.66,1.387 21.238,1.274 l 11.957,-0.211 z m 180.5,-5.711 c -3.153,-5.886 -3.579,-14.918 -3.719,-78.625 -0.149,-66.738 -0.266,-69.324 -3.977,-88.168 -1.851,-9.394 -2.222,-14.8 -2.164,-31.453 0.071,-19.89 2.071,-38.133 4.442,-40.504 1.593,-1.59 4.484,0 3.816,2.094 -1.785,5.629 -3.652,25.504 -3.672,39.047 -0.015,14.48 0.824,22.141 4.285,39.066 0.606,2.961 1.399,35.434 1.864,76.309 0.445,39.137 1.238,72.777 1.765,74.766 0.879,3.316 1.047,3.441 2.078,1.546 7.364,-13.55 31.946,-131.57 41.207,-197.859 1.778,-12.699 3.27,-20.156 4.196,-20.922 1.183,-0.984 -1.508,-6.539 -15.496,-31.969 -9.309,-16.925 -22.856,-41.679 -30.102,-55.007 -15.215,-27.993 -24.082,-42.297 -36.102,-58.239 -29.527,-39.164 -62.671,-65.347 -104.917,-82.882 -10.036,-4.168 -31.665,-11.5 -33.915,-11.5 -1.671,0 -0.589,9.32 3.805,32.785 6.195,33.043 5.988,37.703 -2.859,65.093 -6.41,19.84 -7.469,21.946 -10.867,21.555 -1.965,-0.226 -2.942,-0.996 -3.153,-2.488 -0.168,-1.184 1.821,-8.371 4.422,-15.973 7.824,-22.832 9.086,-28.855 8.43,-40.133 -0.313,-5.386 -1.535,-14.668 -2.719,-20.621 -3.562,-17.98 -6.203,-34.32 -6.211,-38.441 0,-4.824 0,-4.82 -20.82,-8.879 -50.539,-9.852 -97.547,-10.984 -130.696,-3.156 -16.73,3.953 -19.812,5.094 -19.179,7.086 0.316,1 -0.301,2.933 -1.371,4.297 -1.071,1.367 -6.473,9.91 -12.004,18.984 -34.25,56.199 -45.977,68.656 -117.051,124.363 -10.492,8.223 -25.75,20.035 -33.906,26.246 l -14.832,11.289 5.035,0.938 c 8.035,1.496 80.394,1.332 95.265,-0.211 20.114,-2.094 100.411,-11.582 101.696,-12.02 0.633,-0.218 2.199,-4.261 3.476,-8.988 2.094,-7.734 2.204,-9.262 1.11,-15.293 -1.305,-7.176 -8.332,-22.867 -15.367,-34.308 -4.586,-7.457 -5,-8.918 -3.055,-10.86 3.621,-3.625 6.867,0.055 17.16,19.473 9.145,17.254 11.559,30.297 7.988,43.176 -0.859,3.093 -1.461,5.675 -1.34,5.734 0.118,0.062 23.582,-2.684 52.141,-6.102 l 51.922,-6.214 -0.668,-5.028 c -0.723,-5.465 0.41,-7.933 3.645,-7.933 2.238,0 3.582,2.199 4.574,7.496 0.586,3.125 1.168,3.847 3.109,3.847 2.359,0 2.344,-0.078 -1.531,-8.011 -9.129,-18.68 -14.258,-36.981 -17.992,-64.176 -3.711,-27.059 -4.868,-56.949 -2.391,-61.871 1.422,-2.82 6.113,-4.02 8.379,-2.141 0.965,0.801 1.504,6.84 1.961,21.988 0.953,31.415 5.789,63.821 12.258,82.153 3.152,8.922 10.144,24.715 12.625,28.504 l 1.386,2.117 43.68,-5.246 c 24.02,-2.883 44.199,-5.567 44.84,-5.965 0.641,-0.398 6.77,-0.965 13.625,-1.262 11.418,-0.488 12.551,-0.375 13.492,1.391 1.527,2.851 -0.742,5.246 -5.597,5.906 -9.586,1.301 -9.473,0.961 -2.352,7.129 8.211,7.109 12.414,9.25 15.223,7.746 4.785,-2.562 7.586,-13.508 7.648,-29.918 0.09,-22.254 -4.883,-31.015 -31.086,-54.805 -4.109,-3.734 -7.476,-7.281 -7.476,-7.886 0,-1.481 2.945,-4.34 4.464,-4.34 2.008,0 23.512,19.812 28.653,26.394 10.176,13.032 13.343,22.598 13.355,40.317 0.016,27.594 -7.918,42.012 -21.109,38.371 -4.211,-1.164 -13.395,-7.809 -21.082,-15.258 l -5.52,-5.344 -44.496,5.317 c -30.281,3.617 -45.023,5.777 -46.148,6.765 -1.254,1.098 -3.383,1.286 -8.84,0.782 l -7.188,-0.668 -0.957,8.636 c -0.875,7.903 -1.16,8.668 -3.332,8.977 -4.226,0.598 -5.133,-1.223 -4.562,-9.168 0.515,-7.23 0.508,-7.262 -1.942,-6.711 -1.355,0.301 -24.507,3.109 -51.449,6.234 -26.937,3.125 -50.109,6.032 -51.492,6.465 -1.867,0.582 -2.828,1.973 -3.746,5.422 -0.68,2.551 -1.539,5.371 -1.914,6.27 -0.563,1.347 1.078,2.023 9.418,3.879 26.031,5.796 42.078,7.761 63.719,7.793 10.816,0.015 19.902,-0.497 23.718,-1.34 12.91,-2.84 32.207,-12.11 42.539,-20.43 2.961,-2.387 5.02,-3.328 6.352,-2.906 2.769,0.879 3.496,3.527 1.715,6.25 -3.676,5.609 -30.821,20.367 -43.563,23.687 -28.148,7.332 -82.254,1.172 -131.304,-14.945 -7.09,-2.332 -14.051,-5.07 -15.469,-6.086 -2.492,-1.793 -3.375,-1.758 -26.813,1.02 -41.832,4.953 -50.82,5.543 -85.074,5.558 -40.172,0.016 -50.371,-0.765 -53.726,-4.121 l -2.375,-2.375 -11.571,8.668 c -6.363,4.77 -12.328,8.668 -13.25,8.668 -2.019,0 -4.152,-1.961 -4.152,-3.82 0,-1.766 -0.141,-1.653 34.027,-27.692 97.621,-74.398 116.657,-91.625 140.446,-127.074 10.859,-16.18 28.679,-45.594 27.625,-45.594 -1.957,0 -19.895,8.297 -29.024,13.426 -17.918,10.063 -38.613,24.934 -56.031,40.262 -28.231,24.836 -126.086,127.625 -161.453,169.59 l -6.969,8.265 -1.102,14.934 c -0.605,8.215 -1.406,23.523 -1.777,34.015 -0.375,10.493 -1.137,19.657 -1.695,20.368 -1.399,1.765 -4.363,1.617 -5.957,-0.301 -1.071,-1.289 -1.074,-6.774 -0.035,-28.957 0.703,-15.051 1.125,-27.524 0.933,-27.715 -0.578,-0.578 -17.363,21.59 -24.84,32.801 -11.703,17.547 -19.336,33.89 -19.336,41.406 0,5.324 2.145,7.234 8.2,7.324 6.289,0.09 9.125,2.137 7.41,5.344 -1.367,2.555 -7.633,3.68 -12.692,2.285 -22.144,-6.117 -10.621,-37.844 33.973,-93.519 9.152,-11.43 9.277,-11.668 9.969,-18.563 3.152,-31.418 10.109,-49.172 56.285,-143.625 46.289,-94.68 80.387,-163.656 86.66,-175.305 12.941,-24.031 25.977,-40.781 36.57,-46.988 8.887,-5.211 15.629,-6.844 30.532,-7.398 15.461,-0.578 23.047,0.367 36.312,4.519 10.414,3.262 26.567,11.211 36.664,18.051 l 7.629,5.164 8.871,-1.855 c 13.719,-2.871 37.278,-2.649 47.981,0.449 10.777,3.121 26.3,11.191 37.285,19.379 4.879,3.64 9.308,6.617 9.84,6.617 0.531,0 4.043,-2.609 7.8,-5.797 30.266,-25.676 61.434,-43.008 87.981,-48.926 50.336,-11.215 93.902,23.477 136.668,108.832 21.785,43.485 37.398,84.547 80.184,210.914 37.671,111.254 58.597,175.383 57.921,177.508 -0.765,2.422 -5.394,2.328 -6.839,-0.136 -0.5,-0.852 -15.7,-45.868 -33.774,-100.032 -66.113,-198.113 -79.961,-235.57 -106.336,-287.691 -16.445,-32.5 -30.902,-54.277 -47.703,-71.848 -15.395,-16.105 -30.672,-26.004 -46.094,-29.867 -9.168,-2.297 -28.394,-1.461 -39.183,1.707 -11.114,3.266 -25.942,10.004 -38.625,17.563 -11.043,6.574 -31.93,21.738 -40.977,29.746 l -4.836,4.281 6.899,6.387 c 10.992,10.175 13.351,14.039 11.519,18.859 -2.355,6.199 -14.465,7.031 -36.074,2.484 l -9.797,-2.062 -6.332,6.812 c -6.594,7.098 -9.672,8.219 -12.062,4.403 -0.868,-1.379 -0.098,-2.864 3.882,-7.524 2.727,-3.195 4.789,-5.929 4.582,-6.074 -0.211,-0.148 -6.183,-1.812 -13.269,-3.703 -19.461,-5.184 -53.344,-16.606 -70.024,-23.598 l -14.851,-6.226 -5.774,3.672 c -15.996,10.179 -46.546,34.843 -71.343,57.597 -18.262,16.75 -55.125,54.168 -81.293,82.504 -32.535,35.238 -30.067,32.973 -32.879,30.16 -2.528,-2.531 -0.973,-5.254 9.754,-17.074 64.574,-71.148 120.39,-124.082 161.48,-153.152 4.965,-3.512 9.024,-6.711 9.024,-7.106 0,-0.398 -3.594,-1.551 -7.993,-2.566 -10.211,-2.356 -29.578,-2.418 -36.566,-0.121 -5.742,1.886 -8.453,0.719 -7.871,-3.391 0.43,-3.043 4.777,-4.695 16.492,-6.273 9.824,-1.321 23.211,0.105 36.859,3.929 l 9.688,2.715 16.547,-8.203 -7.649,-4.766 c -10.363,-6.46 -23.511,-12.507 -33.445,-15.382 -7.203,-2.086 -10.488,-2.383 -26.277,-2.383 h -18.047 l -7.027,3.328 c -12.797,6.062 -23.09,18.055 -37.223,43.367 -5.93,10.621 -75.672,151.586 -100.879,203.891 -26.363,54.715 -37.715,82.215 -40.481,98.066 -0.855,4.914 -1.558,9.578 -1.558,10.36 0,0.785 3.578,-2.641 7.949,-7.61 30.574,-34.75 95.305,-103.605 126.625,-134.699 50.453,-50.082 90.93,-75.871 138.426,-88.195 34.926,-9.063 72.894,-9.575 123.402,-1.668 88.028,13.785 144.989,45.965 191.692,108.308 15.246,20.356 19.175,27.012 56.929,96.391 22.375,41.113 45.907,83.25 71.348,127.746 11.715,20.488 17.711,31.961 17.332,33.16 -0.687,2.164 -2.977,3.231 -5.145,2.399 -1.41,-0.543 -23.828,-39.118 -51.39,-88.426 -8.746,-15.653 -10.988,-18.996 -11.402,-17.016 -0.286,1.352 -1.508,9.656 -2.715,18.445 -6.996,50.868 -25.602,144.801 -35.739,180.465 -4.707,16.551 -7.718,22.688 -11.14,22.688 -1.387,0 -2.957,-0.817 -3.492,-1.813 z M 846.688,1365.785 c 0.363,-2.644 0.48,-4.984 0.265,-5.199 -0.215,-0.215 -5.566,0.168 -11.894,0.855 -6.329,0.688 -11.141,1.594 -10.7,2.012 0.661,0.625 18.801,6.699 21.036,7.043 0.347,0.055 0.929,-2.066 1.293,-4.711 z M 965.93,1107.809 c 0,-1.204 -15.024,-15.645 -16.274,-15.645 -0.562,0 -4.207,2.996 -8.101,6.66 -5.512,5.184 -6.621,6.688 -5.016,6.785 1.137,0.067 5.313,0.739 9.281,1.493 8.258,1.562 20.11,1.98 20.11,0.707 z m -31.25,-13.586 8.449,-8.2 -4.324,-3.543 c -12.746,-10.433 -31.328,-19.687 -44.856,-22.332 -6.875,-1.343 -31.191,-0.824 -36.621,0.786 l -2.906,0.859 7.805,7.008 c 4.289,3.855 7.8,7.812 7.8,8.793 0,3.871 -4.761,5.676 -7.207,2.726 -0.699,-0.84 -5.125,-4.8 -9.832,-8.797 l -8.558,-7.265 -6.805,2.722 c -3.742,1.5 -7.039,3.102 -7.324,3.567 -0.719,1.168 27.328,12 49.008,18.926 19.296,6.168 42.832,12.867 45.371,12.914 0.851,0.015 5.351,-3.657 10,-8.164 z m -214.387,524.968 c -11.547,-13.656 -28.965,-27.312 -49.809,-39.05 -5.105,-2.875 -11.601,-6.883 -14.437,-8.907 -8.336,-5.949 -19.738,-17.902 -26.531,-27.82 -5.977,-8.726 -31.704,-57.461 -31.723,-60.098 -0.016,-2.023 2.152,-2.722 3.684,-1.191 0.789,0.789 7.128,12.563 14.089,26.16 15.071,29.445 20.254,37.496 31.2,48.457 8.339,8.356 12.769,11.496 32.625,23.156 14.812,8.7 25.3,16.719 36.718,28.071 10.426,10.371 15.274,16.609 14.223,18.308 -1.383,2.239 -3.305,0.879 -10.039,-7.086 z m 60.434,-63.379 c -0.813,-2.117 20.972,-43.984 41.109,-79 14.754,-25.656 33.375,-53.234 40.297,-59.683 2.504,-2.332 5.832,-2.461 5.832,-0.227 0,0.551 -2.578,3.93 -5.731,7.508 -12.14,13.801 -33.019,47.59 -55.949,90.555 -20.441,38.308 -22.312,41.633 -23.656,42.051 -0.707,0.222 -1.563,-0.321 -1.902,-1.204 z m 100.812,-55.023 c -1.547,-2.988 -2.652,-96.992 -1.16,-98.789 1.574,-1.898 3.527,-1.91 5.406,-0.031 2.031,2.031 3.692,96.765 1.735,99.121 -1.7,2.051 -4.844,1.89 -5.981,-0.305 v 0 z m -7.601,-164.945 c -1.84,-2.063 -14.856,-30.461 -20.938,-45.684 -4.137,-10.351 -5.031,-17.863 -3.316,-27.844 0.726,-4.226 0.586,-4.738 -1.547,-5.671 -2.067,-0.907 -2.442,-2.075 -3.172,-9.797 -1.367,-14.508 -0.473,-61.235 1.211,-63.262 1.695,-2.043 5.886,-2.254 6.625,-0.336 0.285,0.75 0.187,7.129 -0.223,14.176 -0.894,15.304 -0.172,50.961 1.008,49.758 1.543,-1.582 5.164,-17.301 5.785,-25.129 0.762,-9.598 -1.016,-22.785 -4.976,-36.942 -3.227,-11.531 -3.106,-14.23 0.671,-15.179 6.141,-1.543 8.438,2.546 12.879,22.929 4.59,21.078 3.867,34.137 -3.175,57.528 -5.61,18.629 -5.887,21.972 -2.629,31.683 1.457,4.34 6.914,17.278 12.125,28.742 8.031,17.668 9.332,21.258 8.531,23.555 -1.199,3.43 -6.348,4.285 -8.859,1.473 z m 75.175,-9.848 c -1.058,-0.785 -3.328,-7.172 -5.789,-16.297 -4.426,-16.418 -11.426,-40.117 -13.965,-47.297 -0.886,-2.504 -1.351,-5.379 -1.031,-6.39 0.789,-2.481 4.477,-3.547 6.211,-1.793 2.16,2.191 20.047,63.211 20.047,68.39 0,2.079 -1.723,4.676 -3.102,4.676 -0.347,0 -1.414,-0.582 -2.371,-1.289 z M 938.84,1012.504 c -3.766,-2.852 -5.156,-21.766 -2.309,-31.356 3.922,-13.203 8.555,-15.886 32.492,-18.816 17.153,-2.102 24.75,-3.668 24.75,-5.102 0,-1.277 -6.23,-6.734 -13.55,-11.871 -8.453,-5.929 -10.985,-10.359 -9.246,-16.175 2.75,-9.172 15.675,-24.141 24.933,-28.868 6.324,-3.226 16.508,-3.867 23.762,-1.488 14.215,4.656 25.058,12.465 24.449,17.602 -0.183,1.539 -1.172,3.308 -2.191,3.933 -1.539,0.942 -2.336,0.578 -4.641,-2.109 -3.746,-4.371 -9.769,-8.113 -17.125,-10.645 -8.066,-2.773 -15.144,-2.707 -20.973,0.203 -8.222,4.11 -21.808,21.012 -20.418,25.403 0.329,1.023 3.797,4.051 7.715,6.726 16.657,11.383 19.942,20.043 9.571,25.235 -5.188,2.597 -6.461,2.851 -26.536,5.308 -10.246,1.254 -18.437,2.766 -19.796,3.657 -4.161,2.726 -5.821,7.496 -6.278,18.027 -0.234,5.406 0.074,11.648 0.688,13.871 0.929,3.363 0.832,4.352 -0.563,5.899 -1.996,2.203 -2.496,2.261 -4.734,0.566 z m 143.527,-5.883 c -7.351,-2.23 -11.254,-7.324 -11.25,-14.691 0.02,-7.953 5.641,-14.129 17.129,-18.778 3.34,-1.351 17.207,-5.582 30.82,-9.394 13.614,-3.817 25.969,-7.563 27.461,-8.32 3.785,-1.926 7.993,-7.172 10.996,-13.708 2.27,-4.933 2.485,-6.472 1.965,-13.921 -0.961,-13.7 -5.187,-25.332 -28.324,-77.981 -7.355,-16.73 -16.226,-37.293 -19.719,-45.695 -14.675,-35.313 -30.351,-61.969 -47.269,-80.367 -5.164,-5.621 -5.692,-5.957 -5.102,-3.266 7.785,35.367 8.278,44.051 4.395,77.547 -2.989,25.742 -3.446,43.793 -1.25,49.055 2.293,5.48 7.574,10.691 16.258,16.035 l 8.128,5.004 6.434,-2.614 c 11.516,-4.675 22.188,-3.019 26.523,4.114 1.075,1.765 2.516,6.359 3.204,10.207 1.101,6.164 1.046,7.304 -0.473,9.629 -2.754,4.195 -7.906,3.605 -16.805,-1.934 -4.035,-2.512 -9.644,-5.734 -12.461,-7.16 l -5.121,-2.598 -3.082,3.297 c -6.734,7.188 -8.238,12.91 -5.023,19.125 1.922,3.715 9.304,10.469 15.261,13.961 4.942,2.894 6.29,4.746 5.313,7.293 -1.258,3.285 -4.527,2.848 -11.195,-1.496 -7.864,-5.125 -15.282,-12.793 -17.492,-18.078 -3.438,-8.227 -1.293,-17.414 5.8,-24.867 l 3.074,-3.227 -5.679,-3.25 c -8.106,-4.637 -15.227,-11.395 -18.738,-17.777 -4.418,-8.039 -4.665,-20.793 -1.012,-52.481 3.754,-32.574 3.691,-41.715 -0.43,-61.812 -1.801,-8.782 -4.656,-20.09 -6.344,-25.133 -2.359,-7.039 -2.797,-9.492 -1.89,-10.586 2.164,-2.609 5.609,-1.469 12.058,3.992 11.809,10.004 25.594,27.313 36.852,46.277 9.461,15.938 12.457,22.192 28.32,59.098 7.817,18.188 18.84,43.742 24.5,56.785 15.899,36.649 20.727,52.778 19.582,65.418 -1.008,11.09 -10.683,25.805 -19.121,29.078 -1.531,0.594 -14.648,4.465 -29.148,8.606 -34.051,9.722 -40.492,12.949 -40.492,20.289 0,3.578 2.257,5.808 6.828,6.742 1.578,0.324 3.316,1.426 3.867,2.449 1.297,2.43 1.277,2.594 -0.629,4.496 -1.766,1.77 -2.691,1.856 -6.719,0.637 z m 32.149,-127.59 c -1.789,-6.644 -3.383,-8.062 -9.032,-8.051 -9.929,0.024 -9.906,1.079 0.168,7.231 5.039,3.078 9.34,5.426 9.551,5.211 0.215,-0.211 -0.098,-2.188 -0.687,-4.391 z m -82.383,-190.277 c -0.68,-0.684 -1.235,-2.899 -1.235,-4.926 0,-3.555 9.184,-91.902 15.465,-148.785 5.321,-48.168 12.043,-80.855 24.434,-118.844 8.765,-26.859 9.855,-28.258 28.269,-36.187 18.329,-7.895 21.461,-9.844 28.614,-17.813 l 6.605,-7.355 -10.703,-0.106 c -12.973,-0.125 -15.75,-0.777 -16.187,-3.808 -0.485,-3.344 23.246,-48.621 43.89,-83.742 12.258,-20.848 34.555,-54.129 44.918,-67.04 10.867,-13.539 25.563,-27.617 34.117,-32.675 l 6.535,-3.868 1.313,-6.613 c 1.926,-9.68 7.594,-20.277 14.414,-26.957 6.5,-6.359 24.106,-16.785 37.707,-22.332 14.465,-5.898 23.969,-7.851 36.004,-7.406 9.312,0.344 11.238,0.762 17.297,3.742 8.156,4.016 19.379,15.387 28.055,28.426 5.539,8.324 11.929,21.64 11.929,24.859 0,0.891 1.508,2.285 3.352,3.102 1.844,0.812 11.703,5.031 21.914,9.375 26.183,11.133 66.512,30.121 83.527,39.324 22.215,12.016 26.285,15.254 24.098,19.16 -1.563,2.789 -4.164,2.145 -11.828,-2.933 -12.789,-8.473 -88.567,-44.79 -113.446,-54.368 l -4.242,-1.632 -0.566,11.535 c -0.399,8.168 -1.383,14.34 -3.367,21.117 l -2.801,9.582 3.437,7.434 c 2.903,6.277 3.504,8.89 3.856,16.777 0.512,11.359 -0.875,18.547 -5.399,27.984 -4.488,9.364 -8.652,13.969 -15.168,16.774 -4.671,2.007 -6.773,2.246 -17.539,1.965 l -12.23,-0.313 -8.508,9.184 c -24.68,26.636 -51.453,40.265 -99.328,50.562 -13.008,2.797 -46.586,8.766 -49.32,8.766 -0.286,0 0.211,1.738 1.101,3.867 1.031,2.469 1.633,7.109 1.664,12.836 0.043,9.351 -0.98,12.168 -4.418,12.168 -3.211,0 -4.218,-2.453 -3.504,-8.531 0.774,-6.602 -0.984,-15.293 -3.574,-17.633 -1.504,-1.364 -3.226,-1.442 -12.035,-0.551 -12.34,1.25 -14.492,2.492 -25.684,14.82 -8.296,9.141 -12.257,11.668 -29.968,19.117 -16.797,7.067 -16.953,7.247 -23.868,27.84 -9.218,27.461 -17.757,63.711 -21.984,93.328 -1.133,7.938 -5.098,43.208 -8.812,78.372 -3.711,35.164 -7.637,72.203 -8.719,82.312 -1.082,10.106 -2.516,19.039 -3.192,19.852 -1.492,1.796 -3.242,1.882 -4.89,0.234 z m 119.812,-344.762 c 3.961,-1.426 6.879,-1.68 13.684,-1.199 6.516,0.457 12.641,-0.016 24.867,-1.922 41.899,-6.531 69.797,-13.723 88.082,-22.699 l 5.856,-2.875 -1.848,-3.688 c -3.156,-6.277 -4.656,-14.582 -4.68,-25.859 -0.023,-9.887 0.317,-11.812 3.891,-22.172 10.648,-30.859 30.496,-63.18 43.07,-70.121 5.082,-2.809 6.457,-3.09 14.879,-3.051 10.93,0.055 17.637,2.285 27.828,9.262 l 6.496,4.449 1.801,-6.363 c 1.984,-7.008 3.195,-23.211 2.152,-28.777 -0.664,-3.528 -0.75,-3.579 -12.769,-7.278 -16.406,-5.054 -23.164,-6.687 -35.016,-8.476 -26.855,-4.047 -51.48,-0.254 -77.496,11.937 l -8.699,4.078 0.617,14.422 c 0.59,13.836 0.531,14.473 -1.508,15.563 -4.425,2.367 -6.851,-4.227 -6.98,-18.973 l -0.063,-7.02 -3.183,1.864 c -1.75,1.023 -6.883,5.293 -11.41,9.488 -25,23.18 -58.922,74.617 -94.418,143.168 l -9.895,19.113 14.852,-0.531 c 10.425,-0.375 16.355,-1.07 19.89,-2.34 z m 149.227,-38.816 c 8.617,-6.004 27.215,-23.973 26.316,-25.426 -0.324,-0.523 -1.937,-1.223 -3.586,-1.551 -6.308,-1.261 -22.957,-8.297 -23.925,-10.109 -0.766,-1.43 -0.508,-2.387 1.066,-3.961 l 2.074,-2.074 5.426,2.191 c 9.617,3.887 23.746,8.215 25.109,7.692 2.512,-0.965 28.379,-41.813 34.649,-54.715 l 2.383,-4.899 -4.125,-3.527 c -11.051,-9.453 -27.45,-13.32 -36.961,-8.715 -8.672,4.195 -23.383,26.188 -34.348,51.34 -9.551,21.914 -11.379,32.668 -8.141,47.937 1.676,7.911 3.149,11.141 5.079,11.141 0.738,0 4.785,-2.395 8.984,-5.324 z m 63.769,-32.578 c 7.735,-3.786 14.84,-19.637 14.899,-33.254 0.035,-8.594 -3.09,-20.262 -4.688,-17.504 -8.925,15.371 -22.39,37.578 -26.504,43.695 -2.91,4.336 -5.293,8.074 -5.293,8.309 0,2.14 16.622,1.183 21.586,-1.246 z M 1259.176,153.793 c 32.152,-13.211 60.801,-13.656 102.687,-1.598 6.555,1.887 12.121,3.227 12.379,2.977 0.82,-0.805 -6.211,-14.11 -11.039,-20.899 -6.957,-9.777 -16.988,-19.972 -22.215,-22.585 -16.449,-8.215 -39.359,-3.2 -71.363,15.624 -9.184,5.403 -15.879,12.047 -19.383,19.239 -3.48,7.144 -4.785,12.988 -2.695,12.062 0.801,-0.351 6.031,-2.523 11.629,-4.82 z m -431.43,214.18 c -6.316,-3.129 -9.234,-16.258 -7.441,-33.489 0.574,-5.535 0.953,-10.16 0.843,-10.281 -0.109,-0.121 -2.5,0.516 -5.308,1.418 -6.82,2.184 -20.891,2.18 -29.344,-0.008 -10.293,-2.668 -28.164,-12.117 -40.73,-21.535 -15.235,-11.418 -31.172,-27.371 -35.313,-35.348 -16.328,-31.476 -8.539,-84.398 21.399,-145.398 14.324,-29.184 37.964,-60.207 63.699,-83.598 15.719,-14.285 15.828,-14.129 16.5,23.27 0.527,29.242 0.246,32.004 -3.25,31.957 -3.664,-0.051 -3.903,-1.465 -4.379,-25.828 -0.254,-13.242 -0.66,-24.27 -0.902,-24.508 -0.793,-0.793 -10.184,8.027 -20.454,19.207 -12.101,13.176 -26.105,31.445 -33.359,43.52 -17.535,29.195 -32.453,68.234 -37.629,98.48 -3.004,17.539 -2.363,37.789 1.559,49.258 4.648,13.609 8.031,18.027 25.086,32.769 13.398,11.579 34.422,25.735 38.218,25.735 0.727,0 0.582,-1.68 -0.421,-4.899 -2.602,-8.343 -0.625,-22.871 5.418,-39.789 9.343,-26.164 26.976,-53.25 48.886,-75.086 l 12.051,-12.011 -2.336,-6.454 c -3.199,-8.832 -11.031,-19.953 -17.906,-25.425 -6.68,-5.317 -20.746,-12.258 -40.262,-19.875 -22.398,-8.739 -28.207,-12.223 -29.734,-17.844 -1.157,-4.258 0.203,-6.922 3.531,-6.922 1.949,0 2.859,0.758 3.664,3.063 1.434,4.113 4.434,5.777 26.148,14.5 39.704,15.949 49.692,23.39 59.809,44.578 l 4.316,9.035 4.59,-3.504 c 8.403,-6.418 22.938,-15.481 34.278,-21.379 l 11.215,-5.832 -3.997,-1.281 c -2.195,-0.703 -19.074,-6.84 -37.507,-13.641 -18.434,-6.801 -47.204,-17.207 -63.93,-23.125 -16.731,-5.918 -30.813,-11.152 -31.293,-11.633 -1.297,-1.297 -0.422,-4.324 1.629,-5.613 1.348,-0.852 3.008,-0.703 6.703,0.594 30.754,10.789 70.469,25.078 90.5,32.566 39.586,14.797 47.215,17.047 54.957,16.219 6.68,-0.711 9.492,0.242 9.492,3.219 0,2.761 -4,5.543 -7.992,5.55 -8.508,0.02 -37.688,15.032 -57.34,29.504 -8.722,6.426 -9.101,6.868 -8.555,10.004 0.313,1.805 1.137,9.199 1.829,16.434 1.378,14.383 0.695,21.066 -3.395,33.144 -5.828,17.219 -23.754,47.59 -38.012,64.403 -3.535,4.168 -9.179,9.605 -12.543,12.082 -5.964,4.39 -6.046,4.519 -3.39,5.187 4.07,1.02 13.41,-0.363 19.941,-2.957 l 5.781,-2.297 2.825,-10.519 c 3.644,-13.559 6.433,-19.371 11.929,-24.871 5.34,-5.344 16.586,-10.836 26.535,-12.961 3.969,-0.848 8.192,-1.836 9.383,-2.196 1.395,-0.425 2.813,-0.011 3.973,1.149 1.644,1.644 1.769,3.957 1.375,25.601 -0.391,21.329 -0.676,24.493 -2.754,30.5 -6.238,18.028 -23.648,39.958 -36.445,45.918 -6.121,2.848 -8.422,3.082 -12.141,1.243 z m 10.942,-9.618 c 12.628,-8.425 26.933,-28.429 30.707,-42.941 1.722,-6.633 3.125,-31.73 1.875,-33.574 -0.653,-0.965 -3.153,1.281 -9.067,8.14 -8.094,9.399 -18.633,19.247 -26.933,25.172 -2.372,1.696 -4.547,4.012 -4.829,5.145 -1.586,6.363 -2.882,21.66 -2.418,28.476 0.868,12.649 3.082,14.637 10.665,9.582 z m -45.047,-48.988 c 11.652,-7.101 31.886,-34.808 44.023,-60.277 6.902,-14.488 9.684,-24.438 9.641,-34.473 -0.035,-8.715 -1.485,-21.48 -2.551,-22.531 -0.988,-0.973 -18.527,17.473 -26.207,27.559 -24.027,31.566 -40,73.183 -33.777,88.019 1.882,4.484 3.73,4.84 8.871,1.703 z m 51.218,-13.047 c 5.067,-4.961 11.754,-12.004 14.868,-15.648 l 5.66,-6.625 -3.61,0.711 c -5.715,1.129 -14.39,5.789 -18.593,9.992 -4.563,4.566 -11.184,20.594 -8.504,20.594 0.535,0 5.117,-4.059 10.179,-9.024 z"
         style="fill:#625970;fill-opacity:1;fill-rule:nonzero;stroke:none"
         id="path908" /></g></g></svg>
