<?xml version="1.0" encoding="UTF-8" standalone="no"?>
<svg
   xmlns:svg="http://www.w3.org/2000/svg"
   xmlns="http://www.w3.org/2000/svg"
   xmlns:sodipodi="http://sodipodi.sourceforge.net/DTD/sodipodi-0.dtd"
   xmlns:inkscape="http://www.inkscape.org/namespaces/inkscape"
   inkscape:version="1.1-dev (1:0.92.0+devel+202005110039+9ce7266)"
   sodipodi:docname="03a.svg"
   version="1.1"
   id="svg990"
   xml:space="preserve"
   width="2527.5789"
   height="2526.3159"
   viewBox="0 0 2527.5789 2526.3159"><sodipodi:namedview
     inkscape:current-layer="svg990"
     inkscape:window-maximized="0"
     inkscape:window-y="225"
     inkscape:window-x="275"
     inkscape:cy="1263.158"
     inkscape:cx="1263.7894"
     inkscape:zoom="0.26956249"
     showgrid="false"
     id="namedview957"
     inkscape:window-height="480"
     inkscape:window-width="796"
     inkscape:pageshadow="2"
     inkscape:pageopacity="0"
     guidetolerance="10"
     gridtolerance="10"
     objecttolerance="10"
     borderopacity="1"
     bordercolor="#666666"
     pagecolor="#ffffff" /><defs
     id="defs994" /><g
     style="fill:#625970;fill-opacity:1"
     id="g996"
     transform="matrix(1.3333333,0,0,1.3333333,0,4.5824564e-5)"><g
       style="fill:#625970;fill-opacity:1"
       id="g998"><path
         id="path5316"
         style="font-variant:normal;font-weight:bold;font-size:100px;font-family:'IBM Plex Mono';-inkscape-font-specification:IBMPlexMono-Bold;writing-mode:lr-tb;fill:#625970;fill-opacity:1;fill-rule:nonzero;stroke:none;stroke-width:1.33333"
         d="M 619.73242 96 C 597.06576 96 587.19922 113.73281 587.19922 144.13281 C 587.19922 171.99948 595.46706 189.33385 614.40039 191.86719 L 614.40039 196.80078 C 614.40039 206.00078 619.19961 212.5332 629.59961 212.5332 L 645.19922 212.5332 L 645.19922 203.4668 L 625.06641 203.4668 L 625.06641 191.86719 C 643.86641 189.33385 652.26758 171.99948 652.26758 144.13281 C 652.26758 113.73281 642.39909 96 619.73242 96 z M 108.13281 97.599609 L 108.13281 190.66602 L 125.19922 190.66602 L 125.19922 128.80078 L 126.66602 128.80078 L 147.86719 190.66602 L 171.86719 190.66602 L 171.86719 97.599609 L 154.80078 97.599609 L 154.80078 159.4668 L 153.33398 159.4668 L 132.13281 97.599609 L 108.13281 97.599609 z M 928.26758 97.599609 L 928.26758 115.59961 C 928.26758 120.26628 926.53333 121.86719 922 121.86719 L 904.93359 121.86719 L 904.93359 130.93359 L 927.86719 130.93359 L 927.86719 174.93359 C 927.86719 184.13359 932.66641 190.66602 943.06641 190.66602 L 969.86719 190.66602 L 969.86719 181.59961 L 938.5332 181.59961 L 938.5332 130.93359 L 969.86719 130.93359 L 969.86719 121.86719 L 938.5332 121.86719 L 938.5332 97.599609 L 928.26758 97.599609 z M 619.73242 105.73438 C 634.53242 105.73438 640.40039 117.86654 640.40039 136.5332 L 640.40039 151.73438 C 640.40039 170.40104 634.53242 182.5332 619.73242 182.5332 C 604.93242 182.5332 599.06641 170.40104 599.06641 151.73438 L 599.06641 136.5332 C 599.06641 117.86654 604.93242 105.73437 619.73242 105.73438 z M 218.66602 120.26758 C 203.33268 120.26758 193.33411 126.00104 188.80078 133.73438 L 199.59961 143.33398 C 203.33294 138.26732 208.13372 134.66602 216.40039 134.66602 C 225.46706 134.66602 228.93359 138.93307 228.93359 147.06641 L 228.93359 150.5332 L 217.86719 150.5332 C 197.73385 150.5332 186.93359 157.33438 186.93359 171.73438 C 186.93359 184.66771 195.73307 192.26758 209.06641 192.26758 C 219.59974 192.26758 227.6 187.46654 230 178.5332 L 230.66602 178.5332 C 231.46602 186.26654 236.80026 190.66602 244.93359 190.66602 L 256.26758 190.66602 L 256.26758 176.40039 L 248.66602 176.40039 L 248.66602 146.26758 C 248.66602 128.93425 237.46602 120.26758 218.66602 120.26758 z M 293.86719 120.26758 C 286.53385 120.26758 282.93411 125.6 280.80078 132 L 279.86719 132 L 279.86719 121.86719 L 264 121.86719 L 264 190.66602 L 279.86719 190.66602 L 279.86719 141.59961 C 279.86719 136.93294 282.66758 134.80078 286.26758 134.80078 C 289.73424 134.80078 292 137.0668 292 143.4668 L 292 190.66602 L 308 190.66602 L 308 141.59961 C 308 136.93294 310.79948 134.80078 314.13281 134.80078 C 317.73281 134.80078 320.13281 137.0668 320.13281 143.4668 L 320.13281 190.66602 L 336 190.66602 L 336 141.4668 C 336 127.33346 331.19961 120.26758 321.59961 120.26758 C 313.06628 120.26758 309.20026 125.73333 306.93359 132 L 306.13281 132 C 304.66615 124.4 300.40052 120.26758 293.86719 120.26758 z M 380.13281 120.26758 C 359.46615 120.26758 346.66602 133.99987 346.66602 156.5332 C 346.66602 178.5332 358.80052 192.26758 381.86719 192.26758 C 396.66719 192.26758 406.00065 186.66615 411.33398 180.13281 L 400.66602 168.5332 C 396.39935 173.59987 390.66654 177.06641 382.5332 177.06641 C 371.99987 177.06641 366.26758 171.06758 366.26758 162.26758 L 366.26758 161.06641 L 413.33398 161.06641 L 413.33398 155.19922 C 413.33398 133.73255 400.66615 120.26758 380.13281 120.26758 z M 460 120.26758 C 450 120.26758 446 125.33398 446 131.33398 L 446 136 C 446 142 450 147.06641 460 147.06641 C 470 147.06641 474 142 474 136 L 474 131.33398 C 474 125.33398 470 120.26758 460 120.26758 z M 777.06641 120.26758 C 763.06641 120.26758 754.26745 126.93281 750.80078 134.13281 L 758 139.4668 C 761.6 133.20013 767.20039 129.33398 776.40039 129.33398 C 786.80039 129.33398 792.80078 134.5332 792.80078 144.5332 L 792.80078 151.33398 L 778.13281 151.33398 C 757.46615 151.33398 748.5332 158.66732 748.5332 171.33398 C 748.5332 184.26732 757.73281 192.26758 772.13281 192.26758 C 783.33281 192.26758 789.86745 187.33346 792.80078 179.4668 L 793.4668 179.4668 C 794.2668 185.8668 797.46576 190.66602 805.73242 190.66602 L 813.06641 190.66602 L 813.06641 181.33398 L 803.4668 181.33398 L 803.4668 143.4668 C 803.4668 128.93346 793.19974 120.26758 777.06641 120.26758 z M 672 121.86719 L 672 166 C 672 182.66667 681.46719 192.26758 695.86719 192.26758 C 707.20052 192.26758 712.53346 186.2668 715.4668 179.4668 L 716 179.4668 L 716 190.66602 L 726.66602 190.66602 L 726.66602 121.86719 L 716 121.86719 L 716 169.59961 C 716 178.66628 707.46693 182.80078 698.93359 182.80078 C 688.40026 182.80078 682.66602 176.66615 682.66602 164.13281 L 682.66602 121.86719 L 672 121.86719 z M 830 121.86719 L 830 130.93359 L 850.13281 130.93359 L 850.13281 181.59961 L 830 181.59961 L 830 190.66602 L 887.4668 190.66602 L 887.4668 181.59961 L 860.80078 181.59961 L 860.80078 151.86719 C 860.80078 141.20052 867.86732 132.5332 881.33398 132.5332 L 894.26758 132.5332 L 894.26758 121.86719 L 884.66602 121.86719 C 870.26602 121.86719 864.13346 130.13255 861.4668 139.19922 L 860.80078 139.19922 L 860.80078 121.86719 L 830 121.86719 z M 992.5332 121.86719 L 992.5332 130.93359 L 1035.4668 130.93359 L 991.06641 180.40039 L 991.06641 190.66602 L 1048.4004 190.66602 L 1048.4004 181.59961 L 1002.666 181.59961 L 1047.0664 132.13281 L 1047.0664 121.86719 L 992.5332 121.86719 z M 380.26758 134.40039 C 388.80091 134.40039 394 140.00026 394 148.93359 L 394 150 L 366.26758 150 L 366.26758 148.93359 C 366.26758 140.13359 371.73425 134.40039 380.26758 134.40039 z M 778.13281 159.33398 L 792.80078 159.33398 L 792.80078 170.66602 C 792.80078 177.73268 784.93333 183.33398 774 183.33398 C 765.2 183.33398 759.73242 179.59987 759.73242 172.5332 L 759.73242 169.73438 C 759.73242 163.06771 765.46615 159.33398 778.13281 159.33398 z M 218.40039 161.19922 L 228.93359 161.19922 L 228.93359 169.4668 C 228.93359 175.8668 223.46654 179.33398 216.5332 179.33398 C 210.26654 179.33398 206.26758 176.8 206.26758 172 L 206.26758 169.33398 C 206.26758 164.00065 210.53372 161.19922 218.40039 161.19922 z M 460 165.4668 C 450 165.4668 446 170.5332 446 176.5332 L 446 181.19922 C 446 187.19922 450 192.26758 460 192.26758 C 470 192.26758 474 187.19922 474 181.19922 L 474 176.5332 C 474 170.5332 470 165.4668 460 165.4668 z M 538.40039 262.66602 C 523.20039 262.66602 514.93281 270.40052 510.13281 277.86719 L 518.5332 284.26758 C 522.39987 277.20091 528.26615 272.40039 538.13281 272.40039 C 548.26615 272.40039 555.19922 277.46732 555.19922 287.33398 L 555.19922 288.26758 C 555.19922 297.20091 548.66575 303.73437 535.73242 303.73438 L 525.4668 303.73438 L 525.4668 313.33398 L 536.5332 313.33398 C 550.1332 313.33398 557.06641 319.73268 557.06641 330.66602 L 557.06641 331.73438 C 557.06641 342.80104 549.73268 349.19922 536.66602 349.19922 C 524.93268 349.19922 519.46654 343.99935 514.5332 336.66602 L 506.13281 343.06641 C 511.86615 351.06641 520.26602 358.93359 536.66602 358.93359 C 555.99935 358.93359 568.80078 347.86719 568.80078 331.86719 C 568.80078 317.86719 559.06745 310.40039 548.80078 308.40039 L 548.80078 307.86719 C 558.93411 305.33385 566.93359 298.13281 566.93359 286.13281 C 566.93359 271.06615 554.26706 262.66602 538.40039 262.66602 z M 125.86719 264.26758 L 100.66602 357.33398 L 120.93359 357.33398 L 126.66602 334.93359 L 152.13281 334.93359 L 158 357.33398 L 179.33398 357.33398 L 154.13281 264.26758 L 125.86719 264.26758 z M 588.40039 264.26758 L 588.40039 291.19922 L 598.40039 291.19922 L 598.40039 273.86719 L 639.19922 273.86719 L 602.80078 357.33398 L 614.80078 357.33398 L 650.5332 274.13281 L 650.5332 264.26758 L 588.40039 264.26758 z M 241.86719 275.33398 C 235.33385 275.33398 231.33398 279.33268 231.33398 284.66602 L 231.33398 288.40039 C 227.73398 287.46706 223.59922 286.93359 219.19922 286.93359 C 201.19922 286.93359 189.33398 295.4668 189.33398 311.4668 C 189.33398 321.60013 194.13424 328.79935 202.26758 332.66602 L 202.26758 333.4668 C 194.80091 335.20013 189.86719 337.99935 189.86719 344.66602 C 189.86719 350.66602 193.60013 353.73346 199.4668 355.4668 L 199.4668 356.26758 C 191.20013 358.40091 186.26758 362.00104 186.26758 369.73438 C 186.26758 379.06771 193.46628 385.59961 219.59961 385.59961 C 245.73294 385.59961 257.73242 378.80091 257.73242 364.26758 C 257.73242 352.66758 250.13372 344.40039 230.40039 344.40039 L 214.66602 344.40039 C 209.19935 344.40039 204.5332 344.13437 204.5332 339.73438 C 204.5332 337.33438 206 335.73268 208 334.66602 C 211.33333 335.59935 215.19922 336 219.19922 336 C 237.33255 336 249.33398 327.33346 249.33398 311.4668 C 249.33398 301.73346 244.93346 294.80026 237.4668 290.93359 L 237.4668 289.73438 L 254 289.73438 L 254 275.33398 L 241.86719 275.33398 z M 138.93359 283.59961 L 140 283.59961 L 149.06641 318.80078 L 129.86719 318.80078 L 138.93359 283.59961 z M 300.13281 286.93359 C 279.46615 286.93359 266.66602 300.66589 266.66602 323.19922 C 266.66602 345.19922 278.80052 358.93359 301.86719 358.93359 C 316.66719 358.93359 326.00065 353.33411 331.33398 346.80078 L 320.66602 335.19922 C 316.39935 340.26589 310.66654 343.73438 302.5332 343.73438 C 291.99987 343.73438 286.26758 337.73359 286.26758 328.93359 L 286.26758 327.73438 L 333.33398 327.73438 L 333.33398 321.86719 C 333.33398 300.40052 320.66615 286.93359 300.13281 286.93359 z M 380 286.93359 C 370 286.93359 366 292 366 298 L 366 302.66602 C 366 308.66602 370 313.73438 380 313.73438 C 390 313.73438 394 308.66602 394 302.66602 L 394 298 C 394 292 390 286.93359 380 286.93359 z M 219.19922 299.4668 C 227.06589 299.4668 230.66602 303.86719 230.66602 309.86719 L 230.66602 313.06641 C 230.66602 319.06641 227.06589 323.4668 219.19922 323.4668 C 211.46589 323.4668 208 319.06641 208 313.06641 L 208 309.86719 C 208 303.86719 211.46589 299.4668 219.19922 299.4668 z M 300.26758 301.06641 C 308.80091 301.06641 314 306.66628 314 315.59961 L 314 316.66602 L 286.26758 316.66602 L 286.26758 315.59961 C 286.26758 306.79961 291.73425 301.06641 300.26758 301.06641 z M 380 332.13281 C 370 332.13281 366 337.19922 366 343.19922 L 366 347.86719 C 366 353.86719 370 358.93359 380 358.93359 C 390 358.93359 394 353.86719 394 347.86719 L 394 343.19922 C 394 337.19922 390 332.13281 380 332.13281 z M 205.19922 360 L 228.80078 360 C 236.80078 360 239.06641 362.13438 239.06641 365.73438 C 239.06641 370.40104 235.06615 372.93359 226.13281 372.93359 L 214.5332 372.93359 C 205.86654 372.93359 202.5332 369.86628 202.5332 365.59961 C 202.5332 363.33294 203.46589 361.46667 205.19922 360 z M 232.40039 425.33398 L 232.40039 467.73438 L 231.4668 467.73438 C 228.00013 459.46771 222.13307 453.59961 211.06641 453.59961 C 195.86641 453.59961 185.19922 464.66628 185.19922 489.59961 C 185.19922 514.53294 195.86641 525.59961 211.06641 525.59961 C 222.13307 525.59961 228.00013 519.73346 231.4668 511.4668 L 232.40039 511.4668 L 232.40039 524 L 252.13281 524 L 252.13281 425.33398 L 232.40039 425.33398 z M 312.40039 425.33398 L 312.40039 467.73438 L 311.4668 467.73438 C 308.00013 459.46771 302.13307 453.59961 291.06641 453.59961 C 275.86641 453.59961 265.19922 464.66628 265.19922 489.59961 C 265.19922 514.53294 275.86641 525.59961 291.06641 525.59961 C 302.13307 525.59961 308.00013 519.73346 311.4668 511.4668 L 312.40039 511.4668 L 312.40039 524 L 332.13281 524 L 332.13281 425.33398 L 312.40039 425.33398 z M 912.13281 425.33398 L 912.13281 524 L 922.80078 524 L 922.80078 512.80078 L 923.33398 512.80078 C 927.73398 521.20078 934.9332 525.59961 944.5332 525.59961 C 961.3332 525.59961 971.4668 512.13294 971.4668 489.59961 C 971.4668 467.06628 961.3332 453.59961 944.5332 453.59961 C 934.9332 453.59961 927.73398 458.00039 923.33398 466.40039 L 922.80078 466.40039 L 922.80078 425.33398 L 912.13281 425.33398 z M 990.13281 425.33398 L 990.13281 434.40039 L 1014.1328 434.40039 L 1014.1328 514.93359 L 990.13281 514.93359 L 990.13281 524 L 1048.8008 524 L 1048.8008 514.93359 L 1024.8008 514.93359 L 1024.8008 425.33398 L 990.13281 425.33398 z M 1908.4004 425.33398 C 1898.0004 425.33398 1893.1992 431.86641 1893.1992 441.06641 L 1893.1992 455.19922 L 1868.666 455.19922 L 1868.666 464.26758 L 1893.1992 464.26758 L 1893.1992 514.93359 L 1870 514.93359 L 1870 524 L 1928.4004 524 L 1928.4004 514.93359 L 1903.8672 514.93359 L 1903.8672 464.26758 L 1931.4668 464.26758 L 1931.4668 455.19922 L 1903.8672 455.19922 L 1903.8672 434.40039 L 1931.4668 434.40039 L 1931.4668 425.33398 L 1908.4004 425.33398 z M 125.86719 430.93359 L 100.66602 524 L 120.93359 524 L 126.66602 501.59961 L 152.13281 501.59961 L 158 524 L 179.33398 524 L 154.13281 430.93359 L 125.86719 430.93359 z M 138.93359 450.26758 L 140 450.26758 L 149.06641 485.4668 L 129.86719 485.4668 L 138.93359 450.26758 z M 460.13281 453.59961 C 439.46615 453.59961 426.66602 467.33385 426.66602 489.86719 C 426.66602 511.86719 438.80052 525.59961 461.86719 525.59961 C 476.66719 525.59961 486.00065 520.00013 491.33398 513.4668 L 480.66602 501.86719 C 476.39935 506.93385 470.66654 510.40039 462.5332 510.40039 C 451.99987 510.40039 446.26758 504.39961 446.26758 495.59961 L 446.26758 494.40039 L 493.33398 494.40039 L 493.33398 488.5332 C 493.33398 467.06654 480.66615 453.59961 460.13281 453.59961 z M 541.73242 453.59961 C 521.86576 453.59961 510.26758 462.26602 510.26758 476.66602 C 510.26758 489.73268 520.00091 494.93411 532.26758 496.80078 L 543.33398 498.5332 C 548.66732 499.3332 551.86719 500.53372 551.86719 504.40039 C 551.86719 509.33372 547.06732 511.73438 539.33398 511.73438 C 530.13398 511.73438 522.93294 508.26706 517.59961 502.40039 L 506.5332 512.66602 C 512.1332 520.66602 523.99922 525.59961 539.19922 525.59961 C 559.59922 525.59961 571.19922 516.53424 571.19922 502.26758 C 571.19922 489.20091 561.46641 483.99948 549.06641 482.13281 L 538.13281 480.40039 C 532.79948 479.60039 529.59961 478.40039 529.59961 474.40039 C 529.59961 469.86706 533.59974 467.4668 541.06641 467.4668 C 549.99974 467.4668 556.5332 470.93398 560.5332 475.33398 L 570.40039 464.13281 C 564.66706 457.46615 555.19909 453.59961 541.73242 453.59961 z M 621.73242 453.59961 C 601.86576 453.59961 590.26758 462.26602 590.26758 476.66602 C 590.26758 489.73268 600.00091 494.93411 612.26758 496.80078 L 623.33398 498.5332 C 628.66732 499.3332 631.86719 500.53372 631.86719 504.40039 C 631.86719 509.33372 627.06732 511.73438 619.33398 511.73438 C 610.13398 511.73438 602.93294 508.26706 597.59961 502.40039 L 586.5332 512.66602 C 592.1332 520.66602 603.99922 525.59961 619.19922 525.59961 C 639.59922 525.59961 651.19922 516.53424 651.19922 502.26758 C 651.19922 489.20091 641.46641 483.99948 629.06641 482.13281 L 618.13281 480.40039 C 612.79948 479.60039 609.59961 478.40039 609.59961 474.40039 C 609.59961 469.86706 613.59974 467.4668 621.06641 467.4668 C 629.99974 467.4668 636.5332 470.93398 640.5332 475.33398 L 650.40039 464.13281 C 644.66706 457.46615 635.19909 453.59961 621.73242 453.59961 z M 699.59961 453.59961 C 689.59961 453.59961 685.59961 458.66602 685.59961 464.66602 L 685.59961 469.33398 C 685.59961 475.33398 689.59961 480.40039 699.59961 480.40039 C 709.59961 480.40039 713.59961 475.33398 713.59961 469.33398 L 713.59961 464.66602 C 713.59961 458.66602 709.59961 453.59961 699.59961 453.59961 z M 856.80078 453.59961 C 842.80078 453.59961 833.99987 460.2668 830.5332 467.4668 L 837.73242 472.80078 C 841.33242 466.53411 846.93281 462.66602 856.13281 462.66602 C 866.53281 462.66602 872.5332 467.86719 872.5332 477.86719 L 872.5332 484.66602 L 857.86719 484.66602 C 837.20052 484.66602 828.26758 491.99935 828.26758 504.66602 C 828.26758 517.59935 837.46719 525.59961 851.86719 525.59961 C 863.06719 525.59961 869.59987 520.66745 872.5332 512.80078 L 873.19922 512.80078 C 873.99922 519.20078 877.20013 524 885.4668 524 L 892.80078 524 L 892.80078 514.66602 L 883.19922 514.66602 L 883.19922 476.80078 C 883.19922 462.26745 872.93411 453.59961 856.80078 453.59961 z M 1100 453.59961 C 1081.3333 453.59961 1068.4004 467.73438 1068.4004 489.73438 C 1068.4004 511.46771 1080.9327 525.59961 1100.666 525.59961 C 1114.266 525.59961 1124.1342 518.93437 1128.2676 509.73438 L 1120.4004 504.40039 C 1116.8004 511.86706 1109.866 516.40039 1100.666 516.40039 C 1087.7327 516.40039 1079.5996 507.60013 1079.5996 495.4668 L 1079.5996 492.26758 L 1130.5332 492.26758 L 1130.5332 487.19922 C 1130.5332 467.73255 1118.5333 453.59961 1100 453.59961 z M 1256.666 453.59961 C 1242.666 453.59961 1233.8671 460.2668 1230.4004 467.4668 L 1237.5996 472.80078 C 1241.1996 466.53411 1246.8 462.66602 1256 462.66602 C 1266.4 462.66602 1272.4004 467.86719 1272.4004 477.86719 L 1272.4004 484.66602 L 1257.7324 484.66602 C 1237.0658 484.66602 1228.1328 491.99935 1228.1328 504.66602 C 1228.1328 517.59935 1237.3324 525.59961 1251.7324 525.59961 C 1262.9324 525.59961 1269.4671 520.66745 1272.4004 512.80078 L 1273.0664 512.80078 C 1273.8664 519.20078 1277.0673 524 1285.334 524 L 1292.666 524 L 1292.666 514.66602 L 1283.0664 514.66602 L 1283.0664 476.80078 C 1283.0664 462.26745 1272.7993 453.59961 1256.666 453.59961 z M 1421.4668 453.59961 C 1402.0001 453.59961 1390.4004 467.73294 1390.4004 489.59961 C 1390.4004 511.33294 1401.8663 525.59961 1421.5996 525.59961 C 1435.3329 525.59961 1444 518.79961 1448 509.59961 L 1440.4004 504.40039 C 1436.9337 511.86706 1430.9324 516.40039 1421.7324 516.40039 C 1408.7991 516.40039 1401.8672 507.60013 1401.8672 495.4668 L 1401.8672 483.73438 C 1401.8672 471.60104 1408.9335 462.80078 1421.4668 462.80078 C 1430.0001 462.80078 1435.8671 466.93333 1438.4004 474 L 1446.9336 469.4668 C 1443.0669 460.13346 1434.8001 453.59961 1421.4668 453.59961 z M 1496.5332 453.59961 C 1482.5332 453.59961 1473.7342 460.2668 1470.2676 467.4668 L 1477.4668 472.80078 C 1481.0668 466.53411 1486.6672 462.66602 1495.8672 462.66602 C 1506.2672 462.66602 1512.2676 467.86719 1512.2676 477.86719 L 1512.2676 484.66602 L 1497.5996 484.66602 C 1476.9329 484.66602 1468 491.99935 1468 504.66602 C 1468 517.59935 1477.1996 525.59961 1491.5996 525.59961 C 1502.7996 525.59961 1509.3342 520.66745 1512.2676 512.80078 L 1512.9336 512.80078 C 1513.7336 519.20078 1516.9326 524 1525.1992 524 L 1532.5332 524 L 1532.5332 514.66602 L 1522.9336 514.66602 L 1522.9336 476.80078 C 1522.9336 462.26745 1512.6665 453.59961 1496.5332 453.59961 z M 1583.0664 453.59961 C 1571.7331 453.59961 1566.4001 459.60039 1563.4668 466.40039 L 1562.9336 466.40039 L 1562.9336 455.19922 L 1552.2676 455.19922 L 1552.2676 524 L 1562.9336 524 L 1562.9336 476.26758 C 1562.9336 467.20091 1571.4667 463.06641 1580 463.06641 C 1590.5333 463.06641 1596.2676 469.20104 1596.2676 481.73438 L 1596.2676 524 L 1606.9336 524 L 1606.9336 479.86719 C 1606.9336 463.20052 1597.4664 453.59961 1583.0664 453.59961 z M 1659.7324 453.59961 C 1643.7324 453.59961 1632 460.39948 1632 474.13281 C 1632 489.06615 1645.8663 491.73255 1655.5996 493.19922 L 1666.4004 494.80078 C 1672.6671 495.73411 1678.5332 497.60078 1678.5332 504.80078 C 1678.5332 512.93411 1670.9342 516.66602 1660.2676 516.66602 C 1649.3342 516.66602 1641.8673 512.80052 1635.334 505.86719 L 1628.1328 512.13281 C 1635.3328 520.26615 1645.6 525.59961 1660 525.59961 C 1677.6 525.59961 1689.0664 517.73281 1689.0664 504.13281 C 1689.0664 489.19948 1675.3335 486.53307 1665.4668 485.06641 L 1654.666 483.4668 C 1648.5327 482.53346 1642.5332 480.6668 1642.5332 473.4668 C 1642.5332 466.40013 1648.534 462.5332 1659.334 462.5332 C 1671.4673 462.5332 1677.6008 467.33255 1680.8008 471.19922 L 1687.7324 464.66602 C 1681.1991 457.73268 1672.1324 453.59961 1659.7324 453.59961 z M 1818.9336 453.59961 C 1799.6003 453.59961 1787.7324 467.73294 1787.7324 489.59961 C 1787.7324 511.46628 1799.6003 525.59961 1818.9336 525.59961 C 1838.2669 525.59961 1850.1328 511.46628 1850.1328 489.59961 C 1850.1328 467.73294 1838.2669 453.59961 1818.9336 453.59961 z M 2059.334 453.59961 C 2043.334 453.59961 2031.5996 460.39948 2031.5996 474.13281 C 2031.5996 489.06615 2045.4659 491.73255 2055.1992 493.19922 L 2066 494.80078 C 2072.2667 495.73411 2078.1328 497.60078 2078.1328 504.80078 C 2078.1328 512.93411 2070.5339 516.66602 2059.8672 516.66602 C 2048.9339 516.66602 2041.4669 512.80052 2034.9336 505.86719 L 2027.7324 512.13281 C 2034.9324 520.26615 2045.1996 525.59961 2059.5996 525.59961 C 2077.1996 525.59961 2088.666 517.73281 2088.666 504.13281 C 2088.666 489.19948 2074.9331 486.53307 2065.0664 485.06641 L 2054.2676 483.4668 C 2048.1342 482.53346 2042.1328 480.6668 2042.1328 473.4668 C 2042.1328 466.40013 2048.1336 462.5332 2058.9336 462.5332 C 2071.0669 462.5332 2077.2004 467.33255 2080.4004 471.19922 L 2087.334 464.66602 C 2080.8007 457.73268 2071.734 453.59961 2059.334 453.59961 z M 2138.8008 453.59961 C 2119.4674 453.59961 2107.5996 467.73294 2107.5996 489.59961 C 2107.5996 511.46628 2119.4674 525.59961 2138.8008 525.59961 C 2158.1341 525.59961 2170 511.46628 2170 489.59961 C 2170 467.73294 2158.1341 453.59961 2138.8008 453.59961 z M 2303.8672 453.59961 C 2294.2672 453.59961 2287.066 458.00039 2282.666 466.40039 L 2282.1328 466.40039 L 2282.1328 455.19922 L 2271.4668 455.19922 L 2271.4668 550.66602 L 2282.1328 550.66602 L 2282.1328 512.80078 L 2282.666 512.80078 C 2287.066 521.20078 2294.2672 525.59961 2303.8672 525.59961 C 2320.6672 525.59961 2330.8008 512.13294 2330.8008 489.59961 C 2330.8008 467.06628 2320.6672 453.59961 2303.8672 453.59961 z M 349.86719 455.19922 L 349.86719 470.5332 L 365.73242 470.5332 L 365.73242 508.66602 L 349.86719 508.66602 L 349.86719 524 L 408.13281 524 L 408.13281 508.66602 L 385.4668 508.66602 L 385.4668 488.26758 C 385.4668 480.00091 390.53425 473.33398 400.26758 473.33398 L 414.93359 473.33398 L 414.93359 455.19922 L 408.40039 455.19922 C 394.80039 455.19922 388.93372 464.53268 386.40039 474.66602 L 385.4668 474.66602 L 385.4668 455.19922 L 349.86719 455.19922 z M 2191.0664 455.19922 L 2191.0664 499.33398 C 2191.0664 516.00065 2200.5336 525.59961 2214.9336 525.59961 C 2226.2669 525.59961 2231.5999 519.60078 2234.5332 512.80078 L 2235.0664 512.80078 L 2235.0664 524 L 2245.7324 524 L 2245.7324 455.19922 L 2235.0664 455.19922 L 2235.0664 502.93359 C 2235.0664 512.00026 2226.5333 516.13281 2218 516.13281 C 2207.4667 516.13281 2201.7324 510.00013 2201.7324 497.4668 L 2201.7324 455.19922 L 2191.0664 455.19922 z M 1100 462.40039 C 1111.3333 462.40039 1119.0664 470.66745 1119.0664 482.80078 L 1119.0664 484.26758 L 1079.5996 484.26758 L 1079.5996 483.33398 C 1079.5996 471.33398 1088.2667 462.40039 1100 462.40039 z M 1818.9336 462.80078 C 1830.8003 462.80078 1838.8008 469.86602 1838.8008 484.66602 L 1838.8008 494.5332 C 1838.8008 509.3332 1830.8003 516.40039 1818.9336 516.40039 C 1807.0669 516.40039 1799.0664 509.3332 1799.0664 494.5332 L 1799.0664 484.66602 C 1799.0664 469.86602 1807.0669 462.80078 1818.9336 462.80078 z M 2138.8008 462.80078 C 2150.6674 462.80078 2158.666 469.86602 2158.666 484.66602 L 2158.666 494.5332 C 2158.666 509.3332 2150.6674 516.40039 2138.8008 516.40039 C 2126.9341 516.40039 2118.9336 509.3332 2118.9336 494.5332 L 2118.9336 484.66602 C 2118.9336 469.86602 2126.9341 462.80078 2138.8008 462.80078 z M 940.40039 463.06641 C 952.80039 463.06641 960 471.33438 960 483.73438 L 960 495.4668 C 960 507.8668 952.80039 516.13281 940.40039 516.13281 C 930.93372 516.13281 922.80078 511.2 922.80078 502 L 922.80078 477.19922 C 922.80078 467.99922 930.93372 463.06641 940.40039 463.06641 z M 2299.7324 463.06641 C 2312.1324 463.06641 2319.334 471.33438 2319.334 483.73438 L 2319.334 495.4668 C 2319.334 507.8668 2312.1324 516.13281 2299.7324 516.13281 C 2290.2658 516.13281 2282.1328 511.2 2282.1328 502 L 2282.1328 477.19922 C 2282.1328 467.99922 2290.2658 463.06641 2299.7324 463.06641 z M 460.26758 467.73438 C 468.80091 467.73438 474 473.33425 474 482.26758 L 474 483.33398 L 446.26758 483.33398 L 446.26758 482.26758 C 446.26758 473.46758 451.73425 467.73438 460.26758 467.73438 z M 219.59961 468.93359 C 226.53294 468.93359 232.40039 472.2668 232.40039 479.4668 L 232.40039 499.73438 C 232.40039 506.93437 226.53294 510.26758 219.59961 510.26758 C 210.79961 510.26758 205.73242 504.53359 205.73242 494.93359 L 205.73242 484.26758 C 205.73242 474.66758 210.79961 468.93359 219.59961 468.93359 z M 299.59961 468.93359 C 306.53294 468.93359 312.40039 472.2668 312.40039 479.4668 L 312.40039 499.73438 C 312.40039 506.93437 306.53294 510.26758 299.59961 510.26758 C 290.79961 510.26758 285.73242 504.53359 285.73242 494.93359 L 285.73242 484.26758 C 285.73242 474.66758 290.79961 468.93359 299.59961 468.93359 z M 857.86719 492.66602 L 872.5332 492.66602 L 872.5332 504 C 872.5332 511.06667 864.66575 516.66602 853.73242 516.66602 C 844.93242 516.66602 839.4668 512.93385 839.4668 505.86719 L 839.4668 503.06641 C 839.4668 496.39974 845.20052 492.66602 857.86719 492.66602 z M 1257.7324 492.66602 L 1272.4004 492.66602 L 1272.4004 504 C 1272.4004 511.06667 1264.5329 516.66602 1253.5996 516.66602 C 1244.7996 516.66602 1239.334 512.93385 1239.334 505.86719 L 1239.334 503.06641 C 1239.334 496.39974 1245.0658 492.66602 1257.7324 492.66602 z M 1497.5996 492.66602 L 1512.2676 492.66602 L 1512.2676 504 C 1512.2676 511.06667 1504.4001 516.66602 1493.4668 516.66602 C 1484.6668 516.66602 1479.1992 512.93385 1479.1992 505.86719 L 1479.1992 503.06641 C 1479.1992 496.39974 1484.9329 492.66602 1497.5996 492.66602 z M 699.59961 498.80078 C 689.59961 498.80078 685.59961 503.86719 685.59961 509.86719 L 685.59961 514.5332 C 685.59961 520.5332 689.59961 525.59961 699.59961 525.59961 C 709.59961 525.59961 713.59961 520.5332 713.59961 514.5332 L 713.59961 509.86719 C 713.59961 503.86719 709.59961 498.80078 699.59961 498.80078 z M 2065.8672 810.93359 C 2060.5339 810.93359 2057.7331 813.33398 2057.0664 817.33398 C 2056.7997 818.93398 2056.5332 820.13255 2056.5332 821.19922 C 2056.5332 823.99922 2058.5342 826.5332 2064.2676 826.5332 C 2069.6009 826.5332 2072.3997 824.13281 2073.0664 820.13281 C 2073.3331 818.53281 2073.5996 817.33424 2073.5996 816.26758 C 2073.5996 813.46758 2071.6005 810.93359 2065.8672 810.93359 z M 1003.0664 812 L 986.5332 910.66602 L 996.93359 910.66602 L 998.93359 898.66602 L 999.33398 898.66602 C 1002.2673 907.59935 1009.3335 912.26758 1019.4668 912.26758 C 1043.7335 912.26758 1052 885.33359 1052 866.93359 C 1052 849.33359 1044.3999 840.26758 1030.5332 840.26758 C 1018.3999 840.26758 1011.4661 847.33281 1006.1328 858.13281 L 1005.7324 858.13281 L 1013.4668 812 L 1003.0664 812 z M 1686.666 812 L 1679.5996 853.86719 L 1679.1992 853.86719 C 1676.2659 844.93385 1669.1997 840.26758 1659.0664 840.26758 C 1634.7997 840.26758 1626.5332 867.19961 1626.5332 885.59961 C 1626.5332 903.19961 1634.1333 912.26758 1648 912.26758 C 1660.1333 912.26758 1667.0671 905.20039 1672.4004 894.40039 L 1672.8008 894.40039 L 1670.1328 910.66602 L 1680.5332 910.66602 L 1697.0664 812 L 1686.666 812 z M 2114.666 812 L 2113.1992 820.93359 L 2137.4668 820.93359 L 2122.5332 898.5332 C 2122.2665 899.7332 2122.1328 901.60078 2122.1328 902.80078 C 2122.1328 908.26745 2124.9328 912.26758 2132.1328 912.26758 C 2137.4661 912.26758 2142.2659 910.00091 2155.1992 898.26758 L 2169.0664 885.73242 L 2163.0664 879.86719 L 2135.7324 903.06641 L 2132.4004 902 L 2149.7324 812 L 2114.666 812 z M 121.06641 817.59961 L 119.59961 826.40039 L 142.93359 826.40039 L 130.26758 901.86719 L 106.93359 901.86719 L 105.4668 910.66602 L 163.06641 910.66602 L 164.5332 901.86719 L 141.19922 901.86719 L 153.86719 826.40039 L 177.19922 826.40039 L 178.66602 817.59961 L 121.06641 817.59961 z M 696.26758 817.59961 L 693.19922 835.59961 C 692.39922 840.26628 690.26576 841.86719 685.73242 841.86719 L 671.73242 841.86719 L 670.26758 850.80078 L 690.13281 850.80078 L 682.13281 897.19922 C 681.86615 898.66589 681.73242 901.20039 681.73242 902.40039 C 681.73242 908.80039 685.33294 912.26758 691.59961 912.26758 C 697.06628 912.26758 702.40078 909.46602 714.80078 900.66602 L 729.86719 890 L 724.66602 883.33398 L 694.66602 903.33398 L 692 901.73242 L 700.5332 850.80078 L 728.93359 850.80078 L 730.40039 841.86719 L 702 841.86719 L 706.13281 817.59961 L 696.26758 817.59961 z M 299.86719 840.26758 C 275.60052 840.26758 267.33398 867.19961 267.33398 885.59961 C 267.33398 903.19961 274.93411 912.26758 288.80078 912.26758 C 300.93411 912.26758 307.86589 905.20039 313.19922 894.40039 L 313.59961 894.40039 L 310.93359 910.66602 L 321.33398 910.66602 L 332.80078 841.86719 L 322.40039 841.86719 L 320.40039 853.86719 L 320 853.86719 C 317.06667 844.93385 310.00052 840.26758 299.86719 840.26758 z M 376.26758 840.26758 C 368.66758 840.26758 364.53398 845.73268 361.33398 852.66602 L 360.80078 852.66602 L 362.5332 841.86719 L 352.93359 841.86719 L 341.4668 910.66602 L 351.06641 910.66602 L 358.5332 866.13281 C 359.19987 862.13281 360.80065 857.73281 363.33398 854.13281 C 365.46732 851.06615 368.53424 848.80078 372.26758 848.80078 C 376.00091 848.80078 377.86719 851.06602 377.86719 856.66602 C 377.86719 858.79935 377.59974 861.3332 377.06641 864.5332 L 369.33398 910.66602 L 378.93359 910.66602 L 386.40039 866.13281 C 387.06706 862.13281 388.66589 857.59948 391.19922 854.13281 C 393.46589 851.06615 396.13385 848.80078 399.86719 848.80078 C 403.86719 848.80078 405.73242 851.33424 405.73242 856.26758 C 405.73242 858.13424 405.33411 861.3332 404.80078 864.5332 L 397.06641 910.66602 L 406.66602 910.66602 L 414.66602 862.80078 C 415.19935 859.60078 415.59961 856.00013 415.59961 853.4668 C 415.59961 845.0668 411.46719 840.26758 403.86719 840.26758 C 395.86719 840.26758 390.66589 845.46732 387.19922 853.33398 L 386.80078 853.33398 C 387.33411 845.86732 384.00091 840.26758 376.26758 840.26758 z M 550.26758 840.26758 C 539.20091 840.26758 532.40065 847.19948 527.33398 858.13281 L 526.80078 858.13281 L 529.4668 841.86719 L 519.06641 841.86719 L 507.59961 910.66602 L 518 910.66602 L 524.40039 872.66602 C 525.73372 864.79935 530.80091 858.66693 532.26758 856.93359 C 536.13424 852.40026 540.80078 849.4668 546.80078 849.4668 C 554.53411 849.4668 558.26758 854.53268 558.26758 862.66602 C 558.26758 864.13268 558.13294 866.8 557.59961 870 L 550.80078 910.66602 L 561.19922 910.66602 L 568.13281 869.06641 C 568.66615 865.99974 568.93359 862.79948 568.93359 860.13281 C 568.93359 847.59948 561.73424 840.26758 550.26758 840.26758 z M 624.26758 840.26758 C 604.13425 840.26758 588.26758 856.93255 588.26758 883.19922 C 588.26758 900.39922 597.46641 912.26758 615.06641 912.26758 C 635.33307 912.26758 651.19922 895.60065 651.19922 869.33398 C 651.19922 852.13398 642.13424 840.26758 624.26758 840.26758 z M 867.06641 840.26758 C 844.93307 840.26758 829.19922 857.86745 829.19922 882.80078 C 829.19922 902.53411 839.06706 912.26758 856.40039 912.26758 C 870.93372 912.26758 880.26667 905.33268 888 892.66602 L 880.66602 888.13281 C 872.93268 899.06615 867.20065 903.33398 857.33398 903.33398 C 842.93398 903.33398 840.13281 894.40078 840.13281 884.80078 C 840.13281 884.53411 840.13424 883.06576 840.26758 881.73242 C 884.13424 880.53242 890.40039 868.53411 890.40039 858.80078 C 890.40039 846.80078 880.53307 840.26758 867.06641 840.26758 z M 935.86719 840.26758 C 928.26719 840.26758 924.13359 845.73268 920.93359 852.66602 L 920.40039 852.66602 L 922.13281 841.86719 L 912.5332 841.86719 L 901.06641 910.66602 L 910.66602 910.66602 L 918.13281 866.13281 C 918.79948 862.13281 920.40026 857.73281 922.93359 854.13281 C 925.06693 851.06615 928.13385 848.80078 931.86719 848.80078 C 935.60052 848.80078 937.4668 851.06602 937.4668 856.66602 C 937.4668 858.79935 937.19935 861.3332 936.66602 864.5332 L 928.93359 910.66602 L 938.5332 910.66602 L 946 866.13281 C 946.66667 862.13281 948.26745 857.59948 950.80078 854.13281 C 953.06745 851.06615 955.73346 848.80078 959.4668 848.80078 C 963.4668 848.80078 965.33398 851.33424 965.33398 856.26758 C 965.33398 858.13424 964.93372 861.3332 964.40039 864.5332 L 956.66602 910.66602 L 966.26758 910.66602 L 974.26758 862.80078 C 974.80091 859.60078 975.19922 856.00013 975.19922 853.4668 C 975.19922 845.0668 971.0668 840.26758 963.4668 840.26758 C 955.4668 840.26758 950.26745 845.46732 946.80078 853.33398 L 946.40039 853.33398 C 946.93372 845.86732 943.60052 840.26758 935.86719 840.26758 z M 1099.4668 840.26758 C 1075.2001 840.26758 1066.9336 867.19961 1066.9336 885.59961 C 1066.9336 903.19961 1074.5337 912.26758 1088.4004 912.26758 C 1100.5337 912.26758 1107.4674 905.20039 1112.8008 894.40039 L 1113.1992 894.40039 L 1110.5332 910.66602 L 1120.9336 910.66602 L 1132.4004 841.86719 L 1122 841.86719 L 1120 853.86719 L 1119.5996 853.86719 C 1116.6663 844.93385 1109.6001 840.26758 1099.4668 840.26758 z M 1339.4668 840.26758 C 1315.2001 840.26758 1306.9336 867.19961 1306.9336 885.59961 C 1306.9336 903.19961 1314.5337 912.26758 1328.4004 912.26758 C 1340.5338 912.26758 1347.4674 905.20039 1352.8008 894.40039 L 1353.1992 894.40039 L 1350.5332 910.66602 L 1360.9336 910.66602 L 1372.4004 841.86719 L 1362 841.86719 L 1360 853.86719 L 1359.5996 853.86719 C 1356.6663 844.93385 1349.6001 840.26758 1339.4668 840.26758 z M 1424.8008 840.26758 C 1408.5341 840.26758 1395.334 847.59948 1395.334 862.13281 C 1395.334 874.93281 1405.7324 878.26576 1415.7324 879.73242 L 1425.7324 881.19922 C 1431.3324 881.99922 1435.7324 883.86758 1435.7324 890.26758 C 1435.7324 898.53424 1428.2661 903.4668 1416.1328 903.4668 C 1405.7328 903.4668 1398.9329 899.86589 1393.5996 893.19922 L 1385.8672 899.33398 C 1391.8672 907.60065 1401.8659 912.26758 1415.1992 912.26758 C 1433.5992 912.26758 1446 903.46589 1446 889.19922 C 1446 875.59922 1434.6672 873.46667 1425.8672 872 L 1416.1328 870.40039 C 1410.5328 869.46706 1405.4668 868.00065 1405.4668 861.33398 C 1405.4668 853.86732 1411.7329 849.06641 1423.5996 849.06641 C 1435.1996 849.06641 1440.7992 853.59922 1443.1992 857.19922 L 1450.5332 850.80078 C 1445.3332 844.26745 1436.8008 840.26758 1424.8008 840.26758 z M 1504.4004 840.26758 C 1488.1337 840.26758 1474.9336 847.59948 1474.9336 862.13281 C 1474.9336 874.93281 1485.334 878.26576 1495.334 879.73242 L 1505.334 881.19922 C 1510.934 881.99922 1515.334 883.86758 1515.334 890.26758 C 1515.334 898.53424 1507.8658 903.4668 1495.7324 903.4668 C 1485.3324 903.4668 1478.5326 899.86589 1473.1992 893.19922 L 1465.4668 899.33398 C 1471.4668 907.60065 1481.4674 912.26758 1494.8008 912.26758 C 1513.2008 912.26758 1525.5996 903.46589 1525.5996 889.19922 C 1525.5996 875.59922 1514.2668 873.46667 1505.4668 872 L 1495.7324 870.40039 C 1490.1324 869.46706 1485.0664 868.00065 1485.0664 861.33398 C 1485.0664 853.86732 1491.3326 849.06641 1503.1992 849.06641 C 1514.7992 849.06641 1520.4008 853.59922 1522.8008 857.19922 L 1530.1328 850.80078 C 1524.9328 844.26745 1516.4004 840.26758 1504.4004 840.26758 z M 1586.666 840.26758 C 1564.5327 840.26758 1548.8008 857.86745 1548.8008 882.80078 C 1548.8008 902.53411 1558.6667 912.26758 1576 912.26758 C 1590.5333 912.26758 1599.8663 905.33268 1607.5996 892.66602 L 1600.2656 888.13281 C 1592.5323 899.06615 1586.8003 903.33398 1576.9336 903.33398 C 1562.5336 903.33398 1559.7324 894.40078 1559.7324 884.80078 C 1559.7324 884.53411 1559.7339 883.06576 1559.8672 881.73242 C 1603.7339 880.53242 1610 868.53411 1610 858.80078 C 1610 846.80078 1600.1327 840.26758 1586.666 840.26758 z M 1826.5332 840.26758 C 1804.3999 840.26758 1788.666 857.86745 1788.666 882.80078 C 1788.666 902.53411 1798.5339 912.26758 1815.8672 912.26758 C 1830.4005 912.26758 1839.7335 905.33268 1847.4668 892.66602 L 1840.1328 888.13281 C 1832.3995 899.06615 1826.6674 903.33398 1816.8008 903.33398 C 1802.4008 903.33398 1799.5996 894.40078 1799.5996 884.80078 C 1799.5996 884.53411 1799.5991 883.06576 1799.7324 881.73242 C 1843.5991 880.53242 1849.8672 868.53411 1849.8672 858.80078 C 1849.8672 846.80078 1839.9999 840.26758 1826.5332 840.26758 z M 1898.9336 840.26758 C 1874.6669 840.26758 1866.4004 867.19961 1866.4004 885.59961 C 1866.4004 903.19961 1874.0005 912.26758 1887.8672 912.26758 C 1900.0005 912.26758 1906.9342 905.20039 1912.2676 894.40039 L 1912.666 894.40039 L 1910 910.66602 L 1920.4004 910.66602 L 1931.8672 841.86719 L 1921.4668 841.86719 L 1919.4668 853.86719 L 1919.0664 853.86719 C 1916.1331 844.93385 1909.0669 840.26758 1898.9336 840.26758 z M 1984.2676 840.26758 C 1968.0009 840.26758 1954.8008 847.59948 1954.8008 862.13281 C 1954.8008 874.93281 1965.1992 878.26576 1975.1992 879.73242 L 1985.1992 881.19922 C 1990.7992 881.99922 1995.1992 883.86758 1995.1992 890.26758 C 1995.1992 898.53424 1987.7329 903.4668 1975.5996 903.4668 C 1965.1996 903.4668 1958.3997 899.86589 1953.0664 893.19922 L 1945.334 899.33398 C 1951.334 907.60065 1961.3327 912.26758 1974.666 912.26758 C 1993.066 912.26758 2005.4668 903.46589 2005.4668 889.19922 C 2005.4668 875.59922 1994.134 873.46667 1985.334 872 L 1975.5996 870.40039 C 1969.9996 869.46706 1964.9336 868.00065 1964.9336 861.33398 C 1964.9336 853.86732 1971.1997 849.06641 1983.0664 849.06641 C 1994.6664 849.06641 2000.266 853.59922 2002.666 857.19922 L 2010 850.80078 C 2004.8 844.26745 1996.2676 840.26758 1984.2676 840.26758 z M 1155.334 841.86719 L 1153.8672 850.80078 L 1173.1992 850.80078 L 1163.1992 910.66602 L 1173.5996 910.66602 L 1179.5996 874.80078 C 1180.9329 866.80078 1185.7335 861.19922 1187.4668 859.19922 C 1191.6001 854.39922 1196.5332 852.26758 1204.5332 852.26758 L 1216.2676 852.26758 L 1218 841.86719 L 1207.5996 841.86719 C 1194.3996 841.86719 1187.466 849.33425 1182.666 860.26758 L 1182 860.26758 L 1185.0664 841.86719 L 1155.334 841.86719 z M 1235.334 841.86719 L 1233.8672 850.80078 L 1253.1992 850.80078 L 1243.1992 910.66602 L 1253.5996 910.66602 L 1259.5996 874.80078 C 1260.9329 866.80078 1265.7335 861.19922 1267.4668 859.19922 C 1271.6001 854.39922 1276.5332 852.26758 1284.5332 852.26758 L 1296.2676 852.26758 L 1298 841.86719 L 1287.5996 841.86719 C 1274.3996 841.86719 1267.466 849.33425 1262.666 860.26758 L 1262 860.26758 L 1265.0664 841.86719 L 1235.334 841.86719 z M 2031.334 841.86719 L 2029.8672 850.80078 L 2054.666 850.80078 L 2045.5996 897.73242 C 2045.3329 899.33242 2044.9336 901.33307 2044.9336 903.06641 C 2044.9336 908.39974 2048.5326 912.26758 2055.1992 912.26758 C 2061.1992 912.26758 2066.1327 909.0668 2078.666 897.4668 L 2090.8008 886.26758 L 2084.5332 880.40039 L 2058.2676 903.06641 L 2055.1992 901.86719 L 2066.8008 841.86719 L 2031.334 841.86719 z M 2197.7324 841.86719 L 2191.0664 881.86719 C 2190.5331 885.46719 2190.2676 888.00039 2190.2676 890.40039 C 2190.2676 902.93372 2197.5997 910.26758 2209.0664 910.26758 C 2220.1331 910.26758 2227.0661 903.33372 2232.1328 892.40039 L 2232.5332 892.40039 L 2229.8672 908.66602 C 2227.4672 923.59935 2220.0007 929.73242 2207.334 929.73242 C 2198.934 929.73242 2193.3324 927.06654 2189.7324 922.5332 L 2182.5332 929.4668 C 2187.4665 935.60013 2195.5993 938.93359 2206.666 938.93359 C 2223.866 938.93359 2236.4005 930.93268 2239.8672 910.66602 L 2251.334 841.86719 L 2240.9336 841.86719 L 2234.9336 877.86719 C 2233.6003 885.73385 2228.5331 891.86628 2227.0664 893.59961 C 2223.1997 898.13294 2218.5332 901.06641 2212.5332 901.06641 C 2204.7999 901.06641 2200.9336 896.00052 2200.9336 887.86719 C 2200.9336 886.40052 2201.0663 884.00026 2201.5996 880.93359 L 2208.1328 841.86719 L 2197.7324 841.86719 z M 866.13281 848.93359 C 876.13281 848.93359 879.73242 853.59922 879.73242 859.19922 C 879.73242 865.86589 874.66641 873.46654 841.06641 874.5332 L 841.19922 873.19922 C 843.19922 857.59922 852.26615 848.93359 866.13281 848.93359 z M 1585.7324 848.93359 C 1595.7324 848.93359 1599.334 853.59922 1599.334 859.19922 C 1599.334 865.86589 1594.266 873.46654 1560.666 874.5332 L 1560.8008 873.19922 C 1562.8008 857.59922 1571.8658 848.93359 1585.7324 848.93359 z M 1825.5996 848.93359 C 1835.5996 848.93359 1839.1992 853.59922 1839.1992 859.19922 C 1839.1992 865.86589 1834.1332 873.46654 1800.5332 874.5332 L 1800.666 873.19922 C 1802.666 857.59922 1811.7329 848.93359 1825.5996 848.93359 z M 623.86719 849.33398 C 634.13385 849.33398 640.66602 854.66758 640.66602 866.26758 C 640.66602 867.86758 640.53333 869.86641 640 873.06641 L 638.66602 881.06641 C 636.39935 894.66641 628.53294 903.19922 615.59961 903.19922 C 605.33294 903.19922 598.80078 897.86758 598.80078 886.26758 C 598.80078 884.66758 598.93346 882.6668 599.4668 879.4668 L 600.80078 871.4668 C 603.06745 857.8668 610.93385 849.33398 623.86719 849.33398 z M 302.93359 849.4668 C 313.20026 849.4668 320.26602 854.9332 318.66602 864.5332 L 316.13281 879.73242 C 315.06615 886.13242 311.99987 891.60013 308.5332 895.4668 C 303.7332 900.80013 298.13372 903.06641 292.40039 903.06641 C 282.80039 903.06641 277.86719 896.93268 277.86719 886.66602 C 277.86719 884.93268 278.00039 883.06602 278.40039 880.66602 L 280 871.06641 C 282.13333 858.26641 289.73359 849.4668 302.93359 849.4668 z M 1026.9336 849.4668 C 1036.5336 849.4668 1041.4668 855.60052 1041.4668 865.86719 C 1041.4668 867.60052 1041.3336 869.46719 1040.9336 871.86719 L 1039.334 881.4668 C 1037.2007 894.2668 1029.4676 903.06641 1016.2676 903.06641 C 1006.0009 903.06641 999.06602 897.6 1000.666 888 L 1003.1992 872.80078 C 1004.2659 866.40078 1007.3341 860.93307 1010.8008 857.06641 C 1015.6008 851.73307 1021.2003 849.4668 1026.9336 849.4668 z M 1102.5332 849.4668 C 1112.7999 849.4668 1119.8676 854.9332 1118.2676 864.5332 L 1115.7324 879.73242 C 1114.6658 886.13242 1111.5995 891.60013 1108.1328 895.4668 C 1103.3328 900.80013 1097.7333 903.06641 1092 903.06641 C 1082.4 903.06641 1077.4668 896.93268 1077.4668 886.66602 C 1077.4668 884.93268 1077.6 883.06602 1078 880.66602 L 1079.5996 871.06641 C 1081.7329 858.26641 1089.3332 849.4668 1102.5332 849.4668 z M 1342.5332 849.4668 C 1352.7999 849.4668 1359.8676 854.9332 1358.2676 864.5332 L 1355.7324 879.73242 C 1354.6658 886.13242 1351.5995 891.60013 1348.1328 895.4668 C 1343.3328 900.80013 1337.7334 903.06641 1332 903.06641 C 1322.4 903.06641 1317.4668 896.93268 1317.4668 886.66602 C 1317.4668 884.93268 1317.6 883.06602 1318 880.66602 L 1319.5996 871.06641 C 1321.7329 858.26641 1329.3332 849.4668 1342.5332 849.4668 z M 1662.1328 849.4668 C 1672.3995 849.4668 1679.4672 854.9332 1677.8672 864.5332 L 1675.334 879.73242 C 1674.2673 886.13242 1671.1991 891.60013 1667.7324 895.4668 C 1662.9324 900.80013 1657.3329 903.06641 1651.5996 903.06641 C 1641.9996 903.06641 1637.0664 896.93268 1637.0664 886.66602 C 1637.0664 884.93268 1637.1996 883.06602 1637.5996 880.66602 L 1639.1992 871.06641 C 1641.3326 858.26641 1648.9328 849.4668 1662.1328 849.4668 z M 1902 849.4668 C 1912.2667 849.4668 1919.3324 854.9332 1917.7324 864.5332 L 1915.1992 879.73242 C 1914.1326 886.13242 1911.0663 891.60013 1907.5996 895.4668 C 1902.7996 900.80013 1897.2001 903.06641 1891.4668 903.06641 C 1881.8668 903.06641 1876.9336 896.93268 1876.9336 886.66602 C 1876.9336 884.93268 1877.0668 883.06602 1877.4668 880.66602 L 1879.0664 871.06641 C 1881.1997 858.26641 1888.8 849.4668 1902 849.4668 z M 2295.4668 893.73242 C 2288.6668 893.73242 2285.466 896.79961 2284.666 901.59961 C 2284.3993 903.19961 2284.1328 904.80052 2284.1328 905.86719 C 2284.1328 909.20052 2286.5341 911.86719 2292.8008 911.86719 C 2299.6008 911.86719 2302.7996 908.8 2303.5996 904 C 2303.8663 902.4 2304.1328 900.79909 2304.1328 899.73242 C 2304.1328 896.39909 2301.7335 893.73242 2295.4668 893.73242 z M 386.80078 1144.2676 C 381.46745 1144.2676 378.66667 1146.666 378 1150.666 C 377.73333 1152.266 377.4668 1153.4665 377.4668 1154.5332 C 377.4668 1157.3332 379.46589 1159.8672 385.19922 1159.8672 C 390.53255 1159.8672 393.33333 1157.4668 394 1153.4668 C 394.26667 1151.8668 394.5332 1150.6663 394.5332 1149.5996 C 394.5332 1146.7996 392.53411 1144.2676 386.80078 1144.2676 z M 626.80078 1144.2676 C 621.46745 1144.2676 618.66667 1146.666 618 1150.666 C 617.73333 1152.266 617.4668 1153.4665 617.4668 1154.5332 C 617.4668 1157.3332 619.46589 1159.8672 625.19922 1159.8672 C 630.53255 1159.8672 633.33333 1157.4668 634 1153.4668 C 634.26667 1151.8668 634.5332 1150.6663 634.5332 1149.5996 C 634.5332 1146.7996 632.53411 1144.2676 626.80078 1144.2676 z M 327.4668 1145.334 L 320.40039 1187.1992 L 320 1187.1992 C 317.06667 1178.2659 310.00052 1173.5996 299.86719 1173.5996 C 275.60052 1173.5996 267.33398 1200.5336 267.33398 1218.9336 C 267.33398 1236.5336 274.93411 1245.5996 288.80078 1245.5996 C 300.93411 1245.5996 307.86589 1238.5324 313.19922 1227.7324 L 313.59961 1227.7324 L 310.93359 1244 L 321.33398 1244 L 337.86719 1145.334 L 327.4668 1145.334 z M 515.59961 1145.334 L 514.13281 1154.2676 L 538.40039 1154.2676 L 523.4668 1231.8672 C 523.20013 1233.0672 523.06641 1234.9328 523.06641 1236.1328 C 523.06641 1241.5995 525.86641 1245.5996 533.06641 1245.5996 C 538.39974 1245.5996 543.19948 1243.3329 556.13281 1231.5996 L 570 1219.0664 L 564 1213.1992 L 536.66602 1236.4004 L 533.33398 1235.334 L 550.66602 1145.334 L 515.59961 1145.334 z M 684.26758 1145.334 L 667.73242 1244 L 678.13281 1244 L 684.5332 1206 C 685.46654 1200.2667 688.26615 1195.2004 692.13281 1190.4004 C 695.86615 1185.8671 700.39922 1182.5332 707.19922 1182.5332 C 714.39922 1182.5332 718.40039 1186.2665 718.40039 1192.5332 C 718.40039 1200.6665 711.60065 1208.2658 689.33398 1213.7324 L 700.13281 1237.1992 C 702.93281 1243.3326 705.86706 1245.5996 710.40039 1245.5996 C 715.46706 1245.5996 719.46706 1242.6658 726.40039 1235.7324 L 735.86719 1226.2676 L 730.13281 1220.2676 L 712.40039 1236.5332 L 710.66602 1236.2676 L 701.19922 1215.5996 C 724.53255 1209.8663 729.06641 1198.7999 729.06641 1190.5332 C 729.06641 1180.2665 721.99974 1173.5996 711.06641 1173.5996 C 699.59974 1173.5996 692.40013 1180.9335 687.4668 1191.4668 L 686.93359 1191.4668 L 694.66602 1145.334 L 684.26758 1145.334 z M 1235.1992 1145.334 L 1233.7324 1154.2676 L 1258 1154.2676 L 1243.0664 1231.8672 C 1242.7997 1233.0672 1242.666 1234.9328 1242.666 1236.1328 C 1242.666 1241.5995 1245.466 1245.5996 1252.666 1245.5996 C 1257.9993 1245.5996 1262.7991 1243.3329 1275.7324 1231.5996 L 1289.5996 1219.0664 L 1283.5996 1213.1992 L 1256.2676 1236.4004 L 1252.9336 1235.334 L 1270.2676 1145.334 L 1235.1992 1145.334 z M 1361.8672 1145.334 C 1351.6005 1145.334 1345.7342 1151.8669 1344.2676 1160.9336 L 1341.8672 1175.1992 L 1317.334 1175.1992 L 1315.8672 1184.1328 L 1340.4004 1184.1328 L 1327.334 1262.4004 L 1324.9336 1262.9336 L 1304.4004 1241.0664 L 1297.334 1247.4668 L 1305.4668 1256.4004 C 1316.1335 1268.0004 1319.9996 1272.2676 1325.5996 1272.2676 C 1333.5996 1272.2676 1337.2004 1265.7342 1338.4004 1258.2676 L 1350.8008 1184.1328 L 1378.666 1184.1328 L 1380.1328 1175.1992 L 1352.2676 1175.1992 L 1355.7324 1154.2676 L 1383.4668 1154.2676 L 1384.9336 1145.334 L 1361.8672 1145.334 z M 121.06641 1150.9336 L 119.59961 1159.7324 L 142.93359 1159.7324 L 130.26758 1235.1992 L 106.93359 1235.1992 L 105.4668 1244 L 163.06641 1244 L 164.5332 1235.1992 L 141.19922 1235.1992 L 153.86719 1159.7324 L 177.19922 1159.7324 L 178.66602 1150.9336 L 121.06641 1150.9336 z M 465.19922 1173.5996 C 448.93255 1173.5996 435.73242 1180.9335 435.73242 1195.4668 C 435.73242 1208.2668 446.13281 1211.5997 456.13281 1213.0664 L 466.13281 1214.5332 C 471.73281 1215.3332 476.13281 1217.1996 476.13281 1223.5996 C 476.13281 1231.8663 468.66654 1236.8008 456.5332 1236.8008 C 446.1332 1236.8008 439.33333 1233.1999 434 1226.5332 L 426.26758 1232.666 C 432.26758 1240.9327 442.26628 1245.5996 455.59961 1245.5996 C 473.99961 1245.5996 486.40039 1236.7999 486.40039 1222.5332 C 486.40039 1208.9332 475.06758 1206.8007 466.26758 1205.334 L 456.5332 1203.7324 C 450.9332 1202.7991 445.86719 1201.3327 445.86719 1194.666 C 445.86719 1187.1993 452.13333 1182.4004 464 1182.4004 C 475.6 1182.4004 481.19961 1186.9332 483.59961 1190.5332 L 490.93359 1184.1328 C 485.73359 1177.5995 477.19922 1173.5996 465.19922 1173.5996 z M 787.4668 1173.5996 C 765.33346 1173.5996 749.59961 1191.1995 749.59961 1216.1328 C 749.59961 1235.8661 759.46745 1245.5996 776.80078 1245.5996 C 791.33411 1245.5996 800.66706 1238.6667 808.40039 1226 L 801.06641 1221.4668 C 793.33307 1232.4001 787.59909 1236.666 777.73242 1236.666 C 763.33242 1236.666 760.5332 1227.7328 760.5332 1218.1328 C 760.5332 1217.8661 760.53268 1216.3997 760.66602 1215.0664 C 804.53268 1213.8664 810.80078 1201.8661 810.80078 1192.1328 C 810.80078 1180.1328 800.93346 1173.5996 787.4668 1173.5996 z M 935.86719 1173.5996 C 928.26719 1173.5996 924.13359 1179.0667 920.93359 1186 L 920.40039 1186 L 922.13281 1175.1992 L 912.5332 1175.1992 L 901.06641 1244 L 910.66602 1244 L 918.13281 1199.4668 C 918.79948 1195.4668 920.40026 1191.0668 922.93359 1187.4668 C 925.06693 1184.4001 928.13385 1182.1328 931.86719 1182.1328 C 935.60052 1182.1328 937.4668 1184.4 937.4668 1190 C 937.4668 1192.1333 937.19935 1194.6672 936.66602 1197.8672 L 928.93359 1244 L 938.5332 1244 L 946 1199.4668 C 946.66667 1195.4668 948.26745 1190.9335 950.80078 1187.4668 C 953.06745 1184.4001 955.73346 1182.1328 959.4668 1182.1328 C 963.4668 1182.1328 965.33398 1184.6663 965.33398 1189.5996 C 965.33398 1191.4663 964.93372 1194.6672 964.40039 1197.8672 L 956.66602 1244 L 966.26758 1244 L 974.26758 1196.1328 C 974.80091 1192.9328 975.19922 1189.3341 975.19922 1186.8008 C 975.19922 1178.4008 971.0668 1173.5996 963.4668 1173.5996 C 955.4668 1173.5996 950.26745 1178.7993 946.80078 1186.666 L 946.40039 1186.666 C 946.93372 1179.1993 943.60052 1173.5996 935.86719 1173.5996 z M 1104.8008 1173.5996 C 1088.5341 1173.5996 1075.334 1180.9335 1075.334 1195.4668 C 1075.334 1208.2668 1085.7324 1211.5997 1095.7324 1213.0664 L 1105.7324 1214.5332 C 1111.3324 1215.3332 1115.7324 1217.1996 1115.7324 1223.5996 C 1115.7324 1231.8663 1108.2661 1236.8008 1096.1328 1236.8008 C 1085.7328 1236.8008 1078.9329 1233.1999 1073.5996 1226.5332 L 1065.8672 1232.666 C 1071.8672 1240.9327 1081.8659 1245.5996 1095.1992 1245.5996 C 1113.5992 1245.5996 1126 1236.7999 1126 1222.5332 C 1126 1208.9332 1114.6672 1206.8007 1105.8672 1205.334 L 1096.1328 1203.7324 C 1090.5328 1202.7991 1085.4668 1201.3327 1085.4668 1194.666 C 1085.4668 1187.1993 1091.7329 1182.4004 1103.5996 1182.4004 C 1115.1996 1182.4004 1120.7992 1186.9332 1123.1992 1190.5332 L 1130.5332 1184.1328 C 1125.3332 1177.5995 1116.8008 1173.5996 1104.8008 1173.5996 z M 1187.0664 1173.5996 C 1164.9331 1173.5996 1149.1992 1191.1995 1149.1992 1216.1328 C 1149.1992 1235.8661 1159.0671 1245.5996 1176.4004 1245.5996 C 1190.9337 1245.5996 1200.2667 1238.6667 1208 1226 L 1200.666 1221.4668 C 1192.9327 1232.4001 1187.2007 1236.666 1177.334 1236.666 C 1162.934 1236.666 1160.1328 1227.7328 1160.1328 1218.1328 C 1160.1328 1217.8661 1160.1342 1216.3997 1160.2676 1215.0664 C 1204.1342 1213.8664 1210.4004 1201.8661 1210.4004 1192.1328 C 1210.4004 1180.1328 1200.5331 1173.5996 1187.0664 1173.5996 z M 352.26758 1175.1992 L 350.80078 1184.1328 L 375.59961 1184.1328 L 366.5332 1231.0664 C 366.26654 1232.6664 365.86719 1234.6671 365.86719 1236.4004 C 365.86719 1241.7337 369.46615 1245.5996 376.13281 1245.5996 C 382.13281 1245.5996 387.06628 1242.4008 399.59961 1230.8008 L 411.73242 1219.5996 L 405.4668 1213.7324 L 379.19922 1236.4004 L 376.13281 1235.1992 L 387.73242 1175.1992 L 352.26758 1175.1992 z M 592.26758 1175.1992 L 590.80078 1184.1328 L 615.59961 1184.1328 L 606.5332 1231.0664 C 606.26654 1232.6664 605.86719 1234.6671 605.86719 1236.4004 C 605.86719 1241.7337 609.46615 1245.5996 616.13281 1245.5996 C 622.13281 1245.5996 627.06628 1242.4008 639.59961 1230.8008 L 651.73242 1219.5996 L 645.4668 1213.7324 L 619.19922 1236.4004 L 616.13281 1235.1992 L 627.73242 1175.1992 L 592.26758 1175.1992 z M 998.26758 1175.1992 L 991.59961 1215.1992 C 991.06628 1218.7992 990.80078 1221.3324 990.80078 1223.7324 C 990.80078 1236.2658 998.13294 1243.5996 1009.5996 1243.5996 C 1020.6663 1243.5996 1027.5993 1236.6658 1032.666 1225.7324 L 1033.0664 1225.7324 L 1030.4004 1242 C 1028.0004 1256.9333 1020.5339 1263.0664 1007.8672 1263.0664 C 999.46719 1263.0664 993.86758 1260.4005 990.26758 1255.8672 L 983.06641 1262.8008 C 987.99974 1268.9341 996.13255 1272.2676 1007.1992 1272.2676 C 1024.3992 1272.2676 1036.9337 1264.2667 1040.4004 1244 L 1051.8672 1175.1992 L 1041.4668 1175.1992 L 1035.4668 1211.1992 C 1034.1335 1219.0659 1029.0663 1225.2003 1027.5996 1226.9336 C 1023.7329 1231.4669 1019.0664 1234.4004 1013.0664 1234.4004 C 1005.3331 1234.4004 1001.4668 1229.3326 1001.4668 1221.1992 C 1001.4668 1219.7326 1001.5995 1217.3342 1002.1328 1214.2676 L 1008.666 1175.1992 L 998.26758 1175.1992 z M 786.5332 1182.2676 C 796.5332 1182.2676 800.13281 1186.9332 800.13281 1192.5332 C 800.13281 1199.1999 795.0668 1206.8005 761.4668 1207.8672 L 761.59961 1206.5332 C 763.59961 1190.9332 772.66654 1182.2676 786.5332 1182.2676 z M 1186.1328 1182.2676 C 1196.1328 1182.2676 1199.7324 1186.9332 1199.7324 1192.5332 C 1199.7324 1199.1999 1194.6664 1206.8005 1161.0664 1207.8672 L 1161.1992 1206.5332 C 1163.1992 1190.9332 1172.2661 1182.2676 1186.1328 1182.2676 z M 302.93359 1182.8008 C 313.20026 1182.8008 320.26602 1188.2672 318.66602 1197.8672 L 316.13281 1213.0664 C 315.06615 1219.4664 311.99987 1224.9341 308.5332 1228.8008 C 303.7332 1234.1341 298.13372 1236.4004 292.40039 1236.4004 C 282.80039 1236.4004 277.86719 1230.2667 277.86719 1220 C 277.86719 1218.2667 278.00039 1216.4 278.40039 1214 L 280 1204.4004 C 282.13333 1191.6004 289.73359 1182.8008 302.93359 1182.8008 z M 1416.4004 1227.0664 C 1409.6004 1227.0664 1406.3996 1230.1336 1405.5996 1234.9336 C 1405.3329 1236.5336 1405.0664 1238.1326 1405.0664 1239.1992 C 1405.0664 1242.5326 1407.4658 1245.1992 1413.7324 1245.1992 C 1420.5324 1245.1992 1423.7332 1242.134 1424.5332 1237.334 C 1424.7999 1235.734 1425.0664 1234.1331 1425.0664 1233.0664 C 1425.0664 1229.7331 1422.6671 1227.0664 1416.4004 1227.0664 z M 1746 1477.5996 C 1740.6667 1477.5996 1737.8659 1480 1737.1992 1484 C 1736.9326 1485.6 1736.666 1486.8005 1736.666 1487.8672 C 1736.666 1490.6672 1738.6671 1493.1992 1744.4004 1493.1992 C 1749.7337 1493.1992 1752.5326 1490.8008 1753.1992 1486.8008 C 1753.4659 1485.2008 1753.7324 1484.0003 1753.7324 1482.9336 C 1753.7324 1480.1336 1751.7333 1477.5996 1746 1477.5996 z M 444.26758 1478.666 L 427.73242 1577.334 L 438.13281 1577.334 L 444.5332 1539.334 C 445.46654 1533.6007 448.26615 1528.5324 452.13281 1523.7324 C 455.86615 1519.1991 460.39922 1515.8672 467.19922 1515.8672 C 474.39922 1515.8672 478.40039 1519.6005 478.40039 1525.8672 C 478.40039 1534.0005 471.60065 1541.5997 449.33398 1547.0664 L 460.13281 1570.5332 C 462.93281 1576.6665 465.86706 1578.9336 470.40039 1578.9336 C 475.46706 1578.9336 479.46706 1575.9997 486.40039 1569.0664 L 495.86719 1559.5996 L 490.13281 1553.5996 L 472.40039 1569.8672 L 470.66602 1569.5996 L 461.19922 1548.9336 C 484.53255 1543.2003 489.06641 1532.1339 489.06641 1523.8672 C 489.06641 1513.6005 481.99974 1506.9336 471.06641 1506.9336 C 459.59974 1506.9336 452.40013 1514.2674 447.4668 1524.8008 L 446.93359 1524.8008 L 454.66602 1478.666 L 444.26758 1478.666 z M 1155.334 1478.666 L 1153.8672 1487.5996 L 1178.1328 1487.5996 L 1163.1992 1565.1992 C 1162.9326 1566.3992 1162.8008 1568.2668 1162.8008 1569.4668 C 1162.8008 1574.9335 1165.6008 1578.9336 1172.8008 1578.9336 C 1178.1341 1578.9336 1182.9339 1576.6669 1195.8672 1564.9336 L 1209.7324 1552.4004 L 1203.7324 1546.5332 L 1176.4004 1569.7324 L 1173.0664 1568.666 L 1190.4004 1478.666 L 1155.334 1478.666 z M 1441.5996 1478.666 C 1431.3329 1478.666 1425.4667 1485.2009 1424 1494.2676 L 1421.5996 1508.5332 L 1397.0664 1508.5332 L 1395.5996 1517.4668 L 1420.1328 1517.4668 L 1407.0664 1595.7324 L 1404.666 1596.2676 L 1384.1328 1574.4004 L 1377.0664 1580.8008 L 1385.1992 1589.7324 C 1395.8659 1601.3324 1399.734 1605.5996 1405.334 1605.5996 C 1413.334 1605.5996 1416.9328 1599.0663 1418.1328 1591.5996 L 1430.5332 1517.4668 L 1458.4004 1517.4668 L 1459.8672 1508.5332 L 1432 1508.5332 L 1435.4668 1487.5996 L 1463.1992 1487.5996 L 1464.666 1478.666 L 1441.5996 1478.666 z M 1643.4668 1478.666 L 1626.9336 1577.334 L 1637.334 1577.334 L 1643.7324 1539.334 C 1645.0658 1531.4673 1650.1329 1525.3329 1651.5996 1523.5996 C 1655.4663 1519.0663 1660.1328 1516.1328 1666.1328 1516.1328 C 1673.8661 1516.1328 1677.5996 1521.2007 1677.5996 1529.334 C 1677.5996 1530.8007 1677.4669 1533.466 1676.9336 1536.666 L 1670.1328 1577.334 L 1680.5332 1577.334 L 1687.4668 1535.7324 C 1688.0001 1532.6658 1688.2656 1529.4674 1688.2656 1526.8008 C 1688.2656 1514.2674 1681.0663 1506.9336 1669.5996 1506.9336 C 1658.5329 1506.9336 1651.7327 1513.8674 1646.666 1524.8008 L 1646.1328 1524.8008 L 1653.8672 1478.666 L 1643.4668 1478.666 z M 121.06641 1484.2676 L 119.59961 1493.0664 L 142.93359 1493.0664 L 130.26758 1568.5332 L 106.93359 1568.5332 L 105.4668 1577.334 L 163.06641 1577.334 L 164.5332 1568.5332 L 141.19922 1568.5332 L 153.86719 1493.0664 L 177.19922 1493.0664 L 178.66602 1484.2676 L 121.06641 1484.2676 z M 296.40039 1484.2676 L 293.33398 1502.2676 C 292.53398 1506.9342 290.40052 1508.5332 285.86719 1508.5332 L 271.86719 1508.5332 L 270.40039 1517.4668 L 290.26758 1517.4668 L 282.26758 1563.8672 C 282.00091 1565.3339 281.86719 1567.8664 281.86719 1569.0664 C 281.86719 1575.4664 285.46576 1578.9336 291.73242 1578.9336 C 297.19909 1578.9336 302.53359 1576.134 314.93359 1567.334 L 330 1556.666 L 324.80078 1550 L 294.80078 1570 L 292.13281 1568.4004 L 300.66602 1517.4668 L 329.06641 1517.4668 L 330.5332 1508.5332 L 302.13281 1508.5332 L 306.26758 1484.2676 L 296.40039 1484.2676 z M 936.13281 1484.2676 L 933.06641 1502.2676 C 932.26641 1506.9342 930.13294 1508.5332 925.59961 1508.5332 L 911.59961 1508.5332 L 910.13281 1517.4668 L 930 1517.4668 L 922 1563.8672 C 921.73333 1565.3339 921.59961 1567.8664 921.59961 1569.0664 C 921.59961 1575.4664 925.20013 1578.9336 931.4668 1578.9336 C 936.93346 1578.9336 942.26602 1576.134 954.66602 1567.334 L 969.73242 1556.666 L 964.5332 1550 L 934.5332 1570 L 931.86719 1568.4004 L 940.40039 1517.4668 L 968.80078 1517.4668 L 970.26758 1508.5332 L 941.86719 1508.5332 L 946 1484.2676 L 936.13281 1484.2676 z M 1575.5996 1484.2676 L 1572.5332 1502.2676 C 1571.7332 1506.9342 1569.5997 1508.5332 1565.0664 1508.5332 L 1551.0664 1508.5332 L 1549.5996 1517.4668 L 1569.4668 1517.4668 L 1561.4668 1563.8672 C 1561.2001 1565.3339 1561.0664 1567.8664 1561.0664 1569.0664 C 1561.0664 1575.4664 1564.6669 1578.9336 1570.9336 1578.9336 C 1576.4003 1578.9336 1581.7328 1576.134 1594.1328 1567.334 L 1609.1992 1556.666 L 1604 1550 L 1574 1570 L 1571.334 1568.4004 L 1579.8672 1517.4668 L 1608.2656 1517.4668 L 1609.7324 1508.5332 L 1581.334 1508.5332 L 1585.4668 1484.2676 L 1575.5996 1484.2676 z M 379.86719 1506.9336 C 355.60052 1506.9336 347.33398 1533.8676 347.33398 1552.2676 C 347.33398 1569.8676 354.93411 1578.9336 368.80078 1578.9336 C 380.93411 1578.9336 387.86589 1571.8664 393.19922 1561.0664 L 393.59961 1561.0664 L 390.93359 1577.334 L 401.33398 1577.334 L 412.80078 1508.5332 L 402.40039 1508.5332 L 400.40039 1520.5332 L 400 1520.5332 C 397.06667 1511.5999 390.00052 1506.9336 379.86719 1506.9336 z M 547.4668 1506.9336 C 525.33346 1506.9336 509.59961 1524.5335 509.59961 1549.4668 C 509.59961 1569.2001 519.46745 1578.9336 536.80078 1578.9336 C 551.33411 1578.9336 560.66706 1572.0007 568.40039 1559.334 L 561.06641 1554.8008 C 553.33307 1565.7341 547.59909 1570 537.73242 1570 C 523.33242 1570 520.5332 1561.0668 520.5332 1551.4668 C 520.5332 1551.2001 520.53268 1549.7337 520.66602 1548.4004 C 564.53268 1547.2004 570.80078 1535.2001 570.80078 1525.4668 C 570.80078 1513.4668 560.93346 1506.9336 547.4668 1506.9336 z M 705.06641 1506.9336 C 685.46641 1506.9336 669.59961 1523.6005 669.59961 1549.8672 C 669.59961 1567.0672 678.53294 1578.9336 695.59961 1578.9336 C 709.99961 1578.9336 718.66732 1571.4668 727.33398 1557.4668 L 719.86719 1553.0664 C 708.93385 1568.1331 703.06693 1569.8672 696.93359 1569.8672 C 686.93359 1569.8672 680.13281 1564.3993 680.13281 1552.666 C 680.13281 1550.9327 680.26745 1549.4676 680.80078 1546.2676 L 682.13281 1538.2676 C 684.53281 1523.8676 692.13385 1516 703.86719 1516 C 712.40052 1516 717.46615 1518.5336 720.13281 1526.9336 L 729.06641 1523.4668 C 726.66641 1514.4001 719.59974 1506.9336 705.06641 1506.9336 z M 784.13281 1506.9336 C 763.99948 1506.9336 748.13281 1523.6005 748.13281 1549.8672 C 748.13281 1567.0672 757.33359 1578.9336 774.93359 1578.9336 C 795.20026 1578.9336 811.06641 1562.2667 811.06641 1536 C 811.06641 1518.8 801.99948 1506.9336 784.13281 1506.9336 z M 870.13281 1506.9336 C 859.06615 1506.9336 852.26589 1513.8674 847.19922 1524.8008 L 846.66602 1524.8008 L 849.33398 1508.5332 L 838.93359 1508.5332 L 827.4668 1577.334 L 837.86719 1577.334 L 844.26758 1539.334 C 845.60091 1531.4673 850.66615 1525.3329 852.13281 1523.5996 C 855.99948 1519.0663 860.66602 1516.1328 866.66602 1516.1328 C 874.39935 1516.1328 878.13281 1521.2007 878.13281 1529.334 C 878.13281 1530.8007 878.00013 1533.466 877.4668 1536.666 L 870.66602 1577.334 L 881.06641 1577.334 L 888 1535.7324 C 888.53333 1532.6658 888.80078 1529.4674 888.80078 1526.8008 C 888.80078 1514.2674 881.59948 1506.9336 870.13281 1506.9336 z M 1104.1328 1506.9336 C 1083.9995 1506.9336 1068.1328 1523.6005 1068.1328 1549.8672 C 1068.1328 1567.0672 1077.3336 1578.9336 1094.9336 1578.9336 C 1115.2003 1578.9336 1131.0664 1562.2667 1131.0664 1536 C 1131.0664 1518.8 1121.9995 1506.9336 1104.1328 1506.9336 z M 1343.7324 1506.9336 C 1323.599 1506.9336 1307.7324 1523.6005 1307.7324 1549.8672 C 1307.7324 1567.0672 1316.9332 1578.9336 1334.5332 1578.9336 C 1354.7999 1578.9336 1370.666 1562.2667 1370.666 1536 C 1370.666 1518.8 1361.5991 1506.9336 1343.7324 1506.9336 z M 1829.5996 1506.9336 C 1818.5329 1506.9336 1811.7327 1513.8674 1806.666 1524.8008 L 1806.1328 1524.8008 L 1808.8008 1508.5332 L 1798.4004 1508.5332 L 1786.9336 1577.334 L 1797.334 1577.334 L 1803.7324 1539.334 C 1805.0658 1531.4673 1810.1329 1525.3329 1811.5996 1523.5996 C 1815.4663 1519.0663 1820.1328 1516.1328 1826.1328 1516.1328 C 1833.8661 1516.1328 1837.5996 1521.2007 1837.5996 1529.334 C 1837.5996 1530.8007 1837.4669 1533.466 1836.9336 1536.666 L 1830.1328 1577.334 L 1840.5332 1577.334 L 1847.4668 1535.7324 C 1848.0001 1532.6658 1848.2656 1529.4674 1848.2656 1526.8008 C 1848.2656 1514.2674 1841.0663 1506.9336 1829.5996 1506.9336 z M 1899.0664 1506.9336 C 1875.3331 1506.9336 1866.666 1532.7999 1866.666 1550.5332 C 1866.666 1567.3332 1874.1323 1576.666 1888.2656 1576.666 C 1900.399 1576.666 1907.6008 1569.8674 1912.8008 1558.8008 L 1913.334 1558.8008 L 1910.5332 1575.334 C 1907.9999 1590.534 1900.5333 1596.4004 1888 1596.4004 C 1879.6 1596.4004 1874.0004 1593.7326 1870.4004 1589.1992 L 1863.1992 1596.1328 C 1868.1326 1602.2661 1876.2673 1605.5996 1887.334 1605.5996 C 1904.534 1605.5996 1917.0665 1597.6007 1920.5332 1577.334 L 1932 1508.5332 L 1921.5996 1508.5332 L 1919.5996 1520.5332 L 1919.1992 1520.5332 C 1916.2659 1511.5999 1909.1997 1506.9336 1899.0664 1506.9336 z M 1984.4004 1506.9336 C 1968.1337 1506.9336 1954.9336 1514.2674 1954.9336 1528.8008 C 1954.9336 1541.6008 1965.334 1544.9337 1975.334 1546.4004 L 1985.334 1547.8672 C 1990.934 1548.6672 1995.334 1550.5336 1995.334 1556.9336 C 1995.334 1565.2003 1987.8658 1570.1328 1975.7324 1570.1328 C 1965.3324 1570.1328 1958.5326 1566.5339 1953.1992 1559.8672 L 1945.4668 1566 C 1951.4668 1574.2667 1961.4674 1578.9336 1974.8008 1578.9336 C 1993.2008 1578.9336 2005.5996 1570.1339 2005.5996 1555.8672 C 2005.5996 1542.2672 1994.2668 1540.1327 1985.4668 1538.666 L 1975.7324 1537.0664 C 1970.1324 1536.1331 1965.0664 1534.6667 1965.0664 1528 C 1965.0664 1520.5333 1971.3326 1515.7324 1983.1992 1515.7324 C 1994.7992 1515.7324 2000.4008 1520.2672 2002.8008 1523.8672 L 2010.1328 1517.4668 C 2004.9328 1510.9335 1996.4004 1506.9336 1984.4004 1506.9336 z M 995.4668 1508.5332 L 994 1517.4668 L 1013.334 1517.4668 L 1003.334 1577.334 L 1013.7324 1577.334 L 1019.7324 1541.4668 C 1021.0658 1533.4668 1025.8663 1527.8672 1027.5996 1525.8672 C 1031.7329 1521.0672 1036.666 1518.9336 1044.666 1518.9336 L 1056.4004 1518.9336 L 1058.1328 1508.5332 L 1047.7324 1508.5332 C 1034.5324 1508.5332 1027.6008 1516.0003 1022.8008 1526.9336 L 1022.1328 1526.9336 L 1025.1992 1508.5332 L 995.4668 1508.5332 z M 1711.4668 1508.5332 L 1710 1517.4668 L 1734.8008 1517.4668 L 1725.7324 1564.4004 C 1725.4658 1566.0004 1725.0664 1567.9991 1725.0664 1569.7324 C 1725.0664 1575.0658 1728.6673 1578.9336 1735.334 1578.9336 C 1741.334 1578.9336 1746.2674 1575.7328 1758.8008 1564.1328 L 1770.9336 1552.9336 L 1764.666 1547.0664 L 1738.4004 1569.7324 L 1735.334 1568.5332 L 1746.9336 1508.5332 L 1711.4668 1508.5332 z M 546.5332 1515.5996 C 556.5332 1515.5996 560.13281 1520.2672 560.13281 1525.8672 C 560.13281 1532.5339 555.0668 1540.1326 521.4668 1541.1992 L 521.59961 1539.8672 C 523.59961 1524.2672 532.66654 1515.5996 546.5332 1515.5996 z M 783.73242 1516 C 793.99909 1516 800.5332 1521.3336 800.5332 1532.9336 C 800.5332 1534.5336 800.40052 1536.5324 799.86719 1539.7324 L 798.5332 1547.7324 C 796.26654 1561.3324 788.40013 1569.8672 775.4668 1569.8672 C 765.20013 1569.8672 758.66602 1564.5336 758.66602 1552.9336 C 758.66602 1551.3336 758.80065 1549.3328 759.33398 1546.1328 L 760.66602 1538.1328 C 762.93268 1524.5328 770.79909 1516 783.73242 1516 z M 1103.7324 1516 C 1113.9991 1516 1120.5332 1521.3336 1120.5332 1532.9336 C 1120.5332 1534.5336 1120.4005 1536.5324 1119.8672 1539.7324 L 1118.5332 1547.7324 C 1116.2665 1561.3324 1108.4001 1569.8672 1095.4668 1569.8672 C 1085.2001 1569.8672 1078.666 1564.5336 1078.666 1552.9336 C 1078.666 1551.3336 1078.8007 1549.3328 1079.334 1546.1328 L 1080.666 1538.1328 C 1082.9327 1524.5328 1090.7991 1516 1103.7324 1516 z M 1343.334 1516 C 1353.6007 1516 1360.1328 1521.3336 1360.1328 1532.9336 C 1360.1328 1534.5336 1360.0001 1536.5324 1359.4668 1539.7324 L 1358.1328 1547.7324 C 1355.8661 1561.3324 1347.9997 1569.8672 1335.0664 1569.8672 C 1324.7997 1569.8672 1318.2656 1564.5336 1318.2656 1552.9336 C 1318.2656 1551.3336 1318.4003 1549.3328 1318.9336 1546.1328 L 1320.2656 1538.1328 C 1322.5323 1524.5328 1330.4006 1516 1343.334 1516 z M 382.93359 1516.1328 C 393.20026 1516.1328 400.26602 1521.5992 398.66602 1531.1992 L 396.13281 1546.4004 C 395.06615 1552.8004 391.99987 1558.2661 388.5332 1562.1328 C 383.7332 1567.4661 378.13372 1569.7324 372.40039 1569.7324 C 362.80039 1569.7324 357.86719 1563.6007 357.86719 1553.334 C 357.86719 1551.6007 358.00039 1549.734 358.40039 1547.334 L 360 1537.7324 C 362.13333 1524.9324 369.73359 1516.1328 382.93359 1516.1328 z M 1902.1328 1516.1328 C 1912.3995 1516.1328 1919.4672 1521.5992 1917.8672 1531.1992 L 1915.7324 1544.2676 C 1914.5324 1551.7342 1910.6661 1557.0672 1908.1328 1559.8672 C 1903.1995 1565.3339 1897.6005 1567.4668 1891.8672 1567.4668 C 1882.2672 1567.4668 1877.334 1561.4665 1877.334 1550.5332 C 1877.334 1548.6665 1877.6 1547.066 1878 1544.666 L 1879.1992 1537.4668 C 1881.3326 1524.6668 1889.1995 1516.1328 1902.1328 1516.1328 z M 2056 1560.4004 C 2049.2 1560.4004 2045.9992 1563.4676 2045.1992 1568.2676 C 2044.9326 1569.8676 2044.666 1571.4665 2044.666 1572.5332 C 2044.666 1575.8665 2047.0673 1578.5332 2053.334 1578.5332 C 2060.134 1578.5332 2063.3328 1575.466 2064.1328 1570.666 C 2064.3995 1569.066 2064.666 1567.4671 2064.666 1566.4004 C 2064.666 1563.0671 2062.2667 1560.4004 2056 1560.4004 z M 1231.9277 1869.3281 C 1176.1041 1868.9843 1140.5904 1904.2689 1133.75 1947.207 C 1129.99 1970.8217 1133.6148 1997.6826 1143.2188 2020.5879 C 1143.7494 2021.8546 1144.3695 2023.0626 1144.9375 2024.3066 C 1141.9428 2034.964 1140.4075 2045.0994 1139.8555 2052.4434 C 1137.7821 2080.1727 1160.4012 2111.8496 1202.1719 2116.2402 C 1222.8852 2118.4162 1243.1827 2114.9732 1260.8027 2100.4785 C 1274.3747 2089.3118 1286.2548 2071.7075 1296.0215 2045.6035 C 1298.9322 2052.1142 1301.8326 2058.8219 1304.8379 2065.8633 C 1314.7019 2088.9939 1324.6207 2104.4738 1335.0527 2114.5938 C 1345.4847 2124.7137 1356.5206 2129.3597 1367.8633 2130.625 C 1380.1246 2131.9943 1391.3339 2124.4324 1399.5312 2116.9844 C 1407.7299 2109.5417 1413.1094 2101.8027 1413.1094 2101.8027 C 1413.416 2101.3641 1413.6037 2100.8498 1413.6504 2100.3125 C 1413.7397 2099.2245 1413.2456 2098.1663 1412.3496 2097.541 C 1410.9643 2096.5783 1409.0577 2096.9174 1408.0938 2098.3027 C 1408.0938 2098.3027 1403.0419 2105.5363 1395.4219 2112.459 C 1387.7979 2119.3803 1377.8063 2125.5842 1368.541 2124.5469 C 1358.3637 2123.4122 1348.8912 2119.4951 1339.3125 2110.2031 C 1329.7352 2100.9125 1320.1368 2086.1368 1310.4648 2063.4648 C 1306.5795 2054.3555 1302.8394 2045.6672 1298.9434 2037.3125 C 1300.7714 2031.8392 1302.5471 2026.1394 1304.2031 2019.9688 C 1315.1405 1979.2541 1318.6043 1944.594 1310.7656 1918.4434 C 1302.927 1892.2927 1283.1565 1875.0574 1249.8965 1870.6094 C 1243.6962 1869.7803 1237.7026 1869.3637 1231.9277 1869.3281 z M 1231.877 1875.416 C 1237.3917 1875.4667 1243.1304 1875.8755 1249.0879 1876.6719 C 1280.6666 1880.8959 1297.6449 1895.9733 1304.9062 1920.1973 C 1310.3542 1938.3693 1309.9831 1961.9115 1304.9004 1989.4941 C 1304.4777 1991.7968 1304.0205 1994.1193 1303.5352 1996.4727 C 1302.0725 2003.5407 1300.3169 2010.8488 1298.2969 2018.3848 C 1297.2702 2022.2021 1296.1826 2025.7447 1295.0879 2029.2754 C 1290.2546 2019.7287 1284.989 2010.8392 1278.5156 2003.0059 C 1264.8223 1986.4379 1245.8126 1974.5731 1216.1406 1970.3438 C 1185.99 1966.0411 1166.7299 1980.292 1155.6152 1998.6094 C 1152.3552 2003.984 1149.8897 2009.6828 1147.791 2015.4121 C 1139.4883 1994.1828 1136.3897 1969.5159 1139.791 1948.1719 C 1146.2 1907.9187 1178.5673 1874.9259 1231.877 1875.416 z M 1705.3066 1880.8848 C 1703.885 1880.9563 1702.6662 1882.0202 1702.4434 1883.4785 C 1702.4647 1883.2865 1702.302 1883.8605 1701.5566 1884.8125 C 1700.8166 1885.7712 1699.6444 1887.0938 1698.207 1888.8125 C 1695.327 1892.2458 1691.3848 1897.2863 1687.1875 1904.9316 C 1683.3275 1911.9583 1679.2391 1921.2354 1675.4258 1933.5527 C 1666.1871 1933.0421 1656.0777 1932.177 1643.207 1930.541 C 1622.6604 1927.9263 1609.7805 1924.7966 1602.1191 1922.3633 C 1594.4525 1919.9313 1592.3164 1918.4062 1592.3164 1918.4062 C 1590.9204 1917.4583 1589.0217 1917.8228 1588.0684 1919.2188 C 1587.1204 1920.6147 1587.4795 1922.5154 1588.8809 1923.4688 C 1588.8809 1923.4688 1592.1675 1925.6253 1600.2715 1928.1973 C 1608.3755 1930.7706 1621.6042 1933.9587 1642.4375 1936.6094 C 1654.8335 1938.188 1664.6829 1939.0476 1673.6562 1939.5742 C 1669.8696 1953.1209 1666.4471 1969.9582 1663.9258 1991.1035 C 1658.5778 2035.9475 1653.7964 2066.6818 1653.0098 2088.0352 C 1652.6138 2098.7125 1653.188 2107.0832 1655.416 2113.8125 C 1657.6453 2120.5418 1661.7457 2125.5884 1667.6777 2128.7871 C 1673.9377 2132.1618 1681.4737 2132.0888 1689.0684 2130.4648 C 1696.6617 2128.8395 1704.4539 2125.614 1711.5312 2122.0566 C 1725.6979 2114.942 1737.082 2106.4004 1737.082 2106.4004 C 1737.734 2105.9111 1738.1607 2105.1874 1738.2754 2104.3848 C 1738.3901 2103.5834 1738.1826 2102.7659 1737.6973 2102.1152 C 1736.6826 2100.7659 1734.7653 2100.4893 1733.416 2101.5 C 1733.416 2101.5 1722.3698 2109.7652 1708.7871 2116.5879 C 1701.9951 2119.9999 1694.5844 2123.0265 1687.7871 2124.4785 C 1680.9898 2125.9318 1674.9533 2125.7596 1670.584 2123.4062 C 1665.8907 2120.8743 1663.0686 2117.4474 1661.2246 2111.8848 C 1659.3859 2106.3221 1658.7391 2098.5878 1659.1191 2088.2598 C 1659.8845 2067.6144 1664.64 2036.7708 1670 1991.8281 C 1672.5733 1970.2401 1676.0828 1953.3017 1679.9121 1939.9004 C 1698.2241 1940.7124 1714.2343 1940.3698 1743.4062 1942.3125 C 1789.7342 1945.3965 1822.3555 1947.9727 1822.3555 1947.9727 C 1824.0421 1948.1087 1825.5099 1946.854 1825.6445 1945.166 C 1825.7805 1943.4833 1824.5206 1942.0115 1822.8379 1941.8809 C 1822.8379 1941.8809 1790.1778 1939.291 1743.8125 1936.207 C 1715.2138 1934.3017 1699.3058 1934.5736 1681.7285 1933.8496 C 1685.2912 1922.6403 1689.0522 1914.2403 1692.5469 1907.875 C 1696.5215 1900.6457 1700.1405 1896.0309 1702.8965 1892.7402 C 1704.2765 1891.0936 1705.4373 1889.7918 1706.3906 1888.5625 C 1707.344 1887.3332 1708.2196 1886.1657 1708.4902 1884.4004 C 1708.7409 1882.7284 1707.5924 1881.1726 1705.9258 1880.918 C 1705.7168 1880.886 1705.5097 1880.8745 1705.3066 1880.8848 z M 1205.3203 1975.6465 C 1208.4616 1975.6548 1211.7761 1975.8978 1215.2754 1976.3965 C 1243.7487 1980.4592 1260.9427 1991.3431 1273.8027 2006.9004 C 1281.0627 2015.6871 1286.8686 2026.1659 1292.3379 2037.6445 C 1282.4419 2066.2859 1270.334 2084.7193 1256.918 2095.75 C 1240.6886 2109.1047 1222.4738 2112.2242 1202.8125 2110.1562 C 1163.8392 2106.0576 1144.1505 2076.9738 1145.9531 2052.8965 C 1146.3598 2047.4738 1147.4312 2040.2752 1149.1445 2032.6445 C 1158.7805 2050.0099 1172.2925 2063.9066 1189.3125 2069.7812 C 1210.1458 2076.9692 1229.0417 2069.5847 1242.375 2060.6367 C 1255.703 2051.6887 1263.9219 2040.9727 1263.9219 2040.9727 C 1264.9539 2039.6353 1264.7019 2037.7182 1263.3633 2036.6875 C 1262.0259 2035.6555 1260.1049 2035.9074 1259.0742 2037.2461 C 1259.0742 2037.2461 1251.3862 2047.218 1238.9648 2055.5566 C 1226.5422 2063.8953 1209.8498 2070.396 1191.3125 2064 C 1174.4325 2058.172 1160.7405 2043.0634 1151.5059 2023.9434 C 1153.7659 2016.3914 1156.6398 2008.7132 1160.8438 2001.7812 C 1169.8306 1986.9704 1183.3313 1975.588 1205.3203 1975.6465 z M 1606.6855 1979.4531 C 1606.4827 1979.4597 1606.2792 1979.4863 1606.0742 1979.5352 C 1596.6836 1981.7752 1589.5988 1989.8953 1582.4121 2001.25 C 1575.2241 2012.598 1567.8436 2027.5208 1558.4062 2044.5781 C 1549.0569 2061.4688 1542.6716 2068.1712 1533.0156 2071.6445 C 1523.3543 2075.1192 1509.5632 2075.1878 1486.4219 2077.0625 C 1463.6725 2078.9065 1452.2697 2076.0054 1448.8164 2072.7188 C 1447.0924 2071.0734 1446.7487 2069.562 1447.25 2067.082 C 1447.7447 2064.6034 1449.4365 2061.3687 1452.0352 2057.9688 C 1456.6445 2051.9421 1467.7017 2047.7141 1478.8164 2045.1621 C 1489.9311 2042.6154 1500.522 2041.6557 1505.75 2040.125 C 1507.5273 2039.6037 1509.0742 2038.3601 1509.9648 2036.8281 C 1510.8555 2035.2975 1511.1822 2033.5787 1511.2129 2031.8027 C 1511.2809 2028.2401 1510.1934 2024.2409 1508.3027 2019.8809 C 1504.5267 2011.1515 1497.3851 2001.0629 1487.8691 1993.0469 C 1477.7491 1984.5162 1463.2698 1983.0785 1451.4258 1983.4531 C 1439.5778 1983.8278 1430.082 1986.1934 1430.082 1986.1934 L 1427.7656 1988.9434 C 1427.7656 1988.9434 1426.2599 2010.697 1408.0879 2035.4316 C 1398.9892 2047.817 1389.7188 2055.6712 1380.9375 2059.1445 C 1372.1508 2062.6192 1363.891 2061.9886 1355.5684 2057.0566 C 1352.255 2055.0926 1349.7546 2050.2707 1348.3906 2043.584 C 1347.0213 2036.896 1346.7647 2028.6368 1347.082 2020.6621 C 1347.718 2004.7194 1350.584 1989.9941 1350.584 1989.9941 C 1350.9067 1988.3381 1349.822 1986.7342 1348.166 1986.4062 C 1346.51 1986.0823 1344.9008 1987.1663 1344.5781 1988.8223 C 1344.5781 1988.8223 1341.6301 2003.896 1340.9688 2020.416 C 1340.6394 2028.6773 1340.8645 2037.3173 1342.3965 2044.8066 C 1343.9272 2052.3026 1346.7446 2058.9369 1352.4473 2062.3223 C 1362.1766 2068.0823 1372.8649 2068.918 1383.1836 2064.834 C 1393.5063 2060.75 1403.4788 2052.0367 1413.0215 2039.0527 C 1429.3748 2016.7874 1432.8325 1997.1936 1433.5352 1991.7402 C 1435.8898 1991.2189 1442.3685 1989.8644 1451.6191 1989.5684 C 1462.7591 1989.219 1475.817 1990.8913 1483.9316 1997.7246 C 1492.645 2005.0686 1499.3542 2014.6093 1502.6875 2022.3066 C 1504.3542 2026.156 1505.139 2029.5675 1505.0977 2031.6875 C 1505.0777 2032.7448 1504.8599 2033.4312 1504.6719 2033.7539 C 1504.4839 2034.0779 1504.4272 2034.1352 1504.0312 2034.2539 C 1500.5579 2035.2699 1489.0353 2036.5418 1477.4473 2039.2031 C 1465.8593 2041.8605 1453.6311 2045.8219 1447.1777 2054.2539 C 1444.2457 2058.0819 1442.0407 2061.9261 1441.25 2065.8848 C 1440.458 2069.8434 1441.4363 2074.1299 1444.5977 2077.1445 C 1450.9203 2083.1765 1463.5793 2085.0528 1486.918 2083.1621 C 1509.8553 2081.3034 1523.7914 2081.4631 1535.082 2077.4004 C 1546.374 2073.3431 1554.1552 2064.8898 1563.7539 2047.5352 C 1573.2699 2030.3485 1580.6768 2015.4162 1587.5781 2004.5215 C 1594.4781 1993.6202 1600.7662 1987.0942 1607.4902 1985.4902 C 1608.5582 1985.2356 1609.4009 1984.4314 1609.7129 1983.3848 C 1609.8689 1982.8688 1609.8851 1982.3227 1609.7598 1981.8027 C 1609.4133 1980.3619 1608.1056 1979.4074 1606.6855 1979.4531 z M 1737.7754 2013.666 C 1736.0874 2013.6393 1734.6977 2014.9956 1734.6777 2016.6836 C 1734.6564 2018.3756 1736.0106 2019.7599 1737.6973 2019.7812 L 1846.4844 2021.1934 C 1843.391 2029.984 1833.0357 2057.6512 1815.125 2087.1152 C 1793.4317 2122.7872 1774.3691 2153.9844 1774.3691 2153.9844 L 1776.3594 2158.5781 C 1776.3594 2158.5781 1787.0523 2160.7766 1799.2656 2166.5312 C 1811.479 2172.2872 1824.8853 2181.546 1830.584 2195.0566 C 1836.1933 2208.3633 1833.3226 2228.6313 1829.0879 2253.0312 C 1824.8492 2277.4272 1819.5166 2305.9176 1821.6406 2336.1562 C 1822.4524 2347.7109 1824.3928 2359.6644 1827.3477 2371.4668 L 1787.0664 2371.4668 L 1787.0664 2378.4004 L 1829.2168 2378.4004 C 1833.9824 2395.0623 1840.7552 2411.2007 1849.2812 2425.2188 C 1864.9892 2451.0414 1886.8556 2469.9578 1913.0742 2470.4258 C 1963.4276 2471.3271 2014.1726 2451.7754 2036.0312 2401.3594 C 2039.5003 2393.3576 2042.5446 2385.7257 2045.1816 2378.4004 L 2091.0664 2378.4004 L 2091.0664 2371.4668 L 2047.5781 2371.4668 C 2049.9213 2364.3824 2051.8488 2357.5954 2053.2656 2351.125 C 2054.3643 2346.109 2055.1777 2341.2716 2055.6777 2336.5996 C 2057.6884 2317.9129 2054.6888 2301.8021 2045.4648 2288.3848 C 2036.0222 2274.6448 2019.693 2268.2971 2004.541 2269.9531 C 1989.385 2271.6091 1975.1978 2281.646 1970.8125 2299.9434 C 1966.4952 2317.9847 1971.5886 2334.0216 1981.6152 2343.7402 C 1991.6406 2353.4589 2006.7652 2356.7018 2021.0625 2349.5098 C 2038.2398 2340.8631 2045.749 2324.8687 2049.041 2313.666 C 2050.2237 2320.478 2050.4697 2327.8234 2049.5938 2335.9434 C 2048.4494 2346.5938 2045.5527 2358.4198 2041.1289 2371.4668 L 2027.0664 2371.4668 L 2027.0664 2378.4004 L 2038.6777 2378.4004 C 2036.2698 2384.9501 2033.5184 2391.7835 2030.4219 2398.9258 C 2009.7032 2446.7124 1961.9023 2465.1832 1913.1836 2464.3125 C 1889.8609 2463.8965 1869.5924 2446.8437 1854.5098 2422.041 C 1846.6046 2409.0432 1840.2174 2393.9898 1835.6133 2378.4004 L 1851.0664 2378.4004 L 1851.0664 2371.4668 L 1833.6914 2371.4668 C 1830.6 2359.5152 1828.5602 2347.382 1827.7402 2335.7285 C 1825.6882 2306.4725 1830.8646 2278.5316 1835.1152 2254.0742 C 1839.3606 2229.6209 1842.9267 2208.5943 1836.2188 2192.6836 C 1829.5934 2176.9743 1814.7918 2167.088 1801.8691 2161 C 1792.6091 2156.636 1785.7707 2154.7025 1781.7188 2153.6719 C 1783.5681 2150.6505 1799.7928 2124.105 1820.3555 2090.293 C 1842.2608 2054.261 1853.6934 2019.1406 1853.6934 2019.1406 L 1850.8223 2015.1367 L 1737.7754 2013.666 z M 224.26758 2257.1992 C 215.46758 2257.1992 212.40039 2261.1999 212.40039 2266.5332 L 212.40039 2270.4004 C 212.40039 2275.6004 215.46758 2279.7324 224.26758 2279.7324 C 233.06758 2279.7324 236.13281 2275.6004 236.13281 2270.4004 L 236.13281 2266.5332 C 236.13281 2261.1999 233.06758 2257.1992 224.26758 2257.1992 z M 141.33398 2262.666 C 120.26732 2262.666 107.86719 2273.0669 107.86719 2290.9336 C 107.86719 2304.5336 114.93294 2314.7996 131.59961 2317.5996 L 141.33398 2319.1992 C 150.40065 2320.6659 153.86719 2323.7342 153.86719 2330.2676 C 153.86719 2338.2676 148.66589 2342.666 139.19922 2342.666 C 130.93255 2342.666 122.53242 2339.1991 115.73242 2331.7324 L 104.13281 2344.5332 C 111.19948 2353.3332 123.06653 2358.9336 138.5332 2358.9336 C 161.86654 2358.9336 174.13281 2346.1327 174.13281 2328.666 C 174.13281 2313.9993 165.46654 2305.1999 150.5332 2302.5332 L 140.80078 2300.8008 C 131.73411 2299.2008 128 2296.4 128 2290 C 128 2282.6667 132.53346 2278.9336 141.4668 2278.9336 C 149.8668 2278.9336 156.79909 2282.2658 161.73242 2287.7324 L 173.06641 2275.0664 C 166.53307 2267.4664 155.60065 2262.666 141.33398 2262.666 z M 525.86719 2264.2676 L 525.86719 2280.4004 C 525.86719 2286.5337 523.59909 2288.5332 517.73242 2288.5332 L 505.59961 2288.5332 L 505.59961 2303.8672 L 524.26758 2303.8672 L 524.26758 2337.4668 C 524.26758 2349.0668 531.06732 2357.334 545.33398 2357.334 L 570.80078 2357.334 L 570.80078 2342 L 544 2342 L 544 2303.8672 L 570.80078 2303.8672 L 570.80078 2288.5332 L 544 2288.5332 L 544 2264.2676 L 525.86719 2264.2676 z M 321.86719 2275.334 C 315.33385 2275.334 311.33398 2279.3327 311.33398 2284.666 L 311.33398 2288.4004 C 307.73398 2287.4671 303.59922 2286.9336 299.19922 2286.9336 C 281.19922 2286.9336 269.33398 2295.4668 269.33398 2311.4668 C 269.33398 2321.6001 274.13424 2328.7993 282.26758 2332.666 L 282.26758 2333.4668 C 274.80091 2335.2001 269.86719 2337.9993 269.86719 2344.666 C 269.86719 2350.666 273.60013 2353.7335 279.4668 2355.4668 L 279.4668 2356.2676 C 271.20013 2358.4009 266.26758 2361.9991 266.26758 2369.7324 C 266.26758 2379.0658 273.46628 2385.5996 299.59961 2385.5996 C 325.73294 2385.5996 337.73242 2378.8009 337.73242 2364.2676 C 337.73242 2352.6676 330.13372 2344.4004 310.40039 2344.4004 L 294.66602 2344.4004 C 289.19935 2344.4004 284.5332 2344.1324 284.5332 2339.7324 C 284.5332 2337.3324 286 2335.7327 288 2334.666 C 291.33333 2335.5993 295.19922 2336 299.19922 2336 C 317.33255 2336 329.33398 2327.3335 329.33398 2311.4668 C 329.33398 2301.7335 324.93346 2294.8003 317.4668 2290.9336 L 317.4668 2289.7324 L 334 2289.7324 L 334 2275.334 L 321.86719 2275.334 z M 2010.1152 2275.8262 C 2021.6407 2276.0862 2033.3635 2281.5771 2040.4219 2291.8496 C 2042.4219 2294.7549 2044.0682 2297.812 2045.4375 2301 C 2045.4215 2301.14 2045.2925 2302.8537 2044.7031 2305.8164 C 2042.8605 2315.0617 2036.8645 2334.713 2018.3125 2344.041 C 2006.1672 2350.1557 1994.235 2347.4536 1985.875 2339.3496 C 1977.511 2331.2403 1972.8798 2317.5678 1976.7598 2301.3691 C 1980.5784 2285.4265 1992.2138 2277.4578 2005.2031 2276.0352 C 2006.8275 2275.8575 2008.4687 2275.789 2010.1152 2275.8262 z M 389.4668 2286.9336 C 378.40013 2286.9336 372.26589 2293.3331 369.19922 2301.0664 L 368.40039 2301.0664 L 368.40039 2288.5332 L 348.66602 2288.5332 L 348.66602 2357.334 L 368.40039 2357.334 L 368.40039 2312.1328 C 368.40039 2305.4661 374.39987 2302.1328 380.5332 2302.1328 C 388.26654 2302.1328 392.13281 2306.8001 392.13281 2315.4668 L 392.13281 2357.334 L 411.86719 2357.334 L 411.86719 2312.8008 C 411.86719 2296.1341 402.6668 2286.9336 389.4668 2286.9336 z M 458.66602 2286.9336 C 443.33268 2286.9336 433.33411 2292.6671 428.80078 2300.4004 L 439.59961 2310 C 443.33294 2304.9333 448.13372 2301.334 456.40039 2301.334 C 465.46706 2301.334 468.93359 2305.5991 468.93359 2313.7324 L 468.93359 2317.1992 L 457.86719 2317.1992 C 437.73385 2317.1992 426.93359 2324.0004 426.93359 2338.4004 C 426.93359 2351.3337 435.73307 2358.9336 449.06641 2358.9336 C 459.59974 2358.9336 467.6 2354.1326 470 2345.1992 L 470.66602 2345.1992 C 471.46602 2352.9326 476.80026 2357.334 484.93359 2357.334 L 496.26758 2357.334 L 496.26758 2343.0664 L 488.66602 2343.0664 L 488.66602 2312.9336 C 488.66602 2295.6003 477.46602 2286.9336 458.66602 2286.9336 z M 779.73242 2286.9336 C 759.06576 2286.9336 746.26758 2300.6659 746.26758 2323.1992 C 746.26758 2345.1992 758.40013 2358.9336 781.4668 2358.9336 C 796.2668 2358.9336 805.60026 2353.3341 810.93359 2346.8008 L 800.26758 2335.1992 C 796.00091 2340.2659 790.26615 2343.7324 782.13281 2343.7324 C 771.59948 2343.7324 765.86719 2337.7336 765.86719 2328.9336 L 765.86719 2327.7324 L 812.93359 2327.7324 L 812.93359 2321.8672 C 812.93359 2300.4005 800.26575 2286.9336 779.73242 2286.9336 z M 859.59961 2286.9336 C 849.59961 2286.9336 845.59961 2292 845.59961 2298 L 845.59961 2302.666 C 845.59961 2308.666 849.59961 2313.7324 859.59961 2313.7324 C 869.59961 2313.7324 873.59961 2308.666 873.59961 2302.666 L 873.59961 2298 C 873.59961 2292 869.59961 2286.9336 859.59961 2286.9336 z M 192.5332 2288.5332 L 192.5332 2303.8672 L 214.40039 2303.8672 L 214.40039 2342 L 192.5332 2342 L 192.5332 2357.334 L 254.40039 2357.334 L 254.40039 2342 L 234.13281 2342 L 234.13281 2288.5332 L 192.5332 2288.5332 z M 588.13281 2288.5332 L 588.13281 2333.0664 C 588.13281 2349.7331 597.3332 2358.9336 610.5332 2358.9336 C 621.59987 2358.9336 627.73411 2352.5341 630.80078 2344.8008 L 631.59961 2344.8008 L 631.59961 2357.334 L 651.33398 2357.334 L 651.33398 2288.5332 L 631.59961 2288.5332 L 631.59961 2333.7324 C 631.59961 2340.3991 625.60013 2343.7324 619.4668 2343.7324 C 611.73346 2343.7324 607.86719 2339.0671 607.86719 2330.4004 L 607.86719 2288.5332 L 588.13281 2288.5332 z M 669.4668 2288.5332 L 669.4668 2303.8672 L 685.33398 2303.8672 L 685.33398 2342 L 669.4668 2342 L 669.4668 2357.334 L 727.73242 2357.334 L 727.73242 2342 L 705.06641 2342 L 705.06641 2321.5996 C 705.06641 2313.3329 710.13385 2306.666 719.86719 2306.666 L 734.5332 2306.666 L 734.5332 2288.5332 L 728 2288.5332 C 714.4 2288.5332 708.53333 2297.8667 706 2308 L 705.06641 2308 L 705.06641 2288.5332 L 669.4668 2288.5332 z M 299.19922 2299.4668 C 307.06589 2299.4668 310.66602 2303.8672 310.66602 2309.8672 L 310.66602 2313.0664 C 310.66602 2319.0664 307.06589 2323.4668 299.19922 2323.4668 C 291.46589 2323.4668 288 2319.0664 288 2313.0664 L 288 2309.8672 C 288 2303.8672 291.46589 2299.4668 299.19922 2299.4668 z M 779.86719 2301.0664 C 788.40052 2301.0664 793.59961 2306.6663 793.59961 2315.5996 L 793.59961 2316.666 L 765.86719 2316.666 L 765.86719 2315.5996 C 765.86719 2306.7996 771.33385 2301.0664 779.86719 2301.0664 z M 458.40039 2327.8672 L 468.93359 2327.8672 L 468.93359 2336.1328 C 468.93359 2342.5328 463.46654 2346 456.5332 2346 C 450.26654 2346 446.26758 2343.466 446.26758 2338.666 L 446.26758 2336 C 446.26758 2330.6667 450.53372 2327.8672 458.40039 2327.8672 z M 859.59961 2332.1328 C 849.59961 2332.1328 845.59961 2337.1992 845.59961 2343.1992 L 845.59961 2347.8672 C 845.59961 2353.8672 849.59961 2358.9336 859.59961 2358.9336 C 869.59961 2358.9336 873.59961 2353.8672 873.59961 2347.8672 L 873.59961 2343.1992 C 873.59961 2337.1992 869.59961 2332.1328 859.59961 2332.1328 z M 285.19922 2360 L 308.80078 2360 C 316.80078 2360 319.06641 2362.1324 319.06641 2365.7324 C 319.06641 2370.3991 315.06615 2372.9336 306.13281 2372.9336 L 294.5332 2372.9336 C 285.86654 2372.9336 282.5332 2369.8663 282.5332 2365.5996 C 282.5332 2363.3329 283.46589 2361.4667 285.19922 2360 z M 987.4668 2371.4668 L 987.4668 2378.4004 L 1051.4668 2378.4004 L 1051.4668 2371.4668 L 987.4668 2371.4668 z M 1067.4668 2371.4668 L 1067.4668 2378.4004 L 1131.4668 2378.4004 L 1131.4668 2371.4668 L 1067.4668 2371.4668 z M 1147.4668 2371.4668 L 1147.4668 2378.4004 L 1211.4668 2378.4004 L 1211.4668 2371.4668 L 1147.4668 2371.4668 z M 1227.4668 2371.4668 L 1227.4668 2378.4004 L 1291.4668 2378.4004 L 1291.4668 2371.4668 L 1227.4668 2371.4668 z M 1307.4668 2371.4668 L 1307.4668 2378.4004 L 1371.4668 2378.4004 L 1371.4668 2371.4668 L 1307.4668 2371.4668 z M 1387.4668 2371.4668 L 1387.4668 2378.4004 L 1451.4668 2378.4004 L 1451.4668 2371.4668 L 1387.4668 2371.4668 z M 1467.0664 2371.4668 L 1467.0664 2378.4004 L 1531.0664 2378.4004 L 1531.0664 2371.4668 L 1467.0664 2371.4668 z M 1547.0664 2371.4668 L 1547.0664 2378.4004 L 1611.0664 2378.4004 L 1611.0664 2371.4668 L 1547.0664 2371.4668 z M 1627.0664 2371.4668 L 1627.0664 2378.4004 L 1691.0664 2378.4004 L 1691.0664 2371.4668 L 1627.0664 2371.4668 z M 1707.0664 2371.4668 L 1707.0664 2378.4004 L 1771.0664 2378.4004 L 1771.0664 2371.4668 L 1707.0664 2371.4668 z M 1867.0664 2371.4668 L 1867.0664 2378.4004 L 1931.0664 2378.4004 L 1931.0664 2371.4668 L 1867.0664 2371.4668 z M 1947.0664 2371.4668 L 1947.0664 2378.4004 L 2011.0664 2378.4004 L 2011.0664 2371.4668 L 1947.0664 2371.4668 z M 2106.666 2371.4668 L 2106.666 2378.4004 L 2170.666 2378.4004 L 2170.666 2371.4668 L 2106.666 2371.4668 z "
         transform="matrix(0.75000002,0,0,0.75000002,0,-3.4368424e-5)" /></g></g></svg>
