<?xml version="1.0" encoding="UTF-8" standalone="no"?>
<svg
   xmlns:svg="http://www.w3.org/2000/svg"
   xmlns="http://www.w3.org/2000/svg"
   xmlns:sodipodi="http://sodipodi.sourceforge.net/DTD/sodipodi-0.dtd"
   xmlns:inkscape="http://www.inkscape.org/namespaces/inkscape"
   inkscape:version="1.1-dev (1:0.92.0+devel+202005110039+9ce7266)"
   sodipodi:docname="04.svg"
   version="1.1"
   id="svg967"
   xml:space="preserve"
   width="2527.5789"
   height="2526.3159"
   viewBox="0 0 2527.5789 2526.3159"><sodipodi:namedview
     inkscape:current-layer="svg967"
     inkscape:window-maximized="0"
     inkscape:window-y="30"
     inkscape:window-x="0"
     inkscape:cy="1263.158"
     inkscape:cx="1263.7894"
     inkscape:zoom="0.26956249"
     showgrid="false"
     id="namedview7"
     inkscape:window-height="480"
     inkscape:window-width="796"
     inkscape:pageshadow="2"
     inkscape:pageopacity="0"
     guidetolerance="10"
     gridtolerance="10"
     objecttolerance="10"
     borderopacity="1"
     bordercolor="#666666"
     pagecolor="#ffffff" /><defs
     id="defs971" /><g
     style="fill:#625970;fill-opacity:1"
     id="g973"
     transform="matrix(1.3333333,0,0,1.3333333,0,4.5824564e-5)"><g
       style="fill:#625970;fill-opacity:1"
       id="g975"><path
         d="m 863.363,1848.031 c -4.64,-3.648 -4.383,-11.109 0.489,-14.277 1.593,-1.035 8.566,-1.953 23.136,-3.051 89.938,-6.777 130.653,-11.164 166.11,-17.898 41.234,-7.828 130.472,-28.473 130.308,-30.149 -0.031,-0.363 -6.851,-5.453 -15.144,-11.304 -29.754,-20.997 -55.821,-43.352 -73.203,-62.786 -5.899,-6.593 -13.563,-14.281 -17.028,-17.082 -21.773,-17.597 -57.953,-34.8 -95.949,-45.617 -12.117,-3.449 -16.137,-5.019 -17.867,-6.972 -3.203,-3.614 -2.91,-7.848 0.801,-11.559 2.765,-2.766 3.445,-2.981 7.695,-2.445 13.383,1.691 51.547,15.386 75.184,26.98 27.886,13.68 34.941,18.941 62.574,46.68 29.156,29.265 50.601,46.859 86.058,70.605 17.942,12.012 18.727,12.739 18.727,17.293 0,4.754 -2.66,7.492 -9.192,9.446 -8.39,2.515 -70.992,17.89 -92.613,22.746 -74.547,16.75 -98.441,20.027 -210.64,28.879 -38.243,3.015 -36.297,2.988 -39.446,0.511 z m -686.109,-62.824 c -7.363,-4.961 -7.426,-15.254 -0.129,-20.199 2.02,-1.367 7.918,-4.992 13.105,-8.055 21.825,-12.871 36.512,-26.988 47.43,-45.586 13.297,-22.648 30.543,-55.621 86.051,-164.547 21.648,-42.484 42.539,-82.933 46.414,-89.886 25.887,-46.403 56.309,-91.809 88.656,-132.329 9.574,-11.992 11.742,-15.507 20.516,-33.273 16.808,-34.039 38.66,-89.039 63.117,-158.875 4.012,-11.453 8.133,-21.957 9.164,-23.344 1.031,-1.386 3.606,-3.101 5.727,-3.812 7.675,-2.567 16.304,3.457 16.312,11.394 0.012,8.235 -43.156,123.516 -62.047,165.7 -14.195,31.703 -19.984,41.609 -36.277,62.078 -28.566,35.89 -58.402,80.554 -81.934,122.664 -4.273,7.648 -24.511,46.758 -44.972,86.91 -52.895,103.797 -76.84,149.672 -89.168,170.836 -12.809,21.984 -33.852,41.523 -61.239,56.863 -11.535,6.461 -15.332,7.094 -20.726,3.461 z m 608.754,-24.09 c -5.227,-2.859 -5.715,-10.484 -0.953,-14.773 1.968,-1.774 6.757,-2.004 84.058,-4.071 45.082,-1.207 82.192,-2.41 82.461,-2.683 1.266,-1.266 -54.25,-16.738 -82.699,-23.051 -35.266,-7.824 -121.617,-24.289 -146.605,-27.953 -6.79,-0.996 -10.047,-4.039 -10.047,-9.391 0,-3.347 0.554,-4.664 2.765,-6.562 1.52,-1.309 3.782,-2.379 5.024,-2.379 5.625,0 89.027,15.281 130.722,23.949 53.524,11.129 102.922,25.199 138.954,39.574 17.449,6.961 18.886,8.024 18.941,14.008 0.035,3.492 -0.957,5.379 -4.024,7.672 -1.128,0.844 -27.894,1.867 -94.855,3.625 -51.305,1.348 -99.539,2.684 -107.188,2.969 -11.07,0.414 -14.445,0.222 -16.554,-0.934 z M 1803.75,1610.762 c -5.375,-2.489 -6.629,-4.008 -25.859,-31.391 -95.047,-135.332 -206.758,-287.992 -264.243,-361.113 -39.906,-50.754 -66.257,-89.879 -98.96,-146.926 -31.969,-55.766 -72.446,-136.426 -94.696,-188.719 -3.609,-8.48 -3.652,-14.129 -0.156,-20.101 5.144,-8.774 16.613,-11.246 25.355,-5.461 2.114,1.398 4.532,4.035 5.371,5.859 0.844,1.824 6.766,14.938 13.165,29.141 22.902,50.859 56.796,117.211 83.707,163.883 32.257,55.945 56.832,91.972 101.625,148.988 41.671,53.035 129.839,172.848 210.132,285.555 65.809,92.371 69.707,98.136 69.836,103.296 0.164,6.438 -4.941,14.106 -11.332,17.008 -5.086,2.309 -8.925,2.305 -13.945,0 z m -664.617,-119.746 c -1.137,-0.801 -2.633,-2.809 -3.321,-4.473 -1.957,-4.719 0.051,-7.926 9.747,-15.586 23.453,-18.523 52.179,-44.785 59.332,-54.234 9.402,-12.43 15.785,-29.535 18.894,-50.633 2.02,-13.719 1.449,-50.129 -1.027,-65.817 -2.625,-16.597 -6.563,-35.175 -9.676,-45.671 -11.687,-39.375 -47.113,-103.477 -86.254,-156.075 -11.168,-15.011 -11.89,-16.211 -11.89,-19.757 0,-3.59 4.964,-8.434 8.64,-8.434 4.293,0 6.258,1.871 16.449,15.637 41.34,55.851 74.95,115.851 88.602,158.179 9.402,29.157 14.43,62.227 14.48,95.254 0.055,35.715 -6.48,62.586 -20.269,83.328 -7.137,10.739 -33.063,35.625 -58.926,56.571 -16.91,13.695 -19.918,15.113 -24.781,11.711 z m -101.953,-44.254 c -3.313,-2.606 -4.25,-6.946 -2.309,-10.696 0.891,-1.726 4.348,-4.628 8.508,-7.14 3.851,-2.328 8.801,-5.856 10.996,-7.84 l 3.992,-3.609 -2.476,-6.043 c -3.403,-8.293 -4.032,-15.243 -2.176,-24.02 6.594,-31.168 38.14,-44.191 57.133,-23.586 7.504,8.137 11.011,18.738 11.031,33.309 0.019,15.375 -4.391,27.57 -12.563,34.746 -8.386,7.363 -27.039,13.648 -46.812,15.777 -15.781,1.699 -22.316,1.469 -25.324,-0.898 z m -230.414,-38.715 c -4.383,-3.457 -5.461,-6.668 -8.629,-25.727 -4.735,-28.508 -8.645,-42.234 -16.426,-57.715 -6.981,-13.886 -13.527,-22.238 -26.66,-34.011 -8.535,-7.653 -8.981,-7.914 -9.785,-5.742 -4.258,11.515 -6.012,53.843 -3.317,79.98 3.113,30.156 3.106,28.797 0.199,31.703 -3.46,3.461 -7.453,3.301 -14.753,-0.59 -16.793,-8.949 -23.61,-27.347 -19.274,-51.988 3.832,-21.789 17.879,-64.535 23.004,-70.023 l 2.336,-2.5 -9.32,-6.934 c -16.856,-12.539 -29.266,-17.387 -44.438,-17.348 -16.808,0.047 -35.773,6.641 -62.961,21.918 -7.695,4.325 -14.762,7.86 -15.707,7.86 -4.82,0 -8.465,-3.981 -8.512,-9.285 -0.039,-4.676 2.372,-7.145 15.313,-15.696 20.418,-13.488 53.187,-26.836 78.023,-31.781 16.395,-3.262 40.727,-3.273 52.071,-0.047 18.05,5.168 29.492,14.027 41.265,31.961 21.461,32.684 44.246,98.074 46.375,133.094 0.672,11.004 -0.511,16.574 -4.465,20.996 -3.71,4.152 -10.343,5.012 -14.339,1.859 z m 468.5,-115.109 c -1.68,-1.028 -3.637,-3.27 -4.348,-4.981 -1.621,-3.91 -0.813,-10.512 1.613,-13.199 1,-1.11 7.301,-4.621 13.996,-7.801 26.672,-12.668 45.153,-26.762 54.93,-41.891 3.863,-5.976 3.91,-6.168 3.906,-15.582 0,-24.816 -14.722,-71.796 -50.687,-161.992 -6.43,-16.113 -21.719,-54.105 -33.977,-84.426 -39.875,-98.601 -47.922,-119.906 -60.957,-161.402 -25.203,-80.23 -56.113,-200.246 -89.269,-346.641 -17.45,-77.027 -38.246,-174.238 -38.246,-178.765 0,-12.024 17.707,-16.383 23.218,-5.719 0.774,1.496 3.039,10.543 5.035,20.106 39.579,189.695 83.223,369.929 116.282,480.23 15.234,50.832 25.355,78.773 56.293,155.395 40.418,100.117 57.3,142.531 65.644,164.925 28.371,76.157 37.235,116.993 29.696,136.832 -8.235,21.672 -37.817,47.028 -73.286,62.817 -9.925,4.418 -15.129,4.968 -19.843,2.094 z m -746.68,-176.965 c -3.106,-2.446 -5.039,-8.856 -4.129,-13.7 1.699,-9.062 9.199,-19.91 24.711,-35.738 31.891,-32.543 77.539,-63.594 108.879,-74.066 25.601,-8.559 57.363,-9.735 92.867,-3.446 12.867,2.278 29.672,6.52 33.492,8.454 6.758,3.418 6.192,13.621 -0.898,16.316 -1.828,0.695 -4.832,0.297 -11.57,-1.527 -12.149,-3.289 -21.895,-5.297 -34.196,-7.036 l -10.195,-1.441 -13.149,6.582 c -36.847,18.441 -60.324,34.356 -69.941,47.399 -8.012,10.871 -14.641,26.21 -16.672,38.597 -1.183,7.235 -9.941,10.336 -14.976,5.301 -1.903,-1.898 -2.438,-3.469 -2.438,-7.137 0,-10.414 6.871,-28.312 16.293,-42.453 9.129,-13.703 20.492,-23.797 40.973,-36.406 6.472,-3.984 13.105,-8.094 14.746,-9.133 l 2.976,-1.894 -4.921,0.656 c -13.504,1.804 -32.204,9.41 -50.7,20.617 -31.695,19.211 -68.582,50.422 -81.758,69.18 -4.66,6.636 -5.148,7.843 -5.148,12.687 0,4.36 -0.453,5.805 -2.437,7.789 -3.067,3.067 -8.2,3.238 -11.809,0.399 z M 616.539,960.52 C 611.906,957.273 608.652,947.637 606,929.297 599.984,887.684 595.449,804.82 593.465,700.172 c -2.27,-119.633 3.152,-165.942 21.293,-181.871 6.554,-5.754 10.574,-3.91 20.66,9.48 28.027,37.211 44.324,82.832 48.516,135.824 3.117,39.387 -3.77,107.79 -17.957,178.368 -12.872,64.043 -26.883,110.011 -35.821,117.535 -3.582,3.012 -10.074,3.492 -13.617,1.012 z m 15.246,-52.25 c 21.176,-74.571 37.195,-182.325 34.746,-233.739 -1.84,-38.652 -10.332,-73.117 -25.453,-103.297 -7.199,-14.375 -17.543,-30.765 -19.285,-30.562 -1.438,0.164 -5.203,14.98 -6.883,27.086 -3.269,23.551 -3.82,42.82 -3.242,113.726 0.555,68.391 1.172,90.278 4.184,148.489 2.187,42.308 5.679,84.578 8.117,98.316 l 0.617,3.457 1.391,-3.957 c 0.761,-2.176 3.378,-10.961 5.808,-19.519 z M 380.273,314.418 c -4.402,-2.18 -7.285,-6.645 -7.285,-11.281 0,-1.457 23.426,-49.157 53.293,-108.516 39.121,-77.75 52.793,-105.781 51.403,-105.406 -1.043,0.285 -85.403,32.09 -187.469,70.68 -141.723,53.582 -186.59,70.16 -189.883,70.16 -10.656,0 -15.828,-13.457 -8.047,-20.946 1.492,-1.433 39.957,-16.461 107,-41.8 57.57,-21.762 149.59,-56.555 204.492,-77.317 C 458.68,69.23 504.625,52.25 505.883,52.254 c 3.183,0.016 7.586,2.465 10.043,5.59 4.679,5.949 6.707,1.402 -58.637,131.394 -33.391,66.426 -61.629,121.782 -62.75,123.008 -1.637,1.801 -7.105,4.192 -9.633,4.215 -0.273,0.004 -2.359,-0.918 -4.633,-2.043 z"
         style="fill:#625970;fill-opacity:1;fill-rule:nonzero;stroke:none"
         id="path977" /></g></g></svg>
