<?xml version="1.0" encoding="UTF-8" standalone="no"?>
<svg
   xmlns:svg="http://www.w3.org/2000/svg"
   xmlns="http://www.w3.org/2000/svg"
   xmlns:sodipodi="http://sodipodi.sourceforge.net/DTD/sodipodi-0.dtd"
   xmlns:inkscape="http://www.inkscape.org/namespaces/inkscape"
   inkscape:version="1.1-dev (1:0.92.0+devel+202005110039+9ce7266)"
   sodipodi:docname="04a.svg"
   version="1.1"
   id="svg1101"
   xml:space="preserve"
   width="2527.5789"
   height="2526.3159"
   viewBox="0 0 2527.5789 2526.3159"><sodipodi:namedview
     inkscape:current-layer="svg1101"
     inkscape:window-maximized="0"
     inkscape:window-y="30"
     inkscape:window-x="0"
     inkscape:cy="1263.158"
     inkscape:cx="1263.7894"
     inkscape:zoom="0.26956249"
     showgrid="false"
     id="namedview828"
     inkscape:window-height="480"
     inkscape:window-width="796"
     inkscape:pageshadow="2"
     inkscape:pageopacity="0"
     guidetolerance="10"
     gridtolerance="10"
     objecttolerance="10"
     borderopacity="1"
     bordercolor="#666666"
     pagecolor="#ffffff" /><defs
     id="defs1105" /><g
     style="fill:#625970;fill-opacity:1"
     id="g1107"
     transform="matrix(1.3333333,0,0,1.3333333,0,4.5824564e-5)"><path
       id="path4477"
       style="font-variant:normal;font-weight:normal;font-size:100px;font-family:'IBM Plex Mono';-inkscape-font-specification:IBMPlexMono;writing-mode:lr-tb;fill:#625970;fill-opacity:1;fill-rule:nonzero;stroke:none;stroke-width:1.33333"
       d="M 699.73242 96 C 677.06576 96 667.19922 113.73281 667.19922 144.13281 C 667.19922 174.53281 677.06576 192.26758 699.73242 192.26758 C 722.39909 192.26758 732.26758 174.53281 732.26758 144.13281 C 732.26758 113.73281 722.39909 96 699.73242 96 z M 108.13281 97.599609 L 108.13281 190.66602 L 125.19922 190.66602 L 125.19922 128.80078 L 126.66602 128.80078 L 147.86719 190.66602 L 171.86719 190.66602 L 171.86719 97.599609 L 154.80078 97.599609 L 154.80078 159.4668 L 153.33398 159.4668 L 132.13281 97.599609 L 108.13281 97.599609 z M 595.73242 97.599609 L 595.73242 190.66602 L 651.06641 190.66602 L 651.06641 180.93359 L 606.93359 180.93359 L 606.93359 97.599609 L 595.73242 97.599609 z M 744.5332 97.599609 L 772.13281 190.66602 L 787.33398 190.66602 L 814.93359 97.599609 L 803.4668 97.599609 L 790.26758 144.13281 L 780.26758 179.33398 L 779.59961 179.33398 L 769.59961 144.13281 L 756.40039 97.599609 L 744.5332 97.599609 z M 699.73242 105.73438 C 714.53242 105.73438 720.40039 117.86654 720.40039 136.5332 L 720.40039 151.73438 C 720.40039 170.40104 714.53242 182.5332 699.73242 182.5332 C 684.93242 182.5332 679.06641 170.40104 679.06641 151.73438 L 679.06641 136.5332 C 679.06641 117.86654 684.93242 105.73438 699.73242 105.73438 z M 218.66602 120.26758 C 203.33268 120.26758 193.33411 126.00104 188.80078 133.73438 L 199.59961 143.33398 C 203.33294 138.26732 208.13372 134.66602 216.40039 134.66602 C 225.46706 134.66602 228.93359 138.93307 228.93359 147.06641 L 228.93359 150.5332 L 217.86719 150.5332 C 197.73385 150.5332 186.93359 157.33438 186.93359 171.73438 C 186.93359 184.66771 195.73307 192.26758 209.06641 192.26758 C 219.59974 192.26758 227.6 187.46654 230 178.5332 L 230.66602 178.5332 C 231.46602 186.26654 236.80026 190.66602 244.93359 190.66602 L 256.26758 190.66602 L 256.26758 176.40039 L 248.66602 176.40039 L 248.66602 146.26758 C 248.66602 128.93425 237.46602 120.26758 218.66602 120.26758 z M 293.86719 120.26758 C 286.53385 120.26758 282.93411 125.6 280.80078 132 L 279.86719 132 L 279.86719 121.86719 L 264 121.86719 L 264 190.66602 L 279.86719 190.66602 L 279.86719 141.59961 C 279.86719 136.93294 282.66758 134.80078 286.26758 134.80078 C 289.73424 134.80078 292 137.0668 292 143.4668 L 292 190.66602 L 308 190.66602 L 308 141.59961 C 308 136.93294 310.79948 134.80078 314.13281 134.80078 C 317.73281 134.80078 320.13281 137.0668 320.13281 143.4668 L 320.13281 190.66602 L 336 190.66602 L 336 141.4668 C 336 127.33346 331.19961 120.26758 321.59961 120.26758 C 313.06628 120.26758 309.20026 125.73333 306.93359 132 L 306.13281 132 C 304.66615 124.4 300.40052 120.26758 293.86719 120.26758 z M 380.13281 120.26758 C 359.46615 120.26758 346.66602 133.99987 346.66602 156.5332 C 346.66602 178.5332 358.80052 192.26758 381.86719 192.26758 C 396.66719 192.26758 406.00065 186.66615 411.33398 180.13281 L 400.66602 168.5332 C 396.39935 173.59987 390.66654 177.06641 382.5332 177.06641 C 371.99987 177.06641 366.26758 171.06758 366.26758 162.26758 L 366.26758 161.06641 L 413.33398 161.06641 L 413.33398 155.19922 C 413.33398 133.73255 400.66615 120.26758 380.13281 120.26758 z M 460 120.26758 C 450 120.26758 446 125.33398 446 131.33398 L 446 136 C 446 142 450 147.06641 460 147.06641 C 470 147.06641 474 142 474 136 L 474 131.33398 C 474 125.33398 470 120.26758 460 120.26758 z M 380.26758 134.40039 C 388.80091 134.40039 394 140.00026 394 148.93359 L 394 150 L 366.26758 150 L 366.26758 148.93359 C 366.26758 140.13359 371.73425 134.40039 380.26758 134.40039 z M 218.40039 161.19922 L 228.93359 161.19922 L 228.93359 169.4668 C 228.93359 175.8668 223.46654 179.33398 216.5332 179.33398 C 210.26654 179.33398 206.26758 176.8 206.26758 172 L 206.26758 169.33398 C 206.26758 164.00065 210.53372 161.19922 218.40039 161.19922 z M 460 165.4668 C 450 165.4668 446 170.5332 446 176.5332 L 446 181.19922 C 446 187.19922 450 192.26758 460 192.26758 C 470 192.26758 474 187.19922 474 181.19922 L 474 176.5332 C 474 170.5332 470 165.4668 460 165.4668 z M 619.73242 262.66602 C 597.06576 262.66602 587.19922 280.40078 587.19922 310.80078 C 587.19922 341.20078 597.06576 358.93359 619.73242 358.93359 C 642.39909 358.93359 652.26758 341.20078 652.26758 310.80078 C 652.26758 280.40078 642.39909 262.66602 619.73242 262.66602 z M 125.86719 264.26758 L 100.66602 357.33398 L 120.93359 357.33398 L 126.66602 334.93359 L 152.13281 334.93359 L 158 357.33398 L 179.33398 357.33398 L 154.13281 264.26758 L 125.86719 264.26758 z M 508.40039 264.26758 L 508.40039 291.19922 L 518.40039 291.19922 L 518.40039 273.86719 L 559.19922 273.86719 L 522.80078 357.33398 L 534.80078 357.33398 L 570.5332 274.13281 L 570.5332 264.26758 L 508.40039 264.26758 z M 619.73242 272.40039 C 634.66575 272.40039 640.66602 284.53255 640.66602 303.19922 L 640.66602 318.40039 C 640.66602 337.06706 634.66575 349.19922 619.73242 349.19922 C 604.79909 349.19922 598.80078 337.06706 598.80078 318.40039 L 598.80078 303.19922 C 598.80078 284.53255 604.79909 272.40039 619.73242 272.40039 z M 241.86719 275.33398 C 235.33385 275.33398 231.33398 279.33268 231.33398 284.66602 L 231.33398 288.40039 C 227.73398 287.46706 223.59922 286.93359 219.19922 286.93359 C 201.19922 286.93359 189.33398 295.4668 189.33398 311.4668 C 189.33398 321.60013 194.13424 328.79935 202.26758 332.66602 L 202.26758 333.4668 C 194.80091 335.20013 189.86719 337.99935 189.86719 344.66602 C 189.86719 350.66602 193.60013 353.73346 199.4668 355.4668 L 199.4668 356.26758 C 191.20013 358.40091 186.26758 362.00104 186.26758 369.73438 C 186.26758 379.06771 193.46628 385.59961 219.59961 385.59961 C 245.73294 385.59961 257.73242 378.80091 257.73242 364.26758 C 257.73242 352.66758 250.13372 344.40039 230.40039 344.40039 L 214.66602 344.40039 C 209.19935 344.40039 204.5332 344.13437 204.5332 339.73438 C 204.5332 337.33438 206 335.73268 208 334.66602 C 211.33333 335.59935 215.19922 336 219.19922 336 C 237.33255 336 249.33398 327.33346 249.33398 311.4668 C 249.33398 301.73346 244.93346 294.80026 237.4668 290.93359 L 237.4668 289.73438 L 254 289.73438 L 254 275.33398 L 241.86719 275.33398 z M 138.93359 283.59961 L 140 283.59961 L 149.06641 318.80078 L 129.86719 318.80078 L 138.93359 283.59961 z M 300.13281 286.93359 C 279.46615 286.93359 266.66602 300.66589 266.66602 323.19922 C 266.66602 345.19922 278.80052 358.93359 301.86719 358.93359 C 316.66719 358.93359 326.00065 353.33411 331.33398 346.80078 L 320.66602 335.19922 C 316.39935 340.26589 310.66654 343.73438 302.5332 343.73438 C 291.99987 343.73438 286.26758 337.73359 286.26758 328.93359 L 286.26758 327.73438 L 333.33398 327.73438 L 333.33398 321.86719 C 333.33398 300.40052 320.66615 286.93359 300.13281 286.93359 z M 380 286.93359 C 370 286.93359 366 292 366 298 L 366 302.66602 C 366 308.66602 370 313.73438 380 313.73438 C 390 313.73438 394 308.66602 394 302.66602 L 394 298 C 394 292 390 286.93359 380 286.93359 z M 219.19922 299.4668 C 227.06589 299.4668 230.66602 303.86719 230.66602 309.86719 L 230.66602 313.06641 C 230.66602 319.06641 227.06589 323.4668 219.19922 323.4668 C 211.46589 323.4668 208 319.06641 208 313.06641 L 208 309.86719 C 208 303.86719 211.46589 299.4668 219.19922 299.4668 z M 300.26758 301.06641 C 308.80091 301.06641 314 306.66628 314 315.59961 L 314 316.66602 L 286.26758 316.66602 L 286.26758 315.59961 C 286.26758 306.79961 291.73425 301.06641 300.26758 301.06641 z M 619.73242 302.93359 C 613.59909 302.93359 611.4668 305.73398 611.4668 309.33398 L 611.4668 312.26758 C 611.4668 315.86758 613.59909 318.66602 619.73242 318.66602 C 625.86576 318.66602 628 315.86758 628 312.26758 L 628 309.33398 C 628 305.73398 625.86576 302.93359 619.73242 302.93359 z M 380 332.13281 C 370 332.13281 366 337.19922 366 343.19922 L 366 347.86719 C 366 353.86719 370 358.93359 380 358.93359 C 390 358.93359 394 353.86719 394 347.86719 L 394 343.19922 C 394 337.19922 390 332.13281 380 332.13281 z M 205.19922 360 L 228.80078 360 C 236.80078 360 239.06641 362.13438 239.06641 365.73438 C 239.06641 370.40104 235.06615 372.93359 226.13281 372.93359 L 214.5332 372.93359 C 205.86654 372.93359 202.5332 369.86628 202.5332 365.59961 C 202.5332 363.33294 203.46589 361.46667 205.19922 360 z M 232.40039 425.33398 L 232.40039 467.73438 L 231.4668 467.73438 C 228.00013 459.46771 222.13307 453.59961 211.06641 453.59961 C 195.86641 453.59961 185.19922 464.66628 185.19922 489.59961 C 185.19922 514.53294 195.86641 525.59961 211.06641 525.59961 C 222.13307 525.59961 228.00013 519.73346 231.4668 511.4668 L 232.40039 511.4668 L 232.40039 524 L 252.13281 524 L 252.13281 425.33398 L 232.40039 425.33398 z M 312.40039 425.33398 L 312.40039 467.73438 L 311.4668 467.73438 C 308.00013 459.46771 302.13307 453.59961 291.06641 453.59961 C 275.86641 453.59961 265.19922 464.66628 265.19922 489.59961 C 265.19922 514.53294 275.86641 525.59961 291.06641 525.59961 C 302.13307 525.59961 308.00013 519.73346 311.4668 511.4668 L 312.40039 511.4668 L 312.40039 524 L 332.13281 524 L 332.13281 425.33398 L 312.40039 425.33398 z M 2031.5996 425.33398 L 2031.5996 524 L 2042.2676 524 L 2042.2676 512.80078 L 2042.8008 512.80078 C 2047.2008 521.20078 2054.4 525.59961 2064 525.59961 C 2080.8 525.59961 2090.9336 512.13294 2090.9336 489.59961 C 2090.9336 467.06628 2080.8 453.59961 2064 453.59961 C 2054.4 453.59961 2047.2008 458.00039 2042.8008 466.40039 L 2042.2676 466.40039 L 2042.2676 425.33398 L 2031.5996 425.33398 z M 2191.334 425.33398 L 2191.334 524 L 2202 524 L 2202 512.80078 L 2202.5332 512.80078 C 2206.9332 521.20078 2214.1324 525.59961 2223.7324 525.59961 C 2240.5324 525.59961 2250.666 512.13294 2250.666 489.59961 C 2250.666 467.06628 2240.5324 453.59961 2223.7324 453.59961 C 2214.1324 453.59961 2206.9332 458.00039 2202.5332 466.40039 L 2202 466.40039 L 2202 425.33398 L 2191.334 425.33398 z M 939.59961 429.33398 C 916.93294 429.33398 907.06641 447.0668 907.06641 477.4668 C 907.06641 507.8668 916.93294 525.59961 939.59961 525.59961 C 962.26628 525.59961 972.13281 507.8668 972.13281 477.4668 C 972.13281 447.0668 962.26628 429.33398 939.59961 429.33398 z M 1659.1992 429.33398 C 1636.5326 429.33398 1626.666 447.0668 1626.666 477.4668 C 1626.666 507.8668 1636.5326 525.59961 1659.1992 525.59961 C 1681.8659 525.59961 1691.7324 507.8668 1691.7324 477.4668 C 1691.7324 447.0668 1681.8659 429.33398 1659.1992 429.33398 z M 125.86719 430.93359 L 100.66602 524 L 120.93359 524 L 126.66602 501.59961 L 152.13281 501.59961 L 158 524 L 179.33398 524 L 154.13281 430.93359 L 125.86719 430.93359 z M 828.66602 430.93359 L 828.66602 524 L 838.93359 524 L 838.93359 477.33398 L 838.93359 447.86719 L 840 447.86719 L 859.59961 495.73438 L 879.19922 447.86719 L 880.26758 447.86719 L 880.26758 477.33398 L 880.26758 524 L 890.5332 524 L 890.5332 430.93359 L 876.66602 430.93359 L 860.26758 472 L 859.4668 472 L 843.06641 430.93359 L 828.66602 430.93359 z M 990.26758 430.93359 L 990.26758 524 L 1000.4004 524 L 1000.4004 445.19922 L 1001.334 445.19922 L 1033.0664 524 L 1048.9336 524 L 1048.9336 430.93359 L 1038.8008 430.93359 L 1038.8008 508.93359 L 1037.8672 508.93359 L 1006.1328 430.93359 L 990.26758 430.93359 z M 1071.5996 430.93359 L 1071.5996 524 L 1128.9336 524 L 1128.9336 514.26758 L 1082.8008 514.26758 L 1082.8008 481.73438 L 1127.334 481.73438 L 1127.334 472 L 1082.8008 472 L 1082.8008 440.66602 L 1128.9336 440.66602 L 1128.9336 430.93359 L 1071.5996 430.93359 z M 1141.8672 430.93359 L 1174 487.4668 L 1174 524 L 1185.1992 524 L 1185.1992 487.4668 L 1217.334 430.93359 L 1204.8008 430.93359 L 1191.4668 455.19922 L 1179.8672 476.40039 L 1179.334 476.40039 L 1168 455.19922 L 1154.666 430.93359 L 1141.8672 430.93359 z M 1308.2656 430.93359 L 1308.2656 524 L 1318.5332 524 L 1318.5332 477.33398 L 1318.5332 447.86719 L 1319.5996 447.86719 L 1339.1992 495.73438 L 1358.8008 447.86719 L 1359.8672 447.86719 L 1359.8672 477.33398 L 1359.8672 524 L 1370.1328 524 L 1370.1328 430.93359 L 1356.2676 430.93359 L 1339.8672 472 L 1339.0664 472 L 1322.666 430.93359 L 1308.2656 430.93359 z M 1389.8672 430.93359 L 1389.8672 484.13281 C 1389.8672 511.73281 1393.8659 525.59961 1419.1992 525.59961 C 1444.5326 525.59961 1448.5332 511.73281 1448.5332 484.13281 L 1448.5332 430.93359 L 1437.334 430.93359 L 1437.334 486.80078 C 1437.334 504.80078 1436.6659 515.86719 1419.1992 515.86719 C 1401.7326 515.86719 1401.0664 504.80078 1401.0664 486.80078 L 1401.0664 430.93359 L 1389.8672 430.93359 z M 1471.1992 430.93359 L 1471.1992 524 L 1482.4004 524 L 1482.4004 484.26758 L 1497.1992 484.26758 L 1519.8672 524 L 1532.4004 524 L 1508.666 483.73438 C 1523.466 482.26771 1531.5996 472.66771 1531.5996 457.73438 C 1531.5996 440.93438 1522.2664 430.93359 1505.0664 430.93359 L 1471.1992 430.93359 z M 1551.8672 430.93359 L 1551.8672 524 L 1577.8672 524 C 1600.5339 524 1611.7324 508.00013 1611.7324 477.4668 C 1611.7324 446.93346 1600.5339 430.93359 1577.8672 430.93359 L 1551.8672 430.93359 z M 1710.5332 430.93359 L 1710.5332 524 L 1721.7324 524 L 1721.7324 494.13281 L 1735.0664 478.40039 L 1763.1992 524 L 1776.2676 524 L 1742.666 470.13281 L 1775.334 430.93359 L 1761.8672 430.93359 L 1734.4004 464 L 1722.1328 479.4668 L 1721.7324 479.4668 L 1721.7324 430.93359 L 1710.5332 430.93359 z M 1878.1328 430.93359 L 1878.1328 440.66602 L 1911.7324 440.66602 L 1911.7324 497.86719 C 1911.7324 510.00052 1905.8658 515.73438 1895.7324 515.73438 C 1885.3324 515.73438 1881.2001 509.73424 1879.4668 502.26758 L 1868.8008 504.5332 C 1871.6008 517.86654 1881.3335 525.59961 1895.4668 525.59961 C 1911.6001 525.59961 1922.9336 515.60052 1922.9336 499.86719 L 1922.9336 430.93359 L 1878.1328 430.93359 z M 939.59961 439.06641 C 954.39961 439.06641 960.26758 451.20052 960.26758 469.86719 L 960.26758 485.06641 C 960.26758 503.73307 954.39961 515.86719 939.59961 515.86719 C 924.79961 515.86719 918.93359 503.73307 918.93359 485.06641 L 918.93359 469.86719 C 918.93359 451.20052 924.79961 439.06641 939.59961 439.06641 z M 1659.1992 439.06641 C 1673.9992 439.06641 1679.8672 451.20052 1679.8672 469.86719 L 1679.8672 485.06641 C 1679.8672 503.73307 1673.9992 515.86719 1659.1992 515.86719 C 1644.3992 515.86719 1638.5332 503.73307 1638.5332 485.06641 L 1638.5332 469.86719 C 1638.5332 451.20052 1644.3992 439.06641 1659.1992 439.06641 z M 1482.4004 440.66602 L 1504.8008 440.66602 C 1514.1341 440.66602 1519.7324 445.60091 1519.7324 454.26758 L 1519.7324 461.19922 C 1519.7324 469.86589 1514.1341 474.80078 1504.8008 474.80078 L 1482.4004 474.80078 L 1482.4004 440.66602 z M 1563.0664 440.66602 L 1577.334 440.66602 C 1592.134 440.66602 1599.8672 451.60091 1599.8672 470.26758 L 1599.8672 484.66602 C 1599.8672 503.33268 1592.134 514.26758 1577.334 514.26758 L 1563.0664 514.26758 L 1563.0664 440.66602 z M 138.93359 450.26758 L 140 450.26758 L 149.06641 485.4668 L 129.86719 485.4668 L 138.93359 450.26758 z M 460.13281 453.59961 C 439.46615 453.59961 426.66602 467.33385 426.66602 489.86719 C 426.66602 511.86719 438.80052 525.59961 461.86719 525.59961 C 476.66719 525.59961 486.00065 520.00013 491.33398 513.4668 L 480.66602 501.86719 C 476.39935 506.93385 470.66654 510.40039 462.5332 510.40039 C 451.99987 510.40039 446.26758 504.39961 446.26758 495.59961 L 446.26758 494.40039 L 493.33398 494.40039 L 493.33398 488.5332 C 493.33398 467.06654 480.66615 453.59961 460.13281 453.59961 z M 541.73242 453.59961 C 521.86576 453.59961 510.26758 462.26602 510.26758 476.66602 C 510.26758 489.73268 520.00091 494.93411 532.26758 496.80078 L 543.33398 498.5332 C 548.66732 499.3332 551.86719 500.53372 551.86719 504.40039 C 551.86719 509.33372 547.06732 511.73438 539.33398 511.73438 C 530.13398 511.73438 522.93294 508.26706 517.59961 502.40039 L 506.5332 512.66602 C 512.1332 520.66602 523.99922 525.59961 539.19922 525.59961 C 559.59922 525.59961 571.19922 516.53424 571.19922 502.26758 C 571.19922 489.20091 561.46641 483.99948 549.06641 482.13281 L 538.13281 480.40039 C 532.79948 479.60039 529.59961 478.40039 529.59961 474.40039 C 529.59961 469.86706 533.59974 467.4668 541.06641 467.4668 C 549.99974 467.4668 556.5332 470.93398 560.5332 475.33398 L 570.40039 464.13281 C 564.66706 457.46615 555.19909 453.59961 541.73242 453.59961 z M 621.73242 453.59961 C 601.86576 453.59961 590.26758 462.26602 590.26758 476.66602 C 590.26758 489.73268 600.00091 494.93411 612.26758 496.80078 L 623.33398 498.5332 C 628.66732 499.3332 631.86719 500.53372 631.86719 504.40039 C 631.86719 509.33372 627.06732 511.73438 619.33398 511.73438 C 610.13398 511.73438 602.93294 508.26706 597.59961 502.40039 L 586.5332 512.66602 C 592.1332 520.66602 603.99922 525.59961 619.19922 525.59961 C 639.59922 525.59961 651.19922 516.53424 651.19922 502.26758 C 651.19922 489.20091 641.46641 483.99948 629.06641 482.13281 L 618.13281 480.40039 C 612.79948 479.60039 609.59961 478.40039 609.59961 474.40039 C 609.59961 469.86706 613.59974 467.4668 621.06641 467.4668 C 629.99974 467.4668 636.5332 470.93398 640.5332 475.33398 L 650.40039 464.13281 C 644.66706 457.46615 635.19909 453.59961 621.73242 453.59961 z M 699.59961 453.59961 C 689.59961 453.59961 685.59961 458.66602 685.59961 464.66602 L 685.59961 469.33398 C 685.59961 475.33398 689.59961 480.40039 699.59961 480.40039 C 709.59961 480.40039 713.59961 475.33398 713.59961 469.33398 L 713.59961 464.66602 C 713.59961 458.66602 709.59961 453.59961 699.59961 453.59961 z M 1978.9336 453.59961 C 1959.6003 453.59961 1947.7324 467.73294 1947.7324 489.59961 C 1947.7324 511.46628 1959.6003 525.59961 1978.9336 525.59961 C 1998.2669 525.59961 2010.1328 511.46628 2010.1328 489.59961 C 2010.1328 467.73294 1998.2669 453.59961 1978.9336 453.59961 z M 349.86719 455.19922 L 349.86719 470.5332 L 365.73242 470.5332 L 365.73242 508.66602 L 349.86719 508.66602 L 349.86719 524 L 408.13281 524 L 408.13281 508.66602 L 385.4668 508.66602 L 385.4668 488.26758 C 385.4668 480.00091 390.53425 473.33398 400.26758 473.33398 L 414.93359 473.33398 L 414.93359 455.19922 L 408.40039 455.19922 C 394.80039 455.19922 388.93372 464.53268 386.40039 474.66602 L 385.4668 474.66602 L 385.4668 455.19922 L 349.86719 455.19922 z M 1978.9336 462.80078 C 1990.8003 462.80078 1998.8008 469.86602 1998.8008 484.66602 L 1998.8008 494.5332 C 1998.8008 509.3332 1990.8003 516.40039 1978.9336 516.40039 C 1967.0669 516.40039 1959.0664 509.3332 1959.0664 494.5332 L 1959.0664 484.66602 C 1959.0664 469.86602 1967.0669 462.80078 1978.9336 462.80078 z M 2059.8672 463.06641 C 2072.2672 463.06641 2079.4668 471.33438 2079.4668 483.73438 L 2079.4668 495.4668 C 2079.4668 507.8668 2072.2672 516.13281 2059.8672 516.13281 C 2050.4005 516.13281 2042.2676 511.2 2042.2676 502 L 2042.2676 477.19922 C 2042.2676 467.99922 2050.4005 463.06641 2059.8672 463.06641 z M 2219.5996 463.06641 C 2231.9996 463.06641 2239.1992 471.33438 2239.1992 483.73438 L 2239.1992 495.4668 C 2239.1992 507.8668 2231.9996 516.13281 2219.5996 516.13281 C 2210.1329 516.13281 2202 511.2 2202 502 L 2202 477.19922 C 2202 467.99922 2210.1329 463.06641 2219.5996 463.06641 z M 460.26758 467.73438 C 468.80091 467.73438 474 473.33425 474 482.26758 L 474 483.33398 L 446.26758 483.33398 L 446.26758 482.26758 C 446.26758 473.46758 451.73425 467.73438 460.26758 467.73438 z M 219.59961 468.93359 C 226.53294 468.93359 232.40039 472.2668 232.40039 479.4668 L 232.40039 499.73438 C 232.40039 506.93437 226.53294 510.26758 219.59961 510.26758 C 210.79961 510.26758 205.73242 504.53359 205.73242 494.93359 L 205.73242 484.26758 C 205.73242 474.66758 210.79961 468.93359 219.59961 468.93359 z M 299.59961 468.93359 C 306.53294 468.93359 312.40039 472.2668 312.40039 479.4668 L 312.40039 499.73438 C 312.40039 506.93437 306.53294 510.26758 299.59961 510.26758 C 290.79961 510.26758 285.73242 504.53359 285.73242 494.93359 L 285.73242 484.26758 C 285.73242 474.66758 290.79961 468.93359 299.59961 468.93359 z M 699.59961 498.80078 C 689.59961 498.80078 685.59961 503.86719 685.59961 509.86719 L 685.59961 514.5332 C 685.59961 520.5332 689.59961 525.59961 699.59961 525.59961 C 709.59961 525.59961 713.59961 520.5332 713.59961 514.5332 L 713.59961 509.86719 C 713.59961 503.86719 709.59961 498.80078 699.59961 498.80078 z M 881.86719 812 C 871.60052 812 865.73424 818.53294 864.26758 827.59961 L 861.86719 841.86719 L 837.33398 841.86719 L 835.86719 850.80078 L 860.40039 850.80078 L 847.33398 929.06641 L 844.93359 929.59961 L 824.40039 907.73438 L 817.33398 914.13281 L 825.4668 923.06641 C 836.13346 934.66641 839.99961 938.93359 845.59961 938.93359 C 853.59961 938.93359 857.20039 932.40026 858.40039 924.93359 L 870.80078 850.80078 L 898.66602 850.80078 L 900.13281 841.86719 L 872.26758 841.86719 L 875.73242 820.93359 L 903.4668 820.93359 L 904.93359 812 L 881.86719 812 z M 995.19922 812 L 993.73242 820.93359 L 1018 820.93359 L 1003.0664 898.5332 C 1002.7997 899.7332 1002.666 901.60078 1002.666 902.80078 C 1002.666 908.26745 1005.466 912.26758 1012.666 912.26758 C 1017.9993 912.26758 1022.7991 910.00091 1035.7324 898.26758 L 1049.5996 885.73438 L 1043.5996 879.86719 L 1016.2676 903.06641 L 1012.9336 902 L 1030.2676 812 L 995.19922 812 z M 1075.1992 812 L 1073.7324 820.93359 L 1098 820.93359 L 1083.0664 898.5332 C 1082.7997 899.7332 1082.666 901.60078 1082.666 902.80078 C 1082.666 908.26745 1085.466 912.26758 1092.666 912.26758 C 1097.9993 912.26758 1102.7991 910.00091 1115.7324 898.26758 L 1129.5996 885.73438 L 1123.5996 879.86719 L 1096.2676 903.06641 L 1092.9336 902 L 1110.2676 812 L 1075.1992 812 z M 1483.5996 812 L 1467.0664 910.66602 L 1477.4668 910.66602 L 1483.8672 872.66602 C 1485.2005 864.79935 1490.2658 858.66693 1491.7324 856.93359 C 1495.5991 852.40026 1500.2676 849.4668 1506.2676 849.4668 C 1514.0009 849.4668 1517.7324 854.53268 1517.7324 862.66602 C 1517.7324 864.13268 1517.5997 866.8 1517.0664 870 L 1510.2676 910.66602 L 1520.666 910.66602 L 1527.5996 869.06641 C 1528.1329 865.99974 1528.4004 862.79948 1528.4004 860.13281 C 1528.4004 847.59948 1521.1991 840.26758 1509.7324 840.26758 C 1498.6658 840.26758 1491.8674 847.19948 1486.8008 858.13281 L 1486.2676 858.13281 L 1494 812 L 1483.5996 812 z M 1874.666 812 L 1873.1992 820.93359 L 1897.4668 820.93359 L 1882.5332 898.5332 C 1882.2665 899.7332 1882.1328 901.60078 1882.1328 902.80078 C 1882.1328 908.26745 1884.9328 912.26758 1892.1328 912.26758 C 1897.4661 912.26758 1902.2659 910.00091 1915.1992 898.26758 L 1929.0664 885.73438 L 1923.0664 879.86719 L 1895.7324 903.06641 L 1892.4004 902 L 1909.7324 812 L 1874.666 812 z M 121.06641 817.59961 L 119.59961 826.40039 L 142.93359 826.40039 L 130.26758 901.86719 L 106.93359 901.86719 L 105.4668 910.66602 L 163.06641 910.66602 L 164.5332 901.86719 L 141.19922 901.86719 L 153.86719 826.40039 L 177.19922 826.40039 L 178.66602 817.59961 L 121.06641 817.59961 z M 296.40039 817.59961 L 293.33398 835.59961 C 292.53398 840.26628 290.40052 841.86719 285.86719 841.86719 L 271.86719 841.86719 L 270.40039 850.80078 L 290.26758 850.80078 L 282.26758 897.19922 C 282.00091 898.66589 281.86719 901.20039 281.86719 902.40039 C 281.86719 908.80039 285.46576 912.26758 291.73242 912.26758 C 297.19909 912.26758 302.53359 909.46602 314.93359 900.66602 L 330 890 L 324.80078 883.33398 L 294.80078 903.33398 L 292.13281 901.73438 L 300.66602 850.80078 L 329.06641 850.80078 L 330.5332 841.86719 L 302.13281 841.86719 L 306.26758 817.59961 L 296.40039 817.59961 z M 616.26758 817.59961 L 613.19922 835.59961 C 612.39922 840.26628 610.26576 841.86719 605.73242 841.86719 L 591.73242 841.86719 L 590.26758 850.80078 L 610.13281 850.80078 L 602.13281 897.19922 C 601.86615 898.66589 601.73242 901.20039 601.73242 902.40039 C 601.73242 908.80039 605.33294 912.26758 611.59961 912.26758 C 617.06628 912.26758 622.40078 909.46602 634.80078 900.66602 L 649.86719 890 L 644.66602 883.33398 L 614.66602 903.33398 L 612 901.73438 L 620.5332 850.80078 L 648.93359 850.80078 L 650.40039 841.86719 L 622 841.86719 L 626.13281 817.59961 L 616.26758 817.59961 z M 1415.7324 817.59961 L 1412.666 835.59961 C 1411.866 840.26628 1409.7326 841.86719 1405.1992 841.86719 L 1391.1992 841.86719 L 1389.7324 850.80078 L 1409.5996 850.80078 L 1401.5996 897.19922 C 1401.3329 898.66589 1401.1992 901.20039 1401.1992 902.40039 C 1401.1992 908.80039 1404.7997 912.26758 1411.0664 912.26758 C 1416.5331 912.26758 1421.8676 909.46602 1434.2676 900.66602 L 1449.334 890 L 1444.1328 883.33398 L 1414.1328 903.33398 L 1411.4668 901.73438 L 1420 850.80078 L 1448.4004 850.80078 L 1449.8672 841.86719 L 1421.4668 841.86719 L 1425.5996 817.59961 L 1415.7324 817.59961 z M 704.26758 840.26758 C 684.13425 840.26758 668.26758 856.93255 668.26758 883.19922 C 668.26758 900.39922 677.46641 912.26758 695.06641 912.26758 C 715.33307 912.26758 731.19922 895.60065 731.19922 869.33398 C 731.19922 852.13398 722.13424 840.26758 704.26758 840.26758 z M 944 840.26758 C 923.86667 840.26758 908 856.93255 908 883.19922 C 908 900.39922 917.20078 912.26758 934.80078 912.26758 C 955.06745 912.26758 970.93359 895.60065 970.93359 869.33398 C 970.93359 852.13398 961.86667 840.26758 944 840.26758 z M 1184 840.26758 C 1163.8667 840.26758 1148 856.93255 1148 883.19922 C 1148 900.39922 1157.2008 912.26758 1174.8008 912.26758 C 1195.0674 912.26758 1210.9336 895.60065 1210.9336 869.33398 C 1210.9336 852.13398 1201.8667 840.26758 1184 840.26758 z M 1586.8008 840.26758 C 1564.6674 840.26758 1548.9336 857.86745 1548.9336 882.80078 C 1548.9336 902.53411 1558.7995 912.26758 1576.1328 912.26758 C 1590.6661 912.26758 1599.9991 905.33268 1607.7324 892.66602 L 1600.4004 888.13281 C 1592.6671 899.06615 1586.9331 903.33398 1577.0664 903.33398 C 1562.6664 903.33398 1559.8672 894.40078 1559.8672 884.80078 C 1559.8672 884.53411 1559.8667 883.06771 1560 881.73438 C 1603.8667 880.53438 1610.1328 868.53411 1610.1328 858.80078 C 1610.1328 846.80078 1600.2674 840.26758 1586.8008 840.26758 z M 1986.5332 840.26758 C 1964.3999 840.26758 1948.666 857.86745 1948.666 882.80078 C 1948.666 902.53411 1958.5339 912.26758 1975.8672 912.26758 C 1990.4005 912.26758 1999.7335 905.33268 2007.4668 892.66602 L 2000.1328 888.13281 C 1992.3995 899.06615 1986.6674 903.33398 1976.8008 903.33398 C 1962.4008 903.33398 1959.5996 894.40078 1959.5996 884.80078 C 1959.5996 884.53411 1959.5991 883.06771 1959.7324 881.73438 C 2003.5991 880.53438 2009.8672 868.53411 2009.8672 858.80078 C 2009.8672 846.80078 1999.9999 840.26758 1986.5332 840.26758 z M 2064.2676 840.26758 C 2048.0009 840.26758 2034.8008 847.59948 2034.8008 862.13281 C 2034.8008 874.93281 2045.1992 878.26771 2055.1992 879.73438 L 2065.1992 881.19922 C 2070.7992 881.99922 2075.1992 883.86758 2075.1992 890.26758 C 2075.1992 898.53424 2067.7329 903.4668 2055.5996 903.4668 C 2045.1996 903.4668 2038.3997 899.86589 2033.0664 893.19922 L 2025.334 899.33398 C 2031.334 907.60065 2041.3327 912.26758 2054.666 912.26758 C 2073.066 912.26758 2085.4668 903.46589 2085.4668 889.19922 C 2085.4668 875.59922 2074.134 873.46667 2065.334 872 L 2055.5996 870.40039 C 2049.9996 869.46706 2044.9336 868.00065 2044.9336 861.33398 C 2044.9336 853.86732 2051.1997 849.06641 2063.0664 849.06641 C 2074.6664 849.06641 2080.266 853.59922 2082.666 857.19922 L 2090 850.80078 C 2084.8 844.26745 2076.2676 840.26758 2064.2676 840.26758 z M 1291.4668 841.19922 L 1282.666 843.86719 C 1284.666 848.13385 1285.7324 855.06771 1285.7324 861.73438 C 1285.7324 881.33437 1278.2676 903.4668 1268.2676 903.4668 C 1264.1342 903.4668 1262.4004 901.20104 1262.4004 895.73438 C 1262.4004 893.46771 1262.5331 890.93294 1263.0664 887.59961 L 1270.5332 841.86719 L 1261.4668 841.86719 L 1253.8672 885.86719 C 1253.2005 889.33385 1252.0001 894.66615 1249.4668 898.13281 C 1247.0668 901.33281 1244.5336 903.4668 1240.9336 903.4668 C 1237.0669 903.4668 1234.9336 901.20052 1234.9336 895.86719 C 1234.9336 893.46719 1235.1991 890.66628 1235.7324 887.59961 L 1243.1992 841.86719 L 1233.8672 841.86719 L 1226 889.4668 C 1225.4667 892.93346 1225.1992 895.60039 1225.1992 898.40039 C 1225.1992 906.66706 1229.1992 912 1237.1992 912 C 1245.5992 912 1250.2661 906.66667 1254.1328 898 L 1254.8008 898 C 1254.1341 908.4 1258.9328 912 1266.1328 912 C 1273.4661 912 1279.866 908.53385 1284.666 901.86719 C 1291.3327 892.53385 1295.0664 877.19922 1295.0664 861.19922 C 1295.0664 853.06589 1293.6001 845.86589 1291.4668 841.19922 z M 355.73242 841.86719 L 354.26758 850.80078 L 373.59961 850.80078 L 363.59961 910.66602 L 374 910.66602 L 380 874.80078 C 381.33333 866.80078 386.13385 861.19922 387.86719 859.19922 C 392.00052 854.39922 396.93359 852.26758 404.93359 852.26758 L 416.66602 852.26758 L 418.40039 841.86719 L 408 841.86719 C 394.8 841.86719 387.86641 849.33425 383.06641 860.26758 L 382.40039 860.26758 L 385.4668 841.86719 L 355.73242 841.86719 z M 438.66602 841.86719 L 432 881.86719 C 431.46667 885.46719 431.19922 888.00039 431.19922 890.40039 C 431.19922 902.93372 438.53333 910.26758 450 910.26758 C 461.06667 910.26758 467.99974 903.33372 473.06641 892.40039 L 473.4668 892.40039 L 470.80078 908.66602 C 468.40078 923.59935 460.93424 929.73438 448.26758 929.73438 C 439.86758 929.73438 434.26602 927.06654 430.66602 922.5332 L 423.4668 929.4668 C 428.40013 935.60013 436.53294 938.93359 447.59961 938.93359 C 464.79961 938.93359 477.33411 930.93268 480.80078 910.66602 L 492.26758 841.86719 L 481.86719 841.86719 L 475.86719 877.86719 C 474.53385 885.73385 469.46667 891.86628 468 893.59961 C 464.13333 898.13294 459.4668 901.06641 453.4668 901.06641 C 445.73346 901.06641 441.86719 896.00052 441.86719 887.86719 C 441.86719 886.40052 441.99987 884.00026 442.5332 880.93359 L 449.06641 841.86719 L 438.66602 841.86719 z M 1714.8008 841.86719 L 1713.334 850.80078 L 1732.666 850.80078 L 1722.666 910.66602 L 1733.0664 910.66602 L 1739.0664 874.80078 C 1740.3997 866.80078 1745.2003 861.19922 1746.9336 859.19922 C 1751.0669 854.39922 1756 852.26758 1764 852.26758 L 1775.7324 852.26758 L 1777.4668 841.86719 L 1767.0664 841.86719 C 1753.8664 841.86719 1746.9328 849.33425 1742.1328 860.26758 L 1741.4668 860.26758 L 1744.5332 841.86719 L 1714.8008 841.86719 z M 1797.7324 841.86719 L 1790.8008 883.4668 C 1790.2674 886.53346 1790 889.73372 1790 892.40039 C 1790 904.93372 1797.1993 912.26758 1808.666 912.26758 C 1819.7327 912.26758 1826.5329 905.33372 1831.5996 894.40039 L 1832.1328 894.40039 L 1829.4668 910.66602 L 1839.8672 910.66602 L 1851.334 841.86719 L 1840.9336 841.86719 L 1834.5332 879.86719 C 1833.1999 887.73385 1828.1327 893.86628 1826.666 895.59961 C 1822.7993 900.13294 1818.1328 903.06641 1812.1328 903.06641 C 1804.3995 903.06641 1800.666 898.00052 1800.666 889.86719 C 1800.666 888.40052 1800.8007 885.7332 1801.334 882.5332 L 1808.1328 841.86719 L 1797.7324 841.86719 z M 1585.8672 848.93359 C 1595.8672 848.93359 1599.4668 853.59922 1599.4668 859.19922 C 1599.4668 865.86589 1594.4008 873.46654 1560.8008 874.5332 L 1560.9336 873.19922 C 1562.9336 857.59922 1572.0005 848.93359 1585.8672 848.93359 z M 1985.5996 848.93359 C 1995.5996 848.93359 1999.1992 853.59922 1999.1992 859.19922 C 1999.1992 865.86589 1994.1332 873.46654 1960.5332 874.5332 L 1960.666 873.19922 C 1962.666 857.59922 1971.7329 848.93359 1985.5996 848.93359 z M 703.86719 849.33398 C 714.13385 849.33398 720.66602 854.66758 720.66602 866.26758 C 720.66602 867.86758 720.53333 869.86641 720 873.06641 L 718.66602 881.06641 C 716.39935 894.66641 708.53294 903.19922 695.59961 903.19922 C 685.33294 903.19922 678.80078 897.86758 678.80078 886.26758 C 678.80078 884.66758 678.93346 882.6668 679.4668 879.4668 L 680.80078 871.4668 C 683.06745 857.8668 690.93385 849.33398 703.86719 849.33398 z M 943.59961 849.33398 C 953.86628 849.33398 960.40039 854.66758 960.40039 866.26758 C 960.40039 867.86758 960.26576 869.86641 959.73242 873.06641 L 958.40039 881.06641 C 956.13372 894.66641 948.26732 903.19922 935.33398 903.19922 C 925.06732 903.19922 918.5332 897.86758 918.5332 886.26758 C 918.5332 884.66758 918.66589 882.6668 919.19922 879.4668 L 920.5332 871.4668 C 922.79987 857.8668 930.66628 849.33398 943.59961 849.33398 z M 1183.5996 849.33398 C 1193.8663 849.33398 1200.4004 854.66758 1200.4004 866.26758 C 1200.4004 867.86758 1200.2658 869.86641 1199.7324 873.06641 L 1198.4004 881.06641 C 1196.1337 894.66641 1188.2673 903.19922 1175.334 903.19922 C 1165.0673 903.19922 1158.5332 897.86758 1158.5332 886.26758 C 1158.5332 884.66758 1158.6659 882.6668 1159.1992 879.4668 L 1160.5332 871.4668 C 1162.7999 857.8668 1170.6663 849.33398 1183.5996 849.33398 z M 2135.8672 893.73438 C 2129.0672 893.73438 2125.8664 896.79961 2125.0664 901.59961 C 2124.7997 903.19961 2124.5332 904.80052 2124.5332 905.86719 C 2124.5332 909.20052 2126.9326 911.86719 2133.1992 911.86719 C 2139.9992 911.86719 2143.2 908.8 2144 904 C 2144.2667 902.4 2144.5332 900.80104 2144.5332 899.73438 C 2144.5332 896.40104 2142.1339 893.73438 2135.8672 893.73438 z M 386.80078 1144.2676 C 381.46745 1144.2676 378.66667 1146.666 378 1150.666 C 377.73333 1152.266 377.4668 1153.4665 377.4668 1154.5332 C 377.4668 1157.3332 379.46589 1159.8672 385.19922 1159.8672 C 390.53255 1159.8672 393.33333 1157.4668 394 1153.4668 C 394.26667 1151.8668 394.5332 1150.6663 394.5332 1149.5996 C 394.5332 1146.7996 392.53411 1144.2676 386.80078 1144.2676 z M 1666 1144.2676 C 1660.6667 1144.2676 1657.8659 1146.666 1657.1992 1150.666 C 1656.9326 1152.266 1656.666 1153.4665 1656.666 1154.5332 C 1656.666 1157.3332 1658.6671 1159.8672 1664.4004 1159.8672 C 1669.7337 1159.8672 1672.5326 1157.4668 1673.1992 1153.4668 C 1673.4659 1151.8668 1673.7324 1150.6663 1673.7324 1149.5996 C 1673.7324 1146.7996 1671.7333 1144.2676 1666 1144.2676 z M 275.59961 1145.334 L 274.13281 1154.2676 L 298.40039 1154.2676 L 283.4668 1231.8672 C 283.20013 1233.0672 283.06641 1234.9328 283.06641 1236.1328 C 283.06641 1241.5995 285.86641 1245.5996 293.06641 1245.5996 C 298.39974 1245.5996 303.19948 1243.3329 316.13281 1231.5996 L 330 1219.0664 L 324 1213.1992 L 296.66602 1236.4004 L 293.33398 1235.334 L 310.66602 1145.334 L 275.59961 1145.334 z M 444.26758 1145.334 L 427.73242 1244 L 438.13281 1244 L 444.5332 1206 C 445.46654 1200.2667 448.26615 1195.2004 452.13281 1190.4004 C 455.86615 1185.8671 460.39922 1182.5332 467.19922 1182.5332 C 474.39922 1182.5332 478.40039 1186.2665 478.40039 1192.5332 C 478.40039 1200.6665 471.60065 1208.2677 449.33398 1213.7344 L 460.13281 1237.1992 C 462.93281 1243.3326 465.86706 1245.5996 470.40039 1245.5996 C 475.46706 1245.5996 479.46706 1242.6677 486.40039 1235.7344 L 495.86719 1226.2676 L 490.13281 1220.2676 L 472.40039 1236.5332 L 470.66602 1236.2676 L 461.19922 1215.5996 C 484.53255 1209.8663 489.06641 1198.7999 489.06641 1190.5332 C 489.06641 1180.2665 481.99974 1173.5996 471.06641 1173.5996 C 459.59974 1173.5996 452.40013 1180.9335 447.4668 1191.4668 L 446.93359 1191.4668 L 454.66602 1145.334 L 444.26758 1145.334 z M 1083.8672 1145.334 L 1067.334 1244 L 1077.7324 1244 L 1084.1328 1206 C 1085.0661 1200.2667 1087.8658 1195.2004 1091.7324 1190.4004 C 1095.4658 1185.8671 1100.0008 1182.5332 1106.8008 1182.5332 C 1114.0008 1182.5332 1118 1186.2665 1118 1192.5332 C 1118 1200.6665 1111.2003 1208.2677 1088.9336 1213.7344 L 1099.7324 1237.1992 C 1102.5324 1243.3326 1105.4667 1245.5996 1110 1245.5996 C 1115.0667 1245.5996 1119.0667 1242.6677 1126 1235.7344 L 1135.4668 1226.2676 L 1129.7324 1220.2676 L 1112 1236.5332 L 1110.2676 1236.2676 L 1100.8008 1215.5996 C 1124.1341 1209.8663 1128.666 1198.7999 1128.666 1190.5332 C 1128.666 1180.2665 1121.5993 1173.5996 1110.666 1173.5996 C 1099.1993 1173.5996 1091.9997 1180.9335 1087.0664 1191.4668 L 1086.5332 1191.4668 L 1094.2676 1145.334 L 1083.8672 1145.334 z M 121.06641 1150.9336 L 119.59961 1159.7344 L 142.93359 1159.7344 L 130.26758 1235.1992 L 106.93359 1235.1992 L 105.4668 1244 L 163.06641 1244 L 164.5332 1235.1992 L 141.19922 1235.1992 L 153.86719 1159.7344 L 177.19922 1159.7344 L 178.66602 1150.9336 L 121.06641 1150.9336 z M 696.13281 1150.9336 L 693.06641 1168.9336 C 692.26641 1173.6003 690.13294 1175.1992 685.59961 1175.1992 L 671.59961 1175.1992 L 670.13281 1184.1328 L 690 1184.1328 L 682 1230.5332 C 681.73333 1231.9999 681.59961 1234.5344 681.59961 1235.7344 C 681.59961 1242.1344 685.20013 1245.5996 691.4668 1245.5996 C 696.93346 1245.5996 702.26602 1242.8 714.66602 1234 L 729.73242 1223.334 L 724.5332 1216.666 L 694.5332 1236.666 L 691.86719 1235.0664 L 700.40039 1184.1328 L 728.80078 1184.1328 L 730.26758 1175.1992 L 701.86719 1175.1992 L 706 1150.9336 L 696.13281 1150.9336 z M 936 1150.9336 L 932.93359 1168.9336 C 932.13359 1173.6003 930.00013 1175.1992 925.4668 1175.1992 L 911.4668 1175.1992 L 910 1184.1328 L 929.86719 1184.1328 L 921.86719 1230.5332 C 921.60052 1231.9999 921.4668 1234.5344 921.4668 1235.7344 C 921.4668 1242.1344 925.06732 1245.5996 931.33398 1245.5996 C 936.80065 1245.5996 942.1332 1242.8 954.5332 1234 L 969.59961 1223.334 L 964.40039 1216.666 L 934.40039 1236.666 L 931.73242 1235.0664 L 940.26758 1184.1328 L 968.66602 1184.1328 L 970.13281 1175.1992 L 941.73242 1175.1992 L 945.86719 1150.9336 L 936 1150.9336 z M 1575.5996 1150.9336 L 1572.5332 1168.9336 C 1571.7332 1173.6003 1569.5997 1175.1992 1565.0664 1175.1992 L 1551.0664 1175.1992 L 1549.5996 1184.1328 L 1569.4668 1184.1328 L 1561.4668 1230.5332 C 1561.2001 1231.9999 1561.0664 1234.5344 1561.0664 1235.7344 C 1561.0664 1242.1344 1564.6669 1245.5996 1570.9336 1245.5996 C 1576.4003 1245.5996 1581.7328 1242.8 1594.1328 1234 L 1609.1992 1223.334 L 1604 1216.666 L 1574 1236.666 L 1571.334 1235.0664 L 1579.8672 1184.1328 L 1608.2656 1184.1328 L 1609.7324 1175.1992 L 1581.334 1175.1992 L 1585.4668 1150.9336 L 1575.5996 1150.9336 z M 547.4668 1173.5996 C 525.33346 1173.5996 509.59961 1191.1995 509.59961 1216.1328 C 509.59961 1235.8661 519.46745 1245.5996 536.80078 1245.5996 C 551.33411 1245.5996 560.66706 1238.6667 568.40039 1226 L 561.06641 1221.4668 C 553.33307 1232.4001 547.59909 1236.666 537.73242 1236.666 C 523.33242 1236.666 520.5332 1227.7328 520.5332 1218.1328 C 520.5332 1217.8661 520.53268 1216.3997 520.66602 1215.0664 C 564.53268 1213.8664 570.80078 1201.8661 570.80078 1192.1328 C 570.80078 1180.1328 560.93346 1173.5996 547.4668 1173.5996 z M 784.13281 1173.5996 C 763.99948 1173.5996 748.13281 1190.2665 748.13281 1216.5332 C 748.13281 1233.7332 757.33359 1245.5996 774.93359 1245.5996 C 795.20026 1245.5996 811.06641 1228.9327 811.06641 1202.666 C 811.06641 1185.466 801.99948 1173.5996 784.13281 1173.5996 z M 1019.4668 1173.5996 C 995.20013 1173.5996 986.93359 1200.5336 986.93359 1218.9336 C 986.93359 1236.5336 994.53372 1245.5996 1008.4004 1245.5996 C 1020.5337 1245.5996 1027.4674 1238.5344 1032.8008 1227.7344 L 1033.1992 1227.7344 L 1030.5332 1244 L 1040.9336 1244 L 1052.4004 1175.1992 L 1042 1175.1992 L 1040 1187.1992 L 1039.5996 1187.1992 C 1036.6663 1178.2659 1029.6001 1173.5996 1019.4668 1173.5996 z M 1187.0664 1173.5996 C 1164.9331 1173.5996 1149.1992 1191.1995 1149.1992 1216.1328 C 1149.1992 1235.8661 1159.0671 1245.5996 1176.4004 1245.5996 C 1190.9337 1245.5996 1200.2667 1238.6667 1208 1226 L 1200.666 1221.4668 C 1192.9327 1232.4001 1187.2007 1236.666 1177.334 1236.666 C 1162.934 1236.666 1160.1328 1227.7328 1160.1328 1218.1328 C 1160.1328 1217.8661 1160.1342 1216.3997 1160.2676 1215.0664 C 1204.1342 1213.8664 1210.4004 1201.8661 1210.4004 1192.1328 C 1210.4004 1180.1328 1200.5331 1173.5996 1187.0664 1173.5996 z M 1335.5996 1173.5996 C 1327.9996 1173.5996 1323.866 1179.0667 1320.666 1186 L 1320.1328 1186 L 1321.8672 1175.1992 L 1312.2656 1175.1992 L 1300.8008 1244 L 1310.4004 1244 L 1317.8672 1199.4668 C 1318.5339 1195.4668 1320.1327 1191.0668 1322.666 1187.4668 C 1324.7993 1184.4001 1327.8663 1182.1328 1331.5996 1182.1328 C 1335.333 1182.1328 1337.1992 1184.4 1337.1992 1190 C 1337.1992 1192.1333 1336.9337 1194.6672 1336.4004 1197.8672 L 1328.666 1244 L 1338.2676 1244 L 1345.7324 1199.4668 C 1346.3991 1195.4668 1347.9999 1190.9335 1350.5332 1187.4668 C 1352.7999 1184.4001 1355.4659 1182.1328 1359.1992 1182.1328 C 1363.1992 1182.1328 1365.0664 1184.6663 1365.0664 1189.5996 C 1365.0664 1191.4663 1364.6661 1194.6672 1364.1328 1197.8672 L 1356.4004 1244 L 1366 1244 L 1374 1196.1328 C 1374.5333 1192.9328 1374.9336 1189.3341 1374.9336 1186.8008 C 1374.9336 1178.4008 1370.7992 1173.5996 1363.1992 1173.5996 C 1355.1992 1173.5996 1349.9999 1178.7993 1346.5332 1186.666 L 1346.1328 1186.666 C 1346.6661 1179.1993 1343.3329 1173.5996 1335.5996 1173.5996 z M 1735.4668 1173.5996 C 1727.8668 1173.5996 1723.7332 1179.0667 1720.5332 1186 L 1720 1186 L 1721.7324 1175.1992 L 1712.1328 1175.1992 L 1700.666 1244 L 1710.2656 1244 L 1717.7324 1199.4668 C 1718.3991 1195.4668 1719.9999 1191.0668 1722.5332 1187.4668 C 1724.6665 1184.4001 1727.7335 1182.1328 1731.4668 1182.1328 C 1735.2001 1182.1328 1737.0664 1184.4 1737.0664 1190 C 1737.0664 1192.1333 1736.799 1194.6672 1736.2656 1197.8672 L 1728.5332 1244 L 1738.1328 1244 L 1745.5996 1199.4668 C 1746.2663 1195.4668 1747.8671 1190.9335 1750.4004 1187.4668 C 1752.6671 1184.4001 1755.3331 1182.1328 1759.0664 1182.1328 C 1763.0664 1182.1328 1764.9336 1184.6663 1764.9336 1189.5996 C 1764.9336 1191.4663 1764.5333 1194.6672 1764 1197.8672 L 1756.2656 1244 L 1765.8672 1244 L 1773.8672 1196.1328 C 1774.4005 1192.9328 1774.8008 1189.3341 1774.8008 1186.8008 C 1774.8008 1178.4008 1770.6664 1173.5996 1763.0664 1173.5996 C 1755.0664 1173.5996 1749.8671 1178.7993 1746.4004 1186.666 L 1746 1186.666 C 1746.5333 1179.1993 1743.2001 1173.5996 1735.4668 1173.5996 z M 1826.666 1173.5996 C 1804.5327 1173.5996 1788.8008 1191.1995 1788.8008 1216.1328 C 1788.8008 1235.8661 1798.6667 1245.5996 1816 1245.5996 C 1830.5333 1245.5996 1839.8663 1238.6667 1847.5996 1226 L 1840.2656 1221.4668 C 1832.5323 1232.4001 1826.8003 1236.666 1816.9336 1236.666 C 1802.5336 1236.666 1799.7324 1227.7328 1799.7324 1218.1328 C 1799.7324 1217.8661 1799.7339 1216.3997 1799.8672 1215.0664 C 1843.7339 1213.8664 1850 1201.8661 1850 1192.1328 C 1850 1180.1328 1840.1327 1173.5996 1826.666 1173.5996 z M 352.26758 1175.1992 L 350.80078 1184.1328 L 375.59961 1184.1328 L 366.5332 1231.0664 C 366.26654 1232.6664 365.86719 1234.6671 365.86719 1236.4004 C 365.86719 1241.7337 369.46615 1245.5996 376.13281 1245.5996 C 382.13281 1245.5996 387.06628 1242.4008 399.59961 1230.8008 L 411.73242 1219.5996 L 405.4668 1213.7344 L 379.19922 1236.4004 L 376.13281 1235.1992 L 387.73242 1175.1992 L 352.26758 1175.1992 z M 1398 1175.1992 L 1391.334 1215.1992 C 1390.8007 1218.7992 1390.5332 1221.3344 1390.5332 1223.7344 C 1390.5332 1236.2677 1397.8673 1243.5996 1409.334 1243.5996 C 1420.4007 1243.5996 1427.3337 1236.6677 1432.4004 1225.7344 L 1432.8008 1225.7344 L 1430.1328 1242 C 1427.7328 1256.9333 1420.2663 1263.0664 1407.5996 1263.0664 C 1399.1996 1263.0664 1393.6 1260.4005 1390 1255.8672 L 1382.8008 1262.8008 C 1387.7341 1268.9341 1395.8669 1272.2676 1406.9336 1272.2676 C 1424.1336 1272.2676 1436.6661 1264.2667 1440.1328 1244 L 1451.5996 1175.1992 L 1441.1992 1175.1992 L 1435.1992 1211.1992 C 1433.8659 1219.0659 1428.8007 1225.2003 1427.334 1226.9336 C 1423.4673 1231.4669 1418.8008 1234.4004 1412.8008 1234.4004 C 1405.0674 1234.4004 1401.1992 1229.3326 1401.1992 1221.1992 C 1401.1992 1219.7326 1401.3339 1217.3342 1401.8672 1214.2676 L 1408.4004 1175.1992 L 1398 1175.1992 z M 1631.4668 1175.1992 L 1630 1184.1328 L 1654.8008 1184.1328 L 1645.7324 1231.0664 C 1645.4658 1232.6664 1645.0664 1234.6671 1645.0664 1236.4004 C 1645.0664 1241.7337 1648.6673 1245.5996 1655.334 1245.5996 C 1661.334 1245.5996 1666.2674 1242.4008 1678.8008 1230.8008 L 1690.9336 1219.5996 L 1684.666 1213.7344 L 1658.4004 1236.4004 L 1655.334 1235.1992 L 1666.9336 1175.1992 L 1631.4668 1175.1992 z M 546.5332 1182.2676 C 556.5332 1182.2676 560.13281 1186.9332 560.13281 1192.5332 C 560.13281 1199.1999 555.0668 1206.8005 521.4668 1207.8672 L 521.59961 1206.5332 C 523.59961 1190.9332 532.66654 1182.2676 546.5332 1182.2676 z M 1186.1328 1182.2676 C 1196.1328 1182.2676 1199.7324 1186.9332 1199.7324 1192.5332 C 1199.7324 1199.1999 1194.6664 1206.8005 1161.0664 1207.8672 L 1161.1992 1206.5332 C 1163.1992 1190.9332 1172.2661 1182.2676 1186.1328 1182.2676 z M 1825.7324 1182.2676 C 1835.7324 1182.2676 1839.334 1186.9332 1839.334 1192.5332 C 1839.334 1199.1999 1834.266 1206.8005 1800.666 1207.8672 L 1800.8008 1206.5332 C 1802.8008 1190.9332 1811.8658 1182.2676 1825.7324 1182.2676 z M 783.73242 1182.666 C 793.99909 1182.666 800.5332 1187.9996 800.5332 1199.5996 C 800.5332 1201.1996 800.40052 1203.2004 799.86719 1206.4004 L 798.5332 1214.4004 C 796.26654 1228.0004 788.40013 1236.5332 775.4668 1236.5332 C 765.20013 1236.5332 758.66602 1231.1996 758.66602 1219.5996 C 758.66602 1217.9996 758.80065 1216.0008 759.33398 1212.8008 L 760.66602 1204.8008 C 762.93268 1191.2008 770.79909 1182.666 783.73242 1182.666 z M 1022.5332 1182.8008 C 1032.7999 1182.8008 1039.8676 1188.2672 1038.2676 1197.8672 L 1035.7324 1213.0664 C 1034.6658 1219.4664 1031.5995 1224.9341 1028.1328 1228.8008 C 1023.3328 1234.1341 1017.7333 1236.4004 1012 1236.4004 C 1002.4 1236.4004 997.4668 1230.2667 997.4668 1220 C 997.4668 1218.2667 997.6 1216.4 998 1214 L 999.59961 1204.4004 C 1001.7329 1191.6004 1009.3332 1182.8008 1022.5332 1182.8008 z M 1896 1227.0664 C 1889.2 1227.0664 1885.9992 1230.1336 1885.1992 1234.9336 C 1884.9326 1236.5336 1884.666 1238.1326 1884.666 1239.1992 C 1884.666 1242.5326 1887.0673 1245.1992 1893.334 1245.1992 C 1900.134 1245.1992 1903.3328 1242.134 1904.1328 1237.334 C 1904.3995 1235.734 1904.666 1234.1331 1904.666 1233.0664 C 1904.666 1229.7331 1902.2667 1227.0664 1896 1227.0664 z M 706.80078 1477.5996 C 701.46745 1477.5996 698.66667 1480 698 1484 C 697.73333 1485.6 697.4668 1486.8005 697.4668 1487.8672 C 697.4668 1490.6672 699.46589 1493.1992 705.19922 1493.1992 C 710.53255 1493.1992 713.33333 1490.8008 714 1486.8008 C 714.26667 1485.2008 714.5332 1484.0001 714.5332 1482.9336 C 714.5332 1480.1336 712.53411 1477.5996 706.80078 1477.5996 z M 1601.4668 1478.666 C 1591.2001 1478.666 1585.3339 1485.2009 1583.8672 1494.2676 L 1581.4668 1508.5332 L 1556.9336 1508.5332 L 1555.4668 1517.4668 L 1580 1517.4668 L 1566.9336 1595.7344 L 1564.5332 1596.2676 L 1544 1574.4004 L 1536.9336 1580.8008 L 1545.0664 1589.7344 C 1555.7331 1601.3344 1559.5992 1605.5996 1565.1992 1605.5996 C 1573.1992 1605.5996 1576.8 1599.0663 1578 1591.5996 L 1590.4004 1517.4668 L 1618.2656 1517.4668 L 1619.7324 1508.5332 L 1591.8672 1508.5332 L 1595.334 1487.5996 L 1623.0664 1487.5996 L 1624.5332 1478.666 L 1601.4668 1478.666 z M 121.06641 1484.2676 L 119.59961 1493.0664 L 142.93359 1493.0664 L 130.26758 1568.5332 L 106.93359 1568.5332 L 105.4668 1577.334 L 163.06641 1577.334 L 164.5332 1568.5332 L 141.19922 1568.5332 L 153.86719 1493.0664 L 177.19922 1493.0664 L 178.66602 1484.2676 L 121.06641 1484.2676 z M 307.4668 1506.9336 C 285.33346 1506.9336 269.59961 1524.5335 269.59961 1549.4668 C 269.59961 1569.2001 279.46745 1578.9336 296.80078 1578.9336 C 311.33411 1578.9336 320.66706 1572.0007 328.40039 1559.334 L 321.06641 1554.8008 C 313.33307 1565.7341 307.59909 1570 297.73242 1570 C 283.33242 1570 280.5332 1561.0668 280.5332 1551.4668 C 280.5332 1551.2001 280.53268 1549.7337 280.66602 1548.4004 C 324.53268 1547.2004 330.80078 1535.2001 330.80078 1525.4668 C 330.80078 1513.4668 320.93346 1506.9336 307.4668 1506.9336 z M 372.66602 1506.9336 C 367.19935 1506.9336 361.06706 1510.4007 354.40039 1515.334 L 345.59961 1521.8672 L 349.73242 1528.1328 L 370.80078 1515.1992 L 372.80078 1516.1328 C 374.53411 1519.9993 374.93359 1528.8005 374.93359 1532.4004 C 374.93359 1546.5339 368.79987 1570.666 356.5332 1570.666 C 352.26654 1570.666 350.66602 1567.6003 350.66602 1560.9336 C 350.66602 1559.0668 350.79922 1556.4007 351.19922 1553.334 L 341.4668 1554.1328 C 340.80013 1558.9328 340.80078 1561.4665 340.80078 1563.0664 C 340.80078 1573.7331 345.06667 1578.9336 354 1578.9336 C 364.53333 1578.9336 371.99961 1571.9992 375.59961 1555.1992 L 376.5332 1555.334 C 376.5332 1566.8007 376.66732 1578.9336 387.33398 1578.9336 C 391.46732 1578.9336 396.93268 1577.066 406.66602 1568.666 L 413.33398 1562.9336 L 408.93359 1556.8008 L 389.19922 1570.666 L 387.19922 1569.7324 C 385.19922 1565.7324 384.80078 1557.2001 384.80078 1553.4668 C 384.80078 1539.3333 390.93255 1515.1992 403.19922 1515.1992 C 407.46589 1515.1992 409.06641 1518.2669 409.06641 1524.9336 C 409.06641 1526.8003 408.9332 1529.4665 408.5332 1532.5332 L 418.26758 1531.7324 C 418.93424 1527.0658 418.93359 1524.4006 418.93359 1522.8008 C 418.93359 1512.1341 414.66575 1506.9336 405.73242 1506.9336 C 395.19909 1506.9336 387.73281 1513.866 384.13281 1530.666 L 383.19922 1530.5332 C 383.19922 1519.4665 383.06602 1506.9336 372.66602 1506.9336 z M 470.93359 1506.9336 C 458.80026 1506.9336 451.86654 1514.0008 446.5332 1524.8008 L 446.13281 1524.8008 L 448.80078 1508.5332 L 438.40039 1508.5332 L 422.40039 1604 L 432.80078 1604 L 439.33398 1565.334 L 439.73242 1565.334 C 442.66576 1574.2673 449.73385 1578.9336 459.86719 1578.9336 C 484.13385 1578.9336 492.40039 1551.9996 492.40039 1533.5996 C 492.40039 1515.9996 484.80026 1506.9336 470.93359 1506.9336 z M 547.4668 1506.9336 C 525.33346 1506.9336 509.59961 1524.5335 509.59961 1549.4668 C 509.59961 1569.2001 519.46745 1578.9336 536.80078 1578.9336 C 551.33411 1578.9336 560.66706 1572.0007 568.40039 1559.334 L 561.06641 1554.8008 C 553.33307 1565.7341 547.59909 1570 537.73242 1570 C 523.33242 1570 520.5332 1561.0668 520.5332 1551.4668 C 520.5332 1551.2001 520.53268 1549.7337 520.66602 1548.4004 C 564.53268 1547.2004 570.80078 1535.2001 570.80078 1525.4668 C 570.80078 1513.4668 560.93346 1506.9336 547.4668 1506.9336 z M 787.4668 1506.9336 C 765.33346 1506.9336 749.59961 1524.5335 749.59961 1549.4668 C 749.59961 1569.2001 759.46745 1578.9336 776.80078 1578.9336 C 791.33411 1578.9336 800.66706 1572.0007 808.40039 1559.334 L 801.06641 1554.8008 C 793.33307 1565.7341 787.59909 1570 777.73242 1570 C 763.33242 1570 760.5332 1561.0668 760.5332 1551.4668 C 760.5332 1551.2001 760.53268 1549.7337 760.66602 1548.4004 C 804.53268 1547.2004 810.80078 1535.2001 810.80078 1525.4668 C 810.80078 1513.4668 800.93346 1506.9336 787.4668 1506.9336 z M 870 1506.9336 C 858.93333 1506.9336 852.13307 1513.8674 847.06641 1524.8008 L 846.5332 1524.8008 L 849.19922 1508.5332 L 838.80078 1508.5332 L 827.33398 1577.334 L 837.73242 1577.334 L 844.13281 1539.334 C 845.46615 1531.4673 850.53333 1525.3329 852 1523.5996 C 855.86667 1519.0663 860.5332 1516.1328 866.5332 1516.1328 C 874.26654 1516.1328 878 1521.2008 878 1529.334 C 878 1530.8008 877.86732 1533.4661 877.33398 1536.666 L 870.5332 1577.334 L 880.93359 1577.334 L 887.86719 1535.7324 C 888.40052 1532.6658 888.66602 1529.4674 888.66602 1526.8008 C 888.66602 1514.2674 881.46667 1506.9336 870 1506.9336 z M 944.93359 1506.9336 C 925.33359 1506.9336 909.4668 1523.6005 909.4668 1549.8672 C 909.4668 1567.0671 918.40013 1578.9336 935.4668 1578.9336 C 949.8668 1578.9336 958.53255 1571.4668 967.19922 1557.4668 L 959.73242 1553.0664 C 948.79909 1568.1332 942.93411 1569.8672 936.80078 1569.8672 C 926.80078 1569.8672 920 1564.3992 920 1552.666 C 920 1550.9327 920.13268 1549.4676 920.66602 1546.2676 L 922 1538.2676 C 924.4 1523.8676 931.99909 1516 943.73242 1516 C 952.26575 1516 957.33333 1518.5336 960 1526.9336 L 968.93359 1523.4668 C 966.53359 1514.4 959.46693 1506.9336 944.93359 1506.9336 z M 1027.0664 1506.9336 C 1004.9331 1506.9336 989.19922 1524.5335 989.19922 1549.4668 C 989.19922 1569.2001 999.06706 1578.9336 1016.4004 1578.9336 C 1030.9337 1578.9336 1040.2667 1572.0007 1048 1559.334 L 1040.666 1554.8008 C 1032.9327 1565.7341 1027.2007 1570 1017.334 1570 C 1002.934 1570 1000.1328 1561.0668 1000.1328 1551.4668 C 1000.1328 1551.2001 1000.1342 1549.7337 1000.2676 1548.4004 C 1044.1342 1547.2004 1050.4004 1535.2001 1050.4004 1525.4668 C 1050.4004 1513.4668 1040.5331 1506.9336 1027.0664 1506.9336 z M 1266.9336 1506.9336 C 1244.8003 1506.9336 1229.0664 1524.5335 1229.0664 1549.4668 C 1229.0664 1569.2001 1238.9342 1578.9336 1256.2676 1578.9336 C 1270.8009 1578.9336 1280.1339 1572.0007 1287.8672 1559.334 L 1280.5332 1554.8008 C 1272.7999 1565.7341 1267.0659 1570 1257.1992 1570 C 1242.7992 1570 1240 1561.0668 1240 1551.4668 C 1240 1551.2001 1239.9995 1549.7337 1240.1328 1548.4004 C 1283.9995 1547.2004 1290.2676 1535.2001 1290.2676 1525.4668 C 1290.2676 1513.4668 1280.4003 1506.9336 1266.9336 1506.9336 z M 1666.666 1506.9336 C 1644.5327 1506.9336 1628.8008 1524.5335 1628.8008 1549.4668 C 1628.8008 1569.2001 1638.6667 1578.9336 1656 1578.9336 C 1670.5333 1578.9336 1679.8663 1572.0007 1687.5996 1559.334 L 1680.2656 1554.8008 C 1672.5323 1565.7341 1666.8003 1570 1656.9336 1570 C 1642.5336 1570 1639.7324 1561.0668 1639.7324 1551.4668 C 1639.7324 1551.2001 1639.7339 1549.7337 1639.8672 1548.4004 C 1683.7339 1547.2004 1690 1535.2001 1690 1525.4668 C 1690 1513.4668 1680.1327 1506.9336 1666.666 1506.9336 z M 1207.0664 1507.7324 L 1197.0664 1510.666 C 1199.5997 1515.5995 1200.8008 1521.5996 1200.8008 1527.5996 C 1200.8008 1547.4663 1189.1997 1567.3341 1167.0664 1570.2676 L 1165.334 1569.0664 L 1174.4004 1508.5332 L 1149.5996 1508.5332 L 1148.1328 1517.4668 L 1162.8008 1517.4668 L 1155.8672 1563.8672 C 1155.6005 1565.4672 1155.334 1567.4674 1155.334 1568.8008 C 1155.334 1574.8008 1158.6663 1578.4004 1165.5996 1578.4004 C 1190.3996 1578.4004 1211.4668 1555.0664 1211.4668 1527.0664 C 1211.4668 1519.8665 1209.8664 1513.0658 1207.0664 1507.7324 z M 1771.0664 1507.8672 L 1762.2656 1510.5332 C 1764.2656 1514.7999 1765.334 1521.7337 1765.334 1528.4004 C 1765.334 1548.0004 1757.8672 1570.1328 1747.8672 1570.1328 C 1743.7339 1570.1328 1742 1567.8672 1742 1562.4004 C 1742 1560.1339 1742.1327 1557.6009 1742.666 1554.2676 L 1750.1328 1508.5332 L 1741.0664 1508.5332 L 1733.4668 1552.5332 C 1732.8001 1555.9997 1731.5997 1561.334 1729.0664 1564.8008 C 1726.6664 1568.0006 1724.1332 1570.1328 1720.5332 1570.1328 C 1716.6665 1570.1328 1714.5332 1567.8665 1714.5332 1562.5332 C 1714.5332 1560.1332 1714.8007 1557.3341 1715.334 1554.2676 L 1722.8008 1508.5332 L 1713.4668 1508.5332 L 1705.5996 1556.1328 C 1705.0663 1559.5995 1704.8008 1562.2665 1704.8008 1565.0664 C 1704.8008 1573.3331 1708.8008 1578.6659 1716.8008 1578.666 C 1725.2008 1578.666 1729.8658 1573.3327 1733.7324 1564.666 L 1734.4004 1564.666 C 1733.7337 1575.066 1738.5324 1578.666 1745.7324 1578.666 C 1753.0658 1578.666 1759.4656 1575.1999 1764.2656 1568.5332 C 1770.9323 1559.1999 1774.666 1543.8672 1774.666 1527.8672 C 1774.666 1519.7337 1773.1997 1512.5339 1771.0664 1507.8672 z M 595.73242 1508.5332 L 594.26758 1517.4668 L 613.59961 1517.4668 L 603.59961 1577.334 L 614 1577.334 L 620 1541.4668 C 621.33333 1533.4668 626.13385 1527.8672 627.86719 1525.8672 C 632.00052 1521.0672 636.93359 1518.9336 644.93359 1518.9336 L 656.66602 1518.9336 L 658.40039 1508.5332 L 648 1508.5332 C 634.8 1508.5332 627.86641 1516.0003 623.06641 1526.9336 L 622.40039 1526.9336 L 625.4668 1508.5332 L 595.73242 1508.5332 z M 672.26758 1508.5332 L 670.80078 1517.4668 L 695.59961 1517.4668 L 686.5332 1564.4004 C 686.26654 1566.0004 685.86719 1568.001 685.86719 1569.7344 C 685.86719 1575.0677 689.46615 1578.9336 696.13281 1578.9336 C 702.13281 1578.9336 707.06628 1575.7328 719.59961 1564.1328 L 731.73242 1552.9336 L 725.4668 1547.0664 L 699.19922 1569.7344 L 696.13281 1568.5332 L 707.73242 1508.5332 L 672.26758 1508.5332 z M 1315.1992 1508.5332 L 1313.7324 1517.4668 L 1333.0664 1517.4668 L 1323.0664 1577.334 L 1333.4668 1577.334 L 1339.4668 1541.4668 C 1340.8001 1533.4668 1345.6007 1527.8672 1347.334 1525.8672 C 1351.4673 1521.0672 1356.4004 1518.9336 1364.4004 1518.9336 L 1376.1328 1518.9336 L 1377.8672 1508.5332 L 1367.4668 1508.5332 C 1354.2668 1508.5332 1347.3332 1516.0003 1342.5332 1526.9336 L 1341.8672 1526.9336 L 1344.9336 1508.5332 L 1315.1992 1508.5332 z M 1398.1328 1508.5332 L 1391.4668 1548.5332 C 1390.9335 1552.1332 1390.666 1554.6664 1390.666 1557.0664 C 1390.666 1569.5997 1398.0001 1576.9336 1409.4668 1576.9336 C 1420.5335 1576.9336 1427.4665 1569.9997 1432.5332 1559.0664 L 1432.9336 1559.0664 L 1430.2676 1575.334 C 1427.8676 1590.2673 1420.3991 1596.4004 1407.7324 1596.4004 C 1399.3324 1596.4004 1393.7328 1593.7326 1390.1328 1589.1992 L 1382.9336 1596.1328 C 1387.8669 1602.2661 1395.9997 1605.5996 1407.0664 1605.5996 C 1424.2664 1605.5996 1436.8009 1597.6007 1440.2676 1577.334 L 1451.7324 1508.5332 L 1441.334 1508.5332 L 1435.334 1544.5332 C 1434.0007 1552.3999 1428.9335 1558.5342 1427.4668 1560.2676 C 1423.6001 1564.8009 1418.9336 1567.7344 1412.9336 1567.7344 C 1405.2003 1567.7344 1401.334 1562.6665 1401.334 1554.5332 C 1401.334 1553.0665 1401.4667 1550.6663 1402 1547.5996 L 1408.5332 1508.5332 L 1398.1328 1508.5332 z M 306.5332 1515.5996 C 316.5332 1515.5996 320.13281 1520.2672 320.13281 1525.8672 C 320.13281 1532.5339 315.0668 1540.1326 281.4668 1541.1992 L 281.59961 1539.8672 C 283.59961 1524.2672 292.66654 1515.5996 306.5332 1515.5996 z M 546.5332 1515.5996 C 556.5332 1515.5996 560.13281 1520.2672 560.13281 1525.8672 C 560.13281 1532.5339 555.0668 1540.1326 521.4668 1541.1992 L 521.59961 1539.8672 C 523.59961 1524.2672 532.66654 1515.5996 546.5332 1515.5996 z M 786.5332 1515.5996 C 796.5332 1515.5996 800.13281 1520.2672 800.13281 1525.8672 C 800.13281 1532.5339 795.0668 1540.1326 761.4668 1541.1992 L 761.59961 1539.8672 C 763.59961 1524.2672 772.66654 1515.5996 786.5332 1515.5996 z M 1026.1328 1515.5996 C 1036.1328 1515.5996 1039.7324 1520.2672 1039.7324 1525.8672 C 1039.7324 1532.5339 1034.6664 1540.1326 1001.0664 1541.1992 L 1001.1992 1539.8672 C 1003.1992 1524.2672 1012.2661 1515.5996 1026.1328 1515.5996 z M 1266 1515.5996 C 1276 1515.5996 1279.5996 1520.2672 1279.5996 1525.8672 C 1279.5996 1532.5339 1274.5336 1540.1326 1240.9336 1541.1992 L 1241.0664 1539.8672 C 1243.0664 1524.2672 1252.1333 1515.5996 1266 1515.5996 z M 1665.7324 1515.5996 C 1675.7324 1515.5996 1679.334 1520.2672 1679.334 1525.8672 C 1679.334 1532.5339 1674.266 1540.1326 1640.666 1541.1992 L 1640.8008 1539.8672 C 1642.8008 1524.2672 1651.8658 1515.5996 1665.7324 1515.5996 z M 467.33398 1516.1328 C 476.93398 1516.1328 481.86719 1522.2665 481.86719 1532.5332 C 481.86719 1534.2665 481.73398 1536.1332 481.33398 1538.5332 L 479.73242 1548.1328 C 477.59909 1560.9328 470.00078 1569.7344 456.80078 1569.7344 C 446.53411 1569.7344 439.46641 1564.266 441.06641 1554.666 L 443.59961 1539.4668 C 444.66628 1533.0668 447.73255 1527.601 451.19922 1523.7344 C 455.99922 1518.401 461.60065 1516.1328 467.33398 1516.1328 z M 466.93359 1644.2676 C 461.60026 1644.2676 458.79948 1646.666 458.13281 1650.666 C 457.86615 1652.266 457.59961 1653.4665 457.59961 1654.5332 C 457.59961 1657.3332 459.60065 1659.8672 465.33398 1659.8672 C 470.66732 1659.8672 473.46615 1657.4668 474.13281 1653.4668 C 474.39948 1651.8668 474.66602 1650.6663 474.66602 1649.5996 C 474.66602 1646.7996 472.66693 1644.2676 466.93359 1644.2676 z M 1026.4004 1644.2676 C 1021.0671 1644.2676 1018.2663 1646.666 1017.5996 1650.666 C 1017.3329 1652.266 1017.0664 1653.4665 1017.0664 1654.5332 C 1017.0664 1657.3332 1019.0674 1659.8672 1024.8008 1659.8672 C 1030.1341 1659.8672 1032.9329 1657.4668 1033.5996 1653.4668 C 1033.8663 1651.8668 1034.1328 1650.6663 1034.1328 1649.5996 C 1034.1328 1646.7996 1032.1337 1644.2676 1026.4004 1644.2676 z M 755.33398 1645.334 L 753.86719 1654.2676 L 778.13281 1654.2676 L 763.19922 1731.8672 C 762.93255 1733.0672 762.80078 1734.9328 762.80078 1736.1328 C 762.80078 1741.5995 765.60078 1745.5996 772.80078 1745.5996 C 778.13411 1745.5996 782.93385 1743.3329 795.86719 1731.5996 L 809.73242 1719.0664 L 803.73242 1713.1992 L 776.40039 1736.4004 L 773.06641 1735.334 L 790.40039 1645.334 L 755.33398 1645.334 z M 923.86719 1645.334 L 907.33398 1744 L 917.73242 1744 L 924.13281 1706 C 925.46615 1698.1333 930.53333 1692.0009 932 1690.2676 C 935.86667 1685.7342 940.5332 1682.8008 946.5332 1682.8008 C 954.26654 1682.8008 958 1687.8667 958 1696 C 958 1697.4667 957.86732 1700.134 957.33398 1703.334 L 950.5332 1744 L 960.93359 1744 L 967.86719 1702.4004 C 968.40052 1699.3339 968.66602 1696.1335 968.66602 1693.4668 C 968.66602 1680.9335 961.46667 1673.5996 950 1673.5996 C 938.93333 1673.5996 932.13307 1680.5335 927.06641 1691.4668 L 926.5332 1691.4668 L 934.26758 1645.334 L 923.86719 1645.334 z M 1163.8672 1645.334 L 1147.334 1744 L 1157.7324 1744 L 1164.1328 1706 C 1165.4661 1698.1333 1170.5333 1692.0009 1172 1690.2676 C 1175.8667 1685.7342 1180.5332 1682.8008 1186.5332 1682.8008 C 1194.2665 1682.8008 1198 1687.8667 1198 1696 C 1198 1697.4667 1197.8673 1700.134 1197.334 1703.334 L 1190.5332 1744 L 1200.9336 1744 L 1207.8672 1702.4004 C 1208.4005 1699.3339 1208.666 1696.1335 1208.666 1693.4668 C 1208.666 1680.9335 1201.4667 1673.5996 1190 1673.5996 C 1178.9333 1673.5996 1172.1331 1680.5335 1167.0664 1691.4668 L 1166.5332 1691.4668 L 1174.2676 1645.334 L 1163.8672 1645.334 z M 1606.8008 1645.334 L 1599.7324 1687.1992 L 1599.334 1687.1992 C 1596.4007 1678.2659 1589.3326 1673.5996 1579.1992 1673.5996 C 1554.9326 1673.5996 1546.666 1700.5336 1546.666 1718.9336 C 1546.666 1736.5336 1554.2661 1745.5996 1568.1328 1745.5996 C 1580.2661 1745.5996 1587.1999 1738.5326 1592.5332 1727.7324 L 1592.9336 1727.7324 L 1590.2676 1744 L 1600.666 1744 L 1617.1992 1645.334 L 1606.8008 1645.334 z M 1714.666 1645.334 L 1713.1992 1654.2676 L 1737.4668 1654.2676 L 1722.5332 1731.8672 C 1722.2665 1733.0672 1722.1328 1734.9328 1722.1328 1736.1328 C 1722.1328 1741.5995 1724.9328 1745.5996 1732.1328 1745.5996 C 1737.4661 1745.5996 1742.2659 1743.3329 1755.1992 1731.5996 L 1769.0664 1719.0664 L 1763.0664 1713.1992 L 1735.7324 1736.4004 L 1732.4004 1735.334 L 1749.7324 1645.334 L 1714.666 1645.334 z M 376.5332 1650.9336 L 373.4668 1668.9336 C 372.6668 1673.6003 370.53333 1675.1992 366 1675.1992 L 352 1675.1992 L 350.5332 1684.1328 L 370.40039 1684.1328 L 362.40039 1730.5332 C 362.13372 1731.9999 362 1734.5324 362 1735.7324 C 362 1742.1324 365.60052 1745.5996 371.86719 1745.5996 C 377.33385 1745.5996 382.66641 1742.8 395.06641 1734 L 410.13281 1723.334 L 404.93359 1716.666 L 374.93359 1736.666 L 372.26758 1735.0664 L 380.80078 1684.1328 L 409.19922 1684.1328 L 410.66602 1675.1992 L 382.26758 1675.1992 L 386.40039 1650.9336 L 376.5332 1650.9336 z M 147.59961 1673.5996 C 125.46627 1673.5996 109.73242 1691.1995 109.73242 1716.1328 C 109.73242 1735.8661 119.60026 1745.5996 136.93359 1745.5996 C 151.46693 1745.5996 160.79987 1738.6667 168.5332 1726 L 161.19922 1721.4668 C 153.46589 1732.4001 147.73385 1736.666 137.86719 1736.666 C 123.46718 1736.666 120.66602 1727.7327 120.66602 1718.1328 C 120.66602 1717.8661 120.66745 1716.3997 120.80078 1715.0664 C 164.66745 1713.8664 170.93359 1701.8661 170.93359 1692.1328 C 170.93359 1680.1328 161.06628 1673.5996 147.59961 1673.5996 z M 216.40039 1673.5996 C 208.80039 1673.5996 204.6668 1679.0667 201.4668 1686 L 200.93359 1686 L 202.66602 1675.1992 L 193.06641 1675.1992 L 181.59961 1744 L 191.19922 1744 L 198.66602 1699.4668 C 199.33268 1695.4668 200.93346 1691.0668 203.4668 1687.4668 C 205.60013 1684.4001 208.66706 1682.1328 212.40039 1682.1328 C 216.13372 1682.1328 218 1684.4 218 1690 C 218 1692.1333 217.73255 1694.6672 217.19922 1697.8672 L 209.4668 1744 L 219.06641 1744 L 226.5332 1699.4668 C 227.19987 1695.4668 228.80065 1690.9335 231.33398 1687.4668 C 233.60065 1684.4001 236.26667 1682.1328 240 1682.1328 C 244 1682.1328 245.86719 1684.6663 245.86719 1689.5996 C 245.86719 1691.4663 245.46693 1694.6672 244.93359 1697.8672 L 237.19922 1744 L 246.80078 1744 L 254.80078 1696.1328 C 255.33411 1692.9328 255.73242 1689.3341 255.73242 1686.8008 C 255.73242 1678.4008 251.6 1673.5996 244 1673.5996 C 236 1673.5996 230.80065 1678.7993 227.33398 1686.666 L 226.93359 1686.666 C 227.46693 1679.1993 224.13372 1673.5996 216.40039 1673.5996 z M 304.5332 1673.5996 C 284.39987 1673.5996 268.5332 1690.2665 268.5332 1716.5332 C 268.5332 1733.7332 277.73398 1745.5996 295.33398 1745.5996 C 315.60065 1745.5996 331.4668 1728.9327 331.4668 1702.666 C 331.4668 1685.466 322.39987 1673.5996 304.5332 1673.5996 z M 544.5332 1673.5996 C 524.39987 1673.5996 508.5332 1690.2665 508.5332 1716.5332 C 508.5332 1733.7332 517.73398 1745.5996 535.33398 1745.5996 C 555.60065 1745.5996 571.4668 1728.9327 571.4668 1702.666 C 571.4668 1685.466 562.39987 1673.5996 544.5332 1673.5996 z M 630.5332 1673.5996 C 619.46654 1673.5996 612.66628 1680.5335 607.59961 1691.4668 L 607.06641 1691.4668 L 609.73242 1675.1992 L 599.33398 1675.1992 L 587.86719 1744 L 598.26758 1744 L 604.66602 1706 C 605.99935 1698.1333 611.06654 1692.0009 612.5332 1690.2676 C 616.39987 1685.7342 621.06641 1682.8008 627.06641 1682.8008 C 634.79974 1682.8008 638.5332 1687.8667 638.5332 1696 C 638.5332 1697.4667 638.40052 1700.134 637.86719 1703.334 L 631.06641 1744 L 641.4668 1744 L 648.40039 1702.4004 C 648.93372 1699.3339 649.19922 1696.1335 649.19922 1693.4668 C 649.19922 1680.9335 641.99987 1673.5996 630.5332 1673.5996 z M 699.59961 1673.5996 C 675.33294 1673.5996 667.06641 1700.5336 667.06641 1718.9336 C 667.06641 1736.5336 674.66654 1745.5996 688.5332 1745.5996 C 700.66654 1745.5996 707.60026 1738.5326 712.93359 1727.7324 L 713.33398 1727.7324 L 710.66602 1744 L 721.06641 1744 L 732.5332 1675.1992 L 722.13281 1675.1992 L 720.13281 1687.1992 L 719.73242 1687.1992 C 716.79909 1678.2659 709.73294 1673.5996 699.59961 1673.5996 z M 1099.4668 1673.5996 C 1075.7335 1673.5996 1067.0664 1699.4659 1067.0664 1717.1992 C 1067.0664 1733.9992 1074.5327 1743.334 1088.666 1743.334 C 1100.7993 1743.334 1107.9992 1736.5335 1113.1992 1725.4668 L 1113.7324 1725.4668 L 1110.9336 1742 C 1108.4003 1757.2 1100.9337 1763.0664 1088.4004 1763.0664 C 1080.0004 1763.0664 1074.4008 1760.4004 1070.8008 1755.8672 L 1063.5996 1762.8008 C 1068.5329 1768.9341 1076.6658 1772.2676 1087.7324 1772.2676 C 1104.9324 1772.2676 1117.4669 1764.2667 1120.9336 1744 L 1132.4004 1675.1992 L 1122 1675.1992 L 1120 1687.1992 L 1119.5996 1687.1992 C 1116.6663 1678.2659 1109.6001 1673.5996 1099.4668 1673.5996 z M 1264.8008 1673.5996 C 1248.5341 1673.5996 1235.334 1680.9335 1235.334 1695.4668 C 1235.334 1708.2668 1245.7324 1711.5997 1255.7324 1713.0664 L 1265.7324 1714.5332 C 1271.3324 1715.3332 1275.7324 1717.1996 1275.7324 1723.5996 C 1275.7324 1731.8663 1268.2661 1736.8008 1256.1328 1736.8008 C 1245.7328 1736.8008 1238.9329 1733.1999 1233.5996 1726.5332 L 1225.8672 1732.666 C 1231.8672 1740.9327 1241.8659 1745.5996 1255.1992 1745.5996 C 1273.5992 1745.5996 1286 1736.7999 1286 1722.5332 C 1286 1708.9332 1274.6672 1706.8007 1265.8672 1705.334 L 1256.1328 1703.7344 C 1250.5328 1702.801 1245.4668 1701.3327 1245.4668 1694.666 C 1245.4668 1687.1993 1251.7329 1682.4004 1263.5996 1682.4004 C 1275.1996 1682.4004 1280.7992 1686.9332 1283.1992 1690.5332 L 1290.5332 1684.1328 C 1285.3332 1677.5995 1276.8008 1673.5996 1264.8008 1673.5996 z M 1419.1992 1673.5996 C 1394.9326 1673.5996 1386.666 1700.5336 1386.666 1718.9336 C 1386.666 1736.5336 1394.2661 1745.5996 1408.1328 1745.5996 C 1420.2661 1745.5996 1427.1999 1738.5326 1432.5332 1727.7324 L 1432.9336 1727.7324 L 1430.2676 1744 L 1440.666 1744 L 1452.1328 1675.1992 L 1441.7324 1675.1992 L 1439.7324 1687.1992 L 1439.334 1687.1992 C 1436.4007 1678.2659 1429.3326 1673.5996 1419.1992 1673.5996 z M 1509.7324 1673.5996 C 1498.6658 1673.5996 1491.8674 1680.5335 1486.8008 1691.4668 L 1486.2676 1691.4668 L 1488.9336 1675.1992 L 1478.5332 1675.1992 L 1467.0664 1744 L 1477.4668 1744 L 1483.8672 1706 C 1485.2005 1698.1333 1490.2658 1692.0009 1491.7324 1690.2676 C 1495.5991 1685.7342 1500.2676 1682.8008 1506.2676 1682.8008 C 1514.0009 1682.8008 1517.7324 1687.8667 1517.7324 1696 C 1517.7324 1697.4667 1517.5997 1700.134 1517.0664 1703.334 L 1510.2676 1744 L 1520.666 1744 L 1527.5996 1702.4004 C 1528.1329 1699.3339 1528.4004 1696.1335 1528.4004 1693.4668 C 1528.4004 1680.9335 1521.1991 1673.5996 1509.7324 1673.5996 z M 1823.4668 1673.5996 C 1803.3335 1673.5996 1787.4668 1690.2665 1787.4668 1716.5332 C 1787.4668 1733.7332 1796.6676 1745.5996 1814.2676 1745.5996 C 1834.5342 1745.5996 1850.4004 1728.9327 1850.4004 1702.666 C 1850.4004 1685.466 1841.3335 1673.5996 1823.4668 1673.5996 z M 1984.2676 1673.5996 C 1968.0009 1673.5996 1954.8008 1680.9335 1954.8008 1695.4668 C 1954.8008 1708.2668 1965.1992 1711.5997 1975.1992 1713.0664 L 1985.1992 1714.5332 C 1990.7992 1715.3332 1995.1992 1717.1996 1995.1992 1723.5996 C 1995.1992 1731.8663 1987.7329 1736.8008 1975.5996 1736.8008 C 1965.1996 1736.8008 1958.3997 1733.1999 1953.0664 1726.5332 L 1945.334 1732.666 C 1951.334 1740.9327 1961.3327 1745.5996 1974.666 1745.5996 C 1993.066 1745.5996 2005.4668 1736.7999 2005.4668 1722.5332 C 2005.4668 1708.9332 1994.134 1706.8007 1985.334 1705.334 L 1975.5996 1703.7344 C 1969.9996 1702.801 1964.9336 1701.3327 1964.9336 1694.666 C 1964.9336 1687.1993 1971.1997 1682.4004 1983.0664 1682.4004 C 1994.6664 1682.4004 2000.266 1686.9332 2002.666 1690.5332 L 2010 1684.1328 C 2004.8 1677.5995 1996.2676 1673.5996 1984.2676 1673.5996 z M 1930.9336 1674.5332 L 1922.1328 1677.1992 C 1924.1328 1681.4659 1925.1992 1688.3997 1925.1992 1695.0664 C 1925.1992 1714.6665 1917.7324 1736.8008 1907.7324 1736.8008 C 1903.5991 1736.8008 1901.8672 1734.5331 1901.8672 1729.0664 C 1901.8672 1726.7999 1901.9999 1724.2669 1902.5332 1720.9336 L 1910 1675.1992 L 1900.9336 1675.1992 L 1893.334 1719.1992 C 1892.6673 1722.6659 1891.4669 1728.0001 1888.9336 1731.4668 C 1886.5336 1734.6668 1884.0004 1736.8008 1880.4004 1736.8008 C 1876.5337 1736.8008 1874.4004 1734.5326 1874.4004 1729.1992 C 1874.4004 1726.7992 1874.6659 1724.0003 1875.1992 1720.9336 L 1882.666 1675.1992 L 1873.334 1675.1992 L 1865.4668 1722.8008 C 1864.9335 1726.2674 1864.666 1728.9344 1864.666 1731.7344 C 1864.666 1740.001 1868.666 1745.334 1876.666 1745.334 C 1885.066 1745.334 1889.7329 1740.0007 1893.5996 1731.334 L 1894.2676 1731.334 C 1893.6009 1741.7339 1898.3996 1745.334 1905.5996 1745.334 C 1912.9329 1745.334 1919.3328 1741.8659 1924.1328 1735.1992 C 1930.7995 1725.8659 1934.5332 1710.5332 1934.5332 1694.5332 C 1934.5332 1686.3997 1933.0669 1679.1999 1930.9336 1674.5332 z M 432.40039 1675.1992 L 430.93359 1684.1328 L 455.73242 1684.1328 L 446.66602 1731.0664 C 446.39935 1732.6664 446 1734.6671 446 1736.4004 C 446 1741.7337 449.60091 1745.5996 456.26758 1745.5996 C 462.26758 1745.5996 467.19909 1742.4006 479.73242 1730.8008 L 491.86719 1719.5996 L 485.59961 1713.7324 L 459.33398 1736.4004 L 456.26758 1735.1992 L 467.86719 1675.1992 L 432.40039 1675.1992 z M 991.86719 1675.1992 L 990.40039 1684.1328 L 1015.1992 1684.1328 L 1006.1328 1731.0664 C 1005.8661 1732.6664 1005.4668 1734.6671 1005.4668 1736.4004 C 1005.4668 1741.7337 1009.0658 1745.5996 1015.7324 1745.5996 C 1021.7324 1745.5996 1026.6659 1742.4006 1039.1992 1730.8008 L 1051.334 1719.5996 L 1045.0664 1713.7324 L 1018.8008 1736.4004 L 1015.7324 1735.1992 L 1027.334 1675.1992 L 991.86719 1675.1992 z M 146.66602 1682.2676 C 156.66602 1682.2676 160.26758 1686.9332 160.26758 1692.5332 C 160.26758 1699.1999 155.19961 1706.8005 121.59961 1707.8672 L 121.73242 1706.5332 C 123.73242 1690.9332 132.79934 1682.2676 146.66602 1682.2676 z M 304.13281 1682.666 C 314.39948 1682.666 320.93359 1687.9996 320.93359 1699.5996 C 320.93359 1701.1996 320.80091 1703.2004 320.26758 1706.4004 L 318.93359 1714.4004 C 316.66693 1728.0004 308.80052 1736.5332 295.86719 1736.5332 C 285.60052 1736.5332 279.06641 1731.1996 279.06641 1719.5996 C 279.06641 1717.9996 279.19909 1716.0008 279.73242 1712.8008 L 281.06641 1704.8008 C 283.33307 1691.2008 291.19948 1682.666 304.13281 1682.666 z M 544.13281 1682.666 C 554.39948 1682.666 560.93359 1687.9996 560.93359 1699.5996 C 560.93359 1701.1996 560.80091 1703.2004 560.26758 1706.4004 L 558.93359 1714.4004 C 556.66693 1728.0004 548.80052 1736.5332 535.86719 1736.5332 C 525.60052 1736.5332 519.06641 1731.1996 519.06641 1719.5996 C 519.06641 1717.9996 519.19909 1716.0008 519.73242 1712.8008 L 521.06641 1704.8008 C 523.33307 1691.2008 531.19948 1682.666 544.13281 1682.666 z M 1823.0664 1682.666 C 1833.3331 1682.666 1839.8672 1687.9996 1839.8672 1699.5996 C 1839.8672 1701.1996 1839.7326 1703.2004 1839.1992 1706.4004 L 1837.8672 1714.4004 C 1835.6005 1728.0004 1827.7341 1736.5332 1814.8008 1736.5332 C 1804.5341 1736.5332 1798 1731.1996 1798 1719.5996 C 1798 1717.9996 1798.1327 1716.0008 1798.666 1712.8008 L 1800 1704.8008 C 1802.2667 1691.2008 1810.1331 1682.666 1823.0664 1682.666 z M 702.66602 1682.8008 C 712.93268 1682.8008 720.00039 1688.2673 718.40039 1697.8672 L 715.86719 1713.0664 C 714.80052 1719.4664 711.73424 1724.9342 708.26758 1728.8008 C 703.46758 1734.1341 697.86615 1736.4004 692.13281 1736.4004 C 682.53281 1736.4004 677.59961 1730.2667 677.59961 1720 C 677.59961 1718.2667 677.73281 1716.3999 678.13281 1714 L 679.73242 1704.4004 C 681.86576 1691.6005 689.46602 1682.8008 702.66602 1682.8008 z M 1102.5332 1682.8008 C 1112.7999 1682.8008 1119.8676 1688.2672 1118.2676 1697.8672 L 1116.1328 1710.9336 C 1114.9328 1718.4001 1111.0665 1723.7331 1108.5332 1726.5332 C 1103.5999 1731.9999 1098.0009 1734.1328 1092.2676 1734.1328 C 1082.6676 1734.1328 1077.7324 1728.1326 1077.7324 1717.1992 C 1077.7324 1715.3326 1078.0004 1713.7339 1078.4004 1711.334 L 1079.5996 1704.1328 C 1081.7329 1691.3328 1089.5999 1682.8008 1102.5332 1682.8008 z M 1422.2676 1682.8008 C 1432.5342 1682.8008 1439.6 1688.2673 1438 1697.8672 L 1435.4668 1713.0664 C 1434.4001 1719.4664 1431.3339 1724.9342 1427.8672 1728.8008 C 1423.0672 1734.1341 1417.4658 1736.4004 1411.7324 1736.4004 C 1402.1324 1736.4004 1397.1992 1730.2667 1397.1992 1720 C 1397.1992 1718.2667 1397.3324 1716.3999 1397.7324 1714 L 1399.334 1704.4004 C 1401.4673 1691.6005 1409.0676 1682.8008 1422.2676 1682.8008 z M 1582.2676 1682.8008 C 1592.5342 1682.8008 1599.6 1688.2673 1598 1697.8672 L 1595.4668 1713.0664 C 1594.4001 1719.4664 1591.3339 1724.9342 1587.8672 1728.8008 C 1583.0672 1734.1341 1577.4658 1736.4004 1571.7324 1736.4004 C 1562.1324 1736.4004 1557.1992 1730.2667 1557.1992 1720 C 1557.1992 1718.2667 1557.3324 1716.3999 1557.7324 1714 L 1559.334 1704.4004 C 1561.4673 1691.6005 1569.0676 1682.8008 1582.2676 1682.8008 z M 2055.8672 1727.0664 C 2049.0672 1727.0664 2045.8664 1730.1336 2045.0664 1734.9336 C 2044.7997 1736.5336 2044.5332 1738.1326 2044.5332 1739.1992 C 2044.5332 1742.5326 2046.9326 1745.1992 2053.1992 1745.1992 C 2059.9992 1745.1992 2063.2 1742.134 2064 1737.334 C 2064.2667 1735.7339 2064.5332 1734.1332 2064.5332 1733.0664 C 2064.5332 1729.7331 2062.1339 1727.0664 2055.8672 1727.0664 z M 1132.5312 2149.166 C 1131.2392 2149.1329 1130.0297 2149.8879 1129.5059 2151.1094 L 1126.9688 2157.0098 L 1120.0781 2150.9844 C 1118.1768 2149.323 1115.1929 2150.4057 1114.7969 2152.9004 C 1114.7969 2152.9004 1107.23 2200.8057 1099.5273 2240.207 C 1091.922 2279.0977 1073.7813 2312.7754 1073.7812 2312.7754 C 1072.8493 2314.5047 1073.6663 2316.6497 1075.5156 2317.3164 L 1081.5352 2319.4941 L 1082.2285 2330.0312 C 1082.3952 2332.5112 1085.1967 2333.8702 1087.25 2332.4648 L 1103.1309 2321.584 C 1104.4162 2322.292 1107.6088 2324.0512 1112.5781 2326.8379 C 1118.4528 2330.1352 1125.0412 2333.9128 1127.0879 2335.2461 C 1128.9786 2336.4848 1131.2141 2336.7659 1133.1367 2336.5059 C 1135.0634 2336.2405 1136.7875 2335.5302 1138.3809 2334.7129 C 1141.5795 2333.0822 1144.458 2330.9007 1145.9727 2330.082 C 1145.494 2330.3434 1146.3685 2329.9843 1147.5352 2329.875 C 1148.7018 2329.771 1150.3178 2329.7248 1152.2031 2329.7461 C 1155.9698 2329.7928 1160.8395 2330.126 1165.8555 2330.75 C 1175.8861 2332.0007 1186.8286 2334.8796 1190.2246 2337.5156 C 1195.8286 2341.869 1204.0158 2344.0169 1210.9531 2345.3809 C 1216.5838 2346.4849 1219.6144 2346.6823 1221.2344 2346.8223 L 1222.6777 2352.8691 C 1223.3697 2355.7758 1227.3029 2356.2395 1228.6562 2353.5781 C 1228.6562 2353.5781 1231.8596 2347.2764 1235.3223 2340.0684 C 1238.7916 2332.855 1242.4641 2325.042 1243.7188 2320.75 C 1244.9787 2316.4487 1243.8173 2313.0419 1242.8066 2311.0312 C 1241.7973 2309.0219 1241.1926 2308.3685 1241.5566 2305.7285 C 1242.4313 2299.3685 1246.7461 2281.166 1246.7461 2281.166 C 1247.2661 2278.978 1245.4266 2276.9429 1243.1973 2277.2402 C 1243.1973 2277.2402 1220.9542 2280.1564 1197.9902 2275.1777 C 1178.5742 2270.9644 1154.1148 2275.4426 1143.9375 2277.6973 C 1145.5268 2270.8599 1151.0218 2247.3122 1155.8965 2229.1309 C 1161.5578 2208.0002 1165.0565 2173.2871 1165.2285 2171.5938 L 1176.5469 2158.1406 C 1178.4215 2155.9126 1176.5938 2152.5354 1173.7031 2152.8848 L 1159.5938 2154.5879 L 1133.0879 2149.2285 C 1132.9017 2149.1907 1132.7158 2149.1707 1132.5312 2149.166 z M 1370.6934 2168.2559 C 1340.8752 2167.8786 1314.6302 2194.435 1298.875 2213.6094 C 1280.5363 2235.9214 1278.8327 2251.9321 1299.7754 2276.7188 C 1320.7181 2301.5107 1353.7916 2319.6457 1379.2129 2310.4844 C 1404.6356 2301.3284 1421.9181 2306.0169 1434.1367 2283.5742 C 1437.9487 2276.5636 1440.4267 2270.7651 1441.6934 2265.3691 C 1444.4734 2253.4891 1441.4066 2243.5314 1433.8906 2226.7461 C 1433.8906 2226.7461 1421.4319 2182.5152 1385.5879 2170.7539 C 1380.5475 2169.0994 1375.5727 2168.3176 1370.6934 2168.2559 z M 1513.5312 2177.1953 C 1511.9078 2177.1806 1510.5193 2178.7654 1511.0566 2180.5215 C 1511.0566 2180.5215 1511.6973 2182.7963 1511.584 2184.791 C 1511.5267 2185.791 1511.2705 2186.6047 1510.9531 2187.0273 C 1510.6398 2187.4487 1510.3435 2187.7454 1509.0781 2187.8027 C 1506.3115 2187.9321 1502.1982 2186.3232 1498.9648 2184.5059 C 1495.7302 2182.6939 1493.3848 2180.8438 1493.3848 2180.8438 C 1492.3434 2180.0211 1490.8436 2180.1311 1489.9316 2181.0938 C 1489.9316 2181.0938 1488.9315 2182.2084 1488.0781 2184.0684 C 1487.2235 2185.9324 1486.3485 2188.7186 1486.0352 2192.5879 C 1485.4058 2200.3279 1487.0102 2212.3537 1495.2969 2230.291 C 1511.4635 2265.2963 1530.3596 2304.8396 1530.7129 2305.5742 C 1530.5462 2306.5889 1530.2035 2308.9643 1530.3809 2312.3496 C 1530.6049 2316.5843 1531.6568 2321.9206 1535.7461 2325.5566 C 1539.2554 2328.6766 1542.4112 2330.3334 1544.7539 2331.1934 C 1547.0926 2332.052 1548.8594 2332.1191 1548.8594 2332.1191 C 1549.6927 2332.1351 1550.4838 2331.7457 1550.9785 2331.0684 C 1550.9785 2331.0684 1594.3113 2271.9072 1616.3633 2245.6152 C 1638.5353 2219.1779 1648.9062 2208.375 1648.9062 2208.375 C 1649.2236 2208.0363 1649.4487 2207.6193 1649.5527 2207.166 C 1649.8807 2205.734 1648.9471 2204.3225 1647.5098 2204.0625 C 1647.5098 2204.0625 1644.7873 2203.5633 1642.1406 2202.6406 C 1640.8126 2202.178 1639.5274 2201.5926 1638.7461 2201.0566 C 1637.9648 2200.526 1637.9737 2200.2287 1637.9844 2200.4727 C 1637.8857 2197.8327 1636.0571 2196.5783 1634.3438 2195.4316 C 1632.6304 2194.2916 1630.5794 2193.3182 1628.5527 2192.4648 C 1624.8341 2190.9075 1621.7759 2190.0099 1621.1973 2189.8379 L 1611.2402 2180.2246 C 1609.9696 2179.0006 1607.8637 2179.396 1607.125 2181 C 1607.125 2181 1604.0414 2187.688 1599.6934 2195.6934 C 1595.344 2203.6974 1589.6396 2213.0415 1584.9062 2217.9375 C 1576.2649 2226.8695 1563.5785 2235.0418 1560.1719 2237.2031 C 1558.3225 2232.7298 1555.1253 2222.7549 1557.416 2210.7402 C 1559.068 2202.0936 1560.349 2195.3234 1560.041 2190.5527 C 1559.885 2188.1621 1559.3323 2185.7591 1557.0977 2184.5098 C 1554.8683 2183.2644 1552.4379 2184.0207 1550.0059 2185.3594 C 1545.8179 2187.6714 1541.5421 2189.8285 1538.1621 2190.7031 C 1536.4701 2191.1405 1535.031 2191.2446 1533.9844 2191.0566 C 1532.943 2190.8686 1532.2697 2190.5114 1531.5977 2189.6367 C 1529.0617 2186.3607 1524.9215 2183.5207 1521.3281 2181.2754 C 1517.7348 2179.0301 1514.6719 2177.4785 1514.6719 2177.4785 C 1514.2929 2177.2873 1513.9059 2177.1987 1513.5312 2177.1953 z M 1366.4004 2220.4082 C 1373.0096 2220.5004 1378.4862 2224.312 1381.6152 2230.125 C 1384.4899 2235.4477 1386.4436 2239.1835 1385.0742 2243.8555 C 1384.4542 2245.9795 1383.1444 2248.2981 1380.9258 2251.0527 C 1373.8324 2259.8554 1361.3809 2262.4636 1363.4902 2255.7129 C 1365.5996 2248.9636 1366.2242 2247.9422 1356.5469 2249.2129 C 1356.5469 2249.2129 1342.421 2235.6511 1344.2344 2229.7871 C 1346.0464 2223.9271 1349.8177 2225.0511 1359.459 2221.6191 C 1361.869 2220.7598 1364.1973 2220.3775 1366.4004 2220.4082 z M 224.26758 2257.1992 C 215.46758 2257.1992 212.40039 2261.1999 212.40039 2266.5332 L 212.40039 2270.4004 C 212.40039 2275.6004 215.46758 2279.7324 224.26758 2279.7324 C 233.06758 2279.7324 236.13281 2275.6004 236.13281 2270.4004 L 236.13281 2266.5332 C 236.13281 2261.1999 233.06758 2257.1992 224.26758 2257.1992 z M 141.33398 2262.666 C 120.26731 2262.666 107.86719 2273.0669 107.86719 2290.9336 C 107.86719 2304.5336 114.93294 2314.7996 131.59961 2317.5996 L 141.33398 2319.1992 C 150.40065 2320.6659 153.86719 2323.7342 153.86719 2330.2676 C 153.86719 2338.2676 148.66589 2342.666 139.19922 2342.666 C 130.93255 2342.666 122.53242 2339.1991 115.73242 2331.7324 L 104.13281 2344.5332 C 111.19948 2353.3332 123.06653 2358.9336 138.5332 2358.9336 C 161.86654 2358.9336 174.13281 2346.1327 174.13281 2328.666 C 174.13281 2313.9993 165.46654 2305.1999 150.5332 2302.5332 L 140.80078 2300.8008 C 131.73411 2299.2008 128 2296.4 128 2290 C 128 2282.6667 132.53346 2278.9336 141.4668 2278.9336 C 149.8668 2278.9336 156.79909 2282.2658 161.73242 2287.7324 L 173.06641 2275.0664 C 166.53307 2267.4664 155.60065 2262.666 141.33398 2262.666 z M 525.86719 2264.2676 L 525.86719 2280.4004 C 525.86719 2286.5337 523.59909 2288.5332 517.73242 2288.5332 L 505.59961 2288.5332 L 505.59961 2303.8672 L 524.26758 2303.8672 L 524.26758 2337.4668 C 524.26758 2349.0668 531.06732 2357.334 545.33398 2357.334 L 570.80078 2357.334 L 570.80078 2342 L 544 2342 L 544 2303.8672 L 570.80078 2303.8672 L 570.80078 2288.5332 L 544 2288.5332 L 544 2264.2676 L 525.86719 2264.2676 z M 321.86719 2275.334 C 315.33385 2275.334 311.33398 2279.3327 311.33398 2284.666 L 311.33398 2288.4004 C 307.73398 2287.4671 303.59922 2286.9336 299.19922 2286.9336 C 281.19922 2286.9336 269.33398 2295.4668 269.33398 2311.4668 C 269.33398 2321.6001 274.13424 2328.7993 282.26758 2332.666 L 282.26758 2333.4668 C 274.80091 2335.2001 269.86719 2337.9993 269.86719 2344.666 C 269.86719 2350.666 273.60013 2353.7335 279.4668 2355.4668 L 279.4668 2356.2676 C 271.20013 2358.4009 266.26758 2361.9991 266.26758 2369.7324 C 266.26758 2379.0658 273.46628 2385.5996 299.59961 2385.5996 C 325.73294 2385.5996 337.73242 2378.8009 337.73242 2364.2676 C 337.73242 2352.6676 330.13372 2344.4004 310.40039 2344.4004 L 294.66602 2344.4004 C 289.19935 2344.4004 284.5332 2344.1324 284.5332 2339.7324 C 284.5332 2337.3324 286 2335.7327 288 2334.666 C 291.33333 2335.5993 295.19922 2336 299.19922 2336 C 317.33255 2336 329.33398 2327.3335 329.33398 2311.4668 C 329.33398 2301.7335 324.93346 2294.8003 317.4668 2290.9336 L 317.4668 2289.7324 L 334 2289.7324 L 334 2275.334 L 321.86719 2275.334 z M 389.4668 2286.9336 C 378.40013 2286.9336 372.26589 2293.3331 369.19922 2301.0664 L 368.40039 2301.0664 L 368.40039 2288.5332 L 348.66602 2288.5332 L 348.66602 2357.334 L 368.40039 2357.334 L 368.40039 2312.1328 C 368.40039 2305.4661 374.39987 2302.1328 380.5332 2302.1328 C 388.26654 2302.1328 392.13281 2306.8001 392.13281 2315.4668 L 392.13281 2357.334 L 411.86719 2357.334 L 411.86719 2312.8008 C 411.86719 2296.1341 402.6668 2286.9336 389.4668 2286.9336 z M 458.66602 2286.9336 C 443.33268 2286.9336 433.33411 2292.6671 428.80078 2300.4004 L 439.59961 2310 C 443.33294 2304.9333 448.13372 2301.334 456.40039 2301.334 C 465.46706 2301.334 468.93359 2305.5991 468.93359 2313.7324 L 468.93359 2317.1992 L 457.86719 2317.1992 C 437.73385 2317.1992 426.93359 2324.0004 426.93359 2338.4004 C 426.93359 2351.3337 435.73307 2358.9336 449.06641 2358.9336 C 459.59974 2358.9336 467.6 2354.1326 470 2345.1992 L 470.66602 2345.1992 C 471.46602 2352.9326 476.80026 2357.334 484.93359 2357.334 L 496.26758 2357.334 L 496.26758 2343.0664 L 488.66602 2343.0664 L 488.66602 2312.9336 C 488.66602 2295.6003 477.46602 2286.9336 458.66602 2286.9336 z M 779.73242 2286.9336 C 759.06576 2286.9336 746.26758 2300.6659 746.26758 2323.1992 C 746.26758 2345.1992 758.40013 2358.9336 781.4668 2358.9336 C 796.2668 2358.9336 805.60026 2353.3341 810.93359 2346.8008 L 800.26758 2335.1992 C 796.00091 2340.2659 790.26615 2343.7324 782.13281 2343.7324 C 771.59948 2343.7324 765.86719 2337.7336 765.86719 2328.9336 L 765.86719 2327.7324 L 812.93359 2327.7324 L 812.93359 2321.8672 C 812.93359 2300.4005 800.26575 2286.9336 779.73242 2286.9336 z M 859.59961 2286.9336 C 849.59961 2286.9336 845.59961 2292 845.59961 2298 L 845.59961 2302.666 C 845.59961 2308.666 849.59961 2313.7324 859.59961 2313.7324 C 869.59961 2313.7324 873.59961 2308.666 873.59961 2302.666 L 873.59961 2298 C 873.59961 2292 869.59961 2286.9336 859.59961 2286.9336 z M 192.5332 2288.5332 L 192.5332 2303.8672 L 214.40039 2303.8672 L 214.40039 2342 L 192.5332 2342 L 192.5332 2357.334 L 254.40039 2357.334 L 254.40039 2342 L 234.13281 2342 L 234.13281 2288.5332 L 192.5332 2288.5332 z M 588.13281 2288.5332 L 588.13281 2333.0664 C 588.13281 2349.7331 597.3332 2358.9336 610.5332 2358.9336 C 621.59987 2358.9336 627.73411 2352.5341 630.80078 2344.8008 L 631.59961 2344.8008 L 631.59961 2357.334 L 651.33398 2357.334 L 651.33398 2288.5332 L 631.59961 2288.5332 L 631.59961 2333.7324 C 631.59961 2340.3991 625.60013 2343.7324 619.4668 2343.7324 C 611.73346 2343.7324 607.86719 2339.0671 607.86719 2330.4004 L 607.86719 2288.5332 L 588.13281 2288.5332 z M 669.4668 2288.5332 L 669.4668 2303.8672 L 685.33398 2303.8672 L 685.33398 2342 L 669.4668 2342 L 669.4668 2357.334 L 727.73242 2357.334 L 727.73242 2342 L 705.06641 2342 L 705.06641 2321.5996 C 705.06641 2313.3329 710.13385 2306.666 719.86719 2306.666 L 734.5332 2306.666 L 734.5332 2288.5332 L 728 2288.5332 C 714.4 2288.5332 708.53333 2297.8667 706 2308 L 705.06641 2308 L 705.06641 2288.5332 L 669.4668 2288.5332 z M 299.19922 2299.4668 C 307.06589 2299.4668 310.66602 2303.8672 310.66602 2309.8672 L 310.66602 2313.0664 C 310.66602 2319.0664 307.06589 2323.4668 299.19922 2323.4668 C 291.46589 2323.4668 288 2319.0664 288 2313.0664 L 288 2309.8672 C 288 2303.8672 291.46589 2299.4668 299.19922 2299.4668 z M 779.86719 2301.0664 C 788.40052 2301.0664 793.59961 2306.6663 793.59961 2315.5996 L 793.59961 2316.666 L 765.86719 2316.666 L 765.86719 2315.5996 C 765.86719 2306.7996 771.33385 2301.0664 779.86719 2301.0664 z M 458.40039 2327.8672 L 468.93359 2327.8672 L 468.93359 2336.1328 C 468.93359 2342.5328 463.46654 2346 456.5332 2346 C 450.26654 2346 446.26758 2343.466 446.26758 2338.666 L 446.26758 2336 C 446.26758 2330.6667 450.53372 2327.8672 458.40039 2327.8672 z M 859.59961 2332.1328 C 849.59961 2332.1328 845.59961 2337.1992 845.59961 2343.1992 L 845.59961 2347.8672 C 845.59961 2353.8672 849.59961 2358.9336 859.59961 2358.9336 C 869.59961 2358.9336 873.59961 2353.8672 873.59961 2347.8672 L 873.59961 2343.1992 C 873.59961 2337.1992 869.59961 2332.1328 859.59961 2332.1328 z M 285.19922 2360 L 308.80078 2360 C 316.80078 2360 319.06641 2362.1324 319.06641 2365.7324 C 319.06641 2370.3991 315.06615 2372.9336 306.13281 2372.9336 L 294.5332 2372.9336 C 285.86654 2372.9336 282.5332 2369.8663 282.5332 2365.5996 C 282.5332 2363.3329 283.46589 2361.4667 285.19922 2360 z M 987.4668 2371.4668 L 987.4668 2378.4004 L 1051.4668 2378.4004 L 1051.4668 2371.4668 L 987.4668 2371.4668 z M 1067.4668 2371.4668 L 1067.4668 2378.4004 L 1131.4668 2378.4004 L 1131.4668 2371.4668 L 1067.4668 2371.4668 z M 1147.4668 2371.4668 L 1147.4668 2378.4004 L 1211.4668 2378.4004 L 1211.4668 2371.4668 L 1147.4668 2371.4668 z M 1227.4668 2371.4668 L 1227.4668 2378.4004 L 1291.4668 2378.4004 L 1291.4668 2371.4668 L 1227.4668 2371.4668 z M 1307.4668 2371.4668 L 1307.4668 2378.4004 L 1371.4668 2378.4004 L 1371.4668 2371.4668 L 1307.4668 2371.4668 z M 1387.4668 2371.4668 L 1387.4668 2378.4004 L 1451.4668 2378.4004 L 1451.4668 2371.4668 L 1387.4668 2371.4668 z M 1467.0664 2371.4668 L 1467.0664 2378.4004 L 1531.0664 2378.4004 L 1531.0664 2371.4668 L 1467.0664 2371.4668 z M 1547.0664 2371.4668 L 1547.0664 2378.4004 L 1611.0664 2378.4004 L 1611.0664 2371.4668 L 1547.0664 2371.4668 z M 1627.0664 2371.4668 L 1627.0664 2378.4004 L 1691.0664 2378.4004 L 1691.0664 2371.4668 L 1627.0664 2371.4668 z M 1707.0664 2371.4668 L 1707.0664 2378.4004 L 1771.0664 2378.4004 L 1771.0664 2371.4668 L 1707.0664 2371.4668 z M 1787.0664 2371.4668 L 1787.0664 2378.4004 L 1851.0664 2378.4004 L 1851.0664 2371.4668 L 1787.0664 2371.4668 z M 1867.0664 2371.4668 L 1867.0664 2378.4004 L 1931.0664 2378.4004 L 1931.0664 2371.4668 L 1867.0664 2371.4668 z M 1947.0664 2371.4668 L 1947.0664 2378.4004 L 2011.0664 2378.4004 L 2011.0664 2371.4668 L 1947.0664 2371.4668 z M 2027.0664 2371.4668 L 2027.0664 2378.4004 L 2091.0664 2378.4004 L 2091.0664 2371.4668 L 2027.0664 2371.4668 z M 2106.666 2371.4668 L 2106.666 2378.4004 L 2170.666 2378.4004 L 2170.666 2371.4668 L 2106.666 2371.4668 z "
       transform="matrix(0.75000002,0,0,0.75000002,0,-3.4368424e-5)" /></g></svg>
