<?xml version="1.0" encoding="UTF-8" standalone="no"?>
<svg
   xmlns:svg="http://www.w3.org/2000/svg"
   xmlns="http://www.w3.org/2000/svg"
   xmlns:sodipodi="http://sodipodi.sourceforge.net/DTD/sodipodi-0.dtd"
   xmlns:inkscape="http://www.inkscape.org/namespaces/inkscape"
   inkscape:version="1.1-dev (1:0.92.0+devel+202005110039+9ce7266)"
   sodipodi:docname="05.svg"
   version="1.1"
   id="svg1036"
   xml:space="preserve"
   width="2527.5789"
   height="2526.3159"
   viewBox="0 0 2527.5789 2526.3159"><sodipodi:namedview
     inkscape:current-layer="svg1036"
     inkscape:window-maximized="0"
     inkscape:window-y="30"
     inkscape:window-x="0"
     inkscape:cy="1263.158"
     inkscape:cx="1263.7894"
     inkscape:zoom="0.26956249"
     showgrid="false"
     id="namedview892"
     inkscape:window-height="480"
     inkscape:window-width="796"
     inkscape:pageshadow="2"
     inkscape:pageopacity="0"
     guidetolerance="10"
     gridtolerance="10"
     objecttolerance="10"
     borderopacity="1"
     bordercolor="#666666"
     pagecolor="#ffffff" /><defs
     id="defs1040" /><g
     style="fill:#625970;fill-opacity:1"
     id="g1042"
     transform="matrix(1.3333333,0,0,1.3333333,0,4.5824564e-5)"><g
       style="fill:#625970;fill-opacity:1"
       id="g1044"><path
         d="m 551.848,1822.633 c -6.567,-0.754 -24.106,-5.582 -39.868,-10.973 -41.828,-14.308 -103.812,-41.074 -195.656,-84.488 -18.656,-8.82 -36.922,-16.953 -40.586,-18.07 -8.371,-2.551 -24.203,-4.54 -46.644,-5.852 -26.301,-1.543 -33.285,-3.832 -37.364,-12.254 -2.437,-5.035 -2.128,-9.738 1.051,-15.969 7.641,-14.976 53.75,-61.562 114.574,-115.754 7.778,-6.929 14.032,-12.711 13.895,-12.843 -0.133,-0.137 -4.637,-0.86 -10.004,-1.614 -5.371,-0.754 -10.672,-1.855 -11.781,-2.453 -4.227,-2.261 -3.473,-9.851 1.156,-11.609 1.449,-0.551 7.07,-0.207 15.762,0.965 20.555,2.765 18.176,3.39 31.625,-8.309 12.086,-10.515 14.601,-11.715 17.597,-8.402 3.34,3.691 2.11,6.426 -6.046,13.449 l -7.649,6.586 6.438,0.605 c 10.472,0.985 61.808,0.86 72.832,-0.179 19.769,-1.864 67.035,-2.711 101.769,-1.824 57.739,1.472 99.696,4.8 128.664,10.199 4.399,0.82 8.434,1.222 8.965,0.89 1.301,-0.8 1.238,-13.644 -0.094,-20.062 -0.586,-2.828 -2.929,-8.629 -5.207,-12.891 -5.234,-9.797 -12.465,-27.73 -18.89,-46.851 -5.047,-15.024 -5.543,-18.09 -2.93,-18.09 0.969,0 2.625,3.496 5.051,10.664 7.097,20.945 12.652,35.101 19.219,48.945 7.421,15.653 9.238,23.203 8.175,33.953 l -0.629,6.332 18.735,7.387 c 33.117,13.051 60.988,21.121 80.273,23.238 l 10.188,1.121 5.898,-2.996 c 7.324,-3.718 19.723,-12.922 43.531,-32.324 64.29,-52.375 75.375,-59.332 106.153,-66.613 4.543,-1.074 16.011,-5.242 25.492,-9.266 24.219,-10.277 31.703,-12.238 49.246,-12.894 16.051,-0.602 24.879,0.39 41.066,4.613 22.125,5.77 38.301,11.738 77.723,28.676 49.938,21.453 60.61,24.285 87.453,23.226 19.074,-0.757 31.262,-1.918 47.867,-4.562 11.204,-1.785 12.633,-1.836 14.664,-0.504 3.25,2.125 4.012,6.191 1.735,9.238 -1.356,1.821 -3.395,2.781 -7.742,3.66 -18.16,3.68 -55.809,6.7 -72.438,5.813 -19.496,-1.039 -36.039,-6.453 -85.777,-28.086 -49.883,-21.691 -78.465,-29.527 -104.047,-28.531 -15.227,0.597 -22.688,2.57 -43.414,11.476 -17.867,7.68 -22.309,9.207 -35.102,12.071 -7.777,1.738 -12.965,3.628 -19.871,7.246 -15.566,8.148 -27.984,17.445 -85.687,64.152 -18.094,14.648 -34.086,25.434 -40.555,27.355 -6.73,1.997 -11.922,1.907 -25.726,-0.445 -21.348,-3.637 -49.047,-12.062 -77.653,-23.625 -21.816,-8.816 -39.91,-12.164 -84.066,-15.551 -57.473,-4.406 -148.067,-4.886 -177.781,-0.945 -7.434,0.988 -55.126,0.586 -71.989,-0.605 l -16.176,-1.145 -16.246,14.402 c -69.925,61.985 -119.558,112.68 -119.558,122.118 0,4.968 6.965,6.566 35.379,8.117 20.422,1.113 32.554,2.777 42.687,5.855 3.707,1.125 20.918,8.735 38.242,16.906 119.266,56.25 186.727,84.399 224.356,93.606 l 11.605,2.84 32.981,-0.039 c 53.215,-0.063 154.469,-1.707 175.457,-2.848 38.496,-2.094 70.894,-5.285 94.183,-9.281 14.95,-2.563 28.629,-5.981 57.016,-14.238 48.625,-14.141 127.434,-29.762 186.578,-36.985 36.531,-4.457 56.555,-5.765 79.664,-5.195 17.082,0.422 20.028,0.762 33.738,3.922 20.813,4.797 28.512,5.82 43.618,5.797 18.918,-0.032 31.218,-3.082 47.007,-11.664 13.11,-7.125 28.305,-20.426 59.208,-51.817 30.824,-31.32 55.8,-60.398 61.554,-71.68 2.488,-4.882 3.231,-11.308 1.645,-14.269 -3.203,-5.977 -15.555,-7.766 -29.391,-4.266 -10.578,2.68 -40.808,2.375 -51.34,-0.515 -9.144,-2.508 -15.594,-6.227 -18.64,-10.746 -4.395,-6.524 -1.567,-17.516 4.504,-17.516 4.886,0 7.324,4.246 4.964,8.652 -2.332,4.36 9.438,9.239 25.676,10.649 11.133,0.965 23.563,0.156 35.172,-2.297 21.047,-4.442 36.582,1.219 40.52,14.762 3.621,12.449 -2.407,24.019 -28.071,53.921 -31.789,37.036 -72.867,76.993 -92.918,90.391 -18.125,12.106 -32.777,16.68 -56.015,17.484 -17.047,0.59 -29.176,-0.792 -49.43,-5.628 -16.129,-3.852 -32.195,-4.954 -54.621,-3.747 -72.52,3.907 -177.094,22.731 -255.535,45.997 -50.375,14.941 -107.305,20.46 -220.504,21.375 -115.129,0.925 -126.067,0.984 -128.906,0.656 z m 6.3,-98.125 c -50.816,-2.399 -112.753,-7.238 -167.675,-13.098 -82.473,-8.801 -114.563,-15.293 -122.567,-24.805 -4.097,-4.875 -3.429,-8.8 3.211,-18.882 7.481,-11.352 12.262,-16.543 29.883,-32.43 16.617,-14.984 47.277,-40.832 50.219,-42.332 3.851,-1.969 9.078,2.363 7.777,6.453 -0.308,0.981 -6.547,6.742 -13.859,12.805 -35.121,29.113 -56.051,48.91 -63.344,59.906 -5.543,8.355 -5.481,8.551 3.641,11.594 14.023,4.676 45.14,9.64 94.375,15.054 134.461,14.786 249.121,19.426 313.312,12.676 31.031,-3.261 44.328,-6.722 65.176,-16.953 22.312,-10.949 40.828,-18.617 74.789,-30.969 l 5.976,-2.175 -9.851,-8.543 c -5.418,-4.7 -15.738,-14.09 -22.938,-20.868 -21.968,-20.683 -24.324,-21.988 -45.753,-25.371 -9.012,-1.422 -16.946,-1.718 -44.868,-1.691 -33.812,0.039 -46.894,0.676 -89.172,4.371 -61.777,5.398 -189.953,21.59 -199.652,25.219 -10.715,4.008 -20.476,11.445 -40.914,31.172 -15.156,14.625 -20.269,18.179 -26.141,18.179 -7.062,0 -9.105,-5.414 -6.652,-17.652 2.438,-12.188 14.524,-41.473 17.113,-41.473 0.582,0 0.825,0.547 0.536,1.211 -0.29,0.668 -2.723,6.071 -5.407,12.004 -7.062,15.629 -10,24.934 -10.523,33.367 -0.516,8.266 0.687,10.606 5.465,10.606 4.293,0 10.601,-4.754 25.98,-19.574 19.848,-19.125 29.524,-26.286 41.024,-30.348 6.5,-2.297 101.578,-14.906 156.527,-20.758 64.332,-6.851 104.816,-9.258 143.437,-8.527 28.196,0.535 38.571,1.656 51.129,5.535 7.797,2.41 10.727,4.672 33.235,25.633 9.578,8.918 20.297,18.578 23.816,21.461 l 6.402,5.246 5.715,-1.981 c 10.317,-3.574 37.399,-11.652 53.688,-16.015 8.797,-2.356 16.129,-4.696 16.297,-5.203 0.734,-2.196 8.574,-13.579 12.675,-18.391 28.524,-33.516 97,-65.91 180.383,-85.34 16.52,-3.848 19.387,-4.312 19.387,-3.144 0,0.535 -3.379,1.714 -7.512,2.613 -31.152,6.781 -69.508,18.195 -95.226,28.34 -51.543,20.332 -86.071,43.621 -103.516,69.824 -1.867,2.805 -3.137,5.359 -2.824,5.672 2.101,2.101 68.594,-18.149 98.039,-29.856 5.301,-2.105 17.949,-7.929 28.109,-12.941 27.973,-13.797 60.965,-24 107.645,-33.293 44.363,-8.832 54.168,-9.594 137.633,-10.719 142.656,-1.922 135.316,-2.066 133.816,2.656 -0.57,1.797 -1.73,1.973 -16.328,2.485 -8.645,0.304 -54.754,1.015 -102.465,1.582 -89.875,1.062 -97.496,1.418 -124.824,5.808 -38.664,6.215 -81.899,16.887 -108.762,26.844 -5.066,1.875 -16.406,7.016 -25.199,11.422 -19.191,9.617 -28.035,13.231 -54.766,22.398 l -20.351,6.981 7.269,0.535 c 3.996,0.293 16.864,1.02 28.59,1.613 19.817,1.004 41.219,2.536 110.496,7.907 38.836,3.011 78.414,3.023 109.039,0.035 30.641,-2.988 85.094,-9.012 124.692,-13.793 17.851,-2.156 33.328,-3.645 34.39,-3.309 3.11,0.989 4.328,4.75 2.457,7.602 -0.859,1.316 -2.34,2.629 -3.285,2.918 -3.961,1.215 -117.707,14.101 -154.379,17.488 -51.324,4.738 -57.558,4.602 -167.676,-3.738 -58.253,-4.414 -65.347,-4.805 -88.203,-4.863 -21.152,-0.055 -23.797,0.136 -37.121,2.695 -7.89,1.515 -17.031,3.48 -20.308,4.363 -5.707,1.539 -6.106,1.852 -9.371,7.352 -1.871,3.16 -5.618,8.011 -8.321,10.777 -12,12.293 -25.902,13.98 -43.695,5.305 l -7.66,-3.739 -18.672,6.739 c -27.512,9.929 -42.984,16.351 -65.176,27.039 -26.281,12.66 -38.879,15.988 -75.601,19.98 -16.379,1.781 -104.422,2.649 -132.786,1.309 z m 331.965,-50.731 c 2.664,-1.25 6.664,-4.047 8.891,-6.215 3.816,-3.726 10.98,-13.457 10.98,-14.917 0,-1.258 -52.789,13.875 -54.632,15.66 -0.461,0.445 0.605,1.558 2.375,2.472 11.171,5.778 23.933,6.957 32.386,3 z m -106.07,-120.98 c -0.508,-1.238 -4.75,-29.836 -9.426,-63.551 -7.644,-55.156 -8.347,-61.453 -7.008,-62.793 1.871,-1.875 4.602,-0.914 5.235,1.836 1.422,6.16 17,120.707 16.758,123.191 -0.379,3.848 -4.149,4.739 -5.559,1.317 z M 397.355,1376.094 c -36.007,-8.117 -50.859,-22.903 -56.964,-56.707 -2.231,-12.364 -2.203,-46.875 0.05,-63.723 4.168,-31.164 19.375,-74.176 41.985,-118.758 5.074,-10.008 10.066,-18.648 11.097,-19.199 2.481,-1.328 5.375,-0.309 7.247,2.551 1.468,2.238 1.152,3.066 -8.575,22.461 -13.066,26.051 -21.754,46.648 -29.433,69.765 -9.578,28.836 -12.957,49.094 -12.973,77.825 -0.031,37.129 8.133,57.726 26.379,66.605 8.394,4.086 21.355,8.035 28.594,8.711 5.55,0.516 6.066,0.406 6.066,-1.316 0,-2.114 -3.508,-7.965 -12.305,-20.524 -22.105,-31.574 -30.929,-66.355 -21.789,-85.89 5.321,-11.368 15.536,-22.754 32.575,-36.301 9.238,-7.352 12.453,-8.391 15.5,-5.028 2.964,3.278 1.535,5.942 -6.711,12.485 -16.207,12.855 -28.633,26.656 -32.043,35.582 -1.348,3.531 -1.575,6.39 -1.176,14.785 0.922,19.305 9.437,39.418 27.047,63.875 9.84,13.664 12.32,21.191 9.062,27.496 -2.926,5.656 -12.515,7.809 -23.629,5.305 z m 735.899,-43.18 c -4.043,-1.535 -6.227,-6.793 -4.59,-11.062 1.102,-2.868 5.676,-4.243 16.402,-4.926 11.832,-0.754 18.52,-2.664 25.875,-7.383 6.032,-3.871 7.934,-7.809 9.524,-19.719 2.453,-18.379 -1.942,-59.402 -9.449,-88.199 -9.723,-37.305 -36.977,-89.973 -70.465,-136.18 -8.192,-11.3 -8.942,-14.035 -4.946,-18.031 1.895,-1.894 3.239,-2.371 6.024,-2.137 3.066,0.254 4.273,1.145 8.301,6.114 13.879,17.125 40.035,59.769 53.504,87.23 17.449,35.59 25.546,62.133 31.187,102.27 2.453,17.449 2.453,52.273 0,61.05 -3.547,12.68 -8.051,17.696 -22.18,24.688 -7.679,3.801 -10.277,4.582 -17.722,5.324 -16.121,1.606 -19.375,1.75 -21.461,0.961 v 0 z m -583.078,-3.406 c -21.379,-5.18 -34.637,-23.895 -34.641,-48.891 -0.004,-9.144 1.793,-16.879 5.32,-22.922 3.614,-6.191 23.411,-25.843 36.809,-36.543 28.895,-23.074 53.652,-36.492 67.332,-36.492 10.969,0 32.125,6.024 44.445,12.656 20.661,11.118 34.731,26.891 48.141,53.977 10.703,21.609 26.371,64.289 25.246,68.766 -1.312,5.226 -8.305,7.863 -12.476,4.703 -1.028,-0.778 -4.145,-8.231 -7.387,-17.657 -5.61,-16.316 -11.305,-31.003 -15.903,-41.027 -2.246,-4.898 -2.449,-5.09 -2.503,-2.355 -0.086,4.523 -2.668,12.211 -5.125,15.242 -2.168,2.676 -2.25,2.695 -6.207,1.293 -7.395,-2.613 -27.872,-8.199 -39.122,-10.672 -42.285,-9.285 -74.113,-9.309 -97.687,-0.063 -15.164,5.946 -22.895,14.661 -21.168,23.86 1.262,6.738 7.684,15.82 13.25,18.738 4.961,2.602 14.172,3.57 23.336,2.457 21.172,-2.574 43.68,-13.629 61.277,-30.086 7.848,-7.344 11.012,-8.191 15.137,-4.062 4.855,4.855 4.152,7.25 -4.625,15.75 -8.082,7.824 -21.715,17.457 -32.109,22.687 -20.446,10.293 -45.121,14.574 -61.34,10.641 z m 300.609,-23.617 c -1.558,-1.559 -2.832,-3.703 -2.832,-4.766 0,-1.066 4.621,-11.238 10.274,-22.609 30.964,-62.293 53.918,-98.68 68.312,-108.293 11.926,-7.965 31.512,-12.25 52.262,-11.442 20.203,0.793 35.035,5.703 45.746,15.157 18.68,16.484 30.574,59.546 23.484,85.035 -2.117,7.605 -12.898,27.093 -18.258,33 -8.761,9.656 -19.621,12.847 -32.574,9.578 -14.074,-3.559 -39.937,-18.613 -48.203,-28.063 -4.934,-5.636 -4.117,-12.023 1.801,-14.086 3.73,-1.3 5.027,-0.672 13.738,6.676 10.18,8.586 27.723,18.043 37.578,20.258 l 3.938,0.883 -0.653,-3.059 c -1.671,-7.832 -7.468,-26.535 -10.187,-32.867 -1.793,-4.176 -4.164,-12.918 -5.844,-21.563 -3.172,-16.3 -6.48,-24.41 -10.801,-26.46 -3.996,-1.895 -9.351,0.929 -20.418,10.761 -5.132,4.563 -11.265,9.625 -13.625,11.246 -4.773,3.285 -9.921,9.535 -22.011,26.735 -9.328,13.269 -16.352,20.851 -19.317,20.851 -5.929,0 -10.965,-6.519 -12.246,-15.863 -0.515,-3.773 -0.859,-4.391 -1.863,-3.348 -0.676,0.703 -6.949,12.711 -13.941,26.688 -7.18,14.355 -13.633,26.055 -14.836,26.894 -3.211,2.25 -6.379,1.801 -9.524,-1.343 z m 243.137,-112.262 c -0.258,-21.727 -0.317,-39.68 -0.129,-39.902 0.191,-0.223 0.672,-0.075 1.074,0.324 1.067,1.062 1.473,79.074 0.41,79.074 -0.507,0 -1.082,-16.77 -1.355,-39.496 z m -604.59,22.476 c 0,-1.093 16.668,-33.351 24.766,-47.921 17.691,-31.848 31.25,-50.922 34.14,-48.032 0.324,0.321 -1.402,2.645 -3.836,5.164 -8.968,9.297 -28.433,42.02 -46.8,78.668 -3.489,6.965 -6.778,12.664 -7.305,12.664 -0.531,0 -0.965,-0.246 -0.965,-0.543 z m 220.68,-35.125 c -3.918,-4.328 -5.996,-14.535 -10.821,-53.148 -3.73,-29.832 -4.152,-41.762 -1.961,-55.285 1.649,-10.152 5.938,-24.547 7.317,-24.547 1.348,0 1.18,1.102 -1.371,8.934 -6.153,18.878 -6.446,36.168 -1.289,75.39 6.324,48.098 8.425,53.633 16.765,44.156 10.571,-12.015 24.356,-45.613 29.012,-70.722 2.637,-14.215 0.844,-20.403 -10.098,-34.91 -10.347,-13.723 -13.593,-21.325 -15.199,-35.614 l -0.621,-5.492 -8.379,-0.59 c -10.793,-0.754 -28.172,-3.047 -28.941,-3.816 -1.508,-1.508 1.269,-1.559 11.484,-0.211 16.449,2.176 26.445,2.395 26.692,0.582 0.105,-0.801 0.468,-3.527 0.8,-6.059 0.953,-7.242 2.696,-5.687 1.907,1.696 l -0.676,6.301 h 13.441 c 25.301,0 44.145,2.917 53.258,8.242 5.785,3.379 13.305,12.113 10.43,12.113 -0.348,0 -2.129,-1.75 -3.957,-3.883 -4.446,-5.199 -10.043,-8.328 -18.973,-10.609 -8.176,-2.094 -28.652,-3.914 -44.039,-3.922 h -9.934 v 5.129 c 0,11.289 3.723,20.168 14.801,35.293 8.344,11.394 10.438,15.933 11.086,24.035 1.024,12.84 -7.074,40.672 -18.652,64.117 -10.328,20.91 -17.297,28.113 -22.082,22.824 v 0 z m -71.688,-22.578 c -5.258,-1.238 -8.265,-2.949 -23.472,-13.363 -15.829,-10.84 -20.067,-14.457 -22.196,-18.941 -5.261,-11.09 2.141,-20.852 24.133,-31.828 7.934,-3.961 52.477,-20.922 58.899,-22.426 5.628,-1.321 7.769,2.078 8.949,14.199 0.39,3.988 0.273,6.543 -0.297,6.543 -1.231,0 -2.098,-3.422 -2.113,-8.34 0,-2.184 -0.493,-5.348 -1.079,-7.023 -0.867,-2.485 -1.589,-3.055 -3.894,-3.055 -4.219,0 -46.082,15.656 -59.836,22.379 -12.891,6.297 -22.617,14.242 -23.93,19.547 -2.027,8.207 1.969,13 22.711,27.242 19.781,13.586 19.598,13.519 39.117,14.008 8.93,0.222 16.235,0.789 16.235,1.261 0,1.106 -28.41,0.934 -33.227,-0.203 z m 448.199,-93.82 c -0.816,-0.516 -2.386,-7.227 -4.144,-17.672 -7.441,-44.246 -13.953,-69.742 -22.762,-89.121 -7.055,-15.519 -7.648,-19.891 -7.594,-56.144 0.047,-31.969 0.86,-44.618 5.317,-82.629 1.051,-8.93 2.762,-23.539 3.808,-32.469 2.864,-24.399 3.731,-36.91 5.383,-77.781 1.676,-41.387 2.856,-51.813 7.742,-68.414 6.735,-22.883 21,-59.981 23.426,-60.911 2.328,-0.894 4.426,1.391 3.891,4.239 -0.254,1.363 -3.137,9.238 -6.399,17.5 -11.503,29.109 -17.515,49.039 -19.484,64.582 -0.531,4.195 -1.617,23.765 -2.414,43.488 -1.785,44.363 -2.527,53.934 -7.281,94.016 -6.465,54.461 -7.153,63.886 -7.203,98.379 -0.051,35.808 0.488,39.875 7.082,53.593 8.214,17.09 16.066,47.789 23.375,91.414 2.386,14.254 2.461,17.426 0.433,18.203 -1.855,0.715 -1.582,0.739 -3.176,-0.273 z m -621.269,-4.84 c -0.719,-0.453 -5.215,-13.859 -9.996,-29.789 -4.781,-15.93 -15,-49.734 -22.707,-75.121 -7.711,-25.387 -14.719,-49.594 -15.574,-53.793 -1.954,-9.566 -2.219,-40.254 -0.473,-54.156 3.133,-24.93 8.793,-51.692 14.562,-68.844 4.493,-13.359 5.789,-20.008 6.985,-35.855 1.261,-16.758 0.242,-41.286 -3.117,-74.809 -1.133,-11.305 -1.797,-21.227 -1.485,-22.051 0.692,-1.801 3.899,-1.976 5.231,-0.285 0.527,0.664 1.246,4.047 1.597,7.512 2.762,27.097 3.578,36.75 4.508,53.308 1.758,31.235 -0.144,52.579 -6.375,71.516 -6.691,20.336 -12.355,46.383 -15.105,69.508 -1.86,15.621 -1.649,43.664 0.402,53.308 0.906,4.262 7.688,27.598 15.074,51.852 27.446,90.164 31.625,104.707 30.571,106.379 -1.254,1.988 -2.442,2.371 -4.098,1.32 z m -107.442,-4 c -2.789,-1.125 -3.769,-6.375 -2.3,-12.363 4.468,-18.254 23.734,-54.301 50.113,-93.758 13.035,-19.492 14.543,-21.508 15.441,-20.613 0.372,0.375 -4.117,7.781 -9.976,16.461 -30.656,45.41 -50.227,82.07 -54.055,101.261 -0.875,4.383 0.84,7.086 4.496,7.086 9.489,0 29.082,-16.492 46.641,-39.257 3.699,-4.797 7.117,-8.868 7.598,-9.043 2.511,-0.934 -0.043,3.203 -8.223,13.312 -15.813,19.539 -31.875,33.504 -42.063,36.57 -4.996,1.504 -4.812,1.497 -7.672,0.344 z m 659.383,-81.125 c -9.488,-59.074 -14.476,-104.055 -15.718,-141.789 -0.754,-22.824 0.191,-33.062 5.277,-57.183 l 3.781,-17.934 -1.812,-40.629 c -0.996,-22.348 -1.594,-40.848 -1.328,-41.113 1.492,-1.489 2.019,4.195 3.39,36.484 0.828,19.563 1.789,34.695 2.129,33.629 0.344,-1.066 4.414,-18.949 9.051,-39.738 4.637,-20.793 8.808,-38.207 9.269,-38.707 1.743,-1.875 1.731,0.281 -0.043,7.746 -1.007,4.234 -5.586,24.535 -10.171,45.117 l -8.34,37.418 4.832,112.812 c 5.871,137.075 5.468,125.227 4.242,125.633 -0.621,0.207 -2.387,-8.226 -4.559,-21.746 z m -1.488,-98.351 c -2.195,-52.411 -4.32,-97.911 -4.715,-101.106 l -0.719,-5.816 -2.722,13.437 c -5.035,24.821 -5.301,48.278 -1.055,93.664 2.699,28.907 11.762,96.559 12.793,95.528 0.227,-0.231 -1.383,-43.297 -3.582,-95.707 z m -407.641,93.816 c -2.668,-0.648 -7.683,-2.656 -11.148,-4.461 -12.93,-6.734 -15.977,-8.023 -21.488,-9.07 -5.934,-1.125 -7.571,-2.567 -2.918,-2.567 4.726,0 12.511,2.825 22.812,8.278 11.379,6.019 17.77,7.379 28.617,6.082 13.551,-1.617 33.184,-9.418 47.231,-18.766 10.988,-7.312 21.047,-17.496 41.598,-42.117 19.285,-23.106 37.851,-42.234 51.828,-53.395 13.812,-11.031 16.242,-12.707 16.886,-11.664 0.325,0.52 -3.289,3.922 -8.023,7.559 -21.957,16.859 -33.441,28.445 -62.285,62.844 -18.375,21.914 -26.035,29.652 -36.996,37.39 -13.18,9.305 -30.703,16.774 -46.289,19.731 -9.227,1.75 -13.164,1.781 -19.825,0.156 z m -90.226,-29.68 c -9.938,-6.371 -15.738,-36.828 -10.145,-53.297 1.176,-3.464 3.266,-8.261 4.649,-10.66 3.914,-6.808 10.953,-15.601 11.976,-14.965 0.524,0.321 0.043,1.711 -1.09,3.165 -5.089,6.531 -11.027,16.339 -12.918,21.339 -1.746,4.61 -2.066,7.485 -2.023,18.082 0.043,11.145 0.363,13.551 2.777,20.825 3.485,10.515 7.969,15.523 13.895,15.523 9.176,0 18.609,-5.812 41.973,-25.859 22.765,-19.535 23.191,-20.535 23.214,-54.395 0.032,-29.14 1.043,-33.012 13.211,-49.965 3.387,-4.718 6.161,-8.902 6.161,-9.297 0,-0.394 -2.508,-1.257 -5.575,-1.918 -15.375,-3.316 -48.804,-12 -58.125,-15.093 -16.277,-5.407 -27.211,-12.399 -24.996,-15.981 0.473,-0.765 1.27,-0.222 2.399,1.629 3.875,6.379 19.664,12.274 58.187,21.727 15.195,3.73 28.184,6.965 28.867,7.195 2.371,0.785 21.051,-30.344 28.52,-47.531 2.551,-5.864 5.363,-14.039 6.258,-18.172 1.789,-8.266 3.886,-10.391 2.871,-2.906 -1.641,12.109 -11.071,32.765 -25.551,55.972 -4.324,6.93 -7.57,12.86 -7.211,13.176 0.359,0.316 10.906,3.102 23.434,6.188 12.527,3.086 26.484,6.894 31.015,8.464 22.586,7.832 37.067,22.692 42.258,43.368 1.18,4.699 1.477,9.453 1.191,19.14 -0.207,7.09 -0.234,12.887 -0.062,12.887 0.344,0 53.602,-50.418 65.289,-61.813 4.16,-4.05 7.664,-6.765 8.016,-6.199 0.664,1.078 -73.383,72.149 -75.75,72.707 -1.176,0.278 -1.274,-0.523 -0.578,-4.843 0.453,-2.852 0.828,-10.415 0.828,-16.813 0,-13.773 -2.106,-21.902 -8.039,-31.055 -7.239,-11.164 -16.528,-18.472 -30.661,-24.129 -5.621,-2.246 -51.082,-14.336 -57.41,-15.261 -1.672,-0.246 -3.465,1.574 -8.886,9.023 -12.696,17.445 -12.832,17.957 -13.602,51.344 l -0.617,26.754 -3.395,6.664 c -3.047,5.984 -4.976,8.035 -18.898,20.078 -16.621,14.375 -28.68,23.035 -35.352,25.391 -5.804,2.047 -12.461,1.843 -16.105,-0.489 z m 451.43,-71.441 c -2.211,-4.231 -6.372,-25.512 -8.856,-45.34 -3.035,-24.223 -5.828,-74.234 -5.84,-104.562 v -15.395 l -7.422,11.516 c -16.41,25.472 -18.484,29.5 -27.89,54.164 -6.778,17.777 -12.074,28.898 -15.996,33.594 -5.5,6.578 -15.204,9.312 -23.18,6.535 -3.465,-1.211 -4.254,-3.391 -0.871,-2.407 10.984,3.188 18.074,0.657 24.523,-8.769 2.496,-3.649 7.321,-14.254 12.969,-28.512 11.02,-27.82 12.594,-30.933 26.648,-52.754 10.079,-15.648 11.219,-17.863 11.227,-21.808 0.051,-22.828 3.543,-79.879 6.828,-111.489 3.211,-30.902 9.504,-74.816 10.922,-76.234 1.641,-1.645 1.5,1.344 -0.727,15.27 -7.625,47.66 -12.671,101.851 -13.753,147.71 l -0.571,24.231 7.504,-12.113 c 9.211,-14.871 38.387,-64.078 59.031,-99.567 8.442,-14.511 15.723,-26.152 16.18,-25.871 0.457,0.281 0.156,1.824 -0.672,3.426 -3.058,5.918 -42.035,72.215 -62.254,105.891 l -20.871,34.769 1.149,38.895 c 1.207,40.937 2.679,62.726 5.972,88.324 1.961,15.269 6.125,36.234 7.832,39.437 0.532,0.996 0.512,1.864 -0.05,2.211 -0.508,0.313 -1.329,-0.207 -1.825,-1.152 z m 464.652,-426.352 c -7.223,-1.746 -18.063,-6.918 -23.996,-11.449 -4.153,-3.176 -5.481,-3.594 -15.508,-4.91 -6.027,-0.793 -15.324,-2.574 -20.656,-3.961 -5.328,-1.387 -9.91,-2.559 -10.176,-2.601 -0.266,-0.043 -4.191,1.73 -8.723,3.941 -11.355,5.535 -18.769,7.285 -31.015,7.32 -17.567,0.047 -30.129,-4.617 -41.614,-15.453 -5.972,-5.633 -7.703,-8.066 -11.722,-16.461 -6.032,-12.597 -11.203,-18.258 -28.559,-31.242 -21.379,-15.996 -24.723,-19.731 -24.723,-27.633 0,-8.207 7.899,-15.469 21.008,-19.328 8.453,-2.484 7.657,-3.602 -2.59,-3.633 -9.875,-0.031 -23.757,-1.672 -29.179,-3.449 -7.438,-2.441 -10.629,-7.434 -8.629,-13.492 1.746,-5.293 9.945,-11.899 37.945,-30.578 14.332,-9.563 26.078,-17.688 26.098,-18.059 0.031,-0.367 -2.387,-1.422 -5.352,-2.34 l -5.39,-1.668 -15.743,5.746 c -23.253,8.485 -63.523,24.727 -85.043,34.301 -23.808,10.59 -25.449,11.102 -28.066,8.735 -1.09,-0.989 -1.98,-2.735 -1.98,-3.883 0,-4.407 -0.516,-4.121 35.375,-19.629 16.839,-7.274 48.152,-19.875 64.929,-26.129 6.391,-2.379 11.758,-4.473 11.934,-4.645 0.176,-0.175 -2.457,-1.242 -5.852,-2.371 -3.39,-1.125 -7.125,-2.722 -8.297,-3.547 -2.98,-2.082 -2.871,-6.671 0.207,-8.687 2.211,-1.449 3.172,-1.27 17.36,3.281 l 15.015,4.82 24.563,-8.058 c 64.922,-21.301 121.227,-33.617 186.906,-40.883 21.699,-2.402 72.707,-2.402 92.078,0 40.254,4.988 77.313,15.961 110.836,32.82 3.121,1.571 6.192,2.657 6.821,2.414 0.632,-0.242 2.375,-3.96 3.871,-8.265 1.496,-4.301 3.336,-8.328 4.086,-8.953 2.054,-1.703 6.371,-1.356 7.824,0.629 1.887,2.586 1.574,4.828 -1.988,14.187 l -3.207,8.434 17.535,9.66 c 36.82,20.277 108.164,65.148 108.164,68.027 0,0.77 -3.477,8.367 -4.285,9.36 -0.09,0.113 -4.043,-0.864 -8.782,-2.165 -19.742,-5.433 -51.004,-10.699 -78.043,-13.148 -13.679,-1.238 -53.617,-1.531 -62.652,-0.457 l -5.949,0.707 -2.008,8.606 c -1.105,4.73 -4.426,14.5 -7.375,21.707 -6.105,14.902 -6.563,18.464 -2.832,22.195 7.684,7.683 39.781,17.152 69.133,20.394 l 10.23,1.133 0.496,5.582 c 0.45,5.024 0.305,5.629 -1.453,6.016 -1.074,0.238 -17,2.848 -35.39,5.797 -71.891,11.535 -134.239,22.867 -154.594,28.097 -15.356,3.95 -22.676,6.563 -42.363,15.121 -8.375,3.641 -17.817,7.29 -20.981,8.11 -7.062,1.832 -19.996,1.805 -27.699,-0.063 z m 23.312,-10.535 c 3.266,-0.769 11.551,-3.863 18.418,-6.875 37.66,-16.511 51.66,-19.847 160.16,-38.148 22.055,-3.719 40.266,-6.93 40.473,-7.137 0.207,-0.207 -2.133,-0.93 -5.203,-1.605 -9.109,-2.008 -23.496,-6.829 -31.117,-10.434 -12.996,-6.148 -18.469,-13.555 -17.305,-23.414 0.309,-2.59 2.949,-10.547 5.867,-17.684 4.739,-11.574 9,-24.875 8.196,-25.558 -0.161,-0.141 -4.438,0.328 -9.504,1.035 -15.981,2.238 -42.395,5.203 -63.864,7.176 -11.406,1.043 -20.921,2.086 -21.148,2.312 -0.227,0.227 1.125,0.918 3,1.539 4.664,1.539 12.477,9.188 15.379,15.059 5.246,10.601 5.969,25.035 1.84,36.691 -4.731,13.36 -11.93,17.867 -32.129,20.117 -15.715,1.754 -14.77,1.426 -17.746,6.141 -1.496,2.367 -5.324,6.715 -8.504,9.66 -15.184,14.059 -40.02,23.235 -71.121,26.278 l -6.746,0.656 3.355,1.441 c 4.301,1.848 14.012,4.004 18.375,4.086 1.867,0.035 6.063,-0.566 9.324,-1.336 z m -115.738,-14.972 c 3.574,-1.137 6.731,-2.438 7.012,-2.891 0.281,-0.457 -2.391,-2.516 -5.938,-4.578 -9.632,-5.61 -18.996,-15.133 -22.73,-23.117 -7.25,-15.493 -2.34,-31.204 14.035,-44.914 7.563,-6.332 26.262,-15.125 39.402,-18.532 l 11.149,-2.89 -45.66,-0.039 c -25.118,-0.02 -47.688,-0.317 -50.161,-0.657 -4.359,-0.597 -4.496,-0.539 -4.496,1.918 0,4 -3.105,5.196 -15.023,5.786 -11.648,0.578 -23.16,2.656 -31.059,5.613 -4.945,1.851 -10.132,5.687 -10.132,7.496 0,1.691 7.226,8.019 20.351,17.828 18.32,13.687 25.129,20.918 30.695,32.605 2.45,5.133 5.946,11.184 7.778,13.45 5.687,7.031 15.347,12.543 25.984,14.828 6.457,1.387 21.594,0.387 28.793,-1.906 z m 194.063,-44.305 c 4.226,-0.801 8.855,-2.063 10.293,-2.805 7.324,-3.789 10.441,-25.199 5.179,-35.625 -3.867,-7.668 -9.519,-11.41 -18.73,-12.41 -6.969,-0.754 -9.16,-2.523 -8.539,-6.902 0.359,-2.543 0.25,-2.61 -3.574,-2.16 -6.137,0.722 -47.704,3.218 -65.7,3.941 -8.91,0.359 -16.008,0.969 -15.773,1.348 0.234,0.382 3.117,0.996 6.406,1.371 22.777,2.574 51.488,15.543 62.949,28.429 5.262,5.914 9.606,15.161 10.305,21.938 l 0.555,5.351 4.468,-0.511 c 2.461,-0.282 7.934,-1.168 12.161,-1.965 z M 1374.25,308.469 c 74.336,-1.813 146.023,-6.031 205.961,-12.121 21.707,-2.207 58.695,-6.891 59.098,-7.485 0.101,-0.144 1.398,-3.75 2.882,-8.015 3.215,-9.223 5.954,-14.778 15.411,-31.25 3.906,-6.801 7.632,-13.364 8.281,-14.586 1.144,-2.149 0.847,-2.375 -9.289,-7.133 -35.387,-16.606 -63.168,-24.652 -104.004,-30.121 -12.656,-1.692 -72.121,-1.656 -88.203,0.054 -13.957,1.485 -46.817,5.954 -47.293,6.43 -0.18,0.176 1.996,0.613 4.828,0.969 42.023,5.277 92.902,22.016 140.48,46.219 8.328,4.238 15.828,8.226 16.664,8.867 1.258,0.961 1.364,1.996 0.606,5.933 -0.504,2.622 -1.082,4.93 -1.285,5.133 -1.344,1.344 -61.02,9.078 -89.285,11.575 -27.754,2.449 -81.821,2.476 -97.407,0.05 -26.093,-4.062 -56.144,-10.949 -94.316,-21.613 l -19.195,-5.363 -9.879,6.039 c -25.039,15.304 -59.426,39.422 -58.102,40.75 1.582,1.582 15.34,2.719 50.645,4.187 62.699,2.61 65.578,2.649 113.402,1.481 z m 397.52,-14.403 c -11.254,-8.656 -90.563,-55.382 -93.997,-55.382 -0.496,0 -5.066,7.308 -10.156,16.234 -8.801,15.437 -11.914,21.652 -14.683,29.32 l -1.227,3.395 31.129,0.015 c 33.262,0.016 49.59,1.262 74.746,5.719 6.93,1.227 13.473,2.281 14.539,2.348 1.789,0.105 1.766,-0.02 -0.351,-1.645 z m -312.715,-20.925 c 25.695,-0.715 94.859,-7.801 99.164,-10.157 2.886,-1.578 -41.27,-20.703 -69.602,-30.14 -66.215,-22.059 -104.301,-22.762 -157.015,-2.903 -8.84,3.332 -38.985,17.579 -38.407,18.153 0.664,0.664 20.59,6.179 39.375,10.902 38.485,9.672 60.727,13.535 83.356,14.481 8.797,0.367 18.172,0.55 20.84,0.41 2.664,-0.141 12.695,-0.477 22.289,-0.746 z m -172.594,-34.618 c 5.105,-2.753 9.141,-5.144 8.969,-5.316 -0.172,-0.172 -5.95,1.598 -12.844,3.926 -6.891,2.332 -11.875,4.472 -11.078,4.758 2.832,1.007 4.371,1.488 5.019,1.562 0.36,0.043 4.828,-2.176 9.934,-4.93 z m -212.793,154.754 c -1.395,-0.761 -3.289,-2.968 -4.211,-4.906 -1.602,-3.379 -1.586,-4 0.406,-14.816 4.293,-23.332 13.731,-59.512 22.532,-86.407 23.835,-72.828 55.714,-129.843 93.757,-167.687 24.282,-24.156 44.59,-35.781 76.985,-44.07 26.656,-6.821 53.855,-9.575 94.148,-9.528 56.258,0.067 113.735,6.203 189.211,20.207 44.473,8.25 111.285,23.508 119.051,27.188 4.23,2.004 6.605,6.476 5.969,11.234 -0.602,4.477 -2.821,7.317 -7.161,9.153 -2.847,1.203 -5.199,0.789 -30.531,-5.411 -111.687,-27.32 -211.09,-40.968 -287.683,-39.492 -60.907,1.172 -99.395,10.524 -125.293,30.442 -50.981,39.203 -93.192,116.504 -119.461,218.769 -2.887,11.238 -6.594,27.133 -8.239,35.324 -1.644,8.192 -3.625,15.868 -4.406,17.055 -2.797,4.27 -10.035,5.68 -15.074,2.945 z"
         style="fill:#625970;fill-opacity:1;fill-rule:nonzero;stroke:none"
         id="path1046" /></g></g></svg>
