<?xml version="1.0" encoding="UTF-8" standalone="no"?>
<svg
   xmlns:svg="http://www.w3.org/2000/svg"
   xmlns="http://www.w3.org/2000/svg"
   xmlns:sodipodi="http://sodipodi.sourceforge.net/DTD/sodipodi-0.dtd"
   xmlns:inkscape="http://www.inkscape.org/namespaces/inkscape"
   inkscape:version="1.1-dev (1:0.92.0+devel+202005110039+9ce7266)"
   sodipodi:docname="05a.svg"
   version="1.1"
   id="svg1218"
   xml:space="preserve"
   width="2527.5789"
   height="2526.3159"
   viewBox="0 0 2527.5789 2526.3159"><sodipodi:namedview
     inkscape:current-layer="svg1218"
     inkscape:window-maximized="0"
     inkscape:window-y="30"
     inkscape:window-x="0"
     inkscape:cy="1263.158"
     inkscape:cx="1263.7894"
     inkscape:zoom="0.26956249"
     showgrid="false"
     id="namedview955"
     inkscape:window-height="480"
     inkscape:window-width="796"
     inkscape:pageshadow="2"
     inkscape:pageopacity="0"
     guidetolerance="10"
     gridtolerance="10"
     objecttolerance="10"
     borderopacity="1"
     bordercolor="#666666"
     pagecolor="#ffffff" /><defs
     id="defs1222" /><g
     style="fill:#625970;fill-opacity:1"
     id="g1224"
     transform="matrix(1.3333333,0,0,1.3333333,0,4.5824564e-5)"><path
       d="m 657.00002,68.999967 v 30.799809 h -0.3999 c -3.3,-6.3 -8.69942,-9.599123 -15.89942,-9.599123 -12.6,0 -20.2002,10.100007 -20.2002,26.999997 0,16.9 7.6002,27 20.2002,27 7.2,0 12.59942,-3.30058 15.89942,-9.60058 h 0.3999 v 8.39941 h 7.99951 V 68.999967 Z m 359.50048,0 v 30.799809 h -0.3999 c -3.3,-6.3 -8.7009,-9.599123 -15.9009,-9.599123 -12.59997,0 -20.20017,10.100007 -20.20017,26.999997 0,16.9 7.6002,27 20.20017,27 7.2,0 12.6009,-3.30058 15.9009,-9.60058 h 0.3999 v 8.39941 H 1024.5 V 68.999967 Z M 81.09961,73.199674 V 142.99948 H 93.899418 V 96.600553 h 1.1001 L 110.9004,142.99948 h 18 V 73.199674 h -12.79981 v 46.400396 h -1.1001 L 99.09961,73.199674 Z m 360.20069,0 v 69.799806 h 7.69923 V 107.99997 85.899868 h 0.7998 l 14.70117,35.900392 14.69971,-35.900392 h 0.7998 v 22.100102 34.99951 h 7.70069 V 73.199674 h -10.40039 l -12.3003,30.799806 h -0.60058 L 452.1006,73.199674 Z m 421.69922,0 v 69.799806 h 8.4009 v -29.79932 h 11.0991 l 17.001,29.79932 h 9.3999 l -17.8008,-30.19922 c 11.1,-1.1 17.2002,-8.3 17.2002,-19.499999 0,-12.600001 -6.9999,-20.100587 -19.8999,-20.100587 z m 8.4009,7.300779 h 16.8003 c 6.99998,0 11.1987,3.699712 11.1987,10.199708 v 5.2002 c 0,6.499999 -4.19872,10.199709 -11.1987,10.199709 h -16.8003 z m -707.4009,9.7002 c -11.50001,0 -18.99893,4.300095 -22.39893,10.100097 l 8.09912,7.1997 c 2.8,-3.79999 6.40058,-6.50097 12.60059,-6.50097 6.8,0 9.3999,3.20029 9.3999,9.3003 v 2.60009 h -8.2998 c -15.10001,0 -23.2002,5.10088 -23.2002,15.90088 0,9.7 6.59961,15.3999 16.59961,15.3999 7.9,0 13.90019,-3.60078 15.70019,-10.30078 h 0.49952 c 0.6,5.8 4.60068,9.09961 10.70068,9.09961 h 8.50049 v -10.69922 h -5.70117 v -22.59961 c 0,-12.999994 -8.4,-19.499997 -22.5,-19.499997 z m 56.40088,0 c -5.50001,0 -8.19981,3.999315 -9.79981,8.799315 h -0.70019 v -7.599607 h -11.90039 v 51.599119 h 11.90039 v -36.7998 c 0,-3.50001 2.10029,-5.09913 4.80029,-5.09913 2.6,0 4.29932,1.69952 4.29932,6.49952 v 35.39941 h 12 v -36.7998 c 0,-3.50001 2.09961,-5.09913 4.5996,-5.09913 2.7,0 4.5,1.69952 4.5,6.49952 v 35.39941 h 11.9004 v -36.89941 c 0,-10.600007 -3.6003,-15.899417 -10.8003,-15.899417 -6.39999,0 -9.29951,4.099313 -10.99951,8.799315 h -0.60059 c -1.09999,-5.7 -4.29921,-8.799315 -9.19921,-8.799315 z m 64.69922,0 c -15.5,0 -25.1001,10.299217 -25.1001,27.199217 0,16.5 9.10088,26.80078 26.40088,26.80078 11.1,0 18.1001,-4.20107 22.10009,-9.10107 l -8.00097,-8.69971 c -3.2,3.8 -7.49961,6.39991 -13.59961,6.39991 -7.9,0 -12.19922,-4.49913 -12.19922,-11.09913 v -0.90087 h 35.2998 v -4.4004 c 0,-16.1 -9.50087,-26.198727 -24.90087,-26.198727 z m 59.6001,0 c -7.5,0 -10.5,3.7998 -10.5,8.2998 v 3.499517 c 0,4.5 3,8.29981 10.5,8.29981 7.5,0 10.5,-3.79981 10.5,-8.29981 v -3.499517 c 0,-4.5 -3,-8.2998 -10.5,-8.2998 z m 179.80078,0 c -14.5,0 -23.40088,10.599997 -23.40088,26.999997 0,16.4 8.90088,27 23.40088,27 14.5,0 23.39941,-10.6 23.39941,-27 0,-16.4 -8.89941,-26.999997 -23.39941,-26.999997 z m 62.89893,0 c -8.5,0 -12.49971,4.499123 -14.69971,9.599123 h -0.3999 v -8.399415 h -7.99951 v 51.599119 h 7.99951 v -35.79932 c 0,-6.79999 6.39981,-9.899407 12.7998,-9.899407 7.90001,0 12.20069,4.599507 12.20069,13.999507 v 31.69922 h 7.99951 v -33.09961 c 0,-12.499997 -7.10039,-19.699217 -17.90039,-19.699217 z m 114.80127,0 c -10.5,0 -17.10068,4.998923 -19.70068,10.398927 l 5.39941,4.00049 c 2.7,-4.700004 6.9003,-7.599617 13.8003,-7.599617 7.8,0 12.30029,3.899417 12.30029,11.399417 v 5.10058 H 703.0005 c -15.49999,0 -22.20117,5.50001 -22.20117,15 0,9.70001 6.90117,15.7002 17.70117,15.7002 8.4,0 13.29952,-3.70059 15.49952,-9.60058 h 0.49951 c 0.6,4.8 3.00069,8.39941 9.20068,8.39941 h 5.50049 v -6.99903 h -7.20117 v -28.40038 c 0,-10.900007 -7.69883,-17.399417 -19.79883,-17.399417 z m 241.79883,0 c -14.49998,0 -23.39941,10.599997 -23.39941,26.999997 0,16.4 8.89943,27 23.39941,27 14.49997,0 23.4009,-10.6 23.4009,-27 0,-16.4 -8.90093,-26.999997 -23.4009,-26.999997 z m 120.39987,0 c -13.9999,0 -23.6997,10.599607 -23.6997,27.099607 0,16.3 9.4008,26.90039 24.2007,26.90039 10.2,0 17.5998,-5.00039 20.6997,-11.90039 l -5.9004,-4.00048 c -2.7,5.59999 -7.8993,9 -14.7993,9 -9.6999,0 -15.7998,-6.6002 -15.7998,-15.7002 v -2.39942 h 38.1987 v -3.7998 c 0,-14.6 -8.9998,-25.199707 -22.8999,-25.199707 z m 59.3013,0 c -14.5,0 -23.4009,10.599997 -23.4009,26.999997 0,16.4 8.9009,27 23.4009,27 14.5,0 23.3994,-10.6 23.3994,-27 0,-16.4 -8.8994,-26.999997 -23.3994,-26.999997 z m -384.20068,1.199708 20.7993,50.600089 -5.7993,14.2002 h -12 v 6.7998 h 7.5996 c 7.8,0 10.7997,-2.7997 13.1997,-8.6997 l 25.6011,-62.900389 h -8.001 l -8.6997,21.599119 -7.6992,19.60107 h -0.3999 l -7.7007,-19.60107 -8.69971,-21.599119 z m 324.89938,5.399415 c 8.5001,0 14.3013,6.200284 14.3013,15.300294 v 1.10009 h -29.6001 v -0.70019 c 0,-9 6.4989,-15.700194 15.2988,-15.700194 z m -539.8989,0.300292 c 8.9,0 14.89893,5.300382 14.89893,16.400382 v 7.39893 c 0,11.1 -5.99893,16.4004 -14.89893,16.4004 -8.9,0 -14.90039,-5.3004 -14.90039,-16.4004 v -7.39893 c 0,-11.1 6.00039,-16.400382 14.90039,-16.400382 z m 419.49903,0 c 8.90002,0 14.9004,5.300382 14.9004,16.400382 v 7.39893 c 0,11.1 -6.00038,16.4004 -14.9004,16.4004 -8.90003,0 -14.89891,-5.3004 -14.89891,-16.4004 v -7.39893 c 0,-11.1 5.99888,-16.400382 14.89891,-16.400382 z m 179.70117,0 c 8.9,0 14.8989,5.300382 14.8989,16.400382 v 7.39893 c 0,11.1 -5.9989,16.4004 -14.8989,16.4004 -8.9,0 -14.9004,-5.3004 -14.9004,-16.4004 v -7.39893 c 0,-11.1 6.0004,-16.400382 14.9004,-16.400382 z m -479.90039,0.200685 c 7.1,0 13.19971,3.699607 13.19971,10.599607 v 18.59912 c 0,6.9 -6.09971,10.60107 -13.19971,10.60107 -9.3,0 -14.69971,-6.20097 -14.69971,-15.50097 v -8.79932 c 0,-9.3 5.39971,-15.499507 14.69971,-15.499507 z m 359.49899,0 c 7.1001,0 13.2012,3.699607 13.2012,10.599607 v 18.59912 c 0,6.9 -6.1011,10.60107 -13.2012,10.60107 -9.29997,0 -14.69967,-6.20097 -14.69967,-15.50097 v -8.79932 c 0,-9.3 5.3997,-15.499507 14.69967,-15.499507 z m -718.09861,3.499507 c 6.4,0 10.29932,4.1999 10.29932,10.8999 v 0.79981 h -20.79932 v -0.79981 c 0,-6.6 4.1,-10.8999 10.5,-10.8999 z m 417.79981,18.70019 h 10.99952 v 8.49903 c 0,5.3 -5.90059,9.50097 -14.10059,9.50097 -6.6,0 -10.69922,-2.80058 -10.69922,-8.10058 v -2.09912 c 0,-5 4.3003,-7.8003 13.80029,-7.8003 z m -539.2002,1.39893 h 7.8999 v 6.20069 c 0,4.8 -4.10029,7.40038 -9.3003,7.40038 -4.69999,0 -7.69921,-1.90048 -7.69921,-5.50048 v -1.99952 c 0,-3.99999 3.1996,-6.10107 9.09961,-6.10107 z m 180.89942,3.20069 c -7.5,0 -10.5,3.7998 -10.5,8.2998 v 3.49951 c 0,4.5 3,8.30127 10.5,8.30127 7.5,0 10.5,-3.80127 10.5,-8.30127 v -3.49951 c 0,-4.5 -3,-8.2998 -10.5,-8.2998 z m 119.90039,72.89942 c -17,0 -24.39991,13.30107 -24.39991,36.10107 0,22.8 7.39991,36.09961 24.39991,36.09961 17,0 24.3999,-13.29961 24.3999,-36.09961 0,-22.8 -7.3999,-36.10107 -24.3999,-36.10107 z m -370.199715,1.20117 -18.900878,69.7998 h 15.200678 l 4.299323,-16.8003 h 19.100092 l 4.40039,16.8003 h 16.00049 l -18.90088,-69.7998 z m 313.800305,0 -30.20069,48.69873 v 7.40039 h 34.40039 v 13.70068 h 7.99951 v -13.70068 h 10.40039 v -6.89942 h -10.40039 v -49.1997 z m 56.39941,6.0996 c 11.2,0 15.7002,9.09912 15.7002,23.09913 v 11.40087 c 0,14.00001 -4.5002,23.09913 -15.7002,23.09913 -11.2,0 -15.7002,-9.09912 -15.7002,-23.09913 v -11.40087 c 0,-14.00001 4.5002,-23.09913 15.7002,-23.09913 z m -52.59961,0.3999 h 0.3999 v 42.7002 h -26.90039 z m -230.6001,1.8003 c -4.90001,0 -7.89991,2.99902 -7.89991,6.99903 v 2.80077 c -2.7,-0.69999 -5.80107,-1.1001 -9.10107,-1.1001 -13.5,0 -22.39893,6.39991 -22.39893,18.39991 0,7.6 3.60019,12.99941 9.7002,15.89942 v 0.60058 c -5.6,1.3 -9.30029,3.39941 -9.30029,8.39942 0,4.5 2.7997,6.80058 7.1997,8.10058 v 0.60059 c -6.2,1.6 -9.89941,4.30009 -9.89941,10.1001 0,7 5.39902,11.89892 24.99902,11.89892 19.6,0 28.59961,-5.09902 28.59961,-15.99902 0,-8.7 -5.69902,-14.90039 -20.49902,-14.90039 h -11.80078 c -4.1,0 -7.59962,-0.19952 -7.59962,-3.49951 0,-1.8 1.1001,-3.00128 2.6001,-3.80127 2.5,0.69999 5.39942,1.00048 8.39942,1.00048 13.6,0 22.60107,-6.4999 22.60107,-18.3999 0,-7.3 -3.30039,-12.4999 -8.90039,-15.39991 v -0.8994 h 12.39991 v -10.8003 z m -77.2002,6.19922 H 105 l 6.79981,26.40088 H 97.400395 Z m 120.89941,2.50048 c -15.49999,0 -25.10009,10.29923 -25.10009,27.19923 0,16.5 9.10088,26.80078 26.40088,26.80078 11.1,0 18.10009,-4.19961 22.10009,-9.09961 l -8.00097,-8.70117 c -3.2,3.8 -7.49961,6.40137 -13.59961,6.40137 -7.9,0 -12.19922,-4.5006 -12.19922,-11.1006 v -0.8994 h 35.2998 v -4.4004 c 0,-16.1 -9.50087,-26.2002 -24.90088,-26.2002 z m 59.9004,0 c -7.5,0 -10.5,3.79981 -10.5,8.29981 v 3.49952 c 0,4.5 3,8.30127 10.5,8.30127 7.5,0 10.5,-3.80127 10.5,-8.30127 v -3.49952 c 0,-4.5 -3,-8.29981 -10.5,-8.29981 z m -120.60059,9.39991 c 5.9,0 8.6001,3.30029 8.6001,7.80029 v 2.39942 c 0,4.5 -2.7001,7.80029 -8.6001,7.80029 -5.8,0 -8.39942,-3.30029 -8.39942,-7.80029 v -2.39942 c 0,-4.5 2.59942,-7.80029 8.39942,-7.80029 z m 60.80127,1.19971 c 6.4,0 10.29932,4.1999 10.29932,10.8999 v 0.79981 h -20.79932 v -0.79981 c 0,-6.6 4.1,-10.8999 10.5,-10.8999 z m 239.39942,1.40038 c -4.6,0 -6.20068,2.1003 -6.20068,4.8003 v 2.2002 c 0,2.7 1.60068,4.79883 6.20068,4.79883 4.6,0 6.19922,-2.09883 6.19922,-4.79883 v -2.2002 c 0,-2.7 -1.59922,-4.8003 -6.19922,-4.8003 z m -179.6001,21.89942 c -7.5,0 -10.5,3.79981 -10.5,8.29981 v 3.50098 c 0,4.5 3,8.2998 10.5,8.2998 7.5,0 10.5,-3.7998 10.5,-8.2998 v -3.50098 c 0,-4.5 -3,-8.29981 -10.5,-8.29981 z m -131.10059,20.90039 h 17.70117 c 6,0 7.69922,1.60079 7.69922,4.30079 0,3.49999 -3.00019,5.39941 -9.7002,5.39941 h -8.69971 c -6.49999,0 -9,-2.30049 -9,-5.50049 0,-1.7 0.69952,-3.0997 1.99952,-4.19971 z m 20.40088,49.00049 v 31.8003 h -0.7002 c -2.6,-6.2 -7.00029,-10.60108 -15.30029,-10.60108 -11.4,0 -19.40039,8.3 -19.40039,27 0,18.7 8.00039,27 19.40039,27 8.3,0 12.70029,-4.39961 15.30029,-10.5996 h 0.7002 v 9.3999 h 14.79931 v -73.99952 z m 60,0 v 31.8003 h -0.70019 c -2.60001,-6.2 -7.0003,-10.60108 -15.3003,-10.60108 -11.4,0 -19.40039,8.3 -19.40039,27 0,18.7 8.00039,27 19.40039,27 8.3,0 12.70029,-4.39961 15.3003,-10.5996 h 0.70019 v 9.3999 h 14.79931 v -73.99952 z m 516.99902,0 v 30.79981 h -0.3999 c -3.29999,-6.3 -8.6994,-9.60059 -15.8994,-9.60059 -12.6,0 -20.20019,10.1 -20.20019,27 0,16.9 7.60019,27 20.20019,27 7.2,0 12.59941,-3.29912 15.8994,-9.59912 h 0.3999 v 8.39942 h 8.001 v -73.99952 z m 159.1011,0 v 27.7002 h 7.5996 v -27.7002 z m 506.69968,0 v 73.99952 h 7.9995 v -35.79932 c 0,-6.8 6.3999,-9.90088 12.7998,-9.90088 7.9001,0 12.2007,4.60098 12.2007,14.00098 v 31.69922 h 7.9995 v -33.09961 c 0,-12.50001 -7.0989,-19.70069 -17.8989,-19.70069 -8.5,0 -12.5012,4.50059 -14.7012,9.60059 h -0.3999 v -30.79981 z m 347.5005,0 v 6.79981 h 18 v 60.3999 h -18 v 6.79981 h 43.9995 v -6.79981 h -18 v -67.19971 z m 92.8989,0 v 30.79981 h -0.3999 c -3.3,-6.3 -8.6994,-9.60059 -15.8994,-9.60059 -12.6,0 -20.2002,10.1 -20.2002,27 0,16.9 7.6002,27 20.2002,27 7.2,0 12.5994,-3.29912 15.8994,-9.59912 h 0.3999 v 8.39942 h 8.001 V 319.00046 Z M 94.400395,323.20017 75.499517,392.99998 h 15.200678 l 4.299323,-16.8003 h 19.100092 l 4.40039,16.8003 h 16.00049 l -18.90088,-69.79981 z m 507.399915,0 v 6.7002 h 17.39941 v 56.39941 h -17.39941 v 6.7002 h 43.19971 v -6.7002 H 627.6006 v -56.39941 h 17.39942 v -6.7002 z m 362.20022,0 v 13.5 c 0,3.5 -1.30073,4.69922 -4.7007,4.69922 h -12.7998 v 6.80127 h 17.2002 v 33 c 0,6.9 3.5994,11.79932 11.3994,11.79932 h 20.1006 v -6.79981 h -23.5005 v -37.99951 h 23.5005 v -6.80127 h -23.5005 v -18.19922 z m 290.79927,0 v 13.5 c 0,3.5 -1.2992,4.69922 -4.6992,4.69922 h -12.8013 v 6.80127 h 17.2002 v 33 c 0,6.9 3.6009,11.79932 11.4009,11.79932 h 20.0991 v -6.79981 h -23.499 v -37.99951 h 23.499 v -6.80127 h -23.499 v -18.19922 z m 115.5,0 v 13.5 c 0,3.5 -1.2992,4.69922 -4.6992,4.69922 h -12.8013 v 6.80127 h 17.2002 v 33 c 0,6.9 3.6009,11.79932 11.4009,11.79932 h 20.0991 v -6.79981 h -23.499 v -37.99951 h 23.499 v -6.80127 h -23.499 V 323.20017 Z M 104.2002,337.70066 H 105 l 6.79981,26.39942 H 97.400395 Z m 240.89942,2.49902 c -15.5,0 -25.1001,10.30068 -25.1001,27.20069 0,16.5 9.10088,26.79931 26.40088,26.79931 11.1,0 18.1001,-4.19961 22.10009,-9.0996 l -8.00097,-8.69971 c -3.2,3.79999 -7.49961,6.3999 -13.59961,6.3999 -7.9,0 -12.19922,-4.50059 -12.19922,-11.10059 v -0.89941 h 35.2998 v -4.40039 c 0,-16.1 -9.50087,-26.2002 -24.90087,-26.2002 z m 61.19971,0 c -14.9,0 -23.59863,6.49981 -23.59863,17.29981 0,9.8 7.29999,13.70107 16.5,15.10107 l 8.2998,1.29932 c 4,0.6 6.3999,1.50039 6.3999,4.40039 0,3.7 -3.5999,5.50049 -9.3999,5.50049 -6.9,0 -12.30078,-2.60049 -16.30078,-7.00049 l -8.29981,7.69922 c 4.2,6 13.09952,9.70019 24.49952,9.70019 15.3,0 24,-6.79902 24,-17.49902 0,-9.8 -7.29961,-13.70107 -16.59961,-15.10108 l -8.2002,-1.29931 c -4,-0.6 -6.3999,-1.5 -6.3999,-4.5 0,-3.4 3.0001,-5.2002 8.6001,-5.2002 6.7,0 11.60009,2.60039 14.60009,5.90039 l 7.40039,-8.40088 c -4.29999,-4.99999 -11.40097,-7.8999 -21.50097,-7.8999 z m 60,0 c -14.9,0 -23.59863,6.49981 -23.59863,17.29981 0,9.8 7.29999,13.70107 16.5,15.10107 l 8.2998,1.29932 c 4,0.6 6.39991,1.50039 6.39991,4.40039 0,3.7 -3.59991,5.50049 -9.39991,5.50049 -6.9,0 -12.30078,-2.60049 -16.30078,-7.00049 l -8.29981,7.69922 c 4.2,6 13.09952,9.70019 24.49952,9.70019 15.3,0 24,-6.79902 24,-17.49902 0,-9.8 -7.29961,-13.70107 -16.59961,-15.10108 l -8.2002,-1.29931 c -4,-0.6 -6.3999,-1.5 -6.3999,-4.5 0,-3.4 3.0001,-5.2002 8.6001,-5.2002 6.7,0 11.60009,2.60039 14.60009,5.90039 l 7.4004,-8.40088 c -4.3,-4.99999 -11.40098,-7.8999 -21.50098,-7.8999 z m 58.40039,0 c -7.5,0 -10.5,3.79981 -10.5,8.29981 v 3.50097 c 0,4.5 3,8.29981 10.5,8.29981 7.5,0 10.5,-3.79981 10.5,-8.29981 v -3.50097 c 0,-4.5 -3,-8.29981 -10.5,-8.29981 z m 272.5005,0 c -14.49997,0 -23.4009,10.6 -23.4009,27 0,16.40001 8.90093,27 23.4009,27 14.49998,0 23.3994,-10.59999 23.3994,-27 0,-16.4 -8.89942,-27 -23.3994,-27 z m 61.4004,0 c -8.50005,0 -12.50115,4.50059 -14.7012,9.60059 h -0.3999 v -8.40088 h -7.9995 v 51.60059 h 7.9995 v -35.79932 c 0,-6.8 6.39983,-9.90088 12.7998,-9.90088 7.90005,0 12.2007,4.60098 12.2007,14.00098 v 31.69922 h 7.9995 v -33.09961 c 0,-12.50001 -7.0989,-19.70069 -17.8989,-19.70069 z m 285.89938,0 c -10.5,0 -17.1006,5.00039 -19.7007,10.40039 l 5.4009,4.00049 c 2.7,-4.7 6.9003,-7.60107 13.8003,-7.60107 7.8,0 12.2988,3.90088 12.2988,11.40088 v 5.09912 h -10.9995 c -15.5,0 -22.1997,5.5 -22.1997,15 0,9.7 6.8997,15.70019 17.6997,15.70019 8.4,0 13.2996,-3.69912 15.4995,-9.59912 h 0.501 c 0.6,4.8 2.9992,8.39942 9.1992,8.39942 h 5.5005 v -7.00049 h -7.1997 v -28.39893 c 0,-10.9 -7.7003,-17.40088 -19.8003,-17.40088 z m 63.3999,0 c -8.4999,0 -12.4997,4.50059 -14.6997,9.60059 h -0.3999 v -8.40088 h -8.001 v 51.60059 h 8.001 v -35.79932 c 0,-6.8 6.3999,-9.90088 12.7998,-9.90088 7.9,0 12.1992,4.60098 12.1992,14.00098 v 31.69922 h 8.001 v -33.09961 c 0,-12.50001 -7.1004,-19.70069 -17.9004,-19.70069 z m 288.3003,0 c -14,0 -23.6997,10.60108 -23.6997,27.10108 0,16.3 9.3993,26.89892 24.1992,26.89892 10.2,0 17.5998,-4.99893 20.6997,-11.89892 l -5.8989,-4.00049 c -2.7,5.6 -7.9008,9 -14.8008,9 -9.6999,0 -15.7998,-6.6002 -15.7998,-15.70019 v -2.39942 h 38.2002 v -3.80127 c 0,-14.6 -8.9999,-25.19971 -22.8999,-25.19971 z m 173.499,0 c -14.4999,0 -23.3994,10.6 -23.3994,27 0,16.40001 8.8995,27 23.3994,27 14.5001,0 23.4009,-10.59999 23.4009,-27 0,-16.4 -8.9008,-27 -23.4009,-27 z m -1407.2988,1.19971 v 11.50049 h 11.89892 v 28.59961 H 262.4004 v 11.50049 h 43.69922 v -11.50049 h -16.99951 v -15.29883 c 0,-6.2 3.80059,-11.2002 11.10058,-11.2002 h 10.99951 v -13.60107 h -4.8999 c -10.2,0 -14.6,7.00009 -16.5,14.6001 h -0.70019 v -14.6001 z m 798.5991,0 7.8999,51.60059 h 10.4004 l 8.4009,-43.19971 h 0.7998 l 8.2002,43.19971 h 10.3989 l 7.8999,-51.60059 h -6.8994 l -5.9004,44.6001 h -0.8994 l -8.8008,-44.6001 h -8.7993 l -8.8008,44.6001 H 1074 l -5.9004,-44.6001 z m 523.2012,0 7.8999,51.60059 h 10.3989 l 8.4009,-43.19971 h 0.7998 l 8.2002,43.19971 h 10.3989 l 7.9014,-51.60059 h -6.9009 l -5.9004,44.6001 H 1624.5 l -8.7993,-44.6001 h -8.8008 l -8.7993,44.6001 h -0.9009 l -5.9004,-44.6001 z m 121.5996,0 v 6.80127 h 15.0996 v 37.99951 h -15.0996 v 6.79981 h 43.1001 v -6.79981 h -20.001 v -22.30078 c 0,-8 5.3,-14.49902 15.3999,-14.49902 h 9.7002 v -8.00098 h -7.1997 c -10.8,0 -15.3993,6.20049 -17.3994,13.00049 h -0.501 v -13.00049 z m -209.6001,5.40088 c 8.5,0 14.2998,6.20029 14.2998,15.30029 v 1.1001 h -29.6001 v -0.7002 c 0,-9 6.5004,-15.70019 15.3003,-15.70019 z m -698.99998,0.30029 c 8.90003,0 14.9004,5.29893 14.9004,16.39893 v 7.40039 c 0,11.1 -6.00037,16.40039 -14.9004,16.40039 -8.90002,0 -14.9004,-5.30039 -14.9004,-16.40039 v -7.40039 c 0,-11.1 6.00038,-16.39893 14.9004,-16.39893 z m 872.49898,0 c 8.9001,0 14.9004,5.29893 14.9004,16.39893 v 7.40039 c 0,11.1 -6.0003,16.40039 -14.9004,16.40039 -8.8999,0 -14.8989,-5.30039 -14.8989,-16.40039 v -7.40039 c 0,-11.1 5.999,-16.39893 14.8989,-16.39893 z m -931.59957,0.19922 c 7.1,0 13.19969,3.69961 13.19969,10.59961 v 18.60059 c 0,6.9 -6.09969,10.5996 -13.19969,10.5996 -9.3,0 -14.69971,-6.1995 -14.69971,-15.4995 v -8.79932 c 0,-9.3 5.39971,-15.50098 14.69971,-15.50098 z m 1106.20017,0 c 7.1001,0 13.1997,3.69961 13.1997,10.59961 v 18.60059 c 0,6.9 -6.0996,10.5996 -13.1997,10.5996 -9.3,0 -14.6997,-6.1995 -14.6997,-15.4995 v -8.79932 c 0,-9.3 5.3997,-15.50098 14.6997,-15.50098 z m -1499.09911,3.50098 c 6.4,0 10.29932,4.1999 10.29932,10.8999 v 0.7998 h -20.79932 v -0.7998 c 0,-6.6 4.10001,-10.8999 10.5,-10.8999 z m -180.50098,0.89941 c 5.2,0 9.60059,2.49991 9.60059,7.89991 v 15.20068 c 0,5.39999 -4.40059,7.8999 -9.60059,7.8999 -6.6,0 -10.40039,-4.30049 -10.40039,-11.50049 v -7.99951 c 0,-7.2 3.80039,-11.50049 10.40039,-11.50049 z m 60,0 c 5.2,0 9.60059,2.49991 9.60059,7.89991 v 15.20068 c 0,5.39999 -4.40059,7.8999 -9.60059,7.8999 -6.6,0 -10.40039,-4.30049 -10.40039,-11.50049 v -7.99951 c 0,-7.2 3.80039,-11.50049 10.40039,-11.50049 z m 920.60009,17.79932 h 10.9995 v 8.50049 c 0,5.3 -5.8991,9.49951 -14.0991,9.49951 -6.6,0 -10.7007,-2.79913 -10.7007,-8.09912 v -2.10059 c 0,-5 4.3003,-7.80029 13.8003,-7.80029 z m -620.60008,4.60107 c -7.5,0 -10.5,3.79981 -10.5,8.29981 v 3.49951 c 0,4.5 3,8.2998 10.5,8.2998 7.5,0 10.5,-3.7998 10.5,-8.2998 v -3.49951 c 0,-4.5 -3,-8.29981 -10.5,-8.29981 z m 485.00098,234.09961 c -4,0 -6.1005,1.8003 -6.6006,4.8003 -0.2,1.2 -0.3999,2.09892 -0.3999,2.89893 0,2.1 1.4994,4.00048 5.7993,4.00048 4,0 6.1006,-1.80029 6.6006,-4.80029 0.2001,-1.2 0.3999,-2.09893 0.3999,-2.89892 0,-2.1 -1.4993,-4.0005 -5.7993,-4.0005 z m -803.00099,0.79981 -1.1001,6.70019 h 18.20069 l -11.20019,58.19971 c -0.20001,0.9 -0.3003,2.30069 -0.3003,3.20069 0,4.1 2.1,7.1001 7.5,7.1001 4,0 7.59981,-1.7 17.2998,-10.5 l 10.4004,-9.3999 -4.5,-4.40039 -20.50049,17.39941 -2.49903,-0.79981 12.99903,-67.5 z m 638.60011,0 -5.2998,31.4004 h -0.3003 c -2.19997,-6.70001 -7.49962,-10.19971 -15.0996,-10.19971 -18.20002,0 -24.3999,20.19902 -24.3999,33.99902 0,13.2 5.70008,20.00098 16.1001,20.00098 9.09998,0 14.30025,-5.30039 18.3003,-13.40039 h 0.2988 l -1.9995,12.19922 h 7.8003 l 12.3999,-73.99952 z m 115.99951,0 c -7.69995,0 -12.09968,4.89971 -13.1997,11.69971 l -1.8003,10.70068 h -18.39991 l -1.1001,6.7002 h 18.40141 l -9.80131,58.69922 -1.7988,0.3999 -15.3999,-16.39892 -5.3013,4.79882 6.1011,6.7002 c 8.00003,8.7 10.8996,11.90039 15.0996,11.90039 6.00001,0 8.70061,-4.9 9.60061,-10.5 l 9.2988,-55.59961 h 20.9004 l 1.1001,-6.7002 h -20.9004 l 2.6001,-15.7002 h 20.8008 l 1.1001,-6.70019 z m 151.49997,0 -12.3999,73.99952 h 7.8003 l 4.8003,-28.5 c 1,-5.9 4.8004,-10.49932 5.9004,-11.79932 2.9001,-3.4 6.3999,-5.6001 10.8999,-5.6001 5.8,0 8.6001,3.79941 8.6001,9.89942 0,1.09999 -0.1009,3.10048 -0.501,5.50048 l -5.0991,30.49952 h 7.8003 l 5.1987,-31.19971 c 0.4001,-2.3 0.6006,-4.7002 0.6006,-6.7002 0,-9.4 -5.3994,-14.89892 -13.9995,-14.89892 -8.3,0 -13.4001,5.19892 -17.2002,13.39892 h -0.3999 l 5.7993,-34.59961 z m -1021.99949,4.19971 -1.1001,6.60058 h 17.50049 l -9.499512,56.60011 H 80.200195 l -1.100093,6.59912 h 43.199708 l 1.10009,-6.59912 h -17.50048 l 9.50098,-56.60011 h 17.49902 l 1.1001,-6.60058 z m 1091.10059,0 -2.2998,13.5 c -0.6,3.5 -2.2001,4.70068 -5.6001,4.70068 h -10.5 l -1.1001,6.7002 h 14.8989 l -6,34.79883 c -0.1999,1.1 -0.2988,3.00088 -0.2988,3.90088 0,4.8 2.699,7.40039 7.3989,7.40039 4.1001,0 8.1009,-2.10117 17.4009,-8.70117 l 11.2998,-7.99952 -3.8994,-4.99951 -22.5,15 -2.001,-1.1997 6.3999,-38.2002 h 21.3003 l 1.1001,-6.7002 h -21.3003 l 3.0996,-18.20068 z m -893.6001,17.00098 c -15.1,0 -27,12.49873 -27,32.19873 0,12.9 6.89912,21.80127 20.09912,21.80127 15.2,0 27.10107,-12.5002 27.10107,-32.2002 0,-12.9 -6.80019,-21.7998 -20.20019,-21.7998 z m 122.29981,0 c -16.6,0 -28.40039,13.1999 -28.40039,31.8999 0,14.8 7.40088,22.1001 20.40088,22.1001 10.89999,0 17.89971,-5.20118 23.6997,-14.70117 l -5.50048,-3.39991 c -5.80001,8.20001 -10.10049,11.40088 -17.50049,11.40088 -10.8,0 -12.89942,-6.6999 -12.89942,-13.8999 0,-0.2 -3.9e-4,-1.2998 0.0996,-2.2998 32.89999,-0.9 37.60107,-9.9002 37.60107,-17.2002 0,-9 -7.40049,-13.8999 -17.50049,-13.8999 z m 114.09961,0 c -18.2,0 -24.3999,20.19902 -24.3999,33.99902 0,13.2 5.7001,20.00098 16.10009,20.00098 9.10001,0 14.3003,-5.30039 18.3003,-13.40039 h 0.30029 l -2.00097,12.19922 h 7.80029 l 8.60009,-51.59913 h -7.80029 l -1.5,9.00001 h -0.30029 c -2.2,-6.70001 -7.49961,-10.19971 -15.09961,-10.19971 z m 119.9004,0 c -17.80001,0 -24.3003,19.3997 -24.3003,32.69971 0,12.6 5.59971,19.5996 16.19971,19.5996 9.1,0 14.4999,-5.10039 18.3999,-13.40039 h 0.3999 l -2.09912,12.39991 c -1.9,11.4 -7.4999,15.80127 -16.8999,15.80127 -6.3,0 -10.49971,-2.00088 -13.19971,-5.40089 l -5.40088,5.2002 c 3.7,4.6 9.79962,7.1001 18.09961,7.1001 12.9,0 22.30089,-6.00069 24.90088,-21.20068 l 8.6001,-51.59913 h -7.80029 l -1.5,9.00001 h -0.30029 c -2.2,-6.70001 -7.49962,-10.19971 -15.09961,-10.19971 z m 63.3999,0 c -15.1,0 -27,12.49873 -27,32.19873 0,12.9 6.90058,21.80127 20.10058,21.80127 15.20001,0 27.09961,-12.5002 27.09961,-32.2002 0,-12.9 -6.80019,-21.7998 -20.20019,-21.7998 z m 60,0 c -15.09997,0 -27,12.49873 -27,32.19873 0,12.9 6.90058,21.80127 20.1006,21.80127 15.19995,0 27.0996,-12.5002 27.0996,-32.2002 0,-12.9 -6.80017,-21.7998 -20.2002,-21.7998 z m 296.50048,0 c -17.7999,0 -24.3003,19.3997 -24.3003,32.69971 0,12.6 5.5998,19.5996 16.1997,19.5996 9.1,0 14.4999,-5.10039 18.3999,-13.40039 h 0.3999 l -2.0991,12.39991 c -1.9,11.4 -7.4999,15.80127 -16.8999,15.80127 -6.3,0 -10.5012,-2.00088 -13.2012,-5.40089 l -5.3994,5.2002 c 3.7,4.6 9.7996,7.1001 18.0996,7.1001 12.9,0 22.3009,-6.00069 24.9009,-21.20068 l 8.6001,-51.59913 h -7.8003 l -1.5,9.00001 h -0.3003 c -2.1999,-6.70001 -7.4996,-10.19971 -15.0996,-10.19971 z m -698.80078,0.59912 -7.5,2.20019 c 1.89999,3.7 2.80077,8.2002 2.80077,12.7002 0,14.9 -8.70078,29.79951 -25.30077,31.99951 l -1.29932,-0.89941 6.7998,-45.39991 h -18.60058 l -1.1001,6.7002 h 11.00097 l -5.20019,34.79883 c -0.2,1.2 -0.3999,2.70019 -0.3999,3.70019 0,4.5 2.49922,7.20118 7.69922,7.20118 18.6,0 34.40039,-17.50049 34.40039,-38.50049 0,-5.4 -1.20029,-10.50049 -3.30029,-14.50049 z m 618.09961,0.60058 -1.0986,6.7002 h 18.59907 l -6.79977,35.2002 c -0.20003,1.19999 -0.4995,2.69902 -0.4995,3.99902 0,4 2.69917,6.90088 7.69917,6.90088 4.5,0 8.2002,-2.40059 17.6001,-11.10059 l 9.0996,-8.39941 -4.6992,-4.40039 -19.7007,16.99951 -2.2998,-0.89941 8.6997,-45.00001 z m -573.89942,5.29981 c 7.5,0 10.19971,3.49922 10.19971,7.69922 0,5 -3.79951,10.70049 -28.99951,11.50048 l 0.0996,-1.00048 c 1.5,-11.7 8.3002,-18.19922 18.70019,-18.19922 z m -121.8999,0.30029 c 7.7,0 12.60058,4.0002 12.60058,12.7002 0,1.2 -0.10097,2.69912 -0.50097,5.09912 l -0.99903,6 c -1.7,10.2 -7.60127,16.59961 -17.30127,16.59961 -7.69999,0 -12.59912,-3.99873 -12.59912,-12.69873 0,-1.2 0.0995,-2.70059 0.49951,-5.10059 l 1.00049,-6 c 1.7,-10.2 7.59981,-16.59961 17.29981,-16.59961 z m 419.69972,0 c 7.7,0 12.60058,4.0002 12.60058,12.7002 0,1.2 -0.10097,2.69912 -0.50098,5.09912 l -0.99902,6 c -1.7,10.2 -7.5998,16.59961 -17.29981,16.59961 -7.69999,0 -12.60058,-3.99873 -12.60058,-12.69873 0,-1.2 0.0995,-2.70059 0.49951,-5.10059 l 1.00049,-6 c 1.7,-10.2 7.59981,-16.59961 17.29981,-16.59961 z m 59.99999,0 c 7.70003,0 12.6006,4.0002 12.6006,12.7002 0,1.2 -0.10095,2.69912 -0.501,5.09912 l -0.999,6 c -1.70002,10.2 -7.59982,16.59961 -17.2998,16.59961 -7.70002,0 -12.6006,-3.99873 -12.6006,-12.69873 0,-1.2 0.0995,-2.70059 0.49951,-5.10059 l 1.00049,-6 c 1.70003,-10.2 7.59983,-16.59961 17.2998,-16.59961 z m -240.70019,0.0996 c 7.69999,0 13.00078,4.0998 11.80078,11.2998 l -1.8999,11.40089 c -0.80001,4.79999 -3.09972,8.89931 -5.69971,11.79931 -3.6,4 -7.80107,5.69971 -12.10108,5.69971 -7.2,0 -10.8999,-4.6003 -10.8999,-12.30029 0,-1.30001 0.0999,-2.7 0.3999,-4.5 l 1.19971,-7.19971 c 1.6,-9.6 7.3002,-16.19971 17.2002,-16.19971 z m 119.90039,0 c 7.7,0 13.00078,4.0998 11.80078,11.2998 l -1.60107,9.79981 c -0.90001,5.6 -3.79971,9.59971 -5.69971,11.69971 -3.7,4.1 -7.89922,5.70117 -12.19922,5.70117 -7.2,0 -10.90137,-4.5002 -10.90137,-12.70019 0,-1.40001 0.20098,-2.6004 0.50098,-4.4004 l 0.89941,-5.39941 c 1.6,-9.6 7.5002,-16.00049 17.2002,-16.00049 z m 180,0 c 7.70003,0 13.0008,4.0998 11.8008,11.2998 l -1.9014,11.40089 c -0.79995,4.79999 -3.09967,8.89931 -5.6997,11.79931 -3.6,4 -7.79962,5.69971 -12.0996,5.69971 -7.2,0 -10.8999,-4.6003 -10.8999,-12.30029 0,-1.30001 0.0999,-2.7 0.3999,-4.5 l 1.1997,-7.19971 c 1.59998,-9.6 7.3002,-16.19971 17.2002,-16.19971 z m 239.90038,0 c 7.7001,0 12.9993,4.0998 11.7993,11.2998 L 1077,658.19969 c -0.9,5.6 -3.7997,9.59971 -5.6997,11.69971 -3.6999,4.1 -7.9007,5.70117 -12.2007,5.70117 -7.2,0 -10.8999,-4.5002 -10.8999,-12.70019 0,-1.40001 0.201,-2.6004 0.501,-4.4004 l 0.8994,-5.39941 c 1.6,-9.6 7.5003,-16.00049 17.2002,-16.00049 z m 175.4004,33.20069 c -5.1,0 -7.5006,2.29892 -8.1006,5.89892 -0.2,1.2 -0.3999,2.40068 -0.3999,3.20069 0,2.49999 1.7995,4.5 6.4995,4.5 5.1,0 7.5006,-2.3004 8.1006,-5.9004 0.2001,-1.2 0.3999,-2.39922 0.3999,-3.19921 0,-2.50001 -1.7995,-4.5 -6.4995,-4.5 z M 290.10059,858.20069 c -3.99999,0 -6.10058,1.7988 -6.60058,4.7988 -0.2,1.2 -0.3999,2.10037 -0.3999,2.9004 0,2.1 1.49932,4.0005 5.79931,4.0005 4,0 6.10059,-1.8003 6.60059,-4.8003 0.2,-1.2 0.3999,-2.10038 0.3999,-2.9004 0,-2.1 -1.49932,-3.999 -5.79932,-3.999 z m 180.00001,0 c -4,0 -6.10059,1.7988 -6.60059,4.7988 -0.2,1.2 -0.3999,2.10037 -0.3999,2.9004 0,2.1 1.49932,4.0005 5.79932,4.0005 4,0 6.10058,-1.8003 6.60058,-4.8003 0.20001,-1.2 0.3999,-2.10038 0.3999,-2.9004 0,-2.1 -1.49931,-3.999 -5.79931,-3.999 z m 719.499,0 c -3.9999,0 -6.099,1.7988 -6.5991,4.7988 -0.2,1.2 -0.3999,2.10037 -0.3999,2.9004 0,2.1 1.4994,4.0005 5.7993,4.0005 4,0 6.1006,-1.8003 6.6006,-4.8003 0.2001,-1.2 0.3999,-2.10038 0.3999,-2.9004 0,-2.1 -1.5008,-3.999 -5.8008,-3.999 z m -943.99949,0.7998 -5.29981,31.3989 h -0.30029 c -2.2,-6.69998 -7.49961,-10.1997 -15.09961,-10.1997 -18.2,0 -24.39991,20.2005 -24.39991,34.0005 0,13.2 5.7001,19.9995 16.1001,19.9995 9.1,0 14.29883,-5.2989 18.29883,-13.3989 h 0.30029 l -1.99951,12.1992 h 7.80029 l 12.39991,-73.9995 z m 141.09961,0 -1.1001,6.7002 h 18.20068 l -11.20019,58.1997 c -0.2,0.9 -0.30029,2.2992 -0.30029,3.1992 0,4.10003 2.1,7.1001 7.5,7.1001 4,0 7.5998,-1.70002 17.2998,-10.5 l 10.40039,-9.3999 -4.5,-4.4004 -20.50048,17.4009 -2.49903,-0.7998 12.99903,-67.5 z m 126.50098,0 -12.40137,73.9995 h 7.80029 l 4.80029,-28.5 c 0.70001,-4.29998 2.79972,-8.0997 5.69971,-11.6997 2.80001,-3.39998 6.19981,-5.9004 11.29981,-5.9004 5.4,0 8.40088,2.79997 8.40088,7.5 0,6.09997 -5.09981,11.80087 -21.79981,15.9009 l 8.09912,17.5986 c 2.1,4.60005 4.30069,6.3003 7.70069,6.3003 3.8,0 6.8,-2.19892 12,-7.3989 l 7.1001,-7.1001 -4.30079,-4.5 -13.29931,12.1992 -1.30078,-0.1992 -7.1001,-15.501 c 17.5,-4.29998 20.90039,-12.59978 20.90039,-18.7998 0,-7.70003 -5.3,-12.7002 -13.5,-12.7002 -8.6,0 -13.99971,5.50042 -17.69971,13.4004 h -0.3999 l 5.79932,-34.5996 z m 173.19873,0 -1.1001,6.7002 h 18.20069 l -11.20019,58.1997 c -0.20001,0.9 -0.3003,2.2992 -0.3003,3.1992 0,4.10003 2.1,7.1001 7.5,7.1001 4,0 7.59981,-1.70002 17.2998,-10.5 l 10.4004,-9.3999 -4.5,-4.4004 -20.49903,17.4009 -2.50049,-0.7998 13.00049,-67.5 z m 218.90039,0 -5.2998,31.3989 h -0.3003 c -2.19997,-6.69998 -7.49962,-10.1997 -15.0996,-10.1997 -18.20002,0 -24.3999,20.2005 -24.3999,34.0005 0,13.2 5.70008,19.9995 16.1001,19.9995 9.09998,0 14.30025,-5.2989 18.3003,-13.3989 h 0.2988 l -1.9995,12.1992 h 7.8003 l 12.3999,-73.9995 z m -814.50001,4.1997 -1.1001,6.6006 h 17.50049 l -9.499512,56.5986 H 80.200195 l -1.100093,6.6006 h 43.199708 l 1.10009,-6.6006 h -17.50048 l 9.50098,-56.5986 h 17.49902 l 1.1001,-6.6006 z m 258.09961,16.9995 c -12.2,0 -22.1001,5.50042 -22.1001,16.4004 0,9.6 7.8003,12.09967 15.3003,13.1997 l 7.5,1.1001 c 4.2,0.6 7.5,1.9998 7.5,6.7998 0,6.20003 -5.59971,9.9009 -14.69971,9.9009 -7.8,0 -12.8999,-2.70067 -16.8999,-7.7007 l -5.79932,4.5996 c 4.5,6.20003 11.99903,9.7002 21.99903,9.7002 13.8,0 23.10058,-6.59977 23.10058,-17.2998 0,-10.2 -8.49961,-11.79938 -15.09961,-12.8994 l -7.30078,-1.1997 c -4.2,-0.70005 -7.99951,-1.80128 -7.99951,-6.8013 0,-5.60003 4.69961,-9.1992 13.59961,-9.1992 8.7,0 12.89971,3.3996 14.69971,6.0996 l 5.50048,-4.8003 c -3.9,-4.89998 -10.30078,-7.8999 -19.30078,-7.8999 z m 241.7007,0 c -16.60001,0 -28.4004,13.19992 -28.4004,31.8999 0,14.79998 7.40088,22.1001 20.40088,22.1001 10.9,0 17.89971,-5.19967 23.69971,-14.6997 l -5.50049,-3.3999 c -5.8,8.19998 -10.10049,11.3994 -17.50049,11.3994 -10.8,0 -12.89941,-6.6999 -12.89941,-13.8999 0,-0.20003 -3.9e-4,-1.29983 0.0996,-2.2998 32.9,-0.9 37.60107,-9.90023 37.60107,-17.2002 0,-9 -7.40049,-13.8999 -17.50048,-13.8999 z m 177.3999,0 c -15.09997,0 -27,12.50017 -27,32.2002 0,12.9 6.90058,21.7998 20.1006,21.7998 15.19995,0 27.0996,-12.50017 27.0996,-32.2002 0,-12.9 -6.80017,-21.7998 -20.2002,-21.7998 z m 233.69968,0 c -5.69997,0 -8.80017,4.10032 -11.20017,9.3003 h -0.3999 l 1.3008,-8.1006 h -7.2012 l -8.5986,51.6006 h 7.1997 l 5.6001,-33.3999 c 0.50002,-3 1.69912,-6.3 3.5991,-9 1.59997,-2.30003 3.90022,-4.0005 6.7002,-4.0005 2.80007,0 4.19967,1.7004 4.19967,5.9004 0,1.59997 -0.1991,3.5004 -0.5991,5.9004 l -5.80077,34.5996 h 7.20117 l 5.5986,-33.3999 c 0.5001,-3 1.7007,-6.39998 3.6006,-9 1.7001,-2.30003 3.6996,-4.0005 6.4995,-4.0005 3,0 4.4004,1.90012 4.4004,5.6001 0,1.40002 -0.3002,3.8007 -0.7002,6.2007 l -5.7993,34.5996 h 7.1997 l 6,-35.9004 c 0.4,-2.4 0.7002,-5.09903 0.7002,-6.999 0,-6.3 -3.1008,-9.9009 -8.8008,-9.9009 -6,0 -9.8994,3.89977 -12.4995,9.7998 h -0.3003 c 0.4,-5.60003 -2.0999,-9.7998 -7.8999,-9.7998 z m 126.7002,0 c -12.2,0 -22.1001,5.50042 -22.1001,16.4004 0,9.6 7.8003,12.09967 15.3003,13.1997 l 7.5,1.1001 c 4.2,0.6 7.5,1.9998 7.5,6.7998 0,6.20003 -5.5997,9.9009 -14.6997,9.9009 -7.8,0 -12.8999,-2.70067 -16.8999,-7.7007 l -5.8008,4.5996 c 4.5,6.20003 12.0006,9.7002 22.0005,9.7002 13.8,0 23.0991,-6.59977 23.0991,-17.2998 0,-10.2 -8.4996,-11.79938 -15.0996,-12.8994 l -7.2993,-1.1997 c -4.2,-0.70005 -8.001,-1.80128 -8.001,-6.8013 0,-5.60003 4.7011,-9.1992 13.6011,-9.1992 8.7,0 12.8997,3.3996 14.6997,6.0996 l 5.5005,-4.8003 c -3.9,-4.89998 -10.3008,-7.8999 -19.3008,-7.8999 z m 120.0996,0 c -14.7,0 -26.6001,12.50017 -26.6001,32.2002 0,12.9 6.7001,21.7998 19.5,21.7998 10.8,0 17.3008,-5.6001 23.8008,-16.1001 l -5.6001,-3.2988 c -8.1999,11.29995 -12.6002,12.5991 -17.2002,12.5991 -7.5,0 -12.6006,-4.09942 -12.6006,-12.8994 0,-1.29998 0.1011,-2.4003 0.501,-4.8003 l 0.999,-6 c 1.8,-10.8 7.5009,-16.7007 16.3008,-16.7007 6.4,0 10.1993,1.9002 12.1992,8.2002 l 6.7002,-2.6001 c -1.8,-6.80003 -7.1,-12.3999 -18,-12.3999 z m -984.29881,1.1997 -1.1001,6.7002 h 18.59913 l -6.79981,35.2002 c -0.2,1.2 -0.49951,2.70053 -0.49951,4.0005 0,3.99998 2.69922,6.8994 7.69922,6.8994 4.5,0 8.2001,-2.3991 17.6001,-11.0991 l 9.0996,-8.4009 -4.69921,-4.3989 -19.70069,16.9995 -2.2998,-0.9009 8.6997,-45 z m 180.00001,0 -1.1001,6.7002 h 18.59912 l -6.79981,35.2002 c -0.19999,1.2 -0.49951,2.70053 -0.49951,4.0005 0,3.99998 2.69922,6.8994 7.69922,6.8994 4.5,0 8.2001,-2.3991 17.6001,-11.0991 l 9.09961,-8.4009 -4.69922,-4.3989 -19.70068,16.9995 -2.29981,-0.9009 8.69971,-45 z m 364.50002,0 -5.2002,31.2012 c -0.39997,2.29995 -0.6006,4.70018 -0.6006,6.7002 0,9.39998 5.39955,14.8989 13.9995,14.8989 8.30003,0 13.40018,-5.19892 17.2002,-13.3989 h 0.3999 l -1.9995,12.1992 h 7.8003 l 8.6001,-51.6006 h -7.8003 l -4.8003,28.5 c -0.99997,5.90003 -4.80037,10.50083 -5.9004,11.8008 -2.89995,3.39998 -6.3999,5.6001 -10.8999,5.6001 -5.79997,0 -8.6001,-3.80085 -8.6001,-9.9009 0,-1.09995 0.10103,-3.099 0.501,-5.499 l 5.0991,-30.501 z m 239.79928,0 -5.2002,31.2012 c -0.3999,2.29995 -0.5991,4.70018 -0.5991,6.7002 0,9.39998 5.3995,14.8989 13.9995,14.8989 8.3001,0 13.4002,-5.19892 17.2002,-13.3989 h 0.3999 l -2.001,12.1992 h 7.8003 l 8.6001,-51.6006 h -7.8003 l -4.7988,28.5 c -1,5.90003 -4.8003,10.50083 -5.9004,11.8008 -2.9,3.39998 -6.3999,5.6001 -10.8999,5.6001 -5.7999,0 -8.6001,-3.80085 -8.6001,-9.9009 0,-1.09995 0.1,-3.099 0.4995,-5.499 l 5.1006,-30.501 z m 115.1997,0 -1.1001,6.7002 h 18.6006 l -6.7998,35.2002 c -0.2,1.2 -0.501,2.70053 -0.501,4.0005 0,3.99998 2.7007,6.8994 7.7007,6.8994 4.5,0 8.2002,-2.3991 17.6001,-11.0991 l 9.0996,-8.4009 -4.6992,-4.3989 -19.7007,16.9995 -2.2998,-0.9009 8.6997,-45 z m -573.79978,5.3013 c 7.5,0 10.1997,3.4992 10.1997,7.6992 0,5.00002 -3.7995,10.70047 -28.9995,11.5005 l 0.0996,-1.0005 c 1.5,-11.7 8.3002,-18.1992 18.7002,-18.1992 z m 177.7998,0.2988 c 7.70003,0 12.6006,4.0002 12.6006,12.7002 0,1.2 -0.10095,2.7006 -0.501,5.1006 l -0.999,6 c -1.70002,10.2 -7.59982,16.5996 -17.2998,16.5996 -7.70002,0 -12.6006,-4.0002 -12.6006,-12.7002 0,-1.2 0.0995,-2.6991 0.49951,-5.0991 l 1.00049,-6 c 1.70003,-10.2 7.59983,-16.6011 17.2998,-16.6011 z m -540.49952,0.1011 c 7.7,0 12.99932,4.0998 11.79932,11.2998 l -1.89991,11.3994 c -0.79999,4.8 -3.0997,8.90078 -5.6997,11.8008 -3.6,3.99998 -7.79961,5.6997 -12.09961,5.6997 -7.2,0 -10.8999,-4.60027 -10.8999,-12.3003 0,-1.29998 0.0999,-2.7 0.3999,-4.5 l 1.19971,-7.1997 c 1.59999,-9.6 7.30019,-16.1997 17.20019,-16.1997 z m 659.69972,0 c 7.70003,0 13.0008,4.0998 11.8008,11.2998 l -1.9014,11.3994 c -0.79995,4.8 -3.09967,8.90078 -5.6997,11.8008 -3.6,3.99998 -7.79962,5.6997 -12.0996,5.6997 -7.2,0 -10.8999,-4.60027 -10.8999,-12.3003 0,-1.29998 0.0999,-2.7 0.3999,-4.5 l 1.1997,-7.1997 c 1.59998,-9.6 7.3002,-16.1997 17.2002,-16.1997 z m 415.19968,33.1992 c -5.1,0 -7.4991,2.3004 -8.0991,5.9004 -0.2,1.2 -0.3999,2.39925 -0.3999,3.1992 0,2.50005 1.7995,4.5 6.4995,4.5 5.1,0 7.5006,-2.2989 8.1006,-5.8989 0.2,-1.2 0.3999,-2.40067 0.3999,-3.2007 0,-2.49997 -1.8009,-4.5 -6.501,-4.5 z m -1088.89891,188.69971 -12.40137,74.001 h 7.80029 l 4.8003,-28.5 c 1,-5.9 4.80039,-10.5008 5.90039,-11.8008 2.9,-3.4 6.3999,-5.6001 10.8999,-5.6001 5.8,0 8.6001,3.801 8.6001,9.9009 0,1.1001 -0.10097,3.0991 -0.50098,5.499 l -5.09912,30.501 h 7.80029 l 5.2002,-31.2012 c 0.4,-2.3 0.59912,-4.6988 0.59912,-6.6987 0,-9.4001 -5.39951,-14.9004 -13.99951,-14.9004 -8.3,0 -13.4002,5.2003 -17.20019,13.4004 h -0.39991 l 5.79932,-34.6011 z m 212.39942,0 -5.29981,31.4004 h -0.30029 c -2.2,-6.7 -7.49961,-10.1997 -15.09961,-10.1997 -18.2,0 -24.3999,20.2005 -24.3999,34.0005 0,13.2 5.70009,19.9995 16.1001,19.9995 9.09999,0 14.29883,-5.3004 18.29883,-13.4004 h 0.30029 l -1.99952,12.2007 h 7.8003 l 12.3999,-74.001 z m 21.09961,0 -1.1001,6.7002 h 18.20068 l -11.20019,58.1997 c -0.2,0.8999 -0.30029,2.3007 -0.30029,3.2007 0,4.1 2.1,7.1001 7.5,7.1001 4,0 7.5998,-1.7 17.2998,-10.5 l 10.40039,-9.3999 -4.5,-4.4004 -20.50048,17.4009 -2.49903,-0.8013 12.99903,-67.5 z m 366.2007,0 -12.3999,74.001 h 7.7988 l 4.8003,-28.5 c 0.69998,-4.3 2.79975,-8.0997 5.6997,-11.6997 2.80005,-3.4001 6.2013,-5.9004 11.3013,-5.9004 5.4,0 8.3994,2.8 8.3994,7.5 0,6.1 -5.09977,11.7994 -21.7998,15.8994 l 8.0991,17.6001 c 2.1,4.6 4.30073,6.3003 7.7007,6.3003 3.80003,0 6.80003,-2.2004 12,-7.4004 l 7.1001,-7.1001 -4.3008,-4.5 -13.2993,12.2007 -1.2993,-0.2007 -7.1001,-15.4995 c 17.49998,-4.3 20.8989,-12.5998 20.8989,-18.7998 0,-7.7 -5.30002,-12.7002 -13.5,-12.7002 -8.60002,0 -13.99972,5.5003 -17.6997,13.4004 h -0.3999 l 5.8008,-34.6011 z m 479.79928,0 -12.3999,74.001 h 7.8003 l 4.8003,-28.5 c 1,-5.9 4.799,-10.5008 5.8989,-11.8008 2.9001,-3.4 6.4014,-5.6001 10.9014,-5.6001 5.8,0 8.5986,3.801 8.5986,9.9009 0,1.1001 -0.099,3.0991 -0.4995,5.499 l -5.0991,30.501 h 7.7988 l 5.2002,-31.2012 c 0.4,-2.3 0.6006,-4.6988 0.6006,-6.6987 0,-9.4001 -5.4009,-14.9004 -14.001,-14.9004 -8.2999,0 -13.3987,5.2003 -17.1987,13.4004 h -0.3999 l 5.7993,-34.6011 z m 53.5005,0 -1.1001,6.7002 h 18.1992 l -11.1987,58.1997 c -0.2,0.8999 -0.3003,2.3007 -0.3003,3.2007 0,4.1 2.1,7.1001 7.5,7.1001 4,0 7.5999,-1.7 17.2998,-10.5 l 10.4004,-9.3999 -4.5,-4.4004 -20.5005,17.4009 -2.5005,-0.8013 13.0005,-67.5 z m -1255.40039,4.2012 -1.1001,6.5991 h 17.50049 l -9.499512,56.6001 H 80.200195 l -1.100093,6.6006 h 43.199708 l 1.10009,-6.6006 h -17.50048 l 9.50098,-56.6001 h 17.49902 l 1.1001,-6.5991 z m 551.20021,0 -2.29981,13.5 c -0.6,3.4999 -2.2001,4.6992 -5.60009,4.6992 h -10.5 l -1.1001,6.7002 h 14.90039 l -6,34.8003 c -0.2,1.1 -0.30029,2.9994 -0.30029,3.8994 0,4.8 2.70039,7.4004 7.40038,7.4004 4.1,0 8.09942,-2.0997 17.39942,-8.6997 l 11.29981,-8.001 -3.89942,-4.9995 -22.5,15 -2.00098,-1.1997 6.40137,-38.2002 h 21.29883 l 1.1001,-6.7002 h -21.3003 l 3.10108,-18.1992 z m 599.79928,0 -2.2998,13.5 c -0.6,3.4999 -2.2,4.6992 -5.6001,4.6992 h -10.5 l -1.1001,6.7002 h 14.9004 l -6,34.8003 c -0.2,1.1 -0.3003,2.9994 -0.3003,3.8994 0,4.8 2.7004,7.4004 7.4004,7.4004 4.1001,0 8.1009,-2.0997 17.4009,-8.6997 l 11.2998,-8.001 -3.9009,-4.9995 -22.5,15 -1.9995,-1.1997 6.3999,-38.2002 h 21.3003 l 1.1001,-6.7002 h -21.3003 l 3.0996,-18.1992 z m -956.8989,16.9995 c -18.2,0 -24.39991,20.2005 -24.39991,34.0005 0,13.2 5.7001,19.9995 16.1001,19.9995 9.1,0 14.29884,-5.3004 18.29883,-13.4004 h 0.3003 l -1.99952,12.2007 h 7.80029 l 8.6001,-51.6006 h -7.80029 l -1.5,9 h -0.30029 c -2.2,-6.7 -7.49961,-10.1997 -15.09961,-10.1997 z m 67.8999,0 c -8.3,0 -13.4002,5.2003 -17.20019,13.4004 h -0.39991 l 1.99952,-12.2007 h -7.8003 l -8.6001,51.6006 h 7.8003 l 4.80029,-28.5 c 1,-5.9 4.80039,-10.5008 5.90039,-11.8008 2.9,-3.4 6.3999,-5.6001 10.8999,-5.6001 5.80001,0 8.6001,3.801 8.6001,9.9009 0,1.1001 -0.10097,3.0991 -0.50098,5.499 l -5.09912,30.501 h 7.80029 l 5.2002,-31.2012 c 0.4,-2.3 0.59913,-4.6988 0.59913,-6.6987 0,-9.4001 -5.39952,-14.9004 -13.99952,-14.9004 z m 177.79981,0 c -16.6,0 -28.40039,13.1999 -28.40039,31.8999 0,14.8 7.40088,22.1001 20.40088,22.1001 10.9,0 17.89971,-5.1997 23.69971,-14.6997 l -5.50049,-3.3999 c -5.8,8.2 -10.10049,11.3994 -17.50049,11.3994 -10.8,0 -12.89942,-6.6999 -12.89942,-13.8999 0,-0.2 -3.9e-4,-1.2998 0.0996,-2.2998 32.89999,-0.9 37.60107,-9.9002 37.60107,-17.2002 0,-9 -7.40049,-13.8999 -17.50049,-13.8999 z m 174.00001,0 c -18.2,0 -24.39991,20.2005 -24.39991,34.0005 0,13.2 5.7001,19.9995 16.1001,19.9995 9.1,0 14.3003,-5.3004 18.30029,-13.4004 h 0.29883 l -1.99951,12.2007 h 7.80029 l 8.6001,-51.6006 h -7.80029 l -1.5,9 h -0.30029 c -2.2,-6.7 -7.49961,-10.1997 -15.09961,-10.1997 z m 64.0005,0 c -12.20002,0 -22.10012,5.5003 -22.10012,16.4004 0,9.6 7.79882,12.0997 15.29882,13.1997 l 7.5,1.1001 c 4.2,0.6 7.5,1.9998 7.5,6.7998 0,6.2 -5.59972,9.8994 -14.6997,9.8994 -7.8,0 -12.8999,-2.6992 -16.89989,-7.6992 l -5.79932,4.5996 c 4.5,6.2 11.99904,9.7002 21.99901,9.7002 13.8,0 23.1006,-6.5998 23.1006,-17.2998 0,-10.2 -8.4996,-11.8009 -15.0996,-12.9009 l -7.3008,-1.1997 c -4.2,-0.7 -7.9995,-1.7998 -7.9995,-6.7998 0,-5.6 4.69958,-9.1992 13.5996,-9.1992 8.7,0 12.8997,3.3996 14.6997,6.0996 l 5.5005,-4.8003 c -3.9,-4.9 -10.2993,-7.8999 -19.2993,-7.8999 z m 120,0 c -12.20002,0 -22.1001,5.5003 -22.1001,16.4004 0,9.6 7.7988,12.0997 15.2988,13.1997 l 7.5,1.1001 c 4.2,0.6 7.5,1.9998 7.5,6.7998 0,6.2 -5.59972,9.8994 -14.6997,9.8994 -7.8,0 -12.89992,-2.6992 -16.8999,-7.6992 l -5.7993,4.5996 c 4.5,6.2 11.99903,9.7002 21.999,9.7002 13.8,0 23.1006,-6.5998 23.1006,-17.2998 0,-10.2 -8.4996,-11.8009 -15.0996,-12.9009 l -7.3008,-1.1997 c -4.2,-0.7 -7.9995,-1.7998 -7.9995,-6.7998 0,-5.6 4.69958,-9.1992 13.5996,-9.1992 8.7,0 12.8997,3.3996 14.6997,6.0996 l 5.5005,-4.8003 c -3.9,-4.9 -10.2993,-7.8999 -19.2993,-7.8999 z m 119.79928,0 c -12.2,0 -22.10007,5.5003 -22.10007,16.4004 0,9.6 7.80022,12.0997 15.30027,13.1997 l 7.5,1.1001 c 4.2,0.6 7.5,1.9998 7.5,6.7998 0,6.2 -5.5997,9.8994 -14.6997,9.8994 -7.80005,0 -12.8999,-2.6992 -16.89987,-7.6992 l -5.8008,4.5996 c 4.5,6.2 12.00045,9.7002 22.00047,9.7002 13.8,0 23.0991,-6.5998 23.0991,-17.2998 0,-10.2 -8.4996,-11.8009 -15.0996,-12.9009 l -7.2993,-1.1997 c -4.20005,-0.7 -8.00097,-1.7998 -8.00097,-6.7998 0,-5.6 4.70107,-9.1992 13.60107,-9.1992 8.7,0 12.8997,3.3996 14.6997,6.0996 l 5.5005,-4.8003 c -3.9,-4.9 -10.3008,-7.8999 -19.3008,-7.8999 z m 53.2998,0 c -5.7,0 -8.8002,4.1003 -11.2002,9.3003 h -0.3999 l 1.3008,-8.1006 h -7.1997 l -8.6001,51.6006 h 7.1997 l 5.6001,-33.3999 c 0.5001,-3 1.6992,-6.3 3.5991,-9 1.6,-2.3 3.9003,-4.0005 6.7002,-4.0005 2.8,0 4.1997,1.7004 4.1997,5.9004 0,1.6 -0.1991,3.4989 -0.5991,5.8989 l -5.8008,34.6011 h 7.2012 l 5.5986,-33.3999 c 0.5001,-3 1.7007,-6.4001 3.6006,-9 1.7001,-2.3 3.6996,-4.0005 6.4995,-4.0005 3,0 4.4004,1.9001 4.4004,5.6001 0,1.4 -0.3002,3.7992 -0.7002,6.1992 l -5.7993,34.6011 h 7.1997 l 6,-35.9004 c 0.4,-2.4 0.7002,-5.1005 0.7002,-7.0005 0,-6.3 -3.1008,-9.8994 -8.8008,-9.8994 -6,0 -9.8994,3.8998 -12.4995,9.7998 h -0.3003 c 0.4,-5.6 -2.0999,-9.7998 -7.8999,-9.7998 z m 66.0996,0 c -15.0999,0 -27,12.5002 -27,32.2002 0,12.8999 6.9006,21.7998 20.1006,21.7998 15.2001,0 27.0996,-12.5002 27.0996,-32.2002 0,-12.9 -6.8001,-21.7998 -20.2002,-21.7998 z m 60,0 c -15.0999,0 -27,12.5002 -27,32.2002 0,12.8999 6.9006,21.7998 20.1006,21.7998 15.2001,0 27.0996,-12.5002 27.0996,-32.2002 0,-12.9 -6.8001,-21.7998 -20.2002,-21.7998 z m 220.4004,1.1997 -4.9995,30 c -0.3999,2.7 -0.6006,4.5999 -0.6006,6.3999 0,9.4 5.5006,14.9004 14.1006,14.9004 8.3001,0 13.4998,-5.2004 17.2998,-13.4004 h 0.3003 l -2.001,12.2007 c -1.8,11.2 -7.3998,15.7998 -16.8999,15.7998 -6.3,0 -10.4997,-2.0009 -13.1997,-5.4009 l -5.3994,5.2002 c 3.7,4.6 9.7996,7.1001 18.0996,7.1001 12.9,0 22.2995,-5.9992 24.8994,-21.1992 l 8.6001,-51.6006 h -7.7988 l -4.5,27 c -1,5.9 -4.8003,10.5007 -5.9004,11.8008 -2.9,3.4 -6.3999,5.6001 -10.8999,5.6001 -5.7999,0 -8.6997,-3.8009 -8.6997,-9.9009 0,-1.1 0.1,-2.9002 0.4995,-5.2002 L 1416,1131.3999 Z m -878.29979,5.2998 c 7.5,0 10.19971,3.5007 10.19971,7.7007 0,5 -3.79951,10.699 -28.99951,11.499 l 0.0996,-0.999 c 1.5,-11.7 8.3002,-18.2007 18.70019,-18.2007 z M 1127.5005,1137 c 7.7001,0 12.5991,4.0001 12.5991,12.7002 0,1.2 -0.1,2.6992 -0.4995,5.0991 l -1.0005,6 c -1.7,10.2 -7.5998,16.6011 -17.2998,16.6011 -7.7,0 -12.5991,-4.0002 -12.5991,-12.7002 0,-1.2 0.1,-2.7006 0.4995,-5.1006 l 1.0005,-6 c 1.7,-10.2 7.5999,-16.5996 17.2998,-16.5996 z m 60,0 c 7.7001,0 12.5991,4.0001 12.5991,12.7002 0,1.2 -0.1,2.6992 -0.4995,5.0991 l -1.0005,6 c -1.7,10.2 -7.5998,16.6011 -17.2998,16.6011 -7.7,0 -12.5991,-4.0002 -12.5991,-12.7002 0,-1.2 0.1,-2.7006 0.4995,-5.1006 l 1.0005,-6 c 1.7,-10.2 7.5999,-16.5996 17.2998,-16.5996 z m -900.3003,0.1 c 7.7,0 12.99932,4.0998 11.79932,11.2998 l -1.8999,11.4009 c -0.8,4.8 -3.09971,8.8993 -5.69971,11.7993 -3.6,4 -7.79961,5.7012 -12.09961,5.7012 -7.2,0 -10.8999,-4.6003 -10.8999,-12.3003 0,-1.3 0.0999,-2.7 0.3999,-4.5 l 1.19971,-7.1997 c 1.59999,-9.6 7.30019,-16.2012 17.20019,-16.2012 z m 120,0 c 7.70001,0 12.99933,4.0998 11.79933,11.2998 l -1.89991,11.4009 c -0.8,4.8 -3.09971,8.8993 -5.69971,11.7993 -3.6,4 -7.79961,5.7012 -12.09961,5.7012 -7.2,0 -10.8999,-4.6003 -10.8999,-12.3003 0,-1.3 0.0999,-2.7 0.3999,-4.5 l 1.19971,-7.1997 c 1.6,-9.6 7.30019,-16.2012 17.20019,-16.2012 z m 299.69972,0 c 7.7,0 13.00078,4.0998 11.80078,11.2998 l -1.90137,11.4009 c -0.79999,4.8 -3.0997,8.8993 -5.6997,11.7993 -3.6,4 -7.79961,5.7012 -12.09961,5.7012 -7.2,0 -10.8999,-4.6003 -10.8999,-12.3003 0,-1.3 0.0999,-2.7 0.3999,-4.5 l 1.19971,-7.1997 c 1.59999,-9.6 7.30019,-16.2012 17.20019,-16.2012 z m 774.89938,33.2007 c -5.1,0 -7.4991,2.3004 -8.0991,5.9004 -0.2,1.2 -0.3999,2.3992 -0.3999,3.1992 0,2.5 1.7995,4.5 6.4995,4.5 5.1,0 7.5006,-2.3004 8.1006,-5.9004 0.2001,-1.2 0.3999,-2.3992 0.3999,-3.1992 0,-2.5 -1.8009,-4.5 -6.501,-4.5 z m -520.23192,292.7066 c -0.13718,0 -0.27675,0.018 -0.41595,0.048 -1.113,0.242 -1.82408,1.3395 -1.58205,2.4565 0,0 10.52475,48.5828 18.00877,77.7158 1.137,4.4181 2.18783,9.5529 3.27683,14.483 -2.382,-2.3951 -4.98,-4.4561 -7.812,-5.5621 -3.91395,-1.5269 -8.37465,-1.3392 -11.78468,1.5938 -3.40995,2.938 -5.6454,8.1528 -6.5244,16.1558 -1.71097,15.54 -2.31555,31.4455 -1.64355,45.1245 0.67598,13.68 2.5182,25.064 6.22118,31.998 1.76602,3.308 3.74805,6.0739 6.04102,8.023 2.29305,1.949 5.04983,3.0975 7.9248,2.6865 2.871,-0.41 5.55023,-2.2773 7.99223,-5.4024 2.43697,-3.125 4.73422,-7.5774 6.9492,-13.6713 3.11302,-8.554 4.08982,-19.2147 3.8628,-30.6168 5.418,25.0391 11.81982,53.1021 11.81982,53.1021 0.258,1.113 1.3641,1.8078 2.4771,1.5498 0.531,-0.121 0.9971,-0.4491 1.2861,-0.9141 0.293,-0.465 0.3861,-1.0236 0.2651,-1.5585 0,0 -16.07132,-70.2395 -18.65327,-86.7114 -0.37103,-2.3751 -1.1208,-4.7267 -2.13578,-6.9727 -1.70302,-8.625 -3.65197,-16.9094 -5.562,-24.3355 -7.44097,-28.965 -17.96925,-77.562 -17.96925,-77.562 -0.21172,-0.9748 -1.08165,-1.6418 -2.04202,-1.6303 z m 385.27592,81.0483 c -16.4814,-0.2552 -35.0516,5.7601 -50.9839,12.5274 -21.242,9.0229 -37.8325,19.6479 -37.8325,19.6479 -0.961,0.614 -1.2425,1.891 -0.6255,2.8521 0.614,0.9609 1.8911,1.2369 2.8521,0.624 0,0 16.3412,-10.4573 37.2201,-19.3242 3.2111,-1.3671 6.5352,-2.6757 9.9141,-3.9097 -0.125,0.211 -0.2115,0.445 -0.2505,0.687 l -10.645,123.2461 c -0.7619,0.2349 -1.5308,0.4647 -2.2339,0.6987 -7.9999,2.688 -12.1069,5.5591 -12.1069,5.5591 -2.015,1.426 -0.2804,4.5429 1.9966,3.5859 0,0 4.9028,-2.0651 11.8637,-4.2451 l -4.0898,47.3584 c -0.098,1.133 0.7424,2.1334 1.8794,2.2354 1.137,0.097 2.1369,-0.7464 2.2339,-1.8794 l 4.2305,-48.9844 c 1.398,-0.394 2.8392,-0.7811 4.3242,-1.1441 11.203,-2.754 24.2928,-4.0398 31.3008,0.038 3.285,1.914 7.8125,7.6444 12.1875,15.1054 4.371,7.461 8.7579,16.6296 12.6489,25.5206 7.777,17.773 13.5659,34.4062 13.5659,34.4062 0.375,1.078 1.551,1.644 2.625,1.2729 0.52,-0.18 0.9446,-0.5583 1.1836,-1.0503 0.238,-0.4959 0.2694,-1.0626 0.089,-1.5776 0,0 -5.8238,-16.755 -13.6788,-34.708 -3.93,-8.977 -8.3646,-18.2577 -12.8715,-25.9497 -4.5081,-7.695 -8.9178,-13.8204 -13.6758,-16.5894 -0.199,-0.1209 -0.4346,-0.1788 -0.6416,-0.2958 15.051,-1.8441 31.2851,-10.0483 44.6411,-20.6544 15.39,-12.2259 27.1134,-27.5617 27.8555,-41.2177 1.3909,-25.696 -9.7073,-58.2302 -47.3672,-71.2852 -4.8546,-1.6825 -10.1156,-2.4652 -15.6094,-2.5503 z m -0.1934,4.2099 c 5.1926,0.039 10.0772,0.7265 14.4522,2.2428 35.906,12.4449 45.9138,42.8041 44.5928,67.1601 -0.152,2.84 -0.9448,5.9105 -2.2808,9.1054 -4.004,9.579 -12.883,20.2537 -24.019,29.0977 -14.8481,11.793 -33.551,20.379 -48.813,20.168 -12.371,-0.168 -22.2778,1.2965 -29.8448,3.1875 l 10.5132,-121.711 c 0.047,-0.8559 -0.4392,-1.6481 -1.2202,-1.9951 12.2788,-4.2866 25.1961,-7.3414 36.6196,-7.2554 z m -419.24413,3.7222 c -5.78325,-0.1785 -11.71807,3.1901 -14.7612,9.2622 -3.051,6.09 -5.68402,15.5513 -7.64505,23.6133 -0.26602,1.09 -0.1986,0.9608 -0.43357,1.9849 -1.47203,-16.746 -3.65123,-29.3634 -3.67823,-29.5034 l -0.0165,-0.129 c -0.49597,-2.598 -4.36747,-2.0166 -4.08247,0.6123 l 4.1982,35.6178 c 0.41797,6.1059 0.73605,12.5586 0.74707,19.1367 0.0593,28.7769 12.25785,58.4179 12.25778,58.4179 0.43005,1.055 1.6374,1.5614 2.69242,1.1324 1.05398,-0.4341 1.5579,-1.6359 1.12793,-2.6939 0,0 -11.89523,-29.2578 -11.9502,-56.8638 -0.015,-4.023 -0.28103,-7.7935 -0.45705,-11.6836 0.18405,-0.168 0.33675,-0.3639 0.4497,-0.5859 0,0 1.2228,-6.516 3.15675,-14.4609 1.93305,-7.9461 4.62922,-17.3598 7.3242,-22.7418 2.508,-5.004 7.46895,-7.4192 11.75392,-6.9272 4.28505,0.488 8.11658,3.5273 8.76855,11.0903 1.39501,16.152 0.30983,58.9254 -0.30322,68.9415 -0.348,5.6409 1.33178,12.2196 3.03075,17.5165 1.70303,5.3 3.49223,9.3032 3.49223,9.3032 0.465,1.0431 1.68855,1.5081 2.72752,1.0431 0.50003,-0.222 0.8895,-0.6321 1.08548,-1.1441 v -0.01 c 0.19897,-0.512 0.1824,-1.0776 -0.0397,-1.5776 0,0 -1.7031,-3.8132 -3.33113,-8.8872 -1.629,-5.074 -3.1257,-11.421 -2.84467,-15.999 0.636,-10.422 1.75837,-52.6143 0.29737,-69.5523 -0.77805,-8.98 -6.2826,-14.1359 -12.4146,-14.8359 -0.38333,-0.043 -0.76725,-0.07 -1.15283,-0.082 z m -113.07862,1.0357 c -0.43665,0.01 -0.87,0.066 -1.29195,0.1684 -1.683,0.403 -3.17168,1.3863 -4.57763,2.6953 -2.81602,2.621 -5.41057,6.6723 -7.89555,11.6133 -2.796,5.566 -5.355,12.2807 -7.51905,19.2188 -0.492,-1.8441 -0.95752,-3.7625 -1.52047,-5.4185 -3.57,-10.539 -8.54505,-17.4837 -15.18608,-19.9087 -3.258,-1.192 -6.49612,-1.1846 -9.32812,0.026 -2.832,1.207 -5.18033,3.5086 -7.1103,6.5596 -3.85905,6.097 -6.24248,15.3239 -7.37843,26.9208 -2.28202,23.3321 -1.10595,96.6402 -1.10595,96.6402 0.0202,1.141 0.95813,2.0521 2.0991,2.0361 1.14,-0.019 2.0493,-0.9576 2.03025,-2.0976 0,0 -1.09815,-73.8318 1.0899,-96.1758 1.09695,-11.239 3.51278,-19.9926 6.75878,-25.1177 1.62097,-2.563 3.39682,-4.1837 5.2368,-4.9687 1.84402,-0.789 3.81997,-0.8514 6.29295,0.055 4.82002,1.761 9.32002,7.413 12.687,17.354 1.2,3.543 2.19607,7.7809 3.08205,12.3398 -0.67898,2.66 -1.3197,5.3205 -1.8237,7.8985 -2.46503,12.567 0.0781,34.0591 3.0981,52.7461 3.01905,18.6879 6.6255,34.3989 6.6255,34.3989 0.58597,2.527 4.34805,1.8792 4.062,-0.6987 0,0 -3.3675,-29.5126 -4.6875,-65.1417 -0.414,-11.1879 -1.49115,-20.7886 -3.05415,-29.1166 2.406,-9.1961 5.75272,-18.5553 9.34275,-25.6963 2.36302,-4.699 4.8636,-8.4364 7.01662,-10.4443 1.07798,-1.0001 2.03903,-1.5396 2.72603,-1.7037 0.68805,-0.164 1.09447,-0.1083 1.7505,0.3486 3.42997,2.3831 7.58955,9.9564 10.6245,20.7174 3.03502,10.758 5.19127,24.6618 5.82427,39.8217 1.27395,30.6171 3.03218,66.3941 3.03218,66.3941 0.054,1.137 1.02217,2.0164 2.15917,1.9614 0.738,-0.035 1.39883,-0.4657 1.7388,-1.1177 v -0.01 c 0.16403,-0.32 0.24165,-0.6799 0.22268,-1.0429 0,0 -1.75388,-35.7722 -3.02783,-66.3662 -0.64402,-15.445 -2.82457,-29.61 -5.9766,-40.771 -3.14902,-11.16 -7.0158,-19.3544 -12.2388,-22.9834 -1.13025,-0.7852 -2.46772,-1.1705 -3.77782,-1.1411 z m 206.64995,1.3915 c -0.7651,-0.034 -1.5425,0.028 -2.3247,0.1949 -3.129,0.668 -6.1647,2.7879 -9.2856,6.2959 -6.492,7.289 -6.8748,17.0714 -5.7847,24.8174 1.086,7.7419 3.7148,13.7548 3.7148,13.7548 0.453,1.0461 1.6728,1.522 2.7158,1.065 1.047,-0.453 1.5224,-1.6713 1.0694,-2.7144 0,0 -2.4106,-5.5506 -3.4146,-12.6797 -1,-7.132 -0.5267,-15.5359 4.7812,-21.5009 2.778,-3.117 5.1969,-4.6005 7.068,-4.9995 1.8709,-0.398 3.3462,0.055 5.0302,1.5117 3.371,2.91 6.6292,10.2545 8.8052,19.8955 0.96,4.273 2.0394,10.0774 3.1055,16.0854 -0.6251,-0.321 -1.3759,-0.3008 -1.9849,0.054 -10.75,11.36 -16.0584,18.5196 -18.3164,25.1206 -2.254,6.602 -1.2068,12.2862 0.1992,19.9073 0.813,4.3899 3.5427,7.2779 6.8247,8.5239 3.285,1.2459 6.9802,1.1369 10.4722,0.5859 6.989,-1.105 13.3945,-4.1572 13.3945,-4.1572 0.398,-0.192 0.7265,-0.4997 0.9375,-0.8906 0.211,-0.387 0.2891,-0.8312 0.227,-1.2642 0,0 -6.3444,-44.9651 -10.8324,-64.8721 -2.2581,-10.019 -5.3285,-17.9642 -10.1295,-22.1132 -1.8015,-1.5555 -3.9772,-2.5184 -6.2724,-2.6207 z m -52.54542,0.8541 c 0.97642,0.046 2.00842,0.2975 3.1113,0.728 4.293,1.676 8.91015,6.551 11.57812,12 4.75403,24.906 7.33178,52.437 1.21875,69.249 -0.26595,0.731 -0.53085,1.4344 -0.79687,2.1094 -1.86698,4.727 -3.75023,8.1531 -5.53125,10.4341 -2.03198,2.606 -3.83528,3.6415 -5.32028,3.8525 -1.48402,0.214 -2.96407,-0.2972 -4.6641,-1.7432 -1.69897,-1.4449 -3.46522,-3.8167 -5.0742,-6.8247 -3.051,-5.715 -5.0778,-16.8504 -5.7378,-30.2533 -0.66,-13.398 -0.0682,-29.1324 1.62015,-44.4684 0.81998,-7.4299 2.91113,-11.5789 5.11815,-13.4809 1.3794,-1.1862 2.8506,-1.6793 4.47803,-1.6025 z m 90.78662,1.9541 c -1.141,0.054 -2.0146,1.028 -1.9556,2.165 0,0 2.3234,46.901 4.9644,63.7529 1.343,8.586 4.6093,15.66 9.5274,19.062 2.457,1.699 5.5034,2.356 8.4404,1.418 2.9419,-0.937 5.641,-3.2693 8.1211,-6.9653 1.571,-2.34 2.4775,-5.5737 3.1025,-9.2417 3.094,24.039 6.6471,49.2664 10.393,67.1294 4.6371,22.121 13.1614,48.2031 12.8175,71.3481 -0.064,4.3617 -0.44,8.6092 -1.2042,12.709 h -13.5249 v 5.2002 h 12.3091 c -1.3627,4.8522 -3.3514,9.4629 -6.1274,13.7593 -6.02,9.316 -15.7377,17.2724 -31.0547,23.0654 -31.125,11.777 -66.9136,21.3591 -99.68262,26.2661 -32.76998,4.902 -62.57363,5.0471 -81.37066,-1.6289 -18.414,-6.535 -35.32815,-29.4502 -42.2622,-52.1602 -3.46897,-11.3559 -4.45282,-22.6062 -2.23387,-31.5321 2.21805,-8.9291 7.37737,-15.5183 16.8384,-18.4483 19.41397,-6.019 59.32477,-4.6802 93.98873,-1.6172 19.92202,1.762 37.96807,4.0158 49.89402,5.6367 -3.0039,1.89 -5.3118,4.6252 -6.6327,7.8472 -1.7541,4.293 -1.6255,9.153 0.3515,13.5 1.977,4.352 5.6443,7.8398 10.1953,9.6958 0.3732,0.1522 0.7488,0.2883 1.125,0.416 h -35.33787 v 5.2002 h 47.99997 v -5.2002 h -0.2886 c 4.5534,-1.5875 8.3628,-4.9346 10.2672,-9.6006 3.6519,-8.945 -1.0695,-19.3273 -10.5426,-23.1943 -0.5699,-0.203 -1.1512,-0.3798 -1.7373,-0.5288 -0.1179,-0.066 -0.2353,-0.1211 -0.3603,-0.1641 0,0 -0.3077,-0.046 -0.3237,-0.046 -1.551,-0.429 -3.1452,-0.667 -4.7432,-0.706 -9.856,-1.4331 -33.16702,-4.6403 -59.499,-6.9683 -34.824,-3.079 -74.52413,-4.7438 -95.57813,1.7842 -10.77802,3.34 -17.14597,11.4184 -19.626,21.3984 -1.37527,5.5305 -1.63162,11.6499 -0.97267,18.0264 h -44.29538 v 5.2002 h 45.0264 c 0.6093,3.4715 1.46108,6.9907 2.5356,10.5088 7.25003,23.73 24.36255,47.5773 44.83155,54.8423 20.08598,7.1329 50.24978,6.7792 83.36281,1.8222 33.11302,-4.957 69.12072,-14.6028 100.53072,-26.4858 15.9501,-6.035 26.52,-14.562 33.063,-24.687 1.6371,-2.531 3.0193,-5.1604 4.1763,-7.8604 1.1295,-2.644 2.04,-5.3626 2.7627,-8.1401 h 31.4106 v -5.2002 h -30.2871 c 0.7218,-4.1267 1.0807,-8.3576 1.1455,-12.6475 0.359,-24.191 -8.3447,-50.4998 -12.9067,-72.2578 -5.625,-26.851 -10.3899,-64.9872 -13.878,-95.4712 -0.1329,-2.063 -0.207,-4.1291 -0.375,-6.1611 -1.422,-17.316 -3.9742,-32.7652 -4.0092,-32.9722 l -0.019,-0.1289 c -0.437,-2.621 -4.3468,-2.107 -4.0899,0.542 0,0 2.2038,20.1484 4.3829,39.2344 0.4099,6.59 0.663,13.1686 0.4131,18.9536 -0.3281,7.649 -1.5737,13.961 -3.3897,16.664 -2.149,3.2001 -4.2308,4.7851 -5.9458,5.3321 -1.714,0.546 -3.1904,0.2581 -4.8384,-0.8819 -3.29,-2.274 -6.5674,-8.4392 -7.7974,-16.3022 -2.512,-16.047 -4.9174,-63.3238 -4.9174,-63.3238 -0.059,-1.1409 -1.0295,-2.016 -2.1695,-1.9569 z m -192.12453,0.4819 c -0.43215,-0.014 -0.86917,0.1053 -1.24215,0.3648 -13.21905,9.1489 -16.19145,19.2324 -15.62842,29.5254 0.558,10.293 4.08525,20.8852 3.46725,32.8432 -0.65603,12.714 1.39582,27.058 5.48587,38.042 2.04698,5.493 4.5858,10.1616 7.75778,13.3916 3.17497,3.227 7.27672,5.0029 11.57377,3.9829 4.11293,-0.972 7.03178,-3.738 8.65283,-7.437 1.617,-3.703 2.18775,-8.3043 2.36272,-13.7373 0.35205,-10.871 -0.98062,-25.1534 -0.5976,-41.5473 0.39398,-16.746 -1.87852,-28.2544 -5.7495,-36.7354 -3.867,-8.484 -9.33172,-13.8511 -14.86672,-18.2461 -0.3555,-0.283 -0.78368,-0.4321 -1.21583,-0.4468 z m 652.26853,4.5747 c -0.1371,0 -0.2773,0.01 -0.4174,0.032 -1.121,0.208 -1.8623,1.2828 -1.6553,2.4038 0,0 2.5937,14.18 5.1167,41.918 1.266,13.929 3.7144,37.6083 4.1484,61.7373 0.433,24.125 -1.2494,48.7316 -7.8164,64.0166 -6.531,15.199 -18.7971,21.3675 -32.5781,22.6875 -13.781,1.317 -28.9526,-2.5163 -40.0386,-7.6772 -5.277,-2.457 -8.5512,-6.0231 -10.3051,-10.3551 -1.7501,-4.3359 -1.954,-9.515 -0.649,-15.101 2.602,-11.171 11.2814,-23.8042 24.4615,-33.3472 6.387,-4.629 12.6555,-5.9499 18.6825,-5.439 6.0281,0.5081 11.8251,2.9311 16.8721,5.9971 10.089,6.1331 17.0039,14.6954 17.0039,14.6954 0.714,0.8899 2.0149,1.0314 2.9019,0.3164 0.89,-0.7151 1.0314,-2.0159 0.3164,-2.9019 0,0 -7.2456,-9.0552 -18.0776,-15.6372 -5.418,-3.289 -11.773,-5.9999 -18.668,-6.5859 -6.89,-0.582 -14.3116,1.0389 -21.4526,6.2109 -9.828,7.117 -17.3409,15.84 -21.9229,24.75 -0.273,-1.605 -0.6712,-3.1796 -1.1983,-4.7066 -5.8399,-16.7619 -36.9573,-22.9657 -50.0244,4.4913 -3.2889,6.9099 -3.3631,12.4179 -1.0781,16.4179 2.289,4 6.5357,6.1248 10.8867,7.3199 8.7071,2.391 18.6167,1.2509 18.6167,1.2509 1.1331,-0.121 1.9536,-1.1364 1.8326,-2.2734 -0.1211,-1.133 -1.1405,-1.9535 -2.2735,-1.8326 0,0 -9.4995,0.9541 -17.0815,-1.1279 -3.793,-1.039 -6.91,-2.7892 -8.395,-5.3833 -1.4801,-2.594 -1.7299,-6.3986 1.2231,-12.5976 11.891,-24.997 37.9961,-17.5323 42.3911,-4.9072 2.355,6.766 1.7493,14.8681 -2.0947,21.6181 -3.844,6.746 -10.8481,12.2105 -21.6841,13.8354 -1.129,0.168 -1.9053,1.2192 -1.7373,2.3482 0.168,1.125 1.2192,1.9014 2.3482,1.7344 10.89,-1.633 18.7138,-6.9966 23.3818,-13.8516 0.266,2.172 0.7898,4.2685 1.5938,6.2534 2.1369,5.289 6.2891,9.7123 12.3911,12.5523 11.6719,5.433 27.3638,9.46 42.1728,8.042 14.804,-1.418 28.8501,-8.5811 35.9751,-25.1631 7.09,-16.5 8.5859,-41.3685 8.1489,-65.7276 -0.434,-24.3549 -2.8981,-48.1636 -4.163,-62.0346 -2.5361,-27.867 -5.1681,-42.2856 -5.1681,-42.2856 -0.1811,-0.981 -1.0267,-1.6719 -1.9863,-1.6934 z m -652.40915,0.1392 c 4.81702,3.9729 9.20677,8.5419 12.46875,15.6899 3.53497,7.758 5.76187,18.6023 5.37892,34.9263 -0.39105,16.672 0.9297,31.1018 0.59468,41.5078 -0.168,5.203 -0.77798,9.3841 -2.01998,12.2241 -1.23802,2.836 -2.86282,4.3737 -5.81985,5.0727 -2.76997,0.6561 -5.15025,-0.2922 -7.67722,-2.8623 -2.53103,-2.5749 -4.917,-6.7894 -6.83498,-11.9384 -3.83197,-10.297 -5.853,-24.2812 -5.22802,-36.3911 0.66397,-12.867 -2.95665,-23.8119 -3.47168,-33.2769 -0.49597,-9.109 1.4574,-16.7681 12.60938,-24.9521 z m 170.11675,37.059 c 3.4219,19.761 6.532,41.5534 6.813,43.5264 -1.6601,0.723 -5.8171,2.4495 -10.875,3.2505 -3.098,0.488 -6.1718,0.4644 -8.3628,-0.3677 -2.192,-0.832 -3.6325,-2.188 -4.2305,-5.414 -1.406,-7.6181 -2.2506,-12.2583 -0.3486,-17.8213 1.875,-5.484 6.7068,-12.2449 17.0039,-23.1739 z m -244.48833,8.1739 c 0.56603,5.172 1.03133,10.6214 1.25828,16.6685 0.312,8.4069 0.74977,16.3718 1.21875,23.7978 -2.172,-14.914 -3.516,-30.2633 -2.47703,-40.4663 z m -624.38088,85.248 c -6.6,0 -8.90039,3.0005 -8.90039,7.0005 v 2.9004 c 0,3.9 2.30039,6.999 8.90039,6.999 6.6,0 8.89892,-3.099 8.89892,-6.999 v -2.9004 c 0,-4 -2.29892,-7.0005 -8.89892,-7.0005 z m -62.2002,4.1001 c -15.800005,0 -25.100095,7.8007 -25.100095,21.2007 0,10.2 5.299312,17.8995 17.799315,19.9995 l 7.30078,1.1997 c 6.8,1.1 9.39991,3.4013 9.39991,8.3013 0,6 -3.90098,9.2988 -11.00098,9.2988 -6.200005,0 -12.500103,-2.6002 -17.600103,-8.2002 l -8.699707,9.6006 c 5.300002,6.6 14.20029,10.8003 25.80029,10.8003 17.50001,0 26.69971,-9.6007 26.69971,-22.7007 0,-11 -6.4997,-17.5996 -17.69971,-19.5996 l -7.29931,-1.2993 c -6.800005,-1.2 -9.600587,-3.3006 -9.600587,-8.1006 0,-5.5 3.400095,-8.2998 10.100097,-8.2998 6.3,0 11.49922,2.4992 15.19922,6.5991 l 8.50049,-9.4995 c -4.9,-5.7 -13.09932,-9.3003 -23.79932,-9.3003 z m 288.09962,1.2012 v 12.0996 c 0,4.6 -1.69961,6.0996 -6.09961,6.0996 h -9.10107 v 11.5005 h 14.00097 v 25.1997 c 0,8.7 5.09981,14.9004 15.7998,14.9004 h 19.1001 V 1756.5 h -20.10058 v -28.5996 h 20.10058 v -11.5005 h -20.10058 v -18.1992 z m -152.69971,8.2998 c -4.90001,0 -7.89991,2.999 -7.89991,6.999 v 2.8008 c -2.7,-0.7 -5.80107,-1.1001 -9.10107,-1.1001 -13.5,0 -22.39893,6.3999 -22.39893,18.3999 0,7.6 3.6002,12.9994 9.7002,15.8994 v 0.6006 c -5.6,1.3 -9.30029,3.3994 -9.30029,8.3994 0,4.5 2.7997,6.8006 7.19971,8.1006 v 0.6006 c -6.20001,1.6 -9.89942,4.2986 -9.89942,10.0986 0,7.0001 5.39903,11.9004 24.99902,11.9004 19.6,0 28.59961,-5.099 28.59961,-15.999 0,-8.7 -5.69902,-14.9004 -20.49902,-14.9004 h -11.80078 c -4.1,0 -7.59961,-0.201 -7.59961,-3.501 0,-1.8 1.1001,-2.9998 2.6001,-3.7998 2.49999,0.7 5.39941,1.0005 8.39941,1.0005 13.6,0 22.60107,-6.4999 22.60107,-18.3999 0,-7.3 -3.30039,-12.4999 -8.90038,-15.3999 v -0.9009 h 12.3999 v -10.7988 z m 1461.0293,0.075 c -2.4848,0 -4.9336,0.199 -7.2935,0.523 -12.0349,1.656 -21.4329,6.4683 -22.2729,6.9023 -0.195,0.027 -0.4228,0.027 -0.5478,0.082 -0.429,0.18 -0.6242,0.367 -0.8072,0.539 -0.7459,0.695 -1.356,1.6061 -2.789,3.9961 -2.875,4.778 -8.5436,15.2056 -19.9966,38.2017 -0.993,1.992 -1.8435,3.9431 -2.5855,5.8491 -6.192,8.168 -13.0395,12.8742 -20.8916,15.3471 -0.6748,0.2125 -1.3588,0.4052 -2.0507,0.5845 h -31.6817 c -2.7333,-0.4255 -5.5502,-0.9196 -8.4668,-1.4795 -8.317,-1.594 -14.7382,-4.3049 -19.1602,-7.7109 -4.422,-3.402 -6.8703,-7.4219 -7.5234,-11.9839 -1.308,-9.129 4.8959,-21.1843 20.7159,-33.6533 15.77,-12.425 28.0505,-13.9612 35.3745,-11.5781 3.66,1.1919 6.1166,3.3482 7.3476,5.6572 1.234,2.308 1.3047,4.7102 0.1568,6.8672 -1.004,1.89 -4.4773,4.3037 -9.2622,6.2607 -4.7891,1.961 -10.7735,3.615 -16.5865,4.9189 -11.632,2.6141 -22.5703,3.8643 -22.5703,3.8643 -1.133,0.125 -1.944,1.1477 -1.815,2.2808 0.129,1.133 1.1508,1.9483 2.2838,1.8193 0,0 11.1088,-1.2615 23.0038,-3.9375 5.949,-1.336 12.1021,-3.019 17.2471,-5.124 5.1401,-2.102 9.3977,-4.4856 11.3467,-8.1416 1.805,-3.398 1.6369,-7.3865 -0.164,-10.7534 -1.7961,-3.363 -5.1635,-6.1602 -9.7105,-7.6362 -9.085,-2.958 -22.751,-0.7113 -39.208,12.2607 -16.418,12.938 -23.8771,26.0976 -22.2451,37.4766 0.813,5.691 3.9843,10.7462 9.0894,14.6762 4.5152,3.4744 10.5319,6.124 17.9325,7.8559 v 3.2608 h 20.1226 c 6.5992,0.6652 12.7488,0.754 18.5098,0 h 9.3676 v -2.1284 c 5.86,-1.9725 11.2254,-5.1616 16.1456,-9.8438 -1.113,5.7111 -1.0188,10.9304 0.1142,15.5904 2.062,8.477 7.5452,14.9789 14.7642,19.1279 14.442,8.289 35.7788,7.5864 53.0478,-3.4336 13.91,-8.875 22.9616,-18.9836 27.4966,-29.9326 0.297,-0.731 0.5818,-1.4652 0.8437,-2.2002 0.6011,-1.687 1.0969,-3.3904 1.4869,-5.1094 3.141,-13.773 -0.3538,-28.4293 -9.0499,-43.1323 -4.4959,-7.593 -10.6649,-12.0434 -17.2309,-14.2544 -4.1037,-1.3794 -8.3464,-1.913 -12.4878,-1.9087 z m -0.01,4.1294 c 3.781,0 7.5874,0.4852 11.1767,1.6934 5.742,1.9339 10.9712,5.6453 14.9912,12.4423 8.3361,14.086 11.4291,27.5979 8.5782,40.1089 -0.3561,1.563 -0.8051,3.1124 -1.3521,4.6524 -0.238,0.6749 -0.495,1.3472 -0.7719,2.0112 v 0.01 c -4.1452,10.0235 -12.4975,19.4586 -25.8999,28.0093 -16.0191,10.222 -35.9681,10.6835 -48.7691,3.3325 -6.399,-3.672 -11.0266,-9.1926 -12.8086,-16.5205 -1.461,-6 -1.0032,-13.3028 2.2588,-21.8848 2.836,-3.805 5.5112,-8.2241 8.0303,-13.3491 0.3639,-0.813 0.1634,-1.7692 -0.4966,-2.3701 8.039,-15.8991 12.603,-24.2856 14.896,-28.0986 1.246,-2.0741 1.8069,-2.7189 1.8779,-2.8199 0.023,0 0.044,-0.012 0.063,-0.016 0,0 9.7775,-5.1092 21.4995,-6.7222 2.1986,-0.3019 4.458,-0.4781 6.7266,-0.479 z m -1410.32524,4.4956 c -8.3,0 -12.90069,4.7996 -15.20069,10.5996 h -0.59912 v -9.3999 h -14.80078 v 51.6006 h 14.80078 v -33.9009 c 0,-5 4.49961,-7.5 9.09961,-7.5 5.8,0 8.69971,3.5005 8.69971,10.0005 v 31.4004 h 14.80078 v -33.3999 c 0,-12.5 -6.90029,-19.4004 -16.80029,-19.4004 z m 51.60058,0 c -11.49999,0 -19.00039,4.3001 -22.40039,10.1001 l 8.10227,7.1994 c 2.8,-3.8 6.40059,-6.4995 12.60059,-6.4995 6.8,0 9.3999,3.1988 9.3999,9.2988 v 2.6001 h -8.2998 c -15.10001,0 -23.2002,5.1009 -23.2002,15.9009 0,9.7 6.59961,15.3999 16.59961,15.3999 7.9,0 13.9002,-3.6007 15.7002,-10.3008 h 0.50097 c 0.6,5.8001 4.59922,9.1011 10.69922,9.1011 h 8.50049 v -10.7007 h -5.69971 v -22.5996 c 0,-13 -8.4,-19.5 -22.5,-19.5 z m 240.79981,0 c -15.49999,0 -25.10009,10.2992 -25.10009,27.1992 0,16.5 9.09941,26.8008 26.39941,26.8008 11.1,0 18.1001,-4.1996 22.1001,-9.0996 l -7.99951,-8.7012 c -3.2,3.8 -7.50107,6.3999 -13.60108,6.3999 -7.9,0 -12.19921,-4.4991 -12.19921,-11.0991 V 1745.8 h 35.2998 v -4.3989 c 0,-16.1 -9.49941,-26.2002 -24.89942,-26.2002 z m 59.89893,0 c -7.5,0 -10.5,3.7998 -10.5,8.2998 v 3.4995 c 0,4.5 3,8.2998 10.5,8.2998 7.5,0 10.5,-3.7998 10.5,-8.2998 V 1723.5 c 0,-4.5 -3,-8.2998 -10.5,-8.2998 z m 1026.77642,0.7793 c 0.027,0.282 0.1131,0.5509 0.2461,0.7969 -0.027,-0.101 -0.1946,-0.2597 -0.2066,-0.3267 -0.051,-0.246 -0.04,-0.4702 -0.04,-0.4702 z m -1526.77595,0.4204 v 11.5005 h 16.4004 V 1756.5 H 144.3999 v 11.5005 h 46.4004 V 1756.5 h -15.20069 v -40.1001 z m 296.39943,0 v 33.3999 c 0,12.5 6.90029,19.4004 16.80029,19.4004 8.3,0 12.90068,-4.7996 15.20069,-10.5996 h 0.59912 v 9.3999 h 14.80078 v -51.6006 H 473.39378 V 1750.3 c 0,5 -4.49961,7.5 -9.09961,7.5 -5.80001,0 -8.69971,-3.499 -8.69971,-9.999 v -31.4004 z m 61.30078,0 v 11.5005 h 11.90039 V 1756.5 h -11.89724 v 11.5005 h 43.69922 V 1756.5 h -16.99951 v -15.3003 c 0,-6.2 3.80058,-11.2002 11.10059,-11.2002 h 10.9995 v -13.5996 h -4.8999 c -10.2,0 -14.6,7.0001 -16.5,14.6001 h -0.70019 v -14.6001 z m 1169.82574,1.1426 c 0.097,0.078 0.203,0.1452 0.312,0.1992 v 0.01 c -0.078,-0.035 -0.16,-0.024 -0.23,-0.075 -0.067,-0.047 -0.028,-0.082 -0.082,-0.1289 z m -1447.52643,7.0576 c 5.9,0 8.6001,3.3003 8.6001,7.8003 v 2.3994 c 0,4.5 -2.7001,7.8003 -8.6001,7.8003 -5.8,0 -8.39941,-3.3003 -8.39941,-7.8003 v -2.3994 c 0,-4.5 2.59941,-7.8003 8.39941,-7.8003 z m 360.2007,1.1997 c 6.39999,0 10.29931,4.1999 10.29931,10.8999 v 0.7998 H 574.10012 V 1736.7 c 0,-6.6 4.09999,-10.8999 10.5,-10.8999 z m -241.09696,20.1003 h 7.8999 v 6.1992 c 0,4.8 -4.10029,7.4004 -9.30029,7.4004 -4.7,0 -7.69922,-1.9005 -7.69922,-5.5005 V 1752 c 0,-4 3.19961,-6.0996 9.09961,-6.0996 z m 300.89942,3.1992 c -7.5,0 -10.5,3.7998 -10.5,8.2998 v 3.501 c 0,4.5 3,8.2998 10.5,8.2998 7.5,0 10.5,-3.7998 10.5,-8.2998 v -3.501 c 0,-4.5 -3,-8.2998 -10.5,-8.2998 z M 213.89942,1770 h 17.70117 c 6,0 7.69922,1.5993 7.69922,4.2993 0,3.5 -3.00019,5.4009 -9.7002,5.4009 h -8.6997 c -6.5,0 -9,-2.3005 -9,-5.5005 0,-1.7 0.69951,-3.0997 1.99951,-4.1997 z m 526.30079,8.6001 v 5.2002 h 48.00001 v -5.2002 z m 120.00001,0 v 5.2002 h 48 v -5.2002 z m 59.6997,0 v 5.2002 h 48.00001 v -5.2002 z m 119.99998,0 v 5.2002 h 48 v -5.2002 z m 119.6997,0 v 5.2002 h 48 v -5.2002 z m 60,0 v 5.2002 h 48 v -5.2002 z m 60,0 v 5.2002 h 48 v -5.2002 z m 60,0 v 5.2002 h 48 v -5.2002 z m 59.6997,0 v 5.2002 h 48 v -5.2002 z m 60,0 v 5.2002 h 48 v -5.2002 z m 60,0 v 5.2002 h 48 v -5.2002 z"
       style="font-variant:normal;font-weight:bold;font-size:100px;font-family:'IBM Plex Mono';-inkscape-font-specification:IBMPlexMono-Bold;writing-mode:lr-tb;fill:#625970;fill-opacity:1;fill-rule:nonzero;stroke:none;stroke-width:0.999998"
       id="path4309" /></g></svg>
