<?xml version="1.0" encoding="UTF-8" standalone="no"?>
<svg
   xmlns:svg="http://www.w3.org/2000/svg"
   xmlns="http://www.w3.org/2000/svg"
   xmlns:sodipodi="http://sodipodi.sourceforge.net/DTD/sodipodi-0.dtd"
   xmlns:inkscape="http://www.inkscape.org/namespaces/inkscape"
   inkscape:version="1.1-dev (1:0.92.0+devel+202005110039+9ce7266)"
   sodipodi:docname="06.svg"
   version="1.1"
   id="svg1105"
   xml:space="preserve"
   width="2527.5789"
   height="2526.3159"
   viewBox="0 0 2527.5789 2526.3159"><sodipodi:namedview
     inkscape:current-layer="svg1105"
     inkscape:window-maximized="0"
     inkscape:window-y="30"
     inkscape:window-x="0"
     inkscape:cy="1263.158"
     inkscape:cx="1263.7894"
     inkscape:zoom="0.26956249"
     showgrid="false"
     id="namedview7"
     inkscape:window-height="480"
     inkscape:window-width="796"
     inkscape:pageshadow="2"
     inkscape:pageopacity="0"
     guidetolerance="10"
     gridtolerance="10"
     objecttolerance="10"
     borderopacity="1"
     bordercolor="#666666"
     pagecolor="#ffffff" /><defs
     id="defs1109" /><g
     style="fill:#625970;fill-opacity:1"
     id="g1111"
     transform="matrix(1.3333333,0,0,1.3333333,0,4.5824564e-5)"><g
       style="fill:#625970;fill-opacity:1"
       id="g1113"><path
         d="m 955.309,1745.402 c -42.235,-3.8 -88.43,-22.89 -123.836,-51.175 -10.18,-8.129 -30.942,-28.477 -36.246,-35.52 -3.899,-5.176 -4.239,-6.051 -3.813,-9.836 0.602,-5.34 3.789,-8.641 9.012,-9.344 3.445,-0.461 5.027,0.118 14.14,5.184 48.422,26.898 100.223,46.473 140.266,53 12.801,2.086 60.34,2.855 84.457,1.363 33.238,-2.051 74.254,-6.676 110.754,-12.484 11.453,-1.82 12.242,-1.836 15.465,-0.309 5.703,2.707 7.676,8.949 4.664,14.77 -1.727,3.344 -5.254,5.062 -24.652,12.015 -68.625,24.598 -140.461,36.813 -190.211,32.332 v 0 z m -40.922,-147.988 c -30.465,-2.062 -69.664,-9.285 -103.317,-19.027 -5.48,-1.586 -22.25,-6.899 -37.261,-11.805 -54.18,-17.703 -58.973,-17.367 -93.067,6.508 -17.238,12.074 -25.996,15.472 -33.82,13.129 -4.801,-1.438 -16.356,-12.215 -19.035,-17.758 -2.465,-5.086 -2.168,-9.992 0.902,-14.961 1.777,-2.875 4.508,-4.32 24.531,-12.996 28.426,-12.316 67.625,-28.789 86.063,-36.168 36.449,-14.59 55.691,-25.375 87.82,-49.219 15.477,-11.488 21.742,-15.152 25.922,-15.152 3.539,0 8.512,4.953 15.289,15.215 21.727,32.914 36.492,49.73 53.281,60.687 27.551,17.988 56.328,17.606 98.145,-1.297 24.32,-10.996 48.57,-26.519 92,-58.898 15.898,-11.852 31.902,-23.328 35.57,-25.508 6.18,-3.668 7.156,-3.953 13.324,-3.891 5.457,0.059 9.489,1.016 22.317,5.329 53.101,17.851 154.519,61.488 201.379,86.644 17.644,9.473 27.644,16 31.851,20.793 4.508,5.137 11.864,16.348 15.625,23.816 8.653,17.18 8.41,27.879 -0.715,31.364 -3.906,1.492 -5.515,1.429 -34.312,-1.375 -78.363,-7.629 -131.117,-11.914 -201.965,-16.406 -10.441,-0.665 -36.914,-1.215 -58.836,-1.227 -38.426,0 -40.5,0.07 -57.93,2.57 -9.945,1.426 -32.148,5.34 -49.347,8.703 -56.863,11.114 -79.645,13.289 -114.414,10.93 z M 650.133,1299.062 c -30.668,-6.671 -55.125,-44.968 -74.285,-116.324 -8.813,-32.808 -9.293,-64.043 -1.434,-92.926 13.543,-49.781 51.148,-96.187 109.5,-135.132 16.34,-10.907 32.77,-20.242 65,-36.93 32.305,-16.727 43.305,-22.953 54.445,-30.832 15.11,-10.68 28.481,-23.906 37.141,-36.73 10.402,-15.415 20.586,-40.543 22.836,-56.352 5.125,-36.012 -15.684,-66.688 -59.316,-87.441 -26.5,-12.606 -56.137,-19.321 -89.571,-20.297 -14.379,-0.422 -16.941,-1.149 -19.246,-5.457 -0.609,-1.141 -1.109,-3.782 -1.109,-5.864 0,-3.14 0.586,-4.328 3.437,-6.937 l 3.434,-3.149 h 12.594 c 52.964,0 108.918,19.598 140.339,49.161 14.774,13.898 24.286,29.437 28.938,47.277 2.004,7.687 2.445,11.578 2.473,21.703 0.031,14.043 -1.399,22.234 -6.559,37.48 -12.723,37.622 -33.449,64.446 -67.207,86.977 -12.559,8.379 -17.613,11.211 -53.613,29.984 -46.465,24.231 -64.407,35.34 -89,55.098 -28.68,23.035 -49.903,48.543 -63.313,76.09 -10.957,22.508 -14.969,39.422 -15.074,63.578 -0.074,17.203 0.691,23.313 5.184,41.375 13.843,55.637 33.472,93.133 53.722,102.606 5.188,2.429 6.934,2.789 11.965,2.464 7.41,-0.476 15.688,-4.261 25.274,-11.554 8.847,-6.735 12.664,-7.196 17.722,-2.137 2.735,2.734 3.227,3.895 3.227,7.594 0,3.871 -0.446,4.797 -3.922,8.172 -8.766,8.507 -22.856,16.195 -34.035,18.57 -7.512,1.598 -11.977,1.582 -19.547,-0.067 z m 515.754,-42.988 c -2.875,-2.57 -3.239,-3.426 -3.239,-7.691 0,-6.965 2.454,-9.071 13.875,-11.899 34.497,-8.539 57.539,-30.453 66.497,-63.23 1.878,-6.875 2.175,-10.145 2.117,-23.188 -0.059,-13.726 -0.317,-16 -2.668,-23.722 -8.543,-28.067 -28.395,-55.145 -61.059,-83.289 -16.965,-14.621 -28.863,-23.078 -67.719,-48.129 -26.214,-16.899 -48.066,-41.883 -63.933,-73.082 -41.278,-81.176 -34.496,-176.024 16.316,-228.211 30.047,-30.86 71.207,-41.856 118.598,-31.68 9.055,1.942 19.562,5.238 25.14,7.883 9.188,4.363 7.954,18.269 -1.785,20.094 -2.316,0.433 -5.972,-0.321 -13.371,-2.77 -17.261,-5.707 -24.277,-6.816 -42.922,-6.781 -18.468,0.055 -26.98,1.543 -40.066,7.109 -14.645,6.235 -30.547,19.457 -41.617,34.614 -5.617,7.683 -13.977,24.343 -17.387,34.64 -9.199,27.801 -10.633,63.656 -3.883,97.258 6.176,30.754 17.645,58.035 34.606,82.309 3.375,4.836 11.488,14.168 18.027,20.742 12.274,12.336 11.098,11.469 48.137,35.496 65.258,42.328 105.769,90.09 115.637,136.324 9.015,42.25 -9.622,88.379 -45.301,112.117 -13.524,9.004 -32.461,16.446 -44.364,17.446 -6.132,0.511 -6.531,0.414 -9.636,-2.36 z m -297.285,-67.07 c -12.325,-4.391 -20.672,-20.031 -20.786,-38.938 -0.113,-18.82 7.2,-34.3 18.793,-39.804 7.539,-3.574 18.172,-1.043 24.137,5.75 18.117,20.633 13.188,62.59 -8.508,72.41 -4.972,2.25 -8.527,2.402 -13.636,0.582 z m 163.972,-4.539 c -8.547,-5.785 -13.687,-18.883 -13.687,-34.871 0,-14.614 3.98,-25.934 11.504,-32.735 9.726,-8.785 20.972,-5.64 28.175,7.879 9.129,17.125 7.379,42.973 -3.761,55.629 -7.215,8.195 -14.262,9.496 -22.231,4.098 z M 231.273,639.039 c -25.113,-1.637 -48.812,-8.09 -72.625,-19.781 -39.316,-19.301 -69.046,-48.242 -85.421,-83.149 -8.02,-17.097 -10.789,-29.222 -11.493,-50.293 -0.597,-17.843 0.957,-30.519 5.883,-48.043 16.137,-57.398 63.551,-113.578 121.254,-143.675 27.172,-14.172 49.051,-20.223 96.492,-26.692 17.344,-2.367 54.684,-2.359 68.797,0 37.676,6.328 70.895,22.535 138.07,67.352 35.247,23.519 51.614,37.336 111.5,94.117 40.754,38.641 49.684,46.801 67.028,61.258 32.285,26.902 61.047,44.449 86.992,53.074 18.789,6.246 24.652,7.133 46.676,7.051 17.265,-0.063 20.808,-0.356 31.48,-2.598 29.574,-6.219 51.258,-17.836 72.008,-38.566 22.945,-22.926 39.195,-54.617 47.109,-91.879 2.137,-10.047 2.567,-14.457 2.571,-26.305 0.004,-13.48 -0.156,-14.711 -3.016,-23.25 -24.273,-72.472 -128.523,-138.543 -218.605,-138.543 -6.051,0 -10.586,-0.488 -12.688,-1.367 -9.195,-3.84 -9.387,-18.219 -0.305,-22.914 2.692,-1.391 5.301,-1.527 20.208,-1.043 31.488,1.016 60.621,7.492 92.332,20.527 60.273,24.778 112.066,69.032 135.324,115.629 15.015,30.086 16.793,54.656 6.769,93.664 -15.203,59.168 -50.062,104.446 -97.551,126.696 -34.699,16.261 -81.257,20.753 -117.667,11.351 -30.04,-7.758 -64.719,-26.734 -98.883,-54.109 -21.727,-17.406 -33.934,-28.406 -76.864,-69.242 -60.375,-57.434 -76.191,-70.657 -114.968,-96.118 -61.137,-40.144 -87.688,-53.179 -120.368,-59.101 -13.05,-2.363 -44.191,-2.387 -62.628,-0.059 -21.633,2.746 -47.68,7.852 -58.844,11.535 -12.293,4.055 -31.828,13.27 -43.168,20.36 -32.938,20.605 -62.977,52.73 -80.332,85.91 -21.836,41.742 -25.133,81.726 -9.465,114.801 19.574,41.328 63.875,73.984 115.418,85.086 13.457,2.898 46.043,3.183 59.164,0.519 25.766,-5.238 50.914,-17.601 70.18,-34.496 13.668,-11.988 14.679,-12.664 19.004,-12.66 9.777,0 16.074,10.223 11.617,18.848 -2.43,4.691 -21.301,20.539 -34.442,28.921 -31.566,20.137 -68.785,29.625 -106.543,27.165 z m 1491.165,-36.488 c -19.473,-2.969 -40.528,-8.688 -65.887,-17.891 -13.16,-4.777 -38.168,-15.297 -41.399,-17.41 -2.578,-1.691 -5.082,-6.824 -5.078,-10.406 0.01,-5.797 6.844,-12.656 12.617,-12.664 1.461,-0.004 10.356,3.199 19.77,7.113 47.25,19.656 80.164,27.891 107.101,26.801 28.075,-1.137 43.461,-12.453 52.133,-38.336 3.614,-10.781 6.133,-25.328 8.117,-46.824 3.2,-34.657 1.454,-48.215 -9.164,-71.157 -11.613,-25.093 -38.222,-54.004 -64.371,-69.937 -31.64,-19.278 -64.066,-29.207 -102.011,-31.235 -32.008,-1.71 -65.649,9.301 -107.661,35.243 -26.046,16.082 -46.996,31.496 -102.808,75.648 -72.781,57.578 -107.684,82.078 -147.313,103.406 -36.937,19.879 -75.32,33.637 -111.082,39.817 -16.757,2.898 -50.964,3.117 -65.382,0.422 -41.719,-7.801 -74.161,-31.86 -90.52,-67.129 -19.777,-42.645 -18.293,-97.36 3.941,-145.09 23.582,-50.629 71.649,-97.535 129.942,-126.805 14.914,-7.488 24.582,-11.094 37.094,-13.832 8.519,-1.863 12.39,-2.117 31.992,-2.101 23.883,0 34.41,1.242 56.933,6.632 22.282,5.329 56.805,17.262 61.047,21.102 5.684,5.144 5.836,13.797 0.332,18.844 -5.008,4.586 -8.34,4.824 -17.289,1.222 -32.652,-13.14 -67.148,-21.336 -94.379,-22.429 -23.265,-0.938 -38.093,1.629 -56.051,9.699 -43.222,19.426 -86.921,55.785 -111.687,92.922 -12.918,19.375 -23.273,43.746 -27.434,64.574 -2.472,12.379 -2.461,46.008 0.028,57.41 4.972,22.824 13.703,39.531 27.816,53.246 21.164,20.563 48.293,29.496 85.246,28.074 43.969,-1.691 95.192,-19.414 148.035,-51.21 34.43,-20.719 57.524,-37.532 127.157,-92.586 18.789,-14.856 41.422,-32.43 50.293,-39.059 57.414,-42.887 98.886,-64.375 138.543,-71.773 12.816,-2.391 41.816,-2.391 57.41,0 27.558,4.226 50.308,11.429 74.019,23.441 58.305,29.547 98.465,81.484 104.422,135.055 0.762,6.851 0.758,13.125 0,23.25 -3.598,47.07 -7.312,65.238 -17.394,85.031 -4.024,7.902 -6.27,10.93 -13.422,18.109 -7.246,7.274 -10,9.317 -17.606,13.059 -13.843,6.812 -21.129,8.375 -40.804,8.754 -10.93,0.207 -19.551,-0.133 -25.223,-1 z M 1575.297,500.555 c -8.297,-4.758 -14.582,-14.278 -18.527,-28.059 -2.84,-9.922 -3.067,-30.695 -0.446,-40.293 2.547,-9.297 7.66,-19.207 12.469,-24.152 16.531,-17.008 37.793,-6.528 46.18,22.761 1.789,6.254 2.16,9.848 2.16,20.844 0,14.719 -1.266,21.184 -6.184,31.735 -8.25,17.687 -22.652,24.621 -35.652,17.164 z M 270.18,452.039 c -10.047,-2.887 -20.512,-14.844 -25.239,-28.836 -3.312,-9.808 -4.164,-25.836 -1.933,-36.367 5.777,-27.25 27.172,-42.898 46.535,-34.031 10.254,4.691 19.086,16.933 23.051,31.949 2.199,8.336 2.148,25.758 -0.106,34.164 -3.722,13.891 -11.851,25.531 -21.492,30.777 -5.535,3.016 -14.84,4.063 -20.816,2.344 z"
         style="fill:#625970;fill-opacity:1;fill-rule:nonzero;stroke:none"
         id="path1115" /></g></g></svg>
