<?xml version="1.0" encoding="UTF-8" standalone="no"?>
<svg
   xmlns:svg="http://www.w3.org/2000/svg"
   xmlns="http://www.w3.org/2000/svg"
   xmlns:sodipodi="http://sodipodi.sourceforge.net/DTD/sodipodi-0.dtd"
   xmlns:inkscape="http://www.inkscape.org/namespaces/inkscape"
   inkscape:version="1.1-dev (1:0.92.0+devel+202005110039+9ce7266)"
   sodipodi:docname="07.svg"
   version="1.1"
   id="svg1174"
   xml:space="preserve"
   width="2527.5789"
   height="2526.3159"
   viewBox="0 0 2527.5789 2526.3159"><sodipodi:namedview
     inkscape:current-layer="svg1174"
     inkscape:window-maximized="0"
     inkscape:window-y="30"
     inkscape:window-x="0"
     inkscape:cy="1263.158"
     inkscape:cx="1263.7894"
     inkscape:zoom="0.26956249"
     showgrid="false"
     id="namedview893"
     inkscape:window-height="480"
     inkscape:window-width="796"
     inkscape:pageshadow="2"
     inkscape:pageopacity="0"
     guidetolerance="10"
     gridtolerance="10"
     objecttolerance="10"
     borderopacity="1"
     bordercolor="#666666"
     pagecolor="#ffffff" /><defs
     id="defs1178" /><g
     style="fill:#625970;fill-opacity:1"
     id="g1180"
     transform="matrix(1.3333333,0,0,1.3333333,0,4.5824564e-5)"><g
       style="fill:#625970;fill-opacity:1"
       id="g1182"><path
         d="m 1260.988,1826.594 c -2.168,-0.223 -8.281,-1.098 -13.59,-1.946 -30.343,-4.847 -49.5,-19.257 -53.941,-40.586 -4.34,-20.832 7.695,-50.171 29.602,-72.156 23.195,-23.277 81.836,-65.472 164.496,-118.359 18.582,-11.891 22.211,-14.59 22.461,-16.719 0.515,-4.32 4.324,-6.996 9.796,-6.871 4.418,0.102 5.993,-0.652 21.454,-10.25 9.175,-5.699 17.75,-10.629 19.054,-10.957 3.739,-0.938 7.344,0.898 9.45,4.809 3.011,5.593 0.941,8.875 -9.696,15.375 -4.672,2.855 -8.496,5.355 -8.496,5.55 0,0.196 3.176,1.321 7.055,2.5 15.648,4.754 27.711,12.868 31.484,21.176 5.27,11.598 -1.094,26.879 -13.969,33.535 -13.836,7.157 -39.046,10.157 -69.878,8.317 -16.665,-0.996 -44.211,-4.098 -47.321,-5.332 -2.609,-1.035 -68.148,44.215 -97.426,67.269 -26.976,21.235 -40.332,36.621 -47.5,54.719 -2.75,6.934 -3.168,9.187 -3.214,17.328 -0.079,8.473 0.199,9.789 2.636,13.934 3.512,5.972 7.586,9.324 16.024,13.187 19.816,9.071 52.562,10.821 89.14,4.758 36.184,-5.996 77.496,-23.145 107.36,-44.57 9.347,-6.707 13.605,-7.684 17.531,-4.024 5.629,5.242 3.66,10.68 -6.527,18.004 -34.766,25 -80.746,43.293 -124.274,49.43 -10.863,1.535 -43.492,2.719 -51.711,1.879 z m 188.621,-205.336 c 9.411,-1.438 18.25,-4.617 21.641,-7.785 3.668,-3.426 3.973,-7.637 0.766,-10.578 -5.352,-4.911 -20.969,-10.575 -36.2,-13.133 l -7.39,-1.242 -24.621,15.648 -24.621,15.644 5.394,0.782 c 17.649,2.554 50.453,2.89 65.027,0.664 v 0 z m -147.492,-123.125 c -37.359,-1.41 -69.207,-4.039 -95.301,-7.863 -49.242,-7.219 -84.652,-24.567 -115.754,-56.708 -15.46,-15.976 -25.078,-29.531 -34.124,-48.097 l -4.301,-8.824 -7.125,-1.688 c -9.074,-2.148 -15.039,-4.723 -22.207,-9.59 -10.7,-7.265 -21.297,-20.922 -24.797,-31.949 -0.934,-2.953 -0.93,-4.379 0,-6.695 1.199,-2.891 5.328,-5.805 8.226,-5.805 0.809,0 6.039,2.41 11.625,5.359 12.434,6.571 25.739,11.125 35.012,11.989 6.406,0.593 7.488,0.406 13.27,-2.301 9.332,-4.367 26.054,-14.649 84.476,-51.941 28.992,-18.508 58.488,-37.227 65.547,-41.598 40.008,-24.789 76.231,-44.258 91.524,-49.199 31.722,-10.246 70.609,9.359 110.117,55.527 9.699,11.332 16.269,17.305 33.691,30.629 23.906,18.281 29.149,24.406 27.66,32.34 -0.828,4.402 -5.437,8.707 -10.758,10.047 -9.996,2.519 -31.418,0.593 -63.988,-5.75 -11.207,-2.18 -21.277,-3.969 -22.375,-3.969 -1.695,0 -1.043,1.383 4.328,9.113 7.844,11.301 10.383,16.262 11.141,21.789 1.055,7.68 -3.066,15.008 -10.641,18.922 -8.414,4.352 -16.894,5.399 -55.488,6.844 -20.586,0.773 -52.496,2.082 -70.914,2.914 -77.391,3.496 -102.719,4.48 -144.086,5.605 -38.766,1.055 -43.555,1.356 -43.043,2.719 1.477,3.957 9.273,16.559 15.09,24.387 8.594,11.57 26.144,28.801 37.629,36.945 17.156,12.168 38,21.766 58.168,26.789 19.703,4.906 54.726,9.043 97.91,11.571 24.172,1.414 120.527,1.707 163.207,0.492 l 29.258,-0.828 2.508,2.507 c 3.343,3.344 3.425,8.672 0.183,11.914 -3.023,3.024 -5.441,3.262 -45.223,4.477 -36.167,1.102 -100.238,1.066 -130.472,-0.07 h 0.027 z M 646.172,1329.254 c -32.418,-8.734 -78.324,-46.832 -117.453,-97.481 -62.504,-80.906 -102.477,-180.781 -114.266,-285.511 -7.183,-63.836 -3.988,-160.035 7.445,-224.207 13.457,-75.539 37.379,-133.16 69.153,-166.575 5.25,-5.523 12.426,-12.222 15.945,-14.886 7.934,-6.012 22.047,-13.028 30.535,-15.188 9.188,-2.336 22.391,-2.058 31.028,0.653 28.523,8.953 76.355,43.343 143.941,103.496 40.238,35.816 84.82,78.48 87.766,84 2.554,4.785 2.226,13.957 -0.68,19.074 -3.656,6.437 -8.809,9.492 -16.774,9.941 -4.847,0.274 -7.472,-0.07 -9.808,-1.273 -1.754,-0.91 -13.676,-11.672 -26.496,-23.918 C 645.914,621.27 568.605,561.504 549.504,565.082 c -17.352,3.25 -37.176,23.895 -53.277,55.488 -23.059,45.239 -36.629,104.711 -42.59,186.684 -1.914,26.344 -1.61,100.414 0.504,121.644 9.414,94.559 38.187,176.286 88.558,251.516 16.906,25.246 32.578,44.418 52.891,64.688 15.328,15.296 26.113,24.386 39.312,33.132 11.024,7.305 17.664,10.207 25.614,11.207 7.875,0.989 11.675,2.309 14.648,5.094 l 2.195,2.059 8.348,-2.719 c 7.582,-2.465 8.441,-3.004 9.297,-5.816 4.18,-13.711 5.855,-64.582 6.121,-185.809 l 0.172,-79.289 -2.25,-5.879 c -3.016,-7.883 -10.285,-15.172 -18.231,-18.281 -4.754,-1.86 -8.234,-2.371 -18.191,-2.676 -16.973,-0.516 -26.699,1.977 -46.785,11.988 -18.352,9.153 -20.539,9.828 -31.516,9.766 -16.273,-0.098 -29.457,-6.473 -44.344,-21.441 -21.726,-21.844 -38.832,-56.434 -49.234,-99.551 -4.348,-18.032 -5.461,-26.832 -5.508,-43.555 -0.078,-28.355 6.035,-54.98 18.723,-81.535 17.711,-37.074 44.851,-65.863 73.906,-78.387 13.25,-5.711 18.778,-6.93 34.09,-7.512 11.973,-0.453 14.957,-0.242 22.07,1.559 27.371,6.918 47.813,28.16 59.457,61.773 4.207,12.157 7.555,27.208 7.555,33.973 0,4.422 -0.41,5.453 -3.348,8.391 -2.836,2.836 -4.043,3.347 -7.863,3.347 -3.555,0 -5.172,-0.586 -7.601,-2.753 -2.723,-2.438 -3.356,-4.075 -5.411,-14.036 -10.07,-48.824 -34.214,-73.16 -68.304,-68.847 -9.719,1.226 -16.68,3.297 -24.625,7.324 -36.067,18.285 -64.75,62.285 -73.528,112.789 -2.586,14.863 -2.199,36.02 0.93,51.266 12.793,62.289 42.43,109.941 70.797,113.828 5.805,0.797 11.48,-0.989 21.961,-6.91 23.09,-13.047 52.641,-18.532 74.832,-13.891 21.82,4.566 38.535,20.164 44.375,41.406 1.441,5.235 1.601,14.293 1.473,83.195 -0.149,83.067 -1.317,148.614 -2.993,168.426 -2.043,24.098 -5.293,35.93 -11.328,41.231 -3.742,3.285 -15.375,8.281 -23.355,10.035 -4.649,1.019 -6.153,1.902 -8.75,5.133 -4.508,5.605 -9.539,7.59 -19.121,7.539 -4.332,-0.024 -10.188,-0.664 -13.004,-1.422 z m 669.961,-376.52 c -14.813,-5.121 -27.024,-18.308 -32.067,-34.629 -4.543,-14.707 -5.296,-23.164 -5.285,-59.14 0.01,-18.688 0.559,-40.629 1.235,-48.754 3.414,-41.258 10.125,-100.324 12.109,-106.59 1.563,-4.922 6.078,-8.16 11.391,-8.16 3.754,0 4.984,0.527 7.804,3.348 3.953,3.953 4.153,6.312 1.91,22.336 -7.668,54.793 -11.949,112.289 -11.097,149.148 0.758,32.824 3.191,44.004 11.543,53.062 6.672,7.239 12.976,9.118 20.32,6.047 10.406,-4.347 21.223,-20.121 27.359,-39.902 3.325,-10.723 4.36,-12.664 7.649,-14.367 3.562,-1.844 9.695,-1.77 12.43,0.144 2.875,2.016 5.136,6.496 5.136,10.176 0,4.184 -6.039,22.086 -10.363,30.723 -7.016,14.019 -18.094,26.91 -28.051,32.652 -9.769,5.633 -22.531,7.192 -32.023,3.906 z M 567.082,937.086 c -4.875,-1.848 -7.25,-7.488 -5.301,-12.57 0.34,-0.875 4.879,-4.414 10.098,-7.868 29.379,-19.437 60.156,-53.511 82.351,-91.171 5.524,-9.372 7.086,-10.836 11.563,-10.836 2.734,0 4.496,0.683 6.23,2.418 3.993,3.992 3.27,7.707 -3.765,19.421 -24.074,40.082 -58.969,77.786 -89.848,97.082 -5.262,3.286 -8.941,4.43 -11.328,3.524 z M 1440.656,898 c -17.664,-6.316 -29.394,-36.078 -26.457,-67.129 1.77,-18.695 7.289,-32.617 16.594,-41.851 17.137,-17.016 37.434,-6.153 47.008,25.156 2.496,8.164 2.703,10.113 2.695,25.582 -0.012,14.058 -0.348,17.976 -2.125,24.426 -4.473,16.254 -12.703,28.355 -22.34,32.843 -5.515,2.567 -10.101,2.856 -15.375,0.973 z M 855.312,341.871 c -20.156,-2.547 -39.562,-9.789 -56.765,-21.18 -9.852,-6.527 -27.895,-24.636 -34.352,-34.48 -14.484,-22.082 -21.226,-44.879 -21.117,-71.41 0.125,-31.16 10.336,-58.664 30.621,-82.492 2.422,-2.844 4.012,-5.172 3.531,-5.172 -2.105,0 -37.085,9.281 -51.812,13.746 -73.648,22.324 -160.617,62.109 -222.441,101.758 -7.309,4.691 -11.313,5.379 -16.895,2.91 -8.012,-3.543 -11.152,-13.313 -6.652,-20.688 3.57,-5.855 37.437,-26.183 79.281,-47.586 145.211,-74.269 286.641,-106.183 405.367,-91.472 115.34,14.293 229.66,74.429 328.535,172.82 29.047,28.906 51.121,54.57 52.61,61.156 2.449,10.871 -8.035,20.477 -18.832,17.242 -3.168,-0.949 -5.59,-3.265 -13.786,-13.179 -31.402,-37.989 -71.007,-75.442 -112.957,-106.821 -76.304,-57.07 -156.23,-91.32 -237.429,-101.746 -8.383,-1.078 -15.383,-1.816 -15.555,-1.644 -0.176,0.176 2.77,2.933 6.543,6.133 21.383,18.136 36.813,45.601 41.727,74.277 2.019,11.773 2.05,31.656 0.078,43.035 -8.953,51.449 -48.715,92.375 -99.875,102.801 -11.254,2.293 -29.996,3.23 -39.817,1.992 z"
         style="fill:#625970;fill-opacity:1;fill-rule:nonzero;stroke:none"
         id="path1184" /></g></g></svg>
