<?xml version="1.0" encoding="UTF-8" standalone="no"?>
<svg
   xmlns:svg="http://www.w3.org/2000/svg"
   xmlns="http://www.w3.org/2000/svg"
   xmlns:sodipodi="http://sodipodi.sourceforge.net/DTD/sodipodi-0.dtd"
   xmlns:inkscape="http://www.inkscape.org/namespaces/inkscape"
   inkscape:version="1.1-dev (1:0.92.0+devel+202005110039+9ce7266)"
   sodipodi:docname="07a.svg"
   version="1.1"
   id="svg1444"
   xml:space="preserve"
   width="2527.5789"
   height="2526.3159"
   viewBox="0 0 2527.5789 2526.3159"><sodipodi:namedview
     inkscape:current-layer="svg1444"
     inkscape:window-maximized="0"
     inkscape:window-y="83"
     inkscape:window-x="98"
     inkscape:cy="1263.158"
     inkscape:cx="1263.7894"
     inkscape:zoom="0.26956249"
     showgrid="false"
     id="namedview956"
     inkscape:window-height="480"
     inkscape:window-width="796"
     inkscape:pageshadow="2"
     inkscape:pageopacity="0"
     guidetolerance="10"
     gridtolerance="10"
     objecttolerance="10"
     borderopacity="1"
     bordercolor="#666666"
     pagecolor="#ffffff" /><defs
     id="defs1448" /><g
     style="fill:#625970;fill-opacity:1"
     id="g1450"
     transform="matrix(1.3333333,0,0,1.3333333,0,4.5824564e-5)"><path
       id="path3045"
       style="font-variant:normal;font-weight:normal;font-size:100px;font-family:'IBM Plex Mono';-inkscape-font-specification:IBMPlexMono;writing-mode:lr-tb;fill:#625970;fill-opacity:1;fill-rule:nonzero;stroke:none;stroke-width:1.33333"
       d="M 108.13281 97.599609 L 108.13281 190.66602 L 125.19922 190.66602 L 125.19922 128.80078 L 126.66602 128.80078 L 147.86719 190.66602 L 171.86719 190.66602 L 171.86719 97.599609 L 154.80078 97.599609 L 154.80078 159.4668 L 153.33398 159.4668 L 132.13281 97.599609 L 108.13281 97.599609 z M 592.40039 97.599609 L 592.40039 190.66602 L 618.40039 190.66602 C 641.06706 190.66602 652.26758 174.66615 652.26758 144.13281 C 652.26758 113.59948 641.06706 97.599609 618.40039 97.599609 L 592.40039 97.599609 z M 768.26758 97.599609 L 768.26758 115.59961 C 768.26758 120.26628 766.53333 121.86719 762 121.86719 L 744.93359 121.86719 L 744.93359 130.93359 L 767.86719 130.93359 L 767.86719 174.93359 C 767.86719 184.13359 772.66641 190.66602 783.06641 190.66602 L 809.86719 190.66602 L 809.86719 181.59961 L 778.5332 181.59961 L 778.5332 130.93359 L 809.86719 130.93359 L 809.86719 121.86719 L 778.5332 121.86719 L 778.5332 97.599609 L 768.26758 97.599609 z M 603.59961 107.33398 L 617.86719 107.33398 C 632.66719 107.33398 640.40039 118.26693 640.40039 136.93359 L 640.40039 151.33398 C 640.40039 170.00065 632.66719 180.93359 617.86719 180.93359 L 603.59961 180.93359 L 603.59961 107.33398 z M 218.66602 120.26758 C 203.33268 120.26758 193.33411 126.00104 188.80078 133.73438 L 199.59961 143.33398 C 203.33294 138.26732 208.13372 134.66602 216.40039 134.66602 C 225.46706 134.66602 228.93359 138.93307 228.93359 147.06641 L 228.93359 150.5332 L 217.86719 150.5332 C 197.73385 150.5332 186.93359 157.33438 186.93359 171.73438 C 186.93359 184.66771 195.73307 192.26758 209.06641 192.26758 C 219.59974 192.26758 227.6 187.46654 230 178.5332 L 230.66602 178.5332 C 231.46602 186.26654 236.80026 190.66602 244.93359 190.66602 L 256.26758 190.66602 L 256.26758 176.40039 L 248.66602 176.40039 L 248.66602 146.26758 C 248.66602 128.93425 237.46602 120.26758 218.66602 120.26758 z M 293.86719 120.26758 C 286.53385 120.26758 282.93411 125.6 280.80078 132 L 279.86719 132 L 279.86719 121.86719 L 264 121.86719 L 264 190.66602 L 279.86719 190.66602 L 279.86719 141.59961 C 279.86719 136.93294 282.66758 134.80078 286.26758 134.80078 C 289.73424 134.80078 292 137.0668 292 143.4668 L 292 190.66602 L 308 190.66602 L 308 141.59961 C 308 136.93294 310.79948 134.80078 314.13281 134.80078 C 317.73281 134.80078 320.13281 137.0668 320.13281 143.4668 L 320.13281 190.66602 L 336 190.66602 L 336 141.4668 C 336 127.33346 331.19961 120.26758 321.59961 120.26758 C 313.06628 120.26758 309.20026 125.73333 306.93359 132 L 306.13281 132 C 304.66615 124.4 300.40052 120.26758 293.86719 120.26758 z M 380.13281 120.26758 C 359.46615 120.26758 346.66602 133.99987 346.66602 156.5332 C 346.66602 178.5332 358.80052 192.26758 381.86719 192.26758 C 396.66719 192.26758 406.00065 186.66615 411.33398 180.13281 L 400.66602 168.5332 C 396.39935 173.59987 390.66654 177.06641 382.5332 177.06641 C 371.99987 177.06641 366.26758 171.06758 366.26758 162.26758 L 366.26758 161.06641 L 413.33398 161.06641 L 413.33398 155.19922 C 413.33398 133.73255 400.66615 120.26758 380.13281 120.26758 z M 460 120.26758 C 450 120.26758 446 125.33398 446 131.33398 L 446 136 C 446 142 450 147.06641 460 147.06641 C 470 147.06641 474 142 474 136 L 474 131.33398 C 474 125.33398 470 120.26758 460 120.26758 z M 672 121.86719 L 672 166 C 672 182.66667 681.46719 192.26758 695.86719 192.26758 C 707.20052 192.26758 712.53346 186.2668 715.4668 179.4668 L 716 179.4668 L 716 190.66602 L 726.66602 190.66602 L 726.66602 121.86719 L 716 121.86719 L 716 169.59961 C 716 178.66628 707.46693 182.80078 698.93359 182.80078 C 688.40026 182.80078 682.66602 176.66615 682.66602 164.13281 L 682.66602 121.86719 L 672 121.86719 z M 826.80078 121.86719 L 854.5332 189.33398 L 846.80078 208.26758 L 830.80078 208.26758 L 830.80078 217.33398 L 840.93359 217.33398 C 851.33359 217.33398 855.3332 213.60104 858.5332 205.73438 L 892.66602 121.86719 L 882 121.86719 L 870.40039 150.66602 L 860.13281 176.80078 L 859.59961 176.80078 L 849.33398 150.66602 L 837.73242 121.86719 L 826.80078 121.86719 z M 380.26758 134.40039 C 388.80091 134.40039 394 140.00026 394 148.93359 L 394 150 L 366.26758 150 L 366.26758 148.93359 C 366.26758 140.13359 371.73425 134.40039 380.26758 134.40039 z M 218.40039 161.19922 L 228.93359 161.19922 L 228.93359 169.4668 C 228.93359 175.8668 223.46654 179.33398 216.5332 179.33398 C 210.26654 179.33398 206.26758 176.8 206.26758 172 L 206.26758 169.33398 C 206.26758 164.00065 210.53372 161.19922 218.40039 161.19922 z M 460 165.4668 C 450 165.4668 446 170.5332 446 176.5332 L 446 181.19922 C 446 187.19922 450 192.26758 460 192.26758 C 470 192.26758 474 187.19922 474 181.19922 L 474 176.5332 C 474 170.5332 470 165.4668 460 165.4668 z M 125.86719 264.26758 L 100.66602 357.33398 L 120.93359 357.33398 L 126.66602 334.93359 L 152.13281 334.93359 L 158 357.33398 L 179.33398 357.33398 L 154.13281 264.26758 L 125.86719 264.26758 z M 531.4668 264.26758 L 506.80078 287.33398 L 513.33398 294.40039 L 536.80078 272.5332 L 537.73242 272.5332 L 537.73242 347.59961 L 511.06641 347.59961 L 511.06641 357.33398 L 573.4668 357.33398 L 573.4668 347.59961 L 548.93359 347.59961 L 548.93359 264.26758 L 531.4668 264.26758 z M 622 264.26758 C 606.8 274.00091 588.26758 295.59922 588.26758 323.19922 C 588.26758 345.33255 600.26719 358.93359 619.86719 358.93359 C 638.80052 358.93359 651.19922 346.39948 651.19922 328.13281 C 651.19922 310.53281 639.60065 299.4668 623.33398 299.4668 C 611.73398 299.4668 604.93372 305.20078 600.40039 312.80078 L 599.73242 312.5332 C 604.93242 290.9332 616.13372 278.80091 636.40039 264.26758 L 622 264.26758 z M 241.86719 275.33398 C 235.33385 275.33398 231.33398 279.33268 231.33398 284.66602 L 231.33398 288.40039 C 227.73398 287.46706 223.59922 286.93359 219.19922 286.93359 C 201.19922 286.93359 189.33398 295.4668 189.33398 311.4668 C 189.33398 321.60013 194.13424 328.79935 202.26758 332.66602 L 202.26758 333.4668 C 194.80091 335.20013 189.86719 337.99935 189.86719 344.66602 C 189.86719 350.66602 193.60013 353.73346 199.4668 355.4668 L 199.4668 356.26758 C 191.20013 358.40091 186.26758 362.00104 186.26758 369.73438 C 186.26758 379.06771 193.46628 385.59961 219.59961 385.59961 C 245.73294 385.59961 257.73242 378.80091 257.73242 364.26758 C 257.73242 352.66758 250.13372 344.40039 230.40039 344.40039 L 214.66602 344.40039 C 209.19935 344.40039 204.5332 344.13437 204.5332 339.73438 C 204.5332 337.33438 206 335.73268 208 334.66602 C 211.33333 335.59935 215.19922 336 219.19922 336 C 237.33255 336 249.33398 327.33346 249.33398 311.4668 C 249.33398 301.73346 244.93346 294.80026 237.4668 290.93359 L 237.4668 289.73438 L 254 289.73438 L 254 275.33398 L 241.86719 275.33398 z M 138.93359 283.59961 L 140 283.59961 L 149.06641 318.80078 L 129.86719 318.80078 L 138.93359 283.59961 z M 300.13281 286.93359 C 279.46615 286.93359 266.66602 300.66589 266.66602 323.19922 C 266.66602 345.19922 278.80052 358.93359 301.86719 358.93359 C 316.66719 358.93359 326.00065 353.33411 331.33398 346.80078 L 320.66602 335.19922 C 316.39935 340.26589 310.66654 343.73438 302.5332 343.73438 C 291.99987 343.73438 286.26758 337.73359 286.26758 328.93359 L 286.26758 327.73438 L 333.33398 327.73438 L 333.33398 321.86719 C 333.33398 300.40052 320.66615 286.93359 300.13281 286.93359 z M 380 286.93359 C 370 286.93359 366 292 366 298 L 366 302.66602 C 366 308.66602 370 313.73438 380 313.73438 C 390 313.73438 394 308.66602 394 302.66602 L 394 298 C 394 292 390 286.93359 380 286.93359 z M 219.19922 299.4668 C 227.06589 299.4668 230.66602 303.86719 230.66602 309.86719 L 230.66602 313.06641 C 230.66602 319.06641 227.06589 323.4668 219.19922 323.4668 C 211.46589 323.4668 208 319.06641 208 313.06641 L 208 309.86719 C 208 303.86719 211.46589 299.4668 219.19922 299.4668 z M 300.26758 301.06641 C 308.80091 301.06641 314 306.66628 314 315.59961 L 314 316.66602 L 286.26758 316.66602 L 286.26758 315.59961 C 286.26758 306.79961 291.73425 301.06641 300.26758 301.06641 z M 619.73242 308.66602 C 632.39909 308.66602 639.86719 315.99987 639.86719 328.5332 L 639.86719 329.59961 C 639.86719 342.13294 632.39909 349.4668 619.73242 349.4668 C 607.06576 349.4668 599.59961 342.13294 599.59961 329.59961 L 599.59961 328.5332 C 599.59961 315.99987 607.06576 308.66602 619.73242 308.66602 z M 380 332.13281 C 370 332.13281 366 337.19922 366 343.19922 L 366 347.86719 C 366 353.86719 370 358.93359 380 358.93359 C 390 358.93359 394 353.86719 394 347.86719 L 394 343.19922 C 394 337.19922 390 332.13281 380 332.13281 z M 205.19922 360 L 228.80078 360 C 236.80078 360 239.06641 362.13438 239.06641 365.73438 C 239.06641 370.40104 235.06615 372.93359 226.13281 372.93359 L 214.5332 372.93359 C 205.86654 372.93359 202.5332 369.86628 202.5332 365.59961 C 202.5332 363.33294 203.46589 361.46667 205.19922 360 z M 863.73242 424.26758 C 857.59909 424.26758 855.33398 427.19974 855.33398 431.06641 L 855.33398 433.19922 C 855.33398 437.06589 857.59909 440 863.73242 440 C 869.86576 440 872.13281 437.06589 872.13281 433.19922 L 872.13281 431.06641 C 872.13281 427.19974 869.86576 424.26758 863.73242 424.26758 z M 1263.5996 424.26758 C 1257.4663 424.26758 1255.1992 427.19974 1255.1992 431.06641 L 1255.1992 433.19922 C 1255.1992 437.06589 1257.4663 440 1263.5996 440 C 1269.7329 440 1272 437.06589 1272 433.19922 L 1272 431.06641 C 1272 427.19974 1269.7329 424.26758 1263.5996 424.26758 z M 232.40039 425.33398 L 232.40039 467.73438 L 231.4668 467.73438 C 228.00013 459.46771 222.13307 453.59961 211.06641 453.59961 C 195.86641 453.59961 185.19922 464.66628 185.19922 489.59961 C 185.19922 514.53294 195.86641 525.59961 211.06641 525.59961 C 222.13307 525.59961 228.00013 519.73346 231.4668 511.4668 L 232.40039 511.4668 L 232.40039 524 L 252.13281 524 L 252.13281 425.33398 L 232.40039 425.33398 z M 312.40039 425.33398 L 312.40039 467.73438 L 311.4668 467.73438 C 308.00013 459.46771 302.13307 453.59961 291.06641 453.59961 C 275.86641 453.59961 265.19922 464.66628 265.19922 489.59961 C 265.19922 514.53294 275.86641 525.59961 291.06641 525.59961 C 302.13307 525.59961 308.00013 519.73346 311.4668 511.4668 L 312.40039 511.4668 L 312.40039 524 L 332.13281 524 L 332.13281 425.33398 L 312.40039 425.33398 z M 125.86719 430.93359 L 100.66602 524 L 120.93359 524 L 126.66602 501.59961 L 152.13281 501.59961 L 158 524 L 179.33398 524 L 154.13281 430.93359 L 125.86719 430.93359 z M 1071.334 430.93359 L 1071.334 524 L 1082.5332 524 L 1082.5332 484.5332 L 1105.1992 484.5332 C 1122.3992 484.5332 1131.7324 474.53437 1131.7324 457.73438 C 1131.7324 440.93438 1122.3992 430.93359 1105.1992 430.93359 L 1071.334 430.93359 z M 1082.5332 440.66602 L 1104.9336 440.66602 C 1114.2669 440.66602 1119.8672 445.60091 1119.8672 454.26758 L 1119.8672 461.19922 C 1119.8672 469.86589 1114.2669 474.80078 1104.9336 474.80078 L 1082.5332 474.80078 L 1082.5332 440.66602 z M 138.93359 450.26758 L 140 450.26758 L 149.06641 485.4668 L 129.86719 485.4668 L 138.93359 450.26758 z M 460.13281 453.59961 C 439.46615 453.59961 426.66602 467.33385 426.66602 489.86719 C 426.66602 511.86719 438.80052 525.59961 461.86719 525.59961 C 476.66719 525.59961 486.00065 520.00013 491.33398 513.4668 L 480.66602 501.86719 C 476.39935 506.93385 470.66654 510.40039 462.5332 510.40039 C 451.99987 510.40039 446.26758 504.39961 446.26758 495.59961 L 446.26758 494.40039 L 493.33398 494.40039 L 493.33398 488.5332 C 493.33398 467.06654 480.66615 453.59961 460.13281 453.59961 z M 541.73242 453.59961 C 521.86576 453.59961 510.26758 462.26602 510.26758 476.66602 C 510.26758 489.73268 520.00091 494.93411 532.26758 496.80078 L 543.33398 498.5332 C 548.66732 499.3332 551.86719 500.53372 551.86719 504.40039 C 551.86719 509.33372 547.06732 511.73438 539.33398 511.73438 C 530.13398 511.73438 522.93294 508.26706 517.59961 502.40039 L 506.5332 512.66602 C 512.1332 520.66602 523.99922 525.59961 539.19922 525.59961 C 559.59922 525.59961 571.19922 516.53424 571.19922 502.26758 C 571.19922 489.20091 561.46641 483.99948 549.06641 482.13281 L 538.13281 480.40039 C 532.79948 479.60039 529.59961 478.40039 529.59961 474.40039 C 529.59961 469.86706 533.59974 467.4668 541.06641 467.4668 C 549.99974 467.4668 556.5332 470.93398 560.5332 475.33398 L 570.40039 464.13281 C 564.66706 457.46615 555.19909 453.59961 541.73242 453.59961 z M 621.73242 453.59961 C 601.86576 453.59961 590.26758 462.26602 590.26758 476.66602 C 590.26758 489.73268 600.00091 494.93411 612.26758 496.80078 L 623.33398 498.5332 C 628.66732 499.3332 631.86719 500.53372 631.86719 504.40039 C 631.86719 509.33372 627.06732 511.73438 619.33398 511.73438 C 610.13398 511.73438 602.93294 508.26706 597.59961 502.40039 L 586.5332 512.66602 C 592.1332 520.66602 603.99922 525.59961 619.19922 525.59961 C 639.59922 525.59961 651.19922 516.53424 651.19922 502.26758 C 651.19922 489.20091 641.46641 483.99948 629.06641 482.13281 L 618.13281 480.40039 C 612.79948 479.60039 609.59961 478.40039 609.59961 474.40039 C 609.59961 469.86706 613.59974 467.4668 621.06641 467.4668 C 629.99974 467.4668 636.5332 470.93398 640.5332 475.33398 L 650.40039 464.13281 C 644.66706 457.46615 635.19909 453.59961 621.73242 453.59961 z M 699.59961 453.59961 C 689.59961 453.59961 685.59961 458.66602 685.59961 464.66602 L 685.59961 469.33398 C 685.59961 475.33398 689.59961 480.40039 699.59961 480.40039 C 709.59961 480.40039 713.59961 475.33398 713.59961 469.33398 L 713.59961 464.66602 C 713.59961 458.66602 709.59961 453.59961 699.59961 453.59961 z M 943.33398 453.59961 C 932.00065 453.59961 926.66576 459.60039 923.73242 466.40039 L 923.19922 466.40039 L 923.19922 455.19922 L 912.5332 455.19922 L 912.5332 524 L 923.19922 524 L 923.19922 476.26758 C 923.19922 467.20091 931.73425 463.06641 940.26758 463.06641 C 950.80091 463.06641 956.5332 469.20104 956.5332 481.73438 L 956.5332 524 L 967.19922 524 L 967.19922 479.86719 C 967.19922 463.20052 957.73398 453.59961 943.33398 453.59961 z M 1339.8672 453.59961 C 1323.8672 453.59961 1312.1328 460.39948 1312.1328 474.13281 C 1312.1328 489.06615 1325.9991 491.73255 1335.7324 493.19922 L 1346.5332 494.80078 C 1352.7999 495.73411 1358.666 497.60078 1358.666 504.80078 C 1358.666 512.93411 1351.0671 516.66602 1340.4004 516.66602 C 1329.467 516.66602 1322.0001 512.80052 1315.4668 505.86719 L 1308.2676 512.13281 C 1315.4676 520.26615 1325.7328 525.59961 1340.1328 525.59961 C 1357.7328 525.59961 1369.1992 517.73281 1369.1992 504.13281 C 1369.1992 489.19948 1355.4663 486.53307 1345.5996 485.06641 L 1334.8008 483.4668 C 1328.6674 482.53346 1322.666 480.6668 1322.666 473.4668 C 1322.666 466.40013 1328.6668 462.5332 1339.4668 462.5332 C 1351.6001 462.5332 1357.7336 467.33255 1360.9336 471.19922 L 1367.8672 464.66602 C 1361.3339 457.73268 1352.2672 453.59961 1339.8672 453.59961 z M 1419.334 453.59961 C 1400.0007 453.59961 1388.1328 467.73294 1388.1328 489.59961 C 1388.1328 511.46628 1400.0007 525.59961 1419.334 525.59961 C 1438.6673 525.59961 1450.5332 511.46628 1450.5332 489.59961 C 1450.5332 467.73294 1438.6673 453.59961 1419.334 453.59961 z M 1503.1992 453.59961 C 1491.8659 453.59961 1486.5329 459.60039 1483.5996 466.40039 L 1483.0664 466.40039 L 1483.0664 455.19922 L 1472.4004 455.19922 L 1472.4004 524 L 1483.0664 524 L 1483.0664 476.26758 C 1483.0664 467.20091 1491.5995 463.06641 1500.1328 463.06641 C 1510.6661 463.06641 1516.4004 469.20104 1516.4004 481.73438 L 1516.4004 524 L 1527.0664 524 L 1527.0664 479.86719 C 1527.0664 463.20052 1517.5992 453.59961 1503.1992 453.59961 z M 349.86719 455.19922 L 349.86719 470.5332 L 365.73242 470.5332 L 365.73242 508.66602 L 349.86719 508.66602 L 349.86719 524 L 408.13281 524 L 408.13281 508.66602 L 385.4668 508.66602 L 385.4668 488.26758 C 385.4668 480.00091 390.53425 473.33398 400.26758 473.33398 L 414.93359 473.33398 L 414.93359 455.19922 L 408.40039 455.19922 C 394.80039 455.19922 388.93372 464.53268 386.40039 474.66602 L 385.4668 474.66602 L 385.4668 455.19922 L 349.86719 455.19922 z M 833.59961 455.19922 L 833.59961 464.26758 L 858.40039 464.26758 L 858.40039 514.93359 L 833.59961 514.93359 L 833.59961 524 L 892.26758 524 L 892.26758 514.93359 L 869.06641 514.93359 L 869.06641 455.19922 L 833.59961 455.19922 z M 1149.5996 455.19922 L 1149.5996 464.26758 L 1169.7324 464.26758 L 1169.7324 514.93359 L 1149.5996 514.93359 L 1149.5996 524 L 1207.0664 524 L 1207.0664 514.93359 L 1180.4004 514.93359 L 1180.4004 485.19922 C 1180.4004 474.53255 1187.4669 465.86719 1200.9336 465.86719 L 1213.8672 465.86719 L 1213.8672 455.19922 L 1204.2676 455.19922 C 1189.8676 455.19922 1183.7331 463.46654 1181.0664 472.5332 L 1180.4004 472.5332 L 1180.4004 455.19922 L 1149.5996 455.19922 z M 1233.4668 455.19922 L 1233.4668 464.26758 L 1258.2676 464.26758 L 1258.2676 514.93359 L 1233.4668 514.93359 L 1233.4668 524 L 1292.1328 524 L 1292.1328 514.93359 L 1268.9336 514.93359 L 1268.9336 455.19922 L 1233.4668 455.19922 z M 1419.334 462.80078 C 1431.2007 462.80078 1439.1992 469.86602 1439.1992 484.66602 L 1439.1992 494.5332 C 1439.1992 509.3332 1431.2007 516.40039 1419.334 516.40039 C 1407.4673 516.40039 1399.4668 509.3332 1399.4668 494.5332 L 1399.4668 484.66602 C 1399.4668 469.86602 1407.4673 462.80078 1419.334 462.80078 z M 460.26758 467.73438 C 468.80091 467.73438 474 473.33425 474 482.26758 L 474 483.33398 L 446.26758 483.33398 L 446.26758 482.26758 C 446.26758 473.46758 451.73425 467.73438 460.26758 467.73438 z M 219.59961 468.93359 C 226.53294 468.93359 232.40039 472.2668 232.40039 479.4668 L 232.40039 499.73438 C 232.40039 506.93437 226.53294 510.26758 219.59961 510.26758 C 210.79961 510.26758 205.73242 504.53359 205.73242 494.93359 L 205.73242 484.26758 C 205.73242 474.66758 210.79961 468.93359 219.59961 468.93359 z M 299.59961 468.93359 C 306.53294 468.93359 312.40039 472.2668 312.40039 479.4668 L 312.40039 499.73438 C 312.40039 506.93437 306.53294 510.26758 299.59961 510.26758 C 290.79961 510.26758 285.73242 504.53359 285.73242 494.93359 L 285.73242 484.26758 C 285.73242 474.66758 290.79961 468.93359 299.59961 468.93359 z M 699.59961 498.80078 C 689.59961 498.80078 685.59961 503.86719 685.59961 509.86719 L 685.59961 514.5332 C 685.59961 520.5332 689.59961 525.59961 699.59961 525.59961 C 709.59961 525.59961 713.59961 520.5332 713.59961 514.5332 L 713.59961 509.86719 C 713.59961 503.86719 709.59961 498.80078 699.59961 498.80078 z M 915.33398 812 L 913.86719 820.93359 L 938.13281 820.93359 L 923.19922 898.5332 C 922.93255 899.7332 922.80078 901.60078 922.80078 902.80078 C 922.80078 908.26745 925.60078 912.26758 932.80078 912.26758 C 938.13411 912.26758 942.93385 910.00091 955.86719 898.26758 L 969.73242 885.73242 L 963.73242 879.86719 L 936.40039 903.06641 L 933.06641 902 L 950.40039 812 L 915.33398 812 z M 121.06641 817.59961 L 119.59961 826.40039 L 142.93359 826.40039 L 130.26758 901.86719 L 106.93359 901.86719 L 105.4668 910.66602 L 163.06641 910.66602 L 164.5332 901.86719 L 141.19922 901.86719 L 153.86719 826.40039 L 177.19922 826.40039 L 178.66602 817.59961 L 121.06641 817.59961 z M 310.40039 840.26758 C 299.33372 840.26758 292.53346 847.19948 287.4668 858.13281 L 286.93359 858.13281 L 289.59961 841.86719 L 279.19922 841.86719 L 267.73242 910.66602 L 278.13281 910.66602 L 284.5332 872.66602 C 285.86654 864.79935 290.93372 858.66693 292.40039 856.93359 C 296.26706 852.40026 300.93359 849.4668 306.93359 849.4668 C 314.66693 849.4668 318.40039 854.53268 318.40039 862.66602 C 318.40039 864.13268 318.26576 866.8 317.73242 870 L 310.93359 910.66602 L 321.33398 910.66602 L 328.26758 869.06641 C 328.80091 865.99974 329.06641 862.79948 329.06641 860.13281 C 329.06641 847.59948 321.86706 840.26758 310.40039 840.26758 z M 387.4668 840.26758 C 365.33346 840.26758 349.59961 857.86745 349.59961 882.80078 C 349.59961 902.53411 359.46745 912.26758 376.80078 912.26758 C 391.33411 912.26758 400.66706 905.33268 408.40039 892.66602 L 401.06641 888.13281 C 393.33307 899.06615 387.59909 903.33398 377.73242 903.33398 C 363.33242 903.33398 360.5332 894.40078 360.5332 884.80078 C 360.5332 884.53411 360.53268 883.06576 360.66602 881.73242 C 404.53268 880.53242 410.80078 868.53411 410.80078 858.80078 C 410.80078 846.80078 400.93346 840.26758 387.4668 840.26758 z M 547.4668 840.26758 C 525.33346 840.26758 509.59961 857.86745 509.59961 882.80078 C 509.59961 902.53411 519.46745 912.26758 536.80078 912.26758 C 551.33411 912.26758 560.66706 905.33268 568.40039 892.66602 L 561.06641 888.13281 C 553.33307 899.06615 547.59909 903.33398 537.73242 903.33398 C 523.33242 903.33398 520.5332 894.40078 520.5332 884.80078 C 520.5332 884.53411 520.53268 883.06576 520.66602 881.73242 C 564.53268 880.53242 570.80078 868.53411 570.80078 858.80078 C 570.80078 846.80078 560.93346 840.26758 547.4668 840.26758 z M 784.93359 840.26758 C 768.66693 840.26758 755.4668 847.59948 755.4668 862.13281 C 755.4668 874.93281 765.86719 878.26576 775.86719 879.73242 L 785.86719 881.19922 C 791.46719 881.99922 795.86719 883.86758 795.86719 890.26758 C 795.86719 898.53424 788.40091 903.4668 776.26758 903.4668 C 765.86758 903.4668 759.06576 899.86589 753.73242 893.19922 L 746 899.33398 C 752 907.60065 762.00065 912.26758 775.33398 912.26758 C 793.73398 912.26758 806.13281 903.46589 806.13281 889.19922 C 806.13281 875.59922 794.8 873.46667 786 872 L 776.26758 870.40039 C 770.66758 869.46706 765.59961 868.00065 765.59961 861.33398 C 765.59961 853.86732 771.86576 849.06641 783.73242 849.06641 C 795.33242 849.06641 800.93398 853.59922 803.33398 857.19922 L 810.66602 850.80078 C 805.46602 844.26745 796.93359 840.26758 784.93359 840.26758 z M 870.66602 840.26758 C 858.53268 840.26758 851.60091 847.33281 846.26758 858.13281 L 845.86719 858.13281 L 848.5332 841.86719 L 838.13281 841.86719 L 822.13281 937.33398 L 832.5332 937.33398 L 839.06641 898.66602 L 839.4668 898.66602 C 842.40013 907.59935 849.46628 912.26758 859.59961 912.26758 C 883.86628 912.26758 892.13281 885.33359 892.13281 866.93359 C 892.13281 849.33359 884.53268 840.26758 870.66602 840.26758 z M 1179.5996 840.26758 C 1155.8663 840.26758 1147.1992 866.13385 1147.1992 883.86719 C 1147.1992 900.66719 1154.6674 910 1168.8008 910 C 1180.9341 910 1188.134 903.19948 1193.334 892.13281 L 1193.8672 892.13281 L 1191.0664 908.66602 C 1188.5331 923.86602 1181.0665 929.73242 1168.5332 929.73242 C 1160.1332 929.73242 1154.5336 927.06654 1150.9336 922.5332 L 1143.7324 929.4668 C 1148.6658 935.60013 1156.8005 938.93359 1167.8672 938.93359 C 1185.0672 938.93359 1197.5997 930.93268 1201.0664 910.66602 L 1212.5332 841.86719 L 1202.1328 841.86719 L 1200.1328 853.86719 L 1199.7324 853.86719 C 1196.7991 844.93385 1189.7329 840.26758 1179.5996 840.26758 z M 1267.1992 840.26758 C 1245.0659 840.26758 1229.334 857.86745 1229.334 882.80078 C 1229.334 902.53411 1239.1999 912.26758 1256.5332 912.26758 C 1271.0665 912.26758 1280.3995 905.33268 1288.1328 892.66602 L 1280.8008 888.13281 C 1273.0674 899.06615 1267.3335 903.33398 1257.4668 903.33398 C 1243.0668 903.33398 1240.2676 894.40078 1240.2676 884.80078 C 1240.2676 884.53411 1240.2671 883.06576 1240.4004 881.73242 C 1284.2671 880.53242 1290.5332 868.53411 1290.5332 858.80078 C 1290.5332 846.80078 1280.6659 840.26758 1267.1992 840.26758 z M 487.59961 841.06641 L 477.59961 844 C 480.13294 848.93333 481.33398 854.93359 481.33398 860.93359 C 481.33398 880.80026 469.73294 900.66628 447.59961 903.59961 L 445.86719 902.40039 L 454.93359 841.86719 L 430.13281 841.86719 L 428.66602 850.80078 L 443.33398 850.80078 L 436.40039 897.19922 C 436.13372 898.79922 435.86719 900.79948 435.86719 902.13281 C 435.86719 908.13281 439.19948 911.73242 446.13281 911.73242 C 470.93281 911.73242 492 888.40039 492 860.40039 C 492 853.20039 490.39961 846.39974 487.59961 841.06641 z M 595.73242 841.86719 L 594.26758 850.80078 L 613.59961 850.80078 L 603.59961 910.66602 L 614 910.66602 L 620 874.80078 C 621.33333 866.80078 626.13385 861.19922 627.86719 859.19922 C 632.00052 854.39922 636.93359 852.26758 644.93359 852.26758 L 656.66602 852.26758 L 658.40039 841.86719 L 648 841.86719 C 634.8 841.86719 627.86641 849.33425 623.06641 860.26758 L 622.40039 860.26758 L 625.4668 841.86719 L 595.73242 841.86719 z M 998.40039 841.86719 L 991.4668 883.4668 C 990.93346 886.53346 990.66602 889.73372 990.66602 892.40039 C 990.66602 904.93372 997.86732 912.26758 1009.334 912.26758 C 1020.4007 912.26758 1027.2009 905.33372 1032.2676 894.40039 L 1032.8008 894.40039 L 1030.1328 910.66602 L 1040.5332 910.66602 L 1052 841.86719 L 1041.5996 841.86719 L 1035.1992 879.86719 C 1033.8659 887.73385 1028.8007 893.86628 1027.334 895.59961 C 1023.4673 900.13294 1018.8008 903.06641 1012.8008 903.06641 C 1005.0674 903.06641 1001.334 898.00052 1001.334 889.86719 C 1001.334 888.40052 1001.4667 885.7332 1002 882.5332 L 1008.8008 841.86719 L 998.40039 841.86719 z M 1075.4668 841.86719 L 1074 850.80078 L 1093.334 850.80078 L 1083.334 910.66602 L 1093.7324 910.66602 L 1099.7324 874.80078 C 1101.0658 866.80078 1105.8663 861.19922 1107.5996 859.19922 C 1111.7329 854.39922 1116.666 852.26758 1124.666 852.26758 L 1136.4004 852.26758 L 1138.1328 841.86719 L 1127.7324 841.86719 C 1114.5324 841.86719 1107.6008 849.33425 1102.8008 860.26758 L 1102.1328 860.26758 L 1105.1992 841.86719 L 1075.4668 841.86719 z M 386.5332 848.93359 C 396.5332 848.93359 400.13281 853.59922 400.13281 859.19922 C 400.13281 865.86589 395.0668 873.46654 361.4668 874.5332 L 361.59961 873.19922 C 363.59961 857.59922 372.66654 848.93359 386.5332 848.93359 z M 546.5332 848.93359 C 556.5332 848.93359 560.13281 853.59922 560.13281 859.19922 C 560.13281 865.86589 555.0668 873.46654 521.4668 874.5332 L 521.59961 873.19922 C 523.59961 857.59922 532.66654 848.93359 546.5332 848.93359 z M 1266.2676 848.93359 C 1276.2676 848.93359 1279.8672 853.59922 1279.8672 859.19922 C 1279.8672 865.86589 1274.7992 873.46654 1241.1992 874.5332 L 1241.334 873.19922 C 1243.334 857.59922 1252.4009 848.93359 1266.2676 848.93359 z M 867.06641 849.4668 C 876.66641 849.4668 881.59961 855.60052 881.59961 865.86719 C 881.59961 867.60052 881.46641 869.46719 881.06641 871.86719 L 879.4668 881.4668 C 877.33346 894.2668 869.7332 903.06641 856.5332 903.06641 C 846.26654 903.06641 839.20078 897.6 840.80078 888 L 843.33398 872.80078 C 844.40065 866.40078 847.46693 860.93307 850.93359 857.06641 C 855.73359 851.73307 861.33307 849.4668 867.06641 849.4668 z M 1182.666 849.4668 C 1192.9327 849.4668 1200.0004 854.9332 1198.4004 864.5332 L 1196.2676 877.59961 C 1195.0676 885.06628 1191.1993 890.39922 1188.666 893.19922 C 1183.7327 898.66589 1178.1337 900.80078 1172.4004 900.80078 C 1162.8004 900.80078 1157.8672 894.80052 1157.8672 883.86719 C 1157.8672 882.00052 1158.1332 880.4 1158.5332 878 L 1159.7324 870.80078 C 1161.8658 858.00078 1169.7327 849.4668 1182.666 849.4668 z M 1336.1328 893.73242 C 1329.3328 893.73242 1326.134 896.79961 1325.334 901.59961 C 1325.0673 903.19961 1324.8008 904.80052 1324.8008 905.86719 C 1324.8008 909.20052 1327.2001 911.86719 1333.4668 911.86719 C 1340.2668 911.86719 1343.4676 908.8 1344.2676 904 C 1344.5342 902.4 1344.8008 900.79909 1344.8008 899.73242 C 1344.8008 896.39909 1342.3995 893.73242 1336.1328 893.73242 z M 466.80078 1144.2676 C 461.46745 1144.2676 458.66667 1146.666 458 1150.666 C 457.73333 1152.266 457.4668 1153.4665 457.4668 1154.5332 C 457.4668 1157.3332 459.46589 1159.8672 465.19922 1159.8672 C 470.53255 1159.8672 473.33333 1157.4668 474 1153.4668 C 474.26667 1151.8668 474.5332 1150.6663 474.5332 1149.5996 C 474.5332 1146.7996 472.53411 1144.2676 466.80078 1144.2676 z M 1586 1144.2676 C 1580.6667 1144.2676 1577.8659 1146.666 1577.1992 1150.666 C 1576.9326 1152.266 1576.666 1153.4665 1576.666 1154.5332 C 1576.666 1157.3332 1578.6671 1159.8672 1584.4004 1159.8672 C 1589.7337 1159.8672 1592.5326 1157.4668 1593.1992 1153.4668 C 1593.4659 1151.8668 1593.7324 1150.6663 1593.7324 1149.5996 C 1593.7324 1146.7996 1591.7333 1144.2676 1586 1144.2676 z M 364.26758 1145.334 L 347.73242 1244 L 358.13281 1244 L 364.5332 1206 C 365.86654 1198.1333 370.93372 1192.0009 372.40039 1190.2676 C 376.26706 1185.7342 380.93359 1182.8008 386.93359 1182.8008 C 394.66693 1182.8008 398.40039 1187.8667 398.40039 1196 C 398.40039 1197.4667 398.26576 1200.134 397.73242 1203.334 L 390.93359 1244 L 401.33398 1244 L 408.26758 1202.4004 C 408.80091 1199.3337 409.06641 1196.1335 409.06641 1193.4668 C 409.06641 1180.9335 401.86706 1173.5996 390.40039 1173.5996 C 379.33372 1173.5996 372.53346 1180.5335 367.4668 1191.4668 L 366.93359 1191.4668 L 374.66602 1145.334 L 364.26758 1145.334 z M 604.26758 1145.334 L 587.73242 1244 L 598.13281 1244 L 604.5332 1206 C 605.46654 1200.2667 608.26615 1195.2004 612.13281 1190.4004 C 615.86615 1185.8671 620.39922 1182.5332 627.19922 1182.5332 C 634.39922 1182.5332 638.40039 1186.2665 638.40039 1192.5332 C 638.40039 1200.6665 631.60065 1208.2658 609.33398 1213.7324 L 620.13281 1237.1992 C 622.93281 1243.3326 625.86706 1245.5996 630.40039 1245.5996 C 635.46706 1245.5996 639.46706 1242.6658 646.40039 1235.7324 L 655.86719 1226.2676 L 650.13281 1220.2676 L 632.40039 1236.5332 L 630.66602 1236.2676 L 621.19922 1215.5996 C 644.53255 1209.8663 649.06641 1198.7999 649.06641 1190.5332 C 649.06641 1180.2665 641.99974 1173.5996 631.06641 1173.5996 C 619.59974 1173.5996 612.40013 1180.9335 607.4668 1191.4668 L 606.93359 1191.4668 L 614.66602 1145.334 L 604.26758 1145.334 z M 844 1145.334 L 827.4668 1244 L 837.86719 1244 L 844.26758 1206 C 845.60091 1198.1333 850.66615 1192.0009 852.13281 1190.2676 C 855.99948 1185.7342 860.66602 1182.8008 866.66602 1182.8008 C 874.39935 1182.8008 878.13281 1187.8667 878.13281 1196 C 878.13281 1197.4667 878.00013 1200.134 877.4668 1203.334 L 870.66602 1244 L 881.06641 1244 L 888 1202.4004 C 888.53333 1199.3337 888.80078 1196.1335 888.80078 1193.4668 C 888.80078 1180.9335 881.59948 1173.5996 870.13281 1173.5996 C 859.06615 1173.5996 852.26589 1180.5335 847.19922 1191.4668 L 846.66602 1191.4668 L 854.40039 1145.334 L 844 1145.334 z M 1235.0664 1145.334 L 1233.5996 1154.2676 L 1257.8672 1154.2676 L 1242.9336 1231.8672 C 1242.6669 1233.0672 1242.5332 1234.9328 1242.5332 1236.1328 C 1242.5332 1241.5995 1245.3332 1245.5996 1252.5332 1245.5996 C 1257.8665 1245.5996 1262.6663 1243.3329 1275.5996 1231.5996 L 1289.4668 1219.0664 L 1283.4668 1213.1992 L 1256.1328 1236.4004 L 1252.8008 1235.334 L 1270.1328 1145.334 L 1235.0664 1145.334 z M 1315.0664 1145.334 L 1313.5996 1154.2676 L 1337.8672 1154.2676 L 1322.9336 1231.8672 C 1322.6669 1233.0672 1322.5332 1234.9328 1322.5332 1236.1328 C 1322.5332 1241.5995 1325.3332 1245.5996 1332.5332 1245.5996 C 1337.8665 1245.5996 1342.6663 1243.3329 1355.5996 1231.5996 L 1369.4668 1219.0664 L 1363.4668 1213.1992 L 1336.1328 1236.4004 L 1332.8008 1235.334 L 1350.1328 1145.334 L 1315.0664 1145.334 z M 1634.8008 1145.334 L 1633.334 1154.2676 L 1657.5996 1154.2676 L 1642.666 1231.8672 C 1642.3993 1233.0672 1642.2656 1234.9328 1642.2656 1236.1328 C 1642.2656 1241.5995 1645.0656 1245.5996 1652.2656 1245.5996 C 1657.599 1245.5996 1662.4007 1243.3329 1675.334 1231.5996 L 1689.1992 1219.0664 L 1683.1992 1213.1992 L 1655.8672 1236.4004 L 1652.5332 1235.334 L 1669.8672 1145.334 L 1634.8008 1145.334 z M 1714.8008 1145.334 L 1713.334 1154.2676 L 1737.5996 1154.2676 L 1722.666 1231.8672 C 1722.3993 1233.0672 1722.2656 1234.9328 1722.2656 1236.1328 C 1722.2656 1241.5995 1725.0656 1245.5996 1732.2656 1245.5996 C 1737.599 1245.5996 1742.4007 1243.3329 1755.334 1231.5996 L 1769.1992 1219.0664 L 1763.1992 1213.1992 L 1735.8672 1236.4004 L 1732.5332 1235.334 L 1749.8672 1145.334 L 1714.8008 1145.334 z M 1882.4004 1145.334 L 1865.8672 1244 L 1876.2676 1244 L 1878.2676 1232 L 1878.666 1232 C 1881.5993 1240.9333 1888.6674 1245.5996 1898.8008 1245.5996 C 1923.0674 1245.5996 1931.334 1218.6676 1931.334 1200.2676 C 1931.334 1182.6676 1923.7339 1173.5996 1909.8672 1173.5996 C 1897.7339 1173.5996 1890.8001 1180.6668 1885.4668 1191.4668 L 1885.0664 1191.4668 L 1892.8008 1145.334 L 1882.4004 1145.334 z M 121.06641 1150.9336 L 119.59961 1159.7324 L 142.93359 1159.7324 L 130.26758 1235.1992 L 106.93359 1235.1992 L 105.4668 1244 L 163.06641 1244 L 164.5332 1235.1992 L 141.19922 1235.1992 L 153.86719 1159.7324 L 177.19922 1159.7324 L 178.66602 1150.9336 L 121.06641 1150.9336 z M 296.40039 1150.9336 L 293.33398 1168.9336 C 292.53398 1173.6003 290.40052 1175.1992 285.86719 1175.1992 L 271.86719 1175.1992 L 270.40039 1184.1328 L 290.26758 1184.1328 L 282.26758 1230.5332 C 282.00091 1231.9999 281.86719 1234.5324 281.86719 1235.7324 C 281.86719 1242.1324 285.46576 1245.5996 291.73242 1245.5996 C 297.19909 1245.5996 302.53359 1242.8 314.93359 1234 L 330 1223.334 L 324.80078 1216.666 L 294.80078 1236.666 L 292.13281 1235.0664 L 300.66602 1184.1328 L 329.06641 1184.1328 L 330.5332 1175.1992 L 302.13281 1175.1992 L 306.26758 1150.9336 L 296.40039 1150.9336 z M 776.13281 1150.9336 L 773.06641 1168.9336 C 772.26641 1173.6003 770.13294 1175.1992 765.59961 1175.1992 L 751.59961 1175.1992 L 750.13281 1184.1328 L 770 1184.1328 L 762 1230.5332 C 761.73333 1231.9999 761.59961 1234.5324 761.59961 1235.7324 C 761.59961 1242.1324 765.20013 1245.5996 771.4668 1245.5996 C 776.93346 1245.5996 782.26602 1242.8 794.66602 1234 L 809.73242 1223.334 L 804.5332 1216.666 L 774.5332 1236.666 L 771.86719 1235.0664 L 780.40039 1184.1328 L 808.80078 1184.1328 L 810.26758 1175.1992 L 781.86719 1175.1992 L 786 1150.9336 L 776.13281 1150.9336 z M 1016.1328 1150.9336 L 1013.0664 1168.9336 C 1012.2664 1173.6003 1010.1329 1175.1992 1005.5996 1175.1992 L 991.59961 1175.1992 L 990.13281 1184.1328 L 1010 1184.1328 L 1002 1230.5332 C 1001.7333 1231.9999 1001.5996 1234.5324 1001.5996 1235.7324 C 1001.5996 1242.1324 1005.2001 1245.5996 1011.4668 1245.5996 C 1016.9335 1245.5996 1022.266 1242.8 1034.666 1234 L 1049.7324 1223.334 L 1044.5332 1216.666 L 1014.5332 1236.666 L 1011.8672 1235.0664 L 1020.4004 1184.1328 L 1048.8008 1184.1328 L 1050.2676 1175.1992 L 1021.8672 1175.1992 L 1026 1150.9336 L 1016.1328 1150.9336 z M 550.40039 1173.5996 C 539.33372 1173.5996 532.53346 1180.5335 527.4668 1191.4668 L 526.93359 1191.4668 L 529.59961 1175.1992 L 519.19922 1175.1992 L 507.73242 1244 L 518.13281 1244 L 524.5332 1206 C 525.86654 1198.1333 530.93372 1192.0009 532.40039 1190.2676 C 536.26706 1185.7342 540.93359 1182.8008 546.93359 1182.8008 C 554.66693 1182.8008 558.40039 1187.8667 558.40039 1196 C 558.40039 1197.4667 558.26576 1200.134 557.73242 1203.334 L 550.93359 1244 L 561.33398 1244 L 568.26758 1202.4004 C 568.80091 1199.3337 569.06641 1196.1335 569.06641 1193.4668 C 569.06641 1180.9335 561.86706 1173.5996 550.40039 1173.5996 z M 939.59961 1173.5996 C 915.33294 1173.5996 907.06641 1200.5336 907.06641 1218.9336 C 907.06641 1236.5336 914.66654 1245.5996 928.5332 1245.5996 C 940.66654 1245.5996 947.60026 1238.5324 952.93359 1227.7324 L 953.33398 1227.7324 L 950.66602 1244 L 961.06641 1244 L 972.5332 1175.1992 L 962.13281 1175.1992 L 960.13281 1187.1992 L 959.73242 1187.1992 C 956.79909 1178.2659 949.73294 1173.5996 939.59961 1173.5996 z M 1179.334 1173.5996 C 1155.0673 1173.5996 1146.8008 1200.5336 1146.8008 1218.9336 C 1146.8008 1236.5336 1154.4009 1245.5996 1168.2676 1245.5996 C 1180.4009 1245.5996 1187.3327 1238.5324 1192.666 1227.7324 L 1193.0664 1227.7324 L 1190.4004 1244 L 1200.8008 1244 L 1212.2676 1175.1992 L 1201.8672 1175.1992 L 1199.8672 1187.1992 L 1199.4668 1187.1992 C 1196.5335 1178.2659 1189.4673 1173.5996 1179.334 1173.5996 z M 1986.4004 1173.5996 C 1964.2671 1173.5996 1948.5332 1191.1995 1948.5332 1216.1328 C 1948.5332 1235.8661 1958.3991 1245.5996 1975.7324 1245.5996 C 1990.2658 1245.5996 1999.6007 1238.6667 2007.334 1226 L 2000 1221.4668 C 1992.2667 1232.4001 1986.5327 1236.666 1976.666 1236.666 C 1962.266 1236.666 1959.4668 1227.7328 1959.4668 1218.1328 C 1959.4668 1217.8661 1959.4663 1216.3997 1959.5996 1215.0664 C 2003.4663 1213.8664 2009.7324 1201.8661 2009.7324 1192.1328 C 2009.7324 1180.1328 1999.8671 1173.5996 1986.4004 1173.5996 z M 1531.0664 1174.5332 L 1522.2676 1177.1992 C 1524.2676 1181.4659 1525.334 1188.3997 1525.334 1195.0664 C 1525.334 1214.6664 1517.8672 1236.8008 1507.8672 1236.8008 C 1503.7339 1236.8008 1502 1234.5331 1502 1229.0664 C 1502 1226.7997 1502.1327 1224.2669 1502.666 1220.9336 L 1510.1328 1175.1992 L 1501.0664 1175.1992 L 1493.4668 1219.1992 C 1492.8001 1222.6659 1491.5997 1228.0001 1489.0664 1231.4668 C 1486.6664 1234.6668 1484.1332 1236.8008 1480.5332 1236.8008 C 1476.6665 1236.8008 1474.5332 1234.5326 1474.5332 1229.1992 C 1474.5332 1226.7992 1474.8007 1224.0003 1475.334 1220.9336 L 1482.8008 1175.1992 L 1473.4668 1175.1992 L 1465.5996 1222.8008 C 1465.0663 1226.2674 1464.8008 1228.9324 1464.8008 1231.7324 C 1464.8008 1239.9991 1468.8008 1245.334 1476.8008 1245.334 C 1485.2008 1245.334 1489.8658 1240.0007 1493.7324 1231.334 L 1494.4004 1231.334 C 1493.7337 1241.734 1498.5324 1245.334 1505.7324 1245.334 C 1513.0658 1245.334 1519.4676 1241.8659 1524.2676 1235.1992 C 1530.9342 1225.8659 1534.666 1210.5332 1534.666 1194.5332 C 1534.666 1186.3999 1533.1997 1179.1999 1531.0664 1174.5332 z M 432.26758 1175.1992 L 430.80078 1184.1328 L 455.59961 1184.1328 L 446.5332 1231.0664 C 446.26654 1232.6664 445.86719 1234.6671 445.86719 1236.4004 C 445.86719 1241.7337 449.46615 1245.5996 456.13281 1245.5996 C 462.13281 1245.5996 467.06628 1242.4008 479.59961 1230.8008 L 491.73242 1219.5996 L 485.4668 1213.7324 L 459.19922 1236.4004 L 456.13281 1235.1992 L 467.73242 1175.1992 L 432.26758 1175.1992 z M 1551.4668 1175.1992 L 1550 1184.1328 L 1574.8008 1184.1328 L 1565.7324 1231.0664 C 1565.4658 1232.6664 1565.0664 1234.6671 1565.0664 1236.4004 C 1565.0664 1241.7337 1568.6673 1245.5996 1575.334 1245.5996 C 1581.334 1245.5996 1586.2674 1242.4008 1598.8008 1230.8008 L 1610.9336 1219.5996 L 1604.666 1213.7324 L 1578.4004 1236.4004 L 1575.334 1235.1992 L 1586.9336 1175.1992 L 1551.4668 1175.1992 z M 1985.4668 1182.2676 C 1995.4668 1182.2676 1999.0664 1186.9332 1999.0664 1192.5332 C 1999.0664 1199.1999 1994.0004 1206.8005 1960.4004 1207.8672 L 1960.5332 1206.5332 C 1962.5332 1190.9332 1971.6001 1182.2676 1985.4668 1182.2676 z M 942.66602 1182.8008 C 952.93268 1182.8008 960.00039 1188.2672 958.40039 1197.8672 L 955.86719 1213.0664 C 954.80052 1219.4664 951.73424 1224.9341 948.26758 1228.8008 C 943.46758 1234.1341 937.86615 1236.4004 932.13281 1236.4004 C 922.53281 1236.4004 917.59961 1230.2667 917.59961 1220 C 917.59961 1218.2667 917.73281 1216.4 918.13281 1214 L 919.73242 1204.4004 C 921.86576 1191.6004 929.46602 1182.8008 942.66602 1182.8008 z M 1182.4004 1182.8008 C 1192.6671 1182.8008 1199.7328 1188.2672 1198.1328 1197.8672 L 1195.5996 1213.0664 C 1194.5329 1219.4664 1191.4667 1224.9341 1188 1228.8008 C 1183.2 1234.1341 1177.6005 1236.4004 1171.8672 1236.4004 C 1162.2672 1236.4004 1157.334 1230.2667 1157.334 1220 C 1157.334 1218.2667 1157.4672 1216.4 1157.8672 1214 L 1159.4668 1204.4004 C 1161.6001 1191.6004 1169.2004 1182.8008 1182.4004 1182.8008 z M 1906.2676 1182.8008 C 1915.8676 1182.8008 1920.8008 1188.9326 1920.8008 1199.1992 C 1920.8008 1200.9326 1920.6676 1202.7992 1920.2676 1205.1992 L 1918.666 1214.8008 C 1916.5327 1227.6008 1908.7996 1236.4004 1895.5996 1236.4004 C 1885.3329 1236.4004 1878.4 1230.934 1880 1221.334 L 1882.5332 1206.1328 C 1883.5999 1199.7328 1886.6661 1194.2671 1890.1328 1190.4004 C 1894.9328 1185.0671 1900.5342 1182.8008 1906.2676 1182.8008 z M 275.73242 1312 L 274.26758 1320.9336 L 298.5332 1320.9336 L 283.59961 1398.5332 C 283.33294 1399.7332 283.19922 1401.6008 283.19922 1402.8008 C 283.19922 1408.2674 285.99922 1412.2676 293.19922 1412.2676 C 298.53255 1412.2676 303.33425 1410.0009 316.26758 1398.2676 L 330.13281 1385.7324 L 324.13281 1379.8672 L 296.80078 1403.0664 L 293.4668 1402 L 310.80078 1312 L 275.73242 1312 z M 355.73242 1312 L 354.26758 1320.9336 L 378.5332 1320.9336 L 363.59961 1398.5332 C 363.33294 1399.7332 363.19922 1401.6008 363.19922 1402.8008 C 363.19922 1408.2674 365.99922 1412.2676 373.19922 1412.2676 C 378.53255 1412.2676 383.33425 1410.0009 396.26758 1398.2676 L 410.13281 1385.7324 L 404.13281 1379.8672 L 376.80078 1403.0664 L 373.4668 1402 L 390.80078 1312 L 355.73242 1312 z M 227.59961 1340.2676 C 205.46628 1340.2676 189.73242 1357.8674 189.73242 1382.8008 C 189.73242 1402.5341 199.60026 1412.2676 216.93359 1412.2676 C 231.46693 1412.2676 240.79987 1405.3327 248.5332 1392.666 L 241.19922 1388.1328 C 233.46589 1399.0661 227.73385 1403.334 217.86719 1403.334 C 203.46719 1403.334 200.66602 1394.4008 200.66602 1384.8008 C 200.66602 1384.5341 200.66745 1383.0658 200.80078 1381.7324 C 244.66745 1380.5324 250.93359 1368.5341 250.93359 1358.8008 C 250.93359 1346.8008 241.06628 1340.2676 227.59961 1340.2676 z M 172 1341.1992 L 163.19922 1343.8672 C 165.19922 1348.1339 166.26758 1355.0658 166.26758 1361.7324 C 166.26758 1381.3324 158.80078 1403.4668 148.80078 1403.4668 C 144.66745 1403.4668 142.93359 1401.1991 142.93359 1395.7324 C 142.93359 1393.4658 143.06628 1390.9329 143.59961 1387.5996 L 151.06641 1341.8672 L 142 1341.8672 L 134.40039 1385.8672 C 133.73372 1389.3339 132.53333 1394.6661 130 1398.1328 C 127.6 1401.3328 125.0668 1403.4668 121.4668 1403.4668 C 117.60013 1403.4668 115.4668 1401.2005 115.4668 1395.8672 C 115.4668 1393.4672 115.73424 1390.6663 116.26758 1387.5996 L 123.73242 1341.8672 L 114.40039 1341.8672 L 106.5332 1389.4668 C 105.99987 1392.9335 105.73242 1395.6004 105.73242 1398.4004 C 105.73242 1406.6671 109.73242 1412 117.73242 1412 C 126.13242 1412 130.79935 1406.6667 134.66602 1398 L 135.33398 1398 C 134.66732 1408.4 139.46602 1412 146.66602 1412 C 153.99935 1412 160.39922 1408.5339 165.19922 1401.8672 C 171.86589 1392.5339 175.59961 1377.1992 175.59961 1361.1992 C 175.59961 1353.0659 174.13333 1345.8659 172 1341.1992 z M 226.66602 1348.9336 C 236.66602 1348.9336 240.26758 1353.5992 240.26758 1359.1992 C 240.26758 1365.8659 235.19961 1373.4665 201.59961 1374.5332 L 201.73242 1373.1992 C 203.73242 1357.5992 212.79935 1348.9336 226.66602 1348.9336 z M 456.93359 1393.7324 C 450.13359 1393.7324 446.93281 1396.7996 446.13281 1401.5996 C 445.86615 1403.1996 445.59961 1404.8005 445.59961 1405.8672 C 445.59961 1409.2005 448.00091 1411.8672 454.26758 1411.8672 C 461.06758 1411.8672 464.26641 1408.8 465.06641 1404 C 465.33307 1402.4 465.59961 1400.7991 465.59961 1399.7324 C 465.59961 1396.3991 463.20026 1393.7324 456.93359 1393.7324 z M 546.80078 1644.2676 C 541.46745 1644.2676 538.66667 1646.666 538 1650.666 C 537.73333 1652.266 537.4668 1653.4665 537.4668 1654.5332 C 537.4668 1657.3332 539.46589 1659.8672 545.19922 1659.8672 C 550.53255 1659.8672 553.33333 1657.4668 554 1653.4668 C 554.26667 1651.8668 554.5332 1650.6663 554.5332 1649.5996 C 554.5332 1646.7996 552.53411 1644.2676 546.80078 1644.2676 z M 866.5332 1644.2676 C 861.19987 1644.2676 858.39909 1646.666 857.73242 1650.666 C 857.46576 1652.266 857.19922 1653.4665 857.19922 1654.5332 C 857.19922 1657.3332 859.20026 1659.8672 864.93359 1659.8672 C 870.26693 1659.8672 873.06576 1657.4668 873.73242 1653.4668 C 873.99909 1651.8668 874.26758 1650.6663 874.26758 1649.5996 C 874.26758 1646.7996 872.26654 1644.2676 866.5332 1644.2676 z M 1106.5332 1644.2676 C 1101.1999 1644.2676 1098.3991 1646.666 1097.7324 1650.666 C 1097.4658 1652.266 1097.1992 1653.4665 1097.1992 1654.5332 C 1097.1992 1657.3332 1099.2003 1659.8672 1104.9336 1659.8672 C 1110.2669 1659.8672 1113.0658 1657.4668 1113.7324 1653.4668 C 1113.9991 1651.8668 1114.2676 1650.6663 1114.2676 1649.5996 C 1114.2676 1646.7996 1112.2665 1644.2676 1106.5332 1644.2676 z M 1906 1644.2676 C 1900.6667 1644.2676 1897.8659 1646.666 1897.1992 1650.666 C 1896.9326 1652.266 1896.666 1653.4665 1896.666 1654.5332 C 1896.666 1657.3332 1898.6671 1659.8672 1904.4004 1659.8672 C 1909.7337 1659.8672 1912.5326 1657.4668 1913.1992 1653.4668 C 1913.4659 1651.8668 1913.7324 1650.6663 1913.7324 1649.5996 C 1913.7324 1646.7996 1911.7333 1644.2676 1906 1644.2676 z M 647.4668 1645.334 L 640.40039 1687.1992 L 640 1687.1992 C 637.06667 1678.2659 630.00052 1673.5996 619.86719 1673.5996 C 595.60052 1673.5996 587.33398 1700.5336 587.33398 1718.9336 C 587.33398 1736.5336 594.93411 1745.5996 608.80078 1745.5996 C 620.93411 1745.5996 627.86589 1738.5324 633.19922 1727.7324 L 633.59961 1727.7324 L 630.93359 1744 L 641.33398 1744 L 657.86719 1645.334 L 647.4668 1645.334 z M 807.19922 1645.334 L 800.13281 1687.1992 L 799.73242 1687.1992 C 796.79909 1678.2659 789.73294 1673.5996 779.59961 1673.5996 C 755.33294 1673.5996 747.06641 1700.5336 747.06641 1718.9336 C 747.06641 1736.5336 754.66654 1745.5996 768.5332 1745.5996 C 780.66654 1745.5996 787.60026 1738.5324 792.93359 1727.7324 L 793.33398 1727.7324 L 790.66602 1744 L 801.06641 1744 L 817.59961 1645.334 L 807.19922 1645.334 z M 962 1645.334 C 951.73333 1645.334 945.86706 1651.8669 944.40039 1660.9336 L 942 1675.1992 L 917.4668 1675.1992 L 916 1684.1328 L 940.5332 1684.1328 L 927.4668 1762.4004 L 925.06641 1762.9336 L 904.5332 1741.0664 L 897.4668 1747.4668 L 905.59961 1756.4004 C 916.26628 1768.0004 920.13242 1772.2676 925.73242 1772.2676 C 933.73242 1772.2676 937.3332 1765.7342 938.5332 1758.2676 L 950.93359 1684.1328 L 978.80078 1684.1328 L 980.26758 1675.1992 L 952.40039 1675.1992 L 955.86719 1654.2676 L 983.59961 1654.2676 L 985.06641 1645.334 L 962 1645.334 z M 1042 1645.334 C 1031.7333 1645.334 1025.8671 1651.8669 1024.4004 1660.9336 L 1022 1675.1992 L 997.4668 1675.1992 L 996 1684.1328 L 1020.5332 1684.1328 L 1007.4668 1762.4004 L 1005.0664 1762.9336 L 984.5332 1741.0664 L 977.4668 1747.4668 L 985.59961 1756.4004 C 996.26628 1768.0004 1000.1324 1772.2676 1005.7324 1772.2676 C 1013.7324 1772.2676 1017.3332 1765.7342 1018.5332 1758.2676 L 1030.9336 1684.1328 L 1058.8008 1684.1328 L 1060.2676 1675.1992 L 1032.4004 1675.1992 L 1035.8672 1654.2676 L 1063.5996 1654.2676 L 1065.0664 1645.334 L 1042 1645.334 z M 1314.9336 1645.334 L 1313.4668 1654.2676 L 1337.7324 1654.2676 L 1322.8008 1731.8672 C 1322.5341 1733.0672 1322.4004 1734.9328 1322.4004 1736.1328 C 1322.4004 1741.5995 1325.2004 1745.5996 1332.4004 1745.5996 C 1337.7338 1745.5996 1342.5335 1743.3329 1355.4668 1731.5996 L 1369.334 1719.0664 L 1363.334 1713.1992 L 1336 1736.4004 L 1332.666 1735.334 L 1350 1645.334 L 1314.9336 1645.334 z M 1846.666 1645.334 L 1839.5996 1687.1992 L 1839.1992 1687.1992 C 1836.2659 1678.2659 1829.1997 1673.5996 1819.0664 1673.5996 C 1794.7997 1673.5996 1786.5332 1700.5336 1786.5332 1718.9336 C 1786.5332 1736.5336 1794.1333 1745.5996 1808 1745.5996 C 1820.1333 1745.5996 1827.0671 1738.5324 1832.4004 1727.7324 L 1832.8008 1727.7324 L 1830.1328 1744 L 1840.5332 1744 L 1857.0664 1645.334 L 1846.666 1645.334 z M 121.06641 1650.9336 L 119.59961 1659.7324 L 142.93359 1659.7324 L 130.26758 1735.1992 L 106.93359 1735.1992 L 105.4668 1744 L 163.06641 1744 L 164.5332 1735.1992 L 141.19922 1735.1992 L 153.86719 1659.7324 L 177.19922 1659.7324 L 178.66602 1650.9336 L 121.06641 1650.9336 z M 1415.7324 1650.9336 L 1412.666 1668.9336 C 1411.866 1673.6003 1409.7326 1675.1992 1405.1992 1675.1992 L 1391.1992 1675.1992 L 1389.7324 1684.1328 L 1409.5996 1684.1328 L 1401.5996 1730.5332 C 1401.3329 1731.9999 1401.1992 1734.5324 1401.1992 1735.7324 C 1401.1992 1742.1324 1404.7997 1745.5996 1411.0664 1745.5996 C 1416.5331 1745.5996 1421.8676 1742.8 1434.2676 1734 L 1449.334 1723.334 L 1444.1328 1716.666 L 1414.1328 1736.666 L 1411.4668 1735.0664 L 1420 1684.1328 L 1448.4004 1684.1328 L 1449.8672 1675.1992 L 1421.4668 1675.1992 L 1425.5996 1650.9336 L 1415.7324 1650.9336 z M 299.86719 1673.5996 C 275.60052 1673.5996 267.33398 1700.5336 267.33398 1718.9336 C 267.33398 1736.5336 274.93411 1745.5996 288.80078 1745.5996 C 300.93411 1745.5996 307.86589 1738.5324 313.19922 1727.7324 L 313.59961 1727.7324 L 310.93359 1744 L 321.33398 1744 L 332.80078 1675.1992 L 322.40039 1675.1992 L 320.40039 1687.1992 L 320 1687.1992 C 317.06667 1678.2659 310.00052 1673.5996 299.86719 1673.5996 z M 464.40039 1673.5996 C 444.26706 1673.5996 428.40039 1690.2665 428.40039 1716.5332 C 428.40039 1733.7332 437.59922 1745.5996 455.19922 1745.5996 C 475.46588 1745.5996 491.33398 1728.9327 491.33398 1702.666 C 491.33398 1685.466 482.26706 1673.5996 464.40039 1673.5996 z M 1185.0664 1673.5996 C 1165.4664 1673.5996 1149.5996 1690.2665 1149.5996 1716.5332 C 1149.5996 1733.7332 1158.5329 1745.5996 1175.5996 1745.5996 C 1189.9996 1745.5996 1198.6673 1738.1328 1207.334 1724.1328 L 1199.8672 1719.7324 C 1188.9339 1734.7991 1183.0669 1736.5332 1176.9336 1736.5332 C 1166.9336 1736.5332 1160.1328 1731.0673 1160.1328 1719.334 C 1160.1328 1717.6007 1160.2674 1716.1336 1160.8008 1712.9336 L 1162.1328 1704.9336 C 1164.5328 1690.5336 1172.1339 1682.666 1183.8672 1682.666 C 1192.4005 1682.666 1197.4661 1685.1996 1200.1328 1693.5996 L 1209.0664 1690.1328 C 1206.6664 1681.0661 1199.5997 1673.5996 1185.0664 1673.5996 z M 1666.666 1673.5996 C 1644.5327 1673.5996 1628.8008 1691.1995 1628.8008 1716.1328 C 1628.8008 1735.8661 1638.6667 1745.5996 1656 1745.5996 C 1670.5333 1745.5996 1679.8663 1738.6667 1687.5996 1726 L 1680.2656 1721.4668 C 1672.5323 1732.4001 1666.8003 1736.666 1656.9336 1736.666 C 1642.5336 1736.666 1639.7324 1727.7328 1639.7324 1718.1328 C 1639.7324 1717.8661 1639.7339 1716.3997 1639.8672 1715.0664 C 1683.7339 1713.8664 1690 1701.8661 1690 1692.1328 C 1690 1680.1328 1680.1327 1673.5996 1666.666 1673.5996 z M 1739.0664 1673.5996 C 1714.7997 1673.5996 1706.5332 1700.5336 1706.5332 1718.9336 C 1706.5332 1736.5336 1714.1333 1745.5996 1728 1745.5996 C 1740.1333 1745.5996 1747.0671 1738.5324 1752.4004 1727.7324 L 1752.8008 1727.7324 L 1750.1328 1744 L 1760.5332 1744 L 1772 1675.1992 L 1761.5996 1675.1992 L 1759.5996 1687.1992 L 1759.1992 1687.1992 C 1756.2659 1678.2659 1749.1997 1673.5996 1739.0664 1673.5996 z M 1989.5996 1673.5996 C 1978.5329 1673.5996 1971.7327 1680.5335 1966.666 1691.4668 L 1966.1328 1691.4668 L 1968.8008 1675.1992 L 1958.4004 1675.1992 L 1946.9336 1744 L 1957.334 1744 L 1963.7324 1706 C 1965.0658 1698.1333 1970.1329 1692.0009 1971.5996 1690.2676 C 1975.4663 1685.7342 1980.1328 1682.8008 1986.1328 1682.8008 C 1993.8661 1682.8008 1997.5996 1687.8667 1997.5996 1696 C 1997.5996 1697.4667 1997.4669 1700.134 1996.9336 1703.334 L 1990.1328 1744 L 2000.5332 1744 L 2007.4668 1702.4004 C 2008.0001 1699.3337 2008.2656 1696.1335 2008.2656 1693.4668 C 2008.2656 1680.9335 2001.0663 1673.5996 1989.5996 1673.5996 z M 2059.0664 1673.5996 C 2035.3331 1673.5996 2026.666 1699.4659 2026.666 1717.1992 C 2026.666 1733.9992 2034.1323 1743.334 2048.2656 1743.334 C 2060.399 1743.334 2067.6008 1736.5335 2072.8008 1725.4668 L 2073.334 1725.4668 L 2070.5332 1742 C 2067.9999 1757.2 2060.5333 1763.0664 2048 1763.0664 C 2039.6 1763.0664 2034.0004 1760.4005 2030.4004 1755.8672 L 2023.1992 1762.8008 C 2028.1326 1768.9341 2036.2673 1772.2676 2047.334 1772.2676 C 2064.534 1772.2676 2077.0665 1764.2667 2080.5332 1744 L 2092 1675.1992 L 2081.5996 1675.1992 L 2079.5996 1687.1992 L 2079.1992 1687.1992 C 2076.2659 1678.2659 2069.1997 1673.5996 2059.0664 1673.5996 z M 407.59961 1674.4004 L 397.59961 1677.334 C 400.13294 1682.2673 401.33398 1688.2676 401.33398 1694.2676 C 401.33398 1714.1342 389.73294 1734.0003 367.59961 1736.9336 L 365.86719 1735.7324 L 374.93359 1675.1992 L 350.13281 1675.1992 L 348.66602 1684.1328 L 363.33398 1684.1328 L 356.40039 1730.5332 C 356.13372 1732.1332 355.86719 1734.1335 355.86719 1735.4668 C 355.86719 1741.4668 359.19948 1745.0664 366.13281 1745.0664 C 390.93281 1745.0664 412 1721.7324 412 1693.7324 C 412 1686.5324 410.39961 1679.7337 407.59961 1674.4004 z M 512.26758 1675.1992 L 510.80078 1684.1328 L 535.59961 1684.1328 L 526.5332 1731.0664 C 526.26654 1732.6664 525.86719 1734.6671 525.86719 1736.4004 C 525.86719 1741.7337 529.46615 1745.5996 536.13281 1745.5996 C 542.13281 1745.5996 547.06628 1742.4008 559.59961 1730.8008 L 571.73242 1719.5996 L 565.4668 1713.7324 L 539.19922 1736.4004 L 536.13281 1735.1992 L 547.73242 1675.1992 L 512.26758 1675.1992 z M 832 1675.1992 L 830.5332 1684.1328 L 855.33398 1684.1328 L 846.26758 1731.0664 C 846.00091 1732.6664 845.59961 1734.6671 845.59961 1736.4004 C 845.59961 1741.7337 849.20052 1745.5996 855.86719 1745.5996 C 861.86719 1745.5996 866.80065 1742.4008 879.33398 1730.8008 L 891.4668 1719.5996 L 885.19922 1713.7324 L 858.93359 1736.4004 L 855.86719 1735.1992 L 867.4668 1675.1992 L 832 1675.1992 z M 1072 1675.1992 L 1070.5332 1684.1328 L 1095.334 1684.1328 L 1086.2676 1731.0664 C 1086.0009 1732.6664 1085.5996 1734.6671 1085.5996 1736.4004 C 1085.5996 1741.7337 1089.2005 1745.5996 1095.8672 1745.5996 C 1101.8672 1745.5996 1106.8007 1742.4008 1119.334 1730.8008 L 1131.4668 1719.5996 L 1125.1992 1713.7324 L 1098.9336 1736.4004 L 1095.8672 1735.1992 L 1107.4668 1675.1992 L 1072 1675.1992 z M 1238.4004 1675.1992 L 1231.4668 1716.8008 C 1230.9335 1719.8674 1230.666 1723.0658 1230.666 1725.7324 C 1230.666 1738.2658 1237.8673 1745.5996 1249.334 1745.5996 C 1260.4007 1745.5996 1267.2009 1738.6658 1272.2676 1727.7324 L 1272.8008 1727.7324 L 1270.1328 1744 L 1280.5332 1744 L 1292 1675.1992 L 1281.5996 1675.1992 L 1275.1992 1713.1992 C 1273.8659 1721.0659 1268.8007 1727.2003 1267.334 1728.9336 C 1263.4673 1733.4669 1258.8008 1736.4004 1252.8008 1736.4004 C 1245.0674 1736.4004 1241.334 1731.3326 1241.334 1723.1992 C 1241.334 1721.7326 1241.4667 1719.0672 1242 1715.8672 L 1248.8008 1675.1992 L 1238.4004 1675.1992 z M 1554.9336 1675.1992 L 1553.4668 1684.1328 L 1572.8008 1684.1328 L 1562.8008 1744 L 1573.1992 1744 L 1579.1992 1708.1328 C 1580.5326 1700.1328 1585.3331 1694.5332 1587.0664 1692.5332 C 1591.1997 1687.7332 1596.1328 1685.5996 1604.1328 1685.5996 L 1615.8672 1685.5996 L 1617.5996 1675.1992 L 1607.1992 1675.1992 C 1593.9992 1675.1992 1587.0656 1682.6663 1582.2656 1693.5996 L 1581.5996 1693.5996 L 1584.666 1675.1992 L 1554.9336 1675.1992 z M 1871.4668 1675.1992 L 1870 1684.1328 L 1894.8008 1684.1328 L 1885.7324 1731.0664 C 1885.4658 1732.6664 1885.0664 1734.6671 1885.0664 1736.4004 C 1885.0664 1741.7337 1888.6673 1745.5996 1895.334 1745.5996 C 1901.334 1745.5996 1906.2674 1742.4008 1918.8008 1730.8008 L 1930.9336 1719.5996 L 1924.666 1713.7324 L 1898.4004 1736.4004 L 1895.334 1735.1992 L 1906.9336 1675.1992 L 1871.4668 1675.1992 z M 1665.7324 1682.2676 C 1675.7324 1682.2676 1679.334 1686.9332 1679.334 1692.5332 C 1679.334 1699.1999 1674.266 1706.8005 1640.666 1707.8672 L 1640.8008 1706.5332 C 1642.8008 1690.9332 1651.8658 1682.2676 1665.7324 1682.2676 z M 464 1682.666 C 474.26667 1682.666 480.80078 1687.9996 480.80078 1699.5996 C 480.80078 1701.1996 480.66615 1703.2004 480.13281 1706.4004 L 478.80078 1714.4004 C 476.53411 1728.0004 468.66575 1736.5332 455.73242 1736.5332 C 445.46576 1736.5332 438.93359 1731.1996 438.93359 1719.5996 C 438.93359 1717.9996 439.06628 1716.0008 439.59961 1712.8008 L 440.93359 1704.8008 C 443.20026 1691.2008 451.06667 1682.666 464 1682.666 z M 302.93359 1682.8008 C 313.20026 1682.8008 320.26602 1688.2672 318.66602 1697.8672 L 316.13281 1713.0664 C 315.06615 1719.4664 311.99987 1724.9341 308.5332 1728.8008 C 303.7332 1734.1341 298.13372 1736.4004 292.40039 1736.4004 C 282.80039 1736.4004 277.86719 1730.2667 277.86719 1720 C 277.86719 1718.2667 278.00039 1716.4 278.40039 1714 L 280 1704.4004 C 282.13333 1691.6004 289.73359 1682.8008 302.93359 1682.8008 z M 622.93359 1682.8008 C 633.20026 1682.8008 640.26602 1688.2672 638.66602 1697.8672 L 636.13281 1713.0664 C 635.06615 1719.4664 631.99987 1724.9341 628.5332 1728.8008 C 623.7332 1734.1341 618.13372 1736.4004 612.40039 1736.4004 C 602.80039 1736.4004 597.86719 1730.2667 597.86719 1720 C 597.86719 1718.2667 598.00039 1716.4 598.40039 1714 L 600 1704.4004 C 602.13333 1691.6004 609.73359 1682.8008 622.93359 1682.8008 z M 782.66602 1682.8008 C 792.93268 1682.8008 800.00039 1688.2672 798.40039 1697.8672 L 795.86719 1713.0664 C 794.80052 1719.4664 791.73424 1724.9341 788.26758 1728.8008 C 783.46758 1734.1341 777.86615 1736.4004 772.13281 1736.4004 C 762.53281 1736.4004 757.59961 1730.2667 757.59961 1720 C 757.59961 1718.2667 757.73281 1716.4 758.13281 1714 L 759.73242 1704.4004 C 761.86576 1691.6004 769.46602 1682.8008 782.66602 1682.8008 z M 1742.1328 1682.8008 C 1752.3995 1682.8008 1759.4672 1688.2672 1757.8672 1697.8672 L 1755.334 1713.0664 C 1754.2673 1719.4664 1751.1991 1724.9341 1747.7324 1728.8008 C 1742.9324 1734.1341 1737.3329 1736.4004 1731.5996 1736.4004 C 1721.9996 1736.4004 1717.0664 1730.2667 1717.0664 1720 C 1717.0664 1718.2667 1717.1996 1716.4 1717.5996 1714 L 1719.1992 1704.4004 C 1721.3326 1691.6004 1728.9328 1682.8008 1742.1328 1682.8008 z M 1822.1328 1682.8008 C 1832.3995 1682.8008 1839.4672 1688.2672 1837.8672 1697.8672 L 1835.334 1713.0664 C 1834.2673 1719.4664 1831.1991 1724.9341 1827.7324 1728.8008 C 1822.9324 1734.1341 1817.3329 1736.4004 1811.5996 1736.4004 C 1801.9996 1736.4004 1797.0664 1730.2667 1797.0664 1720 C 1797.0664 1718.2667 1797.1996 1716.4 1797.5996 1714 L 1799.1992 1704.4004 C 1801.3326 1691.6004 1808.9328 1682.8008 1822.1328 1682.8008 z M 2062.1328 1682.8008 C 2072.3995 1682.8008 2079.4672 1688.2672 2077.8672 1697.8672 L 2075.7324 1710.9336 C 2074.5324 1718.4003 2070.6661 1723.7332 2068.1328 1726.5332 C 2063.1995 1731.9999 2057.6005 1734.1328 2051.8672 1734.1328 C 2042.2672 1734.1328 2037.334 1728.1326 2037.334 1717.1992 C 2037.334 1715.3326 2037.6 1713.734 2038 1711.334 L 2039.1992 1704.1328 C 2041.3326 1691.3328 2049.1995 1682.8008 2062.1328 1682.8008 z M 546.93359 1810.9336 C 541.60026 1810.9336 538.79948 1813.334 538.13281 1817.334 C 537.86615 1818.934 537.59961 1820.1326 537.59961 1821.1992 C 537.59961 1823.9992 539.60065 1826.5332 545.33398 1826.5332 C 550.66732 1826.5332 553.46615 1824.1328 554.13281 1820.1328 C 554.39948 1818.5328 554.66602 1817.3342 554.66602 1816.2676 C 554.66602 1813.4676 552.66693 1810.9336 546.93359 1810.9336 z M 675.33398 1812 L 673.86719 1820.9336 L 698.13281 1820.9336 L 683.19922 1898.5332 C 682.93255 1899.7332 682.80078 1901.6008 682.80078 1902.8008 C 682.80078 1908.2674 685.60078 1912.2676 692.80078 1912.2676 C 698.13411 1912.2676 702.93385 1910.0009 715.86719 1898.2676 L 729.73242 1885.7324 L 723.73242 1879.8672 L 696.40039 1903.0664 L 693.06641 1902 L 710.40039 1812 L 675.33398 1812 z M 296.5332 1817.5996 L 293.4668 1835.5996 C 292.6668 1840.2663 290.53333 1841.8672 286 1841.8672 L 272 1841.8672 L 270.5332 1850.8008 L 290.40039 1850.8008 L 282.40039 1897.1992 C 282.13372 1898.6659 282 1901.2004 282 1902.4004 C 282 1908.8004 285.60052 1912.2676 291.86719 1912.2676 C 297.33385 1912.2676 302.66641 1909.466 315.06641 1900.666 L 330.13281 1890 L 324.93359 1883.334 L 294.93359 1903.334 L 292.26758 1901.7324 L 300.80078 1850.8008 L 329.19922 1850.8008 L 330.66602 1841.8672 L 302.26758 1841.8672 L 306.40039 1817.5996 L 296.5332 1817.5996 z M 136.40039 1840.2676 C 128.80039 1840.2676 124.6668 1845.7327 121.4668 1852.666 L 120.93359 1852.666 L 122.66602 1841.8672 L 113.06641 1841.8672 L 101.59961 1910.666 L 111.19922 1910.666 L 118.66602 1866.1328 C 119.33268 1862.1328 120.93346 1857.7328 123.4668 1854.1328 C 125.60013 1851.0661 128.66706 1848.8008 132.40039 1848.8008 C 136.13373 1848.8008 138 1851.066 138 1856.666 C 138 1858.7993 137.73255 1861.3332 137.19922 1864.5332 L 129.4668 1910.666 L 139.06641 1910.666 L 146.5332 1866.1328 C 147.19987 1862.1328 148.80065 1857.5995 151.33398 1854.1328 C 153.60065 1851.0661 156.26667 1848.8008 160 1848.8008 C 164 1848.8008 165.86719 1851.3342 165.86719 1856.2676 C 165.86719 1858.1342 165.46693 1861.3332 164.93359 1864.5332 L 157.19922 1910.666 L 166.80078 1910.666 L 174.80078 1862.8008 C 175.33411 1859.6008 175.73242 1856.0001 175.73242 1853.4668 C 175.73242 1845.0668 171.6 1840.2676 164 1840.2676 C 156 1840.2676 150.80065 1845.4673 147.33398 1853.334 L 146.93359 1853.334 C 147.46693 1845.8673 144.13372 1840.2676 136.40039 1840.2676 z M 220 1840.2676 C 195.73333 1840.2676 187.4668 1867.1996 187.4668 1885.5996 C 187.4668 1903.1996 195.06693 1912.2676 208.93359 1912.2676 C 221.06693 1912.2676 228.00065 1905.2004 233.33398 1894.4004 L 233.73242 1894.4004 L 231.06641 1910.666 L 241.4668 1910.666 L 252.93359 1841.8672 L 242.5332 1841.8672 L 240.5332 1853.8672 L 240.13281 1853.8672 C 237.19948 1844.9339 230.13333 1840.2676 220 1840.2676 z M 387.59961 1840.2676 C 365.46628 1840.2676 349.73242 1857.8674 349.73242 1882.8008 C 349.73242 1902.5341 359.60026 1912.2676 376.93359 1912.2676 C 391.46693 1912.2676 400.79987 1905.3327 408.5332 1892.666 L 401.19922 1888.1328 C 393.46589 1899.0661 387.73385 1903.334 377.86719 1903.334 C 363.46719 1903.334 360.66602 1894.4008 360.66602 1884.8008 C 360.66602 1884.5341 360.66745 1883.0658 360.80078 1881.7324 C 404.66745 1880.5324 410.93359 1868.5341 410.93359 1858.8008 C 410.93359 1846.8008 401.06628 1840.2676 387.59961 1840.2676 z M 620 1840.2676 C 595.73333 1840.2676 587.4668 1867.1996 587.4668 1885.5996 C 587.4668 1903.1996 595.06693 1912.2676 608.93359 1912.2676 C 621.06693 1912.2676 628.00065 1905.2004 633.33398 1894.4004 L 633.73242 1894.4004 L 631.06641 1910.666 L 641.4668 1910.666 L 652.93359 1841.8672 L 642.5332 1841.8672 L 640.5332 1853.8672 L 640.13281 1853.8672 C 637.19948 1844.9339 630.13333 1840.2676 620 1840.2676 z M 435.86719 1841.8672 L 434.40039 1850.8008 L 453.73242 1850.8008 L 443.73242 1910.666 L 454.13281 1910.666 L 460.13281 1874.8008 C 461.46615 1866.8008 466.26667 1861.1992 468 1859.1992 C 472.13333 1854.3992 477.06641 1852.2676 485.06641 1852.2676 L 496.80078 1852.2676 L 498.5332 1841.8672 L 488.13281 1841.8672 C 474.93281 1841.8672 467.99922 1849.3342 463.19922 1860.2676 L 462.5332 1860.2676 L 465.59961 1841.8672 L 435.86719 1841.8672 z M 512.40039 1841.8672 L 510.93359 1850.8008 L 535.73242 1850.8008 L 526.66602 1897.7324 C 526.39935 1899.3324 526 1901.3331 526 1903.0664 C 526 1908.3997 529.60091 1912.2676 536.26758 1912.2676 C 542.26758 1912.2676 547.19909 1909.0668 559.73242 1897.4668 L 571.86719 1886.2676 L 565.59961 1880.4004 L 539.33398 1903.0664 L 536.26758 1901.8672 L 547.86719 1841.8672 L 512.40039 1841.8672 z M 386.66602 1848.9336 C 396.66602 1848.9336 400.26758 1853.5992 400.26758 1859.1992 C 400.26758 1865.8659 395.19961 1873.4665 361.59961 1874.5332 L 361.73242 1873.1992 C 363.73242 1857.5992 372.79935 1848.9336 386.66602 1848.9336 z M 223.06641 1849.4668 C 233.33307 1849.4668 240.40078 1854.9332 238.80078 1864.5332 L 236.26758 1879.7324 C 235.20091 1886.1324 232.13268 1891.6001 228.66602 1895.4668 C 223.86602 1900.8001 218.26654 1903.0664 212.5332 1903.0664 C 202.9332 1903.0664 198 1896.9327 198 1886.666 C 198 1884.9327 198.1332 1883.066 198.5332 1880.666 L 200.13281 1871.0664 C 202.26615 1858.2664 209.86641 1849.4668 223.06641 1849.4668 z M 623.06641 1849.4668 C 633.33307 1849.4668 640.40078 1854.9332 638.80078 1864.5332 L 636.26758 1879.7324 C 635.20091 1886.1324 632.13268 1891.6001 628.66602 1895.4668 C 623.86602 1900.8001 618.26654 1903.0664 612.5332 1903.0664 C 602.9332 1903.0664 598 1896.9327 598 1886.666 C 598 1884.9327 598.1332 1883.066 598.5332 1880.666 L 600.13281 1871.0664 C 602.26615 1858.2664 609.86641 1849.4668 623.06641 1849.4668 z M 776.5332 1893.7324 C 769.7332 1893.7324 766.53242 1896.7996 765.73242 1901.5996 C 765.46576 1903.1996 765.19922 1904.8005 765.19922 1905.8672 C 765.19922 1909.2005 767.60052 1911.8672 773.86719 1911.8672 C 780.66719 1911.8672 783.86602 1908.8 784.66602 1904 C 784.93268 1902.4 785.19922 1900.7991 785.19922 1899.7324 C 785.19922 1896.3991 782.79987 1893.7324 776.5332 1893.7324 z M 1668.9473 1993.6289 C 1667.9412 1993.6117 1666.9224 1994.0969 1666.3438 1995.1562 L 1649.2715 2026.4121 C 1648.4955 2028.0734 1649.4213 2030.0369 1651.1973 2030.4902 C 1650.0213 2031.0169 1649.7081 2031.2244 1648.4121 2031.7871 C 1640.7241 2035.1364 1624.9998 2037.1929 1601.3691 2040.2969 C 1577.7398 2043.4009 1546.0572 2047.724 1505.5625 2056.3066 C 1424.5265 2073.4786 1360.584 2098.6152 1360.584 2098.6152 C 1359.0733 2099.2032 1358.3324 2100.9068 1358.9258 2102.4121 C 1359.5204 2103.9174 1361.2193 2104.6564 1362.7246 2104.0684 C 1362.7246 2104.0684 1373.0158 2100.0357 1390.3691 2094.1504 C 1389.4065 2099.3384 1387.0782 2112.1085 1384.7969 2128.2285 C 1383.3955 2138.1498 1382.1773 2148.3608 1381.6973 2156.7715 C 1381.4533 2160.9742 1381.3897 2164.7188 1381.5977 2167.8281 C 1381.8057 2170.9375 1382.0728 2173.3488 1383.4941 2175.4688 C 1384.6715 2177.2341 1386.6369 2178.3854 1388.5742 2178.6094 C 1390.5062 2178.8334 1392.3323 2178.3597 1394.0977 2177.625 C 1397.635 2176.161 1401.1398 2173.5045 1404.4531 2170.6191 C 1411.0825 2164.8431 1416.7969 2158.0215 1416.7969 2158.0215 C 1417.8382 2156.7815 1417.6775 2154.9325 1416.4375 2153.8965 C 1415.1975 2152.8552 1413.3552 2153.0152 1412.3125 2154.2539 C 1412.3125 2154.2539 1406.7654 2160.8386 1400.6094 2166.1973 C 1397.5307 2168.8799 1394.2549 2171.2188 1391.8496 2172.2188 C 1390.6509 2172.7134 1389.7127 2172.8444 1389.25 2172.7871 C 1388.7807 2172.7351 1388.7074 2172.7289 1388.3594 2172.2129 C 1388.254 2172.0569 1387.6246 2170.1455 1387.4473 2167.4375 C 1387.2646 2164.7295 1387.3122 2161.1662 1387.5469 2157.1035 C 1388.0109 2148.9888 1389.207 2138.8861 1390.5977 2129.0527 C 1393.2337 2110.3967 1396.3737 2093.782 1396.707 2092.0273 C 1422.9724 2083.3127 1462.2506 2071.4725 1506.7812 2062.0352 C 1547.0572 2053.5045 1578.5314 2049.2022 1602.1367 2046.1035 C 1625.7407 2042.9995 1641.3326 2041.2661 1650.7539 2037.1621 C 1667.9632 2029.6674 1675.2539 2025.3281 1675.2539 2025.3281 C 1675.7646 2025.0215 1676.1779 2024.5682 1676.4219 2024.0215 C 1676.6672 2023.4735 1676.7407 2022.8692 1676.6367 2022.2812 L 1671.7969 1996.0273 C 1671.5126 1994.5033 1670.2408 1993.651 1668.9473 1993.6289 z M 1667.5312 2005.207 L 1667.7598 2006.4531 C 1667.5838 2006.2451 1667.3739 2006.0628 1667.1445 2005.9121 L 1667.5312 2005.207 z M 1660.3555 2018.3438 C 1660.5061 2019.2704 1661.0935 2020.0689 1661.9375 2020.4902 L 1658.3848 2021.9531 L 1660.3555 2018.3438 z M 1231.1895 2070.4297 C 1221.5847 2070.5498 1211.7842 2071.6727 1202.4258 2073.6094 C 1159.6031 2082.4694 1139.6875 2107.4648 1139.6875 2107.4648 C 1138.3688 2109.1315 1139.2142 2111.6031 1141.2715 2112.1191 L 1149.375 2114.1562 C 1150.943 2114.5522 1152.5351 2113.5993 1152.9258 2112.0273 C 1153.3218 2110.4593 1152.3694 2108.8687 1150.8027 2108.4727 L 1147.4902 2107.6445 C 1154.1316 2100.9632 1171.9699 2085.8904 1203.6152 2079.3438 C 1224.1726 2075.0878 1247.1196 2075.0674 1264.0156 2080.8848 C 1272.4636 2083.7914 1279.3537 2088.1148 1283.9004 2093.9121 C 1288.4471 2099.7081 1290.8063 2106.9998 1290.0156 2116.5625 C 1288.3796 2136.3545 1281.4739 2150.8123 1270.9219 2161.6562 C 1260.3752 2172.5002 1246.0461 2179.7403 1229.4688 2184.459 C 1212.8901 2189.1777 1198.8431 2189.9214 1189.6191 2188.8027 C 1185.0045 2188.2454 1181.5834 2187.1623 1179.8848 2186.1836 C 1179.1874 2185.7769 1179 2185.5169 1178.8906 2185.3809 C 1181.8493 2180.0222 1189.0469 2172.6562 1189.0469 2172.6562 C 1190.1975 2171.5216 1190.2084 2169.6663 1189.0684 2168.5156 C 1187.9324 2167.369 1186.0778 2167.3595 1184.9258 2168.4941 C 1184.9258 2168.4941 1177.1979 2175.9645 1173.5059 2182.9219 C 1172.7085 2184.4325 1172.7245 2186.4941 1173.5059 2187.9688 C 1174.2925 2189.4367 1175.5158 2190.4206 1176.9531 2191.2539 C 1179.8225 2192.9112 1183.8033 2193.9991 1188.918 2194.6191 C 1199.1366 2195.8591 1213.8177 2195.0057 1231.0684 2190.0938 C 1248.3124 2185.1831 1263.6351 2177.5469 1275.1191 2165.7402 C 1280.1445 2160.5789 1284.4123 2154.6151 1287.7656 2147.7871 L 1287.7715 2147.7871 C 1288.2462 2146.8124 1288.7072 2145.8232 1289.1445 2144.8125 C 1292.6765 2136.7298 1294.9901 2127.505 1295.8555 2117.041 C 1296.7501 2106.245 1293.9524 2097.2342 1288.5098 2090.2969 C 1283.0671 2083.3595 1275.1312 2078.5157 1265.9219 2075.3438 C 1255.5659 2071.7783 1243.5384 2070.2752 1231.1895 2070.4297 z M 1206.6836 2081.0156 C 1205.0689 2080.917 1203.6768 2082.1451 1203.5781 2083.7598 L 1197.4727 2182.1191 C 1197.374 2183.7338 1198.6041 2185.1259 1200.2188 2185.2246 C 1201.2601 2185.2926 1202.2592 2184.7925 1202.8379 2183.9219 C 1203.1246 2183.4899 1203.2916 2182.9945 1203.3223 2182.4785 L 1209.4258 2084.1191 C 1209.5258 2082.5045 1208.2983 2081.1143 1206.6836 2081.0156 z M 1510.7285 2127.1895 C 1509.6712 2127.161 1508.5957 2127.6818 1508.0352 2128.8438 C 1508.0352 2128.8438 1503.8068 2137.5727 1496.4375 2146.25 C 1489.0735 2154.9313 1478.8034 2163.1619 1467.0527 2163.0312 C 1461.0941 2162.9699 1457.3021 2161.2084 1454.5781 2158.6777 C 1451.8541 2156.1511 1450.1778 2152.6887 1449.2031 2149.0527 C 1447.2605 2141.7821 1448.2754 2134.2812 1448.2754 2134.2812 C 1448.5047 2132.6773 1447.395 2131.1942 1445.791 2130.9648 C 1444.1923 2130.7408 1442.7078 2131.8486 1442.4785 2133.4473 C 1442.4785 2133.4473 1441.213 2141.8545 1443.541 2150.5625 C 1444.7077 2154.9172 1446.8071 2159.458 1450.5938 2162.9727 C 1454.3857 2166.4887 1459.8502 2168.812 1466.9902 2168.8906 C 1481.4436 2169.0466 1492.9996 2159.3543 1500.9062 2150.041 C 1503.7862 2146.645 1506.0422 2143.407 1507.9648 2140.459 C 1507.7408 2155.7403 1504.8387 2186.8649 1487 2221.1836 C 1483.5787 2227.7663 1479.8537 2234.3395 1475.9004 2240.8809 C 1460.3057 2237.3702 1441.355 2232.8172 1420.2656 2228.0625 C 1380.6456 2219.1305 1334.2246 2209.8325 1291.6152 2207.0352 C 1206.1832 2201.4205 1158.1355 2233.5107 1134.1875 2274.5 C 1122.1248 2295.14 1121.9378 2312.9832 1131.3125 2328.8379 C 1140.1789 2343.8394 1156.9898 2357.1348 1179.3535 2371.4668 L 1147.4668 2371.4668 L 1147.4668 2378.4004 L 1190.9199 2378.4004 C 1212.1688 2389.7876 1233.9768 2393.4335 1257.584 2390.9434 C 1263.88 2395.334 1270.2512 2399.1555 1276.5059 2402.1035 C 1278.2659 2412.8062 1282.9173 2422.3649 1289.5 2430.1836 C 1290.864 2431.7983 1292.3539 2433.2918 1293.8633 2434.7598 C 1288.9886 2443.6398 1286.8951 2452.4016 1287.9258 2460.7402 C 1289.6391 2474.6456 1298.6832 2486.9471 1311.4219 2497.1191 C 1325.1565 2508.0818 1346.8279 2505.9785 1370.2812 2497.9785 C 1393.7346 2489.9732 1419.3741 2475.7609 1441.5781 2460.5742 C 1454.5621 2451.6889 1465.9693 2438.4367 1476.2812 2424.166 C 1516.3066 2428.874 1544.3066 2419.5527 1544.3066 2419.5527 C 1545.0413 2419.3034 1545.6501 2418.7755 1545.9941 2418.0781 L 1546 2418.0781 C 1546.344 2417.3848 1546.4016 2416.5837 1546.1562 2415.8438 C 1545.6456 2414.3064 1543.9833 2413.4781 1542.4473 2413.9941 C 1542.4473 2413.9941 1517.01 2422.3036 1480.166 2418.5996 C 1486.4633 2409.4649 1492.4476 2400.1552 1497.8223 2391.2285 C 1500.5513 2386.6976 1503.0895 2382.4698 1505.5508 2378.4004 L 1531.0664 2378.4004 L 1531.0664 2371.4668 L 1509.7793 2371.4668 C 1511.2933 2369.0105 1512.7753 2366.63 1514.207 2364.3965 C 1526.4364 2368.5058 1536.645 2371.6711 1544.4316 2370.9004 C 1549.7236 2370.3737 1553.6031 2367.8339 1554.9258 2364.1152 C 1556.2444 2360.3966 1555.15 2356.4069 1553.0566 2352.8496 C 1548.8633 2345.7296 1540.074 2339.3341 1530.1406 2340.0527 C 1526.8553 2340.2927 1524.1034 2342.2499 1521.3594 2344.9473 C 1518.6087 2347.6446 1515.8274 2351.2604 1512.8594 2355.5938 C 1512.5047 2356.1044 1512.0936 2356.8235 1511.7402 2357.3555 C 1508.6096 2356.3128 1506.3807 2355.6612 1502.834 2354.4785 C 1496.97 2352.5265 1490.2864 2350.4203 1483.1504 2348.291 C 1484.0051 2347.2697 1484.9059 2346.2918 1485.7539 2345.2598 C 1494.6086 2334.5051 1502.6663 2325.2863 1510.3223 2316.9316 C 1531.2343 2325.2916 1549.1727 2329.2284 1564.4434 2323.3164 C 1580.8807 2316.9524 1591.1712 2311.8742 1594.8379 2304.1035 C 1596.6712 2300.2235 1596.235 2295.7399 1593.959 2291.5879 C 1591.6777 2287.4319 1587.7497 2283.2822 1582.1777 2278.5742 C 1576.2511 2273.5636 1569.3845 2271.3752 1562.1445 2272.1152 C 1554.9059 2272.8446 1547.3687 2276.2977 1539.25 2281.959 C 1530.03 2288.3857 1519.8636 2298.0158 1508.7129 2309.9785 C 1506.8596 2309.2078 1505.1888 2308.6565 1503.2715 2307.8125 C 1499.3555 2306.0792 1495.0777 2303.9888 1490.9004 2301.9941 C 1493.1871 2298.4581 1495.4536 2295.0571 1497.7402 2291.4531 C 1506.0469 2278.3438 1513.9888 2265.3327 1521.5781 2252.9727 C 1544.9728 2251.906 1561.0167 2242.4735 1568.9434 2228.1309 C 1571.4487 2223.5989 1572.718 2218.099 1572.9727 2212.7656 C 1573.2287 2207.4323 1572.5209 2202.2755 1570.4062 2198.2969 C 1569.3489 2196.3022 1567.8808 2194.5525 1565.8555 2193.5059 C 1563.8235 2192.4539 1561.3075 2192.2698 1558.8809 2193.0098 C 1554.0275 2194.4884 1549.2023 2198.9726 1543.4316 2207.3633 C 1537.1396 2216.5206 1528.1393 2231.0878 1518.166 2247.3438 C 1514.8327 2247.3637 1511.3287 2247.2234 1507.6367 2246.8848 C 1501.8967 2246.3634 1492.6827 2244.5214 1482 2242.1934 C 1485.6307 2236.104 1489.0266 2229.9941 1492.1973 2223.8848 C 1518.0466 2174.1554 1513.5879 2129.8223 1513.5879 2129.8223 C 1513.4184 2128.17 1512.0879 2127.2261 1510.7285 2127.1895 z M 1349.4727 2154.9375 C 1347.8593 2154.9122 1346.5261 2156.1964 1346.4941 2157.8164 C 1346.0981 2180.1297 1328.2124 2194.2031 1309.207 2194.6777 C 1304.863 2194.7871 1302.5473 2193.3911 1300.75 2191.0938 C 1298.9593 2188.7924 1297.88 2185.3288 1297.416 2181.6621 C 1296.4947 2174.3288 1297.9375 2166.6191 1297.9375 2166.6191 C 1298.2455 2165.0298 1297.2032 2163.4942 1295.6152 2163.1875 C 1294.0312 2162.8795 1292.4942 2163.9204 1292.1875 2165.5098 C 1292.1875 2165.5098 1290.5262 2173.828 1291.6035 2182.3906 C 1292.1448 2186.6773 1293.3447 2191.1253 1296.1367 2194.6973 C 1298.9221 2198.2653 1303.4848 2200.6818 1309.3555 2200.5352 C 1325.7408 2200.1298 1341.4783 2190.6605 1348.5156 2175.2285 C 1350.8636 2170.0818 1352.2408 2164.2765 1352.3555 2157.9219 C 1352.3808 2156.3032 1351.0927 2154.9695 1349.4727 2154.9375 z M 1562.0859 2198.3867 C 1562.4903 2198.4134 1562.8229 2198.5318 1563.1562 2198.7031 C 1563.8229 2199.0471 1564.5618 2199.7858 1565.2285 2201.0352 C 1566.5565 2203.5405 1567.3378 2207.9118 1567.1191 2212.4785 C 1566.9311 2216.4732 1566.0101 2220.6303 1564.4941 2223.9316 L 1564.5 2223.9316 C 1564.292 2224.4063 1564.0472 2224.859 1563.8125 2225.291 C 1557.3752 2236.9363 1544.8335 2245.1614 1525.3281 2246.9121 C 1534.4788 2232.0161 1542.5464 2218.9903 1548.2598 2210.6836 C 1553.6718 2202.8076 1558.1092 2199.3699 1560.5879 2198.6152 C 1561.2052 2198.4252 1561.6816 2198.3601 1562.0859 2198.3867 z M 1272.2812 2212.2422 C 1278.3683 2212.242 1284.6836 2212.4503 1291.2344 2212.8809 C 1333.2704 2215.6409 1379.4633 2224.8687 1418.9727 2233.7754 C 1439.0513 2238.3021 1457.2556 2242.7196 1472.4902 2246.1836 C 1465.1462 2257.8236 1456.8128 2269.2765 1447.2715 2280.4219 C 1436.3808 2275.0059 1425.0724 2269.4698 1412.8164 2263.8965 C 1376.3897 2247.3285 1335.9435 2245.7758 1301.3555 2254.3691 C 1266.7608 2262.9585 1237.8607 2281.6608 1224.834 2306.3848 C 1218.298 2318.7968 1217.1823 2331.1095 1219.8223 2342.4375 C 1222.3076 2353.0966 1228.0183 2362.8684 1235.3652 2371.4668 L 1227.4668 2371.4668 L 1227.4668 2378.4004 L 1241.9141 2378.4004 C 1244.5689 2380.9765 1247.338 2383.4372 1250.207 2385.75 C 1234.2098 2386.6247 1219.2809 2384.361 1204.6191 2378.4004 L 1211.4668 2378.4004 L 1211.4668 2371.4668 L 1190.4941 2371.4668 C 1189.1075 2370.6657 1187.721 2369.8372 1186.334 2368.9648 C 1162.2927 2353.8448 1144.7821 2340.1101 1136.3555 2325.8555 C 1127.9275 2311.6048 1127.8793 2296.9171 1139.25 2277.4531 C 1160.3708 2241.3033 1200.4546 2212.2448 1272.2812 2212.2422 z M 1478.5977 2247.4941 C 1490.327 2250.0821 1500.416 2252.1153 1507.1094 2252.7246 C 1509.7294 2252.9593 1512.1673 2252.9725 1514.6406 2253.0352 C 1507.5886 2264.5258 1500.4003 2276.3057 1492.791 2288.3164 C 1490.3683 2292.1391 1487.9701 2295.7452 1485.5527 2299.4785 C 1475.4074 2294.5265 1464.3448 2288.9582 1452.6621 2283.1035 C 1462.5061 2271.4995 1471.0777 2259.5781 1478.5977 2247.4941 z M 1342.25 2255.1074 C 1364.9607 2254.9304 1388.4798 2259.261 1410.3906 2269.2285 C 1422.0266 2274.5152 1432.8181 2279.7875 1443.2461 2284.9648 C 1428.9594 2300.9222 1411.9482 2316.0469 1391.5215 2329.8496 C 1368.8282 2326.4536 1348.593 2323.8858 1332.625 2325.7031 C 1310.245 2328.2551 1293.5847 2339.3182 1282.0273 2364.8809 C 1281.0239 2367.0983 1280.1702 2369.2924 1279.4395 2371.4668 L 1243.2754 2371.4668 C 1242.5471 2370.7149 1241.8325 2369.951 1241.1367 2369.1719 C 1233.5887 2360.7239 1227.8806 2351.1934 1225.5312 2341.1094 C 1223.1833 2331.0267 1224.0882 2320.3699 1230.0215 2309.1152 C 1241.9322 2286.5006 1269.375 2268.3501 1302.7656 2260.0527 C 1315.2891 2256.9432 1328.6236 2255.2136 1342.25 2255.1074 z M 224.26758 2257.1992 C 215.46758 2257.1992 212.40039 2261.1999 212.40039 2266.5332 L 212.40039 2270.4004 C 212.40039 2275.6004 215.46758 2279.7324 224.26758 2279.7324 C 233.06758 2279.7324 236.13281 2275.6004 236.13281 2270.4004 L 236.13281 2266.5332 C 236.13281 2261.1999 233.06758 2257.1992 224.26758 2257.1992 z M 141.33398 2262.666 C 120.26732 2262.666 107.86719 2273.0669 107.86719 2290.9336 C 107.86719 2304.5336 114.93294 2314.7996 131.59961 2317.5996 L 141.33398 2319.1992 C 150.40065 2320.6659 153.86719 2323.7342 153.86719 2330.2676 C 153.86719 2338.2676 148.66589 2342.666 139.19922 2342.666 C 130.93255 2342.666 122.53242 2339.1991 115.73242 2331.7324 L 104.13281 2344.5332 C 111.19948 2353.3332 123.06653 2358.9336 138.5332 2358.9336 C 161.86654 2358.9336 174.13281 2346.1327 174.13281 2328.666 C 174.13281 2313.9993 165.46654 2305.1999 150.5332 2302.5332 L 140.80078 2300.8008 C 131.73411 2299.2008 128 2296.4 128 2290 C 128 2282.6667 132.53346 2278.9336 141.4668 2278.9336 C 149.8668 2278.9336 156.79909 2282.2658 161.73242 2287.7324 L 173.06641 2275.0664 C 166.53307 2267.4664 155.60065 2262.666 141.33398 2262.666 z M 525.86719 2264.2676 L 525.86719 2280.4004 C 525.86719 2286.5337 523.59909 2288.5332 517.73242 2288.5332 L 505.59961 2288.5332 L 505.59961 2303.8672 L 524.26758 2303.8672 L 524.26758 2337.4668 C 524.26758 2349.0668 531.06732 2357.334 545.33398 2357.334 L 570.80078 2357.334 L 570.80078 2342 L 544 2342 L 544 2303.8672 L 570.80078 2303.8672 L 570.80078 2288.5332 L 544 2288.5332 L 544 2264.2676 L 525.86719 2264.2676 z M 321.86719 2275.334 C 315.33385 2275.334 311.33398 2279.3327 311.33398 2284.666 L 311.33398 2288.4004 C 307.73398 2287.4671 303.59922 2286.9336 299.19922 2286.9336 C 281.19922 2286.9336 269.33398 2295.4668 269.33398 2311.4668 C 269.33398 2321.6001 274.13424 2328.7993 282.26758 2332.666 L 282.26758 2333.4668 C 274.80091 2335.2001 269.86719 2337.9993 269.86719 2344.666 C 269.86719 2350.666 273.60013 2353.7335 279.4668 2355.4668 L 279.4668 2356.2676 C 271.20013 2358.4009 266.26758 2361.9991 266.26758 2369.7324 C 266.26758 2379.0658 273.46628 2385.5996 299.59961 2385.5996 C 325.73294 2385.5996 337.73242 2378.8009 337.73242 2364.2676 C 337.73242 2352.6676 330.13372 2344.4004 310.40039 2344.4004 L 294.66602 2344.4004 C 289.19935 2344.4004 284.5332 2344.1324 284.5332 2339.7324 C 284.5332 2337.3324 286 2335.7327 288 2334.666 C 291.33333 2335.5993 295.19922 2336 299.19922 2336 C 317.33255 2336 329.33398 2327.3335 329.33398 2311.4668 C 329.33398 2301.7335 324.93346 2294.8003 317.4668 2290.9336 L 317.4668 2289.7324 L 334 2289.7324 L 334 2275.334 L 321.86719 2275.334 z M 1564.8711 2277.8223 C 1569.7611 2277.7783 1574.0857 2279.4069 1578.3965 2283.0527 C 1583.6885 2287.5221 1587.1391 2291.3489 1588.8164 2294.4062 C 1590.4937 2297.4582 1590.5783 2299.4115 1589.541 2301.6035 C 1587.473 2305.9835 1578.4535 2311.6155 1562.3281 2317.8555 C 1549.7401 2322.7301 1533.8749 2319.7547 1514.5469 2312.3027 C 1524.9482 2301.2814 1534.327 2292.531 1542.5977 2286.7656 C 1550.2337 2281.443 1556.9482 2278.5314 1562.7402 2277.9434 C 1563.4636 2277.8699 1564.1725 2277.8285 1564.8711 2277.8223 z M 389.4668 2286.9336 C 378.40013 2286.9336 372.26589 2293.3331 369.19922 2301.0664 L 368.40039 2301.0664 L 368.40039 2288.5332 L 348.66602 2288.5332 L 348.66602 2357.334 L 368.40039 2357.334 L 368.40039 2312.1328 C 368.40039 2305.4661 374.39987 2302.1328 380.5332 2302.1328 C 388.26654 2302.1328 392.13281 2306.8001 392.13281 2315.4668 L 392.13281 2357.334 L 411.86719 2357.334 L 411.86719 2312.8008 C 411.86719 2296.1341 402.6668 2286.9336 389.4668 2286.9336 z M 458.66602 2286.9336 C 443.33268 2286.9336 433.33411 2292.6671 428.80078 2300.4004 L 439.59961 2310 C 443.33294 2304.9333 448.13372 2301.334 456.40039 2301.334 C 465.46706 2301.334 468.93359 2305.5991 468.93359 2313.7324 L 468.93359 2317.1992 L 457.86719 2317.1992 C 437.73385 2317.1992 426.93359 2324.0004 426.93359 2338.4004 C 426.93359 2351.3337 435.73307 2358.9336 449.06641 2358.9336 C 459.59974 2358.9336 467.6 2354.1326 470 2345.1992 L 470.66602 2345.1992 C 471.46602 2352.9326 476.80026 2357.334 484.93359 2357.334 L 496.26758 2357.334 L 496.26758 2343.0664 L 488.66602 2343.0664 L 488.66602 2312.9336 C 488.66602 2295.6003 477.46602 2286.9336 458.66602 2286.9336 z M 779.73242 2286.9336 C 759.06576 2286.9336 746.26758 2300.6659 746.26758 2323.1992 C 746.26758 2345.1992 758.40013 2358.9336 781.4668 2358.9336 C 796.2668 2358.9336 805.60026 2353.3341 810.93359 2346.8008 L 800.26758 2335.1992 C 796.00091 2340.2659 790.26615 2343.7324 782.13281 2343.7324 C 771.59948 2343.7324 765.86719 2337.7336 765.86719 2328.9336 L 765.86719 2327.7324 L 812.93359 2327.7324 L 812.93359 2321.8672 C 812.93359 2300.4005 800.26575 2286.9336 779.73242 2286.9336 z M 859.59961 2286.9336 C 849.59961 2286.9336 845.59961 2292 845.59961 2298 L 845.59961 2302.666 C 845.59961 2308.666 849.59961 2313.7324 859.59961 2313.7324 C 869.59961 2313.7324 873.59961 2308.666 873.59961 2302.666 L 873.59961 2298 C 873.59961 2292 869.59961 2286.9336 859.59961 2286.9336 z M 1448.6367 2287.6504 C 1460.5581 2293.6144 1471.9015 2299.3442 1482.3281 2304.4375 C 1475.9375 2314.1882 1469.6314 2323.5732 1463.7461 2331.5879 C 1461.0474 2335.2652 1458.6397 2338.0631 1456.125 2341.1777 C 1444.9997 2338.5524 1433.0619 2336.0353 1419.3633 2333.9473 C 1412.1926 2332.8539 1406.7347 2332.1357 1400.1934 2331.125 C 1419.1934 2317.6663 1435.0527 2302.9944 1448.6367 2287.6504 z M 192.5332 2288.5332 L 192.5332 2303.8672 L 214.40039 2303.8672 L 214.40039 2342 L 192.5332 2342 L 192.5332 2357.334 L 254.40039 2357.334 L 254.40039 2342 L 234.13281 2342 L 234.13281 2288.5332 L 192.5332 2288.5332 z M 588.13281 2288.5332 L 588.13281 2333.0664 C 588.13281 2349.7331 597.3332 2358.9336 610.5332 2358.9336 C 621.59987 2358.9336 627.73411 2352.5341 630.80078 2344.8008 L 631.59961 2344.8008 L 631.59961 2357.334 L 651.33398 2357.334 L 651.33398 2288.5332 L 631.59961 2288.5332 L 631.59961 2333.7324 C 631.59961 2340.3991 625.60013 2343.7324 619.4668 2343.7324 C 611.73346 2343.7324 607.86719 2339.0671 607.86719 2330.4004 L 607.86719 2288.5332 L 588.13281 2288.5332 z M 669.4668 2288.5332 L 669.4668 2303.8672 L 685.33398 2303.8672 L 685.33398 2342 L 669.4668 2342 L 669.4668 2357.334 L 727.73242 2357.334 L 727.73242 2342 L 705.06641 2342 L 705.06641 2321.5996 C 705.06641 2313.3329 710.13385 2306.666 719.86719 2306.666 L 734.5332 2306.666 L 734.5332 2288.5332 L 728 2288.5332 C 714.4 2288.5332 708.53333 2297.8667 706 2308 L 705.06641 2308 L 705.06641 2288.5332 L 669.4668 2288.5332 z M 299.19922 2299.4668 C 307.06589 2299.4668 310.66602 2303.8672 310.66602 2309.8672 L 310.66602 2313.0664 C 310.66602 2319.0664 307.06589 2323.4668 299.19922 2323.4668 C 291.46589 2323.4668 288 2319.0664 288 2313.0664 L 288 2309.8672 C 288 2303.8672 291.46589 2299.4668 299.19922 2299.4668 z M 779.86719 2301.0664 C 788.40052 2301.0664 793.59961 2306.6663 793.59961 2315.5996 L 793.59961 2316.666 L 765.86719 2316.666 L 765.86719 2315.5996 C 765.86719 2306.7996 771.33385 2301.0664 779.86719 2301.0664 z M 1487.6836 2306.9531 C 1492.1623 2309.0985 1496.6969 2311.306 1500.9062 2313.166 C 1502.1556 2313.718 1503.2648 2314.0782 1504.4941 2314.6035 C 1497.1821 2322.6662 1489.5624 2331.4205 1481.2344 2341.5352 C 1479.8384 2343.2338 1478.3554 2344.8499 1476.9434 2346.5312 C 1472.3447 2345.2246 1467.5838 2343.9488 1462.4531 2342.6621 C 1464.4691 2340.0888 1466.3434 2337.9487 1468.4688 2335.0527 C 1474.5834 2326.7247 1481.0996 2317.0158 1487.6836 2306.9531 z M 458.40039 2327.8672 L 468.93359 2327.8672 L 468.93359 2336.1328 C 468.93359 2342.5328 463.46654 2346 456.5332 2346 C 450.26654 2346 446.26758 2343.466 446.26758 2338.666 L 446.26758 2336 C 446.26758 2330.6667 450.53372 2327.8672 458.40039 2327.8672 z M 1344.1504 2330.9844 C 1355.7268 2331.0113 1369.3467 2332.6229 1384.1367 2334.7129 C 1374.2607 2340.9689 1363.9004 2347.0276 1352.4004 2352.5996 C 1337.0143 2360.0549 1322.7296 2366.3799 1309.2969 2371.4668 L 1307.4668 2371.4668 L 1307.4668 2372.1602 C 1301.9958 2374.1974 1296.6687 2376.022 1291.4668 2377.6289 L 1291.4668 2371.4668 L 1285.6777 2371.4668 C 1286.1833 2370.0888 1286.7263 2368.7006 1287.3633 2367.291 C 1298.3379 2343.015 1312.3858 2333.9073 1333.2871 2331.5273 C 1336.6594 2331.143 1340.2916 2330.9754 1344.1504 2330.9844 z M 859.59961 2332.1328 C 849.59961 2332.1328 845.59961 2337.1992 845.59961 2343.1992 L 845.59961 2347.8672 C 845.59961 2353.8672 849.59961 2358.9336 859.59961 2358.9336 C 869.59961 2358.9336 873.59961 2353.8672 873.59961 2347.8672 L 873.59961 2343.1992 C 873.59961 2337.1992 869.59961 2332.1328 859.59961 2332.1328 z M 1392.8223 2335.9844 C 1401.3023 2337.255 1408.8225 2338.265 1418.4785 2339.7344 C 1430.9172 2341.6304 1441.8284 2343.8914 1452.0938 2346.2461 C 1447.7191 2351.3181 1443.7244 2355.432 1440.5684 2357.6934 C 1435.1602 2361.5655 1426.384 2366.4031 1415.6992 2371.4668 L 1387.4668 2371.4668 L 1387.4668 2378.4004 L 1400.166 2378.4004 C 1390.4568 2382.4984 1379.9513 2386.5284 1369.3555 2390.1094 C 1365.9901 2391.2454 1362.6614 2392.1409 1359.3027 2393.1836 C 1348.8601 2393.8556 1339.3913 2396.3965 1330.5273 2400.7031 C 1329.0833 2400.9951 1327.4835 2401.4699 1326.0781 2401.7246 C 1312.8115 2404.1046 1301.3231 2404.5872 1294.0938 2402.6445 C 1290.3644 2401.6445 1286.194 2400.1147 1281.834 2398.1934 C 1281.4433 2394.4534 1281.4588 2390.557 1281.9375 2386.5156 C 1290.2322 2384.3972 1298.793 2381.6722 1307.6855 2378.4004 L 1371.4668 2378.4004 L 1371.4668 2371.4668 L 1325.1621 2371.4668 C 1334.6827 2367.4433 1344.5894 2362.8942 1354.959 2357.8691 C 1368.8603 2351.1305 1381.2076 2343.7084 1392.8223 2335.9844 z M 1531.8848 2345.8672 C 1538.4794 2346.0405 1545.1146 2350.911 1548.0059 2355.8223 C 1549.5472 2358.4369 1549.8796 2360.8171 1549.4062 2362.1504 C 1549.3436 2362.3171 1549.276 2362.4832 1549.1934 2362.6445 C 1548.604 2363.7699 1547.3075 2364.7297 1543.8555 2365.0684 C 1538.2555 2365.6257 1528.8741 2362.9067 1517.4941 2359.2188 C 1517.5568 2359.1308 1517.6302 2358.9884 1517.6875 2358.9004 C 1520.5462 2354.7337 1523.1888 2351.3637 1525.4648 2349.125 C 1527.7462 2346.8903 1529.615 2345.9645 1530.5684 2345.8965 C 1531.0065 2345.8649 1531.4451 2345.8556 1531.8848 2345.8672 z M 1458.4375 2347.7285 C 1463.4535 2348.9578 1468.2237 2350.1658 1472.7344 2351.4258 C 1465.7842 2359.5216 1458.6654 2367.3705 1451.4668 2374.9023 L 1451.4668 2371.4668 L 1428.877 2371.4668 C 1434.9784 2368.2642 1440.136 2365.2053 1443.9785 2362.4531 C 1448.3065 2359.3598 1453.2402 2353.9938 1458.4375 2347.7285 z M 1478.9434 2353.1875 C 1486.97 2355.5408 1494.4838 2357.8738 1500.9785 2360.0352 C 1503.9265 2361.0205 1505.8113 2361.5992 1508.4727 2362.5059 C 1506.6743 2365.3425 1504.8162 2368.3597 1502.918 2371.4668 L 1467.0664 2371.4668 L 1467.0664 2378.4004 L 1498.7129 2378.4004 C 1496.7878 2381.591 1494.8752 2384.7631 1492.8027 2388.2031 C 1486.9427 2397.9378 1480.4112 2408.0418 1473.5352 2417.7871 C 1461.5098 2416.1404 1448.5457 2413.3431 1434.8164 2408.4004 C 1432.3591 2407.5151 1430.2087 2406.8954 1427.834 2406.082 C 1445.2033 2390.5874 1462.558 2372.4475 1478.9434 2353.1875 z M 285.19922 2360 L 308.80078 2360 C 316.80078 2360 319.06641 2362.1324 319.06641 2365.7324 C 319.06641 2370.3991 315.06615 2372.9336 306.13281 2372.9336 L 294.5332 2372.9336 C 285.86654 2372.9336 282.5332 2369.8663 282.5332 2365.5996 C 282.5332 2363.3329 283.46589 2361.4667 285.19922 2360 z M 987.4668 2371.4668 L 987.4668 2378.4004 L 1051.4668 2378.4004 L 1051.4668 2371.4668 L 987.4668 2371.4668 z M 1067.4668 2371.4668 L 1067.4668 2378.4004 L 1131.4668 2378.4004 L 1131.4668 2371.4668 L 1067.4668 2371.4668 z M 1547.0664 2371.4668 L 1547.0664 2378.4004 L 1611.0664 2378.4004 L 1611.0664 2371.4668 L 1547.0664 2371.4668 z M 1627.0664 2371.4668 L 1627.0664 2378.4004 L 1691.0664 2378.4004 L 1691.0664 2371.4668 L 1627.0664 2371.4668 z M 1707.0664 2371.4668 L 1707.0664 2378.4004 L 1771.0664 2378.4004 L 1771.0664 2371.4668 L 1707.0664 2371.4668 z M 1787.0664 2371.4668 L 1787.0664 2378.4004 L 1851.0664 2378.4004 L 1851.0664 2371.4668 L 1787.0664 2371.4668 z M 1867.0664 2371.4668 L 1867.0664 2378.4004 L 1931.0664 2378.4004 L 1931.0664 2371.4668 L 1867.0664 2371.4668 z M 1947.0664 2371.4668 L 1947.0664 2378.4004 L 2011.0664 2378.4004 L 2011.0664 2371.4668 L 1947.0664 2371.4668 z M 2027.0664 2371.4668 L 2027.0664 2378.4004 L 2091.0664 2378.4004 L 2091.0664 2371.4668 L 2027.0664 2371.4668 z M 2106.666 2371.4668 L 2106.666 2378.4004 L 2170.666 2378.4004 L 2170.666 2371.4668 L 2106.666 2371.4668 z M 1250.8066 2378.4004 L 1277.498 2378.4004 C 1277.2581 2379.4541 1277.0355 2380.504 1276.8438 2381.5469 C 1271.1771 2382.8802 1265.5528 2384.1308 1260.1621 2384.8281 C 1259.8554 2384.8641 1259.5619 2384.8748 1259.2539 2384.9121 C 1256.3736 2382.8435 1253.5395 2380.6783 1250.8066 2378.4004 z M 1283.5469 2378.4004 L 1288.9004 2378.4004 C 1286.9619 2378.9766 1285.0352 2379.5335 1283.1309 2380.0469 C 1283.2577 2379.5012 1283.4079 2378.9492 1283.5469 2378.4004 z M 1414.6641 2378.4004 L 1448.1094 2378.4004 C 1439.2471 2387.5095 1430.2758 2396.0938 1421.3379 2403.9316 C 1404.7019 2398.541 1389.954 2394.8916 1376.918 2393.5742 C 1390.3295 2388.8423 1403.3409 2383.5828 1414.6641 2378.4004 z M 1276.0625 2387.666 C 1275.8492 2390.1927 1275.7594 2392.6774 1275.8594 2395.1094 C 1272.5727 2393.4267 1269.3275 2391.7353 1265.9941 2389.6406 C 1269.3021 2389.1046 1272.6718 2388.4207 1276.0625 2387.666 z M 1366.4492 2398.8066 C 1380.4587 2398.9986 1396.7728 2402.3239 1416.1406 2408.3848 C 1413.7353 2410.4261 1411.3022 2412.6772 1408.9062 2414.5879 C 1384.7023 2433.9479 1361.5212 2446.5411 1343.7812 2447.9531 C 1329.1359 2449.1145 1313.3021 2443.5935 1301.2754 2433.5215 C 1303.9941 2429.4695 1307.26 2425.3503 1311.6934 2421.0996 C 1318.4214 2414.6516 1325.2503 2409.8648 1332.4316 2406.2715 C 1341.4423 2404.4222 1350.9013 2401.8966 1360.584 2398.918 C 1362.4935 2398.8163 1364.4479 2398.7792 1366.4492 2398.8066 z M 1283 2404.8594 C 1286.2813 2406.15 1289.6088 2407.5106 1292.5781 2408.3066 C 1299.2501 2410.0986 1308.0624 2409.7351 1317.6504 2408.5938 C 1314.2544 2411.0991 1310.902 2413.7451 1307.6406 2416.8691 C 1303.2513 2421.0785 1299.8179 2425.2929 1296.9219 2429.4902 C 1295.9325 2428.4702 1294.8958 2427.4889 1293.9785 2426.4062 C 1288.7865 2420.2343 1284.9787 2412.958 1283 2404.8594 z M 1422.6367 2410.5352 C 1426.0421 2411.6712 1429.23 2412.6148 1432.834 2413.9121 C 1445.886 2418.6148 1458.2184 2421.2981 1469.8438 2423.0527 C 1460.1824 2436.0994 1449.6835 2447.9264 1438.2715 2455.7344 C 1416.4022 2470.697 1391.068 2484.6975 1368.3906 2492.4375 C 1345.708 2500.1722 1326.0821 2501.3277 1315.0781 2492.541 C 1303.0875 2482.969 1295.1976 2471.8442 1293.7402 2460.0215 C 1292.9069 2453.2868 1294.3968 2446.1299 1298.2715 2438.6445 C 1311.3288 2449.3112 1328.1722 2455.067 1344.2402 2453.791 C 1364.2602 2452.2017 1387.9217 2438.8754 1412.5684 2419.1621 C 1415.9017 2416.4954 1419.2767 2413.4312 1422.6367 2410.5352 z "
       transform="matrix(0.75000002,0,0,0.75000002,0,-3.4368424e-5)" /></g></svg>
