<?xml version="1.0" encoding="UTF-8" standalone="no"?>
<svg
   xmlns:svg="http://www.w3.org/2000/svg"
   xmlns="http://www.w3.org/2000/svg"
   xmlns:sodipodi="http://sodipodi.sourceforge.net/DTD/sodipodi-0.dtd"
   xmlns:inkscape="http://www.inkscape.org/namespaces/inkscape"
   inkscape:version="1.1-dev (1:0.92.0+devel+202005110039+9ce7266)"
   sodipodi:docname="08.svg"
   version="1.1"
   id="svg1243"
   xml:space="preserve"
   width="2527.5789"
   height="2526.3159"
   viewBox="0 0 2527.5789 2526.3159"><sodipodi:namedview
     inkscape:current-layer="svg1243"
     inkscape:window-maximized="0"
     inkscape:window-y="30"
     inkscape:window-x="0"
     inkscape:cy="1263.158"
     inkscape:cx="1263.7894"
     inkscape:zoom="0.26956249"
     showgrid="false"
     id="namedview7"
     inkscape:window-height="480"
     inkscape:window-width="796"
     inkscape:pageshadow="2"
     inkscape:pageopacity="0"
     guidetolerance="10"
     gridtolerance="10"
     objecttolerance="10"
     borderopacity="1"
     bordercolor="#666666"
     pagecolor="#ffffff" /><defs
     id="defs1247" /><g
     style="fill:#625970;fill-opacity:1"
     id="g1249"
     transform="matrix(1.3333333,0,0,1.3333333,0,4.5824564e-5)"><g
       style="fill:#625970;fill-opacity:1"
       id="g1251"><path
         d="m 1227.824,1860.965 c -41.636,-16.313 -144.273,-51.274 -198.922,-67.758 -17.246,-5.199 -38.941,-11.914 -48.211,-14.918 -47.554,-15.422 -119.336,-46.027 -221.855,-94.601 -58.563,-27.747 -227.813,-112.79 -231.184,-116.161 -0.527,-0.527 -0.793,-6.839 -0.632,-15.164 0.218,-11.535 -0.098,-16.074 -1.668,-23.758 -7.762,-38.003 -36.504,-87.148 -105.157,-179.793 -29.265,-39.5 -38.488,-54.011 -57.261,-90.136 l -8.028,-15.446 0.477,5.149 c 1.879,20.293 3.234,50.742 2.336,52.422 -1.309,2.445 -6.129,2.547 -7.407,0.152 -0.507,-0.945 -2.011,-19.375 -3.347,-40.953 l -2.422,-39.234 -8.309,-20.125 c -24.464,-59.27 -46.339,-128.036 -66.859,-210.157 -12.437,-49.789 -27.703,-115.91 -28.742,-124.5 -1.563,-12.918 -1.289,-51.746 0.508,-72.082 11.597,-131.418 55.402,-272.609 115.882,-373.504 39.489,-65.875 82.555,-111.168 147.196,-154.808 60.117,-40.586 129.433,-74.906 217.64,-107.75 115.664,-43.067 259.606,-78.754 387.079,-95.973 44.386,-5.996 93.453,-8.426 124.503,-6.172 56.536,4.11 97.161,18.774 113.645,41.02 4.297,5.801 4.664,7.648 2,10.058 -2.731,2.469 -5.641,1.161 -9.398,-4.234 -8.59,-12.328 -32.086,-24.66 -58.973,-30.949 -39.215,-9.176 -97.238,-9.785 -161.945,-1.699 -81.79,10.222 -183.887,31.644 -273.356,57.359 -150.586,43.277 -273.144,98.492 -357.109,160.883 -39.426,29.297 -72.617,62.687 -98.438,99.035 -43.16,60.75 -77.957,135.551 -103.855,223.258 -28.02,94.875 -42.547,198.984 -35.864,256.961 0.934,8.082 7.864,37.715 26.161,111.863 16.093,65.203 31.289,117.359 47.375,162.586 10.371,29.156 18.933,50.555 19.004,47.484 0.027,-1.336 -0.774,-18.816 -1.782,-38.851 -4.394,-87.336 -6.027,-148.082 -5.375,-200.239 0.285,-22.652 0.981,-45.398 1.551,-50.546 5.492,-49.614 32.73,-150.141 75.336,-278.024 39.055,-117.234 71.262,-199.078 90.617,-230.281 26.469,-42.68 93.457,-108.266 167.949,-164.441 21.196,-15.985 40.532,-28.926 49.926,-33.418 5.992,-2.864 7.957,-3.348 13.574,-3.34 5.434,0.008 7.403,0.468 11.414,2.66 2.664,1.457 5.903,3.758 7.192,5.113 3.781,3.969 8.887,13.133 11.035,19.813 l 2,6.199 15.547,-4.563 c 121.551,-35.691 242.183,-60.039 277.672,-56.047 31.718,3.571 59.847,18.762 91.136,49.231 25.497,24.824 46.004,51.496 79.18,102.969 7.633,11.843 13.922,21.593 13.977,21.668 0.054,0.074 20.109,0.828 44.566,1.675 62.551,2.164 109.152,4.04 134.797,5.426 22.02,1.188 27.047,1.235 64.59,0.598 19.89,-0.336 20.215,-0.309 27.691,2.223 12.977,4.39 24.36,13.519 32.11,25.75 6.902,10.886 18.062,41.769 30.906,85.511 3.082,10.5 5.629,18.321 5.66,17.371 0.074,-2.367 -7.902,-42.453 -11.297,-56.781 -7.515,-31.711 -13.586,-46.184 -24.004,-57.234 -3.468,-3.676 -12.527,-11.528 -20.133,-17.446 -15.406,-11.992 -26.964,-22.921 -36.863,-34.863 -13.265,-16.004 -24.098,-23.949 -50.875,-37.301 -37.43,-18.664 -97.297,-39.257 -163.816,-56.347 -12.614,-3.239 -23.672,-6.512 -24.574,-7.274 -2.153,-1.82 -2.075,-4.152 0.21,-6.222 1.782,-1.61 2.403,-1.532 17.551,2.234 88.223,21.945 165.09,50.23 201.52,74.156 9.383,6.164 19.797,16.028 32.301,30.594 7.929,9.238 17.746,18.086 34.73,31.312 24.184,18.829 31.574,31.188 41.008,68.563 6.769,26.828 13.89,64.234 21.109,110.922 3.289,21.254 3.543,24.094 2.34,25.926 -1.207,1.847 -1.016,3.457 1.84,15.453 15.594,65.453 26.941,131.969 28.308,165.972 0.77,19.059 -0.406,35.125 -14.664,200.793 -7.316,85.051 -11.964,141.661 -14.132,172.243 -1.707,24.074 -1.34,45.273 1.328,76.757 4.023,47.485 4.722,61.754 4.73,96.422 0,52.36 -2.191,70.731 -15.91,132.926 -6.117,27.73 -16.246,69.164 -22.336,91.391 -1.797,6.554 -3.129,12.058 -2.961,12.23 0.321,0.317 31.266,-25.719 59.664,-50.203 12.227,-10.543 16.926,-14.055 18.832,-14.074 2.551,-0.031 4.481,2.125 4.481,5 0,0.769 -11.27,11.031 -25.043,22.801 -91.16,77.898 -171.344,143.781 -240.739,197.812 -26.14,20.352 -39.808,32.332 -57.226,50.145 -39.148,40.043 -69.555,86.664 -84.137,129.004 -2.113,6.14 -4.308,11.722 -4.875,12.406 -1.504,1.812 -3.16,1.531 -12.504,-2.129 v 0 z m 8.809,-14.184 c 4.019,-11.34 12.234,-29.48 18.777,-41.472 18.07,-33.118 38.668,-60.704 66.961,-89.672 19.117,-19.575 32.527,-31.254 64.121,-55.86 42.488,-33.089 89.988,-71.531 145.496,-117.75 l 24.27,-20.211 1.586,-5.898 c 0.871,-3.242 4.172,-15.457 7.336,-27.141 14.414,-53.273 29.027,-119.957 32.804,-149.699 5.371,-42.281 4.973,-86.25 -1.472,-162.777 -4.078,-48.375 -3.668,-56.668 11.363,-230.75 15.195,-175.953 16.867,-198.664 16.102,-218.574 -2.129,-55.215 -32.067,-195.172 -62.473,-292.055 -12.699,-40.461 -19.141,-55.223 -28.465,-65.254 -7.449,-8.016 -13.891,-11.902 -23.957,-14.453 -7.359,-1.867 -9.133,-1.953 -25.234,-1.231 -25.118,1.125 -34.25,1.028 -70.207,-0.761 -17.762,-0.883 -37.563,-1.84 -43.996,-2.121 -14.301,-0.633 -113.649,-4.172 -117.278,-4.18 l -2.601,-0.008 4.73,7.016 c 24.414,36.179 57.699,59.066 98.766,67.91 7.359,1.586 13.765,2.117 29.953,2.496 11.726,0.277 21.097,0.891 21.765,1.43 0.645,0.523 1.172,2.144 1.172,3.609 0,4.539 -1.945,4.895 -23.8,4.324 -16.2,-0.418 -21.75,-0.937 -31.028,-2.898 -43.457,-9.188 -78.078,-33.078 -105.07,-72.496 -3.645,-5.321 -6.789,-10.164 -6.988,-10.766 -0.262,-0.781 -13.02,-1.512 -45.219,-2.582 -24.672,-0.824 -44.981,-1.398 -45.137,-1.281 -0.152,0.117 2.797,1.91 6.555,3.98 19.59,10.809 33.551,23.91 47.48,44.555 11.133,16.496 21.539,38.601 29.516,62.691 6.691,20.215 8.715,29.036 7.109,30.973 -2.027,2.441 -5.832,1.645 -9.996,-2.094 -79.164,-71.054 -126.668,-111.48 -148.597,-126.433 -10.313,-7.036 -14.661,-8.11 -29.274,-7.243 -29.762,1.766 -80.617,12.418 -181.469,38.012 -152.656,38.738 -154.879,39.348 -176.218,48.258 -27.676,11.555 -44.196,26.242 -44.231,39.32 -0.008,3.809 2.91,10.395 6.574,14.825 4.032,4.882 4.203,5.39 2.75,8.105 -1.703,3.187 -5.843,2.316 -9.793,-2.055 -8.875,-9.82 -10.906,-22.496 -5.406,-33.672 7.004,-14.226 24.371,-26.539 53.145,-37.687 13.992,-5.418 29.558,-10.086 56.633,-16.977 11.585,-2.949 34.753,-8.863 51.488,-13.144 136.976,-35.051 187.996,-46.863 223.726,-51.793 26.7,-3.688 40.286,-3.469 48.598,0.769 12.926,6.594 60.145,45.403 121.344,99.731 13.926,12.359 26.027,23.043 26.894,23.738 1.473,1.184 1.477,0.942 0.098,-3.746 -5.859,-19.871 -19.746,-50.219 -30.133,-65.855 -11.519,-17.34 -24.394,-30.09 -39.34,-38.961 -33.386,-19.817 -77.164,-33.789 -123.246,-39.336 -15.504,-1.864 -44.824,-1.621 -55.23,0.461 -35.61,7.121 -108.918,27.617 -213.711,59.746 -35.457,10.871 -36.852,11.218 -38.614,9.625 -2.07,-1.871 -2.41,-5.36 -0.656,-6.735 1.906,-1.5 90.215,-28.328 146.731,-44.578 48.758,-14.015 81.051,-22.386 103.91,-26.941 9.105,-1.813 13.648,-2.141 29.484,-2.113 26.051,0.043 49.867,3.257 78.254,10.574 14.074,3.625 37.051,11.136 42.34,13.84 1.582,0.808 3.715,1.113 5.316,0.761 1.473,-0.324 23.032,0.102 47.907,0.946 24.879,0.843 47.019,1.398 49.199,1.23 l 3.969,-0.301 -13.36,-20.597 c -30.828,-47.52 -50.285,-72.641 -74.734,-96.469 -26.383,-25.711 -50.024,-39.664 -77.106,-45.512 -7.593,-1.636 -29.726,-1.383 -45.402,0.524 -69.25,8.422 -199.867,40.621 -304.699,75.113 -43.297,14.246 -79.063,29.863 -99.68,43.519 -11.094,7.348 -22.312,18.301 -25.777,25.168 -3.383,6.7 -4.145,15.571 -1.914,22.282 4.367,13.148 18.824,28.703 31.941,34.363 5.238,2.262 12.551,4.176 15.992,4.191 4.274,0.016 7.336,2.786 6.547,5.922 -0.836,3.328 -4.086,4.035 -12.172,2.649 -17.84,-3.063 -35.382,-15.719 -45.586,-32.891 -7.3,-12.293 -9.214,-24.141 -5.593,-34.633 0.976,-2.828 1.668,-5.246 1.539,-5.375 -0.399,-0.398 -30.625,30.606 -38.629,39.621 -30.406,34.246 -41.332,53.188 -65.746,113.961 -29.641,73.778 -76.766,212.547 -87.567,257.852 -5.66,23.746 -7.281,50.152 -3.863,62.914 3.867,14.437 13.656,27.926 23.555,32.457 4.656,2.133 5.976,2.332 11.699,1.769 6.328,-0.625 6.477,-0.589 7.578,1.832 1.496,3.278 0.207,5.247 -4.48,6.852 -4.539,1.559 -12.602,0.867 -18.25,-1.562 -14.926,-6.422 -28.797,-28.379 -30.477,-48.254 -0.332,-3.942 -0.781,-6.993 -0.996,-6.778 -0.746,0.75 -8.883,31.18 -14.797,55.344 -10.008,40.91 -12.902,57.602 -14.601,84.234 -1.376,21.524 -0.54,115.52 1.464,164.766 1.828,44.938 5.946,128.625 6.629,134.801 0.899,8.09 20.614,47.984 37.699,76.289 9.434,15.629 15.875,25.172 27.528,40.785 67.738,90.777 98.347,139.891 111.109,178.281 4.496,13.528 5.914,21.739 6.539,37.895 l 0.578,14.976 15.911,8.278 c 32.113,16.699 159.074,80.258 188.156,94.195 76.191,36.512 133.761,62.496 181.605,81.965 34.289,13.953 53.282,20.59 94.078,32.883 66.106,19.918 142.809,45.64 196.114,65.773 10.812,4.082 20.082,7.457 20.601,7.496 0.52,0.035 1.953,-2.773 3.184,-6.25 z M 747.762,1612.117 c -58,-63.519 -133.2,-157.594 -166.539,-208.344 -17.59,-26.777 -23.688,-41.968 -19.981,-49.785 3.453,-7.277 15.524,-8.664 15.524,-1.781 0,2.043 -2.864,4.762 -5.016,4.762 -5.797,0 -0.195,14.539 14.602,37.91 18.128,28.633 62.71,87.242 103.406,135.945 32.922,39.403 65.781,76.813 65.844,74.961 0.019,-0.672 1.425,-17.312 3.125,-36.98 2.101,-24.344 3.48,-36.239 4.324,-37.258 1.551,-1.867 5.558,-1.473 6.906,0.68 0.742,1.187 0.059,12.964 -2.57,44.464 -3.742,44.778 -3.981,46.129 -8.176,46.129 -0.945,0 -5.949,-4.675 -11.449,-10.703 z m 572.058,-20.89 c -2.808,-3.204 -4.465,-7.696 -5.847,-15.844 -6.184,-36.531 -6.684,-66.231 -1.465,-86.895 2.34,-9.258 8.031,-20.945 13.215,-27.144 13.547,-16.203 19.582,-25.969 19.582,-31.696 0,-5.343 -3.485,-13.214 -10.469,-23.66 -6.801,-10.176 -7.328,-12.375 -3.445,-14.453 1.429,-0.765 2.418,-0.64 4.207,0.531 3.98,2.606 17.152,24.278 17.187,28.266 0.039,3.922 3.567,-0.375 17.465,-21.227 16.762,-25.148 18.473,-26.894 22.016,-22.515 1.484,1.828 1.714,3.922 1.714,15.484 0,22.426 -2.445,39.965 -6.785,48.676 -3.601,7.219 -23.23,29.723 -26.965,30.906 -2.785,0.883 -5.566,-1.144 -5.566,-4.066 0,-1.836 1.242,-3.785 4.297,-6.754 7.289,-7.078 18.359,-20.746 20.23,-24.973 0.977,-2.211 2.395,-7.254 3.153,-11.207 1.742,-9.101 2.894,-30.156 1.582,-28.84 -0.516,0.516 -4.723,6.622 -9.352,13.575 -4.625,6.949 -13.082,19.304 -18.793,27.453 -5.707,8.148 -10.847,16.234 -11.422,17.968 -0.918,2.782 -0.691,3.969 1.914,9.993 10.887,25.211 13.305,33.84 13.313,47.554 0,11 -0.301,12.129 -10.731,39.786 -12.886,34.167 -16.757,40.718 -24.074,40.718 -2.187,0 -4.07,-0.621 -4.961,-1.636 z m 10.153,-16.672 c 1.734,-3.75 7.015,-17.067 11.742,-29.59 l 8.59,-22.777 -0.059,-9.829 c -0.047,-7.816 -0.566,-11.55 -2.562,-18.254 -2.375,-7.996 -10.18,-27.207 -11.719,-28.847 -0.969,-1.039 -5.832,5.008 -9.391,11.683 -1.601,3 -4.015,9.567 -5.367,14.586 -2.316,8.614 -2.457,10.375 -2.484,31.129 -0.043,17.887 0.359,24.715 2.054,36.508 2.59,18.035 3.825,23.578 5.078,22.805 0.532,-0.328 2.383,-3.664 4.118,-7.414 z m -192.95,-116.141 c -78.449,-15.68 -169.132,-24.367 -233.179,-22.336 l -20.68,0.656 -3.394,-2.98 c -5.879,-5.16 -5.278,-13.352 1.265,-17.219 7.602,-4.488 95.578,-2.347 150.207,3.656 44.996,4.946 122.719,17.957 128.02,21.43 2.863,1.875 4.437,5.274 4.437,9.563 0,2.535 -0.758,4.082 -3.179,6.507 -2.797,2.793 -3.739,3.172 -7.723,3.075 -2.5,-0.059 -9.598,-1.118 -15.774,-2.352 z m -48.211,-40.598 c -31.5,-10.765 -35.996,-12.066 -43.8,-12.668 -10.196,-0.785 -42.125,0.719 -73.211,3.446 -31.981,2.804 -32.949,2.789 -36.43,-0.539 -3.551,-3.395 -4.437,-7.555 -2.57,-12.028 2.094,-5.011 5.379,-6.215 21.027,-7.711 44.965,-4.296 85.578,-6.062 98.742,-4.293 7.559,1.016 22.711,5.864 72.211,23.11 8.407,2.926 10.696,4.496 12.36,8.484 2.949,7.051 -2.336,14.496 -10.137,14.281 -1.699,-0.046 -18.883,-5.484 -38.192,-12.082 z m 53.418,-91.777 c -14.617,-3.027 -28,-10.129 -33.292,-17.668 -2.778,-3.957 -2.809,-4.117 -2.778,-16.312 0.035,-12.551 2.297,-25.067 5.758,-31.817 4.137,-8.066 17.199,-5.18 17.125,3.785 -0.012,1.434 -0.852,5.723 -1.863,9.528 -2.535,9.531 -4.028,22.136 -2.875,24.289 0.504,0.937 3.359,2.992 6.347,4.566 8.223,4.324 19.395,6.578 29.95,6.035 l 2.984,-0.156 -1.465,-4.305 c -2.148,-6.296 -13.605,-24.746 -32.211,-51.859 -18.637,-27.164 -24.363,-36.258 -32.426,-51.488 -9.793,-18.496 -24.742,-52.735 -34.043,-77.957 -2.328,-6.309 -2.621,-8.008 -1.8,-10.368 2.121,-6.082 7.601,-8.609 12.816,-5.914 3.262,1.688 3.883,2.821 8.813,16.075 4.773,12.832 15.007,37.187 15.441,36.75 0.18,-0.176 -3.473,-9.993 -8.117,-21.813 -4.641,-11.82 -8.5,-22.855 -8.574,-24.527 -0.301,-6.945 7.445,-11.574 13.484,-8.055 3.012,1.754 4.348,4.938 33.219,79.223 27.672,71.199 30.554,78.129 36.027,86.543 8.273,12.73 15.379,26.949 16.758,33.539 2.012,9.633 -0.805,16.074 -8.914,20.363 -3.125,1.652 -5.61,2.016 -14.977,2.192 -6.179,0.117 -13.101,-0.176 -15.387,-0.649 z m -68.363,-22.062 c -14.422,-4.262 -25.347,-9.375 -30.168,-14.122 -4.648,-4.574 -6.929,-8.714 -6.058,-10.988 0.902,-2.355 8.129,-3.691 20.281,-3.75 10.348,-0.051 12.148,0.18 15.574,2.012 9.77,5.226 17.231,22.562 11.973,27.816 -1.86,1.864 -2.078,1.844 -11.602,-0.968 z m 207.043,-71.649 c -22.683,-3.254 -50.258,-22.691 -73.941,-52.137 -14.352,-17.843 -28.289,-41.097 -28.289,-47.195 0,-5.504 6.199,-9.004 11.203,-6.324 0.949,0.508 3.828,4.824 6.402,9.594 20.137,37.328 51.813,69.293 77.875,78.586 5.438,1.937 7.731,2.168 21.531,2.152 18.329,-0.02 23.918,-1.188 37.911,-7.926 10.773,-5.191 17.386,-10.926 21.586,-18.719 2.152,-3.992 3.429,-5.304 5.843,-5.988 2.528,-0.719 3.543,-0.539 5.614,1.004 5.429,4.039 4.679,10.117 -2.403,19.453 -15.262,20.113 -51.48,32.063 -83.332,27.5 z m -622.328,-17.156 c -13.715,-1.418 -30.875,-3.922 -36.148,-5.274 -6.172,-1.578 -8.231,-7.55 -4.321,-12.523 1.918,-2.441 2.344,-2.555 7.723,-2.07 3.129,0.285 9.902,1.164 15.051,1.953 33.191,5.09 71.922,5.484 99.59,1.008 16.14,-2.61 28.878,-8.102 40.972,-17.664 9.992,-7.903 18.246,-18.411 25.153,-32.028 6.343,-12.508 8.605,-14.574 13.656,-12.484 5.722,2.371 6,7.41 0.992,18.094 -5.426,11.578 -11.863,20.746 -21.203,30.199 -16.891,17.097 -34.832,25.847 -61.336,29.918 -13.582,2.086 -63.18,2.625 -80.129,0.871 z m -91.176,-92.934 c -4.605,-2.3 -6.98,-7.363 -5.679,-12.113 1.976,-7.223 30.296,-35.738 53.183,-53.551 44.735,-34.816 93.449,-53.543 151.414,-58.207 14.735,-1.187 41.914,-0.652 48.68,0.957 7.504,1.785 10.976,9.219 7.473,15.996 -2.684,5.188 -5.165,5.719 -20.926,4.477 -29.946,-2.359 -66.856,2.648 -99.348,13.48 -11.367,3.789 -11.609,3.922 -8.426,4.75 11.946,3.098 16.321,4.836 22.555,8.961 12.555,8.301 22.055,20.246 26.098,32.813 3.008,9.355 2.484,21.187 -1.211,27.496 -4.785,8.168 -12.227,11.902 -23.719,11.902 -13.238,0 -24.637,-5.472 -36.922,-17.719 -6.453,-6.433 -8.82,-9.601 -11.945,-15.98 -6.235,-12.734 -7.25,-23.707 -3.067,-33.16 l 1.891,-4.278 -2.984,1.543 c -23.438,12.094 -58.352,40.387 -78.461,63.583 -6.824,7.871 -10.598,10.695 -14.301,10.691 -0.566,0 -2.504,-0.738 -4.305,-1.641 z m 853.254,-16.508 c -3.773,-1.644 -4.437,-2.562 -9.875,-13.683 -9.203,-18.82 -11.461,-21.899 -20.433,-27.899 -9.45,-6.32 -23.297,-13.523 -42.239,-21.972 -19.375,-8.641 -17.918,-8.598 -15.175,-0.453 9.988,29.664 -18.254,58.636 -48.27,49.519 -10.738,-3.262 -19.305,-10.851 -24.441,-21.656 -2.18,-4.586 -2.45,-6.281 -2.45,-15.445 0,-9.641 0.192,-10.703 2.993,-16.61 3.378,-7.14 10.097,-14.418 16.304,-17.668 l 4.106,-2.152 -7.02,-1.137 c -14.89,-2.41 -34.297,-3.414 -56.812,-2.937 -20.758,0.441 -22.883,0.34 -25.45,-1.223 -3.593,-2.184 -4.796,-4.496 -4.796,-9.215 0,-5.711 3.781,-9.515 10.378,-10.453 7.582,-1.078 49.391,-0.992 61.704,0.125 28.886,2.621 45.32,7.231 84.714,23.762 34.137,14.324 61.016,29.179 69.805,38.574 7.344,7.852 21.426,34.375 21.453,40.402 0.043,4.411 -2.207,8.118 -5.937,9.891 -3.832,1.816 -4.86,1.844 -8.559,0.23 z M 598.297,926.297 c -12.762,-1.606 -24.195,-5.668 -35.867,-12.746 -6.856,-4.156 -13.368,-9.949 -15.223,-13.539 -1.879,-3.633 -1.621,-9.903 0.613,-14.828 4.262,-9.391 33.43,-33.633 52.149,-43.344 29.699,-15.402 53.922,-19.664 144.359,-25.402 36.988,-2.348 44.547,-2.235 60.379,0.902 41.121,8.144 93.852,40.883 141.102,87.609 10.179,10.067 11.949,12.25 11.949,14.711 0,4.715 -2.082,5.098 -13.696,2.508 -28.738,-6.414 -77.378,-9.961 -136.546,-9.961 -50.805,0 -72.692,1.52 -136.204,9.457 -45.269,5.656 -58.285,6.484 -73.015,4.633 z m 520.473,-18.652 c -9.622,-1.563 -20.469,-6.571 -22.516,-10.395 -2.18,-4.07 0.465,-5.66 23.129,-13.895 83.914,-30.492 145.847,-49.554 181.086,-55.738 65.285,-11.449 114.797,-13.933 129.254,-6.484 15.507,7.992 42.55,30.008 46.707,38.027 1.886,3.637 2.363,7.77 0.996,8.613 -0.442,0.274 -1.082,3.352 -1.422,6.844 -1.699,17.403 -8.422,25.594 -23.645,28.821 -13,2.753 -20.418,1.917 -78.972,-8.895 -61.164,-11.297 -77.949,-13.477 -103.907,-13.5 -21.144,-0.016 -27.453,1.121 -64.589,11.656 -30.977,8.789 -41.77,11.543 -52.891,13.492 -10.559,1.852 -26.477,2.547 -33.23,1.454 z M 794.926,625.461 c -0.617,-0.742 -0.985,-2.516 -0.821,-3.949 0.262,-2.227 1.918,-3.559 11.536,-9.274 54.187,-32.176 115.769,-59.105 162.3,-70.965 7.555,-1.925 11.825,-3.406 10.766,-3.734 -4.594,-1.414 -20.676,-3.523 -30.805,-4.035 -13.113,-0.664 -21.726,0.531 -29.789,4.141 -5.699,2.546 -7.304,2.378 -9.433,-0.997 -1.5,-2.382 0.23,-4.484 6.168,-7.48 14.703,-7.422 43.328,-6.617 78.343,2.207 10.555,2.66 10.711,2.672 23.793,1.609 20.688,-1.683 46.957,0.86 74.618,7.231 9.589,2.207 30.214,7.926 34.132,9.461 1.704,0.668 1.684,0.488 -0.3,-2.719 -2.329,-3.769 -2.043,-6.605 0.82,-8.141 2.848,-1.523 4.519,-0.168 10.258,8.313 l 5.461,8.07 7.351,2.66 c 22.918,8.301 62.891,26.871 87.86,40.809 13.89,7.758 15.445,8.937 15.445,11.719 0,2.718 -1.731,4.254 -4.793,4.254 -6.449,0 -45.106,-9.5 -61.668,-15.153 -21.891,-7.472 -30.859,-13.465 -44.344,-29.633 l -6.058,-7.265 -13.883,-4.414 c -35.512,-11.293 -69.934,-17.211 -95.461,-16.41 -8.723,0.273 -10.762,0.625 -12.438,2.14 -1.793,1.625 -2.515,1.711 -6.882,0.789 -11.309,-2.386 -54.719,8.856 -92.672,23.996 -33.7,13.446 -75.965,34.489 -106.715,53.133 -8.598,5.211 -10.934,5.875 -12.793,3.637 z m 407.156,-34.551 c -14.801,-7.359 -32.105,-15.101 -43.062,-19.269 l -5.149,-1.961 5.641,5.41 c 5.929,5.683 14.097,10.195 26.656,14.715 7.215,2.597 28.75,8.824 30.422,8.797 0.515,-0.008 -6.016,-3.469 -14.508,-7.692 z m 382.566,-112.18 c -0.296,-0.746 -0.519,-0.527 -0.566,0.567 -0.039,0.984 0.184,1.539 0.492,1.226 0.313,-0.308 0.344,-1.117 0.074,-1.793 z M 653.059,263.141 c 20.566,-9.149 64,-24.586 93.609,-33.274 5.664,-1.66 10.402,-3.105 10.535,-3.211 0.391,-0.316 -3.191,-10.261 -4.933,-13.683 -4.989,-9.821 -12.43,-14.766 -20.411,-13.567 -9.027,1.352 -36.281,19.516 -73.652,49.082 -14.769,11.684 -34.637,28.207 -34.637,28.805 0,0.203 5.371,-2.332 11.938,-5.641 6.562,-3.308 14.461,-7.136 17.551,-8.511 z"
         style="fill:#625970;fill-opacity:1;fill-rule:nonzero;stroke:none"
         id="path1253" /></g></g></svg>
