<?xml version="1.0" encoding="UTF-8" standalone="no"?>
<svg
   xmlns:svg="http://www.w3.org/2000/svg"
   xmlns="http://www.w3.org/2000/svg"
   xmlns:sodipodi="http://sodipodi.sourceforge.net/DTD/sodipodi-0.dtd"
   xmlns:inkscape="http://www.inkscape.org/namespaces/inkscape"
   inkscape:version="1.1-dev (1:0.92.0+devel+202005110039+9ce7266)"
   sodipodi:docname="09.svg"
   version="1.1"
   id="svg1312"
   xml:space="preserve"
   width="2527.5789"
   height="2526.3159"
   viewBox="0 0 2527.5789 2526.3159"><sodipodi:namedview
     inkscape:current-layer="svg1312"
     inkscape:window-maximized="0"
     inkscape:window-y="30"
     inkscape:window-x="0"
     inkscape:cy="1263.158"
     inkscape:cx="1263.7894"
     inkscape:zoom="0.26956249"
     showgrid="false"
     id="namedview893"
     inkscape:window-height="480"
     inkscape:window-width="796"
     inkscape:pageshadow="2"
     inkscape:pageopacity="0"
     guidetolerance="10"
     gridtolerance="10"
     objecttolerance="10"
     borderopacity="1"
     bordercolor="#666666"
     pagecolor="#ffffff" /><defs
     id="defs1316" /><g
     style="fill:#625970;fill-opacity:1"
     id="g1318"
     transform="matrix(1.3333333,0,0,1.3333333,0,4.5824564e-5)"><g
       style="fill:#625970;fill-opacity:1"
       id="g1320"><path
         d="m 703.785,1865.523 c -1.344,-2.171 -72.086,-533.398 -71.16,-534.343 0.551,-0.559 1.199,-0.555 1.77,0.015 0.492,0.493 4.351,26.797 8.574,58.453 4.219,31.657 7.953,57.024 8.297,56.375 0.339,-0.652 0.882,-6.062 1.207,-12.031 0.652,-12.008 3.445,-29.832 5.652,-36.047 2.379,-6.703 4.859,-9.492 8.449,-9.492 2.481,0 3.727,0.723 5.988,3.465 19.594,23.773 48.918,190.863 76.489,435.859 3.226,28.688 3.312,30.414 1.492,30.414 -1.504,0 -1.766,-1.39 -3.84,-20.503 -13.023,-120.02 -32.273,-258.176 -46.578,-334.219 -11.922,-63.399 -23.906,-105.461 -31.602,-110.91 -1.781,-1.258 -2.117,-1.176 -4.007,1.003 -2.457,2.829 -4.434,9.11 -6.289,19.997 -1.688,9.902 -3.274,28.003 -3.289,37.527 0,5.133 -0.376,7.391 -1.301,7.922 -1.071,0.617 3.355,35.453 25.824,203.222 26.293,196.36 27.797,208.915 24.324,203.297 v 0 z m 683.793,-35.945 c -9.258,-11.18 -38.312,-82.508 -83.824,-205.789 -24.613,-66.668 -26.031,-70.758 -25.024,-72.039 0.524,-0.664 1.278,-0.875 1.68,-0.469 0.406,0.407 6.164,15.629 12.805,33.828 51.258,140.528 87.781,231.731 97.039,242.325 l 2.035,2.332 -0.5,-11.184 c -0.676,-15.168 -6.426,-49 -14.641,-86.133 -1.91,-8.637 -2.468,-12.797 -1.8,-13.469 0.609,-0.609 1.281,-0.636 1.808,-0.082 0.84,0.887 6.192,25.094 10.809,48.887 6.465,33.336 9.148,58.024 6.789,62.438 -1.863,3.484 -3.91,3.3 -7.176,-0.645 z m 49.656,-21.254 c -1.16,-3.015 2.516,-46.308 7.082,-83.414 2.754,-22.379 3.051,-29.851 1.942,-48.93 -4.922,-84.613 -34.363,-233.054 -49.156,-247.847 -3.157,-3.16 -4.582,-3.028 -6.84,0.629 -4.047,6.558 -7.043,22.222 -8.676,45.398 -0.883,12.574 -1.344,15.414 -2.477,15.414 -1.156,0 -1.359,-1.523 -1.191,-8.851 0.461,-19.856 4.121,-43.196 8.031,-51.207 1.11,-2.274 3.168,-4.977 4.574,-6 2.43,-1.774 2.707,-1.789 5.786,-0.325 5.777,2.758 11.093,14.528 18.086,40.028 12.675,46.246 26.043,119.004 32.238,175.48 4.301,39.219 4.418,59.266 0.531,92.078 -3.508,29.621 -5.457,50.028 -6.223,65.207 -0.414,8.149 -0.996,12.211 -1.847,12.918 -0.942,0.786 -1.391,0.645 -1.86,-0.578 z m -411.961,-170.965 c -20.187,-3.183 -19.156,-2.886 -26.566,-7.691 l -5.918,-3.836 -18.176,-0.766 c -43.617,-1.836 -87.726,-6.683 -112.984,-12.414 -12.07,-2.742 -17.746,-5.129 -19.856,-8.351 -1.472,-2.242 -1.476,-2.582 -0.062,-4.739 2.766,-4.222 13.254,-8.492 33.277,-13.546 16.93,-4.278 31.356,-7.063 45.571,-8.797 6.918,-0.848 14.003,-1.754 15.742,-2.02 l 3.16,-0.476 -4.559,-4.692 c -9.578,-9.855 -32.238,-29.394 -47.918,-41.312 -33.855,-25.739 -60.699,-53.582 -86.035,-89.242 -9.812,-13.809 -11.238,-16.207 -10.074,-16.926 0.793,-0.489 22.613,-4.821 27.137,-5.383 1.539,-0.195 2.406,0.215 2.609,1.223 0.246,1.246 -1.871,1.933 -11.93,3.875 -6.73,1.3 -12.461,2.593 -12.742,2.871 -0.703,0.703 11.985,18.617 22.551,31.843 21.598,27.028 42.223,47.309 68.039,66.911 17.793,13.507 29.719,23.648 46.293,39.359 l 12.305,11.668 4.254,-0.688 c 6.964,-1.128 71,-0.765 88.601,0.5 21.024,1.512 49,4.43 50.32,5.247 0.696,0.429 0.727,1.003 0.098,1.765 -0.73,0.875 -4.187,0.778 -15.656,-0.457 -8.098,-0.871 -21.016,-2.066 -28.703,-2.66 -18.223,-1.398 -76.895,-2.254 -87.426,-1.273 l -8.203,0.765 18.922,18.832 c 10.406,10.356 20.808,20.375 23.117,22.262 l 4.191,3.434 30.758,-0.543 c 35.485,-0.633 50.567,-1.801 62.629,-4.86 11.863,-3.012 23.828,-9.004 29.664,-14.855 6.168,-6.184 18.012,-23.039 29,-41.258 10.012,-16.609 10.199,-16.859 11.574,-15.484 2.039,2.039 -6.707,23.011 -14.636,35.093 -2.844,4.332 -11.536,13.832 -24.602,26.887 -19.609,19.594 -20.461,20.313 -28.957,24.406 -12.578,6.071 -17.664,7.215 -33.914,7.633 -11.992,0.309 -16.387,-0.016 -30.895,-2.305 z m 44.36,-2.031 c 7.66,-1.199 18.762,-5.48 24.746,-9.547 5.379,-3.652 13.766,-10.906 13.23,-11.441 -0.199,-0.199 -2.629,0.629 -5.398,1.84 -6.797,2.968 -18.348,5.937 -27.406,7.043 -7.934,0.968 -45.77,2.832 -64.192,3.164 l -11.066,0.195 3.914,2.195 c 2.781,1.563 8.117,2.864 18.519,4.508 24.012,3.801 33.762,4.219 47.653,2.043 z m -103.985,-34.797 c -25.734,-25.269 -20.82,-23.019 -43.804,-20.07 -34.813,4.473 -77.246,16.238 -77.246,21.426 0,6.957 66.496,17.152 129.55,19.859 3.586,0.152 8.153,0.359 10.141,0.461 3.613,0.184 3.602,0.168 -18.641,-21.676 z m 173.739,-19.851 c 4.383,-6.528 5.074,-7.688 4.582,-7.688 -0.211,0 -2.336,2.938 -4.723,6.524 -2.387,3.589 -4.141,6.523 -3.902,6.523 0.242,0 2.062,-2.41 4.043,-5.359 z M 987.195,1387.957 c -14.351,-4.277 -26.726,-8.16 -27.492,-8.633 -0.918,-0.566 -2.058,-0.433 -3.312,0.391 -2.743,1.797 -6.231,-0.692 -5.829,-4.16 0.59,-5.086 2.293,-5.297 41.602,-5.094 25.797,0.129 36.094,0.484 37.051,1.277 1.867,1.551 1.668,5.309 -0.313,5.856 -0.894,0.246 -13.371,0.168 -27.726,-0.172 -14.352,-0.34 -27.469,-0.41 -29.145,-0.156 -2.41,0.371 1.922,1.91 20.641,7.343 13.031,3.782 24.215,7.2 24.855,7.594 1.797,1.109 0.278,3.715 -2.109,3.617 -1.168,-0.05 -13.867,-3.586 -28.223,-7.863 z m -122.093,-82.156 c -19.274,-10.059 -19.321,-22.086 -0.125,-30.574 14.476,-6.403 79.265,-22.84 123.085,-31.227 29.704,-5.684 59.887,-9.023 71.368,-7.898 13.91,1.367 37.386,8.511 48.953,14.894 8.965,4.949 10.98,8.246 7.504,12.289 l -2.188,2.543 -32.027,0.672 c -33.18,0.699 -39.012,1.062 -79.563,4.977 -13.328,1.289 -33.25,2.964 -44.273,3.73 -11.484,0.793 -23.617,2.188 -28.426,3.258 -4.613,1.031 -11.672,1.98 -15.683,2.105 -6.309,0.2 -7.477,-0.015 -8.622,-1.578 -3.601,-4.918 -0.101,-8.906 7.825,-8.906 7.699,0 22.023,-3.27 40.644,-9.274 18.336,-5.914 36.313,-10.3 42.211,-10.3 4.895,0 7.527,2.656 6.242,6.304 -1.007,2.864 -1.308,2.977 -16.695,6.25 -10.984,2.336 -21.391,5.118 -20.805,5.559 0.485,0.359 19.008,-1.156 44.571,-3.641 29.355,-2.859 49.687,-4.132 79.222,-4.968 l 22.836,-0.649 -4.195,-2.512 c -6.074,-3.64 -19.84,-8.753 -32.41,-12.043 -10.758,-2.816 -11.192,-2.851 -27.707,-2.355 -20.5,0.617 -39.309,3.316 -75.492,10.836 -42.629,8.859 -96.297,23.164 -106.719,28.441 -4.488,2.278 -8.387,6.2 -8.387,8.442 0,2.402 4.789,6.801 10.742,9.863 5.27,2.707 6.059,3.445 5.832,5.453 -0.355,3.129 -2.179,3.203 -7.718,0.309 z m -98.645,-14.512 c -6.141,-8.172 -13.008,-25.769 -14.121,-36.187 -1.086,-10.118 3.434,-28.403 6.832,-27.653 1.793,0.395 1.797,0.348 -0.844,7.684 -3.062,8.504 -3.418,18.902 -0.957,27.875 2.317,8.437 7.086,19.195 11.235,25.344 2.652,3.925 2.976,5.964 0.96,5.964 -0.457,0 -1.855,-1.363 -3.105,-3.027 z m -92.461,-38.785 c -14.805,-9.027 -26.367,-47.613 -37.184,-124.086 -6.91,-48.871 -9.781,-84.188 -18.792,-231.145 l -0.602,-9.785 -4.777,-4.66 c -2.629,-2.562 -10.012,-8.644 -16.411,-13.516 -14.039,-10.683 -25.925,-22.25 -32.558,-31.687 -15.875,-22.586 -21.93,-48.398 -15.336,-65.395 2.449,-6.324 9.266,-16.089 14.59,-20.91 8.523,-7.718 25.558,-17.937 33.984,-20.39 1.695,-0.496 2.098,-0.242 2.098,1.316 0,1.059 -0.465,1.926 -1.035,1.926 -0.571,0 -4.84,1.902 -9.485,4.226 -22.258,11.145 -35.707,25.879 -39.043,42.774 -2.738,13.883 5.094,38.519 17.547,55.195 6.422,8.606 18.473,20.238 30.574,29.528 6.125,4.699 13.004,10.222 15.289,12.273 l 4.153,3.73 -0.621,-12.586 c -0.344,-6.917 -1.657,-33.132 -2.918,-58.25 -6.289,-125.113 -6.672,-165.972 -1.801,-192.46 1.687,-9.196 4.473,-16.204 6.199,-15.594 1.418,0.5 1.305,1.726 -0.672,7.121 -0.828,2.262 -2.215,8.34 -3.086,13.516 -2.187,13 -2.136,89.304 0.09,133.828 0.86,17.172 2.668,53.031 4.024,79.687 l 2.465,48.465 4.386,6.523 c 6.488,9.653 11.434,19.2 16.176,31.223 4.914,12.469 5.336,14.274 3.426,14.668 -0.977,0.207 -2.063,-1.598 -3.617,-6.023 -4.621,-13.141 -18.59,-40.344 -19.426,-37.836 -0.395,1.179 4.429,79.093 7.691,124.258 4.485,62.089 8.574,98.617 15.828,141.355 9.375,55.254 20.731,86.797 32.66,90.734 3.61,1.192 4.368,3.715 1.118,3.711 -1.153,0 -3.375,-0.785 -4.934,-1.734 z m 278.453,-26.445 c -1.652,-1.993 -0.32,-55.375 1.418,-56.821 0.93,-0.769 1.785,-0.816 2.84,-0.148 1.344,0.848 1.481,3.738 1.238,26.098 -0.148,13.828 -0.566,26.585 -0.925,28.343 -0.692,3.391 -2.86,4.59 -4.571,2.528 z m 262.039,-27.524 c -0.582,-0.375 -4.308,-10.539 -8.285,-22.586 -20.055,-60.773 -39.832,-108.887 -51.598,-125.527 -7.429,-10.512 -11.589,-12.922 -18.972,-11 -3.903,1.016 -4.606,-1.961 -1.164,-4.922 2.168,-1.863 3.379,-2.203 6.562,-1.844 11.348,1.278 22.856,17.028 37.281,51.024 14.985,35.308 41.512,110.949 39.844,113.593 -1.097,1.739 -2.297,2.153 -3.668,1.262 z m 147.45,-69.078 c -0.922,-1.488 -10.594,-140.66 -15.876,-228.453 -5.285,-87.828 -7.48,-143.414 -6.624,-167.766 0.355,-10.105 0.191,-22.062 -0.399,-28.89 -2.789,-32.41 -12.351,-77.496 -26.477,-124.883 -3.277,-10.996 -4.816,-17.559 -4.246,-18.129 0.567,-0.566 1.219,-0.566 1.77,-0.008 2.777,2.801 19.375,64.934 25.137,94.086 6.679,33.789 7.679,44.266 7.582,79.367 -0.153,56.348 6.394,177.301 19.011,351.231 1.711,23.578 2.922,43.187 2.692,43.57 -0.567,0.949 -1.949,0.883 -2.57,-0.125 z m -333.012,-28.73 c -1.387,-2.114 -1.645,-4.571 -1.594,-15.145 0.125,-28.031 8.688,-40.328 23.418,-33.641 6.586,2.989 12.406,13.383 12.406,22.153 0,2.84 0.172,3.035 1.864,2.129 1.285,-0.688 2.418,-0.7 3.648,-0.043 5.566,2.98 0.762,10.531 -11.629,18.273 -7.363,4.602 -11.781,5.914 -13.918,4.141 -2.437,-2.02 -1.543,-4.25 3.356,-8.383 2.617,-2.207 5.55,-5.313 6.519,-6.902 3.555,-5.825 1.516,-17.758 -3.891,-22.793 -2.824,-2.633 -6.863,-2.598 -8.73,0.07 -1.813,2.586 -1.836,3.523 -0.086,3.523 2.871,0 3.301,3.211 1.953,14.586 -2.344,19.821 -4.062,24.559 -8.91,24.559 -1.965,0 -3.227,-0.723 -4.406,-2.527 z m -157.36,-1.485 c -5.461,-4.695 -3.07,-11.597 13.934,-40.262 13.121,-22.109 20.812,-37.933 26.73,-54.988 8.989,-25.898 17.399,-43.515 29.372,-61.504 6.582,-9.894 8.89,-12.066 11.988,-11.289 3.668,0.918 3.035,4.348 -2.137,11.528 -12.664,17.585 -21.996,36.468 -31.203,63.128 -2.301,6.665 -4.895,13.793 -5.762,15.844 -3.656,8.633 -13.011,26.324 -21.476,40.613 -12.141,20.493 -16.645,29.489 -15.321,30.61 1.493,1.266 8.977,-1.399 15.032,-5.352 8.402,-5.484 21.308,-16.59 21.308,-18.332 0,-1.511 4.375,-5.133 6.196,-5.133 0.707,0 3.789,-1.707 6.847,-3.796 10.246,-6.997 14.707,-6.832 26.297,0.964 13.313,8.961 26.836,25.27 26.836,32.372 0,3.523 -2.445,6.453 -6.16,7.386 -4.965,1.246 -19.672,-0.41 -25.953,-2.922 -5.895,-2.359 -6.074,-2.375 -11.184,-0.886 -4.074,1.183 -5.851,1.289 -8.277,0.488 -4.004,-1.32 -8.266,-5.809 -11.317,-11.922 l -2.437,-4.879 -8.113,6.567 c -15.61,12.636 -28.989,17.109 -35.2,11.765 z m 100.25,-7.035 c 0,-1.008 -5.144,-8.141 -6.461,-8.957 -0.589,-0.363 -0.992,0.223 -0.992,1.43 0,1.125 -0.875,3.453 -1.941,5.179 L 960.48,1093 h 5.668 c 3.118,0 5.668,-0.355 5.668,-0.793 z m -36.113,-2.984 c 2.934,-0.813 3.496,-1.375 3.504,-3.489 0.016,-3.925 4.934,-11.664 8.707,-13.695 2.637,-1.422 3.098,-2.047 2.25,-3.066 -1.984,-2.395 -10.172,-5.965 -12.394,-5.407 -3.45,0.864 -15.325,10.149 -15.336,11.989 -0.032,4.039 6.246,14.656 8.656,14.644 0.613,0 2.691,-0.441 4.613,-0.976 z m 21.203,-7.395 c 0,-4.383 -4.75,-4.262 -7.875,0.203 -1.984,2.832 -1.824,3.512 0.828,3.512 1.254,0 2.579,0.488 2.946,1.086 0.847,1.371 4.101,-2.434 4.101,-4.801 z m -348.445,-34.805 c -2.441,-2.941 -31.793,-87.91 -43.844,-126.914 -33.719,-109.152 -48.437,-203.511 -37.34,-239.414 3.961,-12.824 10.535,-19.09 20.907,-19.922 5.476,-0.437 6.687,-0.191 12.027,2.438 11.129,5.477 23.828,21.285 34.918,43.465 6.418,12.836 7.582,16.312 5.473,16.312 -0.879,0 -3.536,-4.406 -7.086,-11.75 -10.731,-22.199 -24.524,-40.086 -34.645,-44.933 -5.59,-2.676 -12.914,-2.723 -17.559,-0.11 -4.796,2.696 -9.015,9.371 -11.449,18.114 -1.879,6.765 -2.074,9.57 -2.09,30.289 -0.015,24.367 0.848,33.734 6.028,65.242 10.484,63.801 32.152,140.359 67.746,239.363 6.367,17.715 9.504,27.645 8.914,28.231 -0.586,0.589 -1.293,0.445 -2,-0.411 z m 812.09,-84.753 c -0.559,-1.438 0.387,-14.208 2.066,-27.95 l 0.539,-4.429 -3.426,1.433 c -4.136,1.727 -8.289,0.848 -13.703,-2.902 -12.918,-8.957 -29.984,-39.824 -34.894,-63.129 -2.809,-13.316 -1.008,-25.66 5.023,-34.422 4.336,-6.305 12.836,-12.586 15.594,-11.527 1.953,0.75 0.648,3.043 -2.461,4.332 -4.078,1.691 -9.785,7.656 -12.644,13.219 -3.379,6.57 -4.09,18.664 -1.727,29.3 4.516,20.289 17.207,44.258 29.66,56.016 7.844,7.406 11.86,8.434 16.379,4.191 l 2.734,-2.566 1.922,-22.961 c 2.457,-29.32 2.961,-27.176 -15.316,-65.113 -6.297,-13.071 -15.313,-32.785 -20.035,-43.805 -9.66,-22.551 -31.653,-77.523 -31.653,-79.117 0,-2.238 3.043,-0.809 9.075,4.265 22.019,18.52 44.398,40.25 52.355,50.844 2.563,3.406 5.301,8.871 7.539,15.043 1.938,5.328 3.938,10.434 4.445,11.348 0.653,1.164 1.133,-4.348 1.618,-18.586 1.679,-49.195 -5.137,-82.688 -17.446,-85.766 -2.851,-0.715 -4.207,-0.441 -8.66,1.739 -4.027,1.968 -5.539,2.324 -6.367,1.492 -2.856,-2.867 10.984,-8.442 16.469,-6.633 3.488,1.152 8.078,5.609 10.281,9.984 2.789,5.539 6.012,18.578 7.578,30.653 1.258,9.715 1.52,18.539 1.328,45.16 l -0.234,33.09 2.625,5.867 c 1.887,4.222 2.34,6.156 1.613,6.883 -0.726,0.726 -1.539,0.14 -2.898,-2.09 -1.258,-2.074 -2.016,-2.656 -2.282,-1.754 -0.222,0.738 -1.328,15.394 -2.46,32.566 -1.766,26.723 -1.895,32.352 -0.915,39.047 2.028,13.805 0.086,30.86 -4.308,37.844 -0.645,1.027 -1.922,9.769 -2.836,19.426 -1.598,16.847 -3.063,22.922 -4.578,19.008 z m 8.629,-58.223 c -0.215,-1.418 -0.399,-0.481 -0.403,2.082 -0.015,2.562 0.168,3.723 0.387,2.578 0.223,-1.148 0.227,-3.246 0.016,-4.66 z m 1.73,-73.074 1.66,-25.762 -4.492,-11.52 c -7.051,-18.093 -8.226,-20.398 -14.242,-27.863 -8.414,-10.441 -47.047,-46.672 -48.367,-45.355 -0.563,0.562 16.047,42.035 28.261,70.55 5.375,12.559 14.743,33.11 20.813,45.672 6.066,12.559 11.59,24.719 12.266,27.028 l 1.234,4.195 0.602,-5.594 c 0.335,-3.074 1.351,-17.183 2.265,-31.351 z m -660.246,76.882 c 0.227,-1.14 7.301,-3.625 27.797,-9.761 33.117,-9.91 58.977,-18.621 66.371,-22.356 3,-1.511 7.113,-4.25 9.141,-6.086 4.769,-4.308 9.25,-13.422 9.953,-20.246 0.57,-5.523 1.574,-7.133 3.347,-5.359 1.45,1.449 -0.339,11.351 -3.136,17.344 -3.059,6.547 -11.239,14.457 -18.571,17.949 -9.98,4.762 -89.16,30.051 -94.074,30.051 -0.621,0 -0.992,-0.692 -0.828,-1.536 z m 360.531,-9.543 c -17.429,-5.812 -41.941,-16.566 -41.941,-18.398 0,-2.102 1.859,-1.562 16.871,4.883 7.891,3.387 18.754,7.687 24.137,9.551 9.621,3.336 10.031,3.394 24.234,3.394 12.219,0 14.445,0.215 14.445,1.399 0,1.175 -2.371,1.429 -14.914,1.605 -14.179,0.199 -15.3,0.078 -22.832,-2.434 z m -310.601,-98.98 c -4.809,-1.133 -12.098,-4.941 -15.977,-8.348 -6.906,-6.062 -9.308,-17.156 -5.371,-24.796 2.109,-4.098 17.172,-18.325 23.945,-22.622 9.739,-6.175 23.907,-9.504 32.094,-7.539 6.137,1.473 10.797,6.207 12.758,12.957 2.066,7.106 1.305,20.348 -1.293,22.45 -0.984,0.8 -1.621,1.961 -1.414,2.582 0.203,0.621 -0.313,3.488 -1.148,6.371 -2.555,8.777 -11.797,16.394 -23.047,18.988 -4.832,1.117 -15.735,1.094 -20.547,-0.043 z m 42.824,-41.965 c -0.652,-7.793 -2.793,-12.558 -6.5,-14.476 -5.551,-2.871 -17.859,-1.121 -27.895,3.961 -5.261,2.668 -5.691,3.601 -1.273,2.773 4.75,-0.891 15.168,1.051 21.508,4.012 3.344,1.562 7.09,4.289 9.32,6.789 2.051,2.297 4.098,3.98 4.551,3.742 0.453,-0.238 0.582,-3.301 0.289,-6.801 z m 290.168,33.094 c -13.344,-3.582 -22.965,-13.356 -24.793,-25.184 -1.844,-11.902 8.57,-25.558 22.828,-29.937 l 5.328,-1.637 -20.566,-0.055 c -22.774,-0.058 -31.332,-1.16 -47.598,-6.117 -10.523,-3.207 -23.441,-9.25 -25.816,-12.074 -1.875,-2.23 -1.258,-4.586 1.207,-4.586 0.961,0 3.746,1.227 6.187,2.723 8.879,5.445 23.848,10.308 39.102,12.707 11.973,1.879 25.68,2.082 66.933,0.988 30.145,-0.797 53.969,-0.238 96.93,2.285 17.219,1.012 20.969,1.727 20.969,3.996 0,3.051 -2.109,3.254 -20.504,1.961 -22.723,-1.593 -79.074,-3.453 -92.734,-3.054 -10.079,0.293 -10.18,0.316 -6.059,1.476 11.344,3.195 19.84,9.344 24.043,17.402 3.32,6.368 3.473,15.848 0.352,21.77 -7.86,14.918 -27.356,22.297 -45.809,17.336 z m -421.797,-3.219 c -1.355,-2.195 0.832,-5.609 7.977,-12.433 12.996,-12.418 36.207,-25.821 59.629,-34.43 32.886,-12.094 89.863,-22.621 152.191,-28.125 13.742,-1.215 17.809,-1.305 18.875,-0.418 0.746,0.621 1.351,1.391 1.344,1.711 -0.059,2.426 -2.575,3.039 -17.762,4.351 -66.277,5.731 -123.082,16.473 -156.809,29.661 -23.879,9.339 -40.867,19.496 -54.32,32.484 -8.398,8.109 -9.945,9.109 -11.125,7.199 z m 174.59,-124.137 c -10.285,-9.867 -20.32,-19.339 -22.301,-21.043 -3.777,-3.257 -4.785,-6.964 -2.164,-7.968 1.434,-0.551 14.024,10.289 24.195,20.836 2.563,2.652 5.801,5.652 7.192,6.656 l 2.527,1.828 -2.234,-5.055 c -1.231,-2.781 -3.153,-8.144 -4.27,-11.921 -3.687,-12.469 -12.769,-26.325 -17.961,-27.403 -1.629,-0.34 -14.914,-3.707 -29.523,-7.488 -14.61,-3.777 -28.242,-7.129 -30.297,-7.449 -3.324,-0.512 -4.973,0.07 -14.914,5.254 -14.824,7.734 -34.004,19.007 -51.719,30.402 -24.84,15.976 -47.023,27.684 -61.465,32.437 -15.715,5.172 -24.988,-1.046 -16.148,-10.832 4.25,-4.699 10.765,-9.117 36.601,-24.789 20.098,-12.195 29.52,-17.254 41.254,-22.152 3.465,-1.445 6.176,-2.758 6.024,-2.91 -0.153,-0.153 -3.41,0.535 -7.235,1.531 -30.265,7.883 -64.953,10.387 -70.789,5.106 -1.66,-1.504 -1.98,-1.426 -6.238,1.5 -9.836,6.761 -16.605,14.707 -14.402,16.91 1.648,1.648 9.34,2.328 17.258,1.527 8.023,-0.812 10.578,0.031 9.398,3.102 -0.695,1.816 -2.551,2.285 -12.082,3.062 -12.777,1.043 -20.973,-2.141 -20.973,-8.137 0,-11.297 20.438,-26.187 56.008,-40.808 24.813,-10.199 46.367,-15.824 60.691,-15.836 10.122,-0.012 32.95,2.68 49.204,5.801 7.578,1.457 14.285,2.066 22.906,2.086 l 12.191,0.027 5.453,3.613 c 3.735,2.477 9.239,4.758 17.45,7.238 19.847,5.989 33.336,13.848 33.336,19.422 0,4.477 -3.981,5.864 -13.512,4.692 -3.078,-0.375 -5.719,-0.582 -5.875,-0.457 -0.156,0.125 1.359,2.769 3.367,5.871 2.008,3.109 5.402,10.769 7.555,17.051 2.152,6.273 6.254,16.355 9.117,22.402 4.32,9.133 5.004,11.238 4.023,12.418 -0.644,0.777 -1.574,1.418 -2.062,1.418 -0.485,0 -9.301,-8.074 -19.586,-17.942 z m -198.621,1.223 c 14.183,-5.469 29.406,-13.863 57.617,-31.766 18.883,-11.984 32.695,-20.128 44.969,-26.519 6.519,-3.395 8.332,-5.152 5.32,-5.152 -1.664,0 -31.527,11.66 -46.566,18.179 -15.848,6.871 -24.332,11.465 -47.91,25.938 -23.336,14.328 -33.368,21.941 -30.321,23.008 2.473,0.867 8.481,-0.446 16.891,-3.688 z M 914.5,615.234 c -4.383,-3.394 -25.137,-12.351 -26.188,-11.3 -0.132,0.132 1.93,2.527 4.586,5.324 4.09,4.312 5.606,5.258 9.95,6.203 2.82,0.617 7.015,1.141 9.32,1.168 3.965,0.047 4.094,-0.031 2.332,-1.395 z m -182.152,-1.808 c 5.711,-0.797 14.886,-2.465 20.394,-3.711 10.387,-2.344 32.723,-8.563 33.481,-9.32 1.621,-1.625 -25.485,1.144 -46.481,4.75 -14.273,2.449 -34.461,7.21 -37.105,8.753 -2.559,1.493 17.961,1.164 29.711,-0.472 z m 149.964,-6.543 c -2.8,-2.86 -5.839,-5.606 -6.75,-6.106 -0.91,-0.5 -6.91,-2.117 -13.328,-3.593 l -11.672,-2.684 -5.285,1.82 c -2.91,1 -5.621,2.149 -6.027,2.555 -0.402,0.402 6.508,2.566 15.355,4.805 8.848,2.238 19.442,5.015 23.543,6.168 4.102,1.152 7.864,2.125 8.356,2.16 0.496,0.039 -1.391,-2.27 -4.192,-5.125 z m -144.636,-7.321 c 25.719,-4.511 52.953,-6.695 67.308,-5.398 7.004,0.637 8.711,0.461 14.707,-1.496 5.43,-1.773 7.055,-1.988 8.153,-1.074 1.75,1.449 1.73,2.285 -0.09,4.105 -0.805,0.805 -1.129,1.465 -0.719,1.465 1.453,0 10.57,-4.082 10.57,-4.73 0,-0.364 -1.363,-0.856 -3.027,-1.098 -1.668,-0.238 -10.578,-1.598 -19.805,-3.016 -23.875,-3.668 -40.25,-3.738 -53.273,-0.238 -15.293,4.113 -47.707,15.836 -39.406,14.25 1.312,-0.25 8.324,-1.496 15.582,-2.77 z m 326.066,34.825 c -14.461,-1.676 -20.16,-4.328 -20.16,-9.371 0,-5.532 7.012,-9.723 27.031,-16.172 25.149,-8.102 57.121,-13.16 94.996,-15.024 12.809,-0.632 13.352,-0.738 11.5,-2.234 -1.707,-1.383 -5.929,-1.645 -34.879,-2.168 -18.117,-0.328 -42.375,-1.059 -53.91,-1.629 -18.054,-0.887 -21.211,-1.262 -22.699,-2.707 -2.031,-1.973 -1.398,-5.25 1.172,-6.062 0.922,-0.293 8.766,-0.075 17.426,0.492 30.597,1.988 169.832,2.258 167.898,0.328 -1.746,-1.75 -52.117,-5.043 -77.109,-5.043 -8.141,0 -15.82,-0.391 -17.063,-0.863 -2.773,-1.055 -3.761,-3.336 -2.484,-5.731 0.887,-1.652 2.098,-1.797 15.238,-1.797 26.887,0 67.129,2.551 82.539,5.231 14.145,2.457 19.969,6.636 16.539,11.871 -2.91,4.437 -19.25,6.14 -59.363,6.183 l -25.629,0.028 2.797,1.851 c 2.52,1.672 4.406,1.856 19.106,1.868 18.773,0.015 35.148,1.273 43.277,3.328 9.644,2.433 22.375,9.312 29.043,15.691 5.211,4.984 5.969,6.145 5.969,9.121 0,7.113 -7.325,9.234 -23.547,6.82 -12.235,-1.816 -24.856,-5.488 -38.395,-11.16 -10.23,-4.285 -24.926,-11.828 -31.519,-16.172 -3.52,-2.32 -3.532,-2.32 -19.575,-1.671 -37.527,1.511 -71.394,6.332 -94.914,13.5 -17.269,5.265 -28.945,10.578 -27.16,12.359 1.254,1.258 13.149,3.562 18.461,3.582 4.899,0.016 6.945,1.144 6.945,3.832 0,1.566 -1.957,2.82 -4.039,2.586 -0.597,-0.066 -3.968,-0.457 -7.492,-0.867 z m 215.281,-12.227 c 0.415,-0.672 -1.382,-3.015 -4.636,-6.047 -5.914,-5.504 -17.305,-11.453 -26.328,-13.754 -6.817,-1.738 -30.485,-3.562 -40.907,-3.156 l -7.453,0.289 13.512,6.707 c 15.144,7.512 28.746,12.492 41.371,15.145 9.754,2.051 23.398,2.504 24.441,0.816 z M 591.977,610.145 c -1.575,-2.547 0.152,-84.383 2.382,-113.075 1.344,-17.269 1.864,-16.07 -4.902,-11.351 -17.004,11.867 -27.73,13.437 -27.73,4.062 0,-9.898 13.961,-32.152 31.441,-50.125 l 8.609,-8.847 1.434,-7.93 c 0.789,-4.359 2.926,-14.57 4.746,-22.688 1.824,-8.117 3.156,-14.918 2.965,-15.109 -0.774,-0.773 -29.801,22.715 -42.082,34.051 -11.676,10.777 -16.707,20.672 -11.832,23.281 2.64,1.414 13.844,1.176 21.625,-0.461 7.441,-1.562 10.117,-1.277 8.312,0.895 -1.543,1.859 -17.636,4.562 -24.304,4.078 -10.219,-0.738 -13.61,-6.203 -9.254,-14.899 3.847,-7.675 29.574,-31.043 54.359,-49.371 l 5.481,-4.051 3.996,-12.144 c 10.925,-33.184 24.843,-57.77 42.734,-75.496 21.051,-20.86 62.691,-46.34 103.555,-63.371 18.972,-7.906 48.761,-17.883 69.031,-23.121 l 15.781,-4.078 -10.476,-2.461 c -5.762,-1.352 -17.504,-3.758 -26.098,-5.348 -39.148,-7.234 -59.469,-1.887 -117.211,30.828 -35.812,20.293 -58.477,31.285 -79.687,38.656 -21.059,7.317 -29.793,4.465 -25.739,-8.406 1.895,-6 11.446,-20.48 20.723,-31.406 3.809,-4.485 6.656,-8.156 6.328,-8.156 -1,0 -12.418,9.164 -22.816,18.316 -26.403,23.238 -37.192,43.277 -30.614,56.863 3.012,6.227 12.664,12.668 22.051,14.711 3.32,0.727 4.645,2.078 3.328,3.399 -1.054,1.05 -9.304,-1.297 -15.398,-4.383 -10.727,-5.43 -15.125,-12.028 -15.16,-22.731 -0.02,-5.988 0.414,-7.914 3.019,-13.418 8.117,-17.132 24.961,-34.496 55.676,-57.386 8.641,-6.438 19.031,-15.567 30.758,-27.02 27.383,-26.742 56.656,-52.351 80.152,-70.117 33.223,-25.117 56.461,-34.551 99.727,-40.488 17.027,-2.336 64.039,-2.356 83.668,-0.039 14.285,1.691 16.527,2.16 16.527,3.464 0,1.258 -0.695,1.477 -16.312,5.094 -92.762,21.504 -197.262,66.383 -270.286,116.074 -17.277,11.758 -48.933,51.836 -48.933,61.954 0,6.543 9.469,5.593 31.828,-3.188 17.629,-6.926 33.875,-14.973 62.309,-30.863 30.656,-17.129 45.968,-24.977 57.289,-29.356 23.316,-9.015 40.543,-10.738 65.222,-6.519 8.176,1.398 20.969,4.027 28.426,5.843 7.461,1.817 16.5,3.418 20.086,3.555 4.937,0.188 6.598,0.594 6.816,1.66 0.184,0.899 4.586,2.828 12.118,5.313 49.585,16.371 97.503,42.512 151.089,82.422 l 17.168,12.785 16.848,-1.676 c 9.559,-0.953 24.816,-1.703 35.258,-1.734 10.125,-0.028 18.406,-0.141 18.406,-0.25 0,-0.11 -5,-10.172 -11.113,-22.367 -20.156,-40.2 -33.809,-75.704 -42.602,-110.782 -1.992,-7.961 -2.746,-9.718 -4.16,-9.718 -3.625,0 -36.43,6.64 -50.238,10.168 -40.52,10.351 -82.93,28.003 -94.832,39.472 -6.336,6.11 -3.313,7.637 15.144,7.66 7.692,0.012 17.024,-0.297 20.739,-0.687 6.285,-0.656 6.757,-0.578 6.757,1.082 0,1.566 -1.007,1.883 -8.156,2.566 -12.129,1.157 -30.887,0.887 -34.957,-0.5 -13.68,-4.66 -4.875,-14.644 25.43,-28.855 32.519,-15.242 68.683,-25.719 117.914,-34.16 l 2.836,-0.485 -2.164,-10.48 c -2.285,-11.078 -3.723,-28.598 -2.688,-32.719 0.785,-3.133 4.121,-3.305 6.879,-0.363 1.977,2.113 8.777,15.258 16.5,31.902 l 4.184,9.008 7.711,-0.75 c 13.156,-1.281 44.925,-0.75 54.781,0.918 11.539,1.953 15.863,3.539 35.418,12.992 85.195,41.199 115.004,74.688 115.082,129.309 0.019,11.714 -0.266,14.336 -2.125,19.718 -2.758,7.981 -8.192,15.524 -14.387,19.977 -2.695,1.941 -5.062,3.641 -5.254,3.777 -0.191,0.137 1.731,3.52 4.27,7.516 10.601,16.684 16.289,29.445 19.023,42.68 2.559,12.386 2.512,44.839 -0.07,50.527 -4.352,9.59 -14.699,6.141 -41.145,-13.711 -18.281,-13.727 -20.195,-15.434 -18.863,-16.801 0.824,-0.847 4.203,1.289 14.445,9.121 22.356,17.098 35.188,24.563 39.743,23.118 3.734,-1.188 4.398,-5.309 4.16,-25.817 -0.145,-12.512 -0.699,-21.5 -1.59,-25.738 -2.418,-11.496 -7.609,-23.469 -16.461,-37.981 -7.219,-11.836 -6.07,-11.121 -13.406,-8.359 -9.321,3.508 -23.293,6.863 -31.231,7.5 -6.468,0.52 -22.488,-1.187 -27.5,-2.934 -1.023,-0.355 7.891,9.161 19.809,21.153 11.922,11.988 21.672,22.297 21.672,22.902 0,3.922 -3.61,1.008 -21.676,-17.504 -17.32,-17.75 -18.875,-19.133 -14.012,-12.457 15.262,20.942 24.621,42.86 26.047,60.996 0.719,9.141 -0.914,13.426 -5.918,15.516 -12.121,5.066 -38.406,-11.637 -115.531,-73.414 -63.024,-50.477 -70.02,-55.793 -72.805,-55.336 -1.402,0.23 -6.535,0.883 -11.402,1.445 -28.559,3.305 -108.512,16.379 -131.332,21.473 -4.258,0.953 -7.012,-0.063 -5.164,-1.903 1.859,-1.851 74.316,-14.535 114.594,-20.054 13.328,-1.824 25.91,-3.633 27.96,-4.016 l 3.727,-0.699 -13.516,-10.09 C 973.168,251.539 923.414,224.395 874.422,208.09 c -18.297,-6.09 -18.477,-6.094 -37.75,-1.121 -68.578,17.711 -126.383,45.484 -168.32,80.879 -16.512,13.933 -31.247,36.269 -42.192,63.949 -4.418,11.172 -7.906,21.664 -7.379,22.195 0.219,0.215 3.031,-1.527 6.258,-3.875 30.363,-22.094 76.152,-49.531 103.438,-61.98 40.179,-18.336 72.871,-20.473 106.07,-6.938 8.098,3.301 23.562,12.403 23.562,13.871 0,1.778 -4.132,6.414 -9.14,10.258 -16.164,12.391 -40.805,21.016 -78.723,27.559 -16.301,2.808 -34.558,7.035 -42.621,9.859 -3.434,1.203 -8.379,5.637 -27.324,24.508 -28.309,28.191 -41.879,44.133 -56.52,66.379 -16.593,25.215 -25.375,51.164 -39.121,115.57 -7.351,34.434 -8.515,39.371 -9.621,40.777 -1.129,1.43 -2.246,1.489 -3.062,0.165 z m 8.472,-38.188 c 9.203,-43.316 17.074,-72.383 24.567,-90.723 4.511,-11.054 13.754,-27.172 22.504,-39.254 3.562,-4.918 6.476,-9.156 6.476,-9.418 0,-0.261 -4.297,3.43 -9.551,8.2 -11.507,10.453 -24.125,21.207 -36.23,30.879 l -8.965,7.168 -0.605,7.214 c -1.602,19.071 -2.45,36.344 -2.899,58.946 -0.266,13.586 -0.691,30.957 -0.941,38.601 -0.25,7.649 -0.262,13.711 -0.028,13.473 0.239,-0.238 2.789,-11.527 5.672,-25.086 z m -25.207,-81.875 c 3.074,-1.484 8.942,-5.023 13.035,-7.867 l 7.446,-5.176 2.429,-19.394 c 1.34,-10.665 2.286,-19.567 2.106,-19.782 -0.988,-1.191 -16.336,16.625 -23.637,27.449 -9.937,14.727 -14.144,27.465 -9.07,27.465 1.156,0 4.613,-1.215 7.691,-2.695 z m 36.496,-25.789 c 24.047,-19.422 55.84,-48.816 74.539,-68.914 6.2,-6.664 14.883,-15.574 19.301,-19.805 4.414,-4.226 7.801,-7.687 7.527,-7.687 -1.367,0 -18.105,7.383 -28.816,12.715 -22.43,11.164 -45.109,25.777 -68.332,44.027 l -11.125,8.746 -1.937,14.555 c -2.735,20.523 -3.239,25.273 -2.68,25.273 0.269,0 5.457,-4.008 11.523,-8.91 z m 617.317,-35.824 c 1.5,-1.5 1.863,-3.102 1.859,-8.157 -0.023,-20.843 -14.934,-51.578 -36.422,-75.07 -5.754,-6.289 -7.914,-7.898 -16.097,-11.98 -11.766,-5.871 -22.473,-12.95 -30.649,-20.25 -5.512,-4.926 -7.391,-5.969 -15.269,-8.492 -4.946,-1.586 -9.36,-2.758 -9.813,-2.606 -1.625,0.543 31.008,55.746 53.52,90.543 5.683,8.785 10.394,16.731 10.464,17.66 0.145,1.895 1.918,3.207 14.161,10.496 15.097,8.992 24.496,11.606 28.246,7.856 z m -612.039,-9.114 c 22.031,-17.218 49.379,-34.312 71.933,-44.96 27.336,-12.903 48.508,-19.465 79.688,-24.7 36.246,-6.082 62.429,-15.109 77.961,-26.879 9.16,-6.941 9.129,-7.023 -5.262,-14.464 -17.555,-9.079 -34.125,-12.715 -54.524,-11.961 -19.308,0.711 -32.062,3.961 -54.523,13.89 -27.766,12.278 -70.418,37.688 -105.359,62.766 l -10.758,7.719 -3.004,12.433 c -3.531,14.617 -7.551,34.336 -7,34.336 0.211,0 5.094,-3.68 10.848,-8.18 z m 554.425,-27.804 c -14.129,-21.961 -31.55,-50.664 -43.894,-72.305 -9.512,-16.676 -10.735,-18.406 -13.43,-19.004 -5.058,-1.125 -27.191,-0.617 -47.019,1.082 -18.125,1.551 -18.891,1.696 -17.278,3.262 0.926,0.898 13.504,11.004 27.946,22.449 14.445,11.445 37.046,29.41 50.23,39.918 24.445,19.488 52.813,41.102 53.301,40.613 0.148,-0.148 -4.285,-7.355 -9.856,-16.015 z m 72.661,-52.457 c 5.824,-1.485 13.007,-3.617 15.968,-4.739 l 5.383,-2.039 -2.855,-3.886 c -8.528,-11.602 -21.25,-25.739 -40.469,-44.957 -43.289,-43.293 -76.852,-69.426 -92.09,-71.715 -5.609,-0.84 -10.203,1.16 -12.082,5.258 -3.121,6.804 -3.039,7.203 4.754,22.937 18.367,37.074 24.375,45.41 59.254,82.262 14.066,14.859 15.543,15.805 28.34,18.121 12,2.172 21.804,1.812 33.797,-1.242 z m 33.472,-15.606 c 8.903,-8.492 12.035,-17.226 12.051,-33.613 0.02,-10.969 -2.289,-25.664 -5.461,-34.887 -4.984,-14.48 -14.527,-28.383 -28.711,-41.82 -17.113,-16.211 -33.226,-26.52 -71.133,-45.508 -29.234,-14.644 -32.965,-15.976 -49.863,-17.855 -13.25,-1.469 -50.363,-0.754 -52.121,1.004 -0.461,0.457 8.961,21.828 27.187,61.679 l 3.313,7.242 1.668,-3.726 c 5.078,-11.344 20.152,-9.707 41.144,4.457 27.29,18.414 79.461,67.902 103.985,98.633 10.328,12.941 9.254,12.679 17.941,4.394 z m -106.152,-7.562 c -26.152,-27.676 -31.383,-34.91 -46.996,-65.008 l -9.184,-17.711 0.586,6.992 c 2.004,23.922 8.727,41.539 21.977,57.586 4.422,5.36 6.722,7.285 10.914,9.137 7.929,3.504 18.883,10.137 26.945,16.32 3.945,3.024 7.328,5.5 7.52,5.5 0.191,0 -5.102,-5.769 -11.762,-12.816 z m 3.109,10.945 c -0.695,-1.121 -9.531,-7.183 -16.254,-11.144 -8.078,-4.766 -4.293,-1.372 6.203,5.562 10.129,6.688 11.047,7.199 10.051,5.582 z m -39.73,-26.906 c -12.571,-17.168 -17.196,-27.391 -20.387,-45.07 -1.043,-5.778 -2.152,-14.907 -2.469,-20.29 l -0.57,-9.785 -8.559,-18.64 c -4.711,-10.254 -12.293,-26.946 -16.855,-37.094 l -8.297,-18.457 -3.293,0.476 c -1.812,0.258 -5.457,0.735 -8.098,1.055 l -4.804,0.578 3.117,11.809 c 8.684,32.898 22.305,68.629 38.719,101.57 16.66,33.438 14.855,30.899 23.695,33.321 9.508,2.601 9.312,2.589 7.801,0.527 z M 665.77,176.242 c 66.128,-40.344 153.71,-76.769 230.554,-95.883 5.383,-1.339 11.465,-2.914 13.516,-3.5 l 3.726,-1.062 -5.125,-0.735 c -2.82,-0.402 -17.5,-0.992 -32.621,-1.312 -30.457,-0.641 -46.523,0.484 -67.574,4.734 -38.07,7.688 -58.32,18.598 -101.902,54.899 -22.996,19.152 -63.914,56.984 -57.473,53.137 1.539,-0.922 9.141,-5.543 16.899,-10.278 z m 410.289,-28.816 c 0.718,-0.656 -19.036,-38.977 -19.895,-38.594 -1.93,0.863 -0.562,16.016 2.973,32.887 l 1.527,7.308 7.539,-0.652 c 4.145,-0.359 7.68,-0.785 7.856,-0.949 z"
         style="fill:#625970;fill-opacity:1;fill-rule:nonzero;stroke:none"
         id="path1322" /></g></g></svg>
