<?xml version="1.0" encoding="UTF-8" standalone="no"?>
<svg
   xmlns:svg="http://www.w3.org/2000/svg"
   xmlns="http://www.w3.org/2000/svg"
   xmlns:sodipodi="http://sodipodi.sourceforge.net/DTD/sodipodi-0.dtd"
   xmlns:inkscape="http://www.inkscape.org/namespaces/inkscape"
   inkscape:version="1.1-dev (1:0.92.0+devel+202005110039+9ce7266)"
   sodipodi:docname="09a.svg"
   version="1.1"
   id="svg1674"
   xml:space="preserve"
   width="2527.5789"
   height="2526.3159"
   viewBox="0 0 2527.5789 2526.3159"><sodipodi:namedview
     inkscape:current-layer="svg1674"
     inkscape:window-maximized="0"
     inkscape:window-y="30"
     inkscape:window-x="0"
     inkscape:cy="1263.158"
     inkscape:cx="1263.7894"
     inkscape:zoom="0.26956249"
     showgrid="false"
     id="namedview957"
     inkscape:window-height="480"
     inkscape:window-width="796"
     inkscape:pageshadow="2"
     inkscape:pageopacity="0"
     guidetolerance="10"
     gridtolerance="10"
     objecttolerance="10"
     borderopacity="1"
     bordercolor="#666666"
     pagecolor="#ffffff" /><defs
     id="defs1678" /><g
     style="fill:#625970;fill-opacity:1"
     id="g1680"
     transform="matrix(1.3333333,0,0,1.3333333,0,4.5824564e-5)"><g
       style="fill:#625970;fill-opacity:1"
       id="g1682"><path
         id="path2425"
         style="font-variant:normal;font-weight:bold;font-size:100px;font-family:'IBM Plex Mono';-inkscape-font-specification:IBMPlexMono-Bold;writing-mode:lr-tb;fill:#625970;fill-opacity:1;fill-rule:nonzero;stroke:none;stroke-width:1.33333"
         d="M 108.13281 97.599609 L 108.13281 190.66602 L 125.19922 190.66602 L 125.19922 128.80078 L 126.66602 128.80078 L 147.86719 190.66602 L 171.86719 190.66602 L 171.86719 97.599609 L 154.80078 97.599609 L 154.80078 159.4668 L 153.33398 159.4668 L 132.13281 97.599609 L 108.13281 97.599609 z M 218.66602 120.26758 C 203.33268 120.26758 193.33411 126.00104 188.80078 133.73438 L 199.59961 143.33398 C 203.33294 138.26732 208.13372 134.66602 216.40039 134.66602 C 225.46706 134.66602 228.93359 138.93307 228.93359 147.06641 L 228.93359 150.5332 L 217.86719 150.5332 C 197.73385 150.5332 186.93359 157.33438 186.93359 171.73438 C 186.93359 184.66771 195.73307 192.26758 209.06641 192.26758 C 219.59974 192.26758 227.6 187.46654 230 178.5332 L 230.66602 178.5332 C 231.46602 186.26654 236.80026 190.66602 244.93359 190.66602 L 256.26758 190.66602 L 256.26758 176.40039 L 248.66602 176.40039 L 248.66602 146.26758 C 248.66602 128.93425 237.46602 120.26758 218.66602 120.26758 z M 293.86719 120.26758 C 286.53385 120.26758 282.93411 125.6 280.80078 132 L 279.86719 132 L 279.86719 121.86719 L 264 121.86719 L 264 190.66602 L 279.86719 190.66602 L 279.86719 141.59961 C 279.86719 136.93294 282.66758 134.80078 286.26758 134.80078 C 289.73424 134.80078 292 137.0668 292 143.4668 L 292 190.66602 L 308 190.66602 L 308 141.59961 C 308 136.93294 310.79948 134.80078 314.13281 134.80078 C 317.73281 134.80078 320.13281 137.0668 320.13281 143.4668 L 320.13281 190.66602 L 336 190.66602 L 336 141.4668 C 336 127.33346 331.19961 120.26758 321.59961 120.26758 C 313.06628 120.26758 309.20026 125.73333 306.93359 132 L 306.13281 132 C 304.66615 124.4 300.40052 120.26758 293.86719 120.26758 z M 380.13281 120.26758 C 359.46615 120.26758 346.66602 133.99987 346.66602 156.5332 C 346.66602 178.5332 358.80052 192.26758 381.86719 192.26758 C 396.66719 192.26758 406.00065 186.66615 411.33398 180.13281 L 400.66602 168.5332 C 396.39935 173.59987 390.66654 177.06641 382.5332 177.06641 C 371.99987 177.06641 366.26758 171.06758 366.26758 162.26758 L 366.26758 161.06641 L 413.33398 161.06641 L 413.33398 155.19922 C 413.33398 133.73255 400.66615 120.26758 380.13281 120.26758 z M 460 120.26758 C 450 120.26758 446 125.33398 446 131.33398 L 446 136 C 446 142 450 147.06641 460 147.06641 C 470 147.06641 474 142 474 136 L 474 131.33398 C 474 125.33398 470 120.26758 460 120.26758 z M 610.5332 120.26758 C 602.9332 120.26758 599.46732 124.53385 597.33398 129.86719 L 596.80078 129.86719 L 596.80078 121.86719 L 586.93359 121.86719 L 586.93359 190.66602 L 596.80078 190.66602 L 596.80078 140.13281 C 596.80078 132.79948 600.79987 129.06641 606.5332 129.06641 C 612.79987 129.06641 614.80078 132.93268 614.80078 144.66602 L 614.80078 190.66602 L 624.66602 190.66602 L 624.66602 140.13281 C 624.66602 132.79948 628.66758 129.06641 634.26758 129.06641 C 640.66758 129.06641 642.66602 132.93268 642.66602 144.66602 L 642.66602 190.66602 L 652.5332 190.66602 L 652.5332 142.93359 C 652.5332 128.40026 649.60039 120.26758 638.40039 120.26758 C 630.26706 120.26758 626.00013 124.79974 623.4668 131.06641 L 623.06641 131.06641 C 622.26641 124.66641 618.39987 120.26758 610.5332 120.26758 z M 700.26758 120.26758 C 681.60091 120.26758 668.66602 134.40039 668.66602 156.40039 C 668.66602 178.13372 681.20026 192.26758 700.93359 192.26758 C 714.53359 192.26758 724.39987 185.60039 728.5332 176.40039 L 720.66602 171.06641 C 717.06602 178.53307 710.13359 183.06641 700.93359 183.06641 C 688.00026 183.06641 679.86719 174.26615 679.86719 162.13281 L 679.86719 158.93359 L 730.80078 158.93359 L 730.80078 153.86719 C 730.80078 134.40052 718.80091 120.26758 700.26758 120.26758 z M 783.59961 120.26758 C 772.26628 120.26758 766.93333 126.26641 764 133.06641 L 763.4668 133.06641 L 763.4668 121.86719 L 752.80078 121.86719 L 752.80078 190.66602 L 763.4668 190.66602 L 763.4668 142.93359 C 763.4668 133.86693 771.99987 129.73437 780.5332 129.73438 C 791.06654 129.73438 796.80078 135.86706 796.80078 148.40039 L 796.80078 190.66602 L 807.4668 190.66602 L 807.4668 146.5332 C 807.4668 129.86654 797.99961 120.26758 783.59961 120.26758 z M 860.26758 120.26758 C 841.60091 120.26758 828.66602 134.40039 828.66602 156.40039 C 828.66602 178.13372 841.20026 192.26758 860.93359 192.26758 C 874.53359 192.26758 884.39987 185.60039 888.5332 176.40039 L 880.66602 171.06641 C 877.06602 178.53307 870.13359 183.06641 860.93359 183.06641 C 848.00026 183.06641 839.86719 174.26615 839.86719 162.13281 L 839.86719 158.93359 L 890.80078 158.93359 L 890.80078 153.86719 C 890.80078 134.40052 878.80091 120.26758 860.26758 120.26758 z M 906.80078 121.86719 L 934.5332 189.33398 L 926.80078 208.26758 L 910.80078 208.26758 L 910.80078 217.33398 L 920.93359 217.33398 C 931.33359 217.33398 935.3332 213.60104 938.5332 205.73438 L 972.66602 121.86719 L 962 121.86719 L 950.40039 150.66602 L 940.13281 176.80078 L 939.59961 176.80078 L 929.33398 150.66602 L 917.73242 121.86719 L 906.80078 121.86719 z M 700.26758 129.06641 C 711.60091 129.06641 719.33398 137.33346 719.33398 149.4668 L 719.33398 150.93359 L 679.86719 150.93359 L 679.86719 150 C 679.86719 138 688.53425 129.06641 700.26758 129.06641 z M 860.26758 129.06641 C 871.60091 129.06641 879.33398 137.33346 879.33398 149.4668 L 879.33398 150.93359 L 839.86719 150.93359 L 839.86719 150 C 839.86719 138 848.53425 129.06641 860.26758 129.06641 z M 380.26758 134.40039 C 388.80091 134.40039 394 140.00026 394 148.93359 L 394 150 L 366.26758 150 L 366.26758 148.93359 C 366.26758 140.13359 371.73425 134.40039 380.26758 134.40039 z M 218.40039 161.19922 L 228.93359 161.19922 L 228.93359 169.4668 C 228.93359 175.8668 223.46654 179.33398 216.5332 179.33398 C 210.26654 179.33398 206.26758 176.8 206.26758 172 L 206.26758 169.33398 C 206.26758 164.00065 210.53372 161.19922 218.40039 161.19922 z M 460 165.4668 C 450 165.4668 446 170.5332 446 176.5332 L 446 181.19922 C 446 187.19922 450 192.26758 460 192.26758 C 470 192.26758 474 187.19922 474 181.19922 L 474 176.5332 C 474 170.5332 470 165.4668 460 165.4668 z M 619.73242 262.66602 C 600.93242 262.66602 589.86719 271.86667 589.86719 286 C 589.86719 296.66667 596.13333 304.53385 606 307.86719 L 606 308.93359 C 594.66667 312.00026 587.06641 319.33333 587.06641 332 C 587.06641 347.33333 598.13242 358.93359 619.73242 358.93359 C 641.33242 358.93359 652.40039 347.33333 652.40039 332 C 652.40039 319.33333 644.80013 312.00026 633.4668 308.93359 L 633.4668 307.86719 C 643.33346 304.53385 649.59961 296.66667 649.59961 286 C 649.59961 271.86667 638.53242 262.66602 619.73242 262.66602 z M 125.86719 264.26758 L 100.66602 357.33398 L 120.93359 357.33398 L 126.66602 334.93359 L 152.13281 334.93359 L 158 357.33398 L 179.33398 357.33398 L 154.13281 264.26758 L 125.86719 264.26758 z M 542 264.26758 C 526.8 274.00091 508.26758 295.59922 508.26758 323.19922 C 508.26758 345.33255 520.26719 358.93359 539.86719 358.93359 C 558.80052 358.93359 571.19922 346.39948 571.19922 328.13281 C 571.19922 310.53281 559.60065 299.4668 543.33398 299.4668 C 531.73398 299.4668 524.93372 305.20078 520.40039 312.80078 L 519.73242 312.5332 C 524.93242 290.9332 536.13372 278.80091 556.40039 264.26758 L 542 264.26758 z M 619.73242 272.13281 C 631.46575 272.13281 638.26758 277.59974 638.26758 287.06641 L 638.26758 288.93359 C 638.26758 298.40026 631.73242 303.86719 619.73242 303.86719 C 607.73242 303.86719 601.19922 298.40026 601.19922 288.93359 L 601.19922 287.06641 C 601.19922 277.59974 607.99909 272.13281 619.73242 272.13281 z M 241.86719 275.33398 C 235.33385 275.33398 231.33398 279.33268 231.33398 284.66602 L 231.33398 288.40039 C 227.73398 287.46706 223.59922 286.93359 219.19922 286.93359 C 201.19922 286.93359 189.33398 295.4668 189.33398 311.4668 C 189.33398 321.60013 194.13424 328.79935 202.26758 332.66602 L 202.26758 333.4668 C 194.80091 335.20013 189.86719 337.99935 189.86719 344.66602 C 189.86719 350.66602 193.60013 353.73346 199.4668 355.4668 L 199.4668 356.26758 C 191.20013 358.40091 186.26758 362.00104 186.26758 369.73438 C 186.26758 379.06771 193.46628 385.59961 219.59961 385.59961 C 245.73294 385.59961 257.73242 378.80091 257.73242 364.26758 C 257.73242 352.66758 250.13372 344.40039 230.40039 344.40039 L 214.66602 344.40039 C 209.19935 344.40039 204.5332 344.13437 204.5332 339.73438 C 204.5332 337.33438 206 335.73268 208 334.66602 C 211.33333 335.59935 215.19922 336 219.19922 336 C 237.33255 336 249.33398 327.33346 249.33398 311.4668 C 249.33398 301.73346 244.93346 294.80026 237.4668 290.93359 L 237.4668 289.73438 L 254 289.73438 L 254 275.33398 L 241.86719 275.33398 z M 138.93359 283.59961 L 140 283.59961 L 149.06641 318.80078 L 129.86719 318.80078 L 138.93359 283.59961 z M 300.13281 286.93359 C 279.46615 286.93359 266.66602 300.66589 266.66602 323.19922 C 266.66602 345.19922 278.80052 358.93359 301.86719 358.93359 C 316.66719 358.93359 326.00065 353.33411 331.33398 346.80078 L 320.66602 335.19922 C 316.39935 340.26589 310.66654 343.73438 302.5332 343.73438 C 291.99987 343.73438 286.26758 337.73359 286.26758 328.93359 L 286.26758 327.73438 L 333.33398 327.73438 L 333.33398 321.86719 C 333.33398 300.40052 320.66615 286.93359 300.13281 286.93359 z M 380 286.93359 C 370 286.93359 366 292 366 298 L 366 302.66602 C 366 308.66602 370 313.73438 380 313.73438 C 390 313.73438 394 308.66602 394 302.66602 L 394 298 C 394 292 390 286.93359 380 286.93359 z M 219.19922 299.4668 C 227.06589 299.4668 230.66602 303.86719 230.66602 309.86719 L 230.66602 313.06641 C 230.66602 319.06641 227.06589 323.4668 219.19922 323.4668 C 211.46589 323.4668 208 319.06641 208 313.06641 L 208 309.86719 C 208 303.86719 211.46589 299.4668 219.19922 299.4668 z M 300.26758 301.06641 C 308.80091 301.06641 314 306.66628 314 315.59961 L 314 316.66602 L 286.26758 316.66602 L 286.26758 315.59961 C 286.26758 306.79961 291.73425 301.06641 300.26758 301.06641 z M 539.73242 308.66602 C 552.39909 308.66602 559.86719 315.99987 559.86719 328.5332 L 559.86719 329.59961 C 559.86719 342.13294 552.39909 349.4668 539.73242 349.4668 C 527.06576 349.4668 519.59961 342.13294 519.59961 329.59961 L 519.59961 328.5332 C 519.59961 315.99987 527.06576 308.66602 539.73242 308.66602 z M 619.73242 312.93359 C 633.06575 312.93359 640.80078 319.06771 640.80078 329.73438 L 640.80078 332.66602 C 640.80078 343.19935 632.79909 349.4668 619.73242 349.4668 C 606.66576 349.4668 598.66602 343.19935 598.66602 332.66602 L 598.66602 329.73438 C 598.66602 319.06771 606.39909 312.93359 619.73242 312.93359 z M 380 332.13281 C 370 332.13281 366 337.19922 366 343.19922 L 366 347.86719 C 366 353.86719 370 358.93359 380 358.93359 C 390 358.93359 394 353.86719 394 347.86719 L 394 343.19922 C 394 337.19922 390 332.13281 380 332.13281 z M 205.19922 360 L 228.80078 360 C 236.80078 360 239.06641 362.13438 239.06641 365.73438 C 239.06641 370.40104 235.06615 372.93359 226.13281 372.93359 L 214.5332 372.93359 C 205.86654 372.93359 202.5332 369.86628 202.5332 365.59961 C 202.5332 363.33294 203.46589 361.46667 205.19922 360 z M 1263.5996 424.26758 C 1257.4663 424.26758 1255.1992 427.19974 1255.1992 431.06641 L 1255.1992 433.19922 C 1255.1992 437.06589 1257.4663 440 1263.5996 440 C 1269.7329 440 1272 437.06589 1272 433.19922 L 1272 431.06641 C 1272 427.19974 1269.7329 424.26758 1263.5996 424.26758 z M 1423.5996 424.26758 C 1417.4663 424.26758 1415.1992 427.19974 1415.1992 431.06641 L 1415.1992 433.19922 C 1415.1992 437.06589 1417.4663 440 1423.5996 440 C 1429.7329 440 1432 437.06589 1432 433.19922 L 1432 431.06641 C 1432 427.19974 1429.7329 424.26758 1423.5996 424.26758 z M 232.40039 425.33398 L 232.40039 467.73438 L 231.4668 467.73438 C 228.00013 459.46771 222.13307 453.59961 211.06641 453.59961 C 195.86641 453.59961 185.19922 464.66628 185.19922 489.59961 C 185.19922 514.53294 195.86641 525.59961 211.06641 525.59961 C 222.13307 525.59961 228.00013 519.73346 231.4668 511.4668 L 232.40039 511.4668 L 232.40039 524 L 252.13281 524 L 252.13281 425.33398 L 232.40039 425.33398 z M 312.40039 425.33398 L 312.40039 467.73438 L 311.4668 467.73438 C 308.00013 459.46771 302.13307 453.59961 291.06641 453.59961 C 275.86641 453.59961 265.19922 464.66628 265.19922 489.59961 C 265.19922 514.53294 275.86641 525.59961 291.06641 525.59961 C 302.13307 525.59961 308.00013 519.73346 311.4668 511.4668 L 312.40039 511.4668 L 312.40039 524 L 332.13281 524 L 332.13281 425.33398 L 312.40039 425.33398 z M 1036.1328 425.33398 L 1036.1328 466.40039 L 1035.5996 466.40039 C 1031.1996 458.00039 1024.0004 453.59961 1014.4004 453.59961 C 997.60039 453.59961 987.4668 467.06628 987.4668 489.59961 C 987.4668 512.13294 997.60039 525.59961 1014.4004 525.59961 C 1024.0004 525.59961 1031.1996 521.20078 1035.5996 512.80078 L 1036.1328 512.80078 L 1036.1328 524 L 1046.8008 524 L 1046.8008 425.33398 L 1036.1328 425.33398 z M 1356 425.33398 L 1356 466.40039 L 1355.4668 466.40039 C 1351.0668 458.00039 1343.8676 453.59961 1334.2676 453.59961 C 1317.4676 453.59961 1307.334 467.06628 1307.334 489.59961 C 1307.334 512.13294 1317.4676 525.59961 1334.2676 525.59961 C 1343.8676 525.59961 1351.0668 521.20078 1355.4668 512.80078 L 1356 512.80078 L 1356 524 L 1366.666 524 L 1366.666 425.33398 L 1356 425.33398 z M 2075.5996 425.33398 L 2075.5996 466.40039 L 2075.0664 466.40039 C 2070.6664 458.00039 2063.4672 453.59961 2053.8672 453.59961 C 2037.0672 453.59961 2026.9336 467.06628 2026.9336 489.59961 C 2026.9336 512.13294 2037.0672 525.59961 2053.8672 525.59961 C 2063.4672 525.59961 2070.6664 521.20078 2075.0664 512.80078 L 2075.5996 512.80078 L 2075.5996 524 L 2086.2676 524 L 2086.2676 425.33398 L 2075.5996 425.33398 z M 125.86719 430.93359 L 100.66602 524 L 120.93359 524 L 126.66602 501.59961 L 152.13281 501.59961 L 158 524 L 179.33398 524 L 154.13281 430.93359 L 125.86719 430.93359 z M 831.4668 430.93359 L 831.4668 524 L 842.66602 524 L 842.66602 484.26758 L 857.4668 484.26758 L 880.13281 524 L 892.66602 524 L 868.93359 483.73438 C 883.73359 482.26771 891.86719 472.66771 891.86719 457.73438 C 891.86719 440.93438 882.53398 430.93359 865.33398 430.93359 L 831.4668 430.93359 z M 1151.334 430.93359 L 1151.334 524 L 1162.5332 524 L 1162.5332 484.26758 L 1177.334 484.26758 L 1200 524 L 1212.5332 524 L 1188.8008 483.73438 C 1203.6008 482.26771 1211.7324 472.66771 1211.7324 457.73438 C 1211.7324 440.93438 1202.3992 430.93359 1185.1992 430.93359 L 1151.334 430.93359 z M 1789.5996 430.93359 L 1789.5996 524 L 1800.8008 524 L 1800.8008 481.73438 L 1837.0664 481.73438 L 1837.0664 524 L 1848.2676 524 L 1848.2676 430.93359 L 1837.0664 430.93359 L 1837.0664 472 L 1800.8008 472 L 1800.8008 430.93359 L 1789.5996 430.93359 z M 842.66602 440.66602 L 865.06641 440.66602 C 874.39974 440.66602 880 445.60091 880 454.26758 L 880 461.19922 C 880 469.86589 874.39974 474.80078 865.06641 474.80078 L 842.66602 474.80078 L 842.66602 440.66602 z M 1162.5332 440.66602 L 1184.9336 440.66602 C 1194.2669 440.66602 1199.8672 445.60091 1199.8672 454.26758 L 1199.8672 461.19922 C 1199.8672 469.86589 1194.2669 474.80078 1184.9336 474.80078 L 1162.5332 474.80078 L 1162.5332 440.66602 z M 1600.8008 445.86719 C 1594.8008 445.86719 1592.5332 449.86589 1592.5332 455.19922 L 1592.5332 456.40039 C 1588.6665 454.53372 1584.1336 453.59961 1578.9336 453.59961 C 1562.8003 453.59961 1552.2676 463.33398 1552.2676 477.33398 C 1552.2676 487.06732 1557.3324 494.66706 1565.7324 498.40039 L 1565.7324 498.93359 C 1558.6658 500.66693 1553.334 503.86693 1553.334 510.93359 C 1553.334 515.60026 1555.6001 518.53372 1559.4668 520.40039 L 1559.4668 522 C 1552.4001 523.86667 1548.2676 527.86589 1548.2676 535.19922 C 1548.2676 546.13255 1557.3335 552.26758 1579.4668 552.26758 C 1602.4001 552.26758 1614.1328 545.73385 1614.1328 531.86719 C 1614.1328 520.66719 1606.5341 513.4668 1588.8008 513.4668 L 1573.5996 513.4668 C 1567.0663 513.4668 1562.5332 512.53372 1562.5332 508.40039 C 1562.5332 503.73372 1568.2671 501.3332 1572.4004 500.5332 C 1574.5337 500.9332 1576.6669 501.06641 1578.9336 501.06641 C 1595.0669 501.06641 1605.7324 491.33398 1605.7324 477.33398 C 1605.7324 470.13398 1602.9333 464.13385 1598 459.86719 L 1598 455.19922 L 1613.4668 455.19922 L 1613.4668 445.86719 L 1600.8008 445.86719 z M 138.93359 450.26758 L 140 450.26758 L 149.06641 485.4668 L 129.86719 485.4668 L 138.93359 450.26758 z M 460.13281 453.59961 C 439.46615 453.59961 426.66602 467.33385 426.66602 489.86719 C 426.66602 511.86719 438.80052 525.59961 461.86719 525.59961 C 476.66719 525.59961 486.00065 520.00013 491.33398 513.4668 L 480.66602 501.86719 C 476.39935 506.93385 470.66654 510.40039 462.5332 510.40039 C 451.99987 510.40039 446.26758 504.39961 446.26758 495.59961 L 446.26758 494.40039 L 493.33398 494.40039 L 493.33398 488.5332 C 493.33398 467.06654 480.66615 453.59961 460.13281 453.59961 z M 541.73242 453.59961 C 521.86576 453.59961 510.26758 462.26602 510.26758 476.66602 C 510.26758 489.73268 520.00091 494.93411 532.26758 496.80078 L 543.33398 498.5332 C 548.66732 499.3332 551.86719 500.53372 551.86719 504.40039 C 551.86719 509.33372 547.06732 511.73438 539.33398 511.73438 C 530.13398 511.73438 522.93294 508.26706 517.59961 502.40039 L 506.5332 512.66602 C 512.1332 520.66602 523.99922 525.59961 539.19922 525.59961 C 559.59922 525.59961 571.19922 516.53424 571.19922 502.26758 C 571.19922 489.20091 561.46641 483.99948 549.06641 482.13281 L 538.13281 480.40039 C 532.79948 479.60039 529.59961 478.40039 529.59961 474.40039 C 529.59961 469.86706 533.59974 467.4668 541.06641 467.4668 C 549.99974 467.4668 556.5332 470.93398 560.5332 475.33398 L 570.40039 464.13281 C 564.66706 457.46615 555.19909 453.59961 541.73242 453.59961 z M 621.73242 453.59961 C 601.86576 453.59961 590.26758 462.26602 590.26758 476.66602 C 590.26758 489.73268 600.00091 494.93411 612.26758 496.80078 L 623.33398 498.5332 C 628.66732 499.3332 631.86719 500.53372 631.86719 504.40039 C 631.86719 509.33372 627.06732 511.73438 619.33398 511.73438 C 610.13398 511.73438 602.93294 508.26706 597.59961 502.40039 L 586.5332 512.66602 C 592.1332 520.66602 603.99922 525.59961 619.19922 525.59961 C 639.59922 525.59961 651.19922 516.53424 651.19922 502.26758 C 651.19922 489.20091 641.46641 483.99948 629.06641 482.13281 L 618.13281 480.40039 C 612.79948 479.60039 609.59961 478.40039 609.59961 474.40039 C 609.59961 469.86706 613.59974 467.4668 621.06641 467.4668 C 629.99974 467.4668 636.5332 470.93398 640.5332 475.33398 L 650.40039 464.13281 C 644.66706 457.46615 635.19909 453.59961 621.73242 453.59961 z M 699.59961 453.59961 C 689.59961 453.59961 685.59961 458.66602 685.59961 464.66602 L 685.59961 469.33398 C 685.59961 475.33398 689.59961 480.40039 699.59961 480.40039 C 709.59961 480.40039 713.59961 475.33398 713.59961 469.33398 L 713.59961 464.66602 C 713.59961 458.66602 709.59961 453.59961 699.59961 453.59961 z M 940 453.59961 C 921.33333 453.59961 908.40039 467.73438 908.40039 489.73438 C 908.40039 511.46771 920.93268 525.59961 940.66602 525.59961 C 954.26602 525.59961 964.13424 518.93437 968.26758 509.73438 L 960.40039 504.40039 C 956.80039 511.86706 949.86602 516.40039 940.66602 516.40039 C 927.73268 516.40039 919.59961 507.60013 919.59961 495.4668 L 919.59961 492.26758 L 970.5332 492.26758 L 970.5332 487.19922 C 970.5332 467.73255 958.53333 453.59961 940 453.59961 z M 1503.1992 453.59961 C 1491.8659 453.59961 1486.5329 459.60039 1483.5996 466.40039 L 1483.0664 466.40039 L 1483.0664 455.19922 L 1472.4004 455.19922 L 1472.4004 524 L 1483.0664 524 L 1483.0664 476.26758 C 1483.0664 467.20091 1491.5995 463.06641 1500.1328 463.06641 C 1510.6661 463.06641 1516.4004 469.20104 1516.4004 481.73438 L 1516.4004 524 L 1527.0664 524 L 1527.0664 479.86719 C 1527.0664 463.20052 1517.5992 453.59961 1503.1992 453.59961 z M 1898.9336 453.59961 C 1879.6003 453.59961 1867.7324 467.73294 1867.7324 489.59961 C 1867.7324 511.46628 1879.6003 525.59961 1898.9336 525.59961 C 1918.2669 525.59961 1930.1328 511.46628 1930.1328 489.59961 C 1930.1328 467.73294 1918.2669 453.59961 1898.9336 453.59961 z M 1978.9336 453.59961 C 1959.6003 453.59961 1947.7324 467.73294 1947.7324 489.59961 C 1947.7324 511.46628 1959.6003 525.59961 1978.9336 525.59961 C 1998.2669 525.59961 2010.1328 511.46628 2010.1328 489.59961 C 2010.1328 467.73294 1998.2669 453.59961 1978.9336 453.59961 z M 349.86719 455.19922 L 349.86719 470.5332 L 365.73242 470.5332 L 365.73242 508.66602 L 349.86719 508.66602 L 349.86719 524 L 408.13281 524 L 408.13281 508.66602 L 385.4668 508.66602 L 385.4668 488.26758 C 385.4668 480.00091 390.53425 473.33398 400.26758 473.33398 L 414.93359 473.33398 L 414.93359 455.19922 L 408.40039 455.19922 C 394.80039 455.19922 388.93372 464.53268 386.40039 474.66602 L 385.4668 474.66602 L 385.4668 455.19922 L 349.86719 455.19922 z M 1233.4668 455.19922 L 1233.4668 464.26758 L 1258.2676 464.26758 L 1258.2676 514.93359 L 1233.4668 514.93359 L 1233.4668 524 L 1292.1328 524 L 1292.1328 514.93359 L 1268.9336 514.93359 L 1268.9336 455.19922 L 1233.4668 455.19922 z M 1393.4668 455.19922 L 1393.4668 464.26758 L 1418.2676 464.26758 L 1418.2676 514.93359 L 1393.4668 514.93359 L 1393.4668 524 L 1452.1328 524 L 1452.1328 514.93359 L 1428.9336 514.93359 L 1428.9336 455.19922 L 1393.4668 455.19922 z M 1578.9336 461.86719 C 1589.6003 461.86719 1594.5332 467.20065 1594.5332 475.33398 L 1594.5332 479.19922 C 1594.5332 487.33255 1589.6003 492.80078 1578.9336 492.80078 C 1568.4003 492.80078 1563.4668 487.33255 1563.4668 479.19922 L 1563.4668 475.33398 C 1563.4668 467.20065 1568.4003 461.86719 1578.9336 461.86719 z M 940 462.40039 C 951.33333 462.40039 959.06641 470.66745 959.06641 482.80078 L 959.06641 484.26758 L 919.59961 484.26758 L 919.59961 483.33398 C 919.59961 471.33398 928.26667 462.40039 940 462.40039 z M 1898.9336 462.80078 C 1910.8003 462.80078 1918.8008 469.86602 1918.8008 484.66602 L 1918.8008 494.5332 C 1918.8008 509.3332 1910.8003 516.40039 1898.9336 516.40039 C 1887.0669 516.40039 1879.0664 509.3332 1879.0664 494.5332 L 1879.0664 484.66602 C 1879.0664 469.86602 1887.0669 462.80078 1898.9336 462.80078 z M 1978.9336 462.80078 C 1990.8003 462.80078 1998.8008 469.86602 1998.8008 484.66602 L 1998.8008 494.5332 C 1998.8008 509.3332 1990.8003 516.40039 1978.9336 516.40039 C 1967.0669 516.40039 1959.0664 509.3332 1959.0664 494.5332 L 1959.0664 484.66602 C 1959.0664 469.86602 1967.0669 462.80078 1978.9336 462.80078 z M 1018.5332 463.06641 C 1027.9999 463.06641 1036.1328 467.99922 1036.1328 477.19922 L 1036.1328 502 C 1036.1328 511.2 1027.9999 516.13281 1018.5332 516.13281 C 1006.1332 516.13281 998.93359 507.8668 998.93359 495.4668 L 998.93359 483.73438 C 998.93359 471.33438 1006.1332 463.06641 1018.5332 463.06641 z M 1338.4004 463.06641 C 1347.8671 463.06641 1356 467.99922 1356 477.19922 L 1356 502 C 1356 511.2 1347.8671 516.13281 1338.4004 516.13281 C 1326.0004 516.13281 1318.8008 507.8668 1318.8008 495.4668 L 1318.8008 483.73438 C 1318.8008 471.33438 1326.0004 463.06641 1338.4004 463.06641 z M 2058 463.06641 C 2067.4667 463.06641 2075.5996 467.99922 2075.5996 477.19922 L 2075.5996 502 C 2075.5996 511.2 2067.4667 516.13281 2058 516.13281 C 2045.6 516.13281 2038.4004 507.8668 2038.4004 495.4668 L 2038.4004 483.73438 C 2038.4004 471.33438 2045.6 463.06641 2058 463.06641 z M 460.26758 467.73438 C 468.80091 467.73438 474 473.33425 474 482.26758 L 474 483.33398 L 446.26758 483.33398 L 446.26758 482.26758 C 446.26758 473.46758 451.73425 467.73438 460.26758 467.73438 z M 219.59961 468.93359 C 226.53294 468.93359 232.40039 472.2668 232.40039 479.4668 L 232.40039 499.73438 C 232.40039 506.93437 226.53294 510.26758 219.59961 510.26758 C 210.79961 510.26758 205.73242 504.53359 205.73242 494.93359 L 205.73242 484.26758 C 205.73242 474.66758 210.79961 468.93359 219.59961 468.93359 z M 299.59961 468.93359 C 306.53294 468.93359 312.40039 472.2668 312.40039 479.4668 L 312.40039 499.73438 C 312.40039 506.93437 306.53294 510.26758 299.59961 510.26758 C 290.79961 510.26758 285.73242 504.53359 285.73242 494.93359 L 285.73242 484.26758 C 285.73242 474.66758 290.79961 468.93359 299.59961 468.93359 z M 699.59961 498.80078 C 689.59961 498.80078 685.59961 503.86719 685.59961 509.86719 L 685.59961 514.5332 C 685.59961 520.5332 689.59961 525.59961 699.59961 525.59961 C 709.59961 525.59961 713.59961 520.5332 713.59961 514.5332 L 713.59961 509.86719 C 713.59961 503.86719 709.59961 498.80078 699.59961 498.80078 z M 1659.334 506.80078 C 1652.134 506.80078 1649.4668 510.26745 1649.4668 514.80078 L 1649.4668 517.19922 C 1649.4668 521.73255 1652.134 525.19922 1659.334 525.19922 C 1666.534 525.19922 1669.1992 521.73255 1669.1992 517.19922 L 1669.1992 514.80078 C 1669.1992 510.26745 1666.534 506.80078 1659.334 506.80078 z M 1565.334 523.33398 L 1589.1992 523.33398 C 1600.2659 523.33398 1604.1328 526.93372 1604.1328 532.40039 C 1604.1328 539.86706 1596.8004 543.73438 1584.4004 543.73438 L 1574 543.73438 C 1562.8 543.73438 1558.4004 538.66602 1558.4004 532.66602 C 1558.4004 528.26602 1560.8007 525.20065 1565.334 523.33398 z M 386.80078 810.93359 C 381.46745 810.93359 378.66667 813.33398 378 817.33398 C 377.73333 818.93398 377.4668 820.13255 377.4668 821.19922 C 377.4668 823.99922 379.46589 826.5332 385.19922 826.5332 C 390.53255 826.5332 393.33333 824.13281 394 820.13281 C 394.26667 818.53281 394.5332 817.33424 394.5332 816.26758 C 394.5332 813.46758 392.53411 810.93359 386.80078 810.93359 z M 562.40039 810.93359 C 557.06706 810.93359 554.26628 813.33398 553.59961 817.33398 C 553.33294 818.93398 553.06641 820.13255 553.06641 821.19922 C 553.06641 823.99922 555.06745 826.5332 560.80078 826.5332 C 566.13411 826.5332 568.93294 824.13281 569.59961 820.13281 C 569.86628 818.53281 570.13281 817.33424 570.13281 816.26758 C 570.13281 813.46758 568.13372 810.93359 562.40039 810.93359 z M 1106.4004 810.93359 C 1101.0671 810.93359 1098.2663 813.33398 1097.5996 817.33398 C 1097.3329 818.93398 1097.0664 820.13255 1097.0664 821.19922 C 1097.0664 823.99922 1099.0674 826.5332 1104.8008 826.5332 C 1110.1341 826.5332 1112.9329 824.13281 1113.5996 820.13281 C 1113.8663 818.53281 1114.1328 817.33424 1114.1328 816.26758 C 1114.1328 813.46758 1112.1337 810.93359 1106.4004 810.93359 z M 1506 810.93359 C 1500.6667 810.93359 1497.8659 813.33398 1497.1992 817.33398 C 1496.9326 818.93398 1496.666 820.13255 1496.666 821.19922 C 1496.666 823.99922 1498.6671 826.5332 1504.4004 826.5332 C 1509.7337 826.5332 1512.5326 824.13281 1513.1992 820.13281 C 1513.4659 818.53281 1513.7324 817.33424 1513.7324 816.26758 C 1513.7324 813.46758 1511.7333 810.93359 1506 810.93359 z M 727.4668 812 L 720.40039 853.86719 L 720 853.86719 C 717.06667 844.93385 710.00052 840.26758 699.86719 840.26758 C 675.60052 840.26758 667.33398 867.19961 667.33398 885.59961 C 667.33398 903.19961 674.93411 912.26758 688.80078 912.26758 C 700.93411 912.26758 707.86589 905.20039 713.19922 894.40039 L 713.59961 894.40039 L 710.93359 910.66602 L 721.33398 910.66602 L 737.86719 812 L 727.4668 812 z M 121.06641 817.59961 L 119.59961 826.40039 L 142.93359 826.40039 L 130.26758 901.86719 L 106.93359 901.86719 L 105.4668 910.66602 L 163.06641 910.66602 L 164.5332 901.86719 L 141.19922 901.86719 L 153.86719 826.40039 L 177.19922 826.40039 L 178.66602 817.59961 L 121.06641 817.59961 z M 1176 817.59961 L 1172.9336 835.59961 C 1172.1336 840.26628 1170.0001 841.86719 1165.4668 841.86719 L 1151.4668 841.86719 L 1150 850.80078 L 1169.8672 850.80078 L 1161.8672 897.19922 C 1161.6005 898.66589 1161.4668 901.20039 1161.4668 902.40039 C 1161.4668 908.80039 1165.0673 912.26758 1171.334 912.26758 C 1176.8007 912.26758 1182.1332 909.46602 1194.5332 900.66602 L 1209.5996 890 L 1204.4004 883.33398 L 1174.4004 903.33398 L 1171.7324 901.73242 L 1180.2676 850.80078 L 1208.666 850.80078 L 1210.1328 841.86719 L 1181.7324 841.86719 L 1185.8672 817.59961 L 1176 817.59961 z M 1416 817.59961 L 1412.9336 835.59961 C 1412.1336 840.26628 1410.0001 841.86719 1405.4668 841.86719 L 1391.4668 841.86719 L 1390 850.80078 L 1409.8672 850.80078 L 1401.8672 897.19922 C 1401.6005 898.66589 1401.4668 901.20039 1401.4668 902.40039 C 1401.4668 908.80039 1405.0673 912.26758 1411.334 912.26758 C 1416.8007 912.26758 1422.1332 909.46602 1434.5332 900.66602 L 1449.5996 890 L 1444.4004 883.33398 L 1414.4004 903.33398 L 1411.7324 901.73242 L 1420.2676 850.80078 L 1448.666 850.80078 L 1450.1328 841.86719 L 1421.7324 841.86719 L 1425.8672 817.59961 L 1416 817.59961 z M 296.26758 840.26758 C 288.66758 840.26758 284.53398 845.73268 281.33398 852.66602 L 280.80078 852.66602 L 282.5332 841.86719 L 272.93359 841.86719 L 261.4668 910.66602 L 271.06641 910.66602 L 278.5332 866.13281 C 279.19987 862.13281 280.80065 857.73281 283.33398 854.13281 C 285.46732 851.06615 288.53424 848.80078 292.26758 848.80078 C 296.00091 848.80078 297.86719 851.06602 297.86719 856.66602 C 297.86719 858.79935 297.59974 861.3332 297.06641 864.5332 L 289.33398 910.66602 L 298.93359 910.66602 L 306.40039 866.13281 C 307.06706 862.13281 308.66589 857.59948 311.19922 854.13281 C 313.46589 851.06615 316.13385 848.80078 319.86719 848.80078 C 323.86719 848.80078 325.73242 851.33424 325.73242 856.26758 C 325.73242 858.13424 325.33411 861.3332 324.80078 864.5332 L 317.06641 910.66602 L 326.66602 910.66602 L 334.66602 862.80078 C 335.19935 859.60078 335.59961 856.00013 335.59961 853.4668 C 335.59961 845.0668 331.46719 840.26758 323.86719 840.26758 C 315.86719 840.26758 310.66589 845.46732 307.19922 853.33398 L 306.80078 853.33398 C 307.33411 845.86732 304.00091 840.26758 296.26758 840.26758 z M 465.19922 840.26758 C 448.93255 840.26758 435.73242 847.59948 435.73242 862.13281 C 435.73242 874.93281 446.13281 878.26576 456.13281 879.73242 L 466.13281 881.19922 C 471.73281 881.99922 476.13281 883.86758 476.13281 890.26758 C 476.13281 898.53424 468.66654 903.4668 456.5332 903.4668 C 446.1332 903.4668 439.33333 899.86589 434 893.19922 L 426.26758 899.33398 C 432.26758 907.60065 442.26628 912.26758 455.59961 912.26758 C 473.99961 912.26758 486.40039 903.46589 486.40039 889.19922 C 486.40039 875.59922 475.06758 873.46667 466.26758 872 L 456.5332 870.40039 C 450.9332 869.46706 445.86719 868.00065 445.86719 861.33398 C 445.86719 853.86732 452.13333 849.06641 464 849.06641 C 475.6 849.06641 481.19961 853.59922 483.59961 857.19922 L 490.93359 850.80078 C 485.73359 844.26745 477.19922 840.26758 465.19922 840.26758 z M 779.86719 840.26758 C 756.13385 840.26758 747.4668 866.13385 747.4668 883.86719 C 747.4668 900.66719 754.93307 910 769.06641 910 C 781.19974 910 788.39961 903.19948 793.59961 892.13281 L 794.13281 892.13281 L 791.33398 908.66602 C 788.80065 923.86602 781.33411 929.73242 768.80078 929.73242 C 760.40078 929.73242 754.79922 927.06654 751.19922 922.5332 L 744 929.4668 C 748.93333 935.60013 757.06615 938.93359 768.13281 938.93359 C 785.33281 938.93359 797.86732 930.93268 801.33398 910.66602 L 812.80078 841.86719 L 802.40039 841.86719 L 800.40039 853.86719 L 800 853.86719 C 797.06667 844.93385 790.00052 840.26758 779.86719 840.26758 z M 867.06641 840.26758 C 844.93307 840.26758 829.19922 857.86745 829.19922 882.80078 C 829.19922 902.53411 839.06706 912.26758 856.40039 912.26758 C 870.93372 912.26758 880.26667 905.33268 888 892.66602 L 880.66602 888.13281 C 872.93268 899.06615 867.20065 903.33398 857.33398 903.33398 C 842.93398 903.33398 840.13281 894.40078 840.13281 884.80078 C 840.13281 884.53411 840.13424 883.06576 840.26758 881.73242 C 884.13424 880.53242 890.40039 868.53411 890.40039 858.80078 C 890.40039 846.80078 880.53307 840.26758 867.06641 840.26758 z M 1024.8008 840.26758 C 1008.5341 840.26758 995.33398 847.59948 995.33398 862.13281 C 995.33398 874.93281 1005.7324 878.26576 1015.7324 879.73242 L 1025.7324 881.19922 C 1031.3324 881.99922 1035.7324 883.86758 1035.7324 890.26758 C 1035.7324 898.53424 1028.2661 903.4668 1016.1328 903.4668 C 1005.7328 903.4668 998.93294 899.86589 993.59961 893.19922 L 985.86719 899.33398 C 991.86719 907.60065 1001.8659 912.26758 1015.1992 912.26758 C 1033.5992 912.26758 1046 903.46589 1046 889.19922 C 1046 875.59922 1034.6672 873.46667 1025.8672 872 L 1016.1328 870.40039 C 1010.5328 869.46706 1005.4668 868.00065 1005.4668 861.33398 C 1005.4668 853.86732 1011.7329 849.06641 1023.5996 849.06641 C 1035.1996 849.06641 1040.7992 853.59922 1043.1992 857.19922 L 1050.5332 850.80078 C 1045.3332 844.26745 1036.8008 840.26758 1024.8008 840.26758 z M 1339.4668 840.26758 C 1315.2001 840.26758 1306.9336 867.19961 1306.9336 885.59961 C 1306.9336 903.19961 1314.5337 912.26758 1328.4004 912.26758 C 1340.5338 912.26758 1347.4674 905.20039 1352.8008 894.40039 L 1353.1992 894.40039 L 1350.5332 910.66602 L 1360.9336 910.66602 L 1372.4004 841.86719 L 1362 841.86719 L 1360 853.86719 L 1359.5996 853.86719 C 1356.6663 844.93385 1349.6001 840.26758 1339.4668 840.26758 z M 1583.5996 840.26758 C 1563.4663 840.26758 1547.5996 856.93255 1547.5996 883.19922 C 1547.5996 900.39922 1556.8004 912.26758 1574.4004 912.26758 C 1594.6671 912.26758 1610.5332 895.60065 1610.5332 869.33398 C 1610.5332 852.13398 1601.4663 840.26758 1583.5996 840.26758 z M 1669.5996 840.26758 C 1658.5329 840.26758 1651.7327 847.19948 1646.666 858.13281 L 1646.1328 858.13281 L 1648.8008 841.86719 L 1638.4004 841.86719 L 1626.9336 910.66602 L 1637.334 910.66602 L 1643.7324 872.66602 C 1645.0658 864.79935 1650.1329 858.66693 1651.5996 856.93359 C 1655.4663 852.40026 1660.1328 849.4668 1666.1328 849.4668 C 1673.8661 849.4668 1677.5996 854.53268 1677.5996 862.66602 C 1677.5996 864.13268 1677.4669 866.8 1676.9336 870 L 1670.1328 910.66602 L 1680.5332 910.66602 L 1687.4668 869.06641 C 1688.0001 865.99974 1688.2656 862.79948 1688.2656 860.13281 C 1688.2656 847.59948 1681.0663 840.26758 1669.5996 840.26758 z M 1744.4004 840.26758 C 1728.1337 840.26758 1714.9336 847.59948 1714.9336 862.13281 C 1714.9336 874.93281 1725.334 878.26576 1735.334 879.73242 L 1745.334 881.19922 C 1750.934 881.99922 1755.334 883.86758 1755.334 890.26758 C 1755.334 898.53424 1747.8658 903.4668 1735.7324 903.4668 C 1725.3324 903.4668 1718.5326 899.86589 1713.1992 893.19922 L 1705.4668 899.33398 C 1711.4668 907.60065 1721.4674 912.26758 1734.8008 912.26758 C 1753.2008 912.26758 1765.5996 903.46589 1765.5996 889.19922 C 1765.5996 875.59922 1754.2668 873.46667 1745.4668 872 L 1735.7324 870.40039 C 1730.1324 869.46706 1725.0664 868.00065 1725.0664 861.33398 C 1725.0664 853.86732 1731.3326 849.06641 1743.1992 849.06641 C 1754.7992 849.06641 1760.4008 853.59922 1762.8008 857.19922 L 1770.1328 850.80078 C 1764.9328 844.26745 1756.4004 840.26758 1744.4004 840.26758 z M 352.26758 841.86719 L 350.80078 850.80078 L 375.59961 850.80078 L 366.5332 897.73242 C 366.26654 899.33242 365.86719 901.33307 365.86719 903.06641 C 365.86719 908.39974 369.46615 912.26758 376.13281 912.26758 C 382.13281 912.26758 387.06628 909.0668 399.59961 897.4668 L 411.73242 886.26758 L 405.4668 880.40039 L 379.19922 903.06641 L 376.13281 901.86719 L 387.73242 841.86719 L 352.26758 841.86719 z M 524.26758 841.86719 L 522.80078 850.80078 L 551.19922 850.80078 L 538.13281 929.06641 L 535.73242 929.59961 L 514.66602 907.19922 L 507.59961 913.59961 L 516.26758 923.06641 C 527.73424 935.59974 531.06654 938.93359 536.5332 938.93359 C 544.39987 938.93359 547.99922 932.26693 549.19922 924.93359 L 563.06641 841.86719 L 524.26758 841.86719 z M 598.66602 841.86719 L 591.73242 883.4668 C 591.19909 886.53346 590.93359 889.73372 590.93359 892.40039 C 590.93359 904.93372 598.13294 912.26758 609.59961 912.26758 C 620.66628 912.26758 627.46654 905.33372 632.5332 894.40039 L 633.06641 894.40039 L 630.40039 910.66602 L 640.80078 910.66602 L 652.26758 841.86719 L 641.86719 841.86719 L 635.4668 879.86719 C 634.13346 887.73385 629.06628 893.86628 627.59961 895.59961 C 623.73294 900.13294 619.06641 903.06641 613.06641 903.06641 C 605.33307 903.06641 601.59961 898.00052 601.59961 889.86719 C 601.59961 888.40052 601.73424 885.7332 602.26758 882.5332 L 609.06641 841.86719 L 598.66602 841.86719 z M 1071.8672 841.86719 L 1070.4004 850.80078 L 1095.1992 850.80078 L 1086.1328 897.73242 C 1085.8661 899.33242 1085.4668 901.33307 1085.4668 903.06641 C 1085.4668 908.39974 1089.0658 912.26758 1095.7324 912.26758 C 1101.7324 912.26758 1106.6659 909.0668 1119.1992 897.4668 L 1131.334 886.26758 L 1125.0664 880.40039 L 1098.8008 903.06641 L 1095.7324 901.86719 L 1107.334 841.86719 L 1071.8672 841.86719 z M 1238.2676 841.86719 L 1231.334 883.4668 C 1230.8007 886.53346 1230.5332 889.73372 1230.5332 892.40039 C 1230.5332 904.93372 1237.7326 912.26758 1249.1992 912.26758 C 1260.2659 912.26758 1267.0661 905.33372 1272.1328 894.40039 L 1272.666 894.40039 L 1270 910.66602 L 1280.4004 910.66602 L 1291.8672 841.86719 L 1281.4668 841.86719 L 1275.0664 879.86719 C 1273.7331 887.73385 1268.6659 893.86628 1267.1992 895.59961 C 1263.3326 900.13294 1258.666 903.06641 1252.666 903.06641 C 1244.9327 903.06641 1241.1992 898.00052 1241.1992 889.86719 C 1241.1992 888.40052 1241.3339 885.7332 1241.8672 882.5332 L 1248.666 841.86719 L 1238.2676 841.86719 z M 1471.4668 841.86719 L 1470 850.80078 L 1494.8008 850.80078 L 1485.7324 897.73242 C 1485.4658 899.33242 1485.0664 901.33307 1485.0664 903.06641 C 1485.0664 908.39974 1488.6673 912.26758 1495.334 912.26758 C 1501.334 912.26758 1506.2674 909.0668 1518.8008 897.4668 L 1530.9336 886.26758 L 1524.666 880.40039 L 1498.4004 903.06641 L 1495.334 901.86719 L 1506.9336 841.86719 L 1471.4668 841.86719 z M 866.13281 848.93359 C 876.13281 848.93359 879.73242 853.59922 879.73242 859.19922 C 879.73242 865.86589 874.66641 873.46654 841.06641 874.5332 L 841.19922 873.19922 C 843.19922 857.59922 852.26615 848.93359 866.13281 848.93359 z M 1583.1992 849.33398 C 1593.4659 849.33398 1600 854.66758 1600 866.26758 C 1600 867.86758 1599.8673 869.86641 1599.334 873.06641 L 1598 881.06641 C 1595.7333 894.66641 1587.8669 903.19922 1574.9336 903.19922 C 1564.6669 903.19922 1558.1328 897.86758 1558.1328 886.26758 C 1558.1328 884.66758 1558.2674 882.6668 1558.8008 879.4668 L 1560.1328 871.4668 C 1562.3995 857.8668 1570.2659 849.33398 1583.1992 849.33398 z M 702.93359 849.4668 C 713.20026 849.4668 720.26602 854.9332 718.66602 864.5332 L 716.13281 879.73242 C 715.06615 886.13242 711.99987 891.60013 708.5332 895.4668 C 703.7332 900.80013 698.13372 903.06641 692.40039 903.06641 C 682.80039 903.06641 677.86719 896.93268 677.86719 886.66602 C 677.86719 884.93268 678.00039 883.06602 678.40039 880.66602 L 680 871.06641 C 682.13333 858.26641 689.73359 849.4668 702.93359 849.4668 z M 782.93359 849.4668 C 793.20026 849.4668 800.26602 854.9332 798.66602 864.5332 L 796.5332 877.59961 C 795.3332 885.06628 791.46693 890.39922 788.93359 893.19922 C 784.00026 898.66589 778.39935 900.80078 772.66602 900.80078 C 763.06602 900.80078 758.13281 894.80052 758.13281 883.86719 C 758.13281 882.00052 758.40078 880.4 758.80078 878 L 760 870.80078 C 762.13333 858.00078 770.00026 849.4668 782.93359 849.4668 z M 1342.5332 849.4668 C 1352.7999 849.4668 1359.8676 854.9332 1358.2676 864.5332 L 1355.7324 879.73242 C 1354.6658 886.13242 1351.5995 891.60013 1348.1328 895.4668 C 1343.3328 900.80013 1337.7334 903.06641 1332 903.06641 C 1322.4 903.06641 1317.4668 896.93268 1317.4668 886.66602 C 1317.4668 884.93268 1317.6 883.06602 1318 880.66602 L 1319.5996 871.06641 C 1321.7329 858.26641 1329.3332 849.4668 1342.5332 849.4668 z M 1816 893.73242 C 1809.2 893.73242 1805.9992 896.79961 1805.1992 901.59961 C 1804.9326 903.19961 1804.666 904.80052 1804.666 905.86719 C 1804.666 909.20052 1807.0673 911.86719 1813.334 911.86719 C 1820.134 911.86719 1823.3328 908.8 1824.1328 904 C 1824.3995 902.4 1824.666 900.79909 1824.666 899.73242 C 1824.666 896.39909 1822.2667 893.73242 1816 893.73242 z M 1586 1144.2676 C 1580.6667 1144.2676 1577.8659 1146.666 1577.1992 1150.666 C 1576.9326 1152.266 1576.666 1153.4665 1576.666 1154.5332 C 1576.666 1157.3332 1578.6671 1159.8672 1584.4004 1159.8672 C 1589.7337 1159.8672 1592.5326 1157.4668 1593.1992 1153.4668 C 1593.4659 1151.8668 1593.7324 1150.6663 1593.7324 1149.5996 C 1593.7324 1146.7996 1591.7333 1144.2676 1586 1144.2676 z M 2145.7324 1144.2676 C 2140.3991 1144.2676 2137.6003 1146.666 2136.9336 1150.666 C 2136.6669 1152.266 2136.4004 1153.4665 2136.4004 1154.5332 C 2136.4004 1157.3332 2138.3995 1159.8672 2144.1328 1159.8672 C 2149.4661 1159.8672 2152.2669 1157.4668 2152.9336 1153.4668 C 2153.2003 1151.8668 2153.4668 1150.6663 2153.4668 1149.5996 C 2153.4668 1146.7996 2151.4658 1144.2676 2145.7324 1144.2676 z M 755.4668 1145.334 L 754 1154.2676 L 778.26758 1154.2676 L 763.33398 1231.8672 C 763.06732 1233.0672 762.93359 1234.9328 762.93359 1236.1328 C 762.93359 1241.5995 765.73359 1245.5996 772.93359 1245.5996 C 778.26693 1245.5996 783.06667 1243.3329 796 1231.5996 L 809.86719 1219.0664 L 803.86719 1213.1992 L 776.5332 1236.4004 L 773.19922 1235.334 L 790.5332 1145.334 L 755.4668 1145.334 z M 844.13281 1145.334 L 827.59961 1244 L 838 1244 L 844.40039 1206 C 845.33372 1200.2667 848.13333 1195.2004 852 1190.4004 C 855.73333 1185.8671 860.26641 1182.5332 867.06641 1182.5332 C 874.26641 1182.5332 878.26758 1186.2665 878.26758 1192.5332 C 878.26758 1200.6665 871.46588 1208.2658 849.19922 1213.7324 L 860 1237.1992 C 862.8 1243.3326 865.73424 1245.5996 870.26758 1245.5996 C 875.33424 1245.5996 879.33424 1242.6658 886.26758 1235.7324 L 895.73242 1226.2676 L 890 1220.2676 L 872.26758 1236.5332 L 870.5332 1236.2676 L 861.06641 1215.5996 C 884.39974 1209.8663 888.93359 1198.7999 888.93359 1190.5332 C 888.93359 1180.2665 881.86693 1173.5996 870.93359 1173.5996 C 859.46693 1173.5996 852.26732 1180.9335 847.33398 1191.4668 L 846.80078 1191.4668 L 854.5332 1145.334 L 844.13281 1145.334 z M 1163.8672 1145.334 L 1147.334 1244 L 1157.7324 1244 L 1164.1328 1206 C 1165.4661 1198.1333 1170.5333 1192.0009 1172 1190.2676 C 1175.8667 1185.7342 1180.5332 1182.8008 1186.5332 1182.8008 C 1194.2665 1182.8008 1198 1187.8667 1198 1196 C 1198 1197.4667 1197.8673 1200.134 1197.334 1203.334 L 1190.5332 1244 L 1200.9336 1244 L 1207.8672 1202.4004 C 1208.4005 1199.3337 1208.666 1196.1335 1208.666 1193.4668 C 1208.666 1180.9335 1201.4667 1173.5996 1190 1173.5996 C 1178.9333 1173.5996 1172.1331 1180.5335 1167.0664 1191.4668 L 1166.5332 1191.4668 L 1174.2676 1145.334 L 1163.8672 1145.334 z M 2006.4004 1145.334 L 1999.334 1187.1992 L 1998.9336 1187.1992 C 1996.0003 1178.2659 1988.9341 1173.5996 1978.8008 1173.5996 C 1954.5341 1173.5996 1946.2676 1200.5336 1946.2676 1218.9336 C 1946.2676 1236.5336 1953.8658 1245.5996 1967.7324 1245.5996 C 1979.8658 1245.5996 1986.7995 1238.5324 1992.1328 1227.7324 L 1992.5332 1227.7324 L 1989.8672 1244 L 2000.2676 1244 L 2016.8008 1145.334 L 2006.4004 1145.334 z M 121.06641 1150.9336 L 119.59961 1159.7324 L 142.93359 1159.7324 L 130.26758 1235.1992 L 106.93359 1235.1992 L 105.4668 1244 L 163.06641 1244 L 164.5332 1235.1992 L 141.19922 1235.1992 L 153.86719 1159.7324 L 177.19922 1159.7324 L 178.66602 1150.9336 L 121.06641 1150.9336 z M 616.26758 1150.9336 L 613.19922 1168.9336 C 612.39922 1173.6003 610.26576 1175.1992 605.73242 1175.1992 L 591.73242 1175.1992 L 590.26758 1184.1328 L 610.13281 1184.1328 L 602.13281 1230.5332 C 601.86615 1231.9999 601.73242 1234.5324 601.73242 1235.7324 C 601.73242 1242.1324 605.33294 1245.5996 611.59961 1245.5996 C 617.06628 1245.5996 622.40078 1242.8 634.80078 1234 L 649.86719 1223.334 L 644.66602 1216.666 L 614.66602 1236.666 L 612 1235.0664 L 620.5332 1184.1328 L 648.93359 1184.1328 L 650.40039 1175.1992 L 622 1175.1992 L 626.13281 1150.9336 L 616.26758 1150.9336 z M 1096 1150.9336 L 1092.9336 1168.9336 C 1092.1336 1173.6003 1090.0001 1175.1992 1085.4668 1175.1992 L 1071.4668 1175.1992 L 1070 1184.1328 L 1089.8672 1184.1328 L 1081.8672 1230.5332 C 1081.6005 1231.9999 1081.4668 1234.5324 1081.4668 1235.7324 C 1081.4668 1242.1324 1085.0673 1245.5996 1091.334 1245.5996 C 1096.8007 1245.5996 1102.1332 1242.8 1114.5332 1234 L 1129.5996 1223.334 L 1124.4004 1216.666 L 1094.4004 1236.666 L 1091.7324 1235.0664 L 1100.2676 1184.1328 L 1128.666 1184.1328 L 1130.1328 1175.1992 L 1101.7324 1175.1992 L 1105.8672 1150.9336 L 1096 1150.9336 z M 1735.5996 1150.9336 L 1732.5332 1168.9336 C 1731.7332 1173.6003 1729.5997 1175.1992 1725.0664 1175.1992 L 1711.0664 1175.1992 L 1709.5996 1184.1328 L 1729.4668 1184.1328 L 1721.4668 1230.5332 C 1721.2001 1231.9999 1721.0664 1234.5324 1721.0664 1235.7324 C 1721.0664 1242.1324 1724.6669 1245.5996 1730.9336 1245.5996 C 1736.4003 1245.5996 1741.7328 1242.8 1754.1328 1234 L 1769.1992 1223.334 L 1764 1216.666 L 1734 1236.666 L 1731.334 1235.0664 L 1739.8672 1184.1328 L 1768.2656 1184.1328 L 1769.7324 1175.1992 L 1741.334 1175.1992 L 1745.4668 1150.9336 L 1735.5996 1150.9336 z M 305.33398 1173.5996 C 285.73398 1173.5996 269.86719 1190.2665 269.86719 1216.5332 C 269.86719 1233.7332 278.80052 1245.5996 295.86719 1245.5996 C 310.26719 1245.5996 318.93294 1238.1328 327.59961 1224.1328 L 320.13281 1219.7324 C 309.19948 1234.7991 303.33255 1236.5332 297.19922 1236.5332 C 287.19922 1236.5332 280.40039 1231.0673 280.40039 1219.334 C 280.40039 1217.6007 280.53307 1216.1336 281.06641 1212.9336 L 282.40039 1204.9336 C 284.80039 1190.5336 292.39948 1182.666 304.13281 1182.666 C 312.66615 1182.666 317.73372 1185.1996 320.40039 1193.5996 L 329.33398 1190.1328 C 326.93398 1181.0661 319.86732 1173.5996 305.33398 1173.5996 z M 379.86719 1173.5996 C 355.60052 1173.5996 347.33398 1200.5336 347.33398 1218.9336 C 347.33398 1236.5336 354.93411 1245.5996 368.80078 1245.5996 C 380.93411 1245.5996 387.86589 1238.5324 393.19922 1227.7324 L 393.59961 1227.7324 L 390.93359 1244 L 401.33398 1244 L 412.80078 1175.1992 L 402.40039 1175.1992 L 400.40039 1187.1992 L 400 1187.1992 C 397.06667 1178.2659 390.00052 1173.5996 379.86719 1173.5996 z M 470.40039 1173.5996 C 459.33372 1173.5996 452.53346 1180.5335 447.4668 1191.4668 L 446.93359 1191.4668 L 449.59961 1175.1992 L 439.19922 1175.1992 L 427.73242 1244 L 438.13281 1244 L 444.5332 1206 C 445.86654 1198.1333 450.93372 1192.0009 452.40039 1190.2676 C 456.26706 1185.7342 460.93359 1182.8008 466.93359 1182.8008 C 474.66693 1182.8008 478.40039 1187.8667 478.40039 1196 C 478.40039 1197.4667 478.26576 1200.134 477.73242 1203.334 L 470.93359 1244 L 481.33398 1244 L 488.26758 1202.4004 C 488.80091 1199.3337 489.06641 1196.1335 489.06641 1193.4668 C 489.06641 1180.9335 481.86706 1173.5996 470.40039 1173.5996 z M 699.73242 1173.5996 C 675.46576 1173.5996 667.19922 1200.5336 667.19922 1218.9336 C 667.19922 1236.5336 674.79935 1245.5996 688.66602 1245.5996 C 700.79935 1245.5996 707.73307 1238.5324 713.06641 1227.7324 L 713.4668 1227.7324 L 710.80078 1244 L 721.19922 1244 L 732.66602 1175.1992 L 722.26758 1175.1992 L 720.26758 1187.1992 L 719.86719 1187.1992 C 716.93385 1178.2659 709.86575 1173.5996 699.73242 1173.5996 z M 1024 1173.5996 C 1003.8667 1173.5996 988 1190.2665 988 1216.5332 C 988 1233.7332 997.20078 1245.5996 1014.8008 1245.5996 C 1035.0674 1245.5996 1050.9336 1228.9327 1050.9336 1202.666 C 1050.9336 1185.466 1041.8667 1173.5996 1024 1173.5996 z M 1267.0664 1173.5996 C 1244.9331 1173.5996 1229.1992 1191.1995 1229.1992 1216.1328 C 1229.1992 1235.8661 1239.0671 1245.5996 1256.4004 1245.5996 C 1270.9337 1245.5996 1280.2667 1238.6667 1288 1226 L 1280.666 1221.4668 C 1272.9327 1232.4001 1267.2007 1236.666 1257.334 1236.666 C 1242.934 1236.666 1240.1328 1227.7328 1240.1328 1218.1328 C 1240.1328 1217.8661 1240.1342 1216.3997 1240.2676 1215.0664 C 1284.1342 1213.8664 1290.4004 1201.8661 1290.4004 1192.1328 C 1290.4004 1180.1328 1280.5331 1173.5996 1267.0664 1173.5996 z M 1424.8008 1173.5996 C 1408.5341 1173.5996 1395.334 1180.9335 1395.334 1195.4668 C 1395.334 1208.2668 1405.7324 1211.5997 1415.7324 1213.0664 L 1425.7324 1214.5332 C 1431.3324 1215.3332 1435.7324 1217.1996 1435.7324 1223.5996 C 1435.7324 1231.8663 1428.2661 1236.8008 1416.1328 1236.8008 C 1405.7328 1236.8008 1398.9329 1233.1999 1393.5996 1226.5332 L 1385.8672 1232.666 C 1391.8672 1240.9327 1401.8659 1245.5996 1415.1992 1245.5996 C 1433.5992 1245.5996 1446 1236.7999 1446 1222.5332 C 1446 1208.9332 1434.6672 1206.8007 1425.8672 1205.334 L 1416.1328 1203.7324 C 1410.5328 1202.7991 1405.4668 1201.3327 1405.4668 1194.666 C 1405.4668 1187.1993 1411.7329 1182.4004 1423.5996 1182.4004 C 1435.1996 1182.4004 1440.7992 1186.9332 1443.1992 1190.5332 L 1450.5332 1184.1328 C 1445.3332 1177.5995 1436.8008 1173.5996 1424.8008 1173.5996 z M 1669.5996 1173.5996 C 1658.5329 1173.5996 1651.7327 1180.5335 1646.666 1191.4668 L 1646.1328 1191.4668 L 1648.8008 1175.1992 L 1638.4004 1175.1992 L 1626.9336 1244 L 1637.334 1244 L 1643.7324 1206 C 1645.0658 1198.1333 1650.1329 1192.0009 1651.5996 1190.2676 C 1655.4663 1185.7342 1660.1328 1182.8008 1666.1328 1182.8008 C 1673.8661 1182.8008 1677.5996 1187.8667 1677.5996 1196 C 1677.5996 1197.4667 1677.4669 1200.134 1676.9336 1203.334 L 1670.1328 1244 L 1680.5332 1244 L 1687.4668 1202.4004 C 1688.0001 1199.3337 1688.2656 1196.1335 1688.2656 1193.4668 C 1688.2656 1180.9335 1681.0663 1173.5996 1669.5996 1173.5996 z M 1823.5996 1173.5996 C 1803.4663 1173.5996 1787.5996 1190.2665 1787.5996 1216.5332 C 1787.5996 1233.7332 1796.8004 1245.5996 1814.4004 1245.5996 C 1834.6671 1245.5996 1850.5332 1228.9327 1850.5332 1202.666 C 1850.5332 1185.466 1841.4663 1173.5996 1823.5996 1173.5996 z M 2063.334 1173.5996 C 2043.2007 1173.5996 2027.334 1190.2665 2027.334 1216.5332 C 2027.334 1233.7332 2036.5328 1245.5996 2054.1328 1245.5996 C 2074.3995 1245.5996 2090.2676 1228.9327 2090.2676 1202.666 C 2090.2676 1185.466 2081.2007 1173.5996 2063.334 1173.5996 z M 2229.334 1173.5996 C 2218.2673 1173.5996 2211.4671 1180.5335 2206.4004 1191.4668 L 2205.8672 1191.4668 L 2208.5332 1175.1992 L 2198.1328 1175.1992 L 2186.666 1244 L 2197.0664 1244 L 2203.4668 1206 C 2204.8001 1198.1333 2209.8673 1192.0009 2211.334 1190.2676 C 2215.2007 1185.7342 2219.8672 1182.8008 2225.8672 1182.8008 C 2233.6005 1182.8008 2237.334 1187.8667 2237.334 1196 C 2237.334 1197.4667 2237.1993 1200.134 2236.666 1203.334 L 2229.8672 1244 L 2240.2676 1244 L 2247.1992 1202.4004 C 2247.7326 1199.3337 2248 1196.1335 2248 1193.4668 C 2248 1180.9335 2240.8007 1173.5996 2229.334 1173.5996 z M 2298.8008 1173.5996 C 2275.0674 1173.5996 2266.4004 1199.4659 2266.4004 1217.1992 C 2266.4004 1233.9992 2273.8667 1243.334 2288 1243.334 C 2300.1333 1243.334 2307.3332 1236.5335 2312.5332 1225.4668 L 2313.0664 1225.4668 L 2310.2676 1242 C 2307.7342 1257.2 2300.2658 1263.0664 2287.7324 1263.0664 C 2279.3324 1263.0664 2273.7328 1260.4005 2270.1328 1255.8672 L 2262.9336 1262.8008 C 2267.8669 1268.9341 2275.9997 1272.2676 2287.0664 1272.2676 C 2304.2664 1272.2676 2316.8009 1264.2667 2320.2676 1244 L 2331.7324 1175.1992 L 2321.334 1175.1992 L 2319.334 1187.1992 L 2318.9336 1187.1992 C 2316.0003 1178.2659 2308.9341 1173.5996 2298.8008 1173.5996 z M 1315.334 1175.1992 L 1313.8672 1184.1328 L 1333.1992 1184.1328 L 1323.1992 1244 L 1333.5996 1244 L 1339.5996 1208.1328 C 1340.9329 1200.1328 1345.7335 1194.5332 1347.4668 1192.5332 C 1351.6001 1187.7332 1356.5332 1185.5996 1364.5332 1185.5996 L 1376.2676 1185.5996 L 1378 1175.1992 L 1367.5996 1175.1992 C 1354.3996 1175.1992 1347.466 1182.6663 1342.666 1193.5996 L 1342 1193.5996 L 1345.0664 1175.1992 L 1315.334 1175.1992 z M 1551.4668 1175.1992 L 1550 1184.1328 L 1574.8008 1184.1328 L 1565.7324 1231.0664 C 1565.4658 1232.6664 1565.0664 1234.6671 1565.0664 1236.4004 C 1565.0664 1241.7337 1568.6673 1245.5996 1575.334 1245.5996 C 1581.334 1245.5996 1586.2674 1242.4008 1598.8008 1230.8008 L 1610.9336 1219.5996 L 1604.666 1213.7324 L 1578.4004 1236.4004 L 1575.334 1235.1992 L 1586.9336 1175.1992 L 1551.4668 1175.1992 z M 2111.1992 1175.1992 L 2109.7324 1184.1328 L 2134.5332 1184.1328 L 2125.4668 1231.0664 C 2125.2001 1232.6664 2124.8008 1234.6671 2124.8008 1236.4004 C 2124.8008 1241.7337 2128.3997 1245.5996 2135.0664 1245.5996 C 2141.0664 1245.5996 2145.9999 1242.4008 2158.5332 1230.8008 L 2170.666 1219.5996 L 2164.4004 1213.7324 L 2138.1328 1236.4004 L 2135.0664 1235.1992 L 2146.666 1175.1992 L 2111.1992 1175.1992 z M 1266.1328 1182.2676 C 1276.1328 1182.2676 1279.7324 1186.9332 1279.7324 1192.5332 C 1279.7324 1199.1999 1274.6664 1206.8005 1241.0664 1207.8672 L 1241.1992 1206.5332 C 1243.1992 1190.9332 1252.2661 1182.2676 1266.1328 1182.2676 z M 1023.5996 1182.666 C 1033.8663 1182.666 1040.4004 1187.9996 1040.4004 1199.5996 C 1040.4004 1201.1996 1040.2658 1203.2004 1039.7324 1206.4004 L 1038.4004 1214.4004 C 1036.1337 1228.0004 1028.2673 1236.5332 1015.334 1236.5332 C 1005.0673 1236.5332 998.5332 1231.1996 998.5332 1219.5996 C 998.5332 1217.9996 998.66589 1216.0008 999.19922 1212.8008 L 1000.5332 1204.8008 C 1002.7999 1191.2008 1010.6663 1182.666 1023.5996 1182.666 z M 1823.1992 1182.666 C 1833.4659 1182.666 1840 1187.9996 1840 1199.5996 C 1840 1201.1996 1839.8673 1203.2004 1839.334 1206.4004 L 1838 1214.4004 C 1835.7333 1228.0004 1827.8669 1236.5332 1814.9336 1236.5332 C 1804.6669 1236.5332 1798.1328 1231.1996 1798.1328 1219.5996 C 1798.1328 1217.9996 1798.2674 1216.0008 1798.8008 1212.8008 L 1800.1328 1204.8008 C 1802.3995 1191.2008 1810.2659 1182.666 1823.1992 1182.666 z M 2062.9336 1182.666 C 2073.2003 1182.666 2079.7324 1187.9996 2079.7324 1199.5996 C 2079.7324 1201.1996 2079.5997 1203.2004 2079.0664 1206.4004 L 2077.7324 1214.4004 C 2075.4658 1228.0004 2067.5993 1236.5332 2054.666 1236.5332 C 2044.3993 1236.5332 2037.8672 1231.1996 2037.8672 1219.5996 C 2037.8672 1217.9996 2037.9999 1216.0008 2038.5332 1212.8008 L 2039.8672 1204.8008 C 2042.1339 1191.2008 2050.0003 1182.666 2062.9336 1182.666 z M 382.93359 1182.8008 C 393.20026 1182.8008 400.26602 1188.2672 398.66602 1197.8672 L 396.13281 1213.0664 C 395.06615 1219.4664 391.99987 1224.9341 388.5332 1228.8008 C 383.7332 1234.1341 378.13372 1236.4004 372.40039 1236.4004 C 362.80039 1236.4004 357.86719 1230.2667 357.86719 1220 C 357.86719 1218.2667 358.00039 1216.4 358.40039 1214 L 360 1204.4004 C 362.13333 1191.6004 369.73359 1182.8008 382.93359 1182.8008 z M 702.80078 1182.8008 C 713.06745 1182.8008 720.1332 1188.2672 718.5332 1197.8672 L 716 1213.0664 C 714.93333 1219.4664 711.86706 1224.9341 708.40039 1228.8008 C 703.60039 1234.1341 698.00091 1236.4004 692.26758 1236.4004 C 682.66758 1236.4004 677.73242 1230.2667 677.73242 1220 C 677.73242 1218.2667 677.86758 1216.4 678.26758 1214 L 679.86719 1204.4004 C 682.00052 1191.6004 689.60078 1182.8008 702.80078 1182.8008 z M 1981.8672 1182.8008 C 1992.1339 1182.8008 1999.1996 1188.2672 1997.5996 1197.8672 L 1995.0664 1213.0664 C 1993.9997 1219.4664 1990.9335 1224.9341 1987.4668 1228.8008 C 1982.6668 1234.1341 1977.0673 1236.4004 1971.334 1236.4004 C 1961.734 1236.4004 1956.8008 1230.2667 1956.8008 1220 C 1956.8008 1218.2667 1956.934 1216.4 1957.334 1214 L 1958.9336 1204.4004 C 1961.0669 1191.6004 1968.6672 1182.8008 1981.8672 1182.8008 z M 2301.8672 1182.8008 C 2312.1339 1182.8008 2319.1996 1188.2672 2317.5996 1197.8672 L 2315.4668 1210.9336 C 2314.2668 1218.4003 2310.4005 1223.7332 2307.8672 1226.5332 C 2302.9339 1231.9999 2297.3329 1234.1328 2291.5996 1234.1328 C 2281.9996 1234.1328 2277.0664 1228.1326 2277.0664 1217.1992 C 2277.0664 1215.3326 2277.3324 1213.734 2277.7324 1211.334 L 2278.9336 1204.1328 C 2281.0669 1191.3328 2288.9339 1182.8008 2301.8672 1182.8008 z M 306.93359 1310.9336 C 301.60026 1310.9336 298.79948 1313.334 298.13281 1317.334 C 297.86615 1318.934 297.59961 1320.1326 297.59961 1321.1992 C 297.59961 1323.9992 299.60065 1326.5332 305.33398 1326.5332 C 310.66732 1326.5332 313.46615 1324.1328 314.13281 1320.1328 C 314.39948 1318.5328 314.66602 1317.3342 314.66602 1316.2676 C 314.66602 1313.4676 312.66693 1310.9336 306.93359 1310.9336 z M 204.40039 1312 L 187.86719 1410.666 L 198.26758 1410.666 L 204.66602 1372.666 C 205.99935 1364.7993 211.06654 1358.6669 212.5332 1356.9336 C 216.39987 1352.4003 221.06641 1349.4668 227.06641 1349.4668 C 234.79974 1349.4668 238.5332 1354.5327 238.5332 1362.666 C 238.5332 1364.1327 238.40052 1366.8 237.86719 1370 L 231.06641 1410.666 L 241.4668 1410.666 L 248.40039 1369.0664 C 248.93372 1365.9997 249.19922 1362.7995 249.19922 1360.1328 C 249.19922 1347.5995 241.99987 1340.2676 230.5332 1340.2676 C 219.46654 1340.2676 212.66628 1347.1995 207.59961 1358.1328 L 207.06641 1358.1328 L 214.80078 1312 L 204.40039 1312 z M 136.5332 1317.5996 L 133.4668 1335.5996 C 132.66679 1340.2663 130.53333 1341.8672 126 1341.8672 L 112 1341.8672 L 110.5332 1350.8008 L 130.40039 1350.8008 L 122.40039 1397.1992 C 122.13372 1398.6659 122 1401.2004 122 1402.4004 C 122 1408.8004 125.60052 1412.2676 131.86719 1412.2676 C 137.33386 1412.2676 142.66641 1409.466 155.06641 1400.666 L 170.13281 1390 L 164.93359 1383.334 L 134.93359 1403.334 L 132.26758 1401.7324 L 140.80078 1350.8008 L 169.19922 1350.8008 L 170.66602 1341.8672 L 142.26758 1341.8672 L 146.40039 1317.5996 L 136.5332 1317.5996 z M 390.5332 1340.2676 C 379.46654 1340.2676 372.66628 1347.1995 367.59961 1358.1328 L 367.06641 1358.1328 L 369.73242 1341.8672 L 359.33398 1341.8672 L 347.86719 1410.666 L 358.26758 1410.666 L 364.66602 1372.666 C 365.99935 1364.7993 371.06654 1358.6669 372.5332 1356.9336 C 376.39987 1352.4003 381.06641 1349.4668 387.06641 1349.4668 C 394.79974 1349.4668 398.5332 1354.5327 398.5332 1362.666 C 398.5332 1364.1327 398.40052 1366.8 397.86719 1370 L 391.06641 1410.666 L 401.4668 1410.666 L 408.40039 1369.0664 C 408.93372 1365.9997 409.19922 1362.7995 409.19922 1360.1328 C 409.19922 1347.5995 401.99987 1340.2676 390.5332 1340.2676 z M 460 1340.2676 C 436.26667 1340.2676 427.59961 1366.1339 427.59961 1383.8672 C 427.59961 1400.6672 435.06589 1410 449.19922 1410 C 461.33255 1410 468.53242 1403.1995 473.73242 1392.1328 L 474.26758 1392.1328 L 471.4668 1408.666 C 468.93346 1423.866 461.46693 1429.7324 448.93359 1429.7324 C 440.53359 1429.7324 434.93398 1427.0665 431.33398 1422.5332 L 424.13281 1429.4668 C 429.06615 1435.6001 437.20091 1438.9336 448.26758 1438.9336 C 465.46758 1438.9336 478.00013 1430.9327 481.4668 1410.666 L 492.93359 1341.8672 L 482.5332 1341.8672 L 480.5332 1353.8672 L 480.13281 1353.8672 C 477.19948 1344.9339 470.13333 1340.2676 460 1340.2676 z M 545.33398 1340.2676 C 529.06732 1340.2676 515.86719 1347.5995 515.86719 1362.1328 C 515.86719 1374.9328 526.26758 1378.2658 536.26758 1379.7324 L 546.26758 1381.1992 C 551.86758 1381.9992 556.26758 1383.8676 556.26758 1390.2676 C 556.26758 1398.5342 548.79935 1403.4668 536.66602 1403.4668 C 526.26602 1403.4668 519.46615 1399.8659 514.13281 1393.1992 L 506.40039 1399.334 C 512.40039 1407.6007 522.39909 1412.2676 535.73242 1412.2676 C 554.13242 1412.2676 566.5332 1403.4659 566.5332 1389.1992 C 566.5332 1375.5992 555.20039 1373.4667 546.40039 1372 L 536.66602 1370.4004 C 531.06602 1369.4671 526 1368.0007 526 1361.334 C 526 1353.8673 532.26615 1349.0664 544.13281 1349.0664 C 555.73281 1349.0664 561.33242 1353.5992 563.73242 1357.1992 L 571.06641 1350.8008 C 565.86641 1344.2674 557.33398 1340.2676 545.33398 1340.2676 z M 272.40039 1341.8672 L 270.93359 1350.8008 L 295.73242 1350.8008 L 286.66602 1397.7324 C 286.39935 1399.3324 286 1401.3331 286 1403.0664 C 286 1408.3997 289.60091 1412.2676 296.26758 1412.2676 C 302.26758 1412.2676 307.19909 1409.0668 319.73242 1397.4668 L 331.86719 1386.2676 L 325.59961 1380.4004 L 299.33398 1403.0664 L 296.26758 1401.8672 L 307.86719 1341.8672 L 272.40039 1341.8672 z M 463.06641 1349.4668 C 473.33307 1349.4668 480.40078 1354.9332 478.80078 1364.5332 L 476.66602 1377.5996 C 475.46602 1385.0663 471.59974 1390.3992 469.06641 1393.1992 C 464.13307 1398.6659 458.53411 1400.8008 452.80078 1400.8008 C 443.20078 1400.8008 438.26758 1394.8005 438.26758 1383.8672 C 438.26758 1382.0005 438.53359 1380.4 438.93359 1378 L 440.13281 1370.8008 C 442.26615 1358.0008 450.13307 1349.4668 463.06641 1349.4668 z M 616.93359 1393.7324 C 610.13359 1393.7324 606.93281 1396.7996 606.13281 1401.5996 C 605.86615 1403.1996 605.59961 1404.8005 605.59961 1405.8672 C 605.59961 1409.2005 608.00091 1411.8672 614.26758 1411.8672 C 621.06758 1411.8672 624.26641 1408.8 625.06641 1404 C 625.33307 1402.4 625.59961 1400.7991 625.59961 1399.7324 C 625.59961 1396.3991 623.20026 1393.7324 616.93359 1393.7324 z M 946.5332 1644.2676 C 941.19987 1644.2676 938.39909 1646.666 937.73242 1650.666 C 937.46576 1652.266 937.19922 1653.4665 937.19922 1654.5332 C 937.19922 1657.3332 939.20026 1659.8672 944.93359 1659.8672 C 950.26693 1659.8672 953.06576 1657.4668 953.73242 1653.4668 C 953.99909 1651.8668 954.26758 1650.6663 954.26758 1649.5996 C 954.26758 1646.7996 952.26654 1644.2676 946.5332 1644.2676 z M 275.59961 1645.334 L 274.13281 1654.2676 L 298.40039 1654.2676 L 283.4668 1731.8672 C 283.20013 1733.0672 283.06641 1734.9328 283.06641 1736.1328 C 283.06641 1741.5995 285.86641 1745.5996 293.06641 1745.5996 C 298.39974 1745.5996 303.19948 1743.3329 316.13281 1731.5996 L 330 1719.0664 L 324 1713.1992 L 296.66602 1736.4004 L 293.33398 1735.334 L 310.66602 1645.334 L 275.59961 1645.334 z M 121.06641 1650.9336 L 119.59961 1659.7324 L 142.93359 1659.7324 L 130.26758 1735.1992 L 106.93359 1735.1992 L 105.4668 1744 L 163.06641 1744 L 164.5332 1735.1992 L 141.19922 1735.1992 L 153.86719 1659.7324 L 177.19922 1659.7324 L 178.66602 1650.9336 L 121.06641 1650.9336 z M 1016.1328 1650.9336 L 1013.0664 1668.9336 C 1012.2664 1673.6003 1010.1329 1675.1992 1005.5996 1675.1992 L 991.59961 1675.1992 L 990.13281 1684.1328 L 1010 1684.1328 L 1002 1730.5332 C 1001.7333 1731.9999 1001.5996 1734.5324 1001.5996 1735.7324 C 1001.5996 1742.1324 1005.2001 1745.5996 1011.4668 1745.5996 C 1016.9335 1745.5996 1022.266 1742.8 1034.666 1734 L 1049.7324 1723.334 L 1044.5332 1716.666 L 1014.5332 1736.666 L 1011.8672 1735.0664 L 1020.4004 1684.1328 L 1048.8008 1684.1328 L 1050.2676 1675.1992 L 1021.8672 1675.1992 L 1026 1650.9336 L 1016.1328 1650.9336 z M 1415.7324 1650.9336 L 1412.666 1668.9336 C 1411.866 1673.6003 1409.7326 1675.1992 1405.1992 1675.1992 L 1391.1992 1675.1992 L 1389.7324 1684.1328 L 1409.5996 1684.1328 L 1401.5996 1730.5332 C 1401.3329 1731.9999 1401.1992 1734.5324 1401.1992 1735.7324 C 1401.1992 1742.1324 1404.7997 1745.5996 1411.0664 1745.5996 C 1416.5331 1745.5996 1421.8676 1742.8 1434.2676 1734 L 1449.334 1723.334 L 1444.1328 1716.666 L 1414.1328 1736.666 L 1411.4668 1735.0664 L 1420 1684.1328 L 1448.4004 1684.1328 L 1449.8672 1675.1992 L 1421.4668 1675.1992 L 1425.5996 1650.9336 L 1415.7324 1650.9336 z M 384.40039 1673.5996 C 364.26706 1673.5996 348.40039 1690.2665 348.40039 1716.5332 C 348.40039 1733.7332 357.59922 1745.5996 375.19922 1745.5996 C 395.46588 1745.5996 411.33398 1728.9327 411.33398 1702.666 C 411.33398 1685.466 402.26706 1673.5996 384.40039 1673.5996 z M 547.4668 1673.5996 C 525.33346 1673.5996 509.59961 1691.1995 509.59961 1716.1328 C 509.59961 1735.8661 519.46745 1745.5996 536.80078 1745.5996 C 551.33411 1745.5996 560.66706 1738.6667 568.40039 1726 L 561.06641 1721.4668 C 553.33307 1732.4001 547.59909 1736.666 537.73242 1736.666 C 523.33242 1736.666 520.5332 1727.7328 520.5332 1718.1328 C 520.5332 1717.8661 520.53268 1716.3997 520.66602 1715.0664 C 564.53268 1713.8664 570.80078 1701.8661 570.80078 1692.1328 C 570.80078 1680.1328 560.93346 1673.5996 547.4668 1673.5996 z M 707.19922 1673.5996 C 685.06589 1673.5996 669.33398 1691.1995 669.33398 1716.1328 C 669.33398 1735.8661 679.19987 1745.5996 696.5332 1745.5996 C 711.06654 1745.5996 720.39948 1738.6667 728.13281 1726 L 720.80078 1721.4668 C 713.06745 1732.4001 707.33346 1736.666 697.4668 1736.666 C 683.0668 1736.666 680.26758 1727.7328 680.26758 1718.1328 C 680.26758 1717.8661 680.26706 1716.3997 680.40039 1715.0664 C 724.26706 1713.8664 730.5332 1701.8661 730.5332 1692.1328 C 730.5332 1680.1328 720.66589 1673.5996 707.19922 1673.5996 z M 772.40039 1673.5996 C 766.93372 1673.5996 760.79948 1677.0667 754.13281 1682 L 745.33398 1688.5332 L 749.4668 1694.8008 L 770.5332 1681.8672 L 772.5332 1682.8008 C 774.26654 1686.6674 774.66602 1695.4664 774.66602 1699.0664 C 774.66602 1713.1997 768.53424 1737.334 756.26758 1737.334 C 752.00091 1737.334 750.40039 1734.2663 750.40039 1727.5996 C 750.40039 1725.7329 750.53359 1723.0667 750.93359 1720 L 741.19922 1720.8008 C 740.53255 1725.6008 740.5332 1728.1324 740.5332 1729.7324 C 740.5332 1740.3991 744.79909 1745.5996 753.73242 1745.5996 C 764.26575 1745.5996 771.73398 1738.6672 775.33398 1721.8672 L 776.26758 1722 C 776.26758 1733.4667 776.39974 1745.5996 787.06641 1745.5996 C 791.19974 1745.5996 796.66706 1743.734 806.40039 1735.334 L 813.06641 1729.5996 L 808.66602 1723.4668 L 788.93359 1737.334 L 786.93359 1736.4004 C 784.93359 1732.4004 784.5332 1723.8661 784.5332 1720.1328 C 784.5332 1705.9995 790.66693 1681.8672 802.93359 1681.8672 C 807.20026 1681.8672 808.80078 1684.9329 808.80078 1691.5996 C 808.80078 1693.4663 808.66758 1696.1326 808.26758 1699.1992 L 818 1698.4004 C 818.66667 1693.7337 818.66602 1691.0668 818.66602 1689.4668 C 818.66602 1678.8001 814.40013 1673.5996 805.4668 1673.5996 C 794.93346 1673.5996 787.46719 1680.534 783.86719 1697.334 L 782.93359 1697.1992 C 782.93359 1686.1326 782.80039 1673.5996 772.40039 1673.5996 z M 865.06641 1673.5996 C 845.46641 1673.5996 829.59961 1690.2665 829.59961 1716.5332 C 829.59961 1733.7332 838.53294 1745.5996 855.59961 1745.5996 C 869.99961 1745.5996 878.66732 1738.1328 887.33398 1724.1328 L 879.86719 1719.7324 C 868.93385 1734.7991 863.06693 1736.5332 856.93359 1736.5332 C 846.93359 1736.5332 840.13281 1731.0673 840.13281 1719.334 C 840.13281 1717.6007 840.26745 1716.1336 840.80078 1712.9336 L 842.13281 1704.9336 C 844.53281 1690.5336 852.13385 1682.666 863.86719 1682.666 C 872.40052 1682.666 877.46615 1685.1996 880.13281 1693.5996 L 889.06641 1690.1328 C 886.66641 1681.0661 879.59974 1673.5996 865.06641 1673.5996 z M 1107.1992 1673.5996 C 1085.0659 1673.5996 1069.334 1691.1995 1069.334 1716.1328 C 1069.334 1735.8661 1079.1999 1745.5996 1096.5332 1745.5996 C 1111.0665 1745.5996 1120.3995 1738.6667 1128.1328 1726 L 1120.8008 1721.4668 C 1113.0674 1732.4001 1107.3335 1736.666 1097.4668 1736.666 C 1083.0668 1736.666 1080.2676 1727.7328 1080.2676 1718.1328 C 1080.2676 1717.8661 1080.2671 1716.3997 1080.4004 1715.0664 C 1124.2671 1713.8664 1130.5332 1701.8661 1130.5332 1692.1328 C 1130.5332 1680.1328 1120.6659 1673.5996 1107.1992 1673.5996 z M 1176 1673.5996 C 1168.4 1673.5996 1164.2664 1679.0667 1161.0664 1686 L 1160.5332 1686 L 1162.2676 1675.1992 L 1152.666 1675.1992 L 1141.1992 1744 L 1150.8008 1744 L 1158.2676 1699.4668 C 1158.9342 1695.4668 1160.5331 1691.0668 1163.0664 1687.4668 C 1165.1997 1684.4001 1168.2667 1682.1328 1172 1682.1328 C 1175.7333 1682.1328 1177.5996 1684.4 1177.5996 1690 C 1177.5996 1692.1333 1177.3341 1694.6672 1176.8008 1697.8672 L 1169.0664 1744 L 1178.666 1744 L 1186.1328 1699.4668 C 1186.7995 1695.4668 1188.4003 1690.9335 1190.9336 1687.4668 C 1193.2003 1684.4001 1195.8663 1682.1328 1199.5996 1682.1328 C 1203.5996 1682.1328 1205.4668 1684.6663 1205.4668 1689.5996 C 1205.4668 1691.4663 1205.0665 1694.6672 1204.5332 1697.8672 L 1196.8008 1744 L 1206.4004 1744 L 1214.4004 1696.1328 C 1214.9337 1692.9328 1215.334 1689.3341 1215.334 1686.8008 C 1215.334 1678.4008 1211.1996 1673.5996 1203.5996 1673.5996 C 1195.5996 1673.5996 1190.4003 1678.7993 1186.9336 1686.666 L 1186.5332 1686.666 C 1187.0665 1679.1993 1183.7333 1673.5996 1176 1673.5996 z M 1267.1992 1673.5996 C 1245.0659 1673.5996 1229.334 1691.1995 1229.334 1716.1328 C 1229.334 1735.8661 1239.1999 1745.5996 1256.5332 1745.5996 C 1271.0665 1745.5996 1280.3995 1738.6667 1288.1328 1726 L 1280.8008 1721.4668 C 1273.0674 1732.4001 1267.3335 1736.666 1257.4668 1736.666 C 1243.0668 1736.666 1240.2676 1727.7328 1240.2676 1718.1328 C 1240.2676 1717.8661 1240.2671 1716.3997 1240.4004 1715.0664 C 1284.2671 1713.8664 1290.5332 1701.8661 1290.5332 1692.1328 C 1290.5332 1680.1328 1280.6659 1673.5996 1267.1992 1673.5996 z M 1349.7324 1673.5996 C 1338.6658 1673.5996 1331.8674 1680.5335 1326.8008 1691.4668 L 1326.2656 1691.4668 L 1328.9336 1675.1992 L 1318.5332 1675.1992 L 1307.0664 1744 L 1317.4668 1744 L 1323.8672 1706 C 1325.2005 1698.1333 1330.2658 1692.0009 1331.7324 1690.2676 C 1335.5991 1685.7342 1340.2676 1682.8008 1346.2676 1682.8008 C 1354.0009 1682.8008 1357.7324 1687.8667 1357.7324 1696 C 1357.7324 1697.4667 1357.5997 1700.134 1357.0664 1703.334 L 1350.2676 1744 L 1360.666 1744 L 1367.5996 1702.4004 C 1368.1329 1699.3337 1368.4004 1696.1335 1368.4004 1693.4668 C 1368.4004 1680.9335 1361.1991 1673.5996 1349.7324 1673.5996 z M 487.59961 1674.4004 L 477.59961 1677.334 C 480.13294 1682.2673 481.33398 1688.2676 481.33398 1694.2676 C 481.33398 1714.1342 469.73294 1734.0003 447.59961 1736.9336 L 445.86719 1735.7324 L 454.93359 1675.1992 L 430.13281 1675.1992 L 428.66602 1684.1328 L 443.33398 1684.1328 L 436.40039 1730.5332 C 436.13372 1732.1332 435.86719 1734.1335 435.86719 1735.4668 C 435.86719 1741.4668 439.19948 1745.0664 446.13281 1745.0664 C 470.93281 1745.0664 492 1721.7324 492 1693.7324 C 492 1686.5324 490.39961 1679.7337 487.59961 1674.4004 z M 912 1675.1992 L 910.5332 1684.1328 L 935.33398 1684.1328 L 926.26758 1731.0664 C 926.00091 1732.6664 925.59961 1734.6671 925.59961 1736.4004 C 925.59961 1741.7337 929.20052 1745.5996 935.86719 1745.5996 C 941.86719 1745.5996 946.80065 1742.4008 959.33398 1730.8008 L 971.4668 1719.5996 L 965.19922 1713.7324 L 938.93359 1736.4004 L 935.86719 1735.1992 L 947.4668 1675.1992 L 912 1675.1992 z M 546.5332 1682.2676 C 556.5332 1682.2676 560.13281 1686.9332 560.13281 1692.5332 C 560.13281 1699.1999 555.0668 1706.8005 521.4668 1707.8672 L 521.59961 1706.5332 C 523.59961 1690.9332 532.66654 1682.2676 546.5332 1682.2676 z M 706.26758 1682.2676 C 716.26758 1682.2676 719.86719 1686.9332 719.86719 1692.5332 C 719.86719 1699.1999 714.79922 1706.8005 681.19922 1707.8672 L 681.33398 1706.5332 C 683.33398 1690.9332 692.40091 1682.2676 706.26758 1682.2676 z M 1106.2676 1682.2676 C 1116.2676 1682.2676 1119.8672 1686.9332 1119.8672 1692.5332 C 1119.8672 1699.1999 1114.7992 1706.8005 1081.1992 1707.8672 L 1081.334 1706.5332 C 1083.334 1690.9332 1092.4009 1682.2676 1106.2676 1682.2676 z M 1266.2676 1682.2676 C 1276.2676 1682.2676 1279.8672 1686.9332 1279.8672 1692.5332 C 1279.8672 1699.1999 1274.7992 1706.8005 1241.1992 1707.8672 L 1241.334 1706.5332 C 1243.334 1690.9332 1252.4009 1682.2676 1266.2676 1682.2676 z M 384 1682.666 C 394.26667 1682.666 400.80078 1687.9996 400.80078 1699.5996 C 400.80078 1701.1996 400.66615 1703.2004 400.13281 1706.4004 L 398.80078 1714.4004 C 396.53411 1728.0004 388.66575 1736.5332 375.73242 1736.5332 C 365.46576 1736.5332 358.93359 1731.1996 358.93359 1719.5996 C 358.93359 1717.9996 359.06628 1716.0008 359.59961 1712.8008 L 360.93359 1704.8008 C 363.20026 1691.2008 371.06667 1682.666 384 1682.666 z M 1496.1328 1727.0664 C 1489.3328 1727.0664 1486.134 1730.1336 1485.334 1734.9336 C 1485.0673 1736.5336 1484.8008 1738.1326 1484.8008 1739.1992 C 1484.8008 1742.5326 1487.2001 1745.1992 1493.4668 1745.1992 C 1500.2668 1745.1992 1503.4676 1742.134 1504.2676 1737.334 C 1504.5342 1735.734 1504.8008 1734.1331 1504.8008 1733.0664 C 1504.8008 1729.7331 1502.3995 1727.0664 1496.1328 1727.0664 z M 1339.8457 1997.0625 C 1338.4982 1997.0272 1337.1079 1997.1076 1335.6836 1997.3066 C 1328.8916 1998.2546 1322.7926 2003.5688 1316.1406 2011.2461 C 1309.4846 2018.9181 1302.4473 2029.2663 1295.25 2041.293 C 1280.8593 2065.345 1265.8805 2096.0939 1253.2031 2124.9219 C 1248.3551 2135.9325 1245.8951 2144.5062 1245.4258 2151.3809 C 1245.3844 2151.9542 1245.3603 2152.5158 1245.3496 2153.0625 C 1245.3123 2154.7132 1245.4008 2156.2596 1245.6035 2157.7129 C 1246.6822 2165.4782 1251.9999 2170.3799 1258.0879 2171.7812 C 1264.1772 2173.1826 1270.9017 2172.0113 1277.1777 2170.0273 C 1283.4537 2168.042 1289.2454 2165.177 1293.3027 2162.4316 C 1301.2867 2157.0263 1311.1615 2146.9377 1319.3281 2138.0684 C 1327.4948 2129.1977 1333.8066 2121.584 1333.8066 2121.584 C 1335.12 2120 1334.9004 2117.6563 1333.3164 2116.3496 C 1331.7391 2115.0363 1329.3959 2115.2539 1328.0879 2116.8379 C 1328.0879 2116.8379 1321.8847 2124.3179 1313.8594 2133.0312 C 1305.838 2141.7459 1295.8501 2151.7287 1289.1367 2156.2754 C 1285.8447 2158.4994 1280.4788 2161.1882 1274.9375 2162.9375 C 1269.3962 2164.6882 1263.6392 2165.4312 1259.7539 2164.5352 C 1255.8686 2163.6445 1253.7088 2162.0408 1252.9648 2156.6875 C 1252.2248 2151.3382 1253.8271 2141.9593 1260.0098 2127.918 C 1272.6031 2099.282 1287.5055 2068.7075 1301.6309 2045.1035 C 1308.6935 2033.3022 1315.5726 2023.2406 1321.7539 2016.1152 C 1327.9366 2008.9846 1333.583 2005.1092 1336.707 2004.6719 C 1340.931 2004.0825 1343.9124 2004.8862 1346.0684 2006.4648 C 1348.2244 2008.0422 1349.7462 2010.5564 1350.3809 2014.207 C 1351.6569 2021.5097 1348.8231 2033.109 1339.7031 2045.541 C 1321.0791 2070.9263 1301.959 2080.6719 1301.959 2080.6719 C 1300.131 2081.6092 1299.4118 2083.8439 1300.3438 2085.6719 C 1301.2811 2087.4999 1303.5216 2088.2244 1305.3496 2087.2871 C 1305.3496 2087.2871 1326.1613 2076.5735 1345.6973 2049.9375 C 1355.6613 2036.3602 1359.4951 2023.193 1357.7031 2012.9316 C 1356.8071 2007.797 1354.3643 2003.3274 1350.459 2000.4688 C 1347.533 1998.3198 1343.8883 1997.1685 1339.8457 1997.0625 z M 1496.0098 2000.0215 C 1494.4418 1999.9068 1492.97 2000.7912 1492.334 2002.2285 C 1492.334 2002.2285 1474.7711 2041.9945 1460.7871 2073.6719 C 1446.8964 2078.9999 1440.8555 2090.0625 1440.8555 2090.0625 C 1439.9181 2091.8905 1440.6394 2094.1305 1442.4688 2095.0625 C 1444.2967 2095.9998 1446.5354 2095.2753 1447.4688 2093.4473 C 1447.4688 2093.4473 1449.9949 2088.4264 1456.1562 2084.1504 C 1449.1509 2100.0051 1445.2449 2108.8853 1440.3223 2120 C 1434.1823 2133.8693 1429.5351 2146.2603 1428.9004 2156.375 C 1428.6924 2159.7457 1428.9214 2162.8639 1429.6934 2165.6973 C 1431.24 2171.3693 1436.0269 2175.6968 1442.5469 2176.4688 C 1449.0735 2177.2341 1457.2298 2175.3746 1468.0938 2170.8906 C 1480.3857 2165.812 1490.9937 2154.9067 1500.0977 2141.6934 C 1499.931 2143.068 1499.8178 2144.4129 1499.8125 2145.6836 C 1499.7925 2151.9076 1501.3543 2157.5103 1504.625 2161.625 C 1507.8903 2165.7343 1513.1515 2168.0993 1518.8555 2167.334 C 1530.2555 2165.8033 1542.8113 2154.146 1556.0566 2127.918 C 1568.9993 2102.2873 1578.5352 2086.6368 1584.8379 2074.9648 C 1585.8592 2073.0688 1586.6615 2071.3914 1587.5215 2069.6621 C 1585.7242 2077.9794 1583.1562 2087.6825 1578.7402 2099.9531 C 1558.3496 2156.6358 1527.7644 2214.2128 1490.4258 2271.4941 C 1462.9724 2274.1821 1434.7648 2276.833 1408.0781 2280.4316 C 1367.4208 2285.917 1325.7556 2302.1979 1291.0996 2319.9219 C 1256.4383 2337.6512 1228.9328 2356.6937 1216.2461 2368.459 C 1214.2681 2370.2922 1212.6789 2372.3062 1211.4668 2374.4395 L 1211.4668 2371.4668 L 1147.4668 2371.4668 L 1147.4668 2378.4004 L 1209.6934 2378.4004 C 1208.907 2380.7289 1208.5119 2383.1426 1208.5098 2385.5781 C 1208.5098 2387.6448 1208.7815 2389.7298 1209.3281 2391.7871 C 1211.5215 2400.0111 1217.5223 2407.8745 1226.0996 2414.8691 C 1232.7356 2420.2758 1240.9993 2425.1507 1250.4473 2429.1094 C 1247.2699 2433.26 1244.2088 2437.38 1241.7715 2441.1094 C 1238.8288 2445.62 1236.4724 2449.7241 1234.8164 2453.3027 C 1233.1604 2456.8854 1232.0836 2459.7921 1232.1836 2462.8281 C 1232.2769 2465.8441 1233.8236 2468.5213 1235.9902 2470.6973 C 1238.1622 2472.8693 1241.0273 2474.6966 1244.5273 2476.3379 C 1251.522 2479.6139 1261.1146 2482.0979 1272.8066 2483.4473 C 1296.188 2486.1553 1327.9327 2484.2344 1362.6367 2473.3438 C 1413.6407 2457.3331 1466.1504 2436.6302 1502.6504 2408.9062 C 1521.2597 2416.9476 1533.666 2424.7598 1533.666 2424.7598 C 1535.3953 2425.8691 1537.6934 2425.3685 1538.8027 2423.6445 C 1539.9121 2421.9165 1539.4115 2419.6205 1537.6875 2418.5059 C 1537.6875 2418.5059 1526.4794 2411.3957 1509.2461 2403.6504 C 1519.0221 2395.5264 1527.5054 2386.8602 1534.1094 2377.5215 C 1549.828 2355.2975 1562.298 2317.953 1572.5273 2281.2344 C 1573.886 2276.349 1574.8607 2272.0824 1576.1367 2267.2598 C 1578.2874 2266.7704 1580.8118 2266.3899 1582.8438 2265.8633 C 1597.0984 2262.1819 1608.2922 2257.719 1615.1309 2250.959 C 1626.6935 2239.5217 1636.287 2233.8642 1642.0684 2226.6562 C 1644.959 2223.0469 1646.7767 2218.7142 1646.5527 2213.7715 C 1646.3287 2208.8342 1644.3501 2203.5113 1640.6621 2196.834 C 1633.4328 2183.75 1625.2556 2171.3642 1615.4902 2166.5215 C 1610.6049 2164.0935 1604.6097 2164.1048 1599.959 2167.7715 C 1595.307 2171.4435 1591.8687 2177.8435 1588.9688 2187.6875 C 1584.2808 2203.5675 1577.7817 2231.4471 1570.0938 2260.9258 C 1558.4738 2263.3431 1545.6566 2265.4838 1531.2246 2267.2598 C 1521.4433 2268.4638 1510.4011 2269.453 1499.8691 2270.5156 C 1535.9585 2214.521 1565.6976 2158.1714 1585.7402 2102.4688 C 1596.9429 2071.3274 1598.7821 2052.8847 1597.6621 2043.4688 C 1597.3861 2041.1141 1596.9701 2039.3288 1596.1367 2037.7461 C 1595.7194 2036.9541 1595.2077 2036.151 1594.1504 2035.459 C 1593.0931 2034.7657 1591.1723 2034.4995 1589.8496 2035.1035 C 1587.1936 2036.3062 1586.9587 2038.1666 1586.584 2039.8906 C 1586.208 2041.6146 1586.1087 2043.63 1586.2754 2046.0566 C 1586.8167 2053.7593 1584.4262 2060.0783 1578.2969 2071.4316 C 1572.1715 2082.7863 1562.4792 2098.7084 1549.4219 2124.5684 C 1536.6672 2149.8284 1524.5833 2159.0582 1517.8633 2159.9648 C 1514.4993 2160.4128 1512.334 2159.38 1510.4434 2157 C 1508.5527 2154.62 1507.234 2150.639 1507.25 2145.707 C 1507.27 2141.0564 1509.2192 2133.4525 1512.3125 2125.1191 C 1515.4072 2116.7911 1519.5793 2107.6143 1523.75 2099.125 C 1532.094 2082.1357 1540.4375 2067.8906 1540.4375 2067.8906 C 1541.4788 2066.12 1540.8859 2063.844 1539.1152 2062.8066 C 1538.3339 2062.3546 1537.4127 2062.1971 1536.5273 2062.3691 C 1538.85 2055.1825 1540.1367 2050.5781 1540.1367 2050.5781 C 1540.6834 2048.5981 1539.5152 2046.5511 1537.5352 2046.0098 C 1535.5565 2045.4631 1533.5101 2046.6254 1532.9688 2048.6094 C 1532.9688 2048.6094 1526.1204 2073.4795 1514.0684 2100.4648 C 1502.0164 2127.4488 1484.3219 2156.1402 1465.2539 2164.0215 C 1454.9832 2168.2602 1447.688 2169.5874 1443.416 2169.082 C 1439.1453 2168.5834 1437.8025 2167.1833 1436.8691 2163.75 C 1434.9998 2156.8807 1439.1298 2141.0463 1447.1191 2123.0156 C 1453.0978 2109.521 1457.7873 2098.8547 1466.334 2079.5 C 1468.4593 2078.9427 1470.7591 2078.5152 1473.3164 2078.3379 C 1479.9204 2077.8739 1485.6886 2073.9069 1490.6406 2068.6309 C 1495.594 2063.3549 1499.8483 2056.5986 1503.291 2049.5879 C 1506.739 2042.5786 1509.3603 2035.3271 1510.875 2029.0098 C 1512.3857 2022.6924 1513.2126 2017.5796 1511.3633 2013.1836 C 1508.8899 2007.3129 1505.1941 2003.8794 1502.0527 2002.082 C 1498.9127 2000.286 1496.0098 2000.0215 1496.0098 2000.0215 z M 1199.207 2002.1309 C 1194.7923 2002.1894 1190.6076 2004.599 1186.4473 2007.9531 C 1181.6966 2011.7811 1176.8329 2017.1553 1171.9062 2023.4727 C 1163.4476 2034.322 1157.6048 2045.9419 1153.6621 2055.7539 C 1153.3554 2049.5672 1152.7697 2043.7088 1151.9004 2038.2715 C 1151.0617 2033.0115 1150.0204 2028.9169 1148.707 2025.7129 C 1147.3897 2022.5102 1145.8219 2020.0572 1143.3379 2018.5879 C 1140.8539 2017.1199 1137.5848 2017.3646 1135.2715 2018.6406 C 1132.9542 2019.918 1131.1458 2021.9016 1129.3965 2024.3496 C 1122.4165 2034.1309 1116.4578 2052.4314 1113.5352 2070.4688 C 1112.8058 2074.9834 1112.3963 2078.7459 1112.2656 2081.9219 C 1112.235 2082.7139 1112.2187 2083.4733 1112.2188 2084.1973 C 1112.2188 2086.3693 1112.3863 2088.2345 1112.6836 2089.8691 C 1113.4703 2094.2291 1115.8286 2097.5163 1119.0312 2098.375 C 1122.2352 2099.235 1124.7972 2097.9897 1126.5625 2096.9844 C 1128.3278 2095.979 1129.5684 2094.834 1129.5684 2094.834 C 1131.083 2093.4487 1131.1933 2091.0987 1129.8066 2089.584 C 1128.4213 2088.0627 1126.0726 2087.9579 1124.5566 2089.3379 C 1124.5566 2089.3379 1123.8555 2089.97 1122.8809 2090.5273 C 1121.9075 2091.0793 1120.9323 2091.188 1120.959 2091.1934 C 1120.9843 2091.1934 1120.5155 2091.4263 1119.9941 2088.541 C 1119.4728 2085.661 1119.4843 2080.2402 1120.875 2071.6562 C 1123.6563 2054.4789 1129.9633 2036.3487 1135.4473 2028.666 C 1136.8166 2026.7447 1138.1354 2025.5459 1138.8594 2025.1445 C 1139.5874 2024.7445 1139.2714 2024.8177 1139.5527 2024.9844 C 1139.8394 2025.151 1140.8495 2026.1498 1141.8281 2028.5352 C 1142.8068 2030.9205 1143.7812 2034.5459 1144.5625 2039.4473 C 1150.8638 2078.9166 1141.2804 2144.8696 1114.4004 2196.8496 C 1113.4577 2198.6723 1114.1715 2200.9128 1115.9941 2201.8555 C 1117.8168 2202.7981 1120.0579 2202.0824 1121.0059 2200.2598 C 1140.4899 2162.5838 1151.1396 2118.5107 1153.4316 2081.1094 C 1153.5623 2080.896 1153.6718 2080.6658 1153.7598 2080.4258 C 1153.7598 2080.4258 1159.1456 2051.9215 1177.7656 2028.0469 C 1182.4843 2021.9949 1187.0992 2016.9736 1191.1152 2013.7402 C 1195.1312 2010.5056 1198.3958 2009.3752 1200.0625 2009.6152 C 1201.7238 2009.8552 1203.4153 2011.0619 1205.0566 2016.2539 C 1206.6926 2021.4472 1207.6825 2030.0678 1207.4531 2042.4785 C 1207.3638 2047.0212 1207.1395 2051.3271 1206.7969 2055.4258 C 1206.1195 2057.1551 1205.4372 2058.8795 1204.7812 2060.6035 C 1197.7453 2079.1195 1192.3555 2096.6973 1192.3555 2096.6973 C 1191.7555 2098.6559 1192.8591 2100.7339 1194.8164 2101.3379 C 1195.0817 2101.3739 1195.3485 2101.3851 1195.6191 2101.3691 C 1189.3631 2116.0105 1181.5111 2128.2076 1174.2031 2141.9062 C 1159.0685 2170.2809 1155.7598 2196.3555 1155.7598 2196.3555 C 1155.5051 2198.3915 1156.9484 2200.2498 1158.9844 2200.5098 C 1161.0217 2200.7644 1162.8807 2199.327 1163.1367 2197.291 C 1163.1367 2197.291 1166.3024 2172.5102 1180.7598 2145.4062 C 1193.9064 2120.7543 1210.2599 2098.8027 1214.0879 2057.1934 C 1216.9066 2050.104 1219.8897 2043.1766 1222.791 2037.4473 C 1226.5203 2030.0926 1230.7404 2024.735 1232.0938 2023.9844 C 1235.7457 2021.979 1239.3596 2019.1448 1242.8223 2016.6875 C 1246.2863 2014.2235 1249.6504 2012.2236 1251.7598 2011.7129 C 1252.8118 2011.4529 1253.4158 2011.5214 1253.8438 2011.6934 C 1254.2704 2011.86 1254.7699 2012.188 1255.4473 2013.3906 C 1256.7913 2015.7973 1258.1149 2021.6195 1258.1562 2031.6035 C 1258.3282 2072.4008 1253.9314 2112.755 1238.7754 2132.459 C 1221.7594 2154.5843 1214.0937 2183.584 1214.0938 2183.584 C 1213.5631 2185.5627 1214.7401 2187.6047 1216.7188 2188.1367 C 1218.7027 2188.6674 1220.7408 2187.4938 1221.2715 2185.5098 C 1221.2715 2185.5098 1228.9265 2157.4581 1244.6719 2136.9941 C 1262.2705 2114.1088 1265.7657 2072.8702 1265.5938 2031.5742 C 1265.5471 2021.0316 1264.4996 2014.3491 1261.9316 2009.7598 C 1260.6503 2007.4691 1258.8062 2005.6724 1256.6035 2004.7871 C 1254.3955 2003.9071 1252.0675 2003.9849 1249.9941 2004.4902 C 1245.8435 2005.5062 1242.1615 2008.041 1238.5215 2010.625 C 1234.8802 2013.2077 1231.333 2015.926 1228.5156 2017.4727 C 1223.4063 2020.2807 1220.0941 2026.3279 1216.1621 2034.0879 C 1215.7408 2034.9212 1215.3164 2035.8377 1214.9004 2036.707 C 1214.7857 2026.9004 1213.8792 2019.5156 1212.1445 2014.0156 C 1210.0725 2007.4583 1206.2406 2002.9886 1201.1152 2002.2539 C 1200.4746 2002.1622 1199.8377 2002.1225 1199.207 2002.1309 z M 1497.7715 2008.3125 C 1498.0835 2008.4538 1497.9833 2008.3112 1498.3633 2008.5352 C 1500.2393 2009.6085 1502.645 2011.631 1504.5156 2016.0684 C 1504.833 2016.8284 1505.0006 2021.6093 1503.6406 2027.2812 C 1502.2873 2032.9532 1499.8277 2039.7866 1496.625 2046.3066 C 1493.4157 2052.828 1489.4427 2059.0469 1485.2188 2063.5469 C 1480.9948 2068.0415 1476.6401 2070.6512 1472.8027 2070.9219 C 1471.7654 2070.9899 1470.9019 2071.2501 1469.9219 2071.3848 C 1482.1045 2043.7914 1496.7875 2010.5472 1497.7715 2008.3125 z M 1416.6562 2008.4238 C 1406.7824 2008.6557 1396.5575 2014.4783 1390.1094 2018.4473 C 1388.1147 2019.6766 1386.3442 2021.2702 1384.7402 2023.1035 L 1385.0215 2021.541 C 1385.3855 2019.521 1384.0473 2017.5886 1382.0273 2017.2246 C 1380.006 2016.8606 1378.0724 2018.2033 1377.707 2020.2246 L 1372.0879 2051.2871 C 1369.4066 2061.0271 1368.1621 2069.0996 1368.1621 2069.0996 C 1368.0741 2069.8076 1368.1875 2070.5265 1368.4941 2071.1719 L 1354.8906 2146.3809 C 1354.5213 2148.4022 1355.8649 2150.3338 1357.8809 2150.7031 C 1359.9022 2151.0685 1361.8391 2149.7245 1362.2031 2147.7031 L 1379.3379 2052.959 C 1379.6086 2051.979 1379.8848 2050.995 1380.1875 2049.9844 C 1383.3848 2039.355 1388.8378 2027.9692 1394.0098 2024.7812 C 1400.8271 2020.5839 1413.0471 2014.9899 1419.7031 2016.0312 C 1423.0311 2016.5526 1425.0408 2017.7819 1426.3848 2022.4219 C 1427.7341 2027.0632 1427.6667 2035.3853 1424.5 2048.1973 C 1411.6507 2100.1613 1380.5566 2168.9648 1380.5566 2168.9648 C 1379.7073 2170.8342 1380.5356 2173.0369 1382.4062 2173.8809 C 1384.2809 2174.7302 1386.4788 2173.9019 1387.3281 2172.0312 C 1387.3281 2172.0312 1418.5628 2103.1612 1431.7188 2049.9785 C 1435.0467 2036.5052 1435.5007 2027.1568 1433.5273 2020.3555 C 1431.5473 2013.5475 1426.3915 2009.5568 1420.8555 2008.6875 C 1419.4713 2008.4707 1418.0668 2008.3907 1416.6562 2008.4238 z M 1608.1562 2172.0391 C 1609.3419 2171.9889 1610.6003 2172.3911 1612.1836 2173.1777 C 1618.5116 2176.3231 1627.1883 2187.817 1634.1562 2200.4316 C 1637.5629 2206.5983 1638.9837 2210.984 1639.125 2214.1094 C 1639.265 2217.2347 1638.4123 2219.328 1636.2656 2222 C 1631.9736 2227.3547 1622.0209 2233.6932 1609.9062 2245.6719 C 1604.9009 2250.6199 1594.6884 2255.1305 1580.9844 2258.6719 C 1580.1564 2258.8852 1579.0631 2259.0368 1578.2031 2259.2461 C 1585.5058 2231.0008 1591.7551 2204.5058 1596.0938 2189.7871 C 1598.7764 2180.6938 1601.9692 2175.6566 1604.5625 2173.6152 C 1605.8565 2172.5919 1606.9706 2172.0892 1608.1562 2172.0391 z M 224.26758 2257.1992 C 215.46758 2257.1992 212.40039 2261.1999 212.40039 2266.5332 L 212.40039 2270.4004 C 212.40039 2275.6004 215.46758 2279.7324 224.26758 2279.7324 C 233.06758 2279.7324 236.13281 2275.6004 236.13281 2270.4004 L 236.13281 2266.5332 C 236.13281 2261.1999 233.06758 2257.1992 224.26758 2257.1992 z M 141.33398 2262.666 C 120.26732 2262.666 107.86719 2273.0669 107.86719 2290.9336 C 107.86719 2304.5336 114.93294 2314.7996 131.59961 2317.5996 L 141.33398 2319.1992 C 150.40065 2320.6659 153.86719 2323.7342 153.86719 2330.2676 C 153.86719 2338.2676 148.66589 2342.666 139.19922 2342.666 C 130.93255 2342.666 122.53242 2339.1991 115.73242 2331.7324 L 104.13281 2344.5332 C 111.19948 2353.3332 123.06653 2358.9336 138.5332 2358.9336 C 161.86654 2358.9336 174.13281 2346.1327 174.13281 2328.666 C 174.13281 2313.9993 165.46654 2305.1999 150.5332 2302.5332 L 140.80078 2300.8008 C 131.73411 2299.2008 128 2296.4 128 2290 C 128 2282.6667 132.53346 2278.9336 141.4668 2278.9336 C 149.8668 2278.9336 156.79909 2282.2658 161.73242 2287.7324 L 173.06641 2275.0664 C 166.53307 2267.4664 155.60065 2262.666 141.33398 2262.666 z M 525.86719 2264.2676 L 525.86719 2280.4004 C 525.86719 2286.5337 523.59909 2288.5332 517.73242 2288.5332 L 505.59961 2288.5332 L 505.59961 2303.8672 L 524.26758 2303.8672 L 524.26758 2337.4668 C 524.26758 2349.0668 531.06732 2357.334 545.33398 2357.334 L 570.80078 2357.334 L 570.80078 2342 L 544 2342 L 544 2303.8672 L 570.80078 2303.8672 L 570.80078 2288.5332 L 544 2288.5332 L 544 2264.2676 L 525.86719 2264.2676 z M 1568.0215 2268.9434 C 1567.0682 2272.5114 1566.3633 2275.6456 1565.3633 2279.2402 C 1555.4913 2314.6743 1543.2371 2350.6634 1529.252 2371.4668 L 1467.0664 2371.4668 L 1467.0664 2378.4004 L 1524.0996 2378.4004 C 1517.8593 2386.0513 1510.1174 2393.2935 1501.3594 2400.2031 C 1488.026 2394.7245 1471.9939 2389.3953 1454.8379 2386.4473 C 1443.6877 2384.5255 1433.0412 2381.5832 1422.5742 2378.4004 L 1451.4668 2378.4004 L 1451.4668 2371.4668 L 1420.123 2371.4668 C 1446.4532 2345.1947 1470.2967 2315.4721 1487.7598 2289.5 C 1490.2131 2285.8493 1492.3598 2282.177 1494.7598 2278.5156 C 1507.4158 2277.265 1520.4221 2276.0741 1532.1367 2274.6367 C 1545.2141 2273.0274 1557.0055 2271.0994 1568.0215 2268.9434 z M 321.86719 2275.334 C 315.33385 2275.334 311.33398 2279.3327 311.33398 2284.666 L 311.33398 2288.4004 C 307.73398 2287.4671 303.59922 2286.9336 299.19922 2286.9336 C 281.19922 2286.9336 269.33398 2295.4668 269.33398 2311.4668 C 269.33398 2321.6001 274.13424 2328.7993 282.26758 2332.666 L 282.26758 2333.4668 C 274.80091 2335.2001 269.86719 2337.9993 269.86719 2344.666 C 269.86719 2350.666 273.60013 2353.7335 279.4668 2355.4668 L 279.4668 2356.2676 C 271.20013 2358.4009 266.26758 2361.9991 266.26758 2369.7324 C 266.26758 2379.0658 273.46628 2385.5996 299.59961 2385.5996 C 325.73294 2385.5996 337.73242 2378.8009 337.73242 2364.2676 C 337.73242 2352.6676 330.13372 2344.4004 310.40039 2344.4004 L 294.66602 2344.4004 C 289.19935 2344.4004 284.5332 2344.1324 284.5332 2339.7324 C 284.5332 2337.3324 286 2335.7327 288 2334.666 C 291.33333 2335.5993 295.19922 2336 299.19922 2336 C 317.33255 2336 329.33398 2327.3335 329.33398 2311.4668 C 329.33398 2301.7335 324.93346 2294.8003 317.4668 2290.9336 L 317.4668 2289.7324 L 334 2289.7324 L 334 2275.334 L 321.86719 2275.334 z M 1485.3223 2279.5 C 1484.0263 2281.448 1482.8959 2283.4075 1481.5879 2285.3555 C 1463.2113 2312.6893 1437.5402 2344.4202 1409.5391 2371.4668 L 1400.1543 2371.4668 C 1397.8276 2370.743 1395.5026 2370.0369 1393.1934 2369.3809 C 1373.1827 2363.6982 1352.9996 2359.9942 1331.3223 2364.7969 C 1325.541 2366.0765 1319.6389 2368.3896 1313.7344 2371.4668 L 1307.4668 2371.4668 L 1307.4668 2375.0117 C 1292.5955 2384.075 1277.9721 2397.4636 1265.4941 2411.0566 C 1261.8221 2415.0566 1258.5683 2419.026 1255.3496 2422.9727 C 1245.6456 2419.13 1237.2342 2414.3542 1230.7969 2409.1035 C 1223.0409 2402.7862 1218.1191 2395.9011 1216.5098 2389.8691 C 1216.1084 2388.3638 1215.8797 2386.917 1215.8438 2385.5156 C 1215.7398 2381.317 1217.3742 2377.5468 1221.2969 2373.9121 C 1232.9635 2363.0934 1260.339 2344.005 1294.4844 2326.541 C 1328.631 2309.0783 1369.683 2293.1147 1409.0684 2287.8027 C 1433.599 2284.4947 1459.6609 2281.984 1485.3223 2279.5 z M 389.4668 2286.9336 C 378.40013 2286.9336 372.26589 2293.3331 369.19922 2301.0664 L 368.40039 2301.0664 L 368.40039 2288.5332 L 348.66602 2288.5332 L 348.66602 2357.334 L 368.40039 2357.334 L 368.40039 2312.1328 C 368.40039 2305.4661 374.39987 2302.1328 380.5332 2302.1328 C 388.26654 2302.1328 392.13281 2306.8001 392.13281 2315.4668 L 392.13281 2357.334 L 411.86719 2357.334 L 411.86719 2312.8008 C 411.86719 2296.1341 402.6668 2286.9336 389.4668 2286.9336 z M 458.66602 2286.9336 C 443.33268 2286.9336 433.33411 2292.6671 428.80078 2300.4004 L 439.59961 2310 C 443.33294 2304.9333 448.13372 2301.334 456.40039 2301.334 C 465.46706 2301.334 468.93359 2305.5991 468.93359 2313.7324 L 468.93359 2317.1992 L 457.86719 2317.1992 C 437.73385 2317.1992 426.93359 2324.0004 426.93359 2338.4004 C 426.93359 2351.3337 435.73307 2358.9336 449.06641 2358.9336 C 459.59974 2358.9336 467.6 2354.1326 470 2345.1992 L 470.66602 2345.1992 C 471.46602 2352.9326 476.80026 2357.334 484.93359 2357.334 L 496.26758 2357.334 L 496.26758 2343.0664 L 488.66602 2343.0664 L 488.66602 2312.9336 C 488.66602 2295.6003 477.46602 2286.9336 458.66602 2286.9336 z M 779.73242 2286.9336 C 759.06576 2286.9336 746.26758 2300.6659 746.26758 2323.1992 C 746.26758 2345.1992 758.40013 2358.9336 781.4668 2358.9336 C 796.2668 2358.9336 805.60026 2353.3341 810.93359 2346.8008 L 800.26758 2335.1992 C 796.00091 2340.2659 790.26615 2343.7324 782.13281 2343.7324 C 771.59948 2343.7324 765.86719 2337.7336 765.86719 2328.9336 L 765.86719 2327.7324 L 812.93359 2327.7324 L 812.93359 2321.8672 C 812.93359 2300.4005 800.26575 2286.9336 779.73242 2286.9336 z M 859.59961 2286.9336 C 849.59961 2286.9336 845.59961 2292 845.59961 2298 L 845.59961 2302.666 C 845.59961 2308.666 849.59961 2313.7324 859.59961 2313.7324 C 869.59961 2313.7324 873.59961 2308.666 873.59961 2302.666 L 873.59961 2298 C 873.59961 2292 869.59961 2286.9336 859.59961 2286.9336 z M 192.5332 2288.5332 L 192.5332 2303.8672 L 214.40039 2303.8672 L 214.40039 2342 L 192.5332 2342 L 192.5332 2357.334 L 254.40039 2357.334 L 254.40039 2342 L 234.13281 2342 L 234.13281 2288.5332 L 192.5332 2288.5332 z M 588.13281 2288.5332 L 588.13281 2333.0664 C 588.13281 2349.7331 597.3332 2358.9336 610.5332 2358.9336 C 621.59987 2358.9336 627.73411 2352.5341 630.80078 2344.8008 L 631.59961 2344.8008 L 631.59961 2357.334 L 651.33398 2357.334 L 651.33398 2288.5332 L 631.59961 2288.5332 L 631.59961 2333.7324 C 631.59961 2340.3991 625.60013 2343.7324 619.4668 2343.7324 C 611.73346 2343.7324 607.86719 2339.0671 607.86719 2330.4004 L 607.86719 2288.5332 L 588.13281 2288.5332 z M 669.4668 2288.5332 L 669.4668 2303.8672 L 685.33398 2303.8672 L 685.33398 2342 L 669.4668 2342 L 669.4668 2357.334 L 727.73242 2357.334 L 727.73242 2342 L 705.06641 2342 L 705.06641 2321.5996 C 705.06641 2313.3329 710.13385 2306.666 719.86719 2306.666 L 734.5332 2306.666 L 734.5332 2288.5332 L 728 2288.5332 C 714.4 2288.5332 708.53333 2297.8667 706 2308 L 705.06641 2308 L 705.06641 2288.5332 L 669.4668 2288.5332 z M 299.19922 2299.4668 C 307.06589 2299.4668 310.66602 2303.8672 310.66602 2309.8672 L 310.66602 2313.0664 C 310.66602 2319.0664 307.06589 2323.4668 299.19922 2323.4668 C 291.46589 2323.4668 288 2319.0664 288 2313.0664 L 288 2309.8672 C 288 2303.8672 291.46589 2299.4668 299.19922 2299.4668 z M 779.86719 2301.0664 C 788.40052 2301.0664 793.59961 2306.6663 793.59961 2315.5996 L 793.59961 2316.666 L 765.86719 2316.666 L 765.86719 2315.5996 C 765.86719 2306.7996 771.33385 2301.0664 779.86719 2301.0664 z M 458.40039 2327.8672 L 468.93359 2327.8672 L 468.93359 2336.1328 C 468.93359 2342.5328 463.46654 2346 456.5332 2346 C 450.26654 2346 446.26758 2343.466 446.26758 2338.666 L 446.26758 2336 C 446.26758 2330.6667 450.53372 2327.8672 458.40039 2327.8672 z M 859.59961 2332.1328 C 849.59961 2332.1328 845.59961 2337.1992 845.59961 2343.1992 L 845.59961 2347.8672 C 845.59961 2353.8672 849.59961 2358.9336 859.59961 2358.9336 C 869.59961 2358.9336 873.59961 2353.8672 873.59961 2347.8672 L 873.59961 2343.1992 C 873.59961 2337.1992 869.59961 2332.1328 859.59961 2332.1328 z M 285.19922 2360 L 308.80078 2360 C 316.80078 2360 319.06641 2362.1324 319.06641 2365.7324 C 319.06641 2370.3991 315.06615 2372.9336 306.13281 2372.9336 L 294.5332 2372.9336 C 285.86654 2372.9336 282.5332 2369.8663 282.5332 2365.5996 C 282.5332 2363.3329 283.46589 2361.4667 285.19922 2360 z M 1351.332 2370.0156 C 1357.2956 2369.9817 1363.2041 2370.5217 1369.1191 2371.4668 L 1335.8867 2371.4668 C 1341.0983 2370.5052 1346.2363 2370.0446 1351.332 2370.0156 z M 987.4668 2371.4668 L 987.4668 2378.4004 L 1051.4668 2378.4004 L 1051.4668 2371.4668 L 987.4668 2371.4668 z M 1067.4668 2371.4668 L 1067.4668 2378.4004 L 1131.4668 2378.4004 L 1131.4668 2371.4668 L 1067.4668 2371.4668 z M 1227.4668 2371.4668 L 1227.4668 2378.4004 L 1291.4668 2378.4004 L 1291.4668 2371.4668 L 1227.4668 2371.4668 z M 1547.0664 2371.4668 L 1547.0664 2378.4004 L 1611.0664 2378.4004 L 1611.0664 2371.4668 L 1547.0664 2371.4668 z M 1627.0664 2371.4668 L 1627.0664 2378.4004 L 1691.0664 2378.4004 L 1691.0664 2371.4668 L 1627.0664 2371.4668 z M 1707.0664 2371.4668 L 1707.0664 2378.4004 L 1771.0664 2378.4004 L 1771.0664 2371.4668 L 1707.0664 2371.4668 z M 1787.0664 2371.4668 L 1787.0664 2378.4004 L 1851.0664 2378.4004 L 1851.0664 2371.4668 L 1787.0664 2371.4668 z M 1867.0664 2371.4668 L 1867.0664 2378.4004 L 1931.0664 2378.4004 L 1931.0664 2371.4668 L 1867.0664 2371.4668 z M 1947.0664 2371.4668 L 1947.0664 2378.4004 L 2011.0664 2378.4004 L 2011.0664 2371.4668 L 1947.0664 2371.4668 z M 2027.0664 2371.4668 L 2027.0664 2378.4004 L 2091.0664 2378.4004 L 2091.0664 2371.4668 L 2027.0664 2371.4668 z M 2106.666 2371.4668 L 2106.666 2378.4004 L 2170.666 2378.4004 L 2170.666 2371.4668 L 2106.666 2371.4668 z M 1371.4668 2371.8711 C 1376.7754 2372.8134 1382.0938 2374.0554 1387.4668 2375.5059 L 1387.4668 2378.4004 L 1397.3086 2378.4004 C 1398.6002 2378.8069 1399.8959 2379.2172 1401.1621 2379.6094 C 1400.4274 2380.2814 1399.7341 2381.0516 1398.9941 2381.7129 C 1366.8595 2410.6142 1332.3068 2431.4534 1302.9375 2431.7188 C 1288.4122 2431.8494 1274.8032 2429.4999 1262.8125 2425.6719 C 1265.4738 2422.4785 1268.0154 2419.302 1270.9688 2416.082 C 1284.6681 2401.1627 1301.3095 2386.7131 1316.7852 2378.4004 L 1371.4668 2378.4004 L 1371.4668 2371.8711 z M 1409.2598 2382.0938 C 1423.3331 2386.5364 1437.7861 2391.0582 1453.5781 2393.7715 C 1468.3488 2396.3128 1482.2072 2400.7555 1494.2539 2405.4648 C 1459.1299 2430.7662 1409.3228 2450.8914 1360.4121 2466.2461 C 1326.7081 2476.8234 1295.8754 2478.6358 1273.6621 2476.0625 C 1262.5528 2474.7812 1253.5937 2472.3742 1247.6777 2469.6035 C 1244.7191 2468.2182 1242.5407 2466.7393 1241.25 2465.4473 C 1239.9633 2464.1499 1239.6307 2463.2137 1239.6094 2462.5938 C 1239.5934 2461.9951 1240.1364 2459.5204 1241.5684 2456.4258 C 1242.995 2453.3271 1245.1933 2449.4697 1248 2445.1777 C 1250.6773 2441.0737 1253.974 2436.5299 1257.6406 2431.8379 C 1271.074 2436.4886 1286.4699 2439.2971 1303.0059 2439.1504 C 1335.7499 2438.8597 1371.2035 2416.7034 1403.9648 2387.2461 C 1405.7768 2385.6154 1407.4691 2383.7657 1409.2598 2382.0938 z "
         transform="matrix(0.75000002,0,0,0.75000002,0,-3.4368424e-5)" /></g></g></svg>
