<?xml version="1.0" encoding="UTF-8" standalone="no"?>
<svg
   xmlns:svg="http://www.w3.org/2000/svg"
   xmlns="http://www.w3.org/2000/svg"
   xmlns:sodipodi="http://sodipodi.sourceforge.net/DTD/sodipodi-0.dtd"
   xmlns:inkscape="http://www.inkscape.org/namespaces/inkscape"
   inkscape:version="1.1-dev (1:0.92.0+devel+202005110039+9ce7266)"
   sodipodi:docname="10.svg"
   version="1.1"
   id="svg1381"
   xml:space="preserve"
   width="2527.5789"
   height="2526.3159"
   viewBox="0 0 2527.5789 2526.3159"><sodipodi:namedview
     inkscape:current-layer="svg1381"
     inkscape:window-maximized="0"
     inkscape:window-y="30"
     inkscape:window-x="0"
     inkscape:cy="1263.158"
     inkscape:cx="1263.7894"
     inkscape:zoom="0.26956249"
     showgrid="false"
     id="namedview7"
     inkscape:window-height="480"
     inkscape:window-width="796"
     inkscape:pageshadow="2"
     inkscape:pageopacity="0"
     guidetolerance="10"
     gridtolerance="10"
     objecttolerance="10"
     borderopacity="1"
     bordercolor="#666666"
     pagecolor="#ffffff" /><defs
     id="defs1385" /><g
     style="fill:#625970;fill-opacity:1"
     id="g1387"
     transform="matrix(1.3333333,0,0,1.3333333,0,4.5824564e-5)"><g
       style="fill:#625970;fill-opacity:1"
       id="g1389"><path
         d="m 469.355,1747.566 c -8.906,-2.718 -17.152,-10.117 -21.226,-19.043 -4.984,-10.921 -2.867,-25.871 4.953,-35.011 l 3.441,-4.02 -3.695,0.43 c -2.031,0.23 -26.555,2.43 -54.492,4.875 -27.941,2.449 -54.738,4.855 -59.551,5.351 -10.195,1.051 -16.555,0.129 -23.961,-3.484 -13.422,-6.547 -20.906,-23.789 -16.664,-38.391 2.762,-9.492 8.504,-16.722 16.555,-20.843 6.84,-3.496 9.863,-3.926 58.465,-8.262 285.07,-25.426 507.968,-37.34 645.718,-34.516 22.997,0.469 63.782,1.36 90.637,1.969 26.852,0.613 57.262,1.086 67.567,1.055 10.308,0 83.773,0.262 163.25,0.66 l 144.511,0.723 4.407,2.347 c 6.894,3.676 9.66,6.043 13.335,11.41 11.622,16.977 5.512,40.149 -13.019,49.399 l -5.711,2.847 -42.414,0.833 c -23.328,0.46 -91.91,0.57 -152.402,0.261 l -109.985,-0.574 -61.648,7.398 c -33.91,4.067 -119.356,14.282 -189.883,22.692 -70.531,8.414 -198.965,23.742 -285.414,34.066 -86.449,10.321 -160.133,18.727 -163.742,18.68 -3.61,0 -7.676,-0.422 -9.032,-0.844 v -0.01 z m 663.36,-576.996 c -7.711,-2.027 -14.242,-7.136 -17.719,-13.851 -1.762,-3.414 -23.988,-89.297 -37.926,-146.555 -53.922,-221.539 -78.925,-362.105 -75.015,-421.738 1.203,-18.387 2.687,-22.621 10.265,-29.293 5.34,-4.699 11.27,-6.563 19.012,-5.981 9.496,0.719 16.856,5.586 21.246,14.063 1.957,3.777 2.082,5.625 2.231,33.59 0.168,32.347 1.214,43.859 7.964,87.789 14.817,96.394 51.618,261.59 95.153,427.113 7.644,29.066 8.015,32.848 4.012,40.695 -5.407,10.598 -18.555,16.969 -29.223,14.168 z m 129.219,-454.726 c -23.895,-4.422 -48.645,-14.676 -78.77,-32.637 -29.621,-17.664 -45.926,-31.809 -63.414,-55.023 -31.707,-42.082 -53.02,-107.266 -60.961,-186.454 -3.562,-35.531 -4.379,-94.527 -1.453,-105.121 3.258,-11.804 19.125,-16.652 29.246,-8.933 6.527,4.976 6.504,4.82 6.719,45.762 0.191,35.832 0.851,48.457 3.941,75.46 9.727,84.985 37.817,151.395 77.621,183.536 15.289,12.343 45.508,29.878 66.082,38.339 25.856,10.637 51.266,12.321 57.942,3.836 1.133,-1.445 1.922,-3.047 1.75,-3.562 -0.172,-0.524 -5.805,-2.875 -12.52,-5.242 -22.578,-7.957 -45.144,-20.399 -66.383,-36.598 -12.796,-9.762 -36.601,-33.289 -46.906,-46.363 -59.18,-75.09 -73.879,-167.438 -38.09,-239.317 20.074,-40.316 54.137,-72.468 101.524,-95.832 27.531,-13.578 56.816,-23.383 91.82,-30.75 17.129,-3.605 18.289,-3.718 37.891,-3.718 21.855,-0.004 29.418,0.949 49.867,6.273 91.453,23.816 192.566,119.043 231.527,218.055 10.004,25.422 13.938,44.433 13.985,67.566 0,26.852 -3.52,38.617 -20.262,66.813 -26.067,43.898 -57.375,73.984 -96.707,92.918 -21.516,10.355 -41.227,16.351 -67.438,20.503 -12.23,1.938 -17.593,2.192 -46.855,2.207 -25.817,0 -36.125,-0.359 -47.125,-1.734 -14.051,-1.746 -42.738,-6.226 -45.66,-7.133 -1.153,-0.347 -1.973,0.871 -3.211,4.813 -2.246,7.129 -8.328,16.301 -13.606,20.527 -6.531,5.227 -10.461,7.332 -19.125,10.242 -10.668,3.586 -27.14,4.207 -41.429,1.567 z m 212.078,-67.621 c 59.488,-9.762 99.011,-36.043 132.199,-87.918 9.98,-15.602 16.961,-29.914 18.727,-38.414 11.882,-57.059 -46.762,-158.426 -127.094,-219.684 -33.414,-25.484 -68.996,-42.789 -101.266,-49.258 -9.137,-1.832 -14.605,-2.281 -28.113,-2.297 -14.735,0 -18.379,0.321 -30.047,2.793 -115.707,24.528 -180.113,83.524 -183.23,167.832 -2.02,54.762 21.453,111.176 64.8,155.727 6.793,6.98 15.903,15.562 20.246,19.07 18.129,14.645 41.567,27.985 61.157,34.805 18.703,6.512 62.691,15.152 92.722,18.211 18.805,1.918 66.059,1.406 79.899,-0.871 z M 445.609,631.855 c -72.062,-5.043 -133.8,-31.402 -172.41,-73.609 -20.594,-22.516 -34.992,-50.906 -40.297,-79.473 -2.582,-13.886 -2.285,-40.41 0.602,-54.043 8.082,-38.164 27.664,-71.308 57.859,-97.914 48.34,-42.597 120.93,-73.445 194.762,-82.769 13.719,-1.735 56.629,-1.727 69.047,0 72.043,10.082 122.961,46.351 149.992,106.84 12.707,28.433 19.316,58.199 21.723,97.801 1.824,30.05 0.101,42.886 -8.403,62.714 -24.105,56.18 -82.046,96.606 -161.25,112.504 -34.925,7.012 -79.527,10.184 -111.625,7.938 z m 48.575,-37.496 c 74.765,-5.035 127.742,-24.285 162.664,-59.109 19.957,-19.902 31.832,-41.98 33.172,-61.691 0.628,-9.309 -1.122,-37.215 -3.211,-51.133 -8.407,-55.977 -32.125,-96.028 -70.747,-119.477 -47.425,-28.789 -119.355,-31 -194.546,-5.976 -44.715,14.882 -83.926,37.277 -111.231,63.527 -19.695,18.938 -33.723,43.234 -39.254,68.012 -15.066,67.449 32.832,131.093 117.055,155.531 32.129,9.32 68.453,12.852 106.098,10.316 z"
         style="fill:#625970;fill-opacity:1;fill-rule:nonzero;stroke:none"
         id="path1391" /></g></g></svg>
