<?xml version="1.0" encoding="UTF-8" standalone="no"?>
<svg
   xmlns:svg="http://www.w3.org/2000/svg"
   xmlns="http://www.w3.org/2000/svg"
   xmlns:sodipodi="http://sodipodi.sourceforge.net/DTD/sodipodi-0.dtd"
   xmlns:inkscape="http://www.inkscape.org/namespaces/inkscape"
   inkscape:version="1.1-dev (1:0.92.0+devel+202005110039+9ce7266)"
   sodipodi:docname="10a.svg"
   version="1.1"
   id="svg2"
   xml:space="preserve"
   width="2527.5789"
   height="2526.3159"
   viewBox="0 0 2527.5789 2526.3159"><sodipodi:namedview
     inkscape:current-layer="svg2"
     inkscape:window-maximized="0"
     inkscape:window-y="30"
     inkscape:window-x="0"
     inkscape:cy="1263.158"
     inkscape:cx="1263.7894"
     inkscape:zoom="0.26956249"
     showgrid="false"
     id="namedview828"
     inkscape:window-height="480"
     inkscape:window-width="796"
     inkscape:pageshadow="2"
     inkscape:pageopacity="0"
     guidetolerance="10"
     gridtolerance="10"
     objecttolerance="10"
     borderopacity="1"
     bordercolor="#666666"
     pagecolor="#ffffff" /><defs
     id="defs6" /><g
     style="fill:#625970;fill-opacity:1"
     id="g8"
     transform="matrix(1.3333333,0,0,1.3333333,0,4.5824564e-5)"><path
       id="path882"
       style="font-variant:normal;font-weight:normal;font-size:100px;font-family:'IBM Plex Mono';-inkscape-font-specification:IBMPlexMono;writing-mode:lr-tb;fill:#625970;fill-opacity:1;fill-rule:nonzero;stroke:none;stroke-width:1.33333"
       d="M 796.40039 92 L 796.40039 133.06641 L 795.86719 133.06641 C 791.46719 124.66641 784.26602 120.26758 774.66602 120.26758 C 757.86602 120.26758 747.73242 133.73425 747.73242 156.26758 C 747.73242 178.80091 757.86602 192.26758 774.66602 192.26758 C 784.26602 192.26758 791.46719 187.8668 795.86719 179.4668 L 796.40039 179.4668 L 796.40039 190.66602 L 807.06641 190.66602 L 807.06641 92 L 796.40039 92 z M 108.13281 97.599609 L 108.13281 190.66602 L 125.19922 190.66602 L 125.19922 128.80078 L 126.66602 128.80078 L 147.86719 190.66602 L 171.86719 190.66602 L 171.86719 97.599609 L 154.80078 97.599609 L 154.80078 159.4668 L 153.33398 159.4668 L 132.13281 97.599609 L 108.13281 97.599609 z M 218.66602 120.26758 C 203.33268 120.26758 193.33411 126.00104 188.80078 133.73438 L 199.59961 143.33398 C 203.33294 138.26732 208.13372 134.66602 216.40039 134.66602 C 225.46706 134.66602 228.93359 138.93307 228.93359 147.06641 L 228.93359 150.5332 L 217.86719 150.5332 C 197.73385 150.5332 186.93359 157.33438 186.93359 171.73438 C 186.93359 184.66771 195.73307 192.26758 209.06641 192.26758 C 219.59974 192.26758 227.6 187.46654 230 178.5332 L 230.66602 178.5332 C 231.46602 186.26654 236.80026 190.66602 244.93359 190.66602 L 256.26758 190.66602 L 256.26758 176.40039 L 248.66602 176.40039 L 248.66602 146.26758 C 248.66602 128.93425 237.46602 120.26758 218.66602 120.26758 z M 293.86719 120.26758 C 286.53385 120.26758 282.93411 125.6 280.80078 132 L 279.86719 132 L 279.86719 121.86719 L 264 121.86719 L 264 190.66602 L 279.86719 190.66602 L 279.86719 141.59961 C 279.86719 136.93294 282.66758 134.80078 286.26758 134.80078 C 289.73424 134.80078 292 137.0668 292 143.4668 L 292 190.66602 L 308 190.66602 L 308 141.59961 C 308 136.93294 310.79948 134.80078 314.13281 134.80078 C 317.73281 134.80078 320.13281 137.0668 320.13281 143.4668 L 320.13281 190.66602 L 336 190.66602 L 336 141.4668 C 336 127.33346 331.19961 120.26758 321.59961 120.26758 C 313.06628 120.26758 309.20026 125.73333 306.93359 132 L 306.13281 132 C 304.66615 124.4 300.40052 120.26758 293.86719 120.26758 z M 380.13281 120.26758 C 359.46615 120.26758 346.66602 133.99987 346.66602 156.5332 C 346.66602 178.5332 358.80052 192.26758 381.86719 192.26758 C 396.66719 192.26758 406.00065 186.66615 411.33398 180.13281 L 400.66602 168.5332 C 396.39935 173.59987 390.66654 177.06641 382.5332 177.06641 C 371.99987 177.06641 366.26758 171.06758 366.26758 162.26758 L 366.26758 161.06641 L 413.33398 161.06641 L 413.33398 155.19922 C 413.33398 133.73255 400.66615 120.26758 380.13281 120.26758 z M 460 120.26758 C 450 120.26758 446 125.33398 446 131.33398 L 446 136 C 446 142 450 147.06641 460 147.06641 C 470 147.06641 474 142 474 136 L 474 131.33398 C 474 125.33398 470 120.26758 460 120.26758 z M 620.26758 120.26758 C 604.26758 120.26758 592.5332 127.06745 592.5332 140.80078 C 592.5332 155.73411 606.39948 158.40052 616.13281 159.86719 L 626.93359 161.4668 C 633.20026 162.40013 639.06641 164.2668 639.06641 171.4668 C 639.06641 179.60013 631.46745 183.33398 620.80078 183.33398 C 609.86745 183.33398 602.40052 179.46654 595.86719 172.5332 L 588.66602 178.80078 C 595.86602 186.93411 606.1332 192.26758 620.5332 192.26758 C 638.1332 192.26758 649.59961 184.40078 649.59961 170.80078 C 649.59961 155.86745 635.86667 153.20104 626 151.73438 L 615.19922 150.13281 C 609.06589 149.19948 603.06641 147.33281 603.06641 140.13281 C 603.06641 133.06615 609.06719 129.19922 619.86719 129.19922 C 632.00052 129.19922 638.13398 134.00052 641.33398 137.86719 L 648.26758 131.33398 C 641.73424 124.40065 632.66758 120.26758 620.26758 120.26758 z M 699.73242 120.26758 C 680.39909 120.26758 668.5332 134.40091 668.5332 156.26758 C 668.5332 178.13424 680.39909 192.26758 699.73242 192.26758 C 719.06575 192.26758 730.93359 178.13424 730.93359 156.26758 C 730.93359 134.40091 719.06575 120.26758 699.73242 120.26758 z M 857.06641 120.26758 C 843.06641 120.26758 834.26745 126.93281 830.80078 134.13281 L 838 139.4668 C 841.6 133.20013 847.20039 129.33398 856.40039 129.33398 C 866.80039 129.33398 872.80078 134.5332 872.80078 144.5332 L 872.80078 151.33398 L 858.13281 151.33398 C 837.46615 151.33398 828.5332 158.66732 828.5332 171.33398 C 828.5332 184.26732 837.73281 192.26758 852.13281 192.26758 C 863.33281 192.26758 869.86745 187.33346 872.80078 179.4668 L 873.4668 179.4668 C 874.2668 185.8668 877.46576 190.66602 885.73242 190.66602 L 893.06641 190.66602 L 893.06641 181.33398 L 883.4668 181.33398 L 883.4668 143.4668 C 883.4668 128.93346 873.19974 120.26758 857.06641 120.26758 z M 1024.5332 120.26758 C 1014.9332 120.26758 1007.734 124.66641 1003.334 133.06641 L 1002.8008 133.06641 L 1002.8008 121.86719 L 992.13281 121.86719 L 992.13281 217.33398 L 1002.8008 217.33398 L 1002.8008 179.4668 L 1003.334 179.4668 C 1007.734 187.8668 1014.9332 192.26758 1024.5332 192.26758 C 1041.3332 192.26758 1051.4668 178.80091 1051.4668 156.26758 C 1051.4668 133.73425 1041.3332 120.26758 1024.5332 120.26758 z M 1099.4668 120.26758 C 1080.1335 120.26758 1068.2676 134.40091 1068.2676 156.26758 C 1068.2676 178.13424 1080.1335 192.26758 1099.4668 192.26758 C 1118.8001 192.26758 1130.666 178.13424 1130.666 156.26758 C 1130.666 134.40091 1118.8001 120.26758 1099.4668 120.26758 z M 1184.5332 120.26758 C 1174.9332 120.26758 1167.734 124.66641 1163.334 133.06641 L 1162.8008 133.06641 L 1162.8008 121.86719 L 1152.1328 121.86719 L 1152.1328 217.33398 L 1162.8008 217.33398 L 1162.8008 179.4668 L 1163.334 179.4668 C 1167.734 187.8668 1174.9332 192.26758 1184.5332 192.26758 C 1201.3332 192.26758 1211.4668 178.80091 1211.4668 156.26758 C 1211.4668 133.73425 1201.3332 120.26758 1184.5332 120.26758 z M 699.73242 129.4668 C 711.59909 129.4668 719.59961 136.53398 719.59961 151.33398 L 719.59961 161.19922 C 719.59961 175.99922 711.59909 183.06641 699.73242 183.06641 C 687.86576 183.06641 679.86719 175.99922 679.86719 161.19922 L 679.86719 151.33398 C 679.86719 136.53398 687.86576 129.4668 699.73242 129.4668 z M 1099.4668 129.4668 C 1111.3335 129.4668 1119.334 136.53398 1119.334 151.33398 L 1119.334 161.19922 C 1119.334 175.99922 1111.3335 183.06641 1099.4668 183.06641 C 1087.6001 183.06641 1079.5996 175.99922 1079.5996 161.19922 L 1079.5996 151.33398 C 1079.5996 136.53398 1087.6001 129.4668 1099.4668 129.4668 z M 778.80078 129.73438 C 788.26745 129.73438 796.40039 134.66719 796.40039 143.86719 L 796.40039 168.66602 C 796.40039 177.86602 788.26745 182.80078 778.80078 182.80078 C 766.40078 182.80078 759.19922 174.53281 759.19922 162.13281 L 759.19922 150.40039 C 759.19922 138.00039 766.40078 129.73437 778.80078 129.73438 z M 1020.4004 129.73438 C 1032.8004 129.73438 1040 138.00039 1040 150.40039 L 1040 162.13281 C 1040 174.53281 1032.8004 182.80078 1020.4004 182.80078 C 1010.9337 182.80078 1002.8008 177.86602 1002.8008 168.66602 L 1002.8008 143.86719 C 1002.8008 134.66719 1010.9337 129.73437 1020.4004 129.73438 z M 1180.4004 129.73438 C 1192.8004 129.73438 1200 138.00039 1200 150.40039 L 1200 162.13281 C 1200 174.53281 1192.8004 182.80078 1180.4004 182.80078 C 1170.9337 182.80078 1162.8008 177.86602 1162.8008 168.66602 L 1162.8008 143.86719 C 1162.8008 134.66719 1170.9337 129.73437 1180.4004 129.73438 z M 380.26758 134.40039 C 388.80091 134.40039 394 140.00026 394 148.93359 L 394 150 L 366.26758 150 L 366.26758 148.93359 C 366.26758 140.13359 371.73425 134.40039 380.26758 134.40039 z M 858.13281 159.33398 L 872.80078 159.33398 L 872.80078 170.66602 C 872.80078 177.73268 864.93333 183.33398 854 183.33398 C 845.2 183.33398 839.73242 179.59987 839.73242 172.5332 L 839.73242 169.73438 C 839.73242 163.06771 845.46615 159.33398 858.13281 159.33398 z M 218.40039 161.19922 L 228.93359 161.19922 L 228.93359 169.4668 C 228.93359 175.8668 223.46654 179.33398 216.5332 179.33398 C 210.26654 179.33398 206.26758 176.8 206.26758 172 L 206.26758 169.33398 C 206.26758 164.00065 210.53372 161.19922 218.40039 161.19922 z M 460 165.4668 C 450 165.4668 446 170.5332 446 176.5332 L 446 181.19922 C 446 187.19922 450 192.26758 460 192.26758 C 470 192.26758 474 187.19922 474 181.19922 L 474 176.5332 C 474 170.5332 470 165.4668 460 165.4668 z M 125.86719 264.26758 L 100.66602 357.33398 L 120.93359 357.33398 L 126.66602 334.93359 L 152.13281 334.93359 L 158 357.33398 L 179.33398 357.33398 L 154.13281 264.26758 L 125.86719 264.26758 z M 515.86719 264.26758 L 512.5332 315.4668 L 522 316.80078 C 526 312.40078 530.26641 308.93359 539.06641 308.93359 C 551.99974 308.93359 559.19922 316.26654 559.19922 328.5332 L 559.19922 329.59961 C 559.19922 341.73294 552.13398 349.19922 539.33398 349.19922 C 527.86732 349.19922 522.80052 343.99935 517.86719 336.66602 L 509.4668 343.06641 C 515.20013 351.06641 523.33307 358.93359 539.06641 358.93359 C 558.93307 358.93359 570.80078 346.26615 570.80078 328.13281 C 570.80078 310.13281 558.93268 299.4668 542.66602 299.4668 C 532.79935 299.4668 527.73255 303.33294 523.19922 309.59961 L 522.26758 309.59961 L 524.93359 274 L 566.5332 274 L 566.5332 264.26758 L 515.86719 264.26758 z M 595.86719 264.26758 L 592.5332 315.4668 L 602 316.80078 C 606 312.40078 610.26641 308.93359 619.06641 308.93359 C 631.99974 308.93359 639.19922 316.26654 639.19922 328.5332 L 639.19922 329.59961 C 639.19922 341.73294 632.13398 349.19922 619.33398 349.19922 C 607.86732 349.19922 602.80052 343.99935 597.86719 336.66602 L 589.4668 343.06641 C 595.20013 351.06641 603.33307 358.93359 619.06641 358.93359 C 638.93307 358.93359 650.80078 346.26615 650.80078 328.13281 C 650.80078 310.13281 638.93268 299.4668 622.66602 299.4668 C 612.79935 299.4668 607.73255 303.33294 603.19922 309.59961 L 602.26758 309.59961 L 604.93359 274 L 646.5332 274 L 646.5332 264.26758 L 595.86719 264.26758 z M 241.86719 275.33398 C 235.33385 275.33398 231.33398 279.33268 231.33398 284.66602 L 231.33398 288.40039 C 227.73398 287.46706 223.59922 286.93359 219.19922 286.93359 C 201.19922 286.93359 189.33398 295.4668 189.33398 311.4668 C 189.33398 321.60013 194.13424 328.79935 202.26758 332.66602 L 202.26758 333.4668 C 194.80091 335.20013 189.86719 337.99935 189.86719 344.66602 C 189.86719 350.66602 193.60013 353.73346 199.4668 355.4668 L 199.4668 356.26758 C 191.20013 358.40091 186.26758 362.00104 186.26758 369.73438 C 186.26758 379.06771 193.46628 385.59961 219.59961 385.59961 C 245.73294 385.59961 257.73242 378.80091 257.73242 364.26758 C 257.73242 352.66758 250.13372 344.40039 230.40039 344.40039 L 214.66602 344.40039 C 209.19935 344.40039 204.5332 344.13437 204.5332 339.73438 C 204.5332 337.33438 206 335.73268 208 334.66602 C 211.33333 335.59935 215.19922 336 219.19922 336 C 237.33255 336 249.33398 327.33346 249.33398 311.4668 C 249.33398 301.73346 244.93346 294.80026 237.4668 290.93359 L 237.4668 289.73438 L 254 289.73438 L 254 275.33398 L 241.86719 275.33398 z M 138.93359 283.59961 L 140 283.59961 L 149.06641 318.80078 L 129.86719 318.80078 L 138.93359 283.59961 z M 300.13281 286.93359 C 279.46615 286.93359 266.66602 300.66589 266.66602 323.19922 C 266.66602 345.19922 278.80052 358.93359 301.86719 358.93359 C 316.66719 358.93359 326.00065 353.33411 331.33398 346.80078 L 320.66602 335.19922 C 316.39935 340.26589 310.66654 343.73438 302.5332 343.73438 C 291.99987 343.73438 286.26758 337.73359 286.26758 328.93359 L 286.26758 327.73438 L 333.33398 327.73438 L 333.33398 321.86719 C 333.33398 300.40052 320.66615 286.93359 300.13281 286.93359 z M 380 286.93359 C 370 286.93359 366 292 366 298 L 366 302.66602 C 366 308.66602 370 313.73438 380 313.73438 C 390 313.73438 394 308.66602 394 302.66602 L 394 298 C 394 292 390 286.93359 380 286.93359 z M 219.19922 299.4668 C 227.06589 299.4668 230.66602 303.86719 230.66602 309.86719 L 230.66602 313.06641 C 230.66602 319.06641 227.06589 323.4668 219.19922 323.4668 C 211.46589 323.4668 208 319.06641 208 313.06641 L 208 309.86719 C 208 303.86719 211.46589 299.4668 219.19922 299.4668 z M 300.26758 301.06641 C 308.80091 301.06641 314 306.66628 314 315.59961 L 314 316.66602 L 286.26758 316.66602 L 286.26758 315.59961 C 286.26758 306.79961 291.73425 301.06641 300.26758 301.06641 z M 380 332.13281 C 370 332.13281 366 337.19922 366 343.19922 L 366 347.86719 C 366 353.86719 370 358.93359 380 358.93359 C 390 358.93359 394 353.86719 394 347.86719 L 394 343.19922 C 394 337.19922 390 332.13281 380 332.13281 z M 205.19922 360 L 228.80078 360 C 236.80078 360 239.06641 362.13438 239.06641 365.73438 C 239.06641 370.40104 235.06615 372.93359 226.13281 372.93359 L 214.5332 372.93359 C 205.86654 372.93359 202.5332 369.86628 202.5332 365.59961 C 202.5332 363.33294 203.46589 361.46667 205.19922 360 z M 232.40039 425.33398 L 232.40039 467.73438 L 231.4668 467.73438 C 228.00013 459.46771 222.13307 453.59961 211.06641 453.59961 C 195.86641 453.59961 185.19922 464.66628 185.19922 489.59961 C 185.19922 514.53294 195.86641 525.59961 211.06641 525.59961 C 222.13307 525.59961 228.00013 519.73346 231.4668 511.4668 L 232.40039 511.4668 L 232.40039 524 L 252.13281 524 L 252.13281 425.33398 L 232.40039 425.33398 z M 312.40039 425.33398 L 312.40039 467.73438 L 311.4668 467.73438 C 308.00013 459.46771 302.13307 453.59961 291.06641 453.59961 C 275.86641 453.59961 265.19922 464.66628 265.19922 489.59961 C 265.19922 514.53294 275.86641 525.59961 291.06641 525.59961 C 302.13307 525.59961 308.00013 519.73346 311.4668 511.4668 L 312.40039 511.4668 L 312.40039 524 L 332.13281 524 L 332.13281 425.33398 L 312.40039 425.33398 z M 859.73242 429.33398 C 840.79909 429.33398 828.66602 438.13255 828.66602 455.19922 C 828.66602 466.93255 834.39935 477.46654 852.66602 480.5332 L 863.06641 482.26758 C 875.73307 484.40091 880.40039 489.20091 880.40039 498.26758 C 880.40039 509.46758 873.06628 516 859.59961 516 C 848.39961 516 840.79961 511.59987 833.59961 502.5332 L 825.4668 509.19922 C 832.40013 518.79922 842.53255 525.59961 859.19922 525.59961 C 879.86588 525.59961 891.73242 515.2 891.73242 498 C 891.73242 485.86667 885.73346 475.7332 867.4668 472.5332 L 857.4668 470.80078 C 844.2668 468.53411 840 463.20026 840 454.93359 C 840 444.40026 847.06628 438.93359 859.59961 438.93359 C 871.19961 438.93359 877.86641 443.60039 883.06641 450.40039 L 890.93359 443.59961 C 884.66693 434.66628 874.53242 429.33398 859.73242 429.33398 z M 1339.4668 429.33398 C 1320.5334 429.33398 1308.4004 438.13255 1308.4004 455.19922 C 1308.4004 466.93255 1314.1337 477.46654 1332.4004 480.5332 L 1342.8008 482.26758 C 1355.4674 484.40091 1360.1328 489.20091 1360.1328 498.26758 C 1360.1328 509.46758 1352.8007 516 1339.334 516 C 1328.134 516 1320.534 511.59987 1313.334 502.5332 L 1305.1992 509.19922 C 1312.1326 518.79922 1322.2669 525.59961 1338.9336 525.59961 C 1359.6003 525.59961 1371.4668 515.2 1371.4668 498 C 1371.4668 485.86667 1365.4659 475.7332 1347.1992 472.5332 L 1337.1992 470.80078 C 1323.9992 468.53411 1319.7324 463.20026 1319.7324 454.93359 C 1319.7324 444.40026 1326.8006 438.93359 1339.334 438.93359 C 1350.934 438.93359 1357.6008 443.60039 1362.8008 450.40039 L 1370.666 443.59961 C 1364.3993 434.66628 1354.2668 429.33398 1339.4668 429.33398 z M 1819.1992 429.33398 C 1800.2659 429.33398 1788.1328 438.13255 1788.1328 455.19922 C 1788.1328 466.93255 1793.8661 477.46654 1812.1328 480.5332 L 1822.5332 482.26758 C 1835.1999 484.40091 1839.8672 489.20091 1839.8672 498.26758 C 1839.8672 509.46758 1832.5331 516 1819.0664 516 C 1807.8664 516 1800.2664 511.59987 1793.0664 502.5332 L 1784.9336 509.19922 C 1791.8669 518.79922 1801.9993 525.59961 1818.666 525.59961 C 1839.3327 525.59961 1851.1992 515.2 1851.1992 498 C 1851.1992 485.86667 1845.2003 475.7332 1826.9336 472.5332 L 1816.9336 470.80078 C 1803.7336 468.53411 1799.4668 463.20026 1799.4668 454.93359 C 1799.4668 444.40026 1806.5331 438.93359 1819.0664 438.93359 C 1830.6664 438.93359 1837.3332 443.60039 1842.5332 450.40039 L 1850.4004 443.59961 C 1844.1337 434.66628 1833.9992 429.33398 1819.1992 429.33398 z M 125.86719 430.93359 L 100.66602 524 L 120.93359 524 L 126.66602 501.59961 L 152.13281 501.59961 L 158 524 L 179.33398 524 L 154.13281 430.93359 L 125.86719 430.93359 z M 138.93359 450.26758 L 140 450.26758 L 149.06641 485.4668 L 129.86719 485.4668 L 138.93359 450.26758 z M 460.13281 453.59961 C 439.46615 453.59961 426.66602 467.33385 426.66602 489.86719 C 426.66602 511.86719 438.80052 525.59961 461.86719 525.59961 C 476.66719 525.59961 486.00065 520.00013 491.33398 513.4668 L 480.66602 501.86719 C 476.39935 506.93385 470.66654 510.40039 462.5332 510.40039 C 451.99987 510.40039 446.26758 504.39961 446.26758 495.59961 L 446.26758 494.40039 L 493.33398 494.40039 L 493.33398 488.5332 C 493.33398 467.06654 480.66615 453.59961 460.13281 453.59961 z M 541.73242 453.59961 C 521.86576 453.59961 510.26758 462.26602 510.26758 476.66602 C 510.26758 489.73268 520.00091 494.93411 532.26758 496.80078 L 543.33398 498.5332 C 548.66732 499.3332 551.86719 500.53372 551.86719 504.40039 C 551.86719 509.33372 547.06732 511.73438 539.33398 511.73438 C 530.13398 511.73438 522.93294 508.26706 517.59961 502.40039 L 506.5332 512.66602 C 512.1332 520.66602 523.99922 525.59961 539.19922 525.59961 C 559.59922 525.59961 571.19922 516.53424 571.19922 502.26758 C 571.19922 489.20091 561.46641 483.99948 549.06641 482.13281 L 538.13281 480.40039 C 532.79948 479.60039 529.59961 478.40039 529.59961 474.40039 C 529.59961 469.86706 533.59974 467.4668 541.06641 467.4668 C 549.99974 467.4668 556.5332 470.93398 560.5332 475.33398 L 570.40039 464.13281 C 564.66706 457.46615 555.19909 453.59961 541.73242 453.59961 z M 621.73242 453.59961 C 601.86576 453.59961 590.26758 462.26602 590.26758 476.66602 C 590.26758 489.73268 600.00091 494.93411 612.26758 496.80078 L 623.33398 498.5332 C 628.66732 499.3332 631.86719 500.53372 631.86719 504.40039 C 631.86719 509.33372 627.06732 511.73438 619.33398 511.73438 C 610.13398 511.73438 602.93294 508.26706 597.59961 502.40039 L 586.5332 512.66602 C 592.1332 520.66602 603.99922 525.59961 619.19922 525.59961 C 639.59922 525.59961 651.19922 516.53424 651.19922 502.26758 C 651.19922 489.20091 641.46641 483.99948 629.06641 482.13281 L 618.13281 480.40039 C 612.79948 479.60039 609.59961 478.40039 609.59961 474.40039 C 609.59961 469.86706 613.59974 467.4668 621.06641 467.4668 C 629.99974 467.4668 636.5332 470.93398 640.5332 475.33398 L 650.40039 464.13281 C 644.66706 457.46615 635.19909 453.59961 621.73242 453.59961 z M 699.59961 453.59961 C 689.59961 453.59961 685.59961 458.66602 685.59961 464.66602 L 685.59961 469.33398 C 685.59961 475.33398 689.59961 480.40039 699.59961 480.40039 C 709.59961 480.40039 713.59961 475.33398 713.59961 469.33398 L 713.59961 464.66602 C 713.59961 458.66602 709.59961 453.59961 699.59961 453.59961 z M 1024.5332 453.59961 C 1014.9332 453.59961 1007.734 458.00039 1003.334 466.40039 L 1002.8008 466.40039 L 1002.8008 455.19922 L 992.13281 455.19922 L 992.13281 550.66602 L 1002.8008 550.66602 L 1002.8008 512.80078 L 1003.334 512.80078 C 1007.734 521.20078 1014.9332 525.59961 1024.5332 525.59961 C 1041.3332 525.59961 1051.4668 512.13294 1051.4668 489.59961 C 1051.4668 467.06628 1041.3332 453.59961 1024.5332 453.59961 z M 1100 453.59961 C 1081.3333 453.59961 1068.4004 467.73438 1068.4004 489.73438 C 1068.4004 511.46771 1080.9327 525.59961 1100.666 525.59961 C 1114.266 525.59961 1124.1342 518.93437 1128.2676 509.73438 L 1120.4004 504.40039 C 1116.8004 511.86706 1109.866 516.40039 1100.666 516.40039 C 1087.7327 516.40039 1079.5996 507.60013 1079.5996 495.4668 L 1079.5996 492.26758 L 1130.5332 492.26758 L 1130.5332 487.19922 C 1130.5332 467.73255 1118.5333 453.59961 1100 453.59961 z M 1504.2676 453.59961 C 1494.6676 453.59961 1487.4664 458.00039 1483.0664 466.40039 L 1482.5332 466.40039 L 1482.5332 455.19922 L 1471.8672 455.19922 L 1471.8672 550.66602 L 1482.5332 550.66602 L 1482.5332 512.80078 L 1483.0664 512.80078 C 1487.4664 521.20078 1494.6676 525.59961 1504.2676 525.59961 C 1521.0676 525.59961 1531.1992 512.13294 1531.1992 489.59961 C 1531.1992 467.06628 1521.0676 453.59961 1504.2676 453.59961 z M 1579.7324 453.59961 C 1561.0658 453.59961 1548.1328 467.73438 1548.1328 489.73438 C 1548.1328 511.46771 1560.6671 525.59961 1580.4004 525.59961 C 1594.0004 525.59961 1603.8667 518.93437 1608 509.73438 L 1600.1328 504.40039 C 1596.5328 511.86706 1589.6004 516.40039 1580.4004 516.40039 C 1567.4671 516.40039 1559.334 507.60013 1559.334 495.4668 L 1559.334 492.26758 L 1610.2676 492.26758 L 1610.2676 487.19922 C 1610.2676 467.73255 1598.2658 453.59961 1579.7324 453.59961 z M 1984 453.59961 C 1974.4 453.59961 1967.2008 458.00039 1962.8008 466.40039 L 1962.2676 466.40039 L 1962.2676 455.19922 L 1951.5996 455.19922 L 1951.5996 550.66602 L 1962.2676 550.66602 L 1962.2676 512.80078 L 1962.8008 512.80078 C 1967.2008 521.20078 1974.4 525.59961 1984 525.59961 C 2000.8 525.59961 2010.9336 512.13294 2010.9336 489.59961 C 2010.9336 467.06628 2000.8 453.59961 1984 453.59961 z M 2059.4668 453.59961 C 2040.8001 453.59961 2027.8672 467.73438 2027.8672 489.73438 C 2027.8672 511.46771 2040.3995 525.59961 2060.1328 525.59961 C 2073.7328 525.59961 2083.5991 518.93437 2087.7324 509.73438 L 2079.8672 504.40039 C 2076.2672 511.86706 2069.3328 516.40039 2060.1328 516.40039 C 2047.1995 516.40039 2039.0664 507.60013 2039.0664 495.4668 L 2039.0664 492.26758 L 2090 492.26758 L 2090 487.19922 C 2090 467.73255 2078.0001 453.59961 2059.4668 453.59961 z M 349.86719 455.19922 L 349.86719 470.5332 L 365.73242 470.5332 L 365.73242 508.66602 L 349.86719 508.66602 L 349.86719 524 L 408.13281 524 L 408.13281 508.66602 L 385.4668 508.66602 L 385.4668 488.26758 C 385.4668 480.00091 390.53425 473.33398 400.26758 473.33398 L 414.93359 473.33398 L 414.93359 455.19922 L 408.40039 455.19922 C 394.80039 455.19922 388.93372 464.53268 386.40039 474.66602 L 385.4668 474.66602 L 385.4668 455.19922 L 349.86719 455.19922 z M 911.73242 455.19922 L 911.73242 499.33398 C 911.73242 516.00065 921.19961 525.59961 935.59961 525.59961 C 946.93294 525.59961 952.26589 519.60078 955.19922 512.80078 L 955.73242 512.80078 L 955.73242 524 L 966.40039 524 L 966.40039 455.19922 L 955.73242 455.19922 L 955.73242 502.93359 C 955.73242 512.00026 947.19935 516.13281 938.66602 516.13281 C 928.13268 516.13281 922.40039 510.00013 922.40039 497.4668 L 922.40039 455.19922 L 911.73242 455.19922 z M 1149.7324 455.19922 L 1149.7324 464.26758 L 1169.8672 464.26758 L 1169.8672 514.93359 L 1149.7324 514.93359 L 1149.7324 524 L 1207.1992 524 L 1207.1992 514.93359 L 1180.5332 514.93359 L 1180.5332 485.19922 C 1180.5332 474.53255 1187.5997 465.86719 1201.0664 465.86719 L 1214 465.86719 L 1214 455.19922 L 1204.4004 455.19922 C 1190.0004 455.19922 1183.8659 463.46654 1181.1992 472.5332 L 1180.5332 472.5332 L 1180.5332 455.19922 L 1149.7324 455.19922 z M 1391.4668 455.19922 L 1391.4668 499.33398 C 1391.4668 516.00065 1400.934 525.59961 1415.334 525.59961 C 1426.6673 525.59961 1432.0003 519.60078 1434.9336 512.80078 L 1435.4668 512.80078 L 1435.4668 524 L 1446.1328 524 L 1446.1328 455.19922 L 1435.4668 455.19922 L 1435.4668 502.93359 C 1435.4668 512.00026 1426.9337 516.13281 1418.4004 516.13281 C 1407.8671 516.13281 1402.1328 510.00013 1402.1328 497.4668 L 1402.1328 455.19922 L 1391.4668 455.19922 z M 1629.4668 455.19922 L 1629.4668 464.26758 L 1649.5996 464.26758 L 1649.5996 514.93359 L 1629.4668 514.93359 L 1629.4668 524 L 1686.9336 524 L 1686.9336 514.93359 L 1660.2676 514.93359 L 1660.2676 485.19922 C 1660.2676 474.53255 1667.3341 465.86719 1680.8008 465.86719 L 1693.7324 465.86719 L 1693.7324 455.19922 L 1684.1328 455.19922 C 1669.7328 455.19922 1663.6003 463.46654 1660.9336 472.5332 L 1660.2676 472.5332 L 1660.2676 455.19922 L 1629.4668 455.19922 z M 1871.1992 455.19922 L 1871.1992 499.33398 C 1871.1992 516.00065 1880.6664 525.59961 1895.0664 525.59961 C 1906.3997 525.59961 1911.7327 519.60078 1914.666 512.80078 L 1915.1992 512.80078 L 1915.1992 524 L 1925.8672 524 L 1925.8672 455.19922 L 1915.1992 455.19922 L 1915.1992 502.93359 C 1915.1992 512.00026 1906.6661 516.13281 1898.1328 516.13281 C 1887.5995 516.13281 1881.8672 510.00013 1881.8672 497.4668 L 1881.8672 455.19922 L 1871.1992 455.19922 z M 2109.1992 455.19922 L 2109.1992 464.26758 L 2129.334 464.26758 L 2129.334 514.93359 L 2109.1992 514.93359 L 2109.1992 524 L 2166.666 524 L 2166.666 514.93359 L 2140 514.93359 L 2140 485.19922 C 2140 474.53255 2147.0665 465.86719 2160.5332 465.86719 L 2173.4668 465.86719 L 2173.4668 455.19922 L 2163.8672 455.19922 C 2149.4672 455.19922 2143.3327 463.46654 2140.666 472.5332 L 2140 472.5332 L 2140 455.19922 L 2109.1992 455.19922 z M 1100 462.40039 C 1111.3333 462.40039 1119.0664 470.66745 1119.0664 482.80078 L 1119.0664 484.26758 L 1079.5996 484.26758 L 1079.5996 483.33398 C 1079.5996 471.33398 1088.2667 462.40039 1100 462.40039 z M 1579.7324 462.40039 C 1591.0658 462.40039 1598.8008 470.66745 1598.8008 482.80078 L 1598.8008 484.26758 L 1559.334 484.26758 L 1559.334 483.33398 C 1559.334 471.33398 1567.9991 462.40039 1579.7324 462.40039 z M 2059.4668 462.40039 C 2070.8001 462.40039 2078.5332 470.66745 2078.5332 482.80078 L 2078.5332 484.26758 L 2039.0664 484.26758 L 2039.0664 483.33398 C 2039.0664 471.33398 2047.7335 462.40039 2059.4668 462.40039 z M 1020.4004 463.06641 C 1032.8004 463.06641 1040 471.33438 1040 483.73438 L 1040 495.4668 C 1040 507.8668 1032.8004 516.13281 1020.4004 516.13281 C 1010.9337 516.13281 1002.8008 511.2 1002.8008 502 L 1002.8008 477.19922 C 1002.8008 467.99922 1010.9337 463.06641 1020.4004 463.06641 z M 1500.1328 463.06641 C 1512.5328 463.06641 1519.7324 471.33438 1519.7324 483.73438 L 1519.7324 495.4668 C 1519.7324 507.8668 1512.5328 516.13281 1500.1328 516.13281 C 1490.6661 516.13281 1482.5332 511.2 1482.5332 502 L 1482.5332 477.19922 C 1482.5332 467.99922 1490.6661 463.06641 1500.1328 463.06641 z M 1979.8672 463.06641 C 1992.2672 463.06641 1999.4668 471.33438 1999.4668 483.73438 L 1999.4668 495.4668 C 1999.4668 507.8668 1992.2672 516.13281 1979.8672 516.13281 C 1970.4005 516.13281 1962.2676 511.2 1962.2676 502 L 1962.2676 477.19922 C 1962.2676 467.99922 1970.4005 463.06641 1979.8672 463.06641 z M 460.26758 467.73438 C 468.80091 467.73438 474 473.33425 474 482.26758 L 474 483.33398 L 446.26758 483.33398 L 446.26758 482.26758 C 446.26758 473.46758 451.73425 467.73438 460.26758 467.73438 z M 219.59961 468.93359 C 226.53294 468.93359 232.40039 472.2668 232.40039 479.4668 L 232.40039 499.73438 C 232.40039 506.93437 226.53294 510.26758 219.59961 510.26758 C 210.79961 510.26758 205.73242 504.53359 205.73242 494.93359 L 205.73242 484.26758 C 205.73242 474.66758 210.79961 468.93359 219.59961 468.93359 z M 299.59961 468.93359 C 306.53294 468.93359 312.40039 472.2668 312.40039 479.4668 L 312.40039 499.73438 C 312.40039 506.93437 306.53294 510.26758 299.59961 510.26758 C 290.79961 510.26758 285.73242 504.53359 285.73242 494.93359 L 285.73242 484.26758 C 285.73242 474.66758 290.79961 468.93359 299.59961 468.93359 z M 699.59961 498.80078 C 689.59961 498.80078 685.59961 503.86719 685.59961 509.86719 L 685.59961 514.5332 C 685.59961 520.5332 689.59961 525.59961 699.59961 525.59961 C 709.59961 525.59961 713.59961 520.5332 713.59961 514.5332 L 713.59961 509.86719 C 713.59961 503.86719 709.59961 498.80078 699.59961 498.80078 z M 275.59961 812 L 274.13281 820.93359 L 298.40039 820.93359 L 283.4668 898.5332 C 283.20013 899.7332 283.06641 901.60078 283.06641 902.80078 C 283.06641 908.26745 285.86641 912.26758 293.06641 912.26758 C 298.39974 912.26758 303.19948 910.00091 316.13281 898.26758 L 330 885.73242 L 324 879.86719 L 296.66602 903.06641 L 293.33398 902 L 310.66602 812 L 275.59961 812 z M 604.26758 812 L 587.73242 910.66602 L 598.13281 910.66602 L 604.5332 872.66602 C 605.86654 864.79935 610.93372 858.66693 612.40039 856.93359 C 616.26706 852.40026 620.93359 849.4668 626.93359 849.4668 C 634.66693 849.4668 638.40039 854.53268 638.40039 862.66602 C 638.40039 864.13268 638.26576 866.8 637.73242 870 L 630.93359 910.66602 L 641.33398 910.66602 L 648.26758 869.06641 C 648.80091 865.99974 649.06641 862.79948 649.06641 860.13281 C 649.06641 847.59948 641.86706 840.26758 630.40039 840.26758 C 619.33372 840.26758 612.53346 847.19948 607.4668 858.13281 L 606.93359 858.13281 L 614.66602 812 L 604.26758 812 z M 835.33398 812 L 833.86719 820.93359 L 858.13281 820.93359 L 843.19922 898.5332 C 842.93255 899.7332 842.80078 901.60078 842.80078 902.80078 C 842.80078 908.26745 845.60078 912.26758 852.80078 912.26758 C 858.13411 912.26758 862.93385 910.00091 875.86719 898.26758 L 889.73242 885.73242 L 883.73242 879.86719 L 856.40039 903.06641 L 853.06641 902 L 870.40039 812 L 835.33398 812 z M 1127.1992 812 L 1120.1328 853.86719 L 1119.7324 853.86719 C 1116.7991 844.93385 1109.7329 840.26758 1099.5996 840.26758 C 1075.3329 840.26758 1067.0664 867.19961 1067.0664 885.59961 C 1067.0664 903.19961 1074.6665 912.26758 1088.5332 912.26758 C 1100.6665 912.26758 1107.6003 905.20039 1112.9336 894.40039 L 1113.334 894.40039 L 1110.666 910.66602 L 1121.0664 910.66602 L 1137.5996 812 L 1127.1992 812 z M 121.06641 817.59961 L 119.59961 826.40039 L 142.93359 826.40039 L 130.26758 901.86719 L 106.93359 901.86719 L 105.4668 910.66602 L 163.06641 910.66602 L 164.5332 901.86719 L 141.19922 901.86719 L 153.86719 826.40039 L 177.19922 826.40039 L 178.66602 817.59961 L 121.06641 817.59961 z M 379.86719 840.26758 C 355.60052 840.26758 347.33398 867.19961 347.33398 885.59961 C 347.33398 903.19961 354.93411 912.26758 368.80078 912.26758 C 380.93411 912.26758 387.86589 905.20039 393.19922 894.40039 L 393.59961 894.40039 L 390.93359 910.66602 L 401.33398 910.66602 L 412.80078 841.86719 L 402.40039 841.86719 L 400.40039 853.86719 L 400 853.86719 C 397.06667 844.93385 390.00052 840.26758 379.86719 840.26758 z M 539.86719 840.26758 C 516.13385 840.26758 507.4668 866.13385 507.4668 883.86719 C 507.4668 900.66719 514.93307 910 529.06641 910 C 541.19974 910 548.39961 903.19948 553.59961 892.13281 L 554.13281 892.13281 L 551.33398 908.66602 C 548.80065 923.86602 541.33411 929.73242 528.80078 929.73242 C 520.40078 929.73242 514.79922 927.06654 511.19922 922.5332 L 504 929.4668 C 508.93333 935.60013 517.06615 938.93359 528.13281 938.93359 C 545.33281 938.93359 557.86732 930.93268 561.33398 910.66602 L 572.80078 841.86719 L 562.40039 841.86719 L 560.40039 853.86719 L 560 853.86719 C 557.06667 844.93385 550.00052 840.26758 539.86719 840.26758 z M 779.59961 840.26758 C 755.33294 840.26758 747.06641 867.19961 747.06641 885.59961 C 747.06641 903.19961 754.66654 912.26758 768.5332 912.26758 C 780.66654 912.26758 787.60026 905.20039 792.93359 894.40039 L 793.33398 894.40039 L 790.66602 910.66602 L 801.06641 910.66602 L 812.5332 841.86719 L 802.13281 841.86719 L 800.13281 853.86719 L 799.73242 853.86719 C 796.79909 844.93385 789.73294 840.26758 779.59961 840.26758 z M 944.13281 840.26758 C 923.99948 840.26758 908.13281 856.93255 908.13281 883.19922 C 908.13281 900.39922 917.33359 912.26758 934.93359 912.26758 C 955.20026 912.26758 971.06641 895.60065 971.06641 869.33398 C 971.06641 852.13398 961.99948 840.26758 944.13281 840.26758 z M 438.66602 841.86719 L 431.73242 883.4668 C 431.19909 886.53346 430.93359 889.73372 430.93359 892.40039 C 430.93359 904.93372 438.13294 912.26758 449.59961 912.26758 C 460.66628 912.26758 467.46654 905.33372 472.5332 894.40039 L 473.06641 894.40039 L 470.40039 910.66602 L 480.80078 910.66602 L 492.26758 841.86719 L 481.86719 841.86719 L 475.4668 879.86719 C 474.13346 887.73385 469.06628 893.86628 467.59961 895.59961 C 463.73294 900.13294 459.06641 903.06641 453.06641 903.06641 C 445.33307 903.06641 441.59961 898.00052 441.59961 889.86719 C 441.59961 888.40052 441.73424 885.7332 442.26758 882.5332 L 449.06641 841.86719 L 438.66602 841.86719 z M 998.40039 841.86719 L 991.4668 883.4668 C 990.93346 886.53346 990.66602 889.73372 990.66602 892.40039 C 990.66602 904.93372 997.86732 912.26758 1009.334 912.26758 C 1020.4007 912.26758 1027.2009 905.33372 1032.2676 894.40039 L 1032.8008 894.40039 L 1030.1328 910.66602 L 1040.5332 910.66602 L 1052 841.86719 L 1041.5996 841.86719 L 1035.1992 879.86719 C 1033.8659 887.73385 1028.8007 893.86628 1027.334 895.59961 C 1023.4673 900.13294 1018.8008 903.06641 1012.8008 903.06641 C 1005.0674 903.06641 1001.334 898.00052 1001.334 889.86719 C 1001.334 888.40052 1001.4667 885.7332 1002 882.5332 L 1008.8008 841.86719 L 998.40039 841.86719 z M 943.73242 849.33398 C 953.99909 849.33398 960.5332 854.66758 960.5332 866.26758 C 960.5332 867.86758 960.40052 869.86641 959.86719 873.06641 L 958.5332 881.06641 C 956.26654 894.66641 948.40013 903.19922 935.4668 903.19922 C 925.20013 903.19922 918.66602 897.86758 918.66602 886.26758 C 918.66602 884.66758 918.80065 882.6668 919.33398 879.4668 L 920.66602 871.4668 C 922.93268 857.8668 930.79909 849.33398 943.73242 849.33398 z M 382.93359 849.4668 C 393.20026 849.4668 400.26602 854.9332 398.66602 864.5332 L 396.13281 879.73242 C 395.06615 886.13242 391.99987 891.60013 388.5332 895.4668 C 383.7332 900.80013 378.13372 903.06641 372.40039 903.06641 C 362.80039 903.06641 357.86719 896.93268 357.86719 886.66602 C 357.86719 884.93268 358.00039 883.06602 358.40039 880.66602 L 360 871.06641 C 362.13333 858.26641 369.73359 849.4668 382.93359 849.4668 z M 542.93359 849.4668 C 553.20026 849.4668 560.26602 854.9332 558.66602 864.5332 L 556.5332 877.59961 C 555.3332 885.06628 551.46693 890.39922 548.93359 893.19922 C 544.00026 898.66589 538.39935 900.80078 532.66602 900.80078 C 523.06602 900.80078 518.13281 894.80052 518.13281 883.86719 C 518.13281 882.00052 518.40078 880.4 518.80078 878 L 520 870.80078 C 522.13333 858.00078 530.00026 849.4668 542.93359 849.4668 z M 782.66602 849.4668 C 792.93268 849.4668 800.00039 854.9332 798.40039 864.5332 L 795.86719 879.73242 C 794.80052 886.13242 791.73424 891.60013 788.26758 895.4668 C 783.46758 900.80013 777.86615 903.06641 772.13281 903.06641 C 762.53281 903.06641 757.59961 896.93268 757.59961 886.66602 C 757.59961 884.93268 757.73281 883.06602 758.13281 880.66602 L 759.73242 871.06641 C 761.86576 858.26641 769.46602 849.4668 782.66602 849.4668 z M 1102.666 849.4668 C 1112.9327 849.4668 1120.0004 854.9332 1118.4004 864.5332 L 1115.8672 879.73242 C 1114.8005 886.13242 1111.7342 891.60013 1108.2676 895.4668 C 1103.4676 900.80013 1097.8661 903.06641 1092.1328 903.06641 C 1082.5328 903.06641 1077.5996 896.93268 1077.5996 886.66602 C 1077.5996 884.93268 1077.7328 883.06602 1078.1328 880.66602 L 1079.7324 871.06641 C 1081.8658 858.26641 1089.466 849.4668 1102.666 849.4668 z M 1176.5332 893.73242 C 1169.7332 893.73242 1166.5324 896.79961 1165.7324 901.59961 C 1165.4658 903.19961 1165.1992 904.80052 1165.1992 905.86719 C 1165.1992 909.20052 1167.6005 911.86719 1173.8672 911.86719 C 1180.6672 911.86719 1183.866 908.8 1184.666 904 C 1184.9327 902.4 1185.1992 900.79909 1185.1992 899.73242 C 1185.1992 896.39909 1182.7999 893.73242 1176.5332 893.73242 z M 1906 1144.2676 C 1900.6667 1144.2676 1897.8659 1146.666 1897.1992 1150.666 C 1896.9326 1152.266 1896.666 1153.4665 1896.666 1154.5332 C 1896.666 1157.3332 1898.6671 1159.8672 1904.4004 1159.8672 C 1909.7337 1159.8672 1912.5326 1157.4668 1913.1992 1153.4668 C 1913.4659 1151.8668 1913.7324 1150.6663 1913.7324 1149.5996 C 1913.7324 1146.7996 1911.7333 1144.2676 1906 1144.2676 z M 1521.5996 1145.334 C 1511.3329 1145.334 1505.4667 1151.8669 1504 1160.9336 L 1501.5996 1175.1992 L 1477.0664 1175.1992 L 1475.5996 1184.1328 L 1500.1328 1184.1328 L 1487.0664 1262.4004 L 1484.666 1262.9336 L 1464.1328 1241.0664 L 1457.0664 1247.4668 L 1465.1992 1256.4004 C 1475.8659 1268.0004 1479.734 1272.2676 1485.334 1272.2676 C 1493.334 1272.2676 1496.9328 1265.7342 1498.1328 1258.2676 L 1510.5332 1184.1328 L 1538.4004 1184.1328 L 1539.8672 1175.1992 L 1512 1175.1992 L 1515.4668 1154.2676 L 1543.1992 1154.2676 L 1544.666 1145.334 L 1521.5996 1145.334 z M 1643.4668 1145.334 L 1626.9336 1244 L 1637.334 1244 L 1643.7324 1206 C 1645.0658 1198.1333 1650.1329 1192.0009 1651.5996 1190.2676 C 1655.4663 1185.7342 1660.1328 1182.8008 1666.1328 1182.8008 C 1673.8661 1182.8008 1677.5996 1187.8667 1677.5996 1196 C 1677.5996 1197.4667 1677.4669 1200.134 1676.9336 1203.334 L 1670.1328 1244 L 1680.5332 1244 L 1687.4668 1202.4004 C 1688.0001 1199.3337 1688.2656 1196.1335 1688.2656 1193.4668 C 1688.2656 1180.9335 1681.0663 1173.5996 1669.5996 1173.5996 C 1658.5329 1173.5996 1651.7327 1180.5335 1646.666 1191.4668 L 1646.1328 1191.4668 L 1653.8672 1145.334 L 1643.4668 1145.334 z M 1802.666 1145.334 L 1786.1328 1244 L 1796.5332 1244 L 1798.5332 1232 L 1798.9336 1232 C 1801.8669 1240.9333 1808.9331 1245.5996 1819.0664 1245.5996 C 1843.3331 1245.5996 1851.5996 1218.6676 1851.5996 1200.2676 C 1851.5996 1182.6676 1843.9995 1173.5996 1830.1328 1173.5996 C 1817.9995 1173.5996 1811.0658 1180.6668 1805.7324 1191.4668 L 1805.334 1191.4668 L 1813.0664 1145.334 L 1802.666 1145.334 z M 121.06641 1150.9336 L 119.59961 1159.7324 L 142.93359 1159.7324 L 130.26758 1235.1992 L 106.93359 1235.1992 L 105.4668 1244 L 163.06641 1244 L 164.5332 1235.1992 L 141.19922 1235.1992 L 153.86719 1159.7324 L 177.19922 1159.7324 L 178.66602 1150.9336 L 121.06641 1150.9336 z M 1016.1328 1150.9336 L 1013.0664 1168.9336 C 1012.2664 1173.6003 1010.1329 1175.1992 1005.5996 1175.1992 L 991.59961 1175.1992 L 990.13281 1184.1328 L 1010 1184.1328 L 1002 1230.5332 C 1001.7333 1231.9999 1001.5996 1234.5324 1001.5996 1235.7324 C 1001.5996 1242.1324 1005.2001 1245.5996 1011.4668 1245.5996 C 1016.9335 1245.5996 1022.266 1242.8 1034.666 1234 L 1049.7324 1223.334 L 1044.5332 1216.666 L 1014.5332 1236.666 L 1011.8672 1235.0664 L 1020.4004 1184.1328 L 1048.8008 1184.1328 L 1050.2676 1175.1992 L 1021.8672 1175.1992 L 1026 1150.9336 L 1016.1328 1150.9336 z M 1975.5996 1150.9336 L 1972.5332 1168.9336 C 1971.7332 1173.6003 1969.5997 1175.1992 1965.0664 1175.1992 L 1951.0664 1175.1992 L 1949.5996 1184.1328 L 1969.4668 1184.1328 L 1961.4668 1230.5332 C 1961.2001 1231.9999 1961.0664 1234.5324 1961.0664 1235.7324 C 1961.0664 1242.1324 1964.6669 1245.5996 1970.9336 1245.5996 C 1976.4003 1245.5996 1981.7328 1242.8 1994.1328 1234 L 2009.1992 1223.334 L 2004 1216.666 L 1974 1236.666 L 1971.334 1235.0664 L 1979.8672 1184.1328 L 2008.2656 1184.1328 L 2009.7324 1175.1992 L 1981.334 1175.1992 L 1985.4668 1150.9336 L 1975.5996 1150.9336 z M 299.86719 1173.5996 C 275.60052 1173.5996 267.33398 1200.5336 267.33398 1218.9336 C 267.33398 1236.5336 274.93411 1245.5996 288.80078 1245.5996 C 300.93411 1245.5996 307.86589 1238.5324 313.19922 1227.7324 L 313.59961 1227.7324 L 310.93359 1244 L 321.33398 1244 L 332.80078 1175.1992 L 322.40039 1175.1992 L 320.40039 1187.1992 L 320 1187.1992 C 317.06667 1178.2659 310.00052 1173.5996 299.86719 1173.5996 z M 376.26758 1173.5996 C 368.66758 1173.5996 364.53398 1179.0667 361.33398 1186 L 360.80078 1186 L 362.5332 1175.1992 L 352.93359 1175.1992 L 341.4668 1244 L 351.06641 1244 L 358.5332 1199.4668 C 359.19987 1195.4668 360.80065 1191.0668 363.33398 1187.4668 C 365.46732 1184.4001 368.53424 1182.1328 372.26758 1182.1328 C 376.00091 1182.1328 377.86719 1184.4 377.86719 1190 C 377.86719 1192.1333 377.59974 1194.6672 377.06641 1197.8672 L 369.33398 1244 L 378.93359 1244 L 386.40039 1199.4668 C 387.06706 1195.4668 388.66589 1190.9335 391.19922 1187.4668 C 393.46589 1184.4001 396.13385 1182.1328 399.86719 1182.1328 C 403.86719 1182.1328 405.73242 1184.6663 405.73242 1189.5996 C 405.73242 1191.4663 405.33411 1194.6672 404.80078 1197.8672 L 397.06641 1244 L 406.66602 1244 L 414.66602 1196.1328 C 415.19935 1192.9328 415.59961 1189.3341 415.59961 1186.8008 C 415.59961 1178.4008 411.46719 1173.5996 403.86719 1173.5996 C 395.86719 1173.5996 390.66589 1178.7993 387.19922 1186.666 L 386.80078 1186.666 C 387.33411 1179.1993 384.00091 1173.5996 376.26758 1173.5996 z M 539.73242 1173.5996 C 515.46576 1173.5996 507.19922 1200.5336 507.19922 1218.9336 C 507.19922 1236.5336 514.79935 1245.5996 528.66602 1245.5996 C 540.79935 1245.5996 547.73307 1238.5324 553.06641 1227.7324 L 553.4668 1227.7324 L 550.80078 1244 L 561.19922 1244 L 572.66602 1175.1992 L 562.26758 1175.1992 L 560.26758 1187.1992 L 559.86719 1187.1992 C 556.93385 1178.2659 549.86575 1173.5996 539.73242 1173.5996 z M 705.06641 1173.5996 C 685.46641 1173.5996 669.59961 1190.2665 669.59961 1216.5332 C 669.59961 1233.7332 678.53294 1245.5996 695.59961 1245.5996 C 709.99961 1245.5996 718.66732 1238.1328 727.33398 1224.1328 L 719.86719 1219.7324 C 708.93385 1234.7991 703.06693 1236.5332 696.93359 1236.5332 C 686.93359 1236.5332 680.13281 1231.0673 680.13281 1219.334 C 680.13281 1217.6007 680.26745 1216.1336 680.80078 1212.9336 L 682.13281 1204.9336 C 684.53281 1190.5336 692.13385 1182.666 703.86719 1182.666 C 712.40052 1182.666 717.46615 1185.1996 720.13281 1193.5996 L 729.06641 1190.1328 C 726.66641 1181.0661 719.59974 1173.5996 705.06641 1173.5996 z M 867.19922 1173.5996 C 845.06589 1173.5996 829.33398 1191.1995 829.33398 1216.1328 C 829.33398 1235.8661 839.19987 1245.5996 856.5332 1245.5996 C 871.06654 1245.5996 880.39948 1238.6667 888.13281 1226 L 880.80078 1221.4668 C 873.06745 1232.4001 867.33346 1236.666 857.4668 1236.666 C 843.0668 1236.666 840.26758 1227.7328 840.26758 1218.1328 C 840.26758 1217.8661 840.26706 1216.3997 840.40039 1215.0664 C 884.26706 1213.8664 890.5332 1201.8661 890.5332 1192.1328 C 890.5332 1180.1328 880.66589 1173.5996 867.19922 1173.5996 z M 939.59961 1173.5996 C 915.33294 1173.5996 907.06641 1200.5336 907.06641 1218.9336 C 907.06641 1236.5336 914.66654 1245.5996 928.5332 1245.5996 C 940.66654 1245.5996 947.60026 1238.5324 952.93359 1227.7324 L 953.33398 1227.7324 L 950.66602 1244 L 961.06641 1244 L 972.5332 1175.1992 L 962.13281 1175.1992 L 960.13281 1187.1992 L 959.73242 1187.1992 C 956.79909 1178.2659 949.73294 1173.5996 939.59961 1173.5996 z M 1267.1992 1173.5996 C 1245.0659 1173.5996 1229.334 1191.1995 1229.334 1216.1328 C 1229.334 1235.8661 1239.1999 1245.5996 1256.5332 1245.5996 C 1271.0665 1245.5996 1280.3995 1238.6667 1288.1328 1226 L 1280.8008 1221.4668 C 1273.0674 1232.4001 1267.3335 1236.666 1257.4668 1236.666 C 1243.0668 1236.666 1240.2676 1227.7328 1240.2676 1218.1328 C 1240.2676 1217.8661 1240.2671 1216.3997 1240.4004 1215.0664 C 1284.2671 1213.8664 1290.5332 1201.8661 1290.5332 1192.1328 C 1290.5332 1180.1328 1280.6659 1173.5996 1267.1992 1173.5996 z M 1423.7324 1173.5996 C 1403.5991 1173.5996 1387.7324 1190.2665 1387.7324 1216.5332 C 1387.7324 1233.7332 1396.9332 1245.5996 1414.5332 1245.5996 C 1434.7999 1245.5996 1450.666 1228.9327 1450.666 1202.666 C 1450.666 1185.466 1441.5991 1173.5996 1423.7324 1173.5996 z M 1739.0664 1173.5996 C 1714.7997 1173.5996 1706.5332 1200.5336 1706.5332 1218.9336 C 1706.5332 1236.5336 1714.1333 1245.5996 1728 1245.5996 C 1740.1333 1245.5996 1747.0671 1238.5324 1752.4004 1227.7324 L 1752.8008 1227.7324 L 1750.1328 1244 L 1760.5332 1244 L 1772 1175.1992 L 1761.5996 1175.1992 L 1759.5996 1187.1992 L 1759.1992 1187.1992 C 1756.2659 1178.2659 1749.1997 1173.5996 1739.0664 1173.5996 z M 755.4668 1175.1992 L 754 1184.1328 L 773.33398 1184.1328 L 763.33398 1244 L 773.73242 1244 L 779.73242 1208.1328 C 781.06576 1200.1328 785.86628 1194.5332 787.59961 1192.5332 C 791.73294 1187.7332 796.66602 1185.5996 804.66602 1185.5996 L 816.40039 1185.5996 L 818.13281 1175.1992 L 807.73242 1175.1992 C 794.53242 1175.1992 787.60078 1182.6663 782.80078 1193.5996 L 782.13281 1193.5996 L 785.19922 1175.1992 L 755.4668 1175.1992 z M 1078.4004 1175.1992 L 1071.4668 1216.8008 C 1070.9335 1219.8674 1070.666 1223.0658 1070.666 1225.7324 C 1070.666 1238.2658 1077.8673 1245.5996 1089.334 1245.5996 C 1100.4007 1245.5996 1107.2009 1238.6658 1112.2676 1227.7324 L 1112.8008 1227.7324 L 1110.1328 1244 L 1120.5332 1244 L 1132 1175.1992 L 1121.5996 1175.1992 L 1115.1992 1213.1992 C 1113.8659 1221.0659 1108.8007 1227.2003 1107.334 1228.9336 C 1103.4673 1233.4669 1098.8008 1236.4004 1092.8008 1236.4004 C 1085.0674 1236.4004 1081.334 1231.3326 1081.334 1223.1992 C 1081.334 1221.7326 1081.4667 1219.0672 1082 1215.8672 L 1088.8008 1175.1992 L 1078.4004 1175.1992 z M 1155.4668 1175.1992 L 1154 1184.1328 L 1173.334 1184.1328 L 1163.334 1244 L 1173.7324 1244 L 1179.7324 1208.1328 C 1181.0658 1200.1328 1185.8663 1194.5332 1187.5996 1192.5332 C 1191.7329 1187.7332 1196.666 1185.5996 1204.666 1185.5996 L 1216.4004 1185.5996 L 1218.1328 1175.1992 L 1207.7324 1175.1992 C 1194.5324 1175.1992 1187.6008 1182.6663 1182.8008 1193.5996 L 1182.1328 1193.5996 L 1185.1992 1175.1992 L 1155.4668 1175.1992 z M 1871.4668 1175.1992 L 1870 1184.1328 L 1894.8008 1184.1328 L 1885.7324 1231.0664 C 1885.4658 1232.6664 1885.0664 1234.6671 1885.0664 1236.4004 C 1885.0664 1241.7337 1888.6673 1245.5996 1895.334 1245.5996 C 1901.334 1245.5996 1906.2674 1242.4008 1918.8008 1230.8008 L 1930.9336 1219.5996 L 1924.666 1213.7324 L 1898.4004 1236.4004 L 1895.334 1235.1992 L 1906.9336 1175.1992 L 1871.4668 1175.1992 z M 866.26758 1182.2676 C 876.26758 1182.2676 879.86719 1186.9332 879.86719 1192.5332 C 879.86719 1199.1999 874.79922 1206.8005 841.19922 1207.8672 L 841.33398 1206.5332 C 843.33398 1190.9332 852.40091 1182.2676 866.26758 1182.2676 z M 1266.2676 1182.2676 C 1276.2676 1182.2676 1279.8672 1186.9332 1279.8672 1192.5332 C 1279.8672 1199.1999 1274.7992 1206.8005 1241.1992 1207.8672 L 1241.334 1206.5332 C 1243.334 1190.9332 1252.4009 1182.2676 1266.2676 1182.2676 z M 1423.334 1182.666 C 1433.6007 1182.666 1440.1328 1187.9996 1440.1328 1199.5996 C 1440.1328 1201.1996 1440.0001 1203.2004 1439.4668 1206.4004 L 1438.1328 1214.4004 C 1435.8661 1228.0004 1427.9997 1236.5332 1415.0664 1236.5332 C 1404.7997 1236.5332 1398.2676 1231.1996 1398.2676 1219.5996 C 1398.2676 1217.9996 1398.4003 1216.0008 1398.9336 1212.8008 L 1400.2676 1204.8008 C 1402.5342 1191.2008 1410.4007 1182.666 1423.334 1182.666 z M 302.93359 1182.8008 C 313.20026 1182.8008 320.26602 1188.2672 318.66602 1197.8672 L 316.13281 1213.0664 C 315.06615 1219.4664 311.99987 1224.9341 308.5332 1228.8008 C 303.7332 1234.1341 298.13372 1236.4004 292.40039 1236.4004 C 282.80039 1236.4004 277.86719 1230.2667 277.86719 1220 C 277.86719 1218.2667 278.00039 1216.4 278.40039 1214 L 280 1204.4004 C 282.13333 1191.6004 289.73359 1182.8008 302.93359 1182.8008 z M 542.80078 1182.8008 C 553.06745 1182.8008 560.1332 1188.2672 558.5332 1197.8672 L 556 1213.0664 C 554.93333 1219.4664 551.86706 1224.9341 548.40039 1228.8008 C 543.60039 1234.1341 538.00091 1236.4004 532.26758 1236.4004 C 522.66758 1236.4004 517.73242 1230.2667 517.73242 1220 C 517.73242 1218.2667 517.86758 1216.4 518.26758 1214 L 519.86719 1204.4004 C 522.00052 1191.6004 529.60078 1182.8008 542.80078 1182.8008 z M 942.66602 1182.8008 C 952.93268 1182.8008 960.00039 1188.2672 958.40039 1197.8672 L 955.86719 1213.0664 C 954.80052 1219.4664 951.73424 1224.9341 948.26758 1228.8008 C 943.46758 1234.1341 937.86615 1236.4004 932.13281 1236.4004 C 922.53281 1236.4004 917.59961 1230.2667 917.59961 1220 C 917.59961 1218.2667 917.73281 1216.4 918.13281 1214 L 919.73242 1204.4004 C 921.86576 1191.6004 929.46602 1182.8008 942.66602 1182.8008 z M 1742.1328 1182.8008 C 1752.3995 1182.8008 1759.4672 1188.2672 1757.8672 1197.8672 L 1755.334 1213.0664 C 1754.2673 1219.4664 1751.1991 1224.9341 1747.7324 1228.8008 C 1742.9324 1234.1341 1737.3329 1236.4004 1731.5996 1236.4004 C 1721.9996 1236.4004 1717.0664 1230.2667 1717.0664 1220 C 1717.0664 1218.2667 1717.1996 1216.4 1717.5996 1214 L 1719.1992 1204.4004 C 1721.3326 1191.6004 1728.9328 1182.8008 1742.1328 1182.8008 z M 1826.5332 1182.8008 C 1836.1332 1182.8008 1841.0664 1188.9326 1841.0664 1199.1992 C 1841.0664 1200.9326 1840.9332 1202.7992 1840.5332 1205.1992 L 1838.9336 1214.8008 C 1836.8003 1227.6008 1829.0672 1236.4004 1815.8672 1236.4004 C 1805.6005 1236.4004 1798.6656 1230.934 1800.2656 1221.334 L 1802.8008 1206.1328 C 1803.8674 1199.7328 1806.9337 1194.2671 1810.4004 1190.4004 C 1815.2004 1185.0671 1820.7999 1182.8008 1826.5332 1182.8008 z M 2056 1227.0664 C 2049.2 1227.0664 2045.9992 1230.1336 2045.1992 1234.9336 C 2044.9326 1236.5336 2044.666 1238.1326 2044.666 1239.1992 C 2044.666 1242.5326 2047.0673 1245.1992 2053.334 1245.1992 C 2060.134 1245.1992 2063.3328 1242.134 2064.1328 1237.334 C 2064.3995 1235.734 2064.666 1234.1331 2064.666 1233.0664 C 2064.666 1229.7331 2062.2667 1227.0664 2056 1227.0664 z M 946.40039 1477.5996 C 941.06706 1477.5996 938.26628 1480 937.59961 1484 C 937.33294 1485.6 937.06641 1486.8005 937.06641 1487.8672 C 937.06641 1490.6672 939.06745 1493.1992 944.80078 1493.1992 C 950.13411 1493.1992 952.93294 1490.8008 953.59961 1486.8008 C 953.86628 1485.2008 954.13281 1484.0003 954.13281 1482.9336 C 954.13281 1480.1336 952.13372 1477.5996 946.40039 1477.5996 z M 327.4668 1478.666 L 320.40039 1520.5332 L 320 1520.5332 C 317.06667 1511.5999 310.00052 1506.9336 299.86719 1506.9336 C 275.60052 1506.9336 267.33398 1533.8676 267.33398 1552.2676 C 267.33398 1569.8676 274.93411 1578.9336 288.80078 1578.9336 C 300.93411 1578.9336 307.86589 1571.8664 313.19922 1561.0664 L 313.59961 1561.0664 L 310.93359 1577.334 L 321.33398 1577.334 L 337.86719 1478.666 L 327.4668 1478.666 z M 835.19922 1478.666 L 833.73242 1487.5996 L 858 1487.5996 L 843.06641 1565.1992 C 842.79974 1566.3992 842.66602 1568.2668 842.66602 1569.4668 C 842.66602 1574.9335 845.46602 1578.9336 852.66602 1578.9336 C 857.99935 1578.9336 862.79909 1576.6669 875.73242 1564.9336 L 889.59961 1552.4004 L 883.59961 1546.5332 L 856.26758 1569.7324 L 852.93359 1568.666 L 870.26758 1478.666 L 835.19922 1478.666 z M 1003.8672 1478.666 L 987.33398 1577.334 L 997.73242 1577.334 L 1004.1328 1539.334 C 1005.0661 1533.6007 1007.8658 1528.5324 1011.7324 1523.7324 C 1015.4658 1519.1991 1020.0008 1515.8672 1026.8008 1515.8672 C 1034.0008 1515.8672 1038 1519.6005 1038 1525.8672 C 1038 1534.0005 1031.2003 1541.5997 1008.9336 1547.0664 L 1019.7324 1570.5332 C 1022.5324 1576.6665 1025.4667 1578.9336 1030 1578.9336 C 1035.0667 1578.9336 1039.0667 1575.9997 1046 1569.0664 L 1055.4668 1559.5996 L 1049.7324 1553.5996 L 1032 1569.8672 L 1030.2676 1569.5996 L 1020.8008 1548.9336 C 1044.1341 1543.2003 1048.666 1532.1339 1048.666 1523.8672 C 1048.666 1513.6005 1041.5993 1506.9336 1030.666 1506.9336 C 1019.1993 1506.9336 1011.9997 1514.2674 1007.0664 1524.8008 L 1006.5332 1524.8008 L 1014.2676 1478.666 L 1003.8672 1478.666 z M 121.06641 1484.2676 L 119.59961 1493.0664 L 142.93359 1493.0664 L 130.26758 1568.5332 L 106.93359 1568.5332 L 105.4668 1577.334 L 163.06641 1577.334 L 164.5332 1568.5332 L 141.19922 1568.5332 L 153.86719 1493.0664 L 177.19922 1493.0664 L 178.66602 1484.2676 L 121.06641 1484.2676 z M 696.26758 1484.2676 L 693.19922 1502.2676 C 692.39922 1506.9342 690.26576 1508.5332 685.73242 1508.5332 L 671.73242 1508.5332 L 670.26758 1517.4668 L 690.13281 1517.4668 L 682.13281 1563.8672 C 681.86615 1565.3339 681.73242 1567.8664 681.73242 1569.0664 C 681.73242 1575.4664 685.33294 1578.9336 691.59961 1578.9336 C 697.06628 1578.9336 702.40078 1576.134 714.80078 1567.334 L 729.86719 1556.666 L 724.66602 1550 L 694.66602 1570 L 692 1568.4004 L 700.5332 1517.4668 L 728.93359 1517.4668 L 730.40039 1508.5332 L 702 1508.5332 L 706.13281 1484.2676 L 696.26758 1484.2676 z M 1495.8672 1484.2676 L 1492.8008 1502.2676 C 1492.0008 1506.9342 1489.8673 1508.5332 1485.334 1508.5332 L 1471.334 1508.5332 L 1469.8672 1517.4668 L 1489.7324 1517.4668 L 1481.7324 1563.8672 C 1481.4658 1565.3339 1481.334 1567.8664 1481.334 1569.0664 C 1481.334 1575.4664 1484.9326 1578.9336 1491.1992 1578.9336 C 1496.6659 1578.9336 1502.0004 1576.134 1514.4004 1567.334 L 1529.4668 1556.666 L 1524.2676 1550 L 1494.2676 1570 L 1491.5996 1568.4004 L 1500.1328 1517.4668 L 1528.5332 1517.4668 L 1530 1508.5332 L 1501.5996 1508.5332 L 1505.7324 1484.2676 L 1495.8672 1484.2676 z M 384.40039 1506.9336 C 364.26706 1506.9336 348.40039 1523.6005 348.40039 1549.8672 C 348.40039 1567.0672 357.59922 1578.9336 375.19922 1578.9336 C 395.46588 1578.9336 411.33398 1562.2667 411.33398 1536 C 411.33398 1518.8 402.26706 1506.9336 384.40039 1506.9336 z M 550.26758 1506.9336 C 539.20091 1506.9336 532.40065 1513.8674 527.33398 1524.8008 L 526.80078 1524.8008 L 529.4668 1508.5332 L 519.06641 1508.5332 L 507.59961 1577.334 L 518 1577.334 L 524.40039 1539.334 C 525.73372 1531.4673 530.80091 1525.3329 532.26758 1523.5996 C 536.13424 1519.0663 540.80078 1516.1328 546.80078 1516.1328 C 554.53411 1516.1328 558.26758 1521.2007 558.26758 1529.334 C 558.26758 1530.8007 558.13294 1533.466 557.59961 1536.666 L 550.80078 1577.334 L 561.19922 1577.334 L 568.13281 1535.7324 C 568.66615 1532.6658 568.93359 1529.4674 568.93359 1526.8008 C 568.93359 1514.2674 561.73424 1506.9336 550.26758 1506.9336 z M 624.26758 1506.9336 C 604.13425 1506.9336 588.26758 1523.6005 588.26758 1549.8672 C 588.26758 1567.0672 597.46641 1578.9336 615.06641 1578.9336 C 635.33307 1578.9336 651.19922 1562.2667 651.19922 1536 C 651.19922 1518.8 642.13424 1506.9336 624.26758 1506.9336 z M 1107.0664 1506.9336 C 1084.9331 1506.9336 1069.1992 1524.5335 1069.1992 1549.4668 C 1069.1992 1569.2001 1079.0671 1578.9336 1096.4004 1578.9336 C 1110.9337 1578.9336 1120.2667 1572.0007 1128 1559.334 L 1120.666 1554.8008 C 1112.9327 1565.7341 1107.2007 1570 1097.334 1570 C 1082.934 1570 1080.1328 1561.0668 1080.1328 1551.4668 C 1080.1328 1551.2001 1080.1342 1549.7337 1080.2676 1548.4004 C 1124.1342 1547.2004 1130.4004 1535.2001 1130.4004 1525.4668 C 1130.4004 1513.4668 1120.5331 1506.9336 1107.0664 1506.9336 z M 1270.4004 1506.9336 C 1258.2671 1506.9336 1251.3333 1514.0008 1246 1524.8008 L 1245.5996 1524.8008 L 1248.2676 1508.5332 L 1237.8672 1508.5332 L 1221.8672 1604 L 1232.2676 1604 L 1238.8008 1565.334 L 1239.1992 1565.334 C 1242.1326 1574.2673 1249.2007 1578.9336 1259.334 1578.9336 C 1283.6007 1578.9336 1291.8672 1551.9996 1291.8672 1533.5996 C 1291.8672 1515.9996 1284.2671 1506.9336 1270.4004 1506.9336 z M 1343.8672 1506.9336 C 1323.7339 1506.9336 1307.8672 1523.6005 1307.8672 1549.8672 C 1307.8672 1567.0672 1317.066 1578.9336 1334.666 1578.9336 C 1354.9327 1578.9336 1370.8008 1562.2667 1370.8008 1536 C 1370.8008 1518.8 1361.7339 1506.9336 1343.8672 1506.9336 z M 1426.9336 1506.9336 C 1404.8003 1506.9336 1389.0664 1524.5335 1389.0664 1549.4668 C 1389.0664 1569.2001 1398.9342 1578.9336 1416.2676 1578.9336 C 1430.8009 1578.9336 1440.1339 1572.0007 1447.8672 1559.334 L 1440.5332 1554.8008 C 1432.7999 1565.7341 1427.0659 1570 1417.1992 1570 C 1402.7992 1570 1400 1561.0668 1400 1551.4668 C 1400 1551.2001 1399.9995 1549.7337 1400.1328 1548.4004 C 1443.9995 1547.2004 1450.2676 1535.2001 1450.2676 1525.4668 C 1450.2676 1513.4668 1440.4003 1506.9336 1426.9336 1506.9336 z M 911.86719 1508.5332 L 910.40039 1517.4668 L 935.19922 1517.4668 L 926.13281 1564.4004 C 925.86615 1566.0004 925.4668 1567.9991 925.4668 1569.7324 C 925.4668 1575.0658 929.06576 1578.9336 935.73242 1578.9336 C 941.73242 1578.9336 946.66589 1575.7328 959.19922 1564.1328 L 971.33398 1552.9336 L 965.06641 1547.0664 L 938.80078 1569.7324 L 935.73242 1568.5332 L 947.33398 1508.5332 L 911.86719 1508.5332 z M 1555.1992 1508.5332 L 1553.7324 1517.4668 L 1573.0664 1517.4668 L 1563.0664 1577.334 L 1573.4668 1577.334 L 1579.4668 1541.4668 C 1580.8001 1533.4668 1585.6007 1527.8672 1587.334 1525.8672 C 1591.4673 1521.0672 1596.4004 1518.9336 1604.4004 1518.9336 L 1616.1328 1518.9336 L 1617.8672 1508.5332 L 1607.4668 1508.5332 C 1594.2668 1508.5332 1587.3332 1516.0003 1582.5332 1526.9336 L 1581.8672 1526.9336 L 1584.9336 1508.5332 L 1555.1992 1508.5332 z M 1638.1328 1508.5332 L 1631.4668 1548.5332 C 1630.9335 1552.1332 1630.666 1554.6664 1630.666 1557.0664 C 1630.666 1569.5997 1638.0001 1576.9336 1649.4668 1576.9336 C 1660.5335 1576.9336 1667.4665 1569.9997 1672.5332 1559.0664 L 1672.9336 1559.0664 L 1670.2676 1575.334 C 1667.8676 1590.2673 1660.3991 1596.4004 1647.7324 1596.4004 C 1639.3324 1596.4004 1633.7328 1593.7326 1630.1328 1589.1992 L 1622.9336 1596.1328 C 1627.8669 1602.2661 1635.9997 1605.5996 1647.0664 1605.5996 C 1664.2664 1605.5996 1676.8009 1597.6007 1680.2676 1577.334 L 1691.7324 1508.5332 L 1681.334 1508.5332 L 1675.334 1544.5332 C 1674.0007 1552.3999 1668.9335 1558.5342 1667.4668 1560.2676 C 1663.6001 1564.8009 1658.9336 1567.7324 1652.9336 1567.7324 C 1645.2003 1567.7324 1641.334 1562.6665 1641.334 1554.5332 C 1641.334 1553.0665 1641.4667 1550.6663 1642 1547.5996 L 1648.5332 1508.5332 L 1638.1328 1508.5332 z M 1106.1328 1515.5996 C 1116.1328 1515.5996 1119.7324 1520.2672 1119.7324 1525.8672 C 1119.7324 1532.5339 1114.6664 1540.1326 1081.0664 1541.1992 L 1081.1992 1539.8672 C 1083.1992 1524.2672 1092.2661 1515.5996 1106.1328 1515.5996 z M 1426 1515.5996 C 1436 1515.5996 1439.5996 1520.2672 1439.5996 1525.8672 C 1439.5996 1532.5339 1434.5336 1540.1326 1400.9336 1541.1992 L 1401.0664 1539.8672 C 1403.0664 1524.2672 1412.1333 1515.5996 1426 1515.5996 z M 384 1516 C 394.26667 1516 400.80078 1521.3336 400.80078 1532.9336 C 400.80078 1534.5336 400.66615 1536.5324 400.13281 1539.7324 L 398.80078 1547.7324 C 396.53411 1561.3324 388.66575 1569.8672 375.73242 1569.8672 C 365.46576 1569.8672 358.93359 1564.5336 358.93359 1552.9336 C 358.93359 1551.3336 359.06628 1549.3328 359.59961 1546.1328 L 360.93359 1538.1328 C 363.20026 1524.5328 371.06667 1516 384 1516 z M 623.86719 1516 C 634.13385 1516 640.66602 1521.3336 640.66602 1532.9336 C 640.66602 1534.5336 640.53333 1536.5324 640 1539.7324 L 638.66602 1547.7324 C 636.39935 1561.3324 628.53294 1569.8672 615.59961 1569.8672 C 605.33294 1569.8672 598.80078 1564.5336 598.80078 1552.9336 C 598.80078 1551.3336 598.93346 1549.3328 599.4668 1546.1328 L 600.80078 1538.1328 C 603.06745 1524.5328 610.93385 1516 623.86719 1516 z M 1343.4668 1516 C 1353.7335 1516 1360.2676 1521.3336 1360.2676 1532.9336 C 1360.2676 1534.5336 1360.1329 1536.5324 1359.5996 1539.7324 L 1358.2676 1547.7324 C 1356.0009 1561.3324 1348.1326 1569.8672 1335.1992 1569.8672 C 1324.9326 1569.8672 1318.4004 1564.5336 1318.4004 1552.9336 C 1318.4004 1551.3336 1318.5331 1549.3328 1319.0664 1546.1328 L 1320.4004 1538.1328 C 1322.6671 1524.5328 1330.5335 1516 1343.4668 1516 z M 302.93359 1516.1328 C 313.20026 1516.1328 320.26602 1521.5992 318.66602 1531.1992 L 316.13281 1546.4004 C 315.06615 1552.8004 311.99987 1558.2661 308.5332 1562.1328 C 303.7332 1567.4661 298.13372 1569.7324 292.40039 1569.7324 C 282.80039 1569.7324 277.86719 1563.6007 277.86719 1553.334 C 277.86719 1551.6007 278.00039 1549.734 278.40039 1547.334 L 280 1537.7324 C 282.13333 1524.9324 289.73359 1516.1328 302.93359 1516.1328 z M 1266.8008 1516.1328 C 1276.4008 1516.1328 1281.334 1522.2665 1281.334 1532.5332 C 1281.334 1534.2665 1281.2008 1536.1332 1280.8008 1538.5332 L 1279.1992 1548.1328 C 1277.0659 1560.9328 1269.4676 1569.7324 1256.2676 1569.7324 C 1246.0009 1569.7324 1238.9332 1564.266 1240.5332 1554.666 L 1243.0664 1539.4668 C 1244.1331 1533.0668 1247.1993 1527.5991 1250.666 1523.7324 C 1255.466 1518.3991 1261.0674 1516.1328 1266.8008 1516.1328 z M 1735.8672 1560.4004 C 1729.0672 1560.4004 1725.8664 1563.4676 1725.0664 1568.2676 C 1724.7997 1569.8676 1724.5332 1571.4665 1724.5332 1572.5332 C 1724.5332 1575.8665 1726.9326 1578.5332 1733.1992 1578.5332 C 1739.9992 1578.5332 1743.2 1575.466 1744 1570.666 C 1744.2667 1569.066 1744.5332 1567.4671 1744.5332 1566.4004 C 1744.5332 1563.0671 1742.1339 1560.4004 1735.8672 1560.4004 z M 1325.5469 2161.75 C 1312.8335 2161.6673 1301.6253 2163.4257 1293.584 2167.3164 C 1289.5627 2169.2644 1286.2406 2171.7913 1284.2246 2175.25 C 1283.2193 2176.9833 1282.6305 2178.943 1282.4785 2180.9844 C 1282.4425 2181.495 1282.4313 2182.0113 1282.4473 2182.5312 L 1282.4531 2182.5312 C 1282.5055 2184.086 1282.8075 2185.6675 1283.375 2187.2129 C 1284.1257 2189.2702 1286.4017 2190.3275 1288.459 2189.5781 C 1290.511 2188.8275 1291.5671 2186.5515 1290.8164 2184.4941 C 1289.9684 2182.1715 1290.1715 2180.7864 1291.0781 2179.2344 C 1291.9781 2177.6877 1293.9423 2175.9531 1297.041 2174.4531 C 1303.2343 2171.4531 1313.5889 2169.5932 1325.4902 2169.6719 C 1336.2822 2169.7492 1348.639 2176.1501 1360.5977 2188.9941 C 1372.5563 2201.8381 1383.9728 2220.9644 1392.8848 2245.4844 C 1410.1354 2292.943 1377.0054 2342.2967 1332.2188 2338.3594 C 1309.1094 2336.322 1296.3236 2327.9889 1292.6836 2318.7969 C 1290.8609 2314.2022 1291.005 2309.1501 1293.5156 2303.4941 C 1296.021 2297.8381 1300.9951 2291.6827 1308.7031 2285.7188 C 1324.0578 2273.8441 1336.3233 2273.7547 1345.1406 2276.1934 C 1353.9593 2278.636 1359.0156 2283.7344 1359.0156 2283.7344 C 1360.5516 2285.2917 1363.0618 2285.303 1364.6191 2283.7656 C 1366.1711 2282.2243 1366.1872 2279.7141 1364.6445 2278.1621 C 1364.6445 2278.1621 1358.114 2271.5581 1347.25 2268.5527 C 1336.39 2265.5527 1320.8749 2266.2806 1303.8496 2279.4473 C 1295.3696 2286.0046 1289.4691 2293.0519 1286.2598 2300.2812 C 1283.0571 2307.5159 1282.6613 2315.0414 1285.3066 2321.7188 C 1290.5986 2335.0734 1306.8028 2344.0779 1331.5215 2346.2539 C 1382.3855 2350.7286 1419.318 2294.9999 1400.334 2242.7812 C 1391.1367 2217.4693 1379.3057 2197.4649 1366.4004 2183.5996 C 1353.4937 2169.7303 1339.3642 2161.8447 1325.5469 2161.75 z M 2072.1758 2221.9395 C 2066.3141 2221.9515 2060.1198 2222.8741 2053.8379 2224.6445 C 2039.5926 2228.6552 2031.3497 2237.7125 2026.5938 2246.0352 C 2023.2458 2238.5298 2016.8431 2233.6502 2009.9258 2230.7969 C 2004.3018 2228.4782 1998.4833 2229.8683 1993.9727 2232.791 C 1989.4633 2235.7177 1985.7857 2240.0422 1982.707 2244.4648 C 1976.5457 2253.3128 1972.7969 2262.8906 1972.7969 2262.8906 C 1971.9942 2264.9266 1972.99 2267.2285 1975.0273 2268.0352 C 1977.0633 2268.8378 1979.3633 2267.844 1980.166 2265.8066 C 1980.166 2265.8066 1983.7342 2256.8702 1989.2129 2248.9902 C 1991.9582 2245.0529 1995.1884 2241.454 1998.2871 2239.4434 C 2001.3858 2237.438 2003.8737 2236.8743 2006.9004 2238.125 C 2014.7751 2241.369 2020.1876 2245.9164 2021.0156 2255.9258 C 2021.109 2257.1244 2021.1305 2258.4214 2021.0625 2259.8027 C 2020.5732 2261.8174 2020.4004 2263.0742 2020.4004 2263.0742 C 2020.3871 2263.1409 2020.3862 2263.2035 2020.3809 2263.2715 C 2020.3075 2264.3128 2020.2444 2265.334 2020.207 2266.334 C 2018.2444 2276.1567 2012.8342 2289.4373 2002.0742 2307 C 1987.4745 2330.8397 1968.2899 2353.8993 1952.2832 2371.4668 L 1947.0664 2371.4668 L 1947.0664 2377.123 C 1932.3925 2392.8356 1921.4785 2402.9434 1921.4785 2402.9434 C 1920.4318 2403.902 1919.983 2405.3432 1920.291 2406.7285 L 1920.2969 2406.7285 C 1920.4529 2407.4058 1920.7806 2408.0362 1921.2539 2408.5469 C 1922.7339 2410.1562 1925.2461 2410.2594 1926.8555 2408.7754 C 1926.8555 2408.7754 1939.866 2396.8056 1956.75 2378.4004 L 2011.0664 2378.4004 L 2011.0664 2371.4668 L 1963.0117 2371.4668 C 1978.1504 2354.45 1995.3236 2333.2063 2008.8379 2311.1406 C 2014.6552 2301.646 2019.0742 2293.2644 2022.2715 2285.8164 C 2023.8702 2291.0297 2026.328 2295.1361 2029.5 2298.3027 C 2036.3067 2305.0881 2045.5627 2307.0362 2054.416 2308.0215 C 2064.8027 2309.1722 2077.2444 2303.8859 2087.9004 2295.0059 C 2098.5564 2286.1259 2107.401 2273.2697 2108.541 2258.207 C 2109.6717 2243.327 2103.1312 2232.1095 2092.6152 2226.5469 C 2086.7 2223.4149 2079.7122 2221.9239 2072.1758 2221.9395 z M 2072.1484 2229.9121 C 2078.6275 2229.907 2084.3913 2231.1647 2088.9062 2233.5527 C 2096.9316 2237.7981 2101.5847 2245.1454 2100.6367 2257.6094 C 2099.7034 2269.896 2092.2401 2281.0793 2082.8281 2288.918 C 2073.4161 2296.7606 2062.0257 2300.886 2055.291 2300.1406 C 2047.0203 2299.2246 2039.8537 2297.4262 2035.0977 2292.6875 C 2031.535 2289.1302 2028.8542 2283.6091 2028.2129 2274.3691 C 2028.1089 2272.8491 2028.0582 2271.2185 2028.0742 2269.4785 C 2028.0742 2268.8492 2028.0925 2268.177 2028.1191 2267.5156 C 2028.5778 2265.057 2028.8809 2262.7183 2028.9902 2260.5156 C 2030.7089 2253.5623 2036.651 2237.7181 2055.9844 2232.2754 C 2061.638 2230.6829 2067.1092 2229.9161 2072.1484 2229.9121 z M 1105.5273 2245.416 C 1096.0627 2245.3736 1085.9016 2246.5572 1074.8691 2247.2539 C 1065.1558 2247.8739 1057.7698 2251.4066 1052.9258 2256.6973 C 1048.0778 2261.9839 1045.8441 2268.7821 1045.4121 2275.5527 C 1044.5574 2289.0994 1050.0632 2303.1253 1059.8965 2308.8906 C 1065.0832 2311.932 1071.8739 2312.3747 1079.8379 2312.3027 C 1087.8059 2312.2294 1096.937 2311.4007 1106.2344 2310.666 C 1124.817 2309.202 1144.1721 2308.5671 1153.9121 2313.5098 C 1159.1561 2316.1711 1161.218 2318.6567 1161.8594 2320.75 C 1162.4994 2322.85 1162.0204 2325.4589 1159.9258 2329.1562 C 1155.7444 2336.5469 1145.4419 2346.5685 1134.3633 2358.5059 C 1129.209 2364.0574 1124.3742 2368.3445 1119.8789 2371.4668 L 1088.0078 2371.4668 C 1086.9688 2370.5326 1085.9218 2369.504 1084.8594 2368.3496 C 1070.4154 2352.6563 1045.9531 2315.8594 1045.9531 2315.8594 C 1044.7451 2314.0354 1042.2875 2313.5362 1040.4648 2314.7402 C 1039.2822 2315.5216 1038.6094 2316.8751 1038.6934 2318.2871 C 1038.7347 2318.9844 1038.9584 2319.6504 1039.3438 2320.2344 C 1039.3438 2320.2344 1061.4721 2353.7816 1077.0195 2371.4668 L 1067.4668 2371.4668 L 1067.4668 2378.4004 L 1083.9746 2378.4004 C 1091.3174 2384.363 1099.5213 2386.9027 1108.0273 2385.3555 C 1113.2986 2384.399 1118.5485 2382.0455 1123.9004 2378.4004 L 1131.4668 2378.4004 L 1131.4668 2372.459 C 1134.3217 2369.9385 1137.219 2367.0872 1140.1777 2363.9004 C 1151.0631 2352.1764 1161.5161 2342.4366 1166.8281 2333.0566 C 1169.4841 2328.3686 1170.9434 2323.3436 1169.4434 2318.4316 C 1167.9434 2313.5263 1163.792 2309.6308 1157.5 2306.4375 C 1144.1613 2299.6668 1124.312 2301.2923 1105.6094 2302.7656 C 1096.26 2303.5003 1087.2302 2304.307 1079.7715 2304.375 C 1072.3075 2304.443 1066.4121 2303.5221 1063.9121 2302.0527 C 1058.3548 2298.7981 1052.6396 2286.8166 1053.3223 2276.0566 C 1053.6663 2270.6713 1055.3915 2265.7407 1058.7715 2262.0527 C 1062.1462 2258.3647 1067.255 2255.6825 1075.375 2255.1719 C 1093.3803 2254.0265 1108.2923 2252.0208 1119.959 2254.8848 C 1131.631 2257.7488 1140.7286 2264.8698 1148.7539 2284.3125 C 1149.5872 2286.3392 1151.9058 2287.3035 1153.9258 2286.4648 C 1155.9524 2285.6315 1156.9115 2283.311 1156.0781 2281.291 C 1147.4688 2260.411 1135.7549 2250.6035 1121.8496 2247.1875 C 1116.6346 2245.908 1111.2061 2245.4415 1105.5273 2245.416 z M 1941.6797 2248.2148 C 1940.466 2248.1855 1939.2542 2248.2673 1938.0527 2248.4648 C 1930.7141 2249.6728 1922.1195 2250.8179 1913.5781 2256.1152 C 1905.0355 2261.4072 1896.8753 2270.7343 1889.75 2287.3223 C 1886.99 2293.7489 1885.806 2299.3696 1885.9727 2304.2402 C 1886.03 2305.8642 1886.24 2307.4059 1886.584 2308.8633 C 1887.9733 2314.7073 1891.719 2318.9728 1896.0684 2321.4941 C 1900.4217 2324.0155 1905.3379 2325.0009 1909.8633 2324.9902 C 1914.3899 2324.9702 1918.5313 2324.1203 1921.75 2321.8496 C 1923.5367 2320.5843 1923.9586 2318.1089 1922.6973 2316.3223 C 1921.4319 2314.5356 1918.9585 2314.1091 1917.1719 2315.3691 C 1916.1359 2316.1038 1913.1611 2317.0572 1909.8438 2317.0625 C 1906.5264 2317.0625 1902.869 2316.2767 1900.041 2314.6367 C 1897.213 2313.0007 1895.1715 2310.7192 1894.2969 2307.0312 C 1893.4209 2303.3499 1893.8033 2297.9691 1897.0312 2290.4531 C 1903.7246 2274.8691 1910.8019 2267.1621 1917.7539 2262.8555 C 1924.7019 2258.5421 1931.8598 2257.5218 1939.3438 2256.2871 C 1949.7704 2254.5738 1969.9483 2272.1872 1954.959 2295.7285 C 1951.3443 2301.4058 1947.1141 2304.0729 1942.4688 2305.2969 C 1937.8221 2306.5262 1932.651 2306.1661 1927.7656 2304.9941 C 1918.0056 2302.6555 1909.875 2297.2598 1909.875 2297.2598 C 1908.0577 2296.0411 1905.599 2296.5259 1904.375 2298.3379 C 1903.1563 2300.1552 1903.6398 2302.6192 1905.4531 2303.8379 C 1905.4531 2303.8379 1914.4592 2309.9591 1925.9219 2312.7031 C 1931.6512 2314.0791 1938.1141 2314.6515 1944.4941 2312.9648 C 1950.8795 2311.2768 1957.0672 2307.1729 1961.6445 2299.9902 C 1978.2908 2273.8377 1959.8855 2248.6555 1941.6797 2248.2148 z M 1827.6602 2252.7598 C 1817.0335 2252.7484 1804.4053 2254.7281 1790.1035 2256.8594 C 1768.3848 2260.0874 1756.9832 2269.918 1751.5352 2279.1406 C 1750.5405 2280.8286 1749.7404 2282.4956 1749.0938 2284.0996 C 1748.7191 2279.4849 1748.0044 2275.6877 1746.9258 2272.541 C 1745.0044 2266.9317 1741.5217 2263.1925 1737.375 2261.6191 C 1733.2297 2260.0458 1728.9996 2260.3897 1724.9316 2260.9004 C 1720.8636 2261.4111 1716.8447 2262.1713 1713.1367 2262.25 C 1702.7714 2262.4633 1694.5299 2270.0475 1688.6445 2276.9648 C 1682.7592 2283.8862 1679.1035 2290.7188 1679.1035 2290.7188 C 1678.8595 2291.1774 1678.7082 2291.6831 1678.6562 2292.2031 L 1678.6504 2292.2031 C 1678.5984 2292.7191 1678.6507 2293.2402 1678.8027 2293.7402 C 1679.1041 2294.7456 1679.7979 2295.5932 1680.7246 2296.0879 C 1682.6513 2297.1252 1685.0578 2296.4007 1686.0938 2294.4688 C 1686.0938 2294.4688 1689.4223 2288.2915 1694.6836 2282.1035 C 1699.9489 2275.9115 1707.0214 2270.3025 1713.3027 2270.1719 C 1717.9174 2270.0732 1722.2192 2269.2296 1725.9219 2268.7656 C 1729.6205 2268.303 1732.6038 2268.2873 1734.5625 2269.0312 C 1736.5212 2269.7712 1738.0258 2271.0219 1739.4258 2275.1152 C 1740.8324 2279.2139 1741.7082 2286.0466 1741.4375 2296.3906 C 1740.9175 2316.364 1730.672 2342.4319 1720.416 2363.1719 C 1718.989 2366.0587 1717.5742 2368.8112 1716.1797 2371.4668 L 1707.0664 2371.4668 L 1707.0664 2378.4004 L 1712.4531 2378.4004 C 1705.5078 2391.0264 1700.0527 2399.4004 1700.0527 2399.4004 C 1698.8554 2401.2337 1699.3684 2403.6874 1701.207 2404.8848 C 1703.035 2406.0821 1705.4942 2405.5677 1706.6875 2403.7344 C 1706.6875 2403.7344 1713.3962 2393.415 1721.459 2378.4004 L 1771.0664 2378.4004 L 1771.0664 2371.4668 L 1725.0898 2371.4668 C 1725.8992 2369.8869 1726.7058 2368.337 1727.5215 2366.6875 C 1736.3442 2348.8488 1745.35 2327.2819 1748.334 2307.5312 C 1750.3233 2314.4646 1753.6503 2319.9649 1758.4316 2324.1836 C 1765.3596 2330.3076 1774.7966 2333.6089 1786.7539 2336.2129 C 1799.5872 2338.9996 1815.4381 2336.6449 1829.1621 2328.7969 C 1842.8914 2320.9422 1854.438 2307.2859 1857.5273 2287.8633 C 1859.0473 2278.2913 1858.5408 2270.8449 1855.6035 2265.0742 C 1852.6608 2259.3036 1847.2409 2255.7876 1840.8809 2254.1836 C 1836.9079 2253.1823 1832.4905 2252.7649 1827.6602 2252.7598 z M 224.26758 2257.1992 C 215.46758 2257.1992 212.40039 2261.1999 212.40039 2266.5332 L 212.40039 2270.4004 C 212.40039 2275.6004 215.46758 2279.7324 224.26758 2279.7324 C 233.06758 2279.7324 236.13281 2275.6004 236.13281 2270.4004 L 236.13281 2266.5332 C 236.13281 2261.1999 233.06758 2257.1992 224.26758 2257.1992 z M 1827.7305 2260.8125 C 1832.107 2260.7876 1835.8817 2261.1038 1838.9434 2261.875 C 1843.8447 2263.1097 1846.7125 2265.0927 1848.5352 2268.666 C 1850.3538 2272.2393 1851.068 2277.9725 1849.6934 2286.6191 C 1846.9947 2303.6191 1837.2193 2315.0521 1825.2246 2321.9121 C 1813.2299 2328.7708 1798.9735 2330.7555 1788.4375 2328.4648 C 1777.0268 2325.9848 1768.9537 2322.9021 1763.6777 2318.2461 C 1758.4217 2313.6048 1755.4113 2307.2655 1754.3633 2296.6309 C 1754.3633 2296.5002 1754.1034 2290.374 1758.3594 2283.166 C 1762.6607 2275.8847 1771.4075 2267.6559 1791.2715 2264.6973 C 1805.5587 2262.5706 1818.102 2260.8673 1827.7305 2260.8125 z M 1480.4434 2262.3555 C 1471.1241 2262.3847 1460.8636 2263.9713 1450.7656 2267.1191 C 1443.4843 2269.3898 1439.0684 2271.2861 1436.0684 2273.8848 C 1434.5684 2275.1874 1433.4073 2276.8122 1432.918 2278.6309 C 1432.6726 2279.5362 1432.6037 2280.4378 1432.6504 2281.2871 C 1432.6971 2282.1404 1432.8609 2282.9479 1433.0742 2283.6719 C 1434.7876 2289.4479 1438.3492 2292.495 1437.5879 2298.0684 C 1437.2919 2300.2404 1438.8124 2302.2353 1440.9844 2302.5312 C 1443.151 2302.8286 1445.146 2301.3073 1445.4434 2299.1406 C 1446.694 2290.0006 1441.3231 2283.6093 1440.6777 2281.416 C 1440.5111 2280.8693 1440.5524 2280.7493 1440.5684 2280.6973 C 1440.5884 2280.6506 1440.6091 2280.4382 1441.2598 2279.8809 C 1442.5518 2278.7609 1446.2597 2276.8275 1453.125 2274.6875 C 1466.7237 2270.4528 1480.8171 2269.3551 1491.1504 2271.0938 C 1496.3117 2271.9644 1500.5 2273.5515 1503.1934 2275.4941 C 1505.88 2277.4368 1507.1044 2279.4326 1507.2871 2282.1152 C 1508.3444 2297.9592 1510.0742 2309.3633 1510.0742 2309.3633 C 1510.4022 2311.5299 1512.4212 2313.0155 1514.5879 2312.6875 C 1516.7492 2312.3595 1518.2401 2310.3385 1517.9121 2308.1719 C 1517.9121 2308.1719 1516.2294 2297.1093 1515.1934 2281.584 C 1514.8494 2276.4213 1511.9375 2272.027 1507.8281 2269.0684 C 1503.7241 2266.1044 1498.4595 2264.2866 1492.4648 2263.2812 C 1488.7211 2262.6513 1484.6794 2262.3422 1480.4434 2262.3555 z M 141.33398 2262.666 C 120.26732 2262.666 107.86719 2273.0669 107.86719 2290.9336 C 107.86719 2304.5336 114.93294 2314.7996 131.59961 2317.5996 L 141.33398 2319.1992 C 150.40065 2320.6659 153.86719 2323.7342 153.86719 2330.2676 C 153.86719 2338.2676 148.66589 2342.666 139.19922 2342.666 C 130.93255 2342.666 122.53242 2339.1991 115.73242 2331.7324 L 104.13281 2344.5332 C 111.19948 2353.3332 123.06653 2358.9336 138.5332 2358.9336 C 161.86654 2358.9336 174.13281 2346.1327 174.13281 2328.666 C 174.13281 2313.9993 165.46654 2305.1999 150.5332 2302.5332 L 140.80078 2300.8008 C 131.73411 2299.2008 128 2296.4 128 2290 C 128 2282.6667 132.53346 2278.9336 141.4668 2278.9336 C 149.8668 2278.9336 156.79909 2282.2658 161.73242 2287.7324 L 173.06641 2275.0664 C 166.53307 2267.4664 155.60065 2262.666 141.33398 2262.666 z M 1218.7754 2262.8789 C 1211.0489 2262.9889 1203.6257 2264.1428 1197.459 2266.5781 C 1192.4123 2268.3435 1189.1969 2272.9259 1187.7969 2278.3379 C 1187.0875 2281.0566 1186.7133 2284.0689 1186.584 2287.3809 C 1186.5467 2288.2089 1186.5313 2289.0579 1186.5273 2289.9219 C 1186.506 2292.5219 1186.6255 2295.2928 1186.8281 2298.2461 C 1187.4015 2306.7248 1190.557 2315.8172 1196.4316 2322.9785 C 1202.3063 2330.1398 1211.2072 2335.2704 1222.2539 2334.8438 C 1233.6446 2334.4064 1244.7762 2327.3953 1253.5215 2318.4473 C 1262.2602 2309.4993 1268.7662 2298.5466 1269.5742 2288.2812 C 1270.0582 2282.1666 1266.2592 2276.9941 1261.1445 2273.3848 C 1256.0352 2269.7754 1249.3121 2267.1966 1241.9121 2265.4473 C 1234.5314 2263.7026 1226.5019 2262.7689 1218.7754 2262.8789 z M 525.86719 2264.2676 L 525.86719 2280.4004 C 525.86719 2286.5337 523.59909 2288.5332 517.73242 2288.5332 L 505.59961 2288.5332 L 505.59961 2303.8672 L 524.26758 2303.8672 L 524.26758 2337.4668 C 524.26758 2349.0668 531.06732 2357.334 545.33398 2357.334 L 570.80078 2357.334 L 570.80078 2342 L 544 2342 L 544 2303.8672 L 570.80078 2303.8672 L 570.80078 2288.5332 L 544 2288.5332 L 544 2264.2676 L 525.86719 2264.2676 z M 1221.4531 2270.9238 C 1227.715 2271.0131 1234.2114 2271.772 1240.0879 2273.1621 C 1246.8026 2274.7501 1252.7395 2277.15 1256.5781 2279.8594 C 1260.4155 2282.5727 1261.8745 2285.0634 1261.6719 2287.6621 C 1261.1039 2294.8288 1255.6309 2304.9481 1247.8496 2312.9121 C 1240.0683 2320.8694 1230.1246 2326.6084 1221.9473 2326.9258 C 1213.4259 2327.2538 1207.1972 2323.5985 1202.5625 2317.9531 C 1197.9265 2312.3025 1195.2024 2304.5631 1194.7344 2297.7031 C 1194.6037 2295.8391 1194.5276 2294.0626 1194.4902 2292.3906 C 1194.4542 2290.7186 1194.47 2289.1507 1194.5273 2287.6934 C 1194.646 2284.7707 1194.9581 2282.2975 1195.4688 2280.3281 C 1196.4887 2276.3908 1197.7983 2274.8277 1200.0996 2274.041 C 1200.1623 2274.021 1200.2186 2273.994 1200.2812 2273.9727 C 1205.739 2271.7992 1213.4021 2270.8091 1221.4531 2270.9238 z M 321.86719 2275.334 C 315.33385 2275.334 311.33398 2279.3327 311.33398 2284.666 L 311.33398 2288.4004 C 307.73398 2287.4671 303.59922 2286.9336 299.19922 2286.9336 C 281.19922 2286.9336 269.33398 2295.4668 269.33398 2311.4668 C 269.33398 2321.6001 274.13424 2328.7993 282.26758 2332.666 L 282.26758 2333.4668 C 274.80091 2335.2001 269.86719 2337.9993 269.86719 2344.666 C 269.86719 2350.666 273.60013 2353.7335 279.4668 2355.4668 L 279.4668 2356.2676 C 271.20013 2358.4009 266.26758 2361.9991 266.26758 2369.7324 C 266.26758 2379.0658 273.46628 2385.5996 299.59961 2385.5996 C 325.73294 2385.5996 337.73242 2378.8009 337.73242 2364.2676 C 337.73242 2352.6676 330.13372 2344.4004 310.40039 2344.4004 L 294.66602 2344.4004 C 289.19935 2344.4004 284.5332 2344.1324 284.5332 2339.7324 C 284.5332 2337.3324 286 2335.7327 288 2334.666 C 291.33333 2335.5993 295.19922 2336 299.19922 2336 C 317.33255 2336 329.33398 2327.3335 329.33398 2311.4668 C 329.33398 2301.7335 324.93346 2294.8003 317.4668 2290.9336 L 317.4668 2289.7324 L 334 2289.7324 L 334 2275.334 L 321.86719 2275.334 z M 389.4668 2286.9336 C 378.40013 2286.9336 372.26589 2293.3331 369.19922 2301.0664 L 368.40039 2301.0664 L 368.40039 2288.5332 L 348.66602 2288.5332 L 348.66602 2357.334 L 368.40039 2357.334 L 368.40039 2312.1328 C 368.40039 2305.4661 374.39987 2302.1328 380.5332 2302.1328 C 388.26654 2302.1328 392.13281 2306.8001 392.13281 2315.4668 L 392.13281 2357.334 L 411.86719 2357.334 L 411.86719 2312.8008 C 411.86719 2296.1341 402.6668 2286.9336 389.4668 2286.9336 z M 458.66602 2286.9336 C 443.33268 2286.9336 433.33411 2292.6671 428.80078 2300.4004 L 439.59961 2310 C 443.33294 2304.9333 448.13372 2301.334 456.40039 2301.334 C 465.46706 2301.334 468.93359 2305.5991 468.93359 2313.7324 L 468.93359 2317.1992 L 457.86719 2317.1992 C 437.73385 2317.1992 426.93359 2324.0004 426.93359 2338.4004 C 426.93359 2351.3337 435.73307 2358.9336 449.06641 2358.9336 C 459.59974 2358.9336 467.6 2354.1326 470 2345.1992 L 470.66602 2345.1992 C 471.46602 2352.9326 476.80026 2357.334 484.93359 2357.334 L 496.26758 2357.334 L 496.26758 2343.0664 L 488.66602 2343.0664 L 488.66602 2312.9336 C 488.66602 2295.6003 477.46602 2286.9336 458.66602 2286.9336 z M 779.73242 2286.9336 C 759.06576 2286.9336 746.26758 2300.6659 746.26758 2323.1992 C 746.26758 2345.1992 758.40013 2358.9336 781.4668 2358.9336 C 796.2668 2358.9336 805.60026 2353.3341 810.93359 2346.8008 L 800.26758 2335.1992 C 796.00091 2340.2659 790.26615 2343.7324 782.13281 2343.7324 C 771.59948 2343.7324 765.86719 2337.7336 765.86719 2328.9336 L 765.86719 2327.7324 L 812.93359 2327.7324 L 812.93359 2321.8672 C 812.93359 2300.4005 800.26575 2286.9336 779.73242 2286.9336 z M 859.59961 2286.9336 C 849.59961 2286.9336 845.59961 2292 845.59961 2298 L 845.59961 2302.666 C 845.59961 2308.666 849.59961 2313.7324 859.59961 2313.7324 C 869.59961 2313.7324 873.59961 2308.666 873.59961 2302.666 L 873.59961 2298 C 873.59961 2292 869.59961 2286.9336 859.59961 2286.9336 z M 192.5332 2288.5332 L 192.5332 2303.8672 L 214.40039 2303.8672 L 214.40039 2342 L 192.5332 2342 L 192.5332 2357.334 L 254.40039 2357.334 L 254.40039 2342 L 234.13281 2342 L 234.13281 2288.5332 L 192.5332 2288.5332 z M 588.13281 2288.5332 L 588.13281 2333.0664 C 588.13281 2349.7331 597.3332 2358.9336 610.5332 2358.9336 C 621.59987 2358.9336 627.73411 2352.5341 630.80078 2344.8008 L 631.59961 2344.8008 L 631.59961 2357.334 L 651.33398 2357.334 L 651.33398 2288.5332 L 631.59961 2288.5332 L 631.59961 2333.7324 C 631.59961 2340.3991 625.60013 2343.7324 619.4668 2343.7324 C 611.73346 2343.7324 607.86719 2339.0671 607.86719 2330.4004 L 607.86719 2288.5332 L 588.13281 2288.5332 z M 669.4668 2288.5332 L 669.4668 2303.8672 L 685.33398 2303.8672 L 685.33398 2342 L 669.4668 2342 L 669.4668 2357.334 L 727.73242 2357.334 L 727.73242 2342 L 705.06641 2342 L 705.06641 2321.5996 C 705.06641 2313.3329 710.13385 2306.666 719.86719 2306.666 L 734.5332 2306.666 L 734.5332 2288.5332 L 728 2288.5332 C 714.4 2288.5332 708.53333 2297.8667 706 2308 L 705.06641 2308 L 705.06641 2288.5332 L 669.4668 2288.5332 z M 1479.9805 2293.3594 C 1474.7532 2293.2301 1468.7367 2294.5644 1461.8809 2297.4844 C 1442.1729 2305.8857 1431.374 2324.7501 1431.8594 2341.2461 C 1431.926 2343.5994 1432.2296 2345.9069 1432.7656 2348.1309 C 1435.1723 2358.0989 1445.203 2363.7503 1456.0684 2366.6836 C 1466.9324 2369.6209 1479.2498 2369.9736 1488.9258 2367.6562 C 1499.6084 2365.0989 1508.2134 2355.5214 1514.6934 2346.9121 C 1521.1774 2338.2974 1525.3633 2330.2461 1525.3633 2330.2461 C 1526.3739 2328.3034 1525.6209 2325.9111 1523.6836 2324.9004 C 1521.7409 2323.8844 1519.3447 2324.64 1518.334 2326.584 C 1518.334 2326.584 1514.4006 2334.1139 1508.3633 2342.1445 C 1502.3219 2350.1712 1493.9995 2358.2859 1487.0781 2359.9473 C 1479.1448 2361.8433 1467.6367 2361.5992 1458.1367 2359.0312 C 1448.6367 2356.4646 1441.7807 2351.7035 1440.4688 2346.2715 C 1437.3221 2333.2355 1445.959 2312.8847 1464.9844 2304.7754 C 1474.7924 2300.5981 1481.1658 2300.6143 1485.4258 2302.4316 C 1489.6818 2304.2543 1492.573 2308.1714 1494.625 2313.8594 C 1498.489 2324.578 1493.2715 2335.9004 1493.2715 2335.9004 C 1492.3235 2337.8684 1493.1498 2340.2342 1495.1191 2341.1875 C 1497.0925 2342.1395 1499.4641 2341.3112 1500.4121 2339.3379 C 1500.4121 2339.3379 1507.2755 2325.5839 1502.0781 2311.1719 C 1499.5981 2304.2865 1495.4162 2298.0872 1488.5469 2295.1445 C 1485.9689 2294.041 1483.1168 2293.4369 1479.9805 2293.3594 z M 299.19922 2299.4668 C 307.06589 2299.4668 310.66602 2303.8672 310.66602 2309.8672 L 310.66602 2313.0664 C 310.66602 2319.0664 307.06589 2323.4668 299.19922 2323.4668 C 291.46589 2323.4668 288 2319.0664 288 2313.0664 L 288 2309.8672 C 288 2303.8672 291.46589 2299.4668 299.19922 2299.4668 z M 779.86719 2301.0664 C 788.40052 2301.0664 793.59961 2306.6663 793.59961 2315.5996 L 793.59961 2316.666 L 765.86719 2316.666 L 765.86719 2315.5996 C 765.86719 2306.7996 771.33385 2301.0664 779.86719 2301.0664 z M 458.40039 2327.8672 L 468.93359 2327.8672 L 468.93359 2336.1328 C 468.93359 2342.5328 463.46654 2346 456.5332 2346 C 450.26654 2346 446.26758 2343.466 446.26758 2338.666 L 446.26758 2336 C 446.26758 2330.6667 450.53372 2327.8672 458.40039 2327.8672 z M 859.59961 2332.1328 C 849.59961 2332.1328 845.59961 2337.1992 845.59961 2343.1992 L 845.59961 2347.8672 C 845.59961 2353.8672 849.59961 2358.9336 859.59961 2358.9336 C 869.59961 2358.9336 873.59961 2353.8672 873.59961 2347.8672 L 873.59961 2343.1992 C 873.59961 2337.1992 869.59961 2332.1328 859.59961 2332.1328 z M 285.19922 2360 L 308.80078 2360 C 316.80078 2360 319.06641 2362.1324 319.06641 2365.7324 C 319.06641 2370.3991 315.06615 2372.9336 306.13281 2372.9336 L 294.5332 2372.9336 C 285.86654 2372.9336 282.5332 2369.8663 282.5332 2365.5996 C 282.5332 2363.3329 283.46589 2361.4667 285.19922 2360 z M 987.4668 2371.4668 L 987.4668 2378.4004 L 1051.4668 2378.4004 L 1051.4668 2371.4668 L 987.4668 2371.4668 z M 1147.4668 2371.4668 L 1147.4668 2378.4004 L 1211.4668 2378.4004 L 1211.4668 2371.4668 L 1147.4668 2371.4668 z M 1227.4668 2371.4668 L 1227.4668 2378.4004 L 1291.4668 2378.4004 L 1291.4668 2371.4668 L 1227.4668 2371.4668 z M 1307.4668 2371.4668 L 1307.4668 2378.4004 L 1371.4668 2378.4004 L 1371.4668 2371.4668 L 1307.4668 2371.4668 z M 1387.4668 2371.4668 L 1387.4668 2378.4004 L 1451.4668 2378.4004 L 1451.4668 2371.4668 L 1387.4668 2371.4668 z M 1467.0664 2371.4668 L 1467.0664 2378.4004 L 1531.0664 2378.4004 L 1531.0664 2371.4668 L 1467.0664 2371.4668 z M 1547.0664 2371.4668 L 1547.0664 2378.4004 L 1611.0664 2378.4004 L 1611.0664 2371.4668 L 1547.0664 2371.4668 z M 1627.0664 2371.4668 L 1627.0664 2378.4004 L 1691.0664 2378.4004 L 1691.0664 2371.4668 L 1627.0664 2371.4668 z M 1787.0664 2371.4668 L 1787.0664 2378.4004 L 1851.0664 2378.4004 L 1851.0664 2371.4668 L 1787.0664 2371.4668 z M 1867.0664 2371.4668 L 1867.0664 2378.4004 L 1931.0664 2378.4004 L 1931.0664 2371.4668 L 1867.0664 2371.4668 z M 2027.0664 2371.4668 L 2027.0664 2378.4004 L 2091.0664 2378.4004 L 2091.0664 2371.4668 L 2027.0664 2371.4668 z M 2106.666 2371.4668 L 2106.666 2378.4004 L 2170.666 2378.4004 L 2170.666 2371.4668 L 2106.666 2371.4668 z "
       transform="matrix(0.75000002,0,0,0.75000002,0,-3.4368424e-5)" /></g></svg>
