<?xml version="1.0" encoding="UTF-8" standalone="no"?>
<svg
   xmlns:svg="http://www.w3.org/2000/svg"
   xmlns="http://www.w3.org/2000/svg"
   xmlns:sodipodi="http://sodipodi.sourceforge.net/DTD/sodipodi-0.dtd"
   xmlns:inkscape="http://www.inkscape.org/namespaces/inkscape"
   inkscape:version="1.1-dev (1:0.92.0+devel+202005110039+9ce7266)"
   sodipodi:docname="11.svg"
   viewBox="0 0 2527.5789 2526.3159"
   height="2526.3159"
   width="2527.5789"
   xml:space="preserve"
   id="svg2"
   version="1.1"><defs
     id="defs6"><rect
       id="rect865"
       height="1910.1671"
       width="1798.1722"
       y="-3.4368422e-05"
       x="0" /><rect
       x="0"
       y="-3.4368422e-05"
       width="1798.1722"
       height="1910.1671"
       id="rect913" /></defs><sodipodi:namedview
     inkscape:current-layer="g8"
     inkscape:window-maximized="0"
     inkscape:window-y="359"
     inkscape:window-x="287"
     inkscape:cy="951.65148"
     inkscape:cx="493.70912"
     inkscape:zoom="0.15893289"
     showgrid="false"
     id="namedview4"
     inkscape:window-height="859"
     inkscape:window-width="1240"
     inkscape:pageshadow="2"
     inkscape:pageopacity="0"
     guidetolerance="10"
     gridtolerance="10"
     objecttolerance="10"
     borderopacity="1"
     bordercolor="#666666"
     pagecolor="#ffffff" /><g
     transform="matrix(1.3333333,0,0,1.3333333,0,4.5824564e-5)"
     inkscape:label="01"
     inkscape:groupmode="layer"
     id="g8"><g
       style="font-style:normal;font-variant:normal;font-weight:600;font-stretch:normal;font-size:100px;font-family:'IBM Plex Mono';-inkscape-font-specification:'IBM Plex Mono Semi-Bold';letter-spacing:0px;word-spacing:0px;white-space:pre;shape-inside:url(#rect865);fill:#625970;fill-opacity:1"
       id="text863"
       transform="translate(75,52.5)"
       aria-label="fin."><path
         id="path2067"
         style="font-style:italic;font-variant:normal;font-weight:bold;font-stretch:normal;font-size:100px;font-family:'IBM Plex Mono';-inkscape-font-specification:'IBM Plex Mono'"
         d="m 17.3,111.7 c 8.4,0 14.2,-4.7 16.1,-15.9 L 41,50.3 H 59.7 L 61.6,38.9 H 43 l 1.8,-11 H 63.4 L 65.3,16.5 H 47.5 c -10.7,0 -16.4,6 -17.8,14.6 l -1.3,7.8 H 12.1 l -1.9,11.4 h 16.3 l -8.2,49.4 -1.2,0.5 -10.3,-13.6 -10,6.9 4.1,5.9 c 5.2,7.4 9.1,12.3 16.4,12.3 z" /><path
         id="path2069"
         style="font-style:italic;font-variant:normal;font-weight:bold;font-stretch:normal;font-size:100px;font-family:'IBM Plex Mono';-inkscape-font-specification:'IBM Plex Mono'"
         d="m 93.860938,32.1 c 6,0 8.700002,-2.4 9.400002,-6.6 0.4,-2.4 0.5,-3.3 0.5,-4 0,-3.5 -2.2,-6.1 -8.200003,-6.1 -6,0 -8.699999,2.4 -9.399999,6.6 -0.400001,2.4 -0.5,3.3 -0.5,4 0,3.5 2.2,6.1 8.2,6.1 z m -4.100001,59.6 c 6.900001,0 12.500003,-3.9 19.200003,-11.5 l 6.1,-7 -8,-7.1 -14.000003,14.3 -1.699999,-0.5 7.699999,-41 H 68.660938 l -1.900001,11.4 h 15.600001 l -4,21.4 c -0.800001,4.1 -1,5.8 -1,8 0,7.3 4.199999,12 12.399999,12 z" /><path
         id="path2071"
         style="font-style:italic;font-variant:normal;font-weight:bold;font-stretch:normal;font-size:100px;font-family:'IBM Plex Mono';-inkscape-font-specification:'IBM Plex Mono'"
         d="m 137.02187,90.5 4.5,-26.9 c 0.7,-4.2 3.2,-8 4.7,-10 2.3,-3 4.7,-4.7 8.1,-4.7 4.5,0 6,3.4 6,6.1 0,2.5 -0.4,4.4 -0.7,6.2 l -4.9,29.3 h 14.6 l 4.6,-27.5 c 0.8,-4.8 1.1,-7.5 1.1,-10.4 0,-8 -4,-14.9 -14.1,-14.9 -8.2,0 -12.9,5.1 -16.8,13.5 h -0.5 l 2,-12.3 h -14.6 l -8.59999,51.6 z" /><path
         id="path2073"
         style="font-style:italic;font-variant:normal;font-weight:bold;font-stretch:normal;font-size:100px;font-family:'IBM Plex Mono';-inkscape-font-specification:'IBM Plex Mono'"
         d="m 205.38281,91.7 c 7.3,0 10.8,-3.8 11.5,-8 0.4,-2.4 0.6,-4 0.6,-5.1 0,-3.7 -2.6,-6.7 -9.2,-6.7 -7.3,0 -10.8,3.8 -11.5,8 -0.4,2.4 -0.6,4 -0.6,5.1 0,3.7 2.6,6.7 9.2,6.7 z" /></g></g></svg>
