<?xml version="1.0" encoding="UTF-8" standalone="no"?>
<svg
   xmlns:svg="http://www.w3.org/2000/svg"
   xmlns="http://www.w3.org/2000/svg"
   xmlns:sodipodi="http://sodipodi.sourceforge.net/DTD/sodipodi-0.dtd"
   xmlns:inkscape="http://www.inkscape.org/namespaces/inkscape"
   inkscape:version="1.1-dev (1:0.92.0+devel+202005110039+9ce7266)"
   sodipodi:docname="title.svg"
   viewBox="0 0 2527.5789 2526.3159"
   height="2526.3159"
   width="2527.5789"
   xml:space="preserve"
   id="svg2"
   version="1.1"><defs
     id="defs6"><rect
       id="rect865"
       height="1910.1671"
       width="1798.1722"
       y="-3.4368422e-05"
       x="0" /><rect
       x="0"
       y="-3.4368422e-05"
       width="1798.1722"
       height="1910.1671"
       id="rect913" /></defs><sodipodi:namedview
     inkscape:current-layer="g8"
     inkscape:window-maximized="0"
     inkscape:window-y="181"
     inkscape:window-x="279"
     inkscape:cy="951.65148"
     inkscape:cx="493.70912"
     inkscape:zoom="0.15893289"
     showgrid="false"
     id="namedview4"
     inkscape:window-height="859"
     inkscape:window-width="1240"
     inkscape:pageshadow="2"
     inkscape:pageopacity="0"
     guidetolerance="10"
     gridtolerance="10"
     objecttolerance="10"
     borderopacity="1"
     bordercolor="#666666"
     pagecolor="#ffffff" /><g
     transform="matrix(1.3333333,0,0,1.3333333,0,4.5824564e-5)"
     inkscape:label="01"
     inkscape:groupmode="layer"
     id="g8"><g
       style="font-style:normal;font-variant:normal;font-weight:600;font-stretch:normal;font-size:100px;font-family:'IBM Plex Mono';-inkscape-font-specification:'IBM Plex Mono Semi-Bold';letter-spacing:0px;word-spacing:0px;white-space:pre;shape-inside:url(#rect865);fill:#625970;fill-opacity:1"
       id="text863"
       transform="translate(75,52.5)"
       aria-label="Lilac

a mini concert for piano"><path
         id="path1934"
         style="font-style:italic;font-weight:bold"
         d="m 50.1,90.5 2,-12.2 H 21.9 L 31.5,20.7 H 16.7 L 5.1,90.5 Z" /><path
         id="path1936"
         style="font-style:italic;font-weight:bold"
         d="m 93.860938,32.1 c 6,0 8.700002,-2.4 9.400002,-6.6 0.4,-2.4 0.5,-3.3 0.5,-4 0,-3.5 -2.2,-6.1 -8.200003,-6.1 -6,0 -8.699999,2.4 -9.399999,6.6 -0.400001,2.4 -0.5,3.3 -0.5,4 0,3.5 2.2,6.1 8.2,6.1 z m -4.100001,59.6 c 6.900001,0 12.500003,-3.9 19.200003,-11.5 l 6.1,-7 -8,-7.1 -14.000003,14.3 -1.699999,-0.5 7.699999,-41 H 68.660938 l -1.900001,11.4 h 15.600001 l -4,21.4 c -0.800001,4.1 -1,5.8 -1,8 0,7.3 4.199999,12 12.399999,12 z" /><path
         id="path1938"
         style="font-style:italic;font-weight:bold"
         d="m 146.92187,91.7 c 6.9,0 12.5,-3.9 19.2,-11.5 l 6.1,-7 -8,-7.1 -14,14.3 -1.5,-0.5 11.7,-63.4 h -29.9 l -1.9,11.4 h 15.2 l -8.1,43.8 c -0.8,4.1 -1,5.8 -1,8 0,7.3 4,12 12.2,12 z" /><path
         id="path1940"
         style="font-style:italic;font-weight:bold"
         d="m 229.18281,90.5 8.6,-51.6 h -14.6 l -1.6,9.6 h -0.7 c -1.5,-6.8 -5.4,-10.8 -13.5,-10.8 -14.3,0 -23.7,13.5 -23.7,34 0,12.1 4.2,20 15.1,20 8.8,0 13.4,-5.6 17.3,-13.5 h 0.5 l -2,12.3 z m -23.9,-10.1 c -5,0 -6.7,-3.8 -6.8,-8.7 0,-1.7 0.2,-3.3 0.4,-4.5 l 1,-6 c 1.3,-7.8 5,-12.2 12.2,-12.2 6.3,0 8.9,3.1 8,8.5 l -1.4,8.3 c -0.7,4.3 -3.1,7.8 -4.7,9.7 -2.4,3 -5.1,4.9 -8.7,4.9 z" /><path
         id="path1942"
         style="font-style:italic;font-weight:bold"
         d="m 267.14375,91.7 c 12.4,0 19.2,-6 26,-16.8 l -9.1,-5.9 c -7.3,9.6 -10.3,11 -14.5,11 -6.6,0 -9.1,-3.6 -9.1,-8.9 0,-1.6 0.2,-3.5 0.4,-4.7 l 1,-6 c 1.2,-7.2 5.4,-11 11.1,-11 5.8,0 7.9,2.7 9.3,7 l 11.9,-5.6 c -2.2,-7.8 -8.2,-13.1 -20,-13.1 -18.4,0 -28.6,14.6 -28.6,32.2 0,13.8 7.6,21.8 21.6,21.8 z" /><path
         id="path1944"
         style="font-style:normal;font-variant:normal;font-weight:normal;font-stretch:normal;font-size:100px;font-family:'IBM Plex Mono';-inkscape-font-specification:'IBM Plex Mono'"
         d="m 55,340.5 v -7 h -7.2 v -28.4 c 0,-10.9 -7.7,-17.4 -19.8,-17.4 -10.5,0 -17.1,5 -19.7,10.4 l 5.4,4 c 2.7,-4.7 6.9,-7.6 13.8,-7.6 7.8,0 12.3,3.9 12.3,11.4 v 5.1 h -11 c -15.5,0 -22.2,5.5 -22.2,15 0,9.7 6.9,15.7 17.7,15.7 8.4,0 13.3,-3.7 15.5,-9.6 h 0.5 c 0.6,4.8 3,8.4 9.2,8.4 z M 25.7,335 C 19.1,335 15,332.2 15,326.9 v -2.1 c 0,-5 4.3,-7.8 13.8,-7.8 h 11 v 8.5 c 0,5.3 -5.9,9.5 -14.1,9.5 z" /><path
         id="path1946"
         style="font-style:normal;font-variant:normal;font-weight:normal;font-stretch:normal;font-size:100px;font-family:'IBM Plex Mono';-inkscape-font-specification:'IBM Plex Mono'"
         d="m 132.72187,340.5 v -37.9 c 0,-5.5 3,-8.3 7.3,-8.3 4.7,0 6.2,2.9 6.2,11.7 v 34.5 h 7.4 v -37.9 c 0,-5.5 3,-8.3 7.2,-8.3 4.8,0 6.3,2.9 6.3,11.7 v 34.5 h 7.4 v -35.8 c 0,-10.9 -2.2,-17 -10.6,-17 -6.1,0 -9.3,3.4 -11.2,8.1 h -0.3 c -0.6,-4.8 -3.5,-8.1 -9.4,-8.1 -5.7,0 -8.3,3.2 -9.9,7.2 h -0.4 v -6 h -7.39999 v 51.6 z" /><path
         id="path1948"
         style="font-style:normal;font-variant:normal;font-weight:normal;font-stretch:normal;font-size:100px;font-family:'IBM Plex Mono';-inkscape-font-specification:'IBM Plex Mono'"
         d="m 213.08281,277.5 c 4.6,0 6.3,-2.2 6.3,-5.1 v -1.6 c 0,-2.9 -1.7,-5.1 -6.3,-5.1 -4.6,0 -6.3,2.2 -6.3,5.1 v 1.6 c 0,2.9 1.7,5.1 6.3,5.1 z m -22.6,63 h 44 v -6.8 h -17.4 v -44.8 h -26.6 v 6.8 h 18.6 v 38 h -18.6 z" /><path
         id="path1950"
         style="font-style:normal;font-variant:normal;font-weight:normal;font-stretch:normal;font-size:100px;font-family:'IBM Plex Mono';-inkscape-font-specification:'IBM Plex Mono'"
         d="m 257.64375,340.5 v -35.8 c 0,-6.8 6.4,-9.9 12.8,-9.9 7.9,0 12.2,4.6 12.2,14 v 31.7 h 8 v -33.1 c 0,-12.5 -7.1,-19.7 -17.9,-19.7 -8.5,0 -12.5,4.5 -14.7,9.6 h -0.4 v -8.4 h -8 v 51.6 z" /><path
         id="path1952"
         style="font-style:normal;font-variant:normal;font-weight:normal;font-stretch:normal;font-size:100px;font-family:'IBM Plex Mono';-inkscape-font-specification:'IBM Plex Mono'"
         d="m 333.00469,277.5 c 4.6,0 6.3,-2.2 6.3,-5.1 v -1.6 c 0,-2.9 -1.7,-5.1 -6.3,-5.1 -4.6,0 -6.3,2.2 -6.3,5.1 v 1.6 c 0,2.9 1.7,5.1 6.3,5.1 z m -22.6,63 h 44 v -6.8 h -17.4 v -44.8 h -26.6 v 6.8 h 18.6 v 38 h -18.6 z" /><path
         id="path1954"
         style="font-style:normal;font-variant:normal;font-weight:normal;font-stretch:normal;font-size:100px;font-family:'IBM Plex Mono';-inkscape-font-specification:'IBM Plex Mono'"
         d="m 451.52656,341.7 c 10.3,0 16.8,-5.1 19.8,-12 l -5.7,-3.9 c -2.6,5.6 -7.1,9 -14,9 -9.7,0 -14.9,-6.6 -14.9,-15.7 v -8.8 c 0,-9.1 5.3,-15.7 14.7,-15.7 6.4,0 10.8,3.1 12.7,8.4 l 6.4,-3.4 c -2.9,-7 -9.1,-11.9 -19.1,-11.9 -14.6,0 -23.3,10.6 -23.3,27 0,16.3 8.6,27 23.4,27 z" /><path
         id="path1956"
         style="font-style:normal;font-variant:normal;font-weight:normal;font-stretch:normal;font-size:100px;font-family:'IBM Plex Mono';-inkscape-font-specification:'IBM Plex Mono'"
         d="m 509.6875,341.7 c 14.5,0 23.4,-10.6 23.4,-27 0,-16.4 -8.9,-27 -23.4,-27 -14.5,0 -23.4,10.6 -23.4,27 0,16.4 8.9,27 23.4,27 z m 0,-6.9 c -8.9,0 -14.9,-5.3 -14.9,-16.4 V 311 c 0,-11.1 6,-16.4 14.9,-16.4 8.9,0 14.9,5.3 14.9,16.4 v 7.4 c 0,11.1 -6,16.4 -14.9,16.4 z" /><path
         id="path1958"
         style="font-style:normal;font-variant:normal;font-weight:normal;font-stretch:normal;font-size:100px;font-family:'IBM Plex Mono';-inkscape-font-specification:'IBM Plex Mono'"
         d="m 557.44844,340.5 v -35.8 c 0,-6.8 6.4,-9.9 12.8,-9.9 7.9,0 12.2,4.6 12.2,14 v 31.7 h 8 v -33.1 c 0,-12.5 -7.1,-19.7 -17.9,-19.7 -8.5,0 -12.5,4.5 -14.7,9.6 h -0.4 v -8.4 h -8 v 51.6 z" /><path
         id="path1960"
         style="font-style:normal;font-variant:normal;font-weight:normal;font-stretch:normal;font-size:100px;font-family:'IBM Plex Mono';-inkscape-font-specification:'IBM Plex Mono'"
         d="m 631.40937,341.7 c 10.30001,0 16.80001,-5.1 19.80001,-12 l -5.70001,-3.9 c -2.6,5.6 -7.1,9 -14,9 -9.69999,0 -14.9,-6.6 -14.9,-15.7 v -8.8 c 0,-9.1 5.3,-15.7 14.70001,-15.7 6.4,0 10.79999,3.1 12.69999,8.4 l 6.4,-3.4 c -2.9,-7 -9.09999,-11.9 -19.09999,-11.9 -14.6,0 -23.30001,10.6 -23.30001,27 0,16.3 8.6,27 23.4,27 z" /><path
         id="path1962"
         style="font-style:normal;font-variant:normal;font-weight:normal;font-stretch:normal;font-size:100px;font-family:'IBM Plex Mono';-inkscape-font-specification:'IBM Plex Mono'"
         d="m 690.47031,341.7 c 10.2,0 17.6,-5 20.7,-11.9 l -5.9,-4 c -2.7,5.6 -7.9,9 -14.8,9 -9.7,0 -15.8,-6.6 -15.8,-15.7 v -2.4 h 38.2 v -3.8 c 0,-14.6 -9,-25.2 -22.9,-25.2 -14,0 -23.7,10.6 -23.7,27.1 0,16.3 9.4,26.9 24.2,26.9 z m -0.5,-47.4 c 8.5,0 14.3,6.2 14.3,15.3 v 1.1 h -29.6 V 310 c 0,-9 6.5,-15.7 15.3,-15.7 z" /><path
         id="path1964"
         style="font-style:normal;font-variant:normal;font-weight:normal;font-stretch:normal;font-size:100px;font-family:'IBM Plex Mono';-inkscape-font-specification:'IBM Plex Mono'"
         d="m 727.23125,340.5 h 43.1 v -6.8 h -20 v -22.3 c 0,-8 5.3,-14.5 15.4,-14.5 h 9.7 v -8 h -7.2 c -10.8,0 -15.4,6.2 -17.4,13 h -0.5 v -13 h -23.1 v 6.8 h 15.1 v 38 h -15.1 z" /><path
         id="path1966"
         style="font-style:normal;font-variant:normal;font-weight:normal;font-stretch:normal;font-size:100px;font-family:'IBM Plex Mono';-inkscape-font-specification:'IBM Plex Mono'"
         d="m 832.09219,340.5 v -6.8 h -23.5 v -38 h 23.5 v -6.8 h -23.5 v -18.2 h -7.7 v 13.5 c 0,3.5 -1.3,4.7 -4.7,4.7 h -12.8 v 6.8 h 17.2 v 33 c 0,6.9 3.6,11.8 11.4,11.8 z" /><path
         id="path1968"
         style="font-style:normal;font-variant:normal;font-weight:normal;font-stretch:normal;font-size:100px;font-family:'IBM Plex Mono';-inkscape-font-specification:'IBM Plex Mono'"
         d="m 907.71406,340.5 h 43.8 v -6.8 h -18.4 v -38 h 20.7 v -6.8 h -20.7 v -15.6 h 20.7 v -6.8 h -17.3 c -7.8,0 -11.4,4.9 -11.4,11.8 v 10.6 h -18.4 v 6.8 h 18.4 v 38 h -17.4 z" /><path
         id="path1970"
         style="font-style:normal;font-variant:normal;font-weight:normal;font-stretch:normal;font-size:100px;font-family:'IBM Plex Mono';-inkscape-font-specification:'IBM Plex Mono'"
         d="m 989.375,341.7 c 14.5,0 23.4,-10.6 23.4,-27 0,-16.4 -8.9,-27 -23.4,-27 -14.5,0 -23.4,10.6 -23.4,27 0,16.4 8.9,27 23.4,27 z m 0,-6.9 c -8.9,0 -14.9,-5.3 -14.9,-16.4 V 311 c 0,-11.1 6,-16.4 14.9,-16.4 8.9,0 14.9,5.3 14.9,16.4 v 7.4 c 0,11.1 -6,16.4 -14.9,16.4 z" /><path
         id="path1972"
         style="font-style:normal;font-variant:normal;font-weight:normal;font-stretch:normal;font-size:100px;font-family:'IBM Plex Mono';-inkscape-font-specification:'IBM Plex Mono'"
         d="m 1027.0359,340.5 h 43.1 v -6.8 h -20 v -22.3 c 0,-8 5.3,-14.5 15.4,-14.5 h 9.7 v -8 h -7.2 c -10.8,0 -15.4,6.2 -17.4,13 h -0.5 v -13 h -23.1 v 6.8 h 15.1 v 38 h -15.1 z" /><path
         id="path1974"
         style="font-style:normal;font-variant:normal;font-weight:normal;font-stretch:normal;font-size:100px;font-family:'IBM Plex Mono';-inkscape-font-specification:'IBM Plex Mono'"
         d="m 1148.7578,360.5 h 8 v -28.4 h 0.4 c 3.3,6.3 8.7,9.6 15.9,9.6 12.6,0 20.2,-10.1 20.2,-27 0,-16.9 -7.6,-27 -20.2,-27 -7.2,0 -12.6,3.3 -15.9,9.6 h -0.4 v -8.4 h -8 z m 21.2,-25.9 c -7.1,0 -13.2,-3.7 -13.2,-10.6 v -18.6 c 0,-6.9 6.1,-10.6 13.2,-10.6 9.3,0 14.7,6.2 14.7,15.5 v 8.8 c 0,9.3 -5.4,15.5 -14.7,15.5 z" /><path
         id="path1976"
         style="font-style:normal;font-variant:normal;font-weight:normal;font-stretch:normal;font-size:100px;font-family:'IBM Plex Mono';-inkscape-font-specification:'IBM Plex Mono'"
         d="m 1232.4188,277.5 c 4.6,0 6.3,-2.2 6.3,-5.1 v -1.6 c 0,-2.9 -1.7,-5.1 -6.3,-5.1 -4.6,0 -6.3,2.2 -6.3,5.1 v 1.6 c 0,2.9 1.7,5.1 6.3,5.1 z m -22.6,63 h 44 v -6.8 h -17.4 v -44.8 h -26.6 v 6.8 h 18.6 v 38 h -18.6 z" /><path
         id="path1978"
         style="font-style:normal;font-variant:normal;font-weight:normal;font-stretch:normal;font-size:100px;font-family:'IBM Plex Mono';-inkscape-font-specification:'IBM Plex Mono'"
         d="m 1314.1797,340.5 v -7 h -7.2 v -28.4 c 0,-10.9 -7.7,-17.4 -19.8,-17.4 -10.5,0 -17.1,5 -19.7,10.4 l 5.4,4 c 2.7,-4.7 6.9,-7.6 13.8,-7.6 7.8,0 12.3,3.9 12.3,11.4 v 5.1 h -11 c -15.5,0 -22.2,5.5 -22.2,15 0,9.7 6.9,15.7 17.7,15.7 8.4,0 13.3,-3.7 15.5,-9.6 h 0.5 c 0.6,4.8 3,8.4 9.2,8.4 z m -29.3,-5.5 c -6.6,0 -10.7,-2.8 -10.7,-8.1 v -2.1 c 0,-5 4.3,-7.8 13.8,-7.8 h 11 v 8.5 c 0,5.3 -5.9,9.5 -14.1,9.5 z" /><path
         id="path1980"
         style="font-style:normal;font-variant:normal;font-weight:normal;font-stretch:normal;font-size:100px;font-family:'IBM Plex Mono';-inkscape-font-specification:'IBM Plex Mono'"
         d="m 1336.9406,340.5 v -35.8 c 0,-6.8 6.4,-9.9 12.8,-9.9 7.9,0 12.2,4.6 12.2,14 v 31.7 h 8 v -33.1 c 0,-12.5 -7.1,-19.7 -17.9,-19.7 -8.5,0 -12.5,4.5 -14.7,9.6 h -0.4 v -8.4 h -8 v 51.6 z" /><path
         id="path1982"
         style="font-style:normal;font-variant:normal;font-weight:normal;font-stretch:normal;font-size:100px;font-family:'IBM Plex Mono';-inkscape-font-specification:'IBM Plex Mono'"
         d="m 1409.1016,341.7 c 14.5,0 23.4,-10.6 23.4,-27 0,-16.4 -8.9,-27 -23.4,-27 -14.5,0 -23.4,10.6 -23.4,27 0,16.4 8.9,27 23.4,27 z m 0,-6.9 c -8.9,0 -14.9,-5.3 -14.9,-16.4 V 311 c 0,-11.1 6,-16.4 14.9,-16.4 8.9,0 14.9,5.3 14.9,16.4 v 7.4 c 0,11.1 -6,16.4 -14.9,16.4 z" /></g></g></svg>
