<?xml version="1.0" encoding="UTF-8" standalone="no"?>
<!-- Created with Inkscape (http://www.inkscape.org/) -->

<svg
   version="1.1"
   id="svg1"
   width="1204.0002"
   height="1075.0487"
   viewBox="0 0 1204.0002 1075.0487"
   sodipodi:docname="Century Expanded subunits.svg"
   inkscape:version="1.4.4 (1:1.4.4+202605061436+dcaf3e7d9e)"
   xml:space="preserve"
   xmlns:inkscape="http://www.inkscape.org/namespaces/inkscape"
   xmlns:sodipodi="http://sodipodi.sourceforge.net/DTD/sodipodi-0.dtd"
   xmlns="http://www.w3.org/2000/svg"
   xmlns:svg="http://www.w3.org/2000/svg"><sodipodi:namedview
     id="namedview1"
     pagecolor="#ffffff"
     bordercolor="#666666"
     borderopacity="1.0"
     inkscape:showpageshadow="2"
     inkscape:pageopacity="0.0"
     inkscape:pagecheckerboard="0"
     inkscape:deskcolor="#d1d1d1"
     inkscape:zoom="0.73671083"
     inkscape:cx="794.74873"
     inkscape:cy="571.45895"
     inkscape:window-width="1920"
     inkscape:window-height="1051"
     inkscape:window-x="0"
     inkscape:window-y="0"
     inkscape:window-maximized="1"
     inkscape:current-layer="svg1" /><defs
     id="defs1"><rect
       x="-2.7147694"
       y="0"
       width="1209.4298"
       height="358.34955"
       id="rect4" /><rect
       x="0"
       y="0"
       width="1204"
       height="662.815"
       id="rect2" /><rect
       x="-57.398411"
       y="-45.098751"
       width="1408.9943"
       height="619.08289"
       id="rect1" /><rect
       x="-2.7147694"
       y="0"
       width="1209.4298"
       height="358.34955"
       id="rect5" /><rect
       x="-2.7147694"
       y="0"
       width="1209.4298"
       height="358.34955"
       id="rect6" /><rect
       x="-2.7147694"
       y="0"
       width="1209.4298"
       height="358.34955"
       id="rect8" /><rect
       x="-2.7147694"
       y="0"
       width="1209.4298"
       height="358.34955"
       id="rect9" /><rect
       x="18.603092"
       y="8.4559517"
       width="603.75494"
       height="312.87021"
       id="rect4-5" /><rect
       x="-3.3823805"
       y="0"
       width="1205.8187"
       height="524.26898"
       id="rect3" /><rect
       x="-57.398411"
       y="-45.098751"
       width="1408.9943"
       height="619.08289"
       id="rect1-3" /><rect
       x="18.603092"
       y="8.4559517"
       width="603.75494"
       height="312.87021"
       id="rect5-5" /><rect
       x="18.603092"
       y="8.4559517"
       width="603.75494"
       height="312.87021"
       id="rect7" /><rect
       x="18.603092"
       y="8.4559517"
       width="603.75494"
       height="312.87021"
       id="rect8-6" /></defs><g
     id="path34"
     style="opacity:1"><path
       style="baseline-shift:baseline;display:inline;overflow:visible;vector-effect:none;stroke-linecap:round;stroke-linejoin:round;paint-order:markers stroke fill;enable-background:accumulate;stop-color:#000000;stop-opacity:1"
       d="m 702.5918,8.4746094 a 1.0001,1.0001 0 0 0 -1,1 V 1068.2813 a 1.0001,1.0001 0 0 0 1,1 h 238.65625 a 1.0001,1.0001 0 0 0 1,-1 V 9.4746094 a 1.0001,1.0001 0 0 0 -1,-1 z m 1,1.9999996 H 940.24805 V 1067.2813 H 703.5918 Z"
       id="path15" /><path
       style="baseline-shift:baseline;display:inline;overflow:visible;vector-effect:none;fill:#c4d7ed;stroke-linecap:round;stroke-linejoin:round;paint-order:markers stroke fill;enable-background:accumulate;stop-color:#000000;stop-opacity:1"
       d="m 702.59117,9.4750325 h 238.6577 V 1068.2811 h -238.6577 z"
       id="path16" /></g><g
     id="path32"
     style="opacity:1"><path
       style="baseline-shift:baseline;display:inline;overflow:visible;vector-effect:none;stroke-linecap:round;stroke-linejoin:round;paint-order:markers stroke fill;enable-background:accumulate;stop-color:#000000;stop-opacity:1"
       d="m 464.04297,8.78125 a 1.0001,1.0001 0 0 0 -1,1 V 1067.9746 a 1.0001,1.0001 0 0 0 1,1 h 291.28711 a 1.0001,1.0001 0 0 0 1,-1 V 9.78125 a 1.0001,1.0001 0 0 0 -1,-1 z m 1,2 H 754.33008 V 1066.9746 H 465.04297 Z"
       id="path13" /><path
       style="baseline-shift:baseline;display:inline;overflow:visible;vector-effect:none;fill:#ffffff;stroke-linecap:round;stroke-linejoin:round;paint-order:markers stroke fill;enable-background:accumulate;stop-color:#000000;stop-opacity:1"
       d="M 464.04261,9.7812921 H 755.32916 V 1067.9749 H 464.04261 Z"
       id="path14" /></g><g
     id="path36"
     style="opacity:1"><path
       style="baseline-shift:baseline;display:inline;overflow:visible;vector-effect:none;stroke-linecap:round;stroke-linejoin:round;paint-order:markers stroke fill;enable-background:accumulate;stop-color:#000000;stop-opacity:1"
       d="m 225.42773,9.0253906 a 1.0001,1.0001 0 0 0 -1,1.0000004 V 1067.7305 a 1.0001,1.0001 0 0 0 1,1 h 337.1836 a 1.0001,1.0001 0 0 0 1,-1 V 10.025391 a 1.0001,1.0001 0 0 0 -1,-1.0000004 z m 1,2.0000004 h 335.1836 V 1066.7305 h -335.1836 z"
       id="path11" /><path
       style="baseline-shift:baseline;display:inline;overflow:visible;vector-effect:none;fill:#c4d7ed;stroke-linecap:round;stroke-linejoin:round;paint-order:markers stroke fill;enable-background:accumulate;stop-color:#000000;stop-opacity:1"
       d="M 225.42758,10.026281 H 562.61069 V 1067.7299 H 225.42758 Z"
       id="path12" /></g><g
     id="path30"
     style="opacity:1"><path
       style="baseline-shift:baseline;display:inline;overflow:visible;vector-effect:none;stroke-linecap:round;stroke-linejoin:round;paint-order:markers stroke fill;enable-background:accumulate;stop-color:#000000;stop-opacity:1"
       d="m 866.44141,7.4921875 a 1.0001,1.0001 0 0 0 -1,1 V 1069.2656 a 1.0001,1.0001 0 0 0 1,1 h 105.20117 a 1.0001,1.0001 0 0 0 1,-1 V 8.4921875 a 1.0001,1.0001 0 0 0 -1,-1 z m 1,2 H 970.64258 V 1068.2656 H 867.44141 Z"
       id="path9" /><path
       style="baseline-shift:baseline;display:inline;overflow:visible;vector-effect:none;fill:#ffffff;stroke-linecap:round;stroke-linejoin:round;paint-order:markers stroke fill;enable-background:accumulate;stop-color:#000000;stop-opacity:1"
       d="M 866.44067,8.4914699 H 971.64245 V 1069.2647 H 866.44067 Z"
       id="path10" /></g><path
     style="font-size:266.667px;line-height:1.25;font-family:Century72;-inkscape-font-specification:Century72;text-align:center;letter-spacing:0px;word-spacing:0px;text-anchor:middle;white-space:pre"
     d="m 384.13307,240.13363 v 6.53334 h 59.7334 v -6.40001 c -23.73336,0 -26.2667,-21.46669 -26.2667,-34.13338 V 85.866771 h 0.93334 L 466.2665,246.66697 h 5.60001 L 519.73323,85.866771 h 1.2 V 217.3336 c 0,11.33335 -0.93333,22.93336 -17.86668,22.93336 h -8.40001 v 6.40001 h 72.00008 v -6.13334 c -12.13334,0 -18.00002,-0.26667 -21.60002,-4.26667 -4.13334,-4.53334 -4.40001,-10.66668 -4.40001,-20.6667 V 96.000117 c 0,-16.266686 10.80001,-16.266686 26.2667,-16.266686 v -6.533342 h -51.3334 L 475.59985,208.00025 435.73313,73.200089 h -52.00006 v 6.533342 c 18.53335,0 26.40003,0 26.40003,24.266699 v 101.60012 c 0,29.33337 -12.40002,34.53338 -26.00003,34.53338 z m 213.20005,-81.73344 c 0,8.26668 4.80001,14.13335 12.00002,14.13335 6.53334,0 13.20001,-4.53333 13.20001,-12.26668 0,-10.40001 -9.60001,-11.20001 -9.60001,-14.13335 0,-2.93334 6.26668,-8.13334 23.73336,-8.13334 19.73336,0 23.0667,12.13335 23.0667,28.13337 v 13.20001 c -42.00005,9.86668 -66.93342,22.93336 -66.93342,45.06672 0,13.20002 9.20002,24.80003 30.00004,24.80003 16.53335,0 30.53337,-12.40001 35.60004,-22.53336 h 0.93334 c 1.06667,13.20002 6.00001,22.6667 18.53335,22.6667 11.60002,0 18.93336,-12.00002 20.00003,-31.73337 l -5.46667,-0.80001 c -0.26667,13.86669 -4.80001,20.93336 -9.60002,20.93336 -6,0 -7.60001,-5.73334 -7.60001,-17.20002 v -52.80006 c 0,-33.06671 -19.86669,-35.46671 -38.26671,-35.46671 -28.53337,0 -39.60005,15.33335 -39.60005,26.13336 z m 62.40008,26.40004 v 30.40003 c -2.26667,5.33334 -6.66668,12.66668 -12.40002,17.73336 -5.46667,4.8 -12.26668,8.26667 -19.33335,8.26667 -11.46668,0 -16.80002,-9.20001 -16.80002,-18.40002 0,-21.73336 26.80003,-31.33337 48.53339,-38.00004 z M 723.73348,83.866769 c 0,6.133341 5.06667,12.533349 12.53335,12.533349 7.46668,0 12.40002,-6.400008 12.40002,-12.533349 0,-6.133341 -4.93334,-12.133348 -12.40002,-12.133348 -7.46668,0 -12.53335,6.000007 -12.53335,12.133348 z m 6.00001,78.133431 v 61.33341 c 0,14.66668 -2.4,18.00002 -15.60002,18.00002 v 5.33334 h 46.40006 v -5.33334 c -13.60002,0 -15.46669,-2.26667 -15.46669,-17.73336 v -91.60011 l -34.93337,1.86667 v 6.66667 c 17.60002,0 19.60002,4.93334 19.60002,21.4667 z m 66.66675,-60.26674 v 121.60015 c 0,14.66668 -2.40001,18.00002 -15.60002,18.00002 v 5.33334 h 46.40005 v -5.33334 c -13.60001,0 -15.46668,-2.26667 -15.46668,-17.73336 V 71.733421 l -34.93338,1.866669 v 6.666675 c 17.60002,0 19.60003,4.933339 19.60003,21.466695 z"
     id="text3"
     transform="matrix(1.6000063,0,0,1.6000063,-365.39332,-79.186863)"
     aria-label="Mail" /><path
     style="font-size:266.667px;line-height:1.25;font-family:Century12;-inkscape-font-specification:Century12;text-align:center;letter-spacing:0px;word-spacing:0px;text-anchor:middle;white-space:pre"
     d="m 379.59973,237.06696 v 9.60001 h 61.73341 v -9.46668 c -14.40002,0 -25.33337,-5.06667 -25.33337,-31.06671 V 85.866771 h 4.53334 l 42.40005,160.800199 h 6.93335 L 518.26656,85.866771 h 2.40001 V 217.3336 c 0,11.33335 -2.26667,20.26669 -19.20003,20.26669 h -8.40001 v 9.06668 h 75.86676 v -9.06668 c -21.60002,0 -26.40003,-5.06667 -26.40003,-22.00003 V 100.00012 c 0,-16.266684 12.26668,-16.933352 27.73337,-16.933352 V 73.200089 H 511.06656 L 473.99984,203.60025 440.3998,73.200089 h -60.00007 v 9.200012 c 18.53336,0 26.40003,0 26.40003,24.266699 v 98.93345 c 0,26.6667 -13.60001,31.46671 -27.20003,31.46671 z m 211.86672,-78.66677 c 0,8.26668 4.26667,15.73336 14.26668,15.73336 7.73335,0 14.40002,-6.13334 14.40002,-13.86669 0,-10.40001 -8.66668,-11.46668 -8.66668,-14.40002 0,-2.8 5.33334,-7.86667 21.60003,-7.86667 19.73336,0 23.06669,12.26668 23.06669,28.2667 v 13.06668 c -42.00005,9.86668 -68.80008,21.73336 -68.80008,43.86672 0,13.20002 9.46668,26.40003 30.2667,26.40003 16.66669,0 32.26671,-12.80001 37.20005,-22.93336 h 1.06667 c 1.06667,13.20002 8.40001,22.93336 20.80002,22.93336 14.80002,0 19.73336,-13.60001 20.6667,-36.00004 l -7.46668,-0.8 c -0.26667,13.86668 -4.80001,20.93336 -9.60001,20.93336 -6.00001,0 -7.06668,-5.73334 -7.06668,-17.20002 v -48.80006 c 0,-33.06671 -20.13336,-37.06671 -38.53338,-37.06671 -28.53337,0 -43.20005,16.93335 -43.20005,27.73336 z m 64.00008,27.73337 v 27.73337 c -2.13334,5.33334 -6.00001,11.33334 -11.73335,16.40002 -5.46667,4.8 -10.80001,6.93334 -18.00002,6.93334 -11.46668,0 -16.93336,-5.46667 -16.93336,-14.66669 0,-21.73335 25.0667,-29.73336 46.66673,-36.40004 z M 722.13348,86.133438 c 0,8.800011 6.00001,14.800022 14.80002,14.800022 8.80001,0 14.66668,-6.000011 14.66668,-14.800022 0,-8.80001 -5.86667,-14.400017 -14.66668,-14.400017 -8.80001,0 -14.80002,5.600007 -14.80002,14.400017 z m 6.00001,77.600092 v 56.26674 c 0,14.66668 -3.60001,18.00002 -16.93336,18.00002 v 8.66668 h 50.80007 v -8.66668 c -13.60002,0 -16.80003,-2.26667 -16.80003,-17.73335 v -88.93345 l -36.66671,1.86667 v 9.06668 c 17.60002,0 19.60003,4.93334 19.60003,21.46669 z m 66.66675,-60.1334 v 116.40014 c 0,14.66668 -3.60001,18.00002 -16.93336,18.00002 v 8.66668 h 50.80006 v -8.66668 c -13.60001,0 -16.80002,-2.26667 -16.80002,-17.73335 V 71.200087 l -36.66671,1.866669 v 9.066678 c 17.60002,0 19.60003,4.933339 19.60003,21.466696 z"
     id="text5"
     transform="matrix(1.6000063,0,0,1.6000063,-365.39332,280.81313)"
     aria-label="Mail" /><path
     style="font-size:266.667px;line-height:1.25;font-family:Century06;-inkscape-font-specification:Century06;text-align:center;letter-spacing:0px;word-spacing:0px;text-anchor:middle;white-space:pre"
     d="m 373.19972,237.06696 v 9.60001 h 61.73341 v -9.46668 c -14.40002,0 -24.40003,-5.06667 -24.40003,-31.06671 V 87.200106 h 5.20001 l 47.60005,159.466864 h 6.93335 L 521.5999,85.866771 h 2.4 V 217.3336 c 0,11.33335 -2.26666,20.26669 -19.20002,20.26669 h -8.40001 v 9.06668 h 77.6001 v -9.06668 c -21.60003,0 -26.40004,-5.06667 -26.40004,-22.00003 V 100.00012 c 0,-16.266684 12.26669,-16.933352 27.73337,-16.933352 V 73.200089 H 514.39989 L 474.39984,203.60025 436.66646,73.200089 h -62.66674 v 9.200012 c 18.53336,0 26.40003,0 26.40003,24.266699 v 98.93345 c 0,26.6667 -13.60001,31.46671 -27.20003,31.46671 z m 212.80006,-78.66677 c 0,10.93335 7.46667,16.53336 18.80002,16.53336 11.73335,0 18.40002,-6.93334 18.40002,-14.66669 0,-10.40001 -7.46667,-12.80001 -7.46667,-15.73335 0,-2.8 5.46667,-6.53334 19.06669,-6.53334 21.06669,0 25.86669,12.26668 25.86669,28.2667 v 11.73335 c -51.33339,12.53335 -80.93343,20.40002 -80.93343,45.20005 0,15.86669 13.46668,26.40003 39.60005,26.40003 23.33336,0 35.06671,-12.80001 40.00005,-22.93336 h 1.06667 c 1.06666,13.20002 6.80001,22.93336 23.20003,22.93336 16.13335,0 24.93336,-12.26668 25.86669,-34.6667 l -8.26667,-2.13334 c -1.46667,12.53335 -4.80001,19.46669 -9.60002,19.46669 -6,0 -7.2,-4.26667 -7.2,-15.73335 v -48.80006 c 0,-33.06671 -21.60003,-37.06671 -48.00006,-37.06671 -28.53337,0 -50.40006,11.60001 -50.40006,27.73336 z m 74.66675,27.73337 v 27.73337 c -1.73333,4.13334 -11.73334,22.80003 -30.6667,22.80003 -11.46668,0 -19.46669,-6.26668 -19.46669,-15.46669 0,-21.73336 28.53337,-28.40003 50.13339,-35.06671 z m 59.33361,-98.666787 c 0,8.800011 6.00001,15.866687 17.46669,15.866687 11.46668,0 17.33336,-7.066676 17.33336,-15.866687 0,-8.80001 -5.86668,-15.733352 -17.33336,-15.733352 -11.46668,0 -17.46669,6.933342 -17.46669,15.733352 z m 6.13334,76.266757 v 56.26674 c 0,14.66668 -4.93333,18.00002 -18.26668,18.00002 v 8.66668 h 57.46673 v -8.66668 c -13.60001,0 -16.80002,-2.26667 -16.80002,-17.73335 v -88.93345 l -43.33338,1.86667 v 9.06668 c 17.60002,0 20.93335,4.93334 20.93335,21.46669 z m 70.13342,-60.1334 v 116.40014 c 0,14.66668 -6.4,18.00002 -19.60002,18.00002 v 8.66668 h 59.33341 v -8.66668 c -13.60002,0 -18.13336,-2.26667 -18.13336,-17.73335 V 71.200087 l -42.66672,1.866669 v 9.066678 c 17.60002,0 21.06669,4.933339 21.06669,21.466696 z"
     id="text7"
     transform="matrix(1.6000063,0,0,1.6000063,-365.39332,640.81313)"
     aria-label="Mail" /><text
     xml:space="preserve"
     id="text2"
     style="font-style:normal;font-variant:normal;font-weight:normal;font-stretch:normal;font-size:12px;line-height:1.25;font-family:FreeSerif;-inkscape-font-specification:FreeSerif;letter-spacing:0px;word-spacing:0px;white-space:pre;shape-inside:url(#rect3);display:inline"
     transform="matrix(2,0,0,2,268.97055,153.48948)" /></svg>
